ISO-10303-21;
HEADER;
/* Generated by software containing ST-Developer
 * from STEP Tools, Inc. (www.steptools.com) 
 */
/* OPTION: strings as raw bytes, not using required /X/ escapes */

FILE_DESCRIPTION(
/* description */ ('Unknown'),
/* implementation_level */ '2;1');

FILE_NAME(
/* name */ '23_FDML_stimfix_dichroic_board',
/* time_stamp */ '2026-09-07T15:10:24+02:00',
/* author */ ('Unknown'),
/* organization */ ('Unknown'),
/* preprocessor_version */ 'ST-DEVELOPER v16.7',
/* originating_system */ 'Solid Edge',
/* authorisation */ 'Unknown');

FILE_SCHEMA (('AUTOMOTIVE_DESIGN {1 0 10303 214 3 1 1}'));
ENDSEC;

DATA;
#10=PROPERTY_DEFINITION_REPRESENTATION(#14,#12);
#11=PROPERTY_DEFINITION_REPRESENTATION(#15,#13);
#12=REPRESENTATION('',(#16),#1555);
#13=REPRESENTATION('',(#17),#1555);
#14=PROPERTY_DEFINITION('pmi validation property','',#1560);
#15=PROPERTY_DEFINITION('pmi validation property','',#1560);
#16=VALUE_REPRESENTATION_ITEM('number of annotations',COUNT_MEASURE(0.));
#17=VALUE_REPRESENTATION_ITEM('number of views',COUNT_MEASURE(0.));
#18=SHAPE_REPRESENTATION_RELATIONSHIP('','',#933,#19);
#19=ADVANCED_BREP_SHAPE_REPRESENTATION('',(#931),#1555);
#20=LINE('',#1341,#74);
#21=LINE('',#1344,#75);
#22=LINE('',#1346,#76);
#23=LINE('',#1348,#77);
#24=LINE('',#1350,#78);
#25=LINE('',#1353,#79);
#26=LINE('',#1354,#80);
#27=LINE('',#1356,#81);
#28=LINE('',#1359,#82);
#29=LINE('',#1360,#83);
#30=LINE('',#1362,#84);
#31=LINE('',#1364,#85);
#32=LINE('',#1366,#86);
#33=LINE('',#1368,#87);
#34=LINE('',#1371,#88);
#35=LINE('',#1373,#89);
#36=LINE('',#1375,#90);
#37=LINE('',#1401,#91);
#38=LINE('',#1403,#92);
#39=LINE('',#1405,#93);
#40=LINE('',#1407,#94);
#41=LINE('',#1409,#95);
#42=LINE('',#1411,#96);
#43=LINE('',#1412,#97);
#44=LINE('',#1414,#98);
#45=LINE('',#1416,#99);
#46=LINE('',#1418,#100);
#47=LINE('',#1419,#101);
#48=LINE('',#1421,#102);
#49=LINE('',#1436,#103);
#50=LINE('',#1439,#104);
#51=LINE('',#1441,#105);
#52=LINE('',#1443,#106);
#53=LINE('',#1444,#107);
#54=LINE('',#1447,#108);
#55=LINE('',#1449,#109);
#56=LINE('',#1451,#110);
#57=LINE('',#1452,#111);
#58=LINE('',#1489,#112);
#59=LINE('',#1492,#113);
#60=LINE('',#1494,#114);
#61=LINE('',#1496,#115);
#62=LINE('',#1498,#116);
#63=LINE('',#1499,#117);
#64=LINE('',#1501,#118);
#65=LINE('',#1503,#119);
#66=LINE('',#1506,#120);
#67=LINE('',#1508,#121);
#68=LINE('',#1510,#122);
#69=LINE('',#1512,#123);
#70=LINE('',#1514,#124);
#71=LINE('',#1516,#125);
#72=LINE('',#1518,#126);
#73=LINE('',#1520,#127);
#74=VECTOR('',#1081,1000.);
#75=VECTOR('',#1082,1000.);
#76=VECTOR('',#1083,1000.);
#77=VECTOR('',#1084,1000.);
#78=VECTOR('',#1087,1000.);
#79=VECTOR('',#1088,1000.);
#80=VECTOR('',#1089,1000.);
#81=VECTOR('',#1092,1000.);
#82=VECTOR('',#1093,1000.);
#83=VECTOR('',#1094,1000.);
#84=VECTOR('',#1095,1000.);
#85=VECTOR('',#1096,1000.);
#86=VECTOR('',#1099,1000.);
#87=VECTOR('',#1102,1000.);
#88=VECTOR('',#1103,1000.);
#89=VECTOR('',#1104,1000.);
#90=VECTOR('',#1105,1000.);
#91=VECTOR('',#1132,1000.);
#92=VECTOR('',#1133,1000.);
#93=VECTOR('',#1134,1000.);
#94=VECTOR('',#1135,1000.);
#95=VECTOR('',#1136,1000.);
#96=VECTOR('',#1139,1000.);
#97=VECTOR('',#1140,1000.);
#98=VECTOR('',#1141,1000.);
#99=VECTOR('',#1144,1000.);
#100=VECTOR('',#1145,1000.);
#101=VECTOR('',#1146,1000.);
#102=VECTOR('',#1149,1000.);
#103=VECTOR('',#1166,1000.);
#104=VECTOR('',#1167,1000.);
#105=VECTOR('',#1168,1000.);
#106=VECTOR('',#1169,1000.);
#107=VECTOR('',#1170,1000.);
#108=VECTOR('',#1171,1000.);
#109=VECTOR('',#1172,1000.);
#110=VECTOR('',#1173,1000.);
#111=VECTOR('',#1174,1000.);
#112=VECTOR('',#1227,1000.);
#113=VECTOR('',#1228,1000.);
#114=VECTOR('',#1229,1000.);
#115=VECTOR('',#1230,1000.);
#116=VECTOR('',#1233,1000.);
#117=VECTOR('',#1234,1000.);
#118=VECTOR('',#1237,1000.);
#119=VECTOR('',#1240,1000.);
#120=VECTOR('',#1245,1000.);
#121=VECTOR('',#1246,1000.);
#122=VECTOR('',#1247,1000.);
#123=VECTOR('',#1250,1000.);
#124=VECTOR('',#1251,1000.);
#125=VECTOR('',#1254,1000.);
#126=VECTOR('',#1255,1000.);
#127=VECTOR('',#1258,1000.);
#128=PLANE('',#953);
#129=PLANE('',#954);
#130=PLANE('',#955);
#131=PLANE('',#956);
#132=PLANE('',#957);
#133=PLANE('',#958);
#134=PLANE('',#971);
#135=PLANE('',#972);
#136=PLANE('',#973);
#137=PLANE('',#974);
#138=PLANE('',#975);
#139=PLANE('',#982);
#140=PLANE('',#997);
#141=PLANE('',#998);
#142=PLANE('',#1001);
#143=PLANE('',#1004);
#144=PLANE('',#1007);
#145=PLANE('',#1008);
#146=PLANE('',#1009);
#147=PLANE('',#1010);
#148=PLANE('',#1011);
#149=PLANE('',#1012);
#150=PLANE('',#1013);
#151=PLANE('',#1014);
#152=PLANE('',#1015);
#153=PLANE('',#1016);
#154=PLANE('',#1019);
#155=PLANE('',#1020);
#156=PLANE('',#1023);
#157=PLANE('',#1026);
#158=PLANE('',#1029);
#159=PLANE('',#1032);
#160=PLANE('',#1035);
#161=PLANE('',#1038);
#162=ORIENTED_EDGE('',*,*,#366,.T.);
#163=ORIENTED_EDGE('',*,*,#367,.F.);
#164=ORIENTED_EDGE('',*,*,#368,.F.);
#165=ORIENTED_EDGE('',*,*,#369,.T.);
#166=ORIENTED_EDGE('',*,*,#370,.T.);
#167=ORIENTED_EDGE('',*,*,#371,.F.);
#168=ORIENTED_EDGE('',*,*,#372,.T.);
#169=ORIENTED_EDGE('',*,*,#373,.F.);
#170=ORIENTED_EDGE('',*,*,#374,.T.);
#171=ORIENTED_EDGE('',*,*,#375,.F.);
#172=ORIENTED_EDGE('',*,*,#376,.F.);
#173=ORIENTED_EDGE('',*,*,#377,.T.);
#174=ORIENTED_EDGE('',*,*,#374,.F.);
#175=ORIENTED_EDGE('',*,*,#378,.F.);
#176=ORIENTED_EDGE('',*,*,#379,.T.);
#177=ORIENTED_EDGE('',*,*,#380,.T.);
#178=ORIENTED_EDGE('',*,*,#381,.T.);
#179=ORIENTED_EDGE('',*,*,#376,.T.);
#180=ORIENTED_EDGE('',*,*,#382,.T.);
#181=ORIENTED_EDGE('',*,*,#383,.F.);
#182=ORIENTED_EDGE('',*,*,#381,.F.);
#183=ORIENTED_EDGE('',*,*,#384,.T.);
#184=ORIENTED_EDGE('',*,*,#385,.T.);
#185=ORIENTED_EDGE('',*,*,#386,.F.);
#186=ORIENTED_EDGE('',*,*,#379,.F.);
#187=ORIENTED_EDGE('',*,*,#387,.F.);
#188=ORIENTED_EDGE('',*,*,#388,.F.);
#189=ORIENTED_EDGE('',*,*,#389,.F.);
#190=ORIENTED_EDGE('',*,*,#390,.T.);
#191=ORIENTED_EDGE('',*,*,#384,.F.);
#192=ORIENTED_EDGE('',*,*,#380,.F.);
#193=ORIENTED_EDGE('',*,*,#386,.T.);
#194=ORIENTED_EDGE('',*,*,#370,.F.);
#195=ORIENTED_EDGE('',*,*,#372,.F.);
#196=ORIENTED_EDGE('',*,*,#391,.F.);
#197=ORIENTED_EDGE('',*,*,#392,.T.);
#198=ORIENTED_EDGE('',*,*,#393,.T.);
#199=ORIENTED_EDGE('',*,*,#394,.T.);
#200=ORIENTED_EDGE('',*,*,#395,.F.);
#201=ORIENTED_EDGE('',*,*,#396,.F.);
#202=ORIENTED_EDGE('',*,*,#397,.F.);
#203=ORIENTED_EDGE('',*,*,#398,.F.);
#204=ORIENTED_EDGE('',*,*,#399,.F.);
#205=ORIENTED_EDGE('',*,*,#400,.F.);
#206=ORIENTED_EDGE('',*,*,#401,.T.);
#207=ORIENTED_EDGE('',*,*,#402,.T.);
#208=ORIENTED_EDGE('',*,*,#403,.T.);
#209=ORIENTED_EDGE('',*,*,#404,.T.);
#210=ORIENTED_EDGE('',*,*,#405,.T.);
#211=ORIENTED_EDGE('',*,*,#406,.T.);
#212=ORIENTED_EDGE('',*,*,#382,.F.);
#213=ORIENTED_EDGE('',*,*,#390,.F.);
#214=ORIENTED_EDGE('',*,*,#385,.F.);
#215=ORIENTED_EDGE('',*,*,#407,.F.);
#216=ORIENTED_EDGE('',*,*,#408,.F.);
#217=ORIENTED_EDGE('',*,*,#409,.F.);
#218=ORIENTED_EDGE('',*,*,#410,.F.);
#219=ORIENTED_EDGE('',*,*,#411,.T.);
#220=ORIENTED_EDGE('',*,*,#412,.F.);
#221=ORIENTED_EDGE('',*,*,#391,.T.);
#222=ORIENTED_EDGE('',*,*,#413,.F.);
#223=ORIENTED_EDGE('',*,*,#414,.F.);
#224=ORIENTED_EDGE('',*,*,#387,.T.);
#225=ORIENTED_EDGE('',*,*,#378,.T.);
#226=ORIENTED_EDGE('',*,*,#383,.T.);
#227=ORIENTED_EDGE('',*,*,#411,.F.);
#228=ORIENTED_EDGE('',*,*,#408,.T.);
#229=ORIENTED_EDGE('',*,*,#415,.F.);
#230=ORIENTED_EDGE('',*,*,#416,.F.);
#231=ORIENTED_EDGE('',*,*,#413,.T.);
#232=ORIENTED_EDGE('',*,*,#394,.F.);
#233=ORIENTED_EDGE('',*,*,#417,.T.);
#234=ORIENTED_EDGE('',*,*,#410,.T.);
#235=ORIENTED_EDGE('',*,*,#418,.F.);
#236=ORIENTED_EDGE('',*,*,#392,.F.);
#237=ORIENTED_EDGE('',*,*,#412,.T.);
#238=ORIENTED_EDGE('',*,*,#409,.T.);
#239=ORIENTED_EDGE('',*,*,#417,.F.);
#240=ORIENTED_EDGE('',*,*,#393,.F.);
#241=ORIENTED_EDGE('',*,*,#418,.T.);
#242=ORIENTED_EDGE('',*,*,#419,.T.);
#243=ORIENTED_EDGE('',*,*,#420,.T.);
#244=ORIENTED_EDGE('',*,*,#421,.T.);
#245=ORIENTED_EDGE('',*,*,#422,.T.);
#246=ORIENTED_EDGE('',*,*,#423,.T.);
#247=ORIENTED_EDGE('',*,*,#424,.T.);
#248=ORIENTED_EDGE('',*,*,#425,.F.);
#249=ORIENTED_EDGE('',*,*,#426,.F.);
#250=ORIENTED_EDGE('',*,*,#427,.F.);
#251=ORIENTED_EDGE('',*,*,#428,.F.);
#252=ORIENTED_EDGE('',*,*,#429,.F.);
#253=ORIENTED_EDGE('',*,*,#430,.F.);
#254=ORIENTED_EDGE('',*,*,#431,.F.);
#255=ORIENTED_EDGE('',*,*,#432,.F.);
#256=ORIENTED_EDGE('',*,*,#388,.T.);
#257=ORIENTED_EDGE('',*,*,#414,.T.);
#258=ORIENTED_EDGE('',*,*,#416,.T.);
#259=ORIENTED_EDGE('',*,*,#433,.F.);
#260=ORIENTED_EDGE('',*,*,#389,.T.);
#261=ORIENTED_EDGE('',*,*,#433,.T.);
#262=ORIENTED_EDGE('',*,*,#415,.T.);
#263=ORIENTED_EDGE('',*,*,#407,.T.);
#264=ORIENTED_EDGE('',*,*,#434,.T.);
#265=ORIENTED_EDGE('',*,*,#406,.F.);
#266=ORIENTED_EDGE('',*,*,#435,.T.);
#267=ORIENTED_EDGE('',*,*,#405,.F.);
#268=ORIENTED_EDGE('',*,*,#436,.T.);
#269=ORIENTED_EDGE('',*,*,#404,.F.);
#270=ORIENTED_EDGE('',*,*,#437,.T.);
#271=ORIENTED_EDGE('',*,*,#403,.F.);
#272=ORIENTED_EDGE('',*,*,#438,.T.);
#273=ORIENTED_EDGE('',*,*,#402,.F.);
#274=ORIENTED_EDGE('',*,*,#439,.T.);
#275=ORIENTED_EDGE('',*,*,#401,.F.);
#276=ORIENTED_EDGE('',*,*,#440,.F.);
#277=ORIENTED_EDGE('',*,*,#400,.T.);
#278=ORIENTED_EDGE('',*,*,#377,.F.);
#279=ORIENTED_EDGE('',*,*,#440,.T.);
#280=ORIENTED_EDGE('',*,*,#441,.T.);
#281=ORIENTED_EDGE('',*,*,#375,.T.);
#282=ORIENTED_EDGE('',*,*,#441,.F.);
#283=ORIENTED_EDGE('',*,*,#399,.T.);
#284=ORIENTED_EDGE('',*,*,#442,.T.);
#285=ORIENTED_EDGE('',*,*,#373,.T.);
#286=ORIENTED_EDGE('',*,*,#442,.F.);
#287=ORIENTED_EDGE('',*,*,#398,.T.);
#288=ORIENTED_EDGE('',*,*,#443,.T.);
#289=ORIENTED_EDGE('',*,*,#371,.T.);
#290=ORIENTED_EDGE('',*,*,#443,.F.);
#291=ORIENTED_EDGE('',*,*,#397,.T.);
#292=ORIENTED_EDGE('',*,*,#444,.F.);
#293=ORIENTED_EDGE('',*,*,#445,.F.);
#294=ORIENTED_EDGE('',*,*,#446,.F.);
#295=ORIENTED_EDGE('',*,*,#447,.F.);
#296=ORIENTED_EDGE('',*,*,#366,.F.);
#297=ORIENTED_EDGE('',*,*,#448,.F.);
#298=ORIENTED_EDGE('',*,*,#444,.T.);
#299=ORIENTED_EDGE('',*,*,#449,.T.);
#300=ORIENTED_EDGE('',*,*,#430,.T.);
#301=ORIENTED_EDGE('',*,*,#449,.F.);
#302=ORIENTED_EDGE('',*,*,#447,.T.);
#303=ORIENTED_EDGE('',*,*,#450,.T.);
#304=ORIENTED_EDGE('',*,*,#431,.T.);
#305=ORIENTED_EDGE('',*,*,#450,.F.);
#306=ORIENTED_EDGE('',*,*,#446,.T.);
#307=ORIENTED_EDGE('',*,*,#451,.T.);
#308=ORIENTED_EDGE('',*,*,#432,.T.);
#309=ORIENTED_EDGE('',*,*,#451,.F.);
#310=ORIENTED_EDGE('',*,*,#445,.T.);
#311=ORIENTED_EDGE('',*,*,#448,.T.);
#312=ORIENTED_EDGE('',*,*,#429,.T.);
#313=ORIENTED_EDGE('',*,*,#425,.T.);
#314=ORIENTED_EDGE('',*,*,#452,.F.);
#315=ORIENTED_EDGE('',*,*,#453,.F.);
#316=ORIENTED_EDGE('',*,*,#454,.T.);
#317=ORIENTED_EDGE('',*,*,#428,.T.);
#318=ORIENTED_EDGE('',*,*,#455,.F.);
#319=ORIENTED_EDGE('',*,*,#456,.F.);
#320=ORIENTED_EDGE('',*,*,#452,.T.);
#321=ORIENTED_EDGE('',*,*,#427,.T.);
#322=ORIENTED_EDGE('',*,*,#457,.F.);
#323=ORIENTED_EDGE('',*,*,#458,.F.);
#324=ORIENTED_EDGE('',*,*,#455,.T.);
#325=ORIENTED_EDGE('',*,*,#426,.T.);
#326=ORIENTED_EDGE('',*,*,#454,.F.);
#327=ORIENTED_EDGE('',*,*,#459,.F.);
#328=ORIENTED_EDGE('',*,*,#457,.T.);
#329=ORIENTED_EDGE('',*,*,#368,.T.);
#330=ORIENTED_EDGE('',*,*,#453,.T.);
#331=ORIENTED_EDGE('',*,*,#456,.T.);
#332=ORIENTED_EDGE('',*,*,#458,.T.);
#333=ORIENTED_EDGE('',*,*,#459,.T.);
#334=ORIENTED_EDGE('',*,*,#396,.T.);
#335=ORIENTED_EDGE('',*,*,#460,.F.);
#336=ORIENTED_EDGE('',*,*,#369,.F.);
#337=ORIENTED_EDGE('',*,*,#460,.T.);
#338=ORIENTED_EDGE('',*,*,#461,.F.);
#339=ORIENTED_EDGE('',*,*,#434,.F.);
#340=ORIENTED_EDGE('',*,*,#461,.T.);
#341=ORIENTED_EDGE('',*,*,#424,.F.);
#342=ORIENTED_EDGE('',*,*,#462,.F.);
#343=ORIENTED_EDGE('',*,*,#435,.F.);
#344=ORIENTED_EDGE('',*,*,#462,.T.);
#345=ORIENTED_EDGE('',*,*,#423,.F.);
#346=ORIENTED_EDGE('',*,*,#463,.F.);
#347=ORIENTED_EDGE('',*,*,#436,.F.);
#348=ORIENTED_EDGE('',*,*,#463,.T.);
#349=ORIENTED_EDGE('',*,*,#422,.F.);
#350=ORIENTED_EDGE('',*,*,#464,.F.);
#351=ORIENTED_EDGE('',*,*,#439,.F.);
#352=ORIENTED_EDGE('',*,*,#464,.T.);
#353=ORIENTED_EDGE('',*,*,#421,.F.);
#354=ORIENTED_EDGE('',*,*,#465,.F.);
#355=ORIENTED_EDGE('',*,*,#437,.F.);
#356=ORIENTED_EDGE('',*,*,#465,.T.);
#357=ORIENTED_EDGE('',*,*,#420,.F.);
#358=ORIENTED_EDGE('',*,*,#466,.F.);
#359=ORIENTED_EDGE('',*,*,#438,.F.);
#360=ORIENTED_EDGE('',*,*,#466,.T.);
#361=ORIENTED_EDGE('',*,*,#419,.F.);
#362=ORIENTED_EDGE('',*,*,#467,.T.);
#363=ORIENTED_EDGE('',*,*,#367,.T.);
#364=ORIENTED_EDGE('',*,*,#467,.F.);
#365=ORIENTED_EDGE('',*,*,#395,.T.);
#366=EDGE_CURVE('',#468,#468,#552,.F.);
#367=EDGE_CURVE('',#469,#469,#553,.F.);
#368=EDGE_CURVE('',#470,#470,#554,.T.);
#369=EDGE_CURVE('',#471,#471,#555,.T.);
#370=EDGE_CURVE('',#472,#472,#556,.T.);
#371=EDGE_CURVE('',#473,#473,#557,.F.);
#372=EDGE_CURVE('',#474,#474,#558,.T.);
#373=EDGE_CURVE('',#475,#475,#559,.F.);
#374=EDGE_CURVE('',#476,#476,#560,.T.);
#375=EDGE_CURVE('',#477,#477,#561,.F.);
#376=EDGE_CURVE('',#478,#478,#562,.T.);
#377=EDGE_CURVE('',#479,#479,#563,.T.);
#378=EDGE_CURVE('',#480,#481,#20,.T.);
#379=EDGE_CURVE('',#480,#482,#21,.T.);
#380=EDGE_CURVE('',#482,#483,#22,.T.);
#381=EDGE_CURVE('',#483,#481,#23,.T.);
#382=EDGE_CURVE('',#484,#485,#24,.T.);
#383=EDGE_CURVE('',#481,#485,#25,.T.);
#384=EDGE_CURVE('',#483,#484,#26,.T.);
#385=EDGE_CURVE('',#486,#487,#27,.T.);
#386=EDGE_CURVE('',#482,#487,#28,.T.);
#387=EDGE_CURVE('',#488,#480,#29,.T.);
#388=EDGE_CURVE('',#489,#488,#30,.T.);
#389=EDGE_CURVE('',#486,#489,#31,.T.);
#390=EDGE_CURVE('',#487,#484,#32,.T.);
#391=EDGE_CURVE('',#490,#491,#33,.T.);
#392=EDGE_CURVE('',#490,#492,#34,.T.);
#393=EDGE_CURVE('',#492,#493,#35,.T.);
#394=EDGE_CURVE('',#493,#491,#36,.T.);
#395=EDGE_CURVE('',#494,#494,#564,.T.);
#396=EDGE_CURVE('',#495,#495,#565,.T.);
#397=EDGE_CURVE('',#496,#496,#566,.T.);
#398=EDGE_CURVE('',#497,#497,#567,.T.);
#399=EDGE_CURVE('',#498,#498,#568,.T.);
#400=EDGE_CURVE('',#499,#499,#569,.T.);
#401=EDGE_CURVE('',#500,#500,#570,.T.);
#402=EDGE_CURVE('',#501,#501,#571,.T.);
#403=EDGE_CURVE('',#502,#502,#572,.T.);
#404=EDGE_CURVE('',#503,#503,#573,.T.);
#405=EDGE_CURVE('',#504,#504,#574,.T.);
#406=EDGE_CURVE('',#505,#505,#575,.T.);
#407=EDGE_CURVE('',#506,#486,#37,.T.);
#408=EDGE_CURVE('',#507,#506,#38,.T.);
#409=EDGE_CURVE('',#508,#507,#39,.T.);
#410=EDGE_CURVE('',#509,#508,#40,.T.);
#411=EDGE_CURVE('',#509,#485,#41,.T.);
#412=EDGE_CURVE('',#490,#509,#42,.T.);
#413=EDGE_CURVE('',#510,#491,#43,.T.);
#414=EDGE_CURVE('',#488,#510,#44,.T.);
#415=EDGE_CURVE('',#511,#506,#45,.T.);
#416=EDGE_CURVE('',#510,#511,#46,.T.);
#417=EDGE_CURVE('',#493,#507,#47,.T.);
#418=EDGE_CURVE('',#492,#508,#48,.T.);
#419=EDGE_CURVE('',#512,#512,#576,.T.);
#420=EDGE_CURVE('',#513,#513,#577,.T.);
#421=EDGE_CURVE('',#514,#514,#578,.T.);
#422=EDGE_CURVE('',#515,#515,#579,.T.);
#423=EDGE_CURVE('',#516,#516,#580,.T.);
#424=EDGE_CURVE('',#517,#517,#581,.T.);
#425=EDGE_CURVE('',#518,#519,#49,.T.);
#426=EDGE_CURVE('',#520,#518,#50,.T.);
#427=EDGE_CURVE('',#521,#520,#51,.T.);
#428=EDGE_CURVE('',#519,#521,#52,.T.);
#429=EDGE_CURVE('',#522,#523,#53,.T.);
#430=EDGE_CURVE('',#524,#522,#54,.T.);
#431=EDGE_CURVE('',#525,#524,#55,.T.);
#432=EDGE_CURVE('',#523,#525,#56,.T.);
#433=EDGE_CURVE('',#489,#511,#57,.T.);
#434=EDGE_CURVE('',#526,#526,#582,.F.);
#435=EDGE_CURVE('',#527,#527,#583,.F.);
#436=EDGE_CURVE('',#528,#528,#584,.F.);
#437=EDGE_CURVE('',#529,#529,#585,.F.);
#438=EDGE_CURVE('',#530,#530,#586,.F.);
#439=EDGE_CURVE('',#531,#531,#587,.F.);
#440=EDGE_CURVE('',#532,#532,#588,.T.);
#441=EDGE_CURVE('',#533,#533,#589,.T.);
#442=EDGE_CURVE('',#534,#534,#590,.T.);
#443=EDGE_CURVE('',#535,#535,#591,.T.);
#444=EDGE_CURVE('',#536,#537,#58,.T.);
#445=EDGE_CURVE('',#538,#536,#59,.T.);
#446=EDGE_CURVE('',#539,#538,#60,.T.);
#447=EDGE_CURVE('',#537,#539,#61,.T.);
#448=EDGE_CURVE('',#536,#522,#62,.T.);
#449=EDGE_CURVE('',#537,#524,#63,.T.);
#450=EDGE_CURVE('',#539,#525,#64,.T.);
#451=EDGE_CURVE('',#538,#523,#65,.T.);
#452=EDGE_CURVE('',#540,#519,#66,.T.);
#453=EDGE_CURVE('',#541,#540,#67,.T.);
#454=EDGE_CURVE('',#541,#518,#68,.T.);
#455=EDGE_CURVE('',#542,#521,#69,.T.);
#456=EDGE_CURVE('',#540,#542,#70,.T.);
#457=EDGE_CURVE('',#543,#520,#71,.T.);
#458=EDGE_CURVE('',#542,#543,#72,.T.);
#459=EDGE_CURVE('',#543,#541,#73,.T.);
#460=EDGE_CURVE('',#544,#544,#592,.T.);
#461=EDGE_CURVE('',#545,#545,#593,.T.);
#462=EDGE_CURVE('',#546,#546,#594,.T.);
#463=EDGE_CURVE('',#547,#547,#595,.T.);
#464=EDGE_CURVE('',#548,#548,#596,.T.);
#465=EDGE_CURVE('',#549,#549,#597,.T.);
#466=EDGE_CURVE('',#550,#550,#598,.T.);
#467=EDGE_CURVE('',#551,#551,#599,.T.);
#468=VERTEX_POINT('',#1312);
#469=VERTEX_POINT('',#1314);
#470=VERTEX_POINT('',#1317);
#471=VERTEX_POINT('',#1319);
#472=VERTEX_POINT('',#1322);
#473=VERTEX_POINT('',#1324);
#474=VERTEX_POINT('',#1327);
#475=VERTEX_POINT('',#1329);
#476=VERTEX_POINT('',#1332);
#477=VERTEX_POINT('',#1334);
#478=VERTEX_POINT('',#1337);
#479=VERTEX_POINT('',#1339);
#480=VERTEX_POINT('',#1342);
#481=VERTEX_POINT('',#1343);
#482=VERTEX_POINT('',#1345);
#483=VERTEX_POINT('',#1347);
#484=VERTEX_POINT('',#1351);
#485=VERTEX_POINT('',#1352);
#486=VERTEX_POINT('',#1357);
#487=VERTEX_POINT('',#1358);
#488=VERTEX_POINT('',#1361);
#489=VERTEX_POINT('',#1363);
#490=VERTEX_POINT('',#1369);
#491=VERTEX_POINT('',#1370);
#492=VERTEX_POINT('',#1372);
#493=VERTEX_POINT('',#1374);
#494=VERTEX_POINT('',#1378);
#495=VERTEX_POINT('',#1380);
#496=VERTEX_POINT('',#1382);
#497=VERTEX_POINT('',#1384);
#498=VERTEX_POINT('',#1386);
#499=VERTEX_POINT('',#1388);
#500=VERTEX_POINT('',#1390);
#501=VERTEX_POINT('',#1392);
#502=VERTEX_POINT('',#1394);
#503=VERTEX_POINT('',#1396);
#504=VERTEX_POINT('',#1398);
#505=VERTEX_POINT('',#1400);
#506=VERTEX_POINT('',#1402);
#507=VERTEX_POINT('',#1404);
#508=VERTEX_POINT('',#1406);
#509=VERTEX_POINT('',#1408);
#510=VERTEX_POINT('',#1413);
#511=VERTEX_POINT('',#1417);
#512=VERTEX_POINT('',#1425);
#513=VERTEX_POINT('',#1427);
#514=VERTEX_POINT('',#1429);
#515=VERTEX_POINT('',#1431);
#516=VERTEX_POINT('',#1433);
#517=VERTEX_POINT('',#1435);
#518=VERTEX_POINT('',#1437);
#519=VERTEX_POINT('',#1438);
#520=VERTEX_POINT('',#1440);
#521=VERTEX_POINT('',#1442);
#522=VERTEX_POINT('',#1445);
#523=VERTEX_POINT('',#1446);
#524=VERTEX_POINT('',#1448);
#525=VERTEX_POINT('',#1450);
#526=VERTEX_POINT('',#1456);
#527=VERTEX_POINT('',#1459);
#528=VERTEX_POINT('',#1462);
#529=VERTEX_POINT('',#1465);
#530=VERTEX_POINT('',#1468);
#531=VERTEX_POINT('',#1471);
#532=VERTEX_POINT('',#1474);
#533=VERTEX_POINT('',#1478);
#534=VERTEX_POINT('',#1482);
#535=VERTEX_POINT('',#1486);
#536=VERTEX_POINT('',#1490);
#537=VERTEX_POINT('',#1491);
#538=VERTEX_POINT('',#1493);
#539=VERTEX_POINT('',#1495);
#540=VERTEX_POINT('',#1507);
#541=VERTEX_POINT('',#1509);
#542=VERTEX_POINT('',#1513);
#543=VERTEX_POINT('',#1517);
#544=VERTEX_POINT('',#1524);
#545=VERTEX_POINT('',#1528);
#546=VERTEX_POINT('',#1532);
#547=VERTEX_POINT('',#1536);
#548=VERTEX_POINT('',#1540);
#549=VERTEX_POINT('',#1544);
#550=VERTEX_POINT('',#1548);
#551=VERTEX_POINT('',#1552);
#552=CIRCLE('',#936,3.);
#553=CIRCLE('',#937,3.);
#554=CIRCLE('',#939,1.5);
#555=CIRCLE('',#940,1.5);
#556=CIRCLE('',#942,3.);
#557=CIRCLE('',#943,3.);
#558=CIRCLE('',#945,3.);
#559=CIRCLE('',#946,3.);
#560=CIRCLE('',#948,3.);
#561=CIRCLE('',#949,3.);
#562=CIRCLE('',#951,3.);
#563=CIRCLE('',#952,3.);
#564=CIRCLE('',#959,5.);
#565=CIRCLE('',#960,2.5);
#566=CIRCLE('',#961,4.);
#567=CIRCLE('',#962,4.);
#568=CIRCLE('',#963,3.99999999999999);
#569=CIRCLE('',#964,4.);
#570=CIRCLE('',#965,3.);
#571=CIRCLE('',#966,3.);
#572=CIRCLE('',#967,3.);
#573=CIRCLE('',#968,3.);
#574=CIRCLE('',#969,3.);
#575=CIRCLE('',#970,3.);
#576=CIRCLE('',#976,5.);
#577=CIRCLE('',#977,5.);
#578=CIRCLE('',#978,5.);
#579=CIRCLE('',#979,5.);
#580=CIRCLE('',#980,5.);
#581=CIRCLE('',#981,5.);
#582=CIRCLE('',#984,3.);
#583=CIRCLE('',#986,3.);
#584=CIRCLE('',#988,3.);
#585=CIRCLE('',#990,3.);
#586=CIRCLE('',#992,3.);
#587=CIRCLE('',#994,3.);
#588=CIRCLE('',#996,4.);
#589=CIRCLE('',#999,3.99999999999999);
#590=CIRCLE('',#1002,4.);
#591=CIRCLE('',#1005,4.);
#592=CIRCLE('',#1018,2.5);
#593=CIRCLE('',#1021,5.);
#594=CIRCLE('',#1024,5.);
#595=CIRCLE('',#1027,5.);
#596=CIRCLE('',#1030,5.);
#597=CIRCLE('',#1033,5.);
#598=CIRCLE('',#1036,5.);
#599=CIRCLE('',#1039,5.);
#600=EDGE_LOOP('',(#162));
#601=EDGE_LOOP('',(#163));
#602=EDGE_LOOP('',(#164));
#603=EDGE_LOOP('',(#165));
#604=EDGE_LOOP('',(#166));
#605=EDGE_LOOP('',(#167));
#606=EDGE_LOOP('',(#168));
#607=EDGE_LOOP('',(#169));
#608=EDGE_LOOP('',(#170));
#609=EDGE_LOOP('',(#171));
#610=EDGE_LOOP('',(#172));
#611=EDGE_LOOP('',(#173));
#612=EDGE_LOOP('',(#174));
#613=EDGE_LOOP('',(#175,#176,#177,#178));
#614=EDGE_LOOP('',(#179));
#615=EDGE_LOOP('',(#180,#181,#182,#183));
#616=EDGE_LOOP('',(#184,#185,#186,#187,#188,#189));
#617=EDGE_LOOP('',(#190,#191,#192,#193));
#618=EDGE_LOOP('',(#194));
#619=EDGE_LOOP('',(#195));
#620=EDGE_LOOP('',(#196,#197,#198,#199));
#621=EDGE_LOOP('',(#200));
#622=EDGE_LOOP('',(#201));
#623=EDGE_LOOP('',(#202));
#624=EDGE_LOOP('',(#203));
#625=EDGE_LOOP('',(#204));
#626=EDGE_LOOP('',(#205));
#627=EDGE_LOOP('',(#206));
#628=EDGE_LOOP('',(#207));
#629=EDGE_LOOP('',(#208));
#630=EDGE_LOOP('',(#209));
#631=EDGE_LOOP('',(#210));
#632=EDGE_LOOP('',(#211));
#633=EDGE_LOOP('',(#212,#213,#214,#215,#216,#217,#218,#219));
#634=EDGE_LOOP('',(#220,#221,#222,#223,#224,#225,#226,#227));
#635=EDGE_LOOP('',(#228,#229,#230,#231,#232,#233));
#636=EDGE_LOOP('',(#234,#235,#236,#237));
#637=EDGE_LOOP('',(#238,#239,#240,#241));
#638=EDGE_LOOP('',(#242));
#639=EDGE_LOOP('',(#243));
#640=EDGE_LOOP('',(#244));
#641=EDGE_LOOP('',(#245));
#642=EDGE_LOOP('',(#246));
#643=EDGE_LOOP('',(#247));
#644=EDGE_LOOP('',(#248,#249,#250,#251));
#645=EDGE_LOOP('',(#252,#253,#254,#255));
#646=EDGE_LOOP('',(#256,#257,#258,#259));
#647=EDGE_LOOP('',(#260,#261,#262,#263));
#648=EDGE_LOOP('',(#264));
#649=EDGE_LOOP('',(#265));
#650=EDGE_LOOP('',(#266));
#651=EDGE_LOOP('',(#267));
#652=EDGE_LOOP('',(#268));
#653=EDGE_LOOP('',(#269));
#654=EDGE_LOOP('',(#270));
#655=EDGE_LOOP('',(#271));
#656=EDGE_LOOP('',(#272));
#657=EDGE_LOOP('',(#273));
#658=EDGE_LOOP('',(#274));
#659=EDGE_LOOP('',(#275));
#660=EDGE_LOOP('',(#276));
#661=EDGE_LOOP('',(#277));
#662=EDGE_LOOP('',(#278));
#663=EDGE_LOOP('',(#279));
#664=EDGE_LOOP('',(#280));
#665=EDGE_LOOP('',(#281));
#666=EDGE_LOOP('',(#282));
#667=EDGE_LOOP('',(#283));
#668=EDGE_LOOP('',(#284));
#669=EDGE_LOOP('',(#285));
#670=EDGE_LOOP('',(#286));
#671=EDGE_LOOP('',(#287));
#672=EDGE_LOOP('',(#288));
#673=EDGE_LOOP('',(#289));
#674=EDGE_LOOP('',(#290));
#675=EDGE_LOOP('',(#291));
#676=EDGE_LOOP('',(#292,#293,#294,#295));
#677=EDGE_LOOP('',(#296));
#678=EDGE_LOOP('',(#297,#298,#299,#300));
#679=EDGE_LOOP('',(#301,#302,#303,#304));
#680=EDGE_LOOP('',(#305,#306,#307,#308));
#681=EDGE_LOOP('',(#309,#310,#311,#312));
#682=EDGE_LOOP('',(#313,#314,#315,#316));
#683=EDGE_LOOP('',(#317,#318,#319,#320));
#684=EDGE_LOOP('',(#321,#322,#323,#324));
#685=EDGE_LOOP('',(#325,#326,#327,#328));
#686=EDGE_LOOP('',(#329));
#687=EDGE_LOOP('',(#330,#331,#332,#333));
#688=EDGE_LOOP('',(#334));
#689=EDGE_LOOP('',(#335));
#690=EDGE_LOOP('',(#336));
#691=EDGE_LOOP('',(#337));
#692=EDGE_LOOP('',(#338));
#693=EDGE_LOOP('',(#339));
#694=EDGE_LOOP('',(#340));
#695=EDGE_LOOP('',(#341));
#696=EDGE_LOOP('',(#342));
#697=EDGE_LOOP('',(#343));
#698=EDGE_LOOP('',(#344));
#699=EDGE_LOOP('',(#345));
#700=EDGE_LOOP('',(#346));
#701=EDGE_LOOP('',(#347));
#702=EDGE_LOOP('',(#348));
#703=EDGE_LOOP('',(#349));
#704=EDGE_LOOP('',(#350));
#705=EDGE_LOOP('',(#351));
#706=EDGE_LOOP('',(#352));
#707=EDGE_LOOP('',(#353));
#708=EDGE_LOOP('',(#354));
#709=EDGE_LOOP('',(#355));
#710=EDGE_LOOP('',(#356));
#711=EDGE_LOOP('',(#357));
#712=EDGE_LOOP('',(#358));
#713=EDGE_LOOP('',(#359));
#714=EDGE_LOOP('',(#360));
#715=EDGE_LOOP('',(#361));
#716=EDGE_LOOP('',(#362));
#717=EDGE_LOOP('',(#363));
#718=EDGE_LOOP('',(#364));
#719=EDGE_LOOP('',(#365));
#720=FACE_BOUND('',#600,.T.);
#721=FACE_BOUND('',#601,.T.);
#722=FACE_BOUND('',#602,.T.);
#723=FACE_BOUND('',#603,.T.);
#724=FACE_BOUND('',#604,.T.);
#725=FACE_BOUND('',#605,.T.);
#726=FACE_BOUND('',#606,.T.);
#727=FACE_BOUND('',#607,.T.);
#728=FACE_BOUND('',#608,.T.);
#729=FACE_BOUND('',#609,.T.);
#730=FACE_BOUND('',#610,.T.);
#731=FACE_BOUND('',#611,.T.);
#732=FACE_BOUND('',#612,.T.);
#733=FACE_BOUND('',#613,.T.);
#734=FACE_BOUND('',#614,.T.);
#735=FACE_BOUND('',#615,.T.);
#736=FACE_BOUND('',#616,.T.);
#737=FACE_BOUND('',#617,.T.);
#738=FACE_BOUND('',#618,.T.);
#739=FACE_BOUND('',#619,.T.);
#740=FACE_BOUND('',#620,.T.);
#741=FACE_BOUND('',#621,.T.);
#742=FACE_BOUND('',#622,.T.);
#743=FACE_BOUND('',#623,.T.);
#744=FACE_BOUND('',#624,.T.);
#745=FACE_BOUND('',#625,.T.);
#746=FACE_BOUND('',#626,.T.);
#747=FACE_BOUND('',#627,.T.);
#748=FACE_BOUND('',#628,.T.);
#749=FACE_BOUND('',#629,.T.);
#750=FACE_BOUND('',#630,.T.);
#751=FACE_BOUND('',#631,.T.);
#752=FACE_BOUND('',#632,.T.);
#753=FACE_BOUND('',#633,.T.);
#754=FACE_BOUND('',#634,.T.);
#755=FACE_BOUND('',#635,.T.);
#756=FACE_BOUND('',#636,.T.);
#757=FACE_BOUND('',#637,.T.);
#758=FACE_BOUND('',#638,.T.);
#759=FACE_BOUND('',#639,.T.);
#760=FACE_BOUND('',#640,.T.);
#761=FACE_BOUND('',#641,.T.);
#762=FACE_BOUND('',#642,.T.);
#763=FACE_BOUND('',#643,.T.);
#764=FACE_BOUND('',#644,.T.);
#765=FACE_BOUND('',#645,.T.);
#766=FACE_BOUND('',#646,.T.);
#767=FACE_BOUND('',#647,.T.);
#768=FACE_BOUND('',#648,.T.);
#769=FACE_BOUND('',#649,.T.);
#770=FACE_BOUND('',#650,.T.);
#771=FACE_BOUND('',#651,.T.);
#772=FACE_BOUND('',#652,.T.);
#773=FACE_BOUND('',#653,.T.);
#774=FACE_BOUND('',#654,.T.);
#775=FACE_BOUND('',#655,.T.);
#776=FACE_BOUND('',#656,.T.);
#777=FACE_BOUND('',#657,.T.);
#778=FACE_BOUND('',#658,.T.);
#779=FACE_BOUND('',#659,.T.);
#780=FACE_BOUND('',#660,.T.);
#781=FACE_BOUND('',#661,.T.);
#782=FACE_BOUND('',#662,.T.);
#783=FACE_BOUND('',#663,.T.);
#784=FACE_BOUND('',#664,.T.);
#785=FACE_BOUND('',#665,.T.);
#786=FACE_BOUND('',#666,.T.);
#787=FACE_BOUND('',#667,.T.);
#788=FACE_BOUND('',#668,.T.);
#789=FACE_BOUND('',#669,.T.);
#790=FACE_BOUND('',#670,.T.);
#791=FACE_BOUND('',#671,.T.);
#792=FACE_BOUND('',#672,.T.);
#793=FACE_BOUND('',#673,.T.);
#794=FACE_BOUND('',#674,.T.);
#795=FACE_BOUND('',#675,.T.);
#796=FACE_BOUND('',#676,.T.);
#797=FACE_BOUND('',#677,.T.);
#798=FACE_BOUND('',#678,.T.);
#799=FACE_BOUND('',#679,.T.);
#800=FACE_BOUND('',#680,.T.);
#801=FACE_BOUND('',#681,.T.);
#802=FACE_BOUND('',#682,.T.);
#803=FACE_BOUND('',#683,.T.);
#804=FACE_BOUND('',#684,.T.);
#805=FACE_BOUND('',#685,.T.);
#806=FACE_BOUND('',#686,.T.);
#807=FACE_BOUND('',#687,.T.);
#808=FACE_BOUND('',#688,.T.);
#809=FACE_BOUND('',#689,.T.);
#810=FACE_BOUND('',#690,.T.);
#811=FACE_BOUND('',#691,.T.);
#812=FACE_BOUND('',#692,.T.);
#813=FACE_BOUND('',#693,.T.);
#814=FACE_BOUND('',#694,.T.);
#815=FACE_BOUND('',#695,.T.);
#816=FACE_BOUND('',#696,.T.);
#817=FACE_BOUND('',#697,.T.);
#818=FACE_BOUND('',#698,.T.);
#819=FACE_BOUND('',#699,.T.);
#820=FACE_BOUND('',#700,.T.);
#821=FACE_BOUND('',#701,.T.);
#822=FACE_BOUND('',#702,.T.);
#823=FACE_BOUND('',#703,.T.);
#824=FACE_BOUND('',#704,.T.);
#825=FACE_BOUND('',#705,.T.);
#826=FACE_BOUND('',#706,.T.);
#827=FACE_BOUND('',#707,.T.);
#828=FACE_BOUND('',#708,.T.);
#829=FACE_BOUND('',#709,.T.);
#830=FACE_BOUND('',#710,.T.);
#831=FACE_BOUND('',#711,.T.);
#832=FACE_BOUND('',#712,.T.);
#833=FACE_BOUND('',#713,.T.);
#834=FACE_BOUND('',#714,.T.);
#835=FACE_BOUND('',#715,.T.);
#836=FACE_BOUND('',#716,.T.);
#837=FACE_BOUND('',#717,.T.);
#838=FACE_BOUND('',#718,.T.);
#839=FACE_BOUND('',#719,.T.);
#840=CYLINDRICAL_SURFACE('',#935,3.);
#841=CYLINDRICAL_SURFACE('',#938,1.5);
#842=CYLINDRICAL_SURFACE('',#941,3.);
#843=CYLINDRICAL_SURFACE('',#944,3.);
#844=CYLINDRICAL_SURFACE('',#947,3.);
#845=CYLINDRICAL_SURFACE('',#950,3.);
#846=CYLINDRICAL_SURFACE('',#983,3.);
#847=CYLINDRICAL_SURFACE('',#985,3.);
#848=CYLINDRICAL_SURFACE('',#987,3.);
#849=CYLINDRICAL_SURFACE('',#989,3.);
#850=CYLINDRICAL_SURFACE('',#991,3.);
#851=CYLINDRICAL_SURFACE('',#993,3.);
#852=CYLINDRICAL_SURFACE('',#995,4.);
#853=CYLINDRICAL_SURFACE('',#1000,3.99999999999999);
#854=CYLINDRICAL_SURFACE('',#1003,4.);
#855=CYLINDRICAL_SURFACE('',#1006,4.);
#856=CYLINDRICAL_SURFACE('',#1017,2.5);
#857=CYLINDRICAL_SURFACE('',#1022,5.);
#858=CYLINDRICAL_SURFACE('',#1025,5.);
#859=CYLINDRICAL_SURFACE('',#1028,5.);
#860=CYLINDRICAL_SURFACE('',#1031,5.);
#861=CYLINDRICAL_SURFACE('',#1034,5.);
#862=CYLINDRICAL_SURFACE('',#1037,5.);
#863=CYLINDRICAL_SURFACE('',#1040,5.);
#864=ADVANCED_FACE('',(#720,#721),#840,.F.);
#865=ADVANCED_FACE('',(#722,#723),#841,.F.);
#866=ADVANCED_FACE('',(#724,#725),#842,.F.);
#867=ADVANCED_FACE('',(#726,#727),#843,.F.);
#868=ADVANCED_FACE('',(#728,#729),#844,.F.);
#869=ADVANCED_FACE('',(#730,#731),#845,.F.);
#870=ADVANCED_FACE('',(#732,#733,#734),#128,.T.);
#871=ADVANCED_FACE('',(#735),#129,.F.);
#872=ADVANCED_FACE('',(#736),#130,.F.);
#873=ADVANCED_FACE('',(#737),#131,.F.);
#874=ADVANCED_FACE('',(#738,#739,#740),#132,.T.);
#875=ADVANCED_FACE('',(#741,#742,#743,#744,#745,#746,#747,#748,#749,#750,
#751,#752,#753),#133,.F.);
#876=ADVANCED_FACE('',(#754),#134,.F.);
#877=ADVANCED_FACE('',(#755),#135,.F.);
#878=ADVANCED_FACE('',(#756),#136,.F.);
#879=ADVANCED_FACE('',(#757),#137,.F.);
#880=ADVANCED_FACE('',(#758,#759,#760,#761,#762,#763,#764,#765,#766),#138,
 .T.);
#881=ADVANCED_FACE('',(#767),#139,.T.);
#882=ADVANCED_FACE('',(#768,#769),#846,.F.);
#883=ADVANCED_FACE('',(#770,#771),#847,.F.);
#884=ADVANCED_FACE('',(#772,#773),#848,.F.);
#885=ADVANCED_FACE('',(#774,#775),#849,.F.);
#886=ADVANCED_FACE('',(#776,#777),#850,.F.);
#887=ADVANCED_FACE('',(#778,#779),#851,.F.);
#888=ADVANCED_FACE('',(#780,#781),#852,.F.);
#889=ADVANCED_FACE('',(#782,#783),#140,.T.);
#890=ADVANCED_FACE('',(#784,#785),#141,.T.);
#891=ADVANCED_FACE('',(#786,#787),#853,.F.);
#892=ADVANCED_FACE('',(#788,#789),#142,.T.);
#893=ADVANCED_FACE('',(#790,#791),#854,.F.);
#894=ADVANCED_FACE('',(#792,#793),#143,.T.);
#895=ADVANCED_FACE('',(#794,#795),#855,.F.);
#896=ADVANCED_FACE('',(#796,#797),#144,.F.);
#897=ADVANCED_FACE('',(#798),#145,.T.);
#898=ADVANCED_FACE('',(#799),#146,.T.);
#899=ADVANCED_FACE('',(#800),#147,.T.);
#900=ADVANCED_FACE('',(#801),#148,.T.);
#901=ADVANCED_FACE('',(#802),#149,.F.);
#902=ADVANCED_FACE('',(#803),#150,.F.);
#903=ADVANCED_FACE('',(#804),#151,.F.);
#904=ADVANCED_FACE('',(#805),#152,.F.);
#905=ADVANCED_FACE('',(#806,#807),#153,.T.);
#906=ADVANCED_FACE('',(#808,#809),#856,.F.);
#907=ADVANCED_FACE('',(#810,#811),#154,.T.);
#908=ADVANCED_FACE('',(#812,#813),#155,.F.);
#909=ADVANCED_FACE('',(#814,#815),#857,.F.);
#910=ADVANCED_FACE('',(#816,#817),#156,.F.);
#911=ADVANCED_FACE('',(#818,#819),#858,.F.);
#912=ADVANCED_FACE('',(#820,#821),#157,.F.);
#913=ADVANCED_FACE('',(#822,#823),#859,.F.);
#914=ADVANCED_FACE('',(#824,#825),#158,.F.);
#915=ADVANCED_FACE('',(#826,#827),#860,.F.);
#916=ADVANCED_FACE('',(#828,#829),#159,.F.);
#917=ADVANCED_FACE('',(#830,#831),#861,.F.);
#918=ADVANCED_FACE('',(#832,#833),#160,.F.);
#919=ADVANCED_FACE('',(#834,#835),#862,.F.);
#920=ADVANCED_FACE('',(#836,#837),#161,.T.);
#921=ADVANCED_FACE('',(#838,#839),#863,.F.);
#922=CLOSED_SHELL('',(#864,#865,#866,#867,#868,#869,#870,#871,#872,#873,
#874,#875,#876,#877,#878,#879,#880,#881,#882,#883,#884,#885,#886,#887,#888,
#889,#890,#891,#892,#893,#894,#895,#896,#897,#898,#899,#900,#901,#902,#903,
#904,#905,#906,#907,#908,#909,#910,#911,#912,#913,#914,#915,#916,#917,#918,
#919,#920,#921));
#923=STYLED_ITEM('',(#924),#931);
#924=PRESENTATION_STYLE_ASSIGNMENT((#925));
#925=SURFACE_STYLE_USAGE(.BOTH.,#926);
#926=SURFACE_SIDE_STYLE('',(#927));
#927=SURFACE_STYLE_FILL_AREA(#928);
#928=FILL_AREA_STYLE('',(#929));
#929=FILL_AREA_STYLE_COLOUR('',#930);
#930=COLOUR_RGB('',0.506983280181885,0.531564235687256,0.550000011920929);
#931=MANIFOLD_SOLID_BREP('',#922);
#932=SHAPE_DEFINITION_REPRESENTATION(#1560,#933);
#933=SHAPE_REPRESENTATION('23_FDML_stimfix_dichroic_board',(#934),#1555);
#934=AXIS2_PLACEMENT_3D('',#1309,#1041,#1042);
#935=AXIS2_PLACEMENT_3D('',#1310,#1043,#1044);
#936=AXIS2_PLACEMENT_3D('',#1311,#1045,#1046);
#937=AXIS2_PLACEMENT_3D('',#1313,#1047,#1048);
#938=AXIS2_PLACEMENT_3D('',#1315,#1049,#1050);
#939=AXIS2_PLACEMENT_3D('',#1316,#1051,#1052);
#940=AXIS2_PLACEMENT_3D('',#1318,#1053,#1054);
#941=AXIS2_PLACEMENT_3D('',#1320,#1055,#1056);
#942=AXIS2_PLACEMENT_3D('',#1321,#1057,#1058);
#943=AXIS2_PLACEMENT_3D('',#1323,#1059,#1060);
#944=AXIS2_PLACEMENT_3D('',#1325,#1061,#1062);
#945=AXIS2_PLACEMENT_3D('',#1326,#1063,#1064);
#946=AXIS2_PLACEMENT_3D('',#1328,#1065,#1066);
#947=AXIS2_PLACEMENT_3D('',#1330,#1067,#1068);
#948=AXIS2_PLACEMENT_3D('',#1331,#1069,#1070);
#949=AXIS2_PLACEMENT_3D('',#1333,#1071,#1072);
#950=AXIS2_PLACEMENT_3D('',#1335,#1073,#1074);
#951=AXIS2_PLACEMENT_3D('',#1336,#1075,#1076);
#952=AXIS2_PLACEMENT_3D('',#1338,#1077,#1078);
#953=AXIS2_PLACEMENT_3D('',#1340,#1079,#1080);
#954=AXIS2_PLACEMENT_3D('',#1349,#1085,#1086);
#955=AXIS2_PLACEMENT_3D('',#1355,#1090,#1091);
#956=AXIS2_PLACEMENT_3D('',#1365,#1097,#1098);
#957=AXIS2_PLACEMENT_3D('',#1367,#1100,#1101);
#958=AXIS2_PLACEMENT_3D('',#1376,#1106,#1107);
#959=AXIS2_PLACEMENT_3D('',#1377,#1108,#1109);
#960=AXIS2_PLACEMENT_3D('',#1379,#1110,#1111);
#961=AXIS2_PLACEMENT_3D('',#1381,#1112,#1113);
#962=AXIS2_PLACEMENT_3D('',#1383,#1114,#1115);
#963=AXIS2_PLACEMENT_3D('',#1385,#1116,#1117);
#964=AXIS2_PLACEMENT_3D('',#1387,#1118,#1119);
#965=AXIS2_PLACEMENT_3D('',#1389,#1120,#1121);
#966=AXIS2_PLACEMENT_3D('',#1391,#1122,#1123);
#967=AXIS2_PLACEMENT_3D('',#1393,#1124,#1125);
#968=AXIS2_PLACEMENT_3D('',#1395,#1126,#1127);
#969=AXIS2_PLACEMENT_3D('',#1397,#1128,#1129);
#970=AXIS2_PLACEMENT_3D('',#1399,#1130,#1131);
#971=AXIS2_PLACEMENT_3D('',#1410,#1137,#1138);
#972=AXIS2_PLACEMENT_3D('',#1415,#1142,#1143);
#973=AXIS2_PLACEMENT_3D('',#1420,#1147,#1148);
#974=AXIS2_PLACEMENT_3D('',#1422,#1150,#1151);
#975=AXIS2_PLACEMENT_3D('',#1423,#1152,#1153);
#976=AXIS2_PLACEMENT_3D('',#1424,#1154,#1155);
#977=AXIS2_PLACEMENT_3D('',#1426,#1156,#1157);
#978=AXIS2_PLACEMENT_3D('',#1428,#1158,#1159);
#979=AXIS2_PLACEMENT_3D('',#1430,#1160,#1161);
#980=AXIS2_PLACEMENT_3D('',#1432,#1162,#1163);
#981=AXIS2_PLACEMENT_3D('',#1434,#1164,#1165);
#982=AXIS2_PLACEMENT_3D('',#1453,#1175,#1176);
#983=AXIS2_PLACEMENT_3D('',#1454,#1177,#1178);
#984=AXIS2_PLACEMENT_3D('',#1455,#1179,#1180);
#985=AXIS2_PLACEMENT_3D('',#1457,#1181,#1182);
#986=AXIS2_PLACEMENT_3D('',#1458,#1183,#1184);
#987=AXIS2_PLACEMENT_3D('',#1460,#1185,#1186);
#988=AXIS2_PLACEMENT_3D('',#1461,#1187,#1188);
#989=AXIS2_PLACEMENT_3D('',#1463,#1189,#1190);
#990=AXIS2_PLACEMENT_3D('',#1464,#1191,#1192);
#991=AXIS2_PLACEMENT_3D('',#1466,#1193,#1194);
#992=AXIS2_PLACEMENT_3D('',#1467,#1195,#1196);
#993=AXIS2_PLACEMENT_3D('',#1469,#1197,#1198);
#994=AXIS2_PLACEMENT_3D('',#1470,#1199,#1200);
#995=AXIS2_PLACEMENT_3D('',#1472,#1201,#1202);
#996=AXIS2_PLACEMENT_3D('',#1473,#1203,#1204);
#997=AXIS2_PLACEMENT_3D('',#1475,#1205,#1206);
#998=AXIS2_PLACEMENT_3D('',#1476,#1207,#1208);
#999=AXIS2_PLACEMENT_3D('',#1477,#1209,#1210);
#1000=AXIS2_PLACEMENT_3D('',#1479,#1211,#1212);
#1001=AXIS2_PLACEMENT_3D('',#1480,#1213,#1214);
#1002=AXIS2_PLACEMENT_3D('',#1481,#1215,#1216);
#1003=AXIS2_PLACEMENT_3D('',#1483,#1217,#1218);
#1004=AXIS2_PLACEMENT_3D('',#1484,#1219,#1220);
#1005=AXIS2_PLACEMENT_3D('',#1485,#1221,#1222);
#1006=AXIS2_PLACEMENT_3D('',#1487,#1223,#1224);
#1007=AXIS2_PLACEMENT_3D('',#1488,#1225,#1226);
#1008=AXIS2_PLACEMENT_3D('',#1497,#1231,#1232);
#1009=AXIS2_PLACEMENT_3D('',#1500,#1235,#1236);
#1010=AXIS2_PLACEMENT_3D('',#1502,#1238,#1239);
#1011=AXIS2_PLACEMENT_3D('',#1504,#1241,#1242);
#1012=AXIS2_PLACEMENT_3D('',#1505,#1243,#1244);
#1013=AXIS2_PLACEMENT_3D('',#1511,#1248,#1249);
#1014=AXIS2_PLACEMENT_3D('',#1515,#1252,#1253);
#1015=AXIS2_PLACEMENT_3D('',#1519,#1256,#1257);
#1016=AXIS2_PLACEMENT_3D('',#1521,#1259,#1260);
#1017=AXIS2_PLACEMENT_3D('',#1522,#1261,#1262);
#1018=AXIS2_PLACEMENT_3D('',#1523,#1263,#1264);
#1019=AXIS2_PLACEMENT_3D('',#1525,#1265,#1266);
#1020=AXIS2_PLACEMENT_3D('',#1526,#1267,#1268);
#1021=AXIS2_PLACEMENT_3D('',#1527,#1269,#1270);
#1022=AXIS2_PLACEMENT_3D('',#1529,#1271,#1272);
#1023=AXIS2_PLACEMENT_3D('',#1530,#1273,#1274);
#1024=AXIS2_PLACEMENT_3D('',#1531,#1275,#1276);
#1025=AXIS2_PLACEMENT_3D('',#1533,#1277,#1278);
#1026=AXIS2_PLACEMENT_3D('',#1534,#1279,#1280);
#1027=AXIS2_PLACEMENT_3D('',#1535,#1281,#1282);
#1028=AXIS2_PLACEMENT_3D('',#1537,#1283,#1284);
#1029=AXIS2_PLACEMENT_3D('',#1538,#1285,#1286);
#1030=AXIS2_PLACEMENT_3D('',#1539,#1287,#1288);
#1031=AXIS2_PLACEMENT_3D('',#1541,#1289,#1290);
#1032=AXIS2_PLACEMENT_3D('',#1542,#1291,#1292);
#1033=AXIS2_PLACEMENT_3D('',#1543,#1293,#1294);
#1034=AXIS2_PLACEMENT_3D('',#1545,#1295,#1296);
#1035=AXIS2_PLACEMENT_3D('',#1546,#1297,#1298);
#1036=AXIS2_PLACEMENT_3D('',#1547,#1299,#1300);
#1037=AXIS2_PLACEMENT_3D('',#1549,#1301,#1302);
#1038=AXIS2_PLACEMENT_3D('',#1550,#1303,#1304);
#1039=AXIS2_PLACEMENT_3D('',#1551,#1305,#1306);
#1040=AXIS2_PLACEMENT_3D('',#1553,#1307,#1308);
#1041=DIRECTION('',(0.,0.,1.));
#1042=DIRECTION('',(1.,0.,0.));
#1043=DIRECTION('',(0.,0.,-1.));
#1044=DIRECTION('',(-1.,0.,0.));
#1045=DIRECTION('',(0.,0.,-1.));
#1046=DIRECTION('',(-1.,0.,0.));
#1047=DIRECTION('',(0.,0.,-1.));
#1048=DIRECTION('',(-1.,0.,0.));
#1049=DIRECTION('',(0.,0.,1.));
#1050=DIRECTION('',(1.,0.,0.));
#1051=DIRECTION('',(0.,0.,-1.));
#1052=DIRECTION('',(-1.,0.,0.));
#1053=DIRECTION('',(0.,0.,-1.));
#1054=DIRECTION('',(-1.,0.,0.));
#1055=DIRECTION('',(0.,0.,-1.));
#1056=DIRECTION('',(-1.,0.,0.));
#1057=DIRECTION('',(0.,0.,1.));
#1058=DIRECTION('',(1.,0.,0.));
#1059=DIRECTION('',(0.,0.,-1.));
#1060=DIRECTION('',(-1.,0.,0.));
#1061=DIRECTION('',(0.,0.,-1.));
#1062=DIRECTION('',(-1.,0.,0.));
#1063=DIRECTION('',(0.,0.,1.));
#1064=DIRECTION('',(1.,0.,0.));
#1065=DIRECTION('',(0.,0.,-1.));
#1066=DIRECTION('',(-1.,0.,0.));
#1067=DIRECTION('',(0.,0.,-1.));
#1068=DIRECTION('',(-1.,0.,0.));
#1069=DIRECTION('',(0.,0.,1.));
#1070=DIRECTION('',(1.,0.,0.));
#1071=DIRECTION('',(0.,0.,-1.));
#1072=DIRECTION('',(-1.,0.,0.));
#1073=DIRECTION('',(0.,0.,1.));
#1074=DIRECTION('',(1.,0.,0.));
#1075=DIRECTION('',(0.,0.,-1.));
#1076=DIRECTION('',(-1.,-5.4939777544792E-16,0.));
#1077=DIRECTION('',(0.,0.,-1.));
#1078=DIRECTION('',(-1.,0.,0.));
#1079=DIRECTION('',(0.,0.,1.));
#1080=DIRECTION('',(1.,0.,0.));
#1081=DIRECTION('',(2.71842019291631E-16,-1.,0.));
#1082=DIRECTION('',(-1.,-5.4939777544792E-16,0.));
#1083=DIRECTION('',(0.,-1.,0.));
#1084=DIRECTION('',(1.,0.,0.));
#1085=DIRECTION('',(0.,1.,0.));
#1086=DIRECTION('',(0.,0.,1.));
#1087=DIRECTION('',(1.,0.,0.));
#1088=DIRECTION('',(0.,0.,-1.));
#1089=DIRECTION('',(0.,0.,-1.));
#1090=DIRECTION('',(5.4939777544792E-16,-1.,0.));
#1091=DIRECTION('',(1.,5.4939777544792E-16,0.));
#1092=DIRECTION('',(-1.,-5.4939777544792E-16,0.));
#1093=DIRECTION('',(0.,0.,-1.));
#1094=DIRECTION('',(0.,0.,-1.));
#1095=DIRECTION('',(-1.,5.71373686465849E-18,0.));
#1096=DIRECTION('',(0.,0.,1.));
#1097=DIRECTION('',(1.,0.,0.));
#1098=DIRECTION('',(0.,0.,-1.));
#1099=DIRECTION('',(0.,-1.,0.));
#1100=DIRECTION('',(0.,0.,1.));
#1101=DIRECTION('',(1.,0.,0.));
#1102=DIRECTION('',(2.71842019291631E-16,-1.,0.));
#1103=DIRECTION('',(-1.,0.,0.));
#1104=DIRECTION('',(0.,-1.,0.));
#1105=DIRECTION('',(1.,0.,0.));
#1106=DIRECTION('',(0.,0.,1.));
#1107=DIRECTION('',(1.,0.,0.));
#1108=DIRECTION('',(0.,0.,-1.));
#1109=DIRECTION('',(1.,0.,0.));
#1110=DIRECTION('',(0.,0.,-1.));
#1111=DIRECTION('',(1.,0.,0.));
#1112=DIRECTION('',(0.,0.,-1.));
#1113=DIRECTION('',(1.,0.,0.));
#1114=DIRECTION('',(0.,0.,-1.));
#1115=DIRECTION('',(1.,0.,0.));
#1116=DIRECTION('',(0.,0.,-1.));
#1117=DIRECTION('',(1.,0.,0.));
#1118=DIRECTION('',(0.,0.,-1.));
#1119=DIRECTION('',(1.,0.,0.));
#1120=DIRECTION('',(0.,0.,1.));
#1121=DIRECTION('',(1.,0.,0.));
#1122=DIRECTION('',(0.,0.,1.));
#1123=DIRECTION('',(1.,0.,0.));
#1124=DIRECTION('',(0.,0.,1.));
#1125=DIRECTION('',(1.,0.,0.));
#1126=DIRECTION('',(0.,0.,1.));
#1127=DIRECTION('',(1.,0.,0.));
#1128=DIRECTION('',(0.,0.,1.));
#1129=DIRECTION('',(1.,0.,0.));
#1130=DIRECTION('',(0.,0.,1.));
#1131=DIRECTION('',(1.,0.,0.));
#1132=DIRECTION('',(0.,1.,0.));
#1133=DIRECTION('',(1.,0.,0.));
#1134=DIRECTION('',(0.,-1.,0.));
#1135=DIRECTION('',(-1.,0.,0.));
#1136=DIRECTION('',(0.,1.,0.));
#1137=DIRECTION('',(1.,0.,0.));
#1138=DIRECTION('',(0.,0.,-1.));
#1139=DIRECTION('',(0.,0.,-1.));
#1140=DIRECTION('',(0.,0.,-1.));
#1141=DIRECTION('',(-5.7137368646582E-18,-1.,0.));
#1142=DIRECTION('',(0.,1.,0.));
#1143=DIRECTION('',(0.,0.,1.));
#1144=DIRECTION('',(0.,1.46448393896301E-15,-1.));
#1145=DIRECTION('',(1.,-5.71373686465879E-18,0.));
#1146=DIRECTION('',(0.,0.,-1.));
#1147=DIRECTION('',(0.,-1.,0.));
#1148=DIRECTION('',(0.,0.,-1.));
#1149=DIRECTION('',(0.,0.,-1.));
#1150=DIRECTION('',(1.,0.,0.));
#1151=DIRECTION('',(0.,0.,-1.));
#1152=DIRECTION('',(0.,0.,1.));
#1153=DIRECTION('',(1.,0.,0.));
#1154=DIRECTION('',(0.,0.,-1.));
#1155=DIRECTION('',(-1.,0.,0.));
#1156=DIRECTION('',(0.,0.,-1.));
#1157=DIRECTION('',(-1.,0.,0.));
#1158=DIRECTION('',(0.,0.,-1.));
#1159=DIRECTION('',(-1.,0.,0.));
#1160=DIRECTION('',(0.,0.,-1.));
#1161=DIRECTION('',(-1.,0.,0.));
#1162=DIRECTION('',(0.,0.,-1.));
#1163=DIRECTION('',(-1.,0.,0.));
#1164=DIRECTION('',(0.,0.,-1.));
#1165=DIRECTION('',(-1.,0.,0.));
#1166=DIRECTION('',(1.,0.,0.));
#1167=DIRECTION('',(0.,-1.,0.));
#1168=DIRECTION('',(-1.,0.,0.));
#1169=DIRECTION('',(0.,1.,0.));
#1170=DIRECTION('',(-0.707106781186548,0.707106781186547,0.));
#1171=DIRECTION('',(0.707106781186547,0.707106781186548,0.));
#1172=DIRECTION('',(0.707106781186548,-0.707106781186547,0.));
#1173=DIRECTION('',(-0.707106781186547,-0.707106781186548,0.));
#1174=DIRECTION('',(0.,-1.,0.));
#1175=DIRECTION('',(1.,0.,0.));
#1176=DIRECTION('',(0.,0.,-1.));
#1177=DIRECTION('',(0.,0.,-1.));
#1178=DIRECTION('',(-1.,0.,0.));
#1179=DIRECTION('',(0.,0.,-1.));
#1180=DIRECTION('',(-1.,0.,0.));
#1181=DIRECTION('',(0.,0.,-1.));
#1182=DIRECTION('',(-1.,0.,0.));
#1183=DIRECTION('',(0.,0.,-1.));
#1184=DIRECTION('',(-1.,0.,0.));
#1185=DIRECTION('',(0.,0.,-1.));
#1186=DIRECTION('',(-1.,0.,0.));
#1187=DIRECTION('',(0.,0.,-1.));
#1188=DIRECTION('',(-1.,0.,0.));
#1189=DIRECTION('',(0.,0.,-1.));
#1190=DIRECTION('',(-1.,0.,0.));
#1191=DIRECTION('',(0.,0.,-1.));
#1192=DIRECTION('',(-1.,0.,0.));
#1193=DIRECTION('',(0.,0.,-1.));
#1194=DIRECTION('',(-1.,0.,0.));
#1195=DIRECTION('',(0.,0.,-1.));
#1196=DIRECTION('',(-1.,0.,0.));
#1197=DIRECTION('',(0.,0.,-1.));
#1198=DIRECTION('',(-1.,0.,0.));
#1199=DIRECTION('',(0.,0.,-1.));
#1200=DIRECTION('',(-1.,0.,0.));
#1201=DIRECTION('',(0.,0.,-1.));
#1202=DIRECTION('',(-1.,0.,0.));
#1203=DIRECTION('',(0.,0.,-1.));
#1204=DIRECTION('',(1.,0.,0.));
#1205=DIRECTION('',(0.,0.,-1.));
#1206=DIRECTION('',(-1.,0.,0.));
#1207=DIRECTION('',(0.,0.,-1.));
#1208=DIRECTION('',(-1.,0.,0.));
#1209=DIRECTION('',(0.,0.,-1.));
#1210=DIRECTION('',(1.,0.,0.));
#1211=DIRECTION('',(0.,0.,-1.));
#1212=DIRECTION('',(-1.,0.,0.));
#1213=DIRECTION('',(0.,0.,-1.));
#1214=DIRECTION('',(-1.,0.,0.));
#1215=DIRECTION('',(0.,0.,-1.));
#1216=DIRECTION('',(1.,0.,0.));
#1217=DIRECTION('',(0.,0.,-1.));
#1218=DIRECTION('',(-1.,0.,0.));
#1219=DIRECTION('',(0.,0.,-1.));
#1220=DIRECTION('',(-1.,0.,0.));
#1221=DIRECTION('',(0.,0.,-1.));
#1222=DIRECTION('',(1.,0.,0.));
#1223=DIRECTION('',(0.,0.,-1.));
#1224=DIRECTION('',(-1.,0.,0.));
#1225=DIRECTION('',(0.,0.,-1.));
#1226=DIRECTION('',(-1.,0.,0.));
#1227=DIRECTION('',(-0.707106781186547,-0.707106781186548,0.));
#1228=DIRECTION('',(0.707106781186548,-0.707106781186548,0.));
#1229=DIRECTION('',(0.707106781186547,0.707106781186548,0.));
#1230=DIRECTION('',(-0.707106781186548,0.707106781186547,0.));
#1231=DIRECTION('',(-0.707106781186548,0.707106781186547,0.));
#1232=DIRECTION('',(-0.707106781186547,-0.707106781186548,0.));
#1233=DIRECTION('',(0.,0.,1.));
#1234=DIRECTION('',(0.,0.,1.));
#1235=DIRECTION('',(0.707106781186547,0.707106781186548,0.));
#1236=DIRECTION('',(-0.707106781186548,0.707106781186547,0.));
#1237=DIRECTION('',(0.,0.,1.));
#1238=DIRECTION('',(0.707106781186548,-0.707106781186547,0.));
#1239=DIRECTION('',(0.707106781186547,0.707106781186548,0.));
#1240=DIRECTION('',(0.,0.,1.));
#1241=DIRECTION('',(-0.707106781186548,-0.707106781186548,0.));
#1242=DIRECTION('',(0.707106781186548,-0.707106781186548,0.));
#1243=DIRECTION('',(0.,-1.,0.));
#1244=DIRECTION('',(0.,0.,-1.));
#1245=DIRECTION('',(0.,0.,1.));
#1246=DIRECTION('',(1.,0.,0.));
#1247=DIRECTION('',(0.,0.,1.));
#1248=DIRECTION('',(1.,0.,0.));
#1249=DIRECTION('',(0.,0.,-1.));
#1250=DIRECTION('',(0.,0.,1.));
#1251=DIRECTION('',(0.,1.,0.));
#1252=DIRECTION('',(0.,1.,0.));
#1253=DIRECTION('',(0.,0.,1.));
#1254=DIRECTION('',(0.,0.,1.));
#1255=DIRECTION('',(-1.,0.,0.));
#1256=DIRECTION('',(-1.,0.,0.));
#1257=DIRECTION('',(0.,0.,1.));
#1258=DIRECTION('',(0.,-1.,0.));
#1259=DIRECTION('',(0.,0.,1.));
#1260=DIRECTION('',(1.,0.,0.));
#1261=DIRECTION('',(0.,0.,-1.));
#1262=DIRECTION('',(-1.,0.,0.));
#1263=DIRECTION('',(0.,0.,-1.));
#1264=DIRECTION('',(-1.,0.,0.));
#1265=DIRECTION('',(0.,0.,-1.));
#1266=DIRECTION('',(-1.,0.,0.));
#1267=DIRECTION('',(0.,0.,-1.));
#1268=DIRECTION('',(-1.,0.,0.));
#1269=DIRECTION('',(0.,0.,-1.));
#1270=DIRECTION('',(-1.,0.,0.));
#1271=DIRECTION('',(0.,0.,1.));
#1272=DIRECTION('',(1.,0.,0.));
#1273=DIRECTION('',(0.,0.,-1.));
#1274=DIRECTION('',(-1.,0.,0.));
#1275=DIRECTION('',(0.,0.,-1.));
#1276=DIRECTION('',(-1.,0.,0.));
#1277=DIRECTION('',(0.,0.,1.));
#1278=DIRECTION('',(1.,0.,0.));
#1279=DIRECTION('',(0.,0.,-1.));
#1280=DIRECTION('',(-1.,0.,0.));
#1281=DIRECTION('',(0.,0.,-1.));
#1282=DIRECTION('',(-1.,0.,0.));
#1283=DIRECTION('',(0.,0.,1.));
#1284=DIRECTION('',(1.,0.,0.));
#1285=DIRECTION('',(0.,0.,-1.));
#1286=DIRECTION('',(-1.,0.,0.));
#1287=DIRECTION('',(0.,0.,-1.));
#1288=DIRECTION('',(-1.,0.,0.));
#1289=DIRECTION('',(0.,0.,1.));
#1290=DIRECTION('',(1.,0.,0.));
#1291=DIRECTION('',(0.,0.,-1.));
#1292=DIRECTION('',(-1.,0.,0.));
#1293=DIRECTION('',(0.,0.,-1.));
#1294=DIRECTION('',(-1.,0.,0.));
#1295=DIRECTION('',(0.,0.,1.));
#1296=DIRECTION('',(1.,0.,0.));
#1297=DIRECTION('',(0.,0.,-1.));
#1298=DIRECTION('',(-1.,0.,0.));
#1299=DIRECTION('',(0.,0.,-1.));
#1300=DIRECTION('',(-1.,0.,0.));
#1301=DIRECTION('',(0.,0.,1.));
#1302=DIRECTION('',(1.,0.,0.));
#1303=DIRECTION('',(0.,0.,-1.));
#1304=DIRECTION('',(-1.,0.,0.));
#1305=DIRECTION('',(0.,0.,-1.));
#1306=DIRECTION('',(1.,0.,0.));
#1307=DIRECTION('',(0.,0.,-1.));
#1308=DIRECTION('',(-1.,0.,0.));
#1309=CARTESIAN_POINT('',(0.,0.,0.));
#1310=CARTESIAN_POINT('',(51.04,102.36,79.7439736662442));
#1311=CARTESIAN_POINT('',(51.04,102.36,14.05));
#1312=CARTESIAN_POINT('',(48.04,102.36,14.05));
#1313=CARTESIAN_POINT('',(51.04,102.36,6.09999999999999));
#1314=CARTESIAN_POINT('',(48.04,102.36,6.09999999999999));
#1315=CARTESIAN_POINT('',(49.2,25.,-57.0991302149563));
#1316=CARTESIAN_POINT('',(49.2,25.,14.05));
#1317=CARTESIAN_POINT('',(47.7,25.,14.05));
#1318=CARTESIAN_POINT('',(49.2,25.,11.05));
#1319=CARTESIAN_POINT('',(47.7,25.,11.05));
#1320=CARTESIAN_POINT('',(11.7,37.5,73.4050258956503));
#1321=CARTESIAN_POINT('',(11.7,37.5,9.05));
#1322=CARTESIAN_POINT('',(14.7,37.5,9.05));
#1323=CARTESIAN_POINT('',(11.7,37.5,8.00000000000001));
#1324=CARTESIAN_POINT('',(8.70000000000003,37.5,8.00000000000001));
#1325=CARTESIAN_POINT('',(11.7,12.5,73.4050258956503));
#1326=CARTESIAN_POINT('',(11.7,12.5,9.05));
#1327=CARTESIAN_POINT('',(14.7,12.5,9.05));
#1328=CARTESIAN_POINT('',(11.7,12.5,8.00000000000001));
#1329=CARTESIAN_POINT('',(8.70000000000004,12.5,8.00000000000001));
#1330=CARTESIAN_POINT('',(11.7,87.5,73.4050258956503));
#1331=CARTESIAN_POINT('',(11.7,87.5,9.05));
#1332=CARTESIAN_POINT('',(14.7,87.5,9.05));
#1333=CARTESIAN_POINT('',(11.7,87.5,8.00000000000001));
#1334=CARTESIAN_POINT('',(8.70000000000002,87.5,8.00000000000001));
#1335=CARTESIAN_POINT('',(11.7,112.5,-20.8496820095167));
#1336=CARTESIAN_POINT('',(11.7,112.5,9.05));
#1337=CARTESIAN_POINT('',(8.70000000000001,112.5,9.05));
#1338=CARTESIAN_POINT('',(11.7,112.5,8.));
#1339=CARTESIAN_POINT('',(8.70000000000001,112.5,8.));
#1340=CARTESIAN_POINT('',(0.,0.,9.05));
#1341=CARTESIAN_POINT('',(25.26,50.,9.05));
#1342=CARTESIAN_POINT('',(25.26,125.,9.05));
#1343=CARTESIAN_POINT('',(25.26,75.,9.05));
#1344=CARTESIAN_POINT('',(25.26,125.,9.05));
#1345=CARTESIAN_POINT('',(0.,125.,9.05));
#1346=CARTESIAN_POINT('',(0.,125.,9.05));
#1347=CARTESIAN_POINT('',(0.,75.,9.05));
#1348=CARTESIAN_POINT('',(25.26,75.,9.05));
#1349=CARTESIAN_POINT('',(25.26,75.,9.05));
#1350=CARTESIAN_POINT('',(25.26,75.,0.));
#1351=CARTESIAN_POINT('',(0.,75.,0.));
#1352=CARTESIAN_POINT('',(25.26,75.,0.));
#1353=CARTESIAN_POINT('',(25.26,75.,9.05));
#1354=CARTESIAN_POINT('',(0.,75.,9.05));
#1355=CARTESIAN_POINT('',(25.26,125.,9.05));
#1356=CARTESIAN_POINT('',(25.26,125.,0.));
#1357=CARTESIAN_POINT('',(74.2,125.,0.));
#1358=CARTESIAN_POINT('',(0.,125.,0.));
#1359=CARTESIAN_POINT('',(0.,125.,9.05));
#1360=CARTESIAN_POINT('',(25.26,125.,19.05));
#1361=CARTESIAN_POINT('',(25.26,125.,19.05));
#1362=CARTESIAN_POINT('',(50.26,125.,19.05));
#1363=CARTESIAN_POINT('',(74.2,125.,19.05));
#1364=CARTESIAN_POINT('',(74.2,125.,0.));
#1365=CARTESIAN_POINT('',(0.,125.,9.05));
#1366=CARTESIAN_POINT('',(0.,125.,0.));
#1367=CARTESIAN_POINT('',(0.,0.,9.05));
#1368=CARTESIAN_POINT('',(25.26,50.,9.05));
#1369=CARTESIAN_POINT('',(25.26,50.,9.05));
#1370=CARTESIAN_POINT('',(25.26,-2.08166817117217E-14,9.05));
#1371=CARTESIAN_POINT('',(25.26,50.,9.05));
#1372=CARTESIAN_POINT('',(0.,50.,9.05));
#1373=CARTESIAN_POINT('',(0.,50.,9.05));
#1374=CARTESIAN_POINT('',(0.,0.,9.05));
#1375=CARTESIAN_POINT('',(0.,0.,9.05));
#1376=CARTESIAN_POINT('',(0.,0.,0.));
#1377=CARTESIAN_POINT('',(51.04,102.36,0.));
#1378=CARTESIAN_POINT('',(56.04,102.36,0.));
#1379=CARTESIAN_POINT('',(49.2,25.,0.));
#1380=CARTESIAN_POINT('',(51.7,25.,0.));
#1381=CARTESIAN_POINT('',(11.7,37.5,0.));
#1382=CARTESIAN_POINT('',(15.7,37.5,0.));
#1383=CARTESIAN_POINT('',(11.7,12.5,0.));
#1384=CARTESIAN_POINT('',(15.7,12.5,0.));
#1385=CARTESIAN_POINT('',(11.7,87.5,0.));
#1386=CARTESIAN_POINT('',(15.7,87.5,0.));
#1387=CARTESIAN_POINT('',(11.7,112.5,0.));
#1388=CARTESIAN_POINT('',(15.7,112.5,0.));
#1389=CARTESIAN_POINT('',(36.7,62.5,0.));
#1390=CARTESIAN_POINT('',(39.7,62.5,0.));
#1391=CARTESIAN_POINT('',(61.7,62.5,0.));
#1392=CARTESIAN_POINT('',(64.7,62.5,0.));
#1393=CARTESIAN_POINT('',(61.7,37.5,0.));
#1394=CARTESIAN_POINT('',(64.7,37.5,0.));
#1395=CARTESIAN_POINT('',(36.7,37.5,0.));
#1396=CARTESIAN_POINT('',(39.7,37.5,0.));
#1397=CARTESIAN_POINT('',(36.7,12.5,0.));
#1398=CARTESIAN_POINT('',(39.7,12.5,0.));
#1399=CARTESIAN_POINT('',(61.7,12.5,0.));
#1400=CARTESIAN_POINT('',(64.7,12.5,0.));
#1401=CARTESIAN_POINT('',(74.2,0.,0.));
#1402=CARTESIAN_POINT('',(74.2,0.,0.));
#1403=CARTESIAN_POINT('',(0.,0.,0.));
#1404=CARTESIAN_POINT('',(0.,0.,0.));
#1405=CARTESIAN_POINT('',(0.,50.,0.));
#1406=CARTESIAN_POINT('',(0.,50.,0.));
#1407=CARTESIAN_POINT('',(25.26,50.,0.));
#1408=CARTESIAN_POINT('',(25.26,50.,0.));
#1409=CARTESIAN_POINT('',(25.26,75.,0.));
#1410=CARTESIAN_POINT('',(25.26,0.,0.));
#1411=CARTESIAN_POINT('',(25.26,50.,9.05));
#1412=CARTESIAN_POINT('',(25.26,-2.08166817117217E-14,19.05));
#1413=CARTESIAN_POINT('',(25.26,-2.08166817117217E-14,19.05));
#1414=CARTESIAN_POINT('',(25.26,75.,19.05));
#1415=CARTESIAN_POINT('',(0.,0.,9.05));
#1416=CARTESIAN_POINT('',(74.2,-2.78984190372454E-14,19.05));
#1417=CARTESIAN_POINT('',(74.2,-2.77555756156289E-14,19.05));
#1418=CARTESIAN_POINT('',(25.26,-2.77555756156289E-14,19.05));
#1419=CARTESIAN_POINT('',(0.,0.,9.05));
#1420=CARTESIAN_POINT('',(25.26,50.,9.05));
#1421=CARTESIAN_POINT('',(0.,50.,9.05));
#1422=CARTESIAN_POINT('',(0.,50.,9.05));
#1423=CARTESIAN_POINT('',(0.,0.,19.05));
#1424=CARTESIAN_POINT('',(61.7,62.5,19.05));
#1425=CARTESIAN_POINT('',(56.7,62.5,19.05));
#1426=CARTESIAN_POINT('',(61.7,37.5,19.05));
#1427=CARTESIAN_POINT('',(56.7,37.5,19.05));
#1428=CARTESIAN_POINT('',(36.7,62.5,19.05));
#1429=CARTESIAN_POINT('',(31.7,62.5,19.05));
#1430=CARTESIAN_POINT('',(36.7,37.5,19.05));
#1431=CARTESIAN_POINT('',(31.7,37.5,19.05));
#1432=CARTESIAN_POINT('',(36.7,12.5,19.05));
#1433=CARTESIAN_POINT('',(31.7,12.5,19.05));
#1434=CARTESIAN_POINT('',(61.7,12.5,19.05));
#1435=CARTESIAN_POINT('',(56.7,12.5,19.05));
#1436=CARTESIAN_POINT('',(36.7,20.25,19.05));
#1437=CARTESIAN_POINT('',(36.7,20.25,19.05));
#1438=CARTESIAN_POINT('',(61.7,20.25,19.05));
#1439=CARTESIAN_POINT('',(36.7,29.75,19.05));
#1440=CARTESIAN_POINT('',(36.7,29.75,19.05));
#1441=CARTESIAN_POINT('',(61.7,29.75,19.05));
#1442=CARTESIAN_POINT('',(61.7,29.75,19.05));
#1443=CARTESIAN_POINT('',(61.7,20.25,19.05));
#1444=CARTESIAN_POINT('',(68.7176695296637,109.431067811865,19.05));
#1445=CARTESIAN_POINT('',(68.7176695296637,109.431067811865,19.05));
#1446=CARTESIAN_POINT('',(58.1110678118655,120.037669529664,19.05));
#1447=CARTESIAN_POINT('',(43.9689321881345,84.6823304703363,19.05));
#1448=CARTESIAN_POINT('',(43.9689321881345,84.6823304703363,19.05));
#1449=CARTESIAN_POINT('',(33.3623304703363,95.2889321881345,19.05));
#1450=CARTESIAN_POINT('',(33.3623304703363,95.2889321881345,19.05));
#1451=CARTESIAN_POINT('',(51.04,112.966601717798,19.05));
#1452=CARTESIAN_POINT('',(74.2,125.,19.05));
#1453=CARTESIAN_POINT('',(74.2,0.,0.));
#1454=CARTESIAN_POINT('',(61.7,12.5,73.4050258956503));
#1455=CARTESIAN_POINT('',(61.7,12.5,12.95));
#1456=CARTESIAN_POINT('',(58.7,12.5,12.95));
#1457=CARTESIAN_POINT('',(36.7,12.5,73.4050258956503));
#1458=CARTESIAN_POINT('',(36.7,12.5,12.95));
#1459=CARTESIAN_POINT('',(33.7,12.5,12.95));
#1460=CARTESIAN_POINT('',(36.7,37.5,73.4050258956503));
#1461=CARTESIAN_POINT('',(36.7,37.5,12.95));
#1462=CARTESIAN_POINT('',(33.7,37.5,12.95));
#1463=CARTESIAN_POINT('',(61.7,37.5,73.4050258956503));
#1464=CARTESIAN_POINT('',(61.7,37.5,12.95));
#1465=CARTESIAN_POINT('',(58.7,37.5,12.95));
#1466=CARTESIAN_POINT('',(61.7,62.5,73.4050258956503));
#1467=CARTESIAN_POINT('',(61.7,62.5,12.95));
#1468=CARTESIAN_POINT('',(58.7,62.5,12.95));
#1469=CARTESIAN_POINT('',(36.7,62.5,73.4050258956503));
#1470=CARTESIAN_POINT('',(36.7,62.5,12.95));
#1471=CARTESIAN_POINT('',(33.7,62.5,12.95));
#1472=CARTESIAN_POINT('',(11.7,112.5,8.));
#1473=CARTESIAN_POINT('',(11.7,112.5,8.));
#1474=CARTESIAN_POINT('',(15.7,112.5,8.));
#1475=CARTESIAN_POINT('',(11.7,112.5,8.));
#1476=CARTESIAN_POINT('',(11.7,87.5,8.));
#1477=CARTESIAN_POINT('',(11.7,87.5,8.));
#1478=CARTESIAN_POINT('',(15.7,87.5,8.));
#1479=CARTESIAN_POINT('',(11.7,87.5,8.));
#1480=CARTESIAN_POINT('',(11.7,12.5,8.));
#1481=CARTESIAN_POINT('',(11.7,12.5,8.));
#1482=CARTESIAN_POINT('',(15.7,12.5,8.));
#1483=CARTESIAN_POINT('',(11.7,12.5,8.));
#1484=CARTESIAN_POINT('',(11.7,37.5,8.));
#1485=CARTESIAN_POINT('',(11.7,37.5,8.));
#1486=CARTESIAN_POINT('',(15.7,37.5,8.));
#1487=CARTESIAN_POINT('',(11.7,37.5,8.));
#1488=CARTESIAN_POINT('',(0.,0.,14.05));
#1489=CARTESIAN_POINT('',(68.7176695296637,109.431067811865,14.05));
#1490=CARTESIAN_POINT('',(68.7176695296637,109.431067811865,14.05));
#1491=CARTESIAN_POINT('',(43.9689321881345,84.6823304703363,14.05));
#1492=CARTESIAN_POINT('',(58.1110678118655,120.037669529664,14.05));
#1493=CARTESIAN_POINT('',(58.1110678118655,120.037669529664,14.05));
#1494=CARTESIAN_POINT('',(33.3623304703363,95.2889321881345,14.05));
#1495=CARTESIAN_POINT('',(33.3623304703363,95.2889321881345,14.05));
#1496=CARTESIAN_POINT('',(43.9689321881345,84.6823304703363,14.05));
#1497=CARTESIAN_POINT('',(68.7176695296637,109.431067811865,14.05));
#1498=CARTESIAN_POINT('',(68.7176695296637,109.431067811865,14.05));
#1499=CARTESIAN_POINT('',(43.9689321881345,84.6823304703363,14.05));
#1500=CARTESIAN_POINT('',(43.9689321881345,84.6823304703363,14.05));
#1501=CARTESIAN_POINT('',(33.3623304703363,95.2889321881345,14.05));
#1502=CARTESIAN_POINT('',(33.3623304703363,95.2889321881345,14.05));
#1503=CARTESIAN_POINT('',(58.1110678118655,120.037669529664,14.05));
#1504=CARTESIAN_POINT('',(58.1110678118655,120.037669529664,14.05));
#1505=CARTESIAN_POINT('',(36.7,20.25,14.05));
#1506=CARTESIAN_POINT('',(61.7,20.25,14.05));
#1507=CARTESIAN_POINT('',(61.7,20.25,14.05));
#1508=CARTESIAN_POINT('',(36.7,20.25,14.05));
#1509=CARTESIAN_POINT('',(36.7,20.25,14.05));
#1510=CARTESIAN_POINT('',(36.7,20.25,14.05));
#1511=CARTESIAN_POINT('',(61.7,20.25,14.05));
#1512=CARTESIAN_POINT('',(61.7,29.75,14.05));
#1513=CARTESIAN_POINT('',(61.7,29.75,14.05));
#1514=CARTESIAN_POINT('',(61.7,20.25,14.05));
#1515=CARTESIAN_POINT('',(61.7,29.75,14.05));
#1516=CARTESIAN_POINT('',(36.7,29.75,14.05));
#1517=CARTESIAN_POINT('',(36.7,29.75,14.05));
#1518=CARTESIAN_POINT('',(61.7,29.75,14.05));
#1519=CARTESIAN_POINT('',(36.7,29.75,14.05));
#1520=CARTESIAN_POINT('',(36.7,29.75,14.05));
#1521=CARTESIAN_POINT('',(0.,0.,14.05));
#1522=CARTESIAN_POINT('',(49.2,25.,10.05));
#1523=CARTESIAN_POINT('',(49.2,25.,11.05));
#1524=CARTESIAN_POINT('',(46.7,25.,11.05));
#1525=CARTESIAN_POINT('',(49.2,25.,11.05));
#1526=CARTESIAN_POINT('',(61.7,12.5,12.95));
#1527=CARTESIAN_POINT('',(61.7,12.5,12.95));
#1528=CARTESIAN_POINT('',(56.7,12.5,12.95));
#1529=CARTESIAN_POINT('',(61.7,12.5,12.95));
#1530=CARTESIAN_POINT('',(36.7,12.5,12.95));
#1531=CARTESIAN_POINT('',(36.7,12.5,12.95));
#1532=CARTESIAN_POINT('',(31.7,12.5,12.95));
#1533=CARTESIAN_POINT('',(36.7,12.5,12.95));
#1534=CARTESIAN_POINT('',(36.7,37.5,12.95));
#1535=CARTESIAN_POINT('',(36.7,37.5,12.95));
#1536=CARTESIAN_POINT('',(31.7,37.5,12.95));
#1537=CARTESIAN_POINT('',(36.7,37.5,12.95));
#1538=CARTESIAN_POINT('',(36.7,62.5,12.95));
#1539=CARTESIAN_POINT('',(36.7,62.5,12.95));
#1540=CARTESIAN_POINT('',(31.7,62.5,12.95));
#1541=CARTESIAN_POINT('',(36.7,62.5,12.95));
#1542=CARTESIAN_POINT('',(61.7,37.5,12.95));
#1543=CARTESIAN_POINT('',(61.7,37.5,12.95));
#1544=CARTESIAN_POINT('',(56.7,37.5,12.95));
#1545=CARTESIAN_POINT('',(61.7,37.5,12.95));
#1546=CARTESIAN_POINT('',(61.7,62.5,12.95));
#1547=CARTESIAN_POINT('',(61.7,62.5,12.95));
#1548=CARTESIAN_POINT('',(56.7,62.5,12.95));
#1549=CARTESIAN_POINT('',(61.7,62.5,12.95));
#1550=CARTESIAN_POINT('',(51.04,102.36,6.1));
#1551=CARTESIAN_POINT('',(51.04,102.36,6.1));
#1552=CARTESIAN_POINT('',(56.04,102.36,6.1));
#1553=CARTESIAN_POINT('',(51.04,102.36,6.1));
#1554=MECHANICAL_DESIGN_GEOMETRIC_PRESENTATION_REPRESENTATION('',(#923),
#1555);
#1555=(
GEOMETRIC_REPRESENTATION_CONTEXT(3)
GLOBAL_UNCERTAINTY_ASSIGNED_CONTEXT((#1556))
GLOBAL_UNIT_ASSIGNED_CONTEXT((#1559,#1558,#1557))
REPRESENTATION_CONTEXT('23_FDML_stimfix_dichroic_board',
'TOP_LEVEL_ASSEMBLY_PART')
);
#1556=UNCERTAINTY_MEASURE_WITH_UNIT(LENGTH_MEASURE(0.005),#1559,
'DISTANCE_ACCURACY_VALUE','Maximum Tolerance applied to model');
#1557=(
NAMED_UNIT(*)
SI_UNIT($,.STERADIAN.)
SOLID_ANGLE_UNIT()
);
#1558=(
NAMED_UNIT(*)
PLANE_ANGLE_UNIT()
SI_UNIT($,.RADIAN.)
);
#1559=(
LENGTH_UNIT()
NAMED_UNIT(*)
SI_UNIT(.MILLI.,.METRE.)
);
#1560=PRODUCT_DEFINITION_SHAPE('','',#1561);
#1561=PRODUCT_DEFINITION('','',#1563,#1562);
#1562=PRODUCT_DEFINITION_CONTEXT('',#1569,'design');
#1563=PRODUCT_DEFINITION_FORMATION_WITH_SPECIFIED_SOURCE('','',#1565,
 .NOT_KNOWN.);
#1564=PRODUCT_RELATED_PRODUCT_CATEGORY('','',(#1565));
#1565=PRODUCT('23_FDML_stimfix_dichroic_board',
'23_FDML_stimfix_dichroic_board','23_FDML_stimfix_dichroic_board',(#1567));
#1566=PRODUCT_CATEGORY('','');
#1567=PRODUCT_CONTEXT('',#1569,'mechanical');
#1568=APPLICATION_PROTOCOL_DEFINITION('international standard',
'automotive_design',2010,#1569);
#1569=APPLICATION_CONTEXT(
'core data for automotive mechanical design processes');
ENDSEC;
END-ISO-10303-21;
