ISO-10303-21;
HEADER;
/* Generated by software containing ST-Developer
 * from STEP Tools, Inc. (www.steptools.com) 
 */
/* OPTION: strings as raw bytes, not using required /X/ escapes */

FILE_DESCRIPTION(
/* description */ ('Unknown'),
/* implementation_level */ '2;1');

FILE_NAME(
/* name */ '24_FDML_stimfix_dichroic_holder',
/* time_stamp */ '2026-09-07T15:11:00+02:00',
/* author */ ('Unknown'),
/* organization */ ('Unknown'),
/* preprocessor_version */ 'ST-DEVELOPER v16.7',
/* originating_system */ 'Solid Edge',
/* authorisation */ 'Unknown');

FILE_SCHEMA (('AUTOMOTIVE_DESIGN {1 0 10303 214 3 1 1}'));
ENDSEC;

DATA;
#10=PROPERTY_DEFINITION_REPRESENTATION(#14,#12);
#11=PROPERTY_DEFINITION_REPRESENTATION(#15,#13);
#12=REPRESENTATION('',(#16),#1246);
#13=REPRESENTATION('',(#17),#1246);
#14=PROPERTY_DEFINITION('pmi validation property','',#1251);
#15=PROPERTY_DEFINITION('pmi validation property','',#1251);
#16=VALUE_REPRESENTATION_ITEM('number of annotations',COUNT_MEASURE(0.));
#17=VALUE_REPRESENTATION_ITEM('number of views',COUNT_MEASURE(0.));
#18=SHAPE_REPRESENTATION_RELATIONSHIP('','',#738,#19);
#19=ADVANCED_BREP_SHAPE_REPRESENTATION('',(#736),#1246);
#20=ELLIPSE('',#759,12.7279220613579,9.00000000000001);
#21=ELLIPSE('',#763,4.24264068711928,3.);
#22=LINE('',#1037,#83);
#23=LINE('',#1040,#84);
#24=LINE('',#1042,#85);
#25=LINE('',#1044,#86);
#26=LINE('',#1046,#87);
#27=LINE('',#1048,#88);
#28=LINE('',#1075,#89);
#29=LINE('',#1078,#90);
#30=LINE('',#1079,#91);
#31=LINE('',#1081,#92);
#32=LINE('',#1083,#93);
#33=LINE('',#1085,#94);
#34=LINE('',#1087,#95);
#35=LINE('',#1089,#96);
#36=LINE('',#1091,#97);
#37=LINE('',#1093,#98);
#38=LINE('',#1095,#99);
#39=LINE('',#1097,#100);
#40=LINE('',#1099,#101);
#41=LINE('',#1101,#102);
#42=LINE('',#1102,#103);
#43=LINE('',#1105,#104);
#44=LINE('',#1107,#105);
#45=LINE('',#1109,#106);
#46=LINE('',#1111,#107);
#47=LINE('',#1116,#108);
#48=LINE('',#1123,#109);
#49=LINE('',#1125,#110);
#50=LINE('',#1126,#111);
#51=LINE('',#1128,#112);
#52=LINE('',#1130,#113);
#53=LINE('',#1132,#114);
#54=LINE('',#1133,#115);
#55=LINE('',#1136,#116);
#56=LINE('',#1144,#117);
#57=LINE('',#1148,#118);
#58=LINE('',#1150,#119);
#59=LINE('',#1152,#120);
#60=LINE('',#1154,#121);
#61=LINE('',#1162,#122);
#62=LINE('',#1163,#123);
#63=LINE('',#1170,#124);
#64=LINE('',#1172,#125);
#65=LINE('',#1174,#126);
#66=LINE('',#1176,#127);
#67=LINE('',#1178,#128);
#68=LINE('',#1180,#129);
#69=LINE('',#1182,#130);
#70=LINE('',#1184,#131);
#71=LINE('',#1188,#132);
#72=LINE('',#1190,#133);
#73=LINE('',#1194,#134);
#74=LINE('',#1197,#135);
#75=LINE('',#1199,#136);
#76=LINE('',#1203,#137);
#77=LINE('',#1205,#138);
#78=LINE('',#1210,#139);
#79=LINE('',#1212,#140);
#80=LINE('',#1216,#141);
#81=LINE('',#1218,#142);
#82=LINE('',#1220,#143);
#83=VECTOR('',#819,1000.);
#84=VECTOR('',#820,1000.);
#85=VECTOR('',#821,1000.);
#86=VECTOR('',#822,1000.);
#87=VECTOR('',#823,1000.);
#88=VECTOR('',#824,1000.);
#89=VECTOR('',#833,1000.);
#90=VECTOR('',#834,1000.);
#91=VECTOR('',#835,1000.);
#92=VECTOR('',#836,1000.);
#93=VECTOR('',#837,1000.);
#94=VECTOR('',#840,1000.);
#95=VECTOR('',#841,1000.);
#96=VECTOR('',#842,1000.);
#97=VECTOR('',#845,1000.);
#98=VECTOR('',#846,1000.);
#99=VECTOR('',#847,1000.);
#100=VECTOR('',#848,1000.);
#101=VECTOR('',#849,1000.);
#102=VECTOR('',#850,1000.);
#103=VECTOR('',#851,1000.);
#104=VECTOR('',#852,1000.);
#105=VECTOR('',#853,1000.);
#106=VECTOR('',#854,1000.);
#107=VECTOR('',#857,1000.);
#108=VECTOR('',#860,1000.);
#109=VECTOR('',#867,1000.);
#110=VECTOR('',#868,1000.);
#111=VECTOR('',#869,1000.);
#112=VECTOR('',#870,1000.);
#113=VECTOR('',#871,1000.);
#114=VECTOR('',#872,1000.);
#115=VECTOR('',#873,1000.);
#116=VECTOR('',#876,1000.);
#117=VECTOR('',#885,1000.);
#118=VECTOR('',#888,1000.);
#119=VECTOR('',#891,1000.);
#120=VECTOR('',#892,1000.);
#121=VECTOR('',#893,1000.);
#122=VECTOR('',#906,1000.);
#123=VECTOR('',#907,1000.);
#124=VECTOR('',#916,1000.);
#125=VECTOR('',#917,1000.);
#126=VECTOR('',#918,1000.);
#127=VECTOR('',#921,1000.);
#128=VECTOR('',#922,1000.);
#129=VECTOR('',#925,1000.);
#130=VECTOR('',#926,1000.);
#131=VECTOR('',#929,1000.);
#132=VECTOR('',#936,1000.);
#133=VECTOR('',#937,1000.);
#134=VECTOR('',#942,1000.);
#135=VECTOR('',#947,1000.);
#136=VECTOR('',#948,1000.);
#137=VECTOR('',#953,1000.);
#138=VECTOR('',#954,1000.);
#139=VECTOR('',#961,1000.);
#140=VECTOR('',#962,1000.);
#141=VECTOR('',#969,1000.);
#142=VECTOR('',#970,1000.);
#143=VECTOR('',#973,1000.);
#144=PLANE('',#743);
#145=PLANE('',#747);
#146=PLANE('',#748);
#147=PLANE('',#749);
#148=PLANE('',#753);
#149=PLANE('',#761);
#150=PLANE('',#767);
#151=PLANE('',#771);
#152=PLANE('',#772);
#153=PLANE('',#773);
#154=PLANE('',#774);
#155=PLANE('',#775);
#156=PLANE('',#776);
#157=PLANE('',#777);
#158=PLANE('',#778);
#159=PLANE('',#780);
#160=PLANE('',#781);
#161=PLANE('',#782);
#162=PLANE('',#786);
#163=PLANE('',#789);
#164=PLANE('',#790);
#165=PLANE('',#791);
#166=PLANE('',#793);
#167=PLANE('',#795);
#168=PLANE('',#798);
#169=PLANE('',#800);
#170=PLANE('',#801);
#171=PLANE('',#805);
#172=PLANE('',#808);
#173=B_SPLINE_CURVE_WITH_KNOTS('',3,(#1016,#1017,#1018,#1019,#1020,#1021,
#1022,#1023,#1024,#1025,#1026,#1027,#1028,#1029,#1030,#1031,#1032,#1033,
#1034),.UNSPECIFIED.,.T.,.F.,(1,1,1,1,1,1,1,1,1,1,1,1,1,1,1,1,1,1,1,1,1,
1,1),(-0.00181716541064545,-0.00121144360709697,-0.000605721803548483,0.,
0.000605721803548484,0.00121144360709697,0.00181716541064545,0.00242288721419394,
0.00302860901774242,0.00363433082129091,0.00424005262483939,0.00484577442838788,
0.00545149623193636,0.00605721803548484,0.00666293983903333,0.00726866164258181,
0.0078743834461303,0.00848010524967878,0.00908582705322727,0.00969154885677575,
0.0102972706603242,0.0109029924638727,0.0115087142674212),.UNSPECIFIED.);
#174=B_SPLINE_CURVE_WITH_KNOTS('',3,(#1054,#1055,#1056,#1057,#1058,#1059,
#1060,#1061,#1062,#1063,#1064,#1065,#1066,#1067,#1068,#1069,#1070,#1071,
#1072),.UNSPECIFIED.,.T.,.F.,(1,1,1,1,1,1,1,1,1,1,1,1,1,1,1,1,1,1,1,1,1,
1,1),(-0.00183633989856677,-0.00122422659904451,-0.000612113299522255,3.46944695195361E-18,
0.000612113299522262,0.00122422659904452,0.00183633989856678,0.00244845319808904,
0.0030605664976113,0.00367267979713355,0.00428479309665581,0.00489690639617807,
0.00550901969570033,0.00612113299522259,0.00673324629474485,0.00734535959426711,
0.00795747289378936,0.00856958619331162,0.00918169949283388,0.00979381279235614,
0.0104059260918784,0.0110180393914007,0.0116301526909229),.UNSPECIFIED.);
#175=ORIENTED_EDGE('',*,*,#355,.T.);
#176=ORIENTED_EDGE('',*,*,#356,.F.);
#177=ORIENTED_EDGE('',*,*,#357,.F.);
#178=ORIENTED_EDGE('',*,*,#358,.F.);
#179=ORIENTED_EDGE('',*,*,#359,.T.);
#180=ORIENTED_EDGE('',*,*,#360,.T.);
#181=ORIENTED_EDGE('',*,*,#361,.F.);
#182=ORIENTED_EDGE('',*,*,#362,.F.);
#183=ORIENTED_EDGE('',*,*,#363,.F.);
#184=ORIENTED_EDGE('',*,*,#364,.T.);
#185=ORIENTED_EDGE('',*,*,#365,.F.);
#186=ORIENTED_EDGE('',*,*,#366,.T.);
#187=ORIENTED_EDGE('',*,*,#367,.T.);
#188=ORIENTED_EDGE('',*,*,#368,.F.);
#189=ORIENTED_EDGE('',*,*,#361,.T.);
#190=ORIENTED_EDGE('',*,*,#369,.T.);
#191=ORIENTED_EDGE('',*,*,#370,.F.);
#192=ORIENTED_EDGE('',*,*,#371,.T.);
#193=ORIENTED_EDGE('',*,*,#359,.F.);
#194=ORIENTED_EDGE('',*,*,#372,.T.);
#195=ORIENTED_EDGE('',*,*,#373,.T.);
#196=ORIENTED_EDGE('',*,*,#374,.T.);
#197=ORIENTED_EDGE('',*,*,#375,.F.);
#198=ORIENTED_EDGE('',*,*,#362,.T.);
#199=ORIENTED_EDGE('',*,*,#368,.T.);
#200=ORIENTED_EDGE('',*,*,#376,.T.);
#201=ORIENTED_EDGE('',*,*,#377,.T.);
#202=ORIENTED_EDGE('',*,*,#378,.T.);
#203=ORIENTED_EDGE('',*,*,#379,.T.);
#204=ORIENTED_EDGE('',*,*,#380,.T.);
#205=ORIENTED_EDGE('',*,*,#381,.F.);
#206=ORIENTED_EDGE('',*,*,#382,.F.);
#207=ORIENTED_EDGE('',*,*,#383,.F.);
#208=ORIENTED_EDGE('',*,*,#384,.F.);
#209=ORIENTED_EDGE('',*,*,#385,.F.);
#210=ORIENTED_EDGE('',*,*,#386,.F.);
#211=ORIENTED_EDGE('',*,*,#387,.T.);
#212=ORIENTED_EDGE('',*,*,#388,.T.);
#213=ORIENTED_EDGE('',*,*,#389,.T.);
#214=ORIENTED_EDGE('',*,*,#390,.F.);
#215=ORIENTED_EDGE('',*,*,#391,.F.);
#216=ORIENTED_EDGE('',*,*,#392,.T.);
#217=ORIENTED_EDGE('',*,*,#393,.F.);
#218=ORIENTED_EDGE('',*,*,#394,.T.);
#219=ORIENTED_EDGE('',*,*,#395,.F.);
#220=ORIENTED_EDGE('',*,*,#386,.T.);
#221=ORIENTED_EDGE('',*,*,#396,.T.);
#222=ORIENTED_EDGE('',*,*,#397,.T.);
#223=ORIENTED_EDGE('',*,*,#379,.F.);
#224=ORIENTED_EDGE('',*,*,#398,.T.);
#225=ORIENTED_EDGE('',*,*,#399,.F.);
#226=ORIENTED_EDGE('',*,*,#400,.F.);
#227=ORIENTED_EDGE('',*,*,#401,.F.);
#228=ORIENTED_EDGE('',*,*,#402,.T.);
#229=ORIENTED_EDGE('',*,*,#403,.T.);
#230=ORIENTED_EDGE('',*,*,#404,.F.);
#231=ORIENTED_EDGE('',*,*,#389,.F.);
#232=ORIENTED_EDGE('',*,*,#402,.F.);
#233=ORIENTED_EDGE('',*,*,#405,.T.);
#234=ORIENTED_EDGE('',*,*,#406,.T.);
#235=ORIENTED_EDGE('',*,*,#407,.T.);
#236=ORIENTED_EDGE('',*,*,#408,.F.);
#237=ORIENTED_EDGE('',*,*,#377,.F.);
#238=ORIENTED_EDGE('',*,*,#409,.T.);
#239=ORIENTED_EDGE('',*,*,#406,.F.);
#240=ORIENTED_EDGE('',*,*,#410,.F.);
#241=ORIENTED_EDGE('',*,*,#399,.T.);
#242=ORIENTED_EDGE('',*,*,#411,.F.);
#243=ORIENTED_EDGE('',*,*,#370,.T.);
#244=ORIENTED_EDGE('',*,*,#412,.T.);
#245=ORIENTED_EDGE('',*,*,#373,.F.);
#246=ORIENTED_EDGE('',*,*,#413,.T.);
#247=ORIENTED_EDGE('',*,*,#414,.F.);
#248=ORIENTED_EDGE('',*,*,#384,.T.);
#249=ORIENTED_EDGE('',*,*,#415,.F.);
#250=ORIENTED_EDGE('',*,*,#416,.F.);
#251=ORIENTED_EDGE('',*,*,#417,.T.);
#252=ORIENTED_EDGE('',*,*,#383,.T.);
#253=ORIENTED_EDGE('',*,*,#418,.F.);
#254=ORIENTED_EDGE('',*,*,#419,.F.);
#255=ORIENTED_EDGE('',*,*,#415,.T.);
#256=ORIENTED_EDGE('',*,*,#382,.T.);
#257=ORIENTED_EDGE('',*,*,#420,.F.);
#258=ORIENTED_EDGE('',*,*,#421,.F.);
#259=ORIENTED_EDGE('',*,*,#418,.T.);
#260=ORIENTED_EDGE('',*,*,#381,.T.);
#261=ORIENTED_EDGE('',*,*,#417,.F.);
#262=ORIENTED_EDGE('',*,*,#422,.F.);
#263=ORIENTED_EDGE('',*,*,#420,.T.);
#264=ORIENTED_EDGE('',*,*,#413,.F.);
#265=ORIENTED_EDGE('',*,*,#369,.F.);
#266=ORIENTED_EDGE('',*,*,#360,.F.);
#267=ORIENTED_EDGE('',*,*,#374,.F.);
#268=ORIENTED_EDGE('',*,*,#412,.F.);
#269=ORIENTED_EDGE('',*,*,#414,.T.);
#270=ORIENTED_EDGE('',*,*,#421,.T.);
#271=ORIENTED_EDGE('',*,*,#422,.T.);
#272=ORIENTED_EDGE('',*,*,#416,.T.);
#273=ORIENTED_EDGE('',*,*,#419,.T.);
#274=ORIENTED_EDGE('',*,*,#391,.T.);
#275=ORIENTED_EDGE('',*,*,#423,.T.);
#276=ORIENTED_EDGE('',*,*,#424,.T.);
#277=ORIENTED_EDGE('',*,*,#371,.F.);
#278=ORIENTED_EDGE('',*,*,#411,.T.);
#279=ORIENTED_EDGE('',*,*,#425,.T.);
#280=ORIENTED_EDGE('',*,*,#426,.T.);
#281=ORIENTED_EDGE('',*,*,#423,.F.);
#282=ORIENTED_EDGE('',*,*,#390,.T.);
#283=ORIENTED_EDGE('',*,*,#404,.T.);
#284=ORIENTED_EDGE('',*,*,#378,.F.);
#285=ORIENTED_EDGE('',*,*,#408,.T.);
#286=ORIENTED_EDGE('',*,*,#405,.F.);
#287=ORIENTED_EDGE('',*,*,#401,.T.);
#288=ORIENTED_EDGE('',*,*,#398,.F.);
#289=ORIENTED_EDGE('',*,*,#372,.F.);
#290=ORIENTED_EDGE('',*,*,#358,.T.);
#291=ORIENTED_EDGE('',*,*,#427,.T.);
#292=ORIENTED_EDGE('',*,*,#428,.T.);
#293=ORIENTED_EDGE('',*,*,#392,.F.);
#294=ORIENTED_EDGE('',*,*,#429,.T.);
#295=ORIENTED_EDGE('',*,*,#395,.T.);
#296=ORIENTED_EDGE('',*,*,#430,.T.);
#297=ORIENTED_EDGE('',*,*,#431,.T.);
#298=ORIENTED_EDGE('',*,*,#387,.F.);
#299=ORIENTED_EDGE('',*,*,#400,.T.);
#300=ORIENTED_EDGE('',*,*,#432,.F.);
#301=ORIENTED_EDGE('',*,*,#385,.T.);
#302=ORIENTED_EDGE('',*,*,#433,.T.);
#303=ORIENTED_EDGE('',*,*,#434,.T.);
#304=ORIENTED_EDGE('',*,*,#396,.F.);
#305=ORIENTED_EDGE('',*,*,#397,.F.);
#306=ORIENTED_EDGE('',*,*,#434,.F.);
#307=ORIENTED_EDGE('',*,*,#435,.T.);
#308=ORIENTED_EDGE('',*,*,#380,.F.);
#309=ORIENTED_EDGE('',*,*,#428,.F.);
#310=ORIENTED_EDGE('',*,*,#436,.T.);
#311=ORIENTED_EDGE('',*,*,#437,.T.);
#312=ORIENTED_EDGE('',*,*,#393,.T.);
#313=ORIENTED_EDGE('',*,*,#437,.F.);
#314=ORIENTED_EDGE('',*,*,#438,.T.);
#315=ORIENTED_EDGE('',*,*,#430,.F.);
#316=ORIENTED_EDGE('',*,*,#394,.F.);
#317=ORIENTED_EDGE('',*,*,#439,.F.);
#318=ORIENTED_EDGE('',*,*,#410,.T.);
#319=ORIENTED_EDGE('',*,*,#440,.T.);
#320=ORIENTED_EDGE('',*,*,#409,.F.);
#321=ORIENTED_EDGE('',*,*,#376,.F.);
#322=ORIENTED_EDGE('',*,*,#367,.F.);
#323=ORIENTED_EDGE('',*,*,#424,.F.);
#324=ORIENTED_EDGE('',*,*,#426,.F.);
#325=ORIENTED_EDGE('',*,*,#403,.F.);
#326=ORIENTED_EDGE('',*,*,#407,.F.);
#327=ORIENTED_EDGE('',*,*,#364,.F.);
#328=ORIENTED_EDGE('',*,*,#441,.T.);
#329=ORIENTED_EDGE('',*,*,#425,.F.);
#330=ORIENTED_EDGE('',*,*,#365,.T.);
#331=ORIENTED_EDGE('',*,*,#441,.F.);
#332=ORIENTED_EDGE('',*,*,#366,.F.);
#333=ORIENTED_EDGE('',*,*,#439,.T.);
#334=ORIENTED_EDGE('',*,*,#440,.F.);
#335=ORIENTED_EDGE('',*,*,#356,.T.);
#336=ORIENTED_EDGE('',*,*,#388,.F.);
#337=ORIENTED_EDGE('',*,*,#431,.F.);
#338=ORIENTED_EDGE('',*,*,#438,.F.);
#339=ORIENTED_EDGE('',*,*,#436,.F.);
#340=ORIENTED_EDGE('',*,*,#427,.F.);
#341=ORIENTED_EDGE('',*,*,#363,.T.);
#342=ORIENTED_EDGE('',*,*,#375,.T.);
#343=ORIENTED_EDGE('',*,*,#435,.F.);
#344=ORIENTED_EDGE('',*,*,#433,.F.);
#345=ORIENTED_EDGE('',*,*,#432,.T.);
#346=ORIENTED_EDGE('',*,*,#355,.F.);
#347=ORIENTED_EDGE('',*,*,#442,.F.);
#348=ORIENTED_EDGE('',*,*,#443,.T.);
#349=ORIENTED_EDGE('',*,*,#357,.T.);
#350=ORIENTED_EDGE('',*,*,#443,.F.);
#351=ORIENTED_EDGE('',*,*,#444,.T.);
#352=ORIENTED_EDGE('',*,*,#429,.F.);
#353=ORIENTED_EDGE('',*,*,#442,.T.);
#354=ORIENTED_EDGE('',*,*,#444,.F.);
#355=EDGE_CURVE('',#445,#445,#511,.T.);
#356=EDGE_CURVE('',#446,#446,#512,.T.);
#357=EDGE_CURVE('',#447,#447,#173,.T.);
#358=EDGE_CURVE('',#448,#449,#22,.T.);
#359=EDGE_CURVE('',#448,#450,#23,.T.);
#360=EDGE_CURVE('',#450,#451,#24,.T.);
#361=EDGE_CURVE('',#452,#451,#25,.T.);
#362=EDGE_CURVE('',#453,#452,#26,.T.);
#363=EDGE_CURVE('',#449,#453,#27,.T.);
#364=EDGE_CURVE('',#454,#454,#513,.T.);
#365=EDGE_CURVE('',#455,#455,#514,.T.);
#366=EDGE_CURVE('',#456,#456,#174,.T.);
#367=EDGE_CURVE('',#457,#458,#28,.T.);
#368=EDGE_CURVE('',#452,#458,#29,.T.);
#369=EDGE_CURVE('',#451,#459,#30,.T.);
#370=EDGE_CURVE('',#460,#459,#31,.T.);
#371=EDGE_CURVE('',#460,#457,#32,.T.);
#372=EDGE_CURVE('',#448,#461,#33,.T.);
#373=EDGE_CURVE('',#461,#462,#34,.T.);
#374=EDGE_CURVE('',#462,#450,#35,.T.);
#375=EDGE_CURVE('',#453,#463,#36,.T.);
#376=EDGE_CURVE('',#458,#464,#37,.T.);
#377=EDGE_CURVE('',#464,#465,#38,.F.);
#378=EDGE_CURVE('',#465,#466,#39,.T.);
#379=EDGE_CURVE('',#466,#467,#40,.T.);
#380=EDGE_CURVE('',#467,#463,#41,.T.);
#381=EDGE_CURVE('',#468,#469,#42,.T.);
#382=EDGE_CURVE('',#470,#468,#43,.T.);
#383=EDGE_CURVE('',#471,#470,#44,.T.);
#384=EDGE_CURVE('',#469,#471,#45,.T.);
#385=EDGE_CURVE('',#472,#473,#46,.T.);
#386=EDGE_CURVE('',#474,#472,#515,.T.);
#387=EDGE_CURVE('',#474,#475,#47,.T.);
#388=EDGE_CURVE('',#475,#473,#516,.T.);
#389=EDGE_CURVE('',#476,#477,#517,.T.);
#390=EDGE_CURVE('',#478,#477,#48,.T.);
#391=EDGE_CURVE('',#461,#478,#49,.T.);
#392=EDGE_CURVE('',#461,#479,#50,.T.);
#393=EDGE_CURVE('',#480,#479,#51,.T.);
#394=EDGE_CURVE('',#480,#481,#52,.T.);
#395=EDGE_CURVE('',#474,#481,#53,.T.);
#396=EDGE_CURVE('',#472,#482,#54,.T.);
#397=EDGE_CURVE('',#482,#467,#518,.F.);
#398=EDGE_CURVE('',#466,#476,#55,.T.);
#399=EDGE_CURVE('',#483,#483,#519,.T.);
#400=EDGE_CURVE('',#484,#484,#520,.T.);
#401=EDGE_CURVE('',#485,#476,#20,.T.);
#402=EDGE_CURVE('',#485,#486,#56,.T.);
#403=EDGE_CURVE('',#486,#487,#521,.T.);
#404=EDGE_CURVE('',#477,#487,#57,.T.);
#405=EDGE_CURVE('',#485,#488,#58,.T.);
#406=EDGE_CURVE('',#488,#489,#59,.T.);
#407=EDGE_CURVE('',#489,#486,#60,.T.);
#408=EDGE_CURVE('',#465,#488,#21,.F.);
#409=EDGE_CURVE('',#464,#489,#522,.T.);
#410=EDGE_CURVE('',#490,#490,#523,.T.);
#411=EDGE_CURVE('',#460,#461,#61,.T.);
#412=EDGE_CURVE('',#459,#462,#62,.T.);
#413=EDGE_CURVE('',#491,#491,#524,.F.);
#414=EDGE_CURVE('',#492,#492,#525,.T.);
#415=EDGE_CURVE('',#493,#471,#63,.T.);
#416=EDGE_CURVE('',#494,#493,#64,.T.);
#417=EDGE_CURVE('',#494,#469,#65,.T.);
#418=EDGE_CURVE('',#495,#470,#66,.T.);
#419=EDGE_CURVE('',#493,#495,#67,.T.);
#420=EDGE_CURVE('',#496,#468,#68,.T.);
#421=EDGE_CURVE('',#495,#496,#69,.T.);
#422=EDGE_CURVE('',#496,#494,#70,.T.);
#423=EDGE_CURVE('',#478,#497,#71,.T.);
#424=EDGE_CURVE('',#497,#457,#72,.T.);
#425=EDGE_CURVE('',#498,#498,#526,.T.);
#426=EDGE_CURVE('',#487,#497,#73,.T.);
#427=EDGE_CURVE('',#449,#499,#74,.T.);
#428=EDGE_CURVE('',#499,#479,#75,.T.);
#429=EDGE_CURVE('',#500,#500,#527,.T.);
#430=EDGE_CURVE('',#481,#501,#76,.T.);
#431=EDGE_CURVE('',#501,#475,#77,.T.);
#432=EDGE_CURVE('',#502,#502,#528,.T.);
#433=EDGE_CURVE('',#473,#503,#78,.T.);
#434=EDGE_CURVE('',#503,#482,#79,.F.);
#435=EDGE_CURVE('',#503,#463,#529,.T.);
#436=EDGE_CURVE('',#499,#504,#80,.T.);
#437=EDGE_CURVE('',#504,#480,#81,.T.);
#438=EDGE_CURVE('',#504,#501,#82,.T.);
#439=EDGE_CURVE('',#505,#505,#530,.T.);
#440=EDGE_CURVE('',#506,#506,#531,.T.);
#441=EDGE_CURVE('',#507,#507,#532,.T.);
#442=EDGE_CURVE('',#508,#508,#533,.T.);
#443=EDGE_CURVE('',#509,#509,#534,.T.);
#444=EDGE_CURVE('',#510,#510,#535,.T.);
#445=VERTEX_POINT('',#1013);
#446=VERTEX_POINT('',#1015);
#447=VERTEX_POINT('',#1035);
#448=VERTEX_POINT('',#1038);
#449=VERTEX_POINT('',#1039);
#450=VERTEX_POINT('',#1041);
#451=VERTEX_POINT('',#1043);
#452=VERTEX_POINT('',#1045);
#453=VERTEX_POINT('',#1047);
#454=VERTEX_POINT('',#1051);
#455=VERTEX_POINT('',#1053);
#456=VERTEX_POINT('',#1073);
#457=VERTEX_POINT('',#1076);
#458=VERTEX_POINT('',#1077);
#459=VERTEX_POINT('',#1080);
#460=VERTEX_POINT('',#1082);
#461=VERTEX_POINT('',#1086);
#462=VERTEX_POINT('',#1088);
#463=VERTEX_POINT('',#1092);
#464=VERTEX_POINT('',#1094);
#465=VERTEX_POINT('',#1096);
#466=VERTEX_POINT('',#1098);
#467=VERTEX_POINT('',#1100);
#468=VERTEX_POINT('',#1103);
#469=VERTEX_POINT('',#1104);
#470=VERTEX_POINT('',#1106);
#471=VERTEX_POINT('',#1108);
#472=VERTEX_POINT('',#1112);
#473=VERTEX_POINT('',#1113);
#474=VERTEX_POINT('',#1115);
#475=VERTEX_POINT('',#1117);
#476=VERTEX_POINT('',#1121);
#477=VERTEX_POINT('',#1122);
#478=VERTEX_POINT('',#1124);
#479=VERTEX_POINT('',#1127);
#480=VERTEX_POINT('',#1129);
#481=VERTEX_POINT('',#1131);
#482=VERTEX_POINT('',#1134);
#483=VERTEX_POINT('',#1138);
#484=VERTEX_POINT('',#1140);
#485=VERTEX_POINT('',#1143);
#486=VERTEX_POINT('',#1145);
#487=VERTEX_POINT('',#1147);
#488=VERTEX_POINT('',#1151);
#489=VERTEX_POINT('',#1153);
#490=VERTEX_POINT('',#1160);
#491=VERTEX_POINT('',#1166);
#492=VERTEX_POINT('',#1168);
#493=VERTEX_POINT('',#1171);
#494=VERTEX_POINT('',#1173);
#495=VERTEX_POINT('',#1177);
#496=VERTEX_POINT('',#1181);
#497=VERTEX_POINT('',#1189);
#498=VERTEX_POINT('',#1193);
#499=VERTEX_POINT('',#1198);
#500=VERTEX_POINT('',#1202);
#501=VERTEX_POINT('',#1204);
#502=VERTEX_POINT('',#1208);
#503=VERTEX_POINT('',#1211);
#504=VERTEX_POINT('',#1217);
#505=VERTEX_POINT('',#1223);
#506=VERTEX_POINT('',#1226);
#507=VERTEX_POINT('',#1230);
#508=VERTEX_POINT('',#1237);
#509=VERTEX_POINT('',#1239);
#510=VERTEX_POINT('',#1243);
#511=CIRCLE('',#741,3.15);
#512=CIRCLE('',#742,3.15);
#513=CIRCLE('',#745,1.);
#514=CIRCLE('',#746,1.);
#515=CIRCLE('',#751,9.);
#516=CIRCLE('',#752,9.);
#517=CIRCLE('',#754,9.00000000000001);
#518=CIRCLE('',#755,3.);
#519=CIRCLE('',#756,6.);
#520=CIRCLE('',#757,6.);
#521=CIRCLE('',#760,9.00000000000001);
#522=CIRCLE('',#764,3.);
#523=CIRCLE('',#766,6.);
#524=CIRCLE('',#769,3.);
#525=CIRCLE('',#770,3.);
#526=CIRCLE('',#779,1.4);
#527=CIRCLE('',#783,1.40000000000001);
#528=CIRCLE('',#785,6.);
#529=CIRCLE('',#788,3.);
#530=CIRCLE('',#792,3.15);
#531=CIRCLE('',#794,3.15);
#532=CIRCLE('',#797,1.4);
#533=CIRCLE('',#803,1.00000000000001);
#534=CIRCLE('',#804,1.00000000000001);
#535=CIRCLE('',#807,1.40000000000001);
#536=EDGE_LOOP('',(#175));
#537=EDGE_LOOP('',(#176));
#538=EDGE_LOOP('',(#177));
#539=EDGE_LOOP('',(#178,#179,#180,#181,#182,#183));
#540=EDGE_LOOP('',(#184));
#541=EDGE_LOOP('',(#185));
#542=EDGE_LOOP('',(#186));
#543=EDGE_LOOP('',(#187,#188,#189,#190,#191,#192));
#544=EDGE_LOOP('',(#193,#194,#195,#196));
#545=EDGE_LOOP('',(#197,#198,#199,#200,#201,#202,#203,#204));
#546=EDGE_LOOP('',(#205,#206,#207,#208));
#547=EDGE_LOOP('',(#209,#210,#211,#212));
#548=EDGE_LOOP('',(#213,#214,#215,#216,#217,#218,#219,#220,#221,#222,#223,
#224));
#549=EDGE_LOOP('',(#225));
#550=EDGE_LOOP('',(#226));
#551=EDGE_LOOP('',(#227,#228,#229,#230,#231));
#552=EDGE_LOOP('',(#232,#233,#234,#235));
#553=EDGE_LOOP('',(#236,#237,#238,#239));
#554=EDGE_LOOP('',(#240));
#555=EDGE_LOOP('',(#241));
#556=EDGE_LOOP('',(#242,#243,#244,#245));
#557=EDGE_LOOP('',(#246));
#558=EDGE_LOOP('',(#247));
#559=EDGE_LOOP('',(#248,#249,#250,#251));
#560=EDGE_LOOP('',(#252,#253,#254,#255));
#561=EDGE_LOOP('',(#256,#257,#258,#259));
#562=EDGE_LOOP('',(#260,#261,#262,#263));
#563=EDGE_LOOP('',(#264));
#564=EDGE_LOOP('',(#265,#266,#267,#268));
#565=EDGE_LOOP('',(#269));
#566=EDGE_LOOP('',(#270,#271,#272,#273));
#567=EDGE_LOOP('',(#274,#275,#276,#277,#278));
#568=EDGE_LOOP('',(#279));
#569=EDGE_LOOP('',(#280,#281,#282,#283));
#570=EDGE_LOOP('',(#284,#285,#286,#287,#288));
#571=EDGE_LOOP('',(#289,#290,#291,#292,#293));
#572=EDGE_LOOP('',(#294));
#573=EDGE_LOOP('',(#295,#296,#297,#298));
#574=EDGE_LOOP('',(#299));
#575=EDGE_LOOP('',(#300));
#576=EDGE_LOOP('',(#301,#302,#303,#304));
#577=EDGE_LOOP('',(#305,#306,#307,#308));
#578=EDGE_LOOP('',(#309,#310,#311,#312));
#579=EDGE_LOOP('',(#313,#314,#315,#316));
#580=EDGE_LOOP('',(#317));
#581=EDGE_LOOP('',(#318));
#582=EDGE_LOOP('',(#319));
#583=EDGE_LOOP('',(#320,#321,#322,#323,#324,#325,#326));
#584=EDGE_LOOP('',(#327));
#585=EDGE_LOOP('',(#328));
#586=EDGE_LOOP('',(#329));
#587=EDGE_LOOP('',(#330));
#588=EDGE_LOOP('',(#331));
#589=EDGE_LOOP('',(#332));
#590=EDGE_LOOP('',(#333));
#591=EDGE_LOOP('',(#334));
#592=EDGE_LOOP('',(#335));
#593=EDGE_LOOP('',(#336,#337,#338,#339,#340,#341,#342,#343,#344));
#594=EDGE_LOOP('',(#345));
#595=EDGE_LOOP('',(#346));
#596=EDGE_LOOP('',(#347));
#597=EDGE_LOOP('',(#348));
#598=EDGE_LOOP('',(#349));
#599=EDGE_LOOP('',(#350));
#600=EDGE_LOOP('',(#351));
#601=EDGE_LOOP('',(#352));
#602=EDGE_LOOP('',(#353));
#603=EDGE_LOOP('',(#354));
#604=FACE_BOUND('',#536,.T.);
#605=FACE_BOUND('',#537,.T.);
#606=FACE_BOUND('',#538,.T.);
#607=FACE_BOUND('',#539,.T.);
#608=FACE_BOUND('',#540,.T.);
#609=FACE_BOUND('',#541,.T.);
#610=FACE_BOUND('',#542,.T.);
#611=FACE_BOUND('',#543,.T.);
#612=FACE_BOUND('',#544,.T.);
#613=FACE_BOUND('',#545,.T.);
#614=FACE_BOUND('',#546,.T.);
#615=FACE_BOUND('',#547,.T.);
#616=FACE_BOUND('',#548,.T.);
#617=FACE_BOUND('',#549,.T.);
#618=FACE_BOUND('',#550,.T.);
#619=FACE_BOUND('',#551,.T.);
#620=FACE_BOUND('',#552,.T.);
#621=FACE_BOUND('',#553,.T.);
#622=FACE_BOUND('',#554,.T.);
#623=FACE_BOUND('',#555,.T.);
#624=FACE_BOUND('',#556,.T.);
#625=FACE_BOUND('',#557,.T.);
#626=FACE_BOUND('',#558,.T.);
#627=FACE_BOUND('',#559,.T.);
#628=FACE_BOUND('',#560,.T.);
#629=FACE_BOUND('',#561,.T.);
#630=FACE_BOUND('',#562,.T.);
#631=FACE_BOUND('',#563,.T.);
#632=FACE_BOUND('',#564,.T.);
#633=FACE_BOUND('',#565,.T.);
#634=FACE_BOUND('',#566,.T.);
#635=FACE_BOUND('',#567,.T.);
#636=FACE_BOUND('',#568,.T.);
#637=FACE_BOUND('',#569,.T.);
#638=FACE_BOUND('',#570,.T.);
#639=FACE_BOUND('',#571,.T.);
#640=FACE_BOUND('',#572,.T.);
#641=FACE_BOUND('',#573,.T.);
#642=FACE_BOUND('',#574,.T.);
#643=FACE_BOUND('',#575,.T.);
#644=FACE_BOUND('',#576,.T.);
#645=FACE_BOUND('',#577,.T.);
#646=FACE_BOUND('',#578,.T.);
#647=FACE_BOUND('',#579,.T.);
#648=FACE_BOUND('',#580,.T.);
#649=FACE_BOUND('',#581,.T.);
#650=FACE_BOUND('',#582,.T.);
#651=FACE_BOUND('',#583,.T.);
#652=FACE_BOUND('',#584,.T.);
#653=FACE_BOUND('',#585,.T.);
#654=FACE_BOUND('',#586,.T.);
#655=FACE_BOUND('',#587,.T.);
#656=FACE_BOUND('',#588,.T.);
#657=FACE_BOUND('',#589,.T.);
#658=FACE_BOUND('',#590,.T.);
#659=FACE_BOUND('',#591,.T.);
#660=FACE_BOUND('',#592,.T.);
#661=FACE_BOUND('',#593,.T.);
#662=FACE_BOUND('',#594,.T.);
#663=FACE_BOUND('',#595,.T.);
#664=FACE_BOUND('',#596,.T.);
#665=FACE_BOUND('',#597,.T.);
#666=FACE_BOUND('',#598,.T.);
#667=FACE_BOUND('',#599,.T.);
#668=FACE_BOUND('',#600,.T.);
#669=FACE_BOUND('',#601,.T.);
#670=FACE_BOUND('',#602,.T.);
#671=FACE_BOUND('',#603,.T.);
#672=CYLINDRICAL_SURFACE('',#740,3.15);
#673=CYLINDRICAL_SURFACE('',#744,1.);
#674=CYLINDRICAL_SURFACE('',#750,9.);
#675=CYLINDRICAL_SURFACE('',#758,9.00000000000001);
#676=CYLINDRICAL_SURFACE('',#762,3.);
#677=CYLINDRICAL_SURFACE('',#765,6.);
#678=CYLINDRICAL_SURFACE('',#768,3.);
#679=CYLINDRICAL_SURFACE('',#784,6.);
#680=CYLINDRICAL_SURFACE('',#787,3.);
#681=CYLINDRICAL_SURFACE('',#796,1.4);
#682=CYLINDRICAL_SURFACE('',#799,3.15);
#683=CYLINDRICAL_SURFACE('',#802,1.00000000000001);
#684=CYLINDRICAL_SURFACE('',#806,1.40000000000001);
#685=ADVANCED_FACE('',(#604,#605,#606),#672,.F.);
#686=ADVANCED_FACE('',(#607),#144,.F.);
#687=ADVANCED_FACE('',(#608,#609,#610),#673,.F.);
#688=ADVANCED_FACE('',(#611),#145,.F.);
#689=ADVANCED_FACE('',(#612),#146,.F.);
#690=ADVANCED_FACE('',(#613,#614),#147,.F.);
#691=ADVANCED_FACE('',(#615),#674,.T.);
#692=ADVANCED_FACE('',(#616,#617,#618),#148,.T.);
#693=ADVANCED_FACE('',(#619),#675,.T.);
#694=ADVANCED_FACE('',(#620),#149,.T.);
#695=ADVANCED_FACE('',(#621),#676,.F.);
#696=ADVANCED_FACE('',(#622,#623),#677,.F.);
#697=ADVANCED_FACE('',(#624),#150,.F.);
#698=ADVANCED_FACE('',(#625,#626),#678,.F.);
#699=ADVANCED_FACE('',(#627),#151,.F.);
#700=ADVANCED_FACE('',(#628),#152,.F.);
#701=ADVANCED_FACE('',(#629),#153,.F.);
#702=ADVANCED_FACE('',(#630),#154,.F.);
#703=ADVANCED_FACE('',(#631,#632),#155,.F.);
#704=ADVANCED_FACE('',(#633,#634),#156,.T.);
#705=ADVANCED_FACE('',(#635),#157,.F.);
#706=ADVANCED_FACE('',(#636,#637),#158,.T.);
#707=ADVANCED_FACE('',(#638),#159,.T.);
#708=ADVANCED_FACE('',(#639),#160,.F.);
#709=ADVANCED_FACE('',(#640,#641),#161,.T.);
#710=ADVANCED_FACE('',(#642,#643),#679,.F.);
#711=ADVANCED_FACE('',(#644),#162,.F.);
#712=ADVANCED_FACE('',(#645),#680,.F.);
#713=ADVANCED_FACE('',(#646),#163,.T.);
#714=ADVANCED_FACE('',(#647),#164,.F.);
#715=ADVANCED_FACE('',(#648,#649),#165,.T.);
#716=ADVANCED_FACE('',(#650,#651),#166,.F.);
#717=ADVANCED_FACE('',(#652),#167,.F.);
#718=ADVANCED_FACE('',(#653,#654),#681,.F.);
#719=ADVANCED_FACE('',(#655,#656),#168,.F.);
#720=ADVANCED_FACE('',(#657,#658,#659),#682,.F.);
#721=ADVANCED_FACE('',(#660,#661),#169,.F.);
#722=ADVANCED_FACE('',(#662,#663),#170,.T.);
#723=ADVANCED_FACE('',(#664,#665,#666),#683,.F.);
#724=ADVANCED_FACE('',(#667),#171,.F.);
#725=ADVANCED_FACE('',(#668,#669),#684,.F.);
#726=ADVANCED_FACE('',(#670,#671),#172,.F.);
#727=CLOSED_SHELL('',(#685,#686,#687,#688,#689,#690,#691,#692,#693,#694,
#695,#696,#697,#698,#699,#700,#701,#702,#703,#704,#705,#706,#707,#708,#709,
#710,#711,#712,#713,#714,#715,#716,#717,#718,#719,#720,#721,#722,#723,#724,
#725,#726));
#728=STYLED_ITEM('',(#729),#736);
#729=PRESENTATION_STYLE_ASSIGNMENT((#730));
#730=SURFACE_STYLE_USAGE(.BOTH.,#731);
#731=SURFACE_SIDE_STYLE('',(#732));
#732=SURFACE_STYLE_FILL_AREA(#733);
#733=FILL_AREA_STYLE('',(#734));
#734=FILL_AREA_STYLE_COLOUR('',#735);
#735=COLOUR_RGB('',0.506983280181885,0.531564235687256,0.550000011920929);
#736=MANIFOLD_SOLID_BREP('',#727);
#737=SHAPE_DEFINITION_REPRESENTATION(#1251,#738);
#738=SHAPE_REPRESENTATION('24_FDML_stimfix_dichroic_holder',(#739),#1246);
#739=AXIS2_PLACEMENT_3D('',#1010,#809,#810);
#740=AXIS2_PLACEMENT_3D('',#1011,#811,#812);
#741=AXIS2_PLACEMENT_3D('',#1012,#813,#814);
#742=AXIS2_PLACEMENT_3D('',#1014,#815,#816);
#743=AXIS2_PLACEMENT_3D('',#1036,#817,#818);
#744=AXIS2_PLACEMENT_3D('',#1049,#825,#826);
#745=AXIS2_PLACEMENT_3D('',#1050,#827,#828);
#746=AXIS2_PLACEMENT_3D('',#1052,#829,#830);
#747=AXIS2_PLACEMENT_3D('',#1074,#831,#832);
#748=AXIS2_PLACEMENT_3D('',#1084,#838,#839);
#749=AXIS2_PLACEMENT_3D('',#1090,#843,#844);
#750=AXIS2_PLACEMENT_3D('',#1110,#855,#856);
#751=AXIS2_PLACEMENT_3D('',#1114,#858,#859);
#752=AXIS2_PLACEMENT_3D('',#1118,#861,#862);
#753=AXIS2_PLACEMENT_3D('',#1119,#863,#864);
#754=AXIS2_PLACEMENT_3D('',#1120,#865,#866);
#755=AXIS2_PLACEMENT_3D('',#1135,#874,#875);
#756=AXIS2_PLACEMENT_3D('',#1137,#877,#878);
#757=AXIS2_PLACEMENT_3D('',#1139,#879,#880);
#758=AXIS2_PLACEMENT_3D('',#1141,#881,#882);
#759=AXIS2_PLACEMENT_3D('',#1142,#883,#884);
#760=AXIS2_PLACEMENT_3D('',#1146,#886,#887);
#761=AXIS2_PLACEMENT_3D('',#1149,#889,#890);
#762=AXIS2_PLACEMENT_3D('',#1155,#894,#895);
#763=AXIS2_PLACEMENT_3D('',#1156,#896,#897);
#764=AXIS2_PLACEMENT_3D('',#1157,#898,#899);
#765=AXIS2_PLACEMENT_3D('',#1158,#900,#901);
#766=AXIS2_PLACEMENT_3D('',#1159,#902,#903);
#767=AXIS2_PLACEMENT_3D('',#1161,#904,#905);
#768=AXIS2_PLACEMENT_3D('',#1164,#908,#909);
#769=AXIS2_PLACEMENT_3D('',#1165,#910,#911);
#770=AXIS2_PLACEMENT_3D('',#1167,#912,#913);
#771=AXIS2_PLACEMENT_3D('',#1169,#914,#915);
#772=AXIS2_PLACEMENT_3D('',#1175,#919,#920);
#773=AXIS2_PLACEMENT_3D('',#1179,#923,#924);
#774=AXIS2_PLACEMENT_3D('',#1183,#927,#928);
#775=AXIS2_PLACEMENT_3D('',#1185,#930,#931);
#776=AXIS2_PLACEMENT_3D('',#1186,#932,#933);
#777=AXIS2_PLACEMENT_3D('',#1187,#934,#935);
#778=AXIS2_PLACEMENT_3D('',#1191,#938,#939);
#779=AXIS2_PLACEMENT_3D('',#1192,#940,#941);
#780=AXIS2_PLACEMENT_3D('',#1195,#943,#944);
#781=AXIS2_PLACEMENT_3D('',#1196,#945,#946);
#782=AXIS2_PLACEMENT_3D('',#1200,#949,#950);
#783=AXIS2_PLACEMENT_3D('',#1201,#951,#952);
#784=AXIS2_PLACEMENT_3D('',#1206,#955,#956);
#785=AXIS2_PLACEMENT_3D('',#1207,#957,#958);
#786=AXIS2_PLACEMENT_3D('',#1209,#959,#960);
#787=AXIS2_PLACEMENT_3D('',#1213,#963,#964);
#788=AXIS2_PLACEMENT_3D('',#1214,#965,#966);
#789=AXIS2_PLACEMENT_3D('',#1215,#967,#968);
#790=AXIS2_PLACEMENT_3D('',#1219,#971,#972);
#791=AXIS2_PLACEMENT_3D('',#1221,#974,#975);
#792=AXIS2_PLACEMENT_3D('',#1222,#976,#977);
#793=AXIS2_PLACEMENT_3D('',#1224,#978,#979);
#794=AXIS2_PLACEMENT_3D('',#1225,#980,#981);
#795=AXIS2_PLACEMENT_3D('',#1227,#982,#983);
#796=AXIS2_PLACEMENT_3D('',#1228,#984,#985);
#797=AXIS2_PLACEMENT_3D('',#1229,#986,#987);
#798=AXIS2_PLACEMENT_3D('',#1231,#988,#989);
#799=AXIS2_PLACEMENT_3D('',#1232,#990,#991);
#800=AXIS2_PLACEMENT_3D('',#1233,#992,#993);
#801=AXIS2_PLACEMENT_3D('',#1234,#994,#995);
#802=AXIS2_PLACEMENT_3D('',#1235,#996,#997);
#803=AXIS2_PLACEMENT_3D('',#1236,#998,#999);
#804=AXIS2_PLACEMENT_3D('',#1238,#1000,#1001);
#805=AXIS2_PLACEMENT_3D('',#1240,#1002,#1003);
#806=AXIS2_PLACEMENT_3D('',#1241,#1004,#1005);
#807=AXIS2_PLACEMENT_3D('',#1242,#1006,#1007);
#808=AXIS2_PLACEMENT_3D('',#1244,#1008,#1009);
#809=DIRECTION('',(0.,0.,1.));
#810=DIRECTION('',(1.,0.,0.));
#811=DIRECTION('',(0.707106781186547,0.707106781186548,-1.23259516440783E-32));
#812=DIRECTION('',(-0.707106781186548,0.707106781186547,0.));
#813=DIRECTION('',(0.707106781186547,0.707106781186548,-2.46519032881566E-32));
#814=DIRECTION('',(0.707106781186548,-0.707106781186548,-1.16767917461654E-16));
#815=DIRECTION('',(0.707106781186547,0.707106781186548,-2.46519032881566E-32));
#816=DIRECTION('',(-0.707106781186548,0.707106781186548,1.16767917461654E-16));
#817=DIRECTION('',(1.,0.,0.));
#818=DIRECTION('',(0.,0.,-1.));
#819=DIRECTION('',(0.,-1.,-8.25673862621665E-17));
#820=DIRECTION('',(0.,0.,-1.));
#821=DIRECTION('',(0.,-1.,0.));
#822=DIRECTION('',(0.,0.,-1.));
#823=DIRECTION('',(0.,-1.,0.));
#824=DIRECTION('',(0.,-1.28498035257541E-16,1.));
#825=DIRECTION('',(0.707106781186547,-0.707106781186547,-2.12251960030905E-17));
#826=DIRECTION('',(0.707106781186548,0.707106781186548,0.));
#827=DIRECTION('',(-0.707106781186548,0.707106781186547,2.12251960030905E-17));
#828=DIRECTION('',(0.707106781186547,0.707106781186548,0.));
#829=DIRECTION('',(-0.707106781186548,0.707106781186547,2.12251960030905E-17));
#830=DIRECTION('',(-0.707106781186547,-0.707106781186548,0.));
#831=DIRECTION('',(0.,1.,0.));
#832=DIRECTION('',(0.,0.,1.));
#833=DIRECTION('',(0.,0.,1.));
#834=DIRECTION('',(1.,0.,0.));
#835=DIRECTION('',(1.,0.,0.));
#836=DIRECTION('',(0.,0.,-1.));
#837=DIRECTION('',(-1.,-2.77555756156289E-16,0.));
#838=DIRECTION('',(0.,-1.,0.));
#839=DIRECTION('',(0.,0.,-1.));
#840=DIRECTION('',(1.,0.,0.));
#841=DIRECTION('',(0.,0.,-1.));
#842=DIRECTION('',(-1.,0.,0.));
#843=DIRECTION('',(0.,0.,-1.));
#844=DIRECTION('',(-1.,0.,0.));
#845=DIRECTION('',(-0.707106781186548,0.707106781186547,1.16767917461654E-16));
#846=DIRECTION('',(0.707106781186548,-0.707106781186547,1.81899037703187E-16));
#847=DIRECTION('',(-0.707106781186547,-0.707106781186548,0.));
#848=DIRECTION('',(1.,0.,0.));
#849=DIRECTION('',(-0.707106781186548,0.707106781186547,0.));
#850=DIRECTION('',(-0.707106781186547,-0.707106781186548,0.));
#851=DIRECTION('',(0.,-1.,0.));
#852=DIRECTION('',(-1.,0.,0.));
#853=DIRECTION('',(0.,1.,0.));
#854=DIRECTION('',(1.,0.,0.));
#855=DIRECTION('',(-0.707106781186547,-0.707106781186548,1.23259516440783E-32));
#856=DIRECTION('',(0.707106781186548,-0.707106781186547,0.));
#857=DIRECTION('',(-0.707106781186547,-0.707106781186548,1.23259516440783E-32));
#858=DIRECTION('',(0.707106781186547,0.707106781186548,-2.46519032881566E-32));
#859=DIRECTION('',(0.707106781186548,-0.707106781186547,-1.16767917461654E-16));
#860=DIRECTION('',(-0.707106781186547,-0.707106781186548,1.23259516440783E-32));
#861=DIRECTION('',(0.707106781186547,0.707106781186548,-2.46519032881566E-32));
#862=DIRECTION('',(-0.707106781186548,0.707106781186547,1.16767917461654E-16));
#863=DIRECTION('',(0.707106781186547,0.707106781186548,0.));
#864=DIRECTION('',(-0.707106781186548,0.707106781186547,0.));
#865=DIRECTION('',(0.707106781186547,0.707106781186548,-1.23259516440783E-32));
#866=DIRECTION('',(-0.707106781186548,0.707106781186547,1.40778847000803E-16));
#867=DIRECTION('',(1.50084800257989E-17,-1.50084800257989E-17,1.));
#868=DIRECTION('',(0.707106781186548,-0.707106781186547,0.));
#869=DIRECTION('',(-0.707106781186547,0.707106781186548,0.));
#870=DIRECTION('',(0.,0.,1.));
#871=DIRECTION('',(-0.707106781186548,0.707106781186548,0.));
#872=DIRECTION('',(5.93730192426571E-16,-5.93730192426571E-16,-1.));
#873=DIRECTION('',(-8.25673862621665E-17,8.25673862621665E-17,-1.));
#874=DIRECTION('',(0.707106781186547,0.707106781186548,0.));
#875=DIRECTION('',(-0.707106781186548,0.707106781186547,0.));
#876=DIRECTION('',(0.,0.,1.));
#877=DIRECTION('',(0.707106781186547,0.707106781186548,-1.23259516440783E-32));
#878=DIRECTION('',(0.707106781186548,-0.707106781186547,-1.40778847000803E-16));
#879=DIRECTION('',(0.707106781186547,0.707106781186548,-2.46519032881566E-32));
#880=DIRECTION('',(0.707106781186548,-0.707106781186547,-1.16767917461654E-16));
#881=DIRECTION('',(-0.707106781186547,-0.707106781186548,1.23259516440783E-32));
#882=DIRECTION('',(0.707106781186548,-0.707106781186547,0.));
#883=DIRECTION('',(0.,1.,0.));
#884=DIRECTION('',(-1.,0.,1.74315279842105E-32));
#885=DIRECTION('',(-0.707106781186547,-0.707106781186548,1.23259516440783E-32));
#886=DIRECTION('',(0.707106781186547,0.707106781186548,-2.46519032881566E-32));
#887=DIRECTION('',(-0.707106781186548,0.707106781186547,1.16767917461654E-16));
#888=DIRECTION('',(-0.707106781186547,-0.707106781186548,1.23259516440783E-32));
#889=DIRECTION('',(-0.707106781186548,0.707106781186547,4.99449761778742E-18));
#890=DIRECTION('',(-0.707106781186547,-0.707106781186548,0.));
#891=DIRECTION('',(-7.06328626831508E-18,0.,-1.));
#892=DIRECTION('',(-0.707106781186547,-0.707106781186548,0.));
#893=DIRECTION('',(2.1141557253808E-16,-2.1141557253808E-16,1.));
#894=DIRECTION('',(-0.707106781186547,-0.707106781186548,0.));
#895=DIRECTION('',(0.707106781186548,-0.707106781186547,0.));
#896=DIRECTION('',(0.,1.,0.));
#897=DIRECTION('',(-1.,0.,0.));
#898=DIRECTION('',(-0.707106781186547,-0.707106781186548,2.46519032881566E-32));
#899=DIRECTION('',(-0.707106781186547,0.707106781186547,1.16767917461654E-16));
#900=DIRECTION('',(-0.707106781186547,-0.707106781186548,1.23259516440783E-32));
#901=DIRECTION('',(0.707106781186548,-0.707106781186547,0.));
#902=DIRECTION('',(0.707106781186547,0.707106781186548,-1.23259516440783E-32));
#903=DIRECTION('',(-0.707106781186548,0.707106781186547,1.40778847000803E-16));
#904=DIRECTION('',(-1.,0.,0.));
#905=DIRECTION('',(0.,0.,1.));
#906=DIRECTION('',(0.,1.,0.));
#907=DIRECTION('',(0.,1.,0.));
#908=DIRECTION('',(0.,0.,1.));
#909=DIRECTION('',(1.,0.,0.));
#910=DIRECTION('',(0.,0.,1.));
#911=DIRECTION('',(1.,0.,0.));
#912=DIRECTION('',(0.,0.,-1.));
#913=DIRECTION('',(1.,0.,0.));
#914=DIRECTION('',(0.,-1.,0.));
#915=DIRECTION('',(0.,0.,-1.));
#916=DIRECTION('',(0.,0.,1.));
#917=DIRECTION('',(1.,0.,0.));
#918=DIRECTION('',(0.,0.,1.));
#919=DIRECTION('',(1.,0.,0.));
#920=DIRECTION('',(0.,0.,-1.));
#921=DIRECTION('',(0.,0.,1.));
#922=DIRECTION('',(0.,1.,0.));
#923=DIRECTION('',(0.,1.,0.));
#924=DIRECTION('',(0.,0.,1.));
#925=DIRECTION('',(0.,0.,1.));
#926=DIRECTION('',(-1.,0.,0.));
#927=DIRECTION('',(-1.,0.,0.));
#928=DIRECTION('',(0.,0.,1.));
#929=DIRECTION('',(0.,-1.,0.));
#930=DIRECTION('',(0.,0.,1.));
#931=DIRECTION('',(1.,0.,0.));
#932=DIRECTION('',(0.,0.,1.));
#933=DIRECTION('',(1.,0.,0.));
#934=DIRECTION('',(0.,0.,1.));
#935=DIRECTION('',(1.,0.,0.));
#936=DIRECTION('',(-0.707106781186547,-0.707106781186548,1.23259516440783E-32));
#937=DIRECTION('',(-0.707106781186548,0.707106781186547,1.16767917461654E-16));
#938=DIRECTION('',(0.707106781186548,-0.707106781186547,-2.12251960030905E-17));
#939=DIRECTION('',(0.707106781186547,0.707106781186548,0.));
#940=DIRECTION('',(-0.707106781186548,0.707106781186547,2.12251960030905E-17));
#941=DIRECTION('',(0.707106781186547,0.707106781186548,0.));
#942=DIRECTION('',(5.93730192426572E-16,-5.93730192426572E-16,-1.));
#943=DIRECTION('',(0.,1.,0.));
#944=DIRECTION('',(0.,0.,1.));
#945=DIRECTION('',(0.,0.,1.));
#946=DIRECTION('',(1.,0.,0.));
#947=DIRECTION('',(-0.707106781186548,0.707106781186547,-1.22797896314053E-15));
#948=DIRECTION('',(0.707106781186548,0.707106781186547,0.));
#949=DIRECTION('',(-0.707106781186548,0.707106781186547,-8.39661290520045E-16));
#950=DIRECTION('',(-0.707106781186547,-0.707106781186548,0.));
#951=DIRECTION('',(0.707106781186548,-0.707106781186547,8.39661290520045E-16));
#952=DIRECTION('',(-0.707106781186547,-0.707106781186548,0.));
#953=DIRECTION('',(-0.707106781186548,-0.707106781186547,0.));
#954=DIRECTION('',(-5.02240591495497E-16,5.02240591495497E-16,1.));
#955=DIRECTION('',(-0.707106781186547,-0.707106781186548,1.23259516440783E-32));
#956=DIRECTION('',(0.707106781186548,-0.707106781186547,0.));
#957=DIRECTION('',(0.707106781186547,0.707106781186548,-2.46519032881566E-32));
#958=DIRECTION('',(0.707106781186548,-0.707106781186547,-1.16767917461654E-16));
#959=DIRECTION('',(-0.707106781186548,0.707106781186547,1.16767917461654E-16));
#960=DIRECTION('',(-0.707106781186547,-0.707106781186548,0.));
#961=DIRECTION('',(-1.11335287646948E-15,1.11335287646948E-15,-1.));
#962=DIRECTION('',(-0.707106781186547,-0.707106781186548,-1.23259516440783E-32));
#963=DIRECTION('',(0.707106781186547,0.707106781186548,0.));
#964=DIRECTION('',(-0.707106781186548,0.707106781186547,0.));
#965=DIRECTION('',(-0.707106781186547,-0.707106781186548,2.46519032881566E-32));
#966=DIRECTION('',(0.707106781186548,-0.707106781186547,-1.16767917461654E-16));
#967=DIRECTION('',(0.707106781186547,-0.707106781186548,0.));
#968=DIRECTION('',(0.707106781186548,0.707106781186547,0.));
#969=DIRECTION('',(-8.25673862621665E-17,8.25673862621665E-17,-1.));
#970=DIRECTION('',(0.707106781186548,0.707106781186547,0.));
#971=DIRECTION('',(0.,0.,1.));
#972=DIRECTION('',(1.,0.,0.));
#973=DIRECTION('',(-0.707106781186548,0.707106781186547,1.16767917461654E-16));
#974=DIRECTION('',(0.707106781186547,0.707106781186548,-2.46519032881566E-32));
#975=DIRECTION('',(-0.707106781186548,0.707106781186547,0.));
#976=DIRECTION('',(0.707106781186547,0.707106781186548,-2.77333911991762E-32));
#977=DIRECTION('',(0.707106781186548,-0.707106781186547,-4.72517939818195E-17));
#978=DIRECTION('',(0.707106781186547,0.707106781186548,-2.46519032881566E-32));
#979=DIRECTION('',(-0.707106781186548,0.707106781186547,0.));
#980=DIRECTION('',(0.707106781186547,0.707106781186548,-2.77333911991762E-32));
#981=DIRECTION('',(0.707106781186548,-0.707106781186547,-4.72517939818195E-17));
#982=DIRECTION('',(-0.707106781186548,0.707106781186547,2.12251960030905E-17));
#983=DIRECTION('',(-0.707106781186547,-0.707106781186548,0.));
#984=DIRECTION('',(0.707106781186548,-0.707106781186548,-2.12251960030905E-17));
#985=DIRECTION('',(0.707106781186548,0.707106781186548,0.));
#986=DIRECTION('',(-0.707106781186548,0.707106781186547,2.12251960030905E-17));
#987=DIRECTION('',(0.707106781186547,0.707106781186548,0.));
#988=DIRECTION('',(-0.707106781186548,0.707106781186547,2.12251960030905E-17));
#989=DIRECTION('',(-0.707106781186547,-0.707106781186548,0.));
#990=DIRECTION('',(-0.707106781186547,-0.707106781186548,2.77333911991762E-32));
#991=DIRECTION('',(0.707106781186548,-0.707106781186547,0.));
#992=DIRECTION('',(0.707106781186547,0.707106781186548,-2.46519032881566E-32));
#993=DIRECTION('',(-0.707106781186548,0.707106781186547,0.));
#994=DIRECTION('',(0.707106781186547,0.707106781186548,-2.46519032881566E-32));
#995=DIRECTION('',(-0.707106781186548,0.707106781186547,0.));
#996=DIRECTION('',(-0.707106781186548,0.707106781186547,-8.39661290520045E-16));
#997=DIRECTION('',(-0.707106781186547,-0.707106781186548,0.));
#998=DIRECTION('',(0.707106781186548,-0.707106781186547,8.39661290520045E-16));
#999=DIRECTION('',(0.707106781186547,0.707106781186548,0.));
#1000=DIRECTION('',(0.707106781186548,-0.707106781186547,8.39661290520045E-16));
#1001=DIRECTION('',(-0.707106781186547,-0.707106781186548,0.));
#1002=DIRECTION('',(0.707106781186548,-0.707106781186547,8.39661290520045E-16));
#1003=DIRECTION('',(0.707106781186547,0.707106781186548,0.));
#1004=DIRECTION('',(-0.707106781186548,0.707106781186547,-8.39661290520045E-16));
#1005=DIRECTION('',(-0.707106781186547,-0.707106781186548,0.));
#1006=DIRECTION('',(0.707106781186548,-0.707106781186547,8.39661290520045E-16));
#1007=DIRECTION('',(-0.707106781186547,-0.707106781186548,0.));
#1008=DIRECTION('',(0.707106781186548,-0.707106781186547,8.39661290520045E-16));
#1009=DIRECTION('',(0.707106781186547,0.707106781186548,0.));
#1010=CARTESIAN_POINT('',(0.,0.,0.));
#1011=CARTESIAN_POINT('',(-27.0955767980574,15.3308300731355,19.51));
#1012=CARTESIAN_POINT('',(-22.1458293297516,20.2805775414413,19.51));
#1013=CARTESIAN_POINT('',(-19.9184429690139,18.0531911807037,19.51));
#1014=CARTESIAN_POINT('',(-27.0955767980574,15.3308300731355,19.51));
#1015=CARTESIAN_POINT('',(-29.322963158795,17.5582164338731,19.51));
#1016=CARTESIAN_POINT('',(-25.7014024278796,17.5924044268348,16.4003924280752));
#1017=CARTESIAN_POINT('',(-25.2814747849596,17.142829807058,16.3400260726979));
#1018=CARTESIAN_POINT('',(-24.8384647349912,16.7289512693809,16.3995032811331));
#1019=CARTESIAN_POINT('',(-24.3611500267056,16.3806211482555,16.5723256321111));
#1020=CARTESIAN_POINT('',(-23.8322614634606,16.1810391110746,16.8468241900003));
#1021=CARTESIAN_POINT('',(-23.2205823012954,16.4032900299692,17.061489845954));
#1022=CARTESIAN_POINT('',(-22.9955895266995,17.0168865081767,16.8472129765873));
#1023=CARTESIAN_POINT('',(-23.1951056732794,17.5445280587827,16.5731670897027));
#1024=CARTESIAN_POINT('',(-23.5411257715549,18.0203647583528,16.400122482415));
#1025=CARTESIAN_POINT('',(-23.9589111533761,18.4675719617929,16.3399827516623));
#1026=CARTESIAN_POINT('',(-24.4050447360336,18.8842627926337,16.3999465496466));
#1027=CARTESIAN_POINT('',(-24.8803964354242,19.2308211603944,16.5725024205567));
#1028=CARTESIAN_POINT('',(-25.4103034657194,19.4304704016639,16.8473511046358));
#1029=CARTESIAN_POINT('',(-26.0204830769755,19.2076897211713,17.0611670008598));
#1030=CARTESIAN_POINT('',(-26.2459322626163,18.596218941998,16.847977306957));
#1031=CARTESIAN_POINT('',(-26.0461904667279,18.0664880233803,16.5730724267566));
#1032=CARTESIAN_POINT('',(-25.7014024278796,17.5924044268348,16.4003924280752));
#1033=CARTESIAN_POINT('',(-25.2814747849596,17.142829807058,16.3400260726979));
#1034=CARTESIAN_POINT('',(-24.8384647349912,16.7289512693809,16.3995032811331));
#1035=CARTESIAN_POINT('',(-25.2776277171182,17.1487791540746,16.36));
#1036=CARTESIAN_POINT('',(-17.5,7.5,5.));
#1037=CARTESIAN_POINT('',(-17.5,7.5,5.));
#1038=CARTESIAN_POINT('',(-17.5,7.5,5.));
#1039=CARTESIAN_POINT('',(-17.5,5.73525327507806,5.));
#1040=CARTESIAN_POINT('',(-17.5,7.5,5.));
#1041=CARTESIAN_POINT('',(-17.5,7.5,0.));
#1042=CARTESIAN_POINT('',(-17.5,7.5,0.));
#1043=CARTESIAN_POINT('',(-17.5,-7.5,0.));
#1044=CARTESIAN_POINT('',(-17.5,-7.5,5.));
#1045=CARTESIAN_POINT('',(-17.5,-7.5,11.75));
#1046=CARTESIAN_POINT('',(-17.5,7.5,11.75));
#1047=CARTESIAN_POINT('',(-17.5,5.73525327507806,11.75));
#1048=CARTESIAN_POINT('',(-17.5,5.73525327507806,5.));
#1049=CARTESIAN_POINT('',(15.6136727856101,-22.4286720422262,15.99));
#1050=CARTESIAN_POINT('',(15.6136727856101,-22.4286720422262,15.99));
#1051=CARTESIAN_POINT('',(16.3207795667966,-21.7215652610396,15.99));
#1052=CARTESIAN_POINT('',(19.9977348289667,-26.8127340855828,15.99));
#1053=CARTESIAN_POINT('',(19.2906280477801,-27.5198408667693,15.99));
#1054=CARTESIAN_POINT('',(17.0173640052642,-22.9955171627669,16.8468661434251));
#1055=CARTESIAN_POINT('',(16.4043826270617,-23.2196126281706,17.0614919719974));
#1056=CARTESIAN_POINT('',(16.1807374315637,-23.8316598093221,16.8471659685851));
#1057=CARTESIAN_POINT('',(16.3807233582715,-24.3609608780463,16.5725335321838));
#1058=CARTESIAN_POINT('',(16.7268434078752,-24.8360862437417,16.3999691795097));
#1059=CARTESIAN_POINT('',(17.144851788913,-25.2835809843715,16.3398771846637));
#1060=CARTESIAN_POINT('',(17.5925173264677,-25.7014479809063,16.4005240457241));
#1061=CARTESIAN_POINT('',(18.0681436605688,-26.047325483974,16.5737450874945));
#1062=CARTESIAN_POINT('',(18.5980300321324,-26.2459069691728,16.8489091453176));
#1063=CARTESIAN_POINT('',(19.2090689188946,-26.019452728462,17.0613068810361));
#1064=CARTESIAN_POINT('',(19.4304123248012,-25.407142405526,16.8458396230271));
#1065=CARTESIAN_POINT('',(19.2296051932356,-24.8783624297826,16.5714561590556));
#1066=CARTESIAN_POINT('',(18.8812352574492,-24.4015143191493,16.3991416734943));
#1067=CARTESIAN_POINT('',(18.4673366498199,-23.9587391074101,16.3401223643963));
#1068=CARTESIAN_POINT('',(18.0196602136735,-23.5406719334915,16.4003704859263));
#1069=CARTESIAN_POINT('',(17.5467232091251,-23.196381070371,16.5722533716257));
#1070=CARTESIAN_POINT('',(17.0173640052642,-22.9955171627669,16.8468661434251));
#1071=CARTESIAN_POINT('',(16.4043826270617,-23.2196126281706,17.0614919719974));
#1072=CARTESIAN_POINT('',(16.1807374315637,-23.8316598093221,16.8471659685851));
#1073=CARTESIAN_POINT('',(16.4692719908458,-23.2842712474619,16.99));
#1074=CARTESIAN_POINT('',(-17.5,-7.5,5.));
#1075=CARTESIAN_POINT('',(-4.26474672492194,-7.5,5.));
#1076=CARTESIAN_POINT('',(-4.26474672492194,-7.5,5.));
#1077=CARTESIAN_POINT('',(-4.26474672492194,-7.5,11.75));
#1078=CARTESIAN_POINT('',(-17.5,-7.5,11.75));
#1079=CARTESIAN_POINT('',(-17.5,-7.5,0.));
#1080=CARTESIAN_POINT('',(17.5,-7.5,0.));
#1081=CARTESIAN_POINT('',(17.5,-7.5,5.));
#1082=CARTESIAN_POINT('',(17.5,-7.5,5.));
#1083=CARTESIAN_POINT('',(11.5673741058449,-7.5,5.));
#1084=CARTESIAN_POINT('',(17.5,7.5,5.));
#1085=CARTESIAN_POINT('',(17.5,7.5,5.));
#1086=CARTESIAN_POINT('',(17.5,7.5,5.));
#1087=CARTESIAN_POINT('',(17.5,7.5,5.));
#1088=CARTESIAN_POINT('',(17.5,7.5,0.));
#1089=CARTESIAN_POINT('',(17.5,7.5,0.));
#1090=CARTESIAN_POINT('',(0.,0.,11.75));
#1091=CARTESIAN_POINT('',(-15.882373362461,4.11762663753903,11.75));
#1092=CARTESIAN_POINT('',(-18.6102954238188,6.84554869889688,11.75));
#1093=CARTESIAN_POINT('',(6.84554869889689,-18.6102954238188,11.75));
#1094=CARTESIAN_POINT('',(6.84554869889689,-18.6102954238188,11.75));
#1095=CARTESIAN_POINT('',(12.7279220613579,-12.7279220613578,11.75));
#1096=CARTESIAN_POINT('',(22.4558441227157,-3.,11.75));
#1097=CARTESIAN_POINT('',(15.,-3.,11.75));
#1098=CARTESIAN_POINT('',(28.,-3.,11.75));
#1099=CARTESIAN_POINT('',(17.5,7.5,11.75));
#1100=CARTESIAN_POINT('',(-0.227922061357886,25.2279220613578,11.75));
#1101=CARTESIAN_POINT('',(-13.660547955513,11.7952961672027,11.75));
#1102=CARTESIAN_POINT('',(-15.,5.,11.75));
#1103=CARTESIAN_POINT('',(-15.,5.,11.75));
#1104=CARTESIAN_POINT('',(-15.,-5.,11.75));
#1105=CARTESIAN_POINT('',(15.,5.,11.75));
#1106=CARTESIAN_POINT('',(15.,5.,11.75));
#1107=CARTESIAN_POINT('',(15.,-5.,11.75));
#1108=CARTESIAN_POINT('',(15.,-5.,11.75));
#1109=CARTESIAN_POINT('',(-15.,-5.,11.75));
#1110=CARTESIAN_POINT('',(-8.71320343559642,33.7132034355964,19.51));
#1111=CARTESIAN_POINT('',(-2.34924240491749,27.3492424049175,19.51));
#1112=CARTESIAN_POINT('',(-2.34924240491749,27.3492424049175,19.51));
#1113=CARTESIAN_POINT('',(-20.7316157673785,8.96686904245653,19.51));
#1114=CARTESIAN_POINT('',(-8.71320343559642,33.7132034355964,19.51));
#1115=CARTESIAN_POINT('',(-15.0771644662754,40.0771644662754,19.51));
#1116=CARTESIAN_POINT('',(-15.0771644662754,40.0771644662754,19.51));
#1117=CARTESIAN_POINT('',(-33.4595378287363,21.6947911038144,19.51));
#1118=CARTESIAN_POINT('',(-27.0955767980574,15.3308300731355,19.51));
#1119=CARTESIAN_POINT('',(17.5,7.5,7.77190342020889));
#1120=CARTESIAN_POINT('',(33.7132034355964,-8.71320343559641,19.51));
#1121=CARTESIAN_POINT('',(28.,-3.,23.4746706051044));
#1122=CARTESIAN_POINT('',(40.0771644662754,-15.0771644662753,19.51));
#1123=CARTESIAN_POINT('',(40.0771644662754,-15.0771644662753,19.51));
#1124=CARTESIAN_POINT('',(40.0771644662754,-15.0771644662753,5.));
#1125=CARTESIAN_POINT('',(17.5,7.5,5.));
#1126=CARTESIAN_POINT('',(17.5,7.5,5.));
#1127=CARTESIAN_POINT('',(-3.87659305228042,28.8765930522804,5.));
#1128=CARTESIAN_POINT('',(-3.87659305228042,28.8765930522804,-14.05));
#1129=CARTESIAN_POINT('',(-3.87659305228042,28.8765930522804,-14.05));
#1130=CARTESIAN_POINT('',(-3.87659305228042,28.8765930522804,-14.05));
#1131=CARTESIAN_POINT('',(-15.0771644662753,40.0771644662753,-14.05));
#1132=CARTESIAN_POINT('',(-15.0771644662753,40.0771644662753,19.51));
#1133=CARTESIAN_POINT('',(-2.34924240491749,27.3492424049175,19.51));
#1134=CARTESIAN_POINT('',(-2.34924240491749,27.3492424049175,14.75));
#1135=CARTESIAN_POINT('',(-0.227922061357869,25.2279220613578,14.75));
#1136=CARTESIAN_POINT('',(28.,-3.,7.77190342020889));
#1137=CARTESIAN_POINT('',(33.7132034355964,-8.71320343559641,19.51));
#1138=CARTESIAN_POINT('',(37.9558441227157,-12.9558441227157,19.51));
#1139=CARTESIAN_POINT('',(-8.71320343559642,33.7132034355964,19.51));
#1140=CARTESIAN_POINT('',(-4.47056274847714,29.4705627484771,19.51));
#1141=CARTESIAN_POINT('',(33.7132034355964,-8.71320343559641,19.51));
#1142=CARTESIAN_POINT('',(39.4264068711928,-3.,19.51));
#1143=CARTESIAN_POINT('',(26.698484809835,-3.,19.51));
#1144=CARTESIAN_POINT('',(86.7129136707202,57.0144288608852,19.51));
#1145=CARTESIAN_POINT('',(8.96686904245653,-20.7316157673785,19.51));
#1146=CARTESIAN_POINT('',(15.3308300731355,-27.0955767980574,19.51));
#1147=CARTESIAN_POINT('',(21.6947911038144,-33.4595378287363,19.51));
#1148=CARTESIAN_POINT('',(40.0771644662754,-15.0771644662753,19.51));
#1149=CARTESIAN_POINT('',(86.7129136707202,57.0144288608852,19.51));
#1150=CARTESIAN_POINT('',(26.698484809835,-3.,19.51));
#1151=CARTESIAN_POINT('',(26.698484809835,-3.,14.75));
#1152=CARTESIAN_POINT('',(86.7129136707202,57.0144288608852,14.75));
#1153=CARTESIAN_POINT('',(8.96686904245654,-20.7316157673785,14.75));
#1154=CARTESIAN_POINT('',(8.96686904245653,-20.7316157673785,19.51));
#1155=CARTESIAN_POINT('',(84.5915933271606,59.1357492044449,14.75));
#1156=CARTESIAN_POINT('',(22.4558441227157,-3.,14.75));
#1157=CARTESIAN_POINT('',(6.84554869889689,-18.6102954238188,14.75));
#1158=CARTESIAN_POINT('',(33.7132034355964,-8.71320343559641,19.51));
#1159=CARTESIAN_POINT('',(20.2805775414413,-22.1458293297516,19.51));
#1160=CARTESIAN_POINT('',(16.037936854322,-17.9031886426323,19.51));
#1161=CARTESIAN_POINT('',(17.5,-7.5,5.));
#1162=CARTESIAN_POINT('',(17.5,7.5,5.));
#1163=CARTESIAN_POINT('',(17.5,-7.5,0.));
#1164=CARTESIAN_POINT('',(0.,0.,-14.1638101563667));
#1165=CARTESIAN_POINT('',(0.,0.,0.));
#1166=CARTESIAN_POINT('',(3.,0.,0.));
#1167=CARTESIAN_POINT('',(0.,0.,4.5));
#1168=CARTESIAN_POINT('',(3.,0.,4.5));
#1169=CARTESIAN_POINT('',(-15.,-5.,4.5));
#1170=CARTESIAN_POINT('',(15.,-5.,4.5));
#1171=CARTESIAN_POINT('',(15.,-5.,4.5));
#1172=CARTESIAN_POINT('',(-15.,-5.,4.5));
#1173=CARTESIAN_POINT('',(-15.,-5.,4.5));
#1174=CARTESIAN_POINT('',(-15.,-5.,4.5));
#1175=CARTESIAN_POINT('',(15.,-5.,4.5));
#1176=CARTESIAN_POINT('',(15.,5.,4.5));
#1177=CARTESIAN_POINT('',(15.,5.,4.5));
#1178=CARTESIAN_POINT('',(15.,-5.,4.5));
#1179=CARTESIAN_POINT('',(15.,5.,4.5));
#1180=CARTESIAN_POINT('',(-15.,5.,4.5));
#1181=CARTESIAN_POINT('',(-15.,5.,4.5));
#1182=CARTESIAN_POINT('',(15.,5.,4.5));
#1183=CARTESIAN_POINT('',(-15.,5.,4.5));
#1184=CARTESIAN_POINT('',(-15.,5.,4.5));
#1185=CARTESIAN_POINT('',(0.,0.,0.));
#1186=CARTESIAN_POINT('',(0.,0.,4.5));
#1187=CARTESIAN_POINT('',(0.,0.,5.));
#1188=CARTESIAN_POINT('',(40.0771644662754,-15.0771644662753,5.));
#1189=CARTESIAN_POINT('',(21.6947911038144,-33.4595378287363,5.));
#1190=CARTESIAN_POINT('',(21.6947911038144,-33.4595378287363,5.));
#1191=CARTESIAN_POINT('',(40.0771644662754,-15.0771644662753,19.51));
#1192=CARTESIAN_POINT('',(24.1696648379673,-30.9846640945834,15.99));
#1193=CARTESIAN_POINT('',(25.1596143316285,-29.9947146009222,15.99));
#1194=CARTESIAN_POINT('',(21.6947911038144,-33.4595378287363,19.51));
#1195=CARTESIAN_POINT('',(15.,-3.,55.1883818650394));
#1196=CARTESIAN_POINT('',(0.,0.,5.));
#1197=CARTESIAN_POINT('',(-22.2589664147414,10.4942196898195,4.99999999999999));
#1198=CARTESIAN_POINT('',(-22.2589664147414,10.4942196898195,4.99999999999999));
#1199=CARTESIAN_POINT('',(-17.3092189464356,15.4439671581253,5.));
#1200=CARTESIAN_POINT('',(-15.0771644662753,40.0771644662753,19.51));
#1201=CARTESIAN_POINT('',(-30.9846640945834,24.1696648379673,15.9899999999999));
#1202=CARTESIAN_POINT('',(-31.9746135882446,23.1797153443061,15.9899999999999));
#1203=CARTESIAN_POINT('',(-15.0771644662753,40.0771644662753,-14.05));
#1204=CARTESIAN_POINT('',(-33.4595378287363,21.6947911038143,-14.05));
#1205=CARTESIAN_POINT('',(-33.4595378287363,21.6947911038144,19.51));
#1206=CARTESIAN_POINT('',(-8.71320343559642,33.7132034355964,19.51));
#1207=CARTESIAN_POINT('',(-22.1458293297516,20.2805775414413,19.51));
#1208=CARTESIAN_POINT('',(-17.9031886426323,16.037936854322,19.51));
#1209=CARTESIAN_POINT('',(-2.34924240491749,27.3492424049175,19.51));
#1210=CARTESIAN_POINT('',(-20.7316157673785,8.96686904245653,19.51));
#1211=CARTESIAN_POINT('',(-20.7316157673785,8.96686904245653,14.75));
#1212=CARTESIAN_POINT('',(-2.34924240491749,27.3492424049175,14.75));
#1213=CARTESIAN_POINT('',(-12.7279220613579,12.7279220613579,14.75));
#1214=CARTESIAN_POINT('',(-18.6102954238188,6.84554869889688,14.75));
#1215=CARTESIAN_POINT('',(-17.3092189464356,15.4439671581253,-14.05));
#1216=CARTESIAN_POINT('',(-22.2589664147414,10.4942196898195,-14.05));
#1217=CARTESIAN_POINT('',(-22.2589664147414,10.4942196898195,-14.05));
#1218=CARTESIAN_POINT('',(-17.3092189464356,15.4439671581253,-14.05));
#1219=CARTESIAN_POINT('',(0.,0.,-14.05));
#1220=CARTESIAN_POINT('',(-33.4595378287363,21.6947911038143,-14.05));
#1221=CARTESIAN_POINT('',(20.2805775414413,-22.1458293297516,19.51));
#1222=CARTESIAN_POINT('',(20.2805775414413,-22.1458293297516,19.51));
#1223=CARTESIAN_POINT('',(22.5079639021789,-24.3732156904892,19.51));
#1224=CARTESIAN_POINT('',(15.3308300731355,-27.0955767980574,19.51));
#1225=CARTESIAN_POINT('',(15.3308300731355,-27.0955767980574,19.51));
#1226=CARTESIAN_POINT('',(17.5582164338731,-29.322963158795,19.51));
#1227=CARTESIAN_POINT('',(15.6136727856101,-22.4286720422262,15.99));
#1228=CARTESIAN_POINT('',(19.9977348289667,-26.8127340855828,15.99));
#1229=CARTESIAN_POINT('',(19.9977348289667,-26.8127340855828,15.99));
#1230=CARTESIAN_POINT('',(20.9876843226278,-25.8227845919216,15.99));
#1231=CARTESIAN_POINT('',(19.9977348289667,-26.8127340855828,15.99));
#1232=CARTESIAN_POINT('',(20.2805775414413,-22.1458293297516,19.51));
#1233=CARTESIAN_POINT('',(-27.0955767980574,15.3308300731355,19.51));
#1234=CARTESIAN_POINT('',(-22.1458293297516,20.2805775414413,19.51));
#1235=CARTESIAN_POINT('',(-22.3933167031668,15.5783174465507,15.9899999999999));
#1236=CARTESIAN_POINT('',(-26.8480894246421,20.033090168026,15.9899999999999));
#1237=CARTESIAN_POINT('',(-26.1409826434556,20.7401969492125,15.9899999999999));
#1238=CARTESIAN_POINT('',(-22.3933167031668,15.5783174465507,15.9899999999999));
#1239=CARTESIAN_POINT('',(-23.1004234843534,14.8712106653642,15.9899999999999));
#1240=CARTESIAN_POINT('',(-22.3933167031668,15.5783174465507,15.9899999999999));
#1241=CARTESIAN_POINT('',(-26.8480894246421,20.033090168026,15.9899999999999));
#1242=CARTESIAN_POINT('',(-26.8480894246421,20.033090168026,15.9899999999999));
#1243=CARTESIAN_POINT('',(-27.8380389183033,19.0431406743648,15.9899999999999));
#1244=CARTESIAN_POINT('',(-26.8480894246421,20.033090168026,15.9899999999999));
#1245=MECHANICAL_DESIGN_GEOMETRIC_PRESENTATION_REPRESENTATION('',(#728),
#1246);
#1246=(
GEOMETRIC_REPRESENTATION_CONTEXT(3)
GLOBAL_UNCERTAINTY_ASSIGNED_CONTEXT((#1247))
GLOBAL_UNIT_ASSIGNED_CONTEXT((#1250,#1249,#1248))
REPRESENTATION_CONTEXT('24_FDML_stimfix_dichroic_holder',
'TOP_LEVEL_ASSEMBLY_PART')
);
#1247=UNCERTAINTY_MEASURE_WITH_UNIT(LENGTH_MEASURE(0.005),#1250,
'DISTANCE_ACCURACY_VALUE','Maximum Tolerance applied to model');
#1248=(
NAMED_UNIT(*)
SI_UNIT($,.STERADIAN.)
SOLID_ANGLE_UNIT()
);
#1249=(
NAMED_UNIT(*)
PLANE_ANGLE_UNIT()
SI_UNIT($,.RADIAN.)
);
#1250=(
LENGTH_UNIT()
NAMED_UNIT(*)
SI_UNIT(.MILLI.,.METRE.)
);
#1251=PRODUCT_DEFINITION_SHAPE('','',#1252);
#1252=PRODUCT_DEFINITION('','',#1254,#1253);
#1253=PRODUCT_DEFINITION_CONTEXT('',#1260,'design');
#1254=PRODUCT_DEFINITION_FORMATION_WITH_SPECIFIED_SOURCE('','',#1256,
 .NOT_KNOWN.);
#1255=PRODUCT_RELATED_PRODUCT_CATEGORY('','',(#1256));
#1256=PRODUCT('24_FDML_stimfix_dichroic_holder',
'24_FDML_stimfix_dichroic_holder','24_FDML_stimfix_dichroic_holder',(#1258));
#1257=PRODUCT_CATEGORY('','');
#1258=PRODUCT_CONTEXT('',#1260,'mechanical');
#1259=APPLICATION_PROTOCOL_DEFINITION('international standard',
'automotive_design',2010,#1260);
#1260=APPLICATION_CONTEXT(
'core data for automotive mechanical design processes');
ENDSEC;
END-ISO-10303-21;
