ISO-10303-21;
HEADER;
/* Generated by software containing ST-Developer
 * from STEP Tools, Inc. (www.steptools.com) 
 */
/* OPTION: strings as raw bytes, not using required /X/ escapes */

FILE_DESCRIPTION(
/* description */ ('Unknown'),
/* implementation_level */ '2;1');

FILE_NAME(
/* name */ '25_FDML_stimfix_rods_guiding_addon',
/* time_stamp */ '2026-09-07T15:11:24+02:00',
/* author */ ('Unknown'),
/* organization */ ('Unknown'),
/* preprocessor_version */ 'ST-DEVELOPER v16.7',
/* originating_system */ 'Solid Edge',
/* authorisation */ 'Unknown');

FILE_SCHEMA (('AUTOMOTIVE_DESIGN {1 0 10303 214 3 1 1}'));
ENDSEC;

DATA;
#10=PROPERTY_DEFINITION_REPRESENTATION(#14,#12);
#11=PROPERTY_DEFINITION_REPRESENTATION(#15,#13);
#12=REPRESENTATION('',(#16),#1073);
#13=REPRESENTATION('',(#17),#1073);
#14=PROPERTY_DEFINITION('pmi validation property','',#1078);
#15=PROPERTY_DEFINITION('pmi validation property','',#1078);
#16=VALUE_REPRESENTATION_ITEM('number of annotations',COUNT_MEASURE(0.));
#17=VALUE_REPRESENTATION_ITEM('number of views',COUNT_MEASURE(0.));
#18=SHAPE_REPRESENTATION_RELATIONSHIP('','',#625,#19);
#19=ADVANCED_BREP_SHAPE_REPRESENTATION('',(#623),#1073);
#20=ELLIPSE('',#649,12.7279220613579,9.00000000000001);
#21=ELLIPSE('',#653,4.24264068711928,3.);
#22=B_SPLINE_CURVE_WITH_KNOTS('',3,(#925,#926,#927,#928,#929,#930,#931,
#932,#933,#934,#935,#936,#937,#938,#939,#940,#941,#942,#943),
 .UNSPECIFIED.,.T.,.F.,(1,1,1,1,1,1,1,1,1,1,1,1,1,1,1,1,1,1,1,1,1,1,1),
(-0.00181716541064545,-0.00121144360709697,-0.000605721803548483,0.,0.000605721803548484,
0.00121144360709697,0.00181716541064545,0.00242288721419394,0.00302860901774242,
0.00363433082129091,0.00424005262483939,0.00484577442838788,0.00545149623193636,
0.00605721803548484,0.00666293983903333,0.00726866164258181,0.0078743834461303,
0.00848010524967878,0.00908582705322727,0.00969154885677575,0.0102972706603242,
0.0109029924638727,0.0115087142674212),.UNSPECIFIED.);
#23=B_SPLINE_CURVE_WITH_KNOTS('',3,(#950,#951,#952,#953,#954,#955,#956,
#957,#958,#959,#960,#961,#962,#963,#964,#965,#966,#967,#968),
 .UNSPECIFIED.,.T.,.F.,(1,1,1,1,1,1,1,1,1,1,1,1,1,1,1,1,1,1,1,1,1,1,1),
(-0.00183633989856677,-0.00122422659904451,-0.000612113299522255,3.46944695195361E-18,
0.000612113299522262,0.00122422659904452,0.00183633989856678,0.00244845319808904,
0.0030605664976113,0.00367267979713355,0.00428479309665581,0.00489690639617807,
0.00550901969570033,0.00612113299522259,0.00673324629474485,0.00734535959426711,
0.00795747289378936,0.00856958619331162,0.00918169949283388,0.00979381279235614,
0.0104059260918784,0.0110180393914007,0.0116301526909229),.UNSPECIFIED.);
#24=CYLINDRICAL_SURFACE('',#634,3.15);
#25=CYLINDRICAL_SURFACE('',#637,1.);
#26=CYLINDRICAL_SURFACE('',#640,9.);
#27=CYLINDRICAL_SURFACE('',#648,9.00000000000001);
#28=CYLINDRICAL_SURFACE('',#652,3.);
#29=CYLINDRICAL_SURFACE('',#655,6.);
#30=CYLINDRICAL_SURFACE('',#660,6.);
#31=CYLINDRICAL_SURFACE('',#663,3.);
#32=CYLINDRICAL_SURFACE('',#670,1.4);
#33=CYLINDRICAL_SURFACE('',#673,3.15);
#34=CYLINDRICAL_SURFACE('',#675,1.00000000000001);
#35=CYLINDRICAL_SURFACE('',#679,1.40000000000001);
#36=CYLINDRICAL_SURFACE('',#688,1.875);
#37=CYLINDRICAL_SURFACE('',#692,2.);
#38=CIRCLE('',#631,2.);
#39=CIRCLE('',#633,1.40000000000001);
#40=CIRCLE('',#635,3.15);
#41=CIRCLE('',#636,3.15);
#42=CIRCLE('',#638,1.);
#43=CIRCLE('',#639,1.);
#44=CIRCLE('',#641,9.);
#45=CIRCLE('',#642,9.);
#46=CIRCLE('',#644,3.);
#47=CIRCLE('',#645,9.00000000000001);
#48=CIRCLE('',#646,6.);
#49=CIRCLE('',#647,6.);
#50=CIRCLE('',#650,9.00000000000001);
#51=CIRCLE('',#654,3.);
#52=CIRCLE('',#656,6.);
#53=CIRCLE('',#658,1.4);
#54=CIRCLE('',#661,6.);
#55=CIRCLE('',#664,3.);
#56=CIRCLE('',#666,3.15);
#57=CIRCLE('',#668,3.15);
#58=CIRCLE('',#671,1.4);
#59=CIRCLE('',#676,1.00000000000001);
#60=CIRCLE('',#677,1.00000000000001);
#61=CIRCLE('',#680,1.40000000000001);
#62=CIRCLE('',#685,1.875);
#63=CIRCLE('',#689,1.875);
#64=CIRCLE('',#691,2.);
#65=ORIENTED_EDGE('',*,*,#211,.F.);
#66=ORIENTED_EDGE('',*,*,#212,.T.);
#67=ORIENTED_EDGE('',*,*,#213,.F.);
#68=ORIENTED_EDGE('',*,*,#214,.F.);
#69=ORIENTED_EDGE('',*,*,#215,.F.);
#70=ORIENTED_EDGE('',*,*,#216,.F.);
#71=ORIENTED_EDGE('',*,*,#217,.F.);
#72=ORIENTED_EDGE('',*,*,#218,.T.);
#73=ORIENTED_EDGE('',*,*,#212,.F.);
#74=ORIENTED_EDGE('',*,*,#219,.F.);
#75=ORIENTED_EDGE('',*,*,#218,.F.);
#76=ORIENTED_EDGE('',*,*,#220,.F.);
#77=ORIENTED_EDGE('',*,*,#221,.F.);
#78=ORIENTED_EDGE('',*,*,#222,.T.);
#79=ORIENTED_EDGE('',*,*,#223,.F.);
#80=ORIENTED_EDGE('',*,*,#224,.T.);
#81=ORIENTED_EDGE('',*,*,#225,.T.);
#82=ORIENTED_EDGE('',*,*,#226,.T.);
#83=ORIENTED_EDGE('',*,*,#227,.T.);
#84=ORIENTED_EDGE('',*,*,#228,.T.);
#85=ORIENTED_EDGE('',*,*,#229,.T.);
#86=ORIENTED_EDGE('',*,*,#230,.T.);
#87=ORIENTED_EDGE('',*,*,#231,.T.);
#88=ORIENTED_EDGE('',*,*,#232,.T.);
#89=ORIENTED_EDGE('',*,*,#221,.T.);
#90=ORIENTED_EDGE('',*,*,#233,.T.);
#91=ORIENTED_EDGE('',*,*,#234,.F.);
#92=ORIENTED_EDGE('',*,*,#235,.T.);
#93=ORIENTED_EDGE('',*,*,#236,.F.);
#94=ORIENTED_EDGE('',*,*,#237,.F.);
#95=ORIENTED_EDGE('',*,*,#238,.T.);
#96=ORIENTED_EDGE('',*,*,#239,.F.);
#97=ORIENTED_EDGE('',*,*,#240,.T.);
#98=ORIENTED_EDGE('',*,*,#241,.F.);
#99=ORIENTED_EDGE('',*,*,#242,.F.);
#100=ORIENTED_EDGE('',*,*,#234,.T.);
#101=ORIENTED_EDGE('',*,*,#243,.T.);
#102=ORIENTED_EDGE('',*,*,#222,.F.);
#103=ORIENTED_EDGE('',*,*,#232,.F.);
#104=ORIENTED_EDGE('',*,*,#242,.T.);
#105=ORIENTED_EDGE('',*,*,#244,.T.);
#106=ORIENTED_EDGE('',*,*,#245,.T.);
#107=ORIENTED_EDGE('',*,*,#230,.F.);
#108=ORIENTED_EDGE('',*,*,#246,.T.);
#109=ORIENTED_EDGE('',*,*,#247,.T.);
#110=ORIENTED_EDGE('',*,*,#248,.F.);
#111=ORIENTED_EDGE('',*,*,#249,.F.);
#112=ORIENTED_EDGE('',*,*,#250,.F.);
#113=ORIENTED_EDGE('',*,*,#251,.F.);
#114=ORIENTED_EDGE('',*,*,#252,.F.);
#115=ORIENTED_EDGE('',*,*,#253,.F.);
#116=ORIENTED_EDGE('',*,*,#254,.T.);
#117=ORIENTED_EDGE('',*,*,#255,.T.);
#118=ORIENTED_EDGE('',*,*,#256,.F.);
#119=ORIENTED_EDGE('',*,*,#247,.F.);
#120=ORIENTED_EDGE('',*,*,#254,.F.);
#121=ORIENTED_EDGE('',*,*,#257,.T.);
#122=ORIENTED_EDGE('',*,*,#258,.T.);
#123=ORIENTED_EDGE('',*,*,#259,.T.);
#124=ORIENTED_EDGE('',*,*,#260,.F.);
#125=ORIENTED_EDGE('',*,*,#228,.F.);
#126=ORIENTED_EDGE('',*,*,#261,.T.);
#127=ORIENTED_EDGE('',*,*,#258,.F.);
#128=ORIENTED_EDGE('',*,*,#262,.F.);
#129=ORIENTED_EDGE('',*,*,#251,.T.);
#130=ORIENTED_EDGE('',*,*,#263,.T.);
#131=ORIENTED_EDGE('',*,*,#264,.T.);
#132=ORIENTED_EDGE('',*,*,#265,.T.);
#133=ORIENTED_EDGE('',*,*,#248,.T.);
#134=ORIENTED_EDGE('',*,*,#256,.T.);
#135=ORIENTED_EDGE('',*,*,#229,.F.);
#136=ORIENTED_EDGE('',*,*,#260,.T.);
#137=ORIENTED_EDGE('',*,*,#257,.F.);
#138=ORIENTED_EDGE('',*,*,#253,.T.);
#139=ORIENTED_EDGE('',*,*,#246,.F.);
#140=ORIENTED_EDGE('',*,*,#252,.T.);
#141=ORIENTED_EDGE('',*,*,#266,.F.);
#142=ORIENTED_EDGE('',*,*,#241,.T.);
#143=ORIENTED_EDGE('',*,*,#267,.T.);
#144=ORIENTED_EDGE('',*,*,#268,.T.);
#145=ORIENTED_EDGE('',*,*,#244,.F.);
#146=ORIENTED_EDGE('',*,*,#245,.F.);
#147=ORIENTED_EDGE('',*,*,#268,.F.);
#148=ORIENTED_EDGE('',*,*,#269,.T.);
#149=ORIENTED_EDGE('',*,*,#226,.F.);
#150=ORIENTED_EDGE('',*,*,#270,.F.);
#151=ORIENTED_EDGE('',*,*,#262,.T.);
#152=ORIENTED_EDGE('',*,*,#271,.T.);
#153=ORIENTED_EDGE('',*,*,#233,.F.);
#154=ORIENTED_EDGE('',*,*,#224,.F.);
#155=ORIENTED_EDGE('',*,*,#272,.T.);
#156=ORIENTED_EDGE('',*,*,#273,.T.);
#157=ORIENTED_EDGE('',*,*,#264,.F.);
#158=ORIENTED_EDGE('',*,*,#255,.F.);
#159=ORIENTED_EDGE('',*,*,#259,.F.);
#160=ORIENTED_EDGE('',*,*,#261,.F.);
#161=ORIENTED_EDGE('',*,*,#227,.F.);
#162=ORIENTED_EDGE('',*,*,#269,.F.);
#163=ORIENTED_EDGE('',*,*,#267,.F.);
#164=ORIENTED_EDGE('',*,*,#243,.F.);
#165=ORIENTED_EDGE('',*,*,#236,.T.);
#166=ORIENTED_EDGE('',*,*,#238,.F.);
#167=ORIENTED_EDGE('',*,*,#274,.T.);
#168=ORIENTED_EDGE('',*,*,#263,.F.);
#169=ORIENTED_EDGE('',*,*,#239,.T.);
#170=ORIENTED_EDGE('',*,*,#274,.F.);
#171=ORIENTED_EDGE('',*,*,#240,.F.);
#172=ORIENTED_EDGE('',*,*,#270,.T.);
#173=ORIENTED_EDGE('',*,*,#271,.F.);
#174=ORIENTED_EDGE('',*,*,#266,.T.);
#175=ORIENTED_EDGE('',*,*,#235,.F.);
#176=ORIENTED_EDGE('',*,*,#275,.F.);
#177=ORIENTED_EDGE('',*,*,#276,.T.);
#178=ORIENTED_EDGE('',*,*,#237,.T.);
#179=ORIENTED_EDGE('',*,*,#276,.F.);
#180=ORIENTED_EDGE('',*,*,#277,.T.);
#181=ORIENTED_EDGE('',*,*,#231,.F.);
#182=ORIENTED_EDGE('',*,*,#275,.T.);
#183=ORIENTED_EDGE('',*,*,#277,.F.);
#184=ORIENTED_EDGE('',*,*,#250,.T.);
#185=ORIENTED_EDGE('',*,*,#278,.F.);
#186=ORIENTED_EDGE('',*,*,#272,.F.);
#187=ORIENTED_EDGE('',*,*,#223,.T.);
#188=ORIENTED_EDGE('',*,*,#249,.T.);
#189=ORIENTED_EDGE('',*,*,#265,.F.);
#190=ORIENTED_EDGE('',*,*,#273,.F.);
#191=ORIENTED_EDGE('',*,*,#278,.T.);
#192=ORIENTED_EDGE('',*,*,#279,.T.);
#193=ORIENTED_EDGE('',*,*,#280,.F.);
#194=ORIENTED_EDGE('',*,*,#214,.T.);
#195=ORIENTED_EDGE('',*,*,#281,.F.);
#196=ORIENTED_EDGE('',*,*,#216,.T.);
#197=ORIENTED_EDGE('',*,*,#213,.T.);
#198=ORIENTED_EDGE('',*,*,#220,.T.);
#199=ORIENTED_EDGE('',*,*,#217,.T.);
#200=ORIENTED_EDGE('',*,*,#281,.T.);
#201=ORIENTED_EDGE('',*,*,#215,.T.);
#202=ORIENTED_EDGE('',*,*,#219,.T.);
#203=ORIENTED_EDGE('',*,*,#211,.T.);
#204=ORIENTED_EDGE('',*,*,#280,.T.);
#205=ORIENTED_EDGE('',*,*,#282,.T.);
#206=ORIENTED_EDGE('',*,*,#279,.F.);
#207=ORIENTED_EDGE('',*,*,#283,.F.);
#208=ORIENTED_EDGE('',*,*,#282,.F.);
#209=ORIENTED_EDGE('',*,*,#283,.T.);
#210=ORIENTED_EDGE('',*,*,#225,.F.);
#211=EDGE_CURVE('',#284,#285,#340,.T.);
#212=EDGE_CURVE('',#284,#286,#341,.T.);
#213=EDGE_CURVE('',#287,#286,#342,.T.);
#214=EDGE_CURVE('',#285,#287,#343,.T.);
#215=EDGE_CURVE('',#288,#289,#344,.T.);
#216=EDGE_CURVE('',#290,#288,#345,.T.);
#217=EDGE_CURVE('',#291,#290,#346,.T.);
#218=EDGE_CURVE('',#291,#289,#347,.T.);
#219=EDGE_CURVE('',#289,#284,#348,.T.);
#220=EDGE_CURVE('',#286,#291,#349,.T.);
#221=EDGE_CURVE('',#292,#293,#350,.T.);
#222=EDGE_CURVE('',#292,#294,#351,.T.);
#223=EDGE_CURVE('',#295,#294,#352,.T.);
#224=EDGE_CURVE('',#295,#293,#353,.T.);
#225=EDGE_CURVE('',#296,#296,#38,.T.);
#226=EDGE_CURVE('',#297,#298,#354,.T.);
#227=EDGE_CURVE('',#298,#299,#355,.T.);
#228=EDGE_CURVE('',#299,#300,#356,.F.);
#229=EDGE_CURVE('',#300,#301,#357,.T.);
#230=EDGE_CURVE('',#301,#297,#358,.T.);
#231=EDGE_CURVE('',#302,#302,#39,.T.);
#232=EDGE_CURVE('',#303,#292,#359,.T.);
#233=EDGE_CURVE('',#293,#304,#360,.T.);
#234=EDGE_CURVE('',#303,#304,#361,.T.);
#235=EDGE_CURVE('',#305,#305,#40,.T.);
#236=EDGE_CURVE('',#306,#306,#41,.T.);
#237=EDGE_CURVE('',#307,#307,#22,.T.);
#238=EDGE_CURVE('',#308,#308,#42,.T.);
#239=EDGE_CURVE('',#309,#309,#43,.T.);
#240=EDGE_CURVE('',#310,#310,#23,.T.);
#241=EDGE_CURVE('',#311,#312,#362,.T.);
#242=EDGE_CURVE('',#303,#311,#44,.T.);
#243=EDGE_CURVE('',#304,#312,#45,.T.);
#244=EDGE_CURVE('',#311,#313,#363,.T.);
#245=EDGE_CURVE('',#313,#297,#46,.F.);
#246=EDGE_CURVE('',#301,#314,#364,.T.);
#247=EDGE_CURVE('',#314,#315,#47,.T.);
#248=EDGE_CURVE('',#316,#315,#365,.T.);
#249=EDGE_CURVE('',#317,#316,#366,.T.);
#250=EDGE_CURVE('',#294,#317,#367,.T.);
#251=EDGE_CURVE('',#318,#318,#48,.T.);
#252=EDGE_CURVE('',#319,#319,#49,.T.);
#253=EDGE_CURVE('',#320,#314,#20,.T.);
#254=EDGE_CURVE('',#320,#321,#368,.T.);
#255=EDGE_CURVE('',#321,#322,#50,.T.);
#256=EDGE_CURVE('',#315,#322,#369,.T.);
#257=EDGE_CURVE('',#320,#323,#370,.T.);
#258=EDGE_CURVE('',#323,#324,#371,.T.);
#259=EDGE_CURVE('',#324,#321,#372,.T.);
#260=EDGE_CURVE('',#300,#323,#21,.F.);
#261=EDGE_CURVE('',#299,#324,#51,.T.);
#262=EDGE_CURVE('',#325,#325,#52,.T.);
#263=EDGE_CURVE('',#326,#326,#53,.T.);
#264=EDGE_CURVE('',#322,#327,#373,.T.);
#265=EDGE_CURVE('',#327,#316,#374,.T.);
#266=EDGE_CURVE('',#328,#328,#54,.T.);
#267=EDGE_CURVE('',#312,#329,#375,.T.);
#268=EDGE_CURVE('',#329,#313,#376,.F.);
#269=EDGE_CURVE('',#329,#298,#55,.T.);
#270=EDGE_CURVE('',#330,#330,#56,.T.);
#271=EDGE_CURVE('',#331,#331,#57,.T.);
#272=EDGE_CURVE('',#295,#332,#377,.T.);
#273=EDGE_CURVE('',#332,#327,#378,.T.);
#274=EDGE_CURVE('',#333,#333,#58,.T.);
#275=EDGE_CURVE('',#334,#334,#59,.T.);
#276=EDGE_CURVE('',#335,#335,#60,.T.);
#277=EDGE_CURVE('',#336,#336,#61,.T.);
#278=EDGE_CURVE('',#332,#317,#379,.T.);
#279=EDGE_CURVE('',#337,#337,#62,.T.);
#280=EDGE_CURVE('',#285,#288,#380,.T.);
#281=EDGE_CURVE('',#290,#287,#381,.T.);
#282=EDGE_CURVE('',#338,#338,#63,.T.);
#283=EDGE_CURVE('',#339,#339,#64,.T.);
#284=VERTEX_POINT('',#872);
#285=VERTEX_POINT('',#873);
#286=VERTEX_POINT('',#875);
#287=VERTEX_POINT('',#877);
#288=VERTEX_POINT('',#881);
#289=VERTEX_POINT('',#882);
#290=VERTEX_POINT('',#884);
#291=VERTEX_POINT('',#886);
#292=VERTEX_POINT('',#892);
#293=VERTEX_POINT('',#893);
#294=VERTEX_POINT('',#895);
#295=VERTEX_POINT('',#897);
#296=VERTEX_POINT('',#901);
#297=VERTEX_POINT('',#903);
#298=VERTEX_POINT('',#904);
#299=VERTEX_POINT('',#906);
#300=VERTEX_POINT('',#908);
#301=VERTEX_POINT('',#910);
#302=VERTEX_POINT('',#914);
#303=VERTEX_POINT('',#916);
#304=VERTEX_POINT('',#918);
#305=VERTEX_POINT('',#922);
#306=VERTEX_POINT('',#924);
#307=VERTEX_POINT('',#944);
#308=VERTEX_POINT('',#947);
#309=VERTEX_POINT('',#949);
#310=VERTEX_POINT('',#969);
#311=VERTEX_POINT('',#972);
#312=VERTEX_POINT('',#973);
#313=VERTEX_POINT('',#978);
#314=VERTEX_POINT('',#981);
#315=VERTEX_POINT('',#983);
#316=VERTEX_POINT('',#985);
#317=VERTEX_POINT('',#987);
#318=VERTEX_POINT('',#990);
#319=VERTEX_POINT('',#992);
#320=VERTEX_POINT('',#995);
#321=VERTEX_POINT('',#997);
#322=VERTEX_POINT('',#999);
#323=VERTEX_POINT('',#1003);
#324=VERTEX_POINT('',#1005);
#325=VERTEX_POINT('',#1012);
#326=VERTEX_POINT('',#1015);
#327=VERTEX_POINT('',#1017);
#328=VERTEX_POINT('',#1022);
#329=VERTEX_POINT('',#1025);
#330=VERTEX_POINT('',#1031);
#331=VERTEX_POINT('',#1034);
#332=VERTEX_POINT('',#1036);
#333=VERTEX_POINT('',#1041);
#334=VERTEX_POINT('',#1047);
#335=VERTEX_POINT('',#1049);
#336=VERTEX_POINT('',#1053);
#337=VERTEX_POINT('',#1060);
#338=VERTEX_POINT('',#1067);
#339=VERTEX_POINT('',#1070);
#340=LINE('',#871,#382);
#341=LINE('',#874,#383);
#342=LINE('',#876,#384);
#343=LINE('',#878,#385);
#344=LINE('',#880,#386);
#345=LINE('',#883,#387);
#346=LINE('',#885,#388);
#347=LINE('',#887,#389);
#348=LINE('',#889,#390);
#349=LINE('',#890,#391);
#350=LINE('',#891,#392);
#351=LINE('',#894,#393);
#352=LINE('',#896,#394);
#353=LINE('',#898,#395);
#354=LINE('',#902,#396);
#355=LINE('',#905,#397);
#356=LINE('',#907,#398);
#357=LINE('',#909,#399);
#358=LINE('',#911,#400);
#359=LINE('',#915,#401);
#360=LINE('',#917,#402);
#361=LINE('',#919,#403);
#362=LINE('',#971,#404);
#363=LINE('',#977,#405);
#364=LINE('',#980,#406);
#365=LINE('',#984,#407);
#366=LINE('',#986,#408);
#367=LINE('',#988,#409);
#368=LINE('',#996,#410);
#369=LINE('',#1000,#411);
#370=LINE('',#1002,#412);
#371=LINE('',#1004,#413);
#372=LINE('',#1006,#414);
#373=LINE('',#1016,#415);
#374=LINE('',#1018,#416);
#375=LINE('',#1024,#417);
#376=LINE('',#1026,#418);
#377=LINE('',#1035,#419);
#378=LINE('',#1037,#420);
#379=LINE('',#1056,#421);
#380=LINE('',#1061,#422);
#381=LINE('',#1062,#423);
#382=VECTOR('',#697,1000.);
#383=VECTOR('',#698,1000.);
#384=VECTOR('',#699,1000.);
#385=VECTOR('',#700,1000.);
#386=VECTOR('',#703,1000.);
#387=VECTOR('',#704,1000.);
#388=VECTOR('',#705,1000.);
#389=VECTOR('',#706,1000.);
#390=VECTOR('',#709,1000.);
#391=VECTOR('',#710,1000.);
#392=VECTOR('',#711,1000.);
#393=VECTOR('',#712,1000.);
#394=VECTOR('',#713,1000.);
#395=VECTOR('',#714,1000.);
#396=VECTOR('',#719,1000.);
#397=VECTOR('',#720,1000.);
#398=VECTOR('',#721,1000.);
#399=VECTOR('',#722,1000.);
#400=VECTOR('',#723,1000.);
#401=VECTOR('',#728,1000.);
#402=VECTOR('',#729,1000.);
#403=VECTOR('',#730,1000.);
#404=VECTOR('',#745,1000.);
#405=VECTOR('',#752,1000.);
#406=VECTOR('',#755,1000.);
#407=VECTOR('',#758,1000.);
#408=VECTOR('',#759,1000.);
#409=VECTOR('',#760,1000.);
#410=VECTOR('',#769,1000.);
#411=VECTOR('',#772,1000.);
#412=VECTOR('',#775,1000.);
#413=VECTOR('',#776,1000.);
#414=VECTOR('',#777,1000.);
#415=VECTOR('',#792,1000.);
#416=VECTOR('',#793,1000.);
#417=VECTOR('',#802,1000.);
#418=VECTOR('',#803,1000.);
#419=VECTOR('',#816,1000.);
#420=VECTOR('',#817,1000.);
#421=VECTOR('',#846,1000.);
#422=VECTOR('',#853,1000.);
#423=VECTOR('',#854,1000.);
#424=EDGE_LOOP('',(#65,#66,#67,#68));
#425=EDGE_LOOP('',(#69,#70,#71,#72));
#426=EDGE_LOOP('',(#73,#74,#75,#76));
#427=EDGE_LOOP('',(#77,#78,#79,#80));
#428=EDGE_LOOP('',(#81));
#429=EDGE_LOOP('',(#82,#83,#84,#85,#86));
#430=EDGE_LOOP('',(#87));
#431=EDGE_LOOP('',(#88,#89,#90,#91));
#432=EDGE_LOOP('',(#92));
#433=EDGE_LOOP('',(#93));
#434=EDGE_LOOP('',(#94));
#435=EDGE_LOOP('',(#95));
#436=EDGE_LOOP('',(#96));
#437=EDGE_LOOP('',(#97));
#438=EDGE_LOOP('',(#98,#99,#100,#101));
#439=EDGE_LOOP('',(#102,#103,#104,#105,#106,#107,#108,#109,#110,#111,#112));
#440=EDGE_LOOP('',(#113));
#441=EDGE_LOOP('',(#114));
#442=EDGE_LOOP('',(#115,#116,#117,#118,#119));
#443=EDGE_LOOP('',(#120,#121,#122,#123));
#444=EDGE_LOOP('',(#124,#125,#126,#127));
#445=EDGE_LOOP('',(#128));
#446=EDGE_LOOP('',(#129));
#447=EDGE_LOOP('',(#130));
#448=EDGE_LOOP('',(#131,#132,#133,#134));
#449=EDGE_LOOP('',(#135,#136,#137,#138,#139));
#450=EDGE_LOOP('',(#140));
#451=EDGE_LOOP('',(#141));
#452=EDGE_LOOP('',(#142,#143,#144,#145));
#453=EDGE_LOOP('',(#146,#147,#148,#149));
#454=EDGE_LOOP('',(#150));
#455=EDGE_LOOP('',(#151));
#456=EDGE_LOOP('',(#152));
#457=EDGE_LOOP('',(#153,#154,#155,#156,#157,#158,#159,#160,#161,#162,#163,
#164));
#458=EDGE_LOOP('',(#165));
#459=EDGE_LOOP('',(#166));
#460=EDGE_LOOP('',(#167));
#461=EDGE_LOOP('',(#168));
#462=EDGE_LOOP('',(#169));
#463=EDGE_LOOP('',(#170));
#464=EDGE_LOOP('',(#171));
#465=EDGE_LOOP('',(#172));
#466=EDGE_LOOP('',(#173));
#467=EDGE_LOOP('',(#174));
#468=EDGE_LOOP('',(#175));
#469=EDGE_LOOP('',(#176));
#470=EDGE_LOOP('',(#177));
#471=EDGE_LOOP('',(#178));
#472=EDGE_LOOP('',(#179));
#473=EDGE_LOOP('',(#180));
#474=EDGE_LOOP('',(#181));
#475=EDGE_LOOP('',(#182));
#476=EDGE_LOOP('',(#183));
#477=EDGE_LOOP('',(#184,#185,#186,#187));
#478=EDGE_LOOP('',(#188,#189,#190,#191));
#479=EDGE_LOOP('',(#192));
#480=EDGE_LOOP('',(#193,#194,#195,#196));
#481=EDGE_LOOP('',(#197,#198,#199,#200));
#482=EDGE_LOOP('',(#201,#202,#203,#204));
#483=EDGE_LOOP('',(#205));
#484=EDGE_LOOP('',(#206));
#485=EDGE_LOOP('',(#207));
#486=EDGE_LOOP('',(#208));
#487=EDGE_LOOP('',(#209));
#488=EDGE_LOOP('',(#210));
#489=FACE_BOUND('',#424,.T.);
#490=FACE_BOUND('',#425,.T.);
#491=FACE_BOUND('',#426,.T.);
#492=FACE_BOUND('',#427,.T.);
#493=FACE_BOUND('',#428,.T.);
#494=FACE_BOUND('',#429,.T.);
#495=FACE_BOUND('',#430,.T.);
#496=FACE_BOUND('',#431,.T.);
#497=FACE_BOUND('',#432,.T.);
#498=FACE_BOUND('',#433,.T.);
#499=FACE_BOUND('',#434,.T.);
#500=FACE_BOUND('',#435,.T.);
#501=FACE_BOUND('',#436,.T.);
#502=FACE_BOUND('',#437,.T.);
#503=FACE_BOUND('',#438,.T.);
#504=FACE_BOUND('',#439,.T.);
#505=FACE_BOUND('',#440,.T.);
#506=FACE_BOUND('',#441,.T.);
#507=FACE_BOUND('',#442,.T.);
#508=FACE_BOUND('',#443,.T.);
#509=FACE_BOUND('',#444,.T.);
#510=FACE_BOUND('',#445,.T.);
#511=FACE_BOUND('',#446,.T.);
#512=FACE_BOUND('',#447,.T.);
#513=FACE_BOUND('',#448,.T.);
#514=FACE_BOUND('',#449,.T.);
#515=FACE_BOUND('',#450,.T.);
#516=FACE_BOUND('',#451,.T.);
#517=FACE_BOUND('',#452,.T.);
#518=FACE_BOUND('',#453,.T.);
#519=FACE_BOUND('',#454,.T.);
#520=FACE_BOUND('',#455,.T.);
#521=FACE_BOUND('',#456,.T.);
#522=FACE_BOUND('',#457,.T.);
#523=FACE_BOUND('',#458,.T.);
#524=FACE_BOUND('',#459,.T.);
#525=FACE_BOUND('',#460,.T.);
#526=FACE_BOUND('',#461,.T.);
#527=FACE_BOUND('',#462,.T.);
#528=FACE_BOUND('',#463,.T.);
#529=FACE_BOUND('',#464,.T.);
#530=FACE_BOUND('',#465,.T.);
#531=FACE_BOUND('',#466,.T.);
#532=FACE_BOUND('',#467,.T.);
#533=FACE_BOUND('',#468,.T.);
#534=FACE_BOUND('',#469,.T.);
#535=FACE_BOUND('',#470,.T.);
#536=FACE_BOUND('',#471,.T.);
#537=FACE_BOUND('',#472,.T.);
#538=FACE_BOUND('',#473,.T.);
#539=FACE_BOUND('',#474,.T.);
#540=FACE_BOUND('',#475,.T.);
#541=FACE_BOUND('',#476,.T.);
#542=FACE_BOUND('',#477,.T.);
#543=FACE_BOUND('',#478,.T.);
#544=FACE_BOUND('',#479,.T.);
#545=FACE_BOUND('',#480,.T.);
#546=FACE_BOUND('',#481,.T.);
#547=FACE_BOUND('',#482,.T.);
#548=FACE_BOUND('',#483,.T.);
#549=FACE_BOUND('',#484,.T.);
#550=FACE_BOUND('',#485,.T.);
#551=FACE_BOUND('',#486,.T.);
#552=FACE_BOUND('',#487,.T.);
#553=FACE_BOUND('',#488,.T.);
#554=PLANE('',#627);
#555=PLANE('',#628);
#556=PLANE('',#629);
#557=PLANE('',#630);
#558=PLANE('',#632);
#559=PLANE('',#643);
#560=PLANE('',#651);
#561=PLANE('',#657);
#562=PLANE('',#659);
#563=PLANE('',#662);
#564=PLANE('',#665);
#565=PLANE('',#667);
#566=PLANE('',#669);
#567=PLANE('',#672);
#568=PLANE('',#674);
#569=PLANE('',#678);
#570=PLANE('',#681);
#571=PLANE('',#682);
#572=PLANE('',#683);
#573=PLANE('',#684);
#574=PLANE('',#686);
#575=PLANE('',#687);
#576=PLANE('',#690);
#577=ADVANCED_FACE('',(#489),#554,.F.);
#578=ADVANCED_FACE('',(#490),#555,.F.);
#579=ADVANCED_FACE('',(#491,#492),#556,.F.);
#580=ADVANCED_FACE('',(#493,#494),#557,.F.);
#581=ADVANCED_FACE('',(#495,#496),#558,.T.);
#582=ADVANCED_FACE('',(#497,#498,#499),#24,.F.);
#583=ADVANCED_FACE('',(#500,#501,#502),#25,.F.);
#584=ADVANCED_FACE('',(#503),#26,.T.);
#585=ADVANCED_FACE('',(#504,#505,#506),#559,.T.);
#586=ADVANCED_FACE('',(#507),#27,.T.);
#587=ADVANCED_FACE('',(#508),#560,.T.);
#588=ADVANCED_FACE('',(#509),#28,.F.);
#589=ADVANCED_FACE('',(#510,#511),#29,.F.);
#590=ADVANCED_FACE('',(#512,#513),#561,.T.);
#591=ADVANCED_FACE('',(#514),#562,.T.);
#592=ADVANCED_FACE('',(#515,#516),#30,.F.);
#593=ADVANCED_FACE('',(#517),#563,.F.);
#594=ADVANCED_FACE('',(#518),#31,.F.);
#595=ADVANCED_FACE('',(#519,#520),#564,.T.);
#596=ADVANCED_FACE('',(#521,#522,#523),#565,.F.);
#597=ADVANCED_FACE('',(#524),#566,.F.);
#598=ADVANCED_FACE('',(#525,#526),#32,.F.);
#599=ADVANCED_FACE('',(#527,#528),#567,.F.);
#600=ADVANCED_FACE('',(#529,#530,#531),#33,.F.);
#601=ADVANCED_FACE('',(#532,#533),#568,.T.);
#602=ADVANCED_FACE('',(#534,#535,#536),#34,.F.);
#603=ADVANCED_FACE('',(#537),#569,.F.);
#604=ADVANCED_FACE('',(#538,#539),#35,.F.);
#605=ADVANCED_FACE('',(#540,#541),#570,.F.);
#606=ADVANCED_FACE('',(#542),#571,.F.);
#607=ADVANCED_FACE('',(#543),#572,.F.);
#608=ADVANCED_FACE('',(#544,#545),#573,.T.);
#609=ADVANCED_FACE('',(#546),#574,.T.);
#610=ADVANCED_FACE('',(#547),#575,.T.);
#611=ADVANCED_FACE('',(#548,#549),#36,.F.);
#612=ADVANCED_FACE('',(#550,#551),#576,.F.);
#613=ADVANCED_FACE('',(#552,#553),#37,.F.);
#614=CLOSED_SHELL('',(#577,#578,#579,#580,#581,#582,#583,#584,#585,#586,
#587,#588,#589,#590,#591,#592,#593,#594,#595,#596,#597,#598,#599,#600,#601,
#602,#603,#604,#605,#606,#607,#608,#609,#610,#611,#612,#613));
#615=STYLED_ITEM('',(#616),#623);
#616=PRESENTATION_STYLE_ASSIGNMENT((#617));
#617=SURFACE_STYLE_USAGE(.BOTH.,#618);
#618=SURFACE_SIDE_STYLE('',(#619));
#619=SURFACE_STYLE_FILL_AREA(#620);
#620=FILL_AREA_STYLE('',(#621));
#621=FILL_AREA_STYLE_COLOUR('',#622);
#622=COLOUR_RGB('',0.506983280181885,0.531564235687256,0.550000011920929);
#623=MANIFOLD_SOLID_BREP('',#614);
#624=SHAPE_DEFINITION_REPRESENTATION(#1078,#625);
#625=SHAPE_REPRESENTATION('25_FDML_stimfix_rods_guiding_addon',(#626),#1073);
#626=AXIS2_PLACEMENT_3D('',#869,#693,#694);
#627=AXIS2_PLACEMENT_3D('',#870,#695,#696);
#628=AXIS2_PLACEMENT_3D('',#879,#701,#702);
#629=AXIS2_PLACEMENT_3D('',#888,#707,#708);
#630=AXIS2_PLACEMENT_3D('',#899,#715,#716);
#631=AXIS2_PLACEMENT_3D('',#900,#717,#718);
#632=AXIS2_PLACEMENT_3D('',#912,#724,#725);
#633=AXIS2_PLACEMENT_3D('',#913,#726,#727);
#634=AXIS2_PLACEMENT_3D('',#920,#731,#732);
#635=AXIS2_PLACEMENT_3D('',#921,#733,#734);
#636=AXIS2_PLACEMENT_3D('',#923,#735,#736);
#637=AXIS2_PLACEMENT_3D('',#945,#737,#738);
#638=AXIS2_PLACEMENT_3D('',#946,#739,#740);
#639=AXIS2_PLACEMENT_3D('',#948,#741,#742);
#640=AXIS2_PLACEMENT_3D('',#970,#743,#744);
#641=AXIS2_PLACEMENT_3D('',#974,#746,#747);
#642=AXIS2_PLACEMENT_3D('',#975,#748,#749);
#643=AXIS2_PLACEMENT_3D('',#976,#750,#751);
#644=AXIS2_PLACEMENT_3D('',#979,#753,#754);
#645=AXIS2_PLACEMENT_3D('',#982,#756,#757);
#646=AXIS2_PLACEMENT_3D('',#989,#761,#762);
#647=AXIS2_PLACEMENT_3D('',#991,#763,#764);
#648=AXIS2_PLACEMENT_3D('',#993,#765,#766);
#649=AXIS2_PLACEMENT_3D('',#994,#767,#768);
#650=AXIS2_PLACEMENT_3D('',#998,#770,#771);
#651=AXIS2_PLACEMENT_3D('',#1001,#773,#774);
#652=AXIS2_PLACEMENT_3D('',#1007,#778,#779);
#653=AXIS2_PLACEMENT_3D('',#1008,#780,#781);
#654=AXIS2_PLACEMENT_3D('',#1009,#782,#783);
#655=AXIS2_PLACEMENT_3D('',#1010,#784,#785);
#656=AXIS2_PLACEMENT_3D('',#1011,#786,#787);
#657=AXIS2_PLACEMENT_3D('',#1013,#788,#789);
#658=AXIS2_PLACEMENT_3D('',#1014,#790,#791);
#659=AXIS2_PLACEMENT_3D('',#1019,#794,#795);
#660=AXIS2_PLACEMENT_3D('',#1020,#796,#797);
#661=AXIS2_PLACEMENT_3D('',#1021,#798,#799);
#662=AXIS2_PLACEMENT_3D('',#1023,#800,#801);
#663=AXIS2_PLACEMENT_3D('',#1027,#804,#805);
#664=AXIS2_PLACEMENT_3D('',#1028,#806,#807);
#665=AXIS2_PLACEMENT_3D('',#1029,#808,#809);
#666=AXIS2_PLACEMENT_3D('',#1030,#810,#811);
#667=AXIS2_PLACEMENT_3D('',#1032,#812,#813);
#668=AXIS2_PLACEMENT_3D('',#1033,#814,#815);
#669=AXIS2_PLACEMENT_3D('',#1038,#818,#819);
#670=AXIS2_PLACEMENT_3D('',#1039,#820,#821);
#671=AXIS2_PLACEMENT_3D('',#1040,#822,#823);
#672=AXIS2_PLACEMENT_3D('',#1042,#824,#825);
#673=AXIS2_PLACEMENT_3D('',#1043,#826,#827);
#674=AXIS2_PLACEMENT_3D('',#1044,#828,#829);
#675=AXIS2_PLACEMENT_3D('',#1045,#830,#831);
#676=AXIS2_PLACEMENT_3D('',#1046,#832,#833);
#677=AXIS2_PLACEMENT_3D('',#1048,#834,#835);
#678=AXIS2_PLACEMENT_3D('',#1050,#836,#837);
#679=AXIS2_PLACEMENT_3D('',#1051,#838,#839);
#680=AXIS2_PLACEMENT_3D('',#1052,#840,#841);
#681=AXIS2_PLACEMENT_3D('',#1054,#842,#843);
#682=AXIS2_PLACEMENT_3D('',#1055,#844,#845);
#683=AXIS2_PLACEMENT_3D('',#1057,#847,#848);
#684=AXIS2_PLACEMENT_3D('',#1058,#849,#850);
#685=AXIS2_PLACEMENT_3D('',#1059,#851,#852);
#686=AXIS2_PLACEMENT_3D('',#1063,#855,#856);
#687=AXIS2_PLACEMENT_3D('',#1064,#857,#858);
#688=AXIS2_PLACEMENT_3D('',#1065,#859,#860);
#689=AXIS2_PLACEMENT_3D('',#1066,#861,#862);
#690=AXIS2_PLACEMENT_3D('',#1068,#863,#864);
#691=AXIS2_PLACEMENT_3D('',#1069,#865,#866);
#692=AXIS2_PLACEMENT_3D('',#1071,#867,#868);
#693=DIRECTION('',(0.,0.,1.));
#694=DIRECTION('',(1.,0.,0.));
#695=DIRECTION('',(0.707106781186548,0.707106781186547,0.));
#696=DIRECTION('',(-0.707106781186547,0.707106781186548,0.));
#697=DIRECTION('',(0.,0.,-1.));
#698=DIRECTION('',(-0.707106781186547,0.707106781186548,0.));
#699=DIRECTION('',(2.60208521396521E-16,2.60208521396521E-16,1.));
#700=DIRECTION('',(-0.707106781186547,0.707106781186548,0.));
#701=DIRECTION('',(-0.707106781186548,-0.707106781186547,0.));
#702=DIRECTION('',(0.707106781186547,-0.707106781186548,0.));
#703=DIRECTION('',(0.,0.,1.));
#704=DIRECTION('',(0.707106781186547,-0.707106781186548,0.));
#705=DIRECTION('',(7.3598084000802E-16,7.35980840008019E-16,-1.));
#706=DIRECTION('',(0.707106781186547,-0.707106781186548,0.));
#707=DIRECTION('',(0.,0.,1.));
#708=DIRECTION('',(1.,0.,0.));
#709=DIRECTION('',(-0.707106781186547,-0.707106781186548,0.));
#710=DIRECTION('',(0.707106781186548,0.707106781186547,0.));
#711=DIRECTION('',(-0.707106781186548,-0.707106781186548,2.46519032881566E-32));
#712=DIRECTION('',(0.707106781186548,-0.707106781186547,0.));
#713=DIRECTION('',(0.707106781186547,0.707106781186548,1.97215226305253E-31));
#714=DIRECTION('',(-0.707106781186548,0.707106781186547,1.16767917461654E-16));
#715=DIRECTION('',(0.,0.,-1.));
#716=DIRECTION('',(-1.,0.,0.));
#717=DIRECTION('',(0.,0.,-1.));
#718=DIRECTION('',(0.,-1.,0.));
#719=DIRECTION('',(-0.707106781186547,-0.707106781186548,0.));
#720=DIRECTION('',(0.707106781186548,-0.707106781186547,1.81899037703187E-16));
#721=DIRECTION('',(-0.707106781186547,-0.707106781186548,0.));
#722=DIRECTION('',(1.,0.,0.));
#723=DIRECTION('',(-0.707106781186548,0.707106781186547,0.));
#724=DIRECTION('',(-0.707106781186548,0.707106781186547,-8.39661290520045E-16));
#725=DIRECTION('',(-0.707106781186547,-0.707106781186548,0.));
#726=DIRECTION('',(0.707106781186548,-0.707106781186547,8.39661290520045E-16));
#727=DIRECTION('',(-0.707106781186547,-0.707106781186548,0.));
#728=DIRECTION('',(5.93730192426571E-16,-5.93730192426571E-16,-1.));
#729=DIRECTION('',(-5.02240591495497E-16,5.02240591495497E-16,1.));
#730=DIRECTION('',(-0.707106781186547,-0.707106781186548,1.23259516440783E-32));
#731=DIRECTION('',(0.707106781186547,0.707106781186548,-1.23259516440783E-32));
#732=DIRECTION('',(-0.707106781186548,0.707106781186547,0.));
#733=DIRECTION('',(0.707106781186547,0.707106781186548,-2.46519032881566E-32));
#734=DIRECTION('',(0.707106781186548,-0.707106781186548,-1.16767917461654E-16));
#735=DIRECTION('',(0.707106781186547,0.707106781186548,-2.46519032881566E-32));
#736=DIRECTION('',(-0.707106781186548,0.707106781186548,1.16767917461654E-16));
#737=DIRECTION('',(0.707106781186547,-0.707106781186547,-2.12251960030905E-17));
#738=DIRECTION('',(0.707106781186548,0.707106781186548,0.));
#739=DIRECTION('',(-0.707106781186548,0.707106781186547,2.12251960030905E-17));
#740=DIRECTION('',(0.707106781186547,0.707106781186548,0.));
#741=DIRECTION('',(-0.707106781186548,0.707106781186547,2.12251960030905E-17));
#742=DIRECTION('',(-0.707106781186547,-0.707106781186548,0.));
#743=DIRECTION('',(-0.707106781186547,-0.707106781186548,1.23259516440783E-32));
#744=DIRECTION('',(0.707106781186548,-0.707106781186547,0.));
#745=DIRECTION('',(-0.707106781186547,-0.707106781186548,1.23259516440783E-32));
#746=DIRECTION('',(0.707106781186547,0.707106781186548,-2.46519032881566E-32));
#747=DIRECTION('',(0.707106781186548,-0.707106781186547,-1.16767917461654E-16));
#748=DIRECTION('',(0.707106781186547,0.707106781186548,-2.46519032881566E-32));
#749=DIRECTION('',(-0.707106781186548,0.707106781186547,1.16767917461654E-16));
#750=DIRECTION('',(0.707106781186547,0.707106781186548,0.));
#751=DIRECTION('',(-0.707106781186548,0.707106781186547,0.));
#752=DIRECTION('',(-8.25673862621665E-17,8.25673862621665E-17,-1.));
#753=DIRECTION('',(0.707106781186547,0.707106781186548,0.));
#754=DIRECTION('',(-0.707106781186548,0.707106781186547,0.));
#755=DIRECTION('',(0.,0.,1.));
#756=DIRECTION('',(0.707106781186547,0.707106781186548,-1.23259516440783E-32));
#757=DIRECTION('',(-0.707106781186548,0.707106781186547,1.40778847000803E-16));
#758=DIRECTION('',(1.50084800257989E-17,-1.50084800257989E-17,1.));
#759=DIRECTION('',(0.707106781186548,-0.707106781186547,-3.21951373581811E-16));
#760=DIRECTION('',(-2.05242800342978E-17,-7.05373197545107E-17,-1.));
#761=DIRECTION('',(0.707106781186547,0.707106781186548,-1.23259516440783E-32));
#762=DIRECTION('',(0.707106781186548,-0.707106781186547,-1.40778847000803E-16));
#763=DIRECTION('',(0.707106781186547,0.707106781186548,-2.46519032881566E-32));
#764=DIRECTION('',(0.707106781186548,-0.707106781186547,-1.16767917461654E-16));
#765=DIRECTION('',(-0.707106781186547,-0.707106781186548,1.23259516440783E-32));
#766=DIRECTION('',(0.707106781186548,-0.707106781186547,0.));
#767=DIRECTION('',(0.,1.,0.));
#768=DIRECTION('',(-1.,0.,1.74315279842105E-32));
#769=DIRECTION('',(-0.707106781186547,-0.707106781186548,1.23259516440783E-32));
#770=DIRECTION('',(0.707106781186547,0.707106781186548,-2.46519032881566E-32));
#771=DIRECTION('',(-0.707106781186548,0.707106781186547,1.16767917461654E-16));
#772=DIRECTION('',(-0.707106781186547,-0.707106781186548,1.23259516440783E-32));
#773=DIRECTION('',(-0.707106781186548,0.707106781186547,4.99449761778742E-18));
#774=DIRECTION('',(-0.707106781186547,-0.707106781186548,0.));
#775=DIRECTION('',(-7.06328626831508E-18,0.,-1.));
#776=DIRECTION('',(-0.707106781186547,-0.707106781186548,0.));
#777=DIRECTION('',(2.1141557253808E-16,-2.1141557253808E-16,1.));
#778=DIRECTION('',(-0.707106781186547,-0.707106781186548,0.));
#779=DIRECTION('',(0.707106781186548,-0.707106781186547,0.));
#780=DIRECTION('',(0.,1.,0.));
#781=DIRECTION('',(-1.,0.,0.));
#782=DIRECTION('',(-0.707106781186547,-0.707106781186548,2.46519032881566E-32));
#783=DIRECTION('',(-0.707106781186547,0.707106781186547,1.16767917461654E-16));
#784=DIRECTION('',(-0.707106781186547,-0.707106781186548,1.23259516440783E-32));
#785=DIRECTION('',(0.707106781186548,-0.707106781186547,0.));
#786=DIRECTION('',(0.707106781186547,0.707106781186548,-1.23259516440783E-32));
#787=DIRECTION('',(-0.707106781186548,0.707106781186547,1.40778847000803E-16));
#788=DIRECTION('',(0.707106781186548,-0.707106781186547,-2.12251960030905E-17));
#789=DIRECTION('',(0.707106781186547,0.707106781186548,0.));
#790=DIRECTION('',(-0.707106781186548,0.707106781186547,2.12251960030905E-17));
#791=DIRECTION('',(0.707106781186547,0.707106781186548,0.));
#792=DIRECTION('',(5.93730192426572E-16,-5.93730192426572E-16,-1.));
#793=DIRECTION('',(0.707106781186547,0.707106781186548,1.97215226305253E-31));
#794=DIRECTION('',(0.,1.,0.));
#795=DIRECTION('',(0.,0.,1.));
#796=DIRECTION('',(-0.707106781186547,-0.707106781186548,1.23259516440783E-32));
#797=DIRECTION('',(0.707106781186548,-0.707106781186547,0.));
#798=DIRECTION('',(0.707106781186547,0.707106781186548,-2.46519032881566E-32));
#799=DIRECTION('',(0.707106781186548,-0.707106781186547,-1.16767917461654E-16));
#800=DIRECTION('',(-0.707106781186548,0.707106781186547,1.16767917461654E-16));
#801=DIRECTION('',(-0.707106781186547,-0.707106781186548,0.));
#802=DIRECTION('',(-1.11335287646948E-15,1.11335287646948E-15,-1.));
#803=DIRECTION('',(-0.707106781186547,-0.707106781186548,-1.23259516440783E-32));
#804=DIRECTION('',(0.707106781186547,0.707106781186548,0.));
#805=DIRECTION('',(-0.707106781186548,0.707106781186547,0.));
#806=DIRECTION('',(-0.707106781186547,-0.707106781186548,2.46519032881566E-32));
#807=DIRECTION('',(0.707106781186548,-0.707106781186547,-1.16767917461654E-16));
#808=DIRECTION('',(0.707106781186547,0.707106781186548,-2.46519032881566E-32));
#809=DIRECTION('',(-0.707106781186548,0.707106781186547,0.));
#810=DIRECTION('',(0.707106781186547,0.707106781186548,-2.77333911991762E-32));
#811=DIRECTION('',(0.707106781186548,-0.707106781186547,-4.72517939818195E-17));
#812=DIRECTION('',(0.707106781186547,0.707106781186548,-2.46519032881566E-32));
#813=DIRECTION('',(-0.707106781186548,0.707106781186547,0.));
#814=DIRECTION('',(0.707106781186547,0.707106781186548,-2.77333911991762E-32));
#815=DIRECTION('',(0.707106781186548,-0.707106781186547,-4.72517939818195E-17));
#816=DIRECTION('',(-2.05242800342978E-17,-7.05373197545107E-17,-1.));
#817=DIRECTION('',(0.707106781186548,-0.707106781186547,-3.21951373581811E-16));
#818=DIRECTION('',(-0.707106781186548,0.707106781186547,2.12251960030905E-17));
#819=DIRECTION('',(-0.707106781186547,-0.707106781186548,0.));
#820=DIRECTION('',(0.707106781186548,-0.707106781186548,-2.12251960030905E-17));
#821=DIRECTION('',(0.707106781186548,0.707106781186548,0.));
#822=DIRECTION('',(-0.707106781186548,0.707106781186547,2.12251960030905E-17));
#823=DIRECTION('',(0.707106781186547,0.707106781186548,0.));
#824=DIRECTION('',(-0.707106781186548,0.707106781186547,2.12251960030905E-17));
#825=DIRECTION('',(-0.707106781186547,-0.707106781186548,0.));
#826=DIRECTION('',(-0.707106781186547,-0.707106781186548,2.77333911991762E-32));
#827=DIRECTION('',(0.707106781186548,-0.707106781186547,0.));
#828=DIRECTION('',(0.707106781186547,0.707106781186548,-2.46519032881566E-32));
#829=DIRECTION('',(-0.707106781186548,0.707106781186547,0.));
#830=DIRECTION('',(-0.707106781186548,0.707106781186547,-8.39661290520045E-16));
#831=DIRECTION('',(-0.707106781186547,-0.707106781186548,0.));
#832=DIRECTION('',(0.707106781186548,-0.707106781186547,8.39661290520045E-16));
#833=DIRECTION('',(0.707106781186547,0.707106781186548,0.));
#834=DIRECTION('',(0.707106781186548,-0.707106781186547,8.39661290520045E-16));
#835=DIRECTION('',(-0.707106781186547,-0.707106781186548,0.));
#836=DIRECTION('',(0.707106781186548,-0.707106781186547,8.39661290520045E-16));
#837=DIRECTION('',(0.707106781186547,0.707106781186548,0.));
#838=DIRECTION('',(-0.707106781186548,0.707106781186547,-8.39661290520045E-16));
#839=DIRECTION('',(-0.707106781186547,-0.707106781186548,0.));
#840=DIRECTION('',(0.707106781186548,-0.707106781186547,8.39661290520045E-16));
#841=DIRECTION('',(-0.707106781186547,-0.707106781186548,0.));
#842=DIRECTION('',(0.707106781186548,-0.707106781186547,8.39661290520045E-16));
#843=DIRECTION('',(0.707106781186547,0.707106781186548,0.));
#844=DIRECTION('',(0.707106781186548,-0.707106781186547,3.53645595339147E-17));
#845=DIRECTION('',(0.707106781186547,0.707106781186548,0.));
#846=DIRECTION('',(0.707106781186547,0.707106781186548,1.97215226305253E-31));
#847=DIRECTION('',(2.27653999472022E-16,-2.27653999472022E-16,1.));
#848=DIRECTION('',(0.,-1.,-2.27653999472022E-16));
#849=DIRECTION('',(0.,0.,-1.));
#850=DIRECTION('',(-1.,0.,0.));
#851=DIRECTION('',(0.,0.,1.));
#852=DIRECTION('',(0.707106781186548,0.707106781186547,0.));
#853=DIRECTION('',(0.707106781186547,0.707106781186548,0.));
#854=DIRECTION('',(-0.707106781186548,-0.707106781186547,0.));
#855=DIRECTION('',(-0.707106781186547,0.707106781186548,0.));
#856=DIRECTION('',(-0.707106781186548,-0.707106781186547,0.));
#857=DIRECTION('',(0.707106781186548,-0.707106781186547,0.));
#858=DIRECTION('',(0.707106781186547,0.707106781186548,0.));
#859=DIRECTION('',(0.,0.,-1.));
#860=DIRECTION('',(-1.,0.,0.));
#861=DIRECTION('',(0.,0.,1.));
#862=DIRECTION('',(0.707106781186548,0.707106781186547,0.));
#863=DIRECTION('',(0.,0.,-1.));
#864=DIRECTION('',(-1.,0.,0.));
#865=DIRECTION('',(0.,0.,-1.));
#866=DIRECTION('',(0.,-1.,0.));
#867=DIRECTION('',(0.,0.,1.));
#868=DIRECTION('',(1.,0.,0.));
#869=CARTESIAN_POINT('',(0.,0.,0.));
#870=CARTESIAN_POINT('',(12.6767766952966,-5.00089283436705,-2.60208521396521E-15));
#871=CARTESIAN_POINT('',(11.3757002179134,-3.6998163569838,-2.60208521396521E-15));
#872=CARTESIAN_POINT('',(11.3757002179134,-3.6998163569838,5.));
#873=CARTESIAN_POINT('',(11.3757002179134,-3.6998163569838,-2.60208521396521E-15));
#874=CARTESIAN_POINT('',(12.6767766952966,-5.00089283436705,5.));
#875=CARTESIAN_POINT('',(-6.30196931175029,13.9778531726799,5.));
#876=CARTESIAN_POINT('',(-6.30196931175029,13.9778531726799,-2.60208521396521E-15));
#877=CARTESIAN_POINT('',(-6.30196931175029,13.9778531726799,-2.60208521396521E-15));
#878=CARTESIAN_POINT('',(12.6767766952966,-5.00089283436705,-2.60208521396521E-15));
#879=CARTESIAN_POINT('',(10.555456351737,10.555456351737,-2.60208521396521E-15));
#880=CARTESIAN_POINT('',(18.0932146391856,3.0176980642884,-2.60208521396521E-15));
#881=CARTESIAN_POINT('',(18.0932146391856,3.0176980642884,-2.60208521396521E-15));
#882=CARTESIAN_POINT('',(18.0932146391856,3.0176980642884,5.));
#883=CARTESIAN_POINT('',(1.71662158690515,19.3942911165688,-2.60208521396521E-15));
#884=CARTESIAN_POINT('',(0.415545109521905,20.6953675939521,-2.60208521396521E-15));
#885=CARTESIAN_POINT('',(0.415545109521905,20.6953675939521,-2.60208521396521E-15));
#886=CARTESIAN_POINT('',(0.415545109521902,20.6953675939521,5.));
#887=CARTESIAN_POINT('',(10.555456351737,10.555456351737,5.));
#888=CARTESIAN_POINT('',(0.,0.,5.));
#889=CARTESIAN_POINT('',(18.0932146391856,3.0176980642884,5.));
#890=CARTESIAN_POINT('',(-6.30196931175029,13.9778531726799,5.));
#891=CARTESIAN_POINT('',(-6.83730785838651,48.3170210741642,5.));
#892=CARTESIAN_POINT('',(-15.0771644662753,40.0771644662753,5.));
#893=CARTESIAN_POINT('',(-33.4595378287363,21.6947911038144,5.));
#894=CARTESIAN_POINT('',(17.5,7.5,5.));
#895=CARTESIAN_POINT('',(28.8765930522804,-3.87659305228043,5.));
#896=CARTESIAN_POINT('',(10.4942196898195,-22.2589664147414,5.));
#897=CARTESIAN_POINT('',(10.4942196898195,-22.2589664147414,5.));
#898=CARTESIAN_POINT('',(21.6947911038144,-33.4595378287363,5.));
#899=CARTESIAN_POINT('',(0.,0.,11.75));
#900=CARTESIAN_POINT('',(5.89562266371764,8.49777561848414,11.75));
#901=CARTESIAN_POINT('',(5.89562266371764,6.49777561848414,11.75));
#902=CARTESIAN_POINT('',(-13.660547955513,11.7952961672027,11.75));
#903=CARTESIAN_POINT('',(-0.227922061357886,25.2279220613578,11.75));
#904=CARTESIAN_POINT('',(-18.6102954238188,6.84554869889688,11.75));
#905=CARTESIAN_POINT('',(6.84554869889689,-18.6102954238188,11.75));
#906=CARTESIAN_POINT('',(6.84554869889689,-18.6102954238188,11.75));
#907=CARTESIAN_POINT('',(12.7279220613579,-12.7279220613578,11.75));
#908=CARTESIAN_POINT('',(22.4558441227157,-3.,11.75));
#909=CARTESIAN_POINT('',(15.,-3.,11.75));
#910=CARTESIAN_POINT('',(28.,-3.,11.75));
#911=CARTESIAN_POINT('',(17.5,7.5,11.75));
#912=CARTESIAN_POINT('',(-15.0771644662753,40.0771644662753,19.51));
#913=CARTESIAN_POINT('',(-30.9846640945834,24.1696648379673,15.9899999999999));
#914=CARTESIAN_POINT('',(-31.9746135882446,23.1797153443061,15.9899999999999));
#915=CARTESIAN_POINT('',(-15.0771644662753,40.0771644662753,19.51));
#916=CARTESIAN_POINT('',(-15.0771644662754,40.0771644662754,19.51));
#917=CARTESIAN_POINT('',(-33.4595378287363,21.6947911038144,19.51));
#918=CARTESIAN_POINT('',(-33.4595378287363,21.6947911038144,19.51));
#919=CARTESIAN_POINT('',(-15.0771644662754,40.0771644662754,19.51));
#920=CARTESIAN_POINT('',(-27.0955767980574,15.3308300731355,19.51));
#921=CARTESIAN_POINT('',(-22.1458293297516,20.2805775414413,19.51));
#922=CARTESIAN_POINT('',(-19.9184429690139,18.0531911807037,19.51));
#923=CARTESIAN_POINT('',(-27.0955767980574,15.3308300731355,19.51));
#924=CARTESIAN_POINT('',(-29.322963158795,17.5582164338731,19.51));
#925=CARTESIAN_POINT('',(-25.7014024278796,17.5924044268348,16.4003924280752));
#926=CARTESIAN_POINT('',(-25.2814747849596,17.142829807058,16.3400260726979));
#927=CARTESIAN_POINT('',(-24.8384647349912,16.7289512693809,16.3995032811331));
#928=CARTESIAN_POINT('',(-24.3611500267056,16.3806211482555,16.5723256321111));
#929=CARTESIAN_POINT('',(-23.8322614634606,16.1810391110746,16.8468241900003));
#930=CARTESIAN_POINT('',(-23.2205823012954,16.4032900299692,17.061489845954));
#931=CARTESIAN_POINT('',(-22.9955895266995,17.0168865081767,16.8472129765873));
#932=CARTESIAN_POINT('',(-23.1951056732794,17.5445280587827,16.5731670897027));
#933=CARTESIAN_POINT('',(-23.5411257715549,18.0203647583528,16.400122482415));
#934=CARTESIAN_POINT('',(-23.9589111533761,18.4675719617929,16.3399827516623));
#935=CARTESIAN_POINT('',(-24.4050447360336,18.8842627926337,16.3999465496466));
#936=CARTESIAN_POINT('',(-24.8803964354242,19.2308211603944,16.5725024205567));
#937=CARTESIAN_POINT('',(-25.4103034657194,19.4304704016639,16.8473511046358));
#938=CARTESIAN_POINT('',(-26.0204830769755,19.2076897211713,17.0611670008598));
#939=CARTESIAN_POINT('',(-26.2459322626163,18.596218941998,16.847977306957));
#940=CARTESIAN_POINT('',(-26.0461904667279,18.0664880233803,16.5730724267566));
#941=CARTESIAN_POINT('',(-25.7014024278796,17.5924044268348,16.4003924280752));
#942=CARTESIAN_POINT('',(-25.2814747849596,17.142829807058,16.3400260726979));
#943=CARTESIAN_POINT('',(-24.8384647349912,16.7289512693809,16.3995032811331));
#944=CARTESIAN_POINT('',(-25.2776277171182,17.1487791540746,16.36));
#945=CARTESIAN_POINT('',(15.6136727856101,-22.4286720422262,15.99));
#946=CARTESIAN_POINT('',(15.6136727856101,-22.4286720422262,15.99));
#947=CARTESIAN_POINT('',(16.3207795667966,-21.7215652610396,15.99));
#948=CARTESIAN_POINT('',(19.9977348289667,-26.8127340855828,15.99));
#949=CARTESIAN_POINT('',(19.2906280477801,-27.5198408667693,15.99));
#950=CARTESIAN_POINT('',(17.0173640052642,-22.9955171627669,16.8468661434251));
#951=CARTESIAN_POINT('',(16.4043826270617,-23.2196126281706,17.0614919719974));
#952=CARTESIAN_POINT('',(16.1807374315637,-23.8316598093221,16.8471659685851));
#953=CARTESIAN_POINT('',(16.3807233582715,-24.3609608780463,16.5725335321838));
#954=CARTESIAN_POINT('',(16.7268434078752,-24.8360862437417,16.3999691795097));
#955=CARTESIAN_POINT('',(17.144851788913,-25.2835809843715,16.3398771846637));
#956=CARTESIAN_POINT('',(17.5925173264677,-25.7014479809063,16.4005240457241));
#957=CARTESIAN_POINT('',(18.0681436605688,-26.047325483974,16.5737450874945));
#958=CARTESIAN_POINT('',(18.5980300321324,-26.2459069691728,16.8489091453176));
#959=CARTESIAN_POINT('',(19.2090689188946,-26.019452728462,17.0613068810361));
#960=CARTESIAN_POINT('',(19.4304123248012,-25.407142405526,16.8458396230271));
#961=CARTESIAN_POINT('',(19.2296051932356,-24.8783624297826,16.5714561590556));
#962=CARTESIAN_POINT('',(18.8812352574492,-24.4015143191493,16.3991416734943));
#963=CARTESIAN_POINT('',(18.4673366498199,-23.9587391074101,16.3401223643963));
#964=CARTESIAN_POINT('',(18.0196602136735,-23.5406719334915,16.4003704859263));
#965=CARTESIAN_POINT('',(17.5467232091251,-23.196381070371,16.5722533716257));
#966=CARTESIAN_POINT('',(17.0173640052642,-22.9955171627669,16.8468661434251));
#967=CARTESIAN_POINT('',(16.4043826270617,-23.2196126281706,17.0614919719974));
#968=CARTESIAN_POINT('',(16.1807374315637,-23.8316598093221,16.8471659685851));
#969=CARTESIAN_POINT('',(16.4692719908458,-23.2842712474619,16.99));
#970=CARTESIAN_POINT('',(-8.71320343559642,33.7132034355964,19.51));
#971=CARTESIAN_POINT('',(-2.34924240491749,27.3492424049175,19.51));
#972=CARTESIAN_POINT('',(-2.34924240491749,27.3492424049175,19.51));
#973=CARTESIAN_POINT('',(-20.7316157673785,8.96686904245653,19.51));
#974=CARTESIAN_POINT('',(-8.71320343559642,33.7132034355964,19.51));
#975=CARTESIAN_POINT('',(-27.0955767980574,15.3308300731355,19.51));
#976=CARTESIAN_POINT('',(17.5,7.5,7.77190342020889));
#977=CARTESIAN_POINT('',(-2.34924240491749,27.3492424049175,19.51));
#978=CARTESIAN_POINT('',(-2.34924240491749,27.3492424049175,14.75));
#979=CARTESIAN_POINT('',(-0.227922061357869,25.2279220613578,14.75));
#980=CARTESIAN_POINT('',(28.,-3.,7.77190342020889));
#981=CARTESIAN_POINT('',(28.,-3.,23.4746706051044));
#982=CARTESIAN_POINT('',(33.7132034355964,-8.71320343559641,19.51));
#983=CARTESIAN_POINT('',(40.0771644662754,-15.0771644662753,19.51));
#984=CARTESIAN_POINT('',(40.0771644662754,-15.0771644662753,19.51));
#985=CARTESIAN_POINT('',(40.0771644662754,-15.0771644662753,-14.4194919980238));
#986=CARTESIAN_POINT('',(28.8765930522804,-3.87659305228043,-14.4194919980238));
#987=CARTESIAN_POINT('',(28.8765930522804,-3.87659305228043,-14.4194919980238));
#988=CARTESIAN_POINT('',(28.8765930522804,-3.87659305228043,5.));
#989=CARTESIAN_POINT('',(33.7132034355964,-8.71320343559641,19.51));
#990=CARTESIAN_POINT('',(37.9558441227157,-12.9558441227157,19.51));
#991=CARTESIAN_POINT('',(-8.71320343559642,33.7132034355964,19.51));
#992=CARTESIAN_POINT('',(-4.47056274847714,29.4705627484771,19.51));
#993=CARTESIAN_POINT('',(33.7132034355964,-8.71320343559641,19.51));
#994=CARTESIAN_POINT('',(39.4264068711928,-3.,19.51));
#995=CARTESIAN_POINT('',(26.698484809835,-3.,19.51));
#996=CARTESIAN_POINT('',(86.7129136707202,57.0144288608852,19.51));
#997=CARTESIAN_POINT('',(8.96686904245653,-20.7316157673785,19.51));
#998=CARTESIAN_POINT('',(15.3308300731355,-27.0955767980574,19.51));
#999=CARTESIAN_POINT('',(21.6947911038144,-33.4595378287363,19.51));
#1000=CARTESIAN_POINT('',(40.0771644662754,-15.0771644662753,19.51));
#1001=CARTESIAN_POINT('',(86.7129136707202,57.0144288608852,19.51));
#1002=CARTESIAN_POINT('',(26.698484809835,-3.,19.51));
#1003=CARTESIAN_POINT('',(26.698484809835,-3.,14.75));
#1004=CARTESIAN_POINT('',(86.7129136707202,57.0144288608852,14.75));
#1005=CARTESIAN_POINT('',(8.96686904245654,-20.7316157673785,14.75));
#1006=CARTESIAN_POINT('',(8.96686904245653,-20.7316157673785,19.51));
#1007=CARTESIAN_POINT('',(84.5915933271606,59.1357492044449,14.75));
#1008=CARTESIAN_POINT('',(22.4558441227157,-3.,14.75));
#1009=CARTESIAN_POINT('',(6.84554869889689,-18.6102954238188,14.75));
#1010=CARTESIAN_POINT('',(33.7132034355964,-8.71320343559641,19.51));
#1011=CARTESIAN_POINT('',(20.2805775414413,-22.1458293297516,19.51));
#1012=CARTESIAN_POINT('',(16.037936854322,-17.9031886426323,19.51));
#1013=CARTESIAN_POINT('',(40.0771644662754,-15.0771644662753,19.51));
#1014=CARTESIAN_POINT('',(24.1696648379673,-30.9846640945834,15.99));
#1015=CARTESIAN_POINT('',(25.1596143316285,-29.9947146009222,15.99));
#1016=CARTESIAN_POINT('',(21.6947911038144,-33.4595378287363,19.51));
#1017=CARTESIAN_POINT('',(21.6947911038144,-33.4595378287363,-14.4194919980238));
#1018=CARTESIAN_POINT('',(21.6947911038144,-33.4595378287363,-14.4194919980238));
#1019=CARTESIAN_POINT('',(15.,-3.,55.1883818650394));
#1020=CARTESIAN_POINT('',(-8.71320343559642,33.7132034355964,19.51));
#1021=CARTESIAN_POINT('',(-22.1458293297516,20.2805775414413,19.51));
#1022=CARTESIAN_POINT('',(-17.9031886426323,16.037936854322,19.51));
#1023=CARTESIAN_POINT('',(-2.34924240491749,27.3492424049175,19.51));
#1024=CARTESIAN_POINT('',(-20.7316157673785,8.96686904245653,19.51));
#1025=CARTESIAN_POINT('',(-20.7316157673785,8.96686904245653,14.75));
#1026=CARTESIAN_POINT('',(-2.34924240491749,27.3492424049175,14.75));
#1027=CARTESIAN_POINT('',(-12.7279220613579,12.7279220613579,14.75));
#1028=CARTESIAN_POINT('',(-18.6102954238188,6.84554869889688,14.75));
#1029=CARTESIAN_POINT('',(20.2805775414413,-22.1458293297516,19.51));
#1030=CARTESIAN_POINT('',(20.2805775414413,-22.1458293297516,19.51));
#1031=CARTESIAN_POINT('',(22.5079639021789,-24.3732156904892,19.51));
#1032=CARTESIAN_POINT('',(15.3308300731355,-27.0955767980574,19.51));
#1033=CARTESIAN_POINT('',(15.3308300731355,-27.0955767980574,19.51));
#1034=CARTESIAN_POINT('',(17.5582164338731,-29.322963158795,19.51));
#1035=CARTESIAN_POINT('',(10.4942196898195,-22.2589664147414,5.));
#1036=CARTESIAN_POINT('',(10.4942196898195,-22.2589664147414,-14.4194919980238));
#1037=CARTESIAN_POINT('',(10.4942196898195,-22.2589664147414,-14.4194919980238));
#1038=CARTESIAN_POINT('',(15.6136727856101,-22.4286720422262,15.99));
#1039=CARTESIAN_POINT('',(19.9977348289667,-26.8127340855828,15.99));
#1040=CARTESIAN_POINT('',(19.9977348289667,-26.8127340855828,15.99));
#1041=CARTESIAN_POINT('',(20.9876843226278,-25.8227845919216,15.99));
#1042=CARTESIAN_POINT('',(19.9977348289667,-26.8127340855828,15.99));
#1043=CARTESIAN_POINT('',(20.2805775414413,-22.1458293297516,19.51));
#1044=CARTESIAN_POINT('',(-22.1458293297516,20.2805775414413,19.51));
#1045=CARTESIAN_POINT('',(-22.3933167031668,15.5783174465507,15.9899999999999));
#1046=CARTESIAN_POINT('',(-26.8480894246421,20.033090168026,15.9899999999999));
#1047=CARTESIAN_POINT('',(-26.1409826434556,20.7401969492125,15.9899999999999));
#1048=CARTESIAN_POINT('',(-22.3933167031668,15.5783174465507,15.9899999999999));
#1049=CARTESIAN_POINT('',(-23.1004234843534,14.8712106653642,15.9899999999999));
#1050=CARTESIAN_POINT('',(-22.3933167031668,15.5783174465507,15.9899999999999));
#1051=CARTESIAN_POINT('',(-26.8480894246421,20.033090168026,15.9899999999999));
#1052=CARTESIAN_POINT('',(-26.8480894246421,20.033090168026,15.9899999999999));
#1053=CARTESIAN_POINT('',(-27.8380389183033,19.0431406743648,15.9899999999999));
#1054=CARTESIAN_POINT('',(-26.8480894246421,20.033090168026,15.9899999999999));
#1055=CARTESIAN_POINT('',(10.4942196898195,-22.2589664147414,5.));
#1056=CARTESIAN_POINT('',(10.4942196898195,-22.2589664147414,-14.4194919980238));
#1057=CARTESIAN_POINT('',(10.4942196898195,-22.2589664147414,-14.4194919980238));
#1058=CARTESIAN_POINT('',(0.,0.,-2.60208521396521E-15));
#1059=CARTESIAN_POINT('',(5.89562266371764,8.49777561848414,-2.60208521396521E-15));
#1060=CARTESIAN_POINT('',(7.22144787844242,9.82360083320892,-2.60208521396521E-15));
#1061=CARTESIAN_POINT('',(18.0932146391856,3.0176980642884,-2.60208521396521E-15));
#1062=CARTESIAN_POINT('',(-6.30196931175029,13.9778531726799,-2.60208521396521E-15));
#1063=CARTESIAN_POINT('',(-10.1399112422151,10.1399112422151,0.));
#1064=CARTESIAN_POINT('',(7.53775828744859,-7.53775828744859,0.));
#1065=CARTESIAN_POINT('',(5.89562266371764,8.49777561848414,5.));
#1066=CARTESIAN_POINT('',(5.89562266371764,8.49777561848414,5.));
#1067=CARTESIAN_POINT('',(7.22144787844242,9.82360083320892,5.));
#1068=CARTESIAN_POINT('',(5.89562266371764,8.49777561848414,5.));
#1069=CARTESIAN_POINT('',(5.89562266371764,8.49777561848414,5.));
#1070=CARTESIAN_POINT('',(5.89562266371764,6.49777561848414,5.));
#1071=CARTESIAN_POINT('',(5.89562266371764,8.49777561848414,5.));
#1072=MECHANICAL_DESIGN_GEOMETRIC_PRESENTATION_REPRESENTATION('',(#615),
#1073);
#1073=(
GEOMETRIC_REPRESENTATION_CONTEXT(3)
GLOBAL_UNCERTAINTY_ASSIGNED_CONTEXT((#1074))
GLOBAL_UNIT_ASSIGNED_CONTEXT((#1077,#1076,#1075))
REPRESENTATION_CONTEXT('25_FDML_stimfix_rods_guiding_addon',
'TOP_LEVEL_ASSEMBLY_PART')
);
#1074=UNCERTAINTY_MEASURE_WITH_UNIT(LENGTH_MEASURE(0.005),#1077,
'DISTANCE_ACCURACY_VALUE','Maximum Tolerance applied to model');
#1075=(
NAMED_UNIT(*)
SI_UNIT($,.STERADIAN.)
SOLID_ANGLE_UNIT()
);
#1076=(
NAMED_UNIT(*)
PLANE_ANGLE_UNIT()
SI_UNIT($,.RADIAN.)
);
#1077=(
LENGTH_UNIT()
NAMED_UNIT(*)
SI_UNIT(.MILLI.,.METRE.)
);
#1078=PRODUCT_DEFINITION_SHAPE('','',#1079);
#1079=PRODUCT_DEFINITION('','',#1081,#1080);
#1080=PRODUCT_DEFINITION_CONTEXT('',#1087,'design');
#1081=PRODUCT_DEFINITION_FORMATION_WITH_SPECIFIED_SOURCE('','',#1083,
 .NOT_KNOWN.);
#1082=PRODUCT_RELATED_PRODUCT_CATEGORY('','',(#1083));
#1083=PRODUCT('25_FDML_stimfix_rods_guiding_addon',
'25_FDML_stimfix_rods_guiding_addon',
'25_FDML_stimfix_rods_guiding_addon',(#1085));
#1084=PRODUCT_CATEGORY('','');
#1085=PRODUCT_CONTEXT('',#1087,'mechanical');
#1086=APPLICATION_PROTOCOL_DEFINITION('international standard',
'automotive_design',2010,#1087);
#1087=APPLICATION_CONTEXT(
'core data for automotive mechanical design processes');
ENDSEC;
END-ISO-10303-21;
