ISO-10303-21;
HEADER;
/* Generated by software containing ST-Developer
 * from STEP Tools, Inc. (www.steptools.com) 
 */
/* OPTION: strings as raw bytes, not using required /X/ escapes */

FILE_DESCRIPTION(
/* description */ ('Unknown'),
/* implementation_level */ '2;1');

FILE_NAME(
/* name */ '04_FDML_stimfix_PCB_boards_housing',
/* time_stamp */ '2026-09-07T13:56:00+02:00',
/* author */ ('Unknown'),
/* organization */ ('Unknown'),
/* preprocessor_version */ 'ST-DEVELOPER v16.7',
/* originating_system */ 'Solid Edge',
/* authorisation */ 'Unknown');

FILE_SCHEMA (('AUTOMOTIVE_DESIGN {1 0 10303 214 3 1 1}'));
ENDSEC;

DATA;
#10=PROPERTY_DEFINITION_REPRESENTATION(#14,#12);
#11=PROPERTY_DEFINITION_REPRESENTATION(#15,#13);
#12=REPRESENTATION('',(#16),#2051);
#13=REPRESENTATION('',(#17),#2051);
#14=PROPERTY_DEFINITION('pmi validation property','',#2056);
#15=PROPERTY_DEFINITION('pmi validation property','',#2056);
#16=VALUE_REPRESENTATION_ITEM('number of annotations',COUNT_MEASURE(0.));
#17=VALUE_REPRESENTATION_ITEM('number of views',COUNT_MEASURE(0.));
#18=SHAPE_REPRESENTATION_RELATIONSHIP('','',#1283,#19);
#19=ADVANCED_BREP_SHAPE_REPRESENTATION('',(#1281),#2051);
#20=CYLINDRICAL_SURFACE('',#1297,1.25);
#21=CYLINDRICAL_SURFACE('',#1300,1.25);
#22=CYLINDRICAL_SURFACE('',#1308,1.75);
#23=CYLINDRICAL_SURFACE('',#1311,1.75);
#24=CYLINDRICAL_SURFACE('',#1314,1.75);
#25=CYLINDRICAL_SURFACE('',#1317,1.75);
#26=CYLINDRICAL_SURFACE('',#1334,1.95);
#27=CYLINDRICAL_SURFACE('',#1335,1.95);
#28=CYLINDRICAL_SURFACE('',#1336,1.00000008801276);
#29=CYLINDRICAL_SURFACE('',#1338,1.00000008801276);
#30=CYLINDRICAL_SURFACE('',#1340,1.);
#31=CYLINDRICAL_SURFACE('',#1342,1.);
#32=LINE('',#1705,#174);
#33=LINE('',#1708,#175);
#34=LINE('',#1710,#176);
#35=LINE('',#1712,#177);
#36=LINE('',#1714,#178);
#37=LINE('',#1717,#179);
#38=LINE('',#1719,#180);
#39=LINE('',#1721,#181);
#40=LINE('',#1723,#182);
#41=LINE('',#1725,#183);
#42=LINE('',#1727,#184);
#43=LINE('',#1729,#185);
#44=LINE('',#1731,#186);
#45=LINE('',#1733,#187);
#46=LINE('',#1735,#188);
#47=LINE('',#1738,#189);
#48=LINE('',#1740,#190);
#49=LINE('',#1742,#191);
#50=LINE('',#1744,#192);
#51=LINE('',#1746,#193);
#52=LINE('',#1748,#194);
#53=LINE('',#1750,#195);
#54=LINE('',#1752,#196);
#55=LINE('',#1754,#197);
#56=LINE('',#1756,#198);
#57=LINE('',#1759,#199);
#58=LINE('',#1761,#200);
#59=LINE('',#1763,#201);
#60=LINE('',#1765,#202);
#61=LINE('',#1768,#203);
#62=LINE('',#1770,#204);
#63=LINE('',#1772,#205);
#64=LINE('',#1778,#206);
#65=LINE('',#1779,#207);
#66=LINE('',#1781,#208);
#67=LINE('',#1782,#209);
#68=LINE('',#1784,#210);
#69=LINE('',#1785,#211);
#70=LINE('',#1787,#212);
#71=LINE('',#1789,#213);
#72=LINE('',#1791,#214);
#73=LINE('',#1793,#215);
#74=LINE('',#1805,#216);
#75=LINE('',#1807,#217);
#76=LINE('',#1809,#218);
#77=LINE('',#1811,#219);
#78=LINE('',#1813,#220);
#79=LINE('',#1815,#221);
#80=LINE('',#1817,#222);
#81=LINE('',#1819,#223);
#82=LINE('',#1821,#224);
#83=LINE('',#1823,#225);
#84=LINE('',#1825,#226);
#85=LINE('',#1827,#227);
#86=LINE('',#1829,#228);
#87=LINE('',#1831,#229);
#88=LINE('',#1833,#230);
#89=LINE('',#1835,#231);
#90=LINE('',#1837,#232);
#91=LINE('',#1839,#233);
#92=LINE('',#1841,#234);
#93=LINE('',#1843,#235);
#94=LINE('',#1845,#236);
#95=LINE('',#1847,#237);
#96=LINE('',#1849,#238);
#97=LINE('',#1851,#239);
#98=LINE('',#1853,#240);
#99=LINE('',#1855,#241);
#100=LINE('',#1857,#242);
#101=LINE('',#1859,#243);
#102=LINE('',#1861,#244);
#103=LINE('',#1863,#245);
#104=LINE('',#1865,#246);
#105=LINE('',#1867,#247);
#106=LINE('',#1868,#248);
#107=LINE('',#1870,#249);
#108=LINE('',#1871,#250);
#109=LINE('',#1893,#251);
#110=LINE('',#1899,#252);
#111=LINE('',#1901,#253);
#112=LINE('',#1903,#254);
#113=LINE('',#1909,#255);
#114=LINE('',#1911,#256);
#115=LINE('',#1913,#257);
#116=LINE('',#1915,#258);
#117=LINE('',#1917,#259);
#118=LINE('',#1918,#260);
#119=LINE('',#1920,#261);
#120=LINE('',#1922,#262);
#121=LINE('',#1924,#263);
#122=LINE('',#1926,#264);
#123=LINE('',#1928,#265);
#124=LINE('',#1930,#266);
#125=LINE('',#1931,#267);
#126=LINE('',#1933,#268);
#127=LINE('',#1935,#269);
#128=LINE('',#1936,#270);
#129=LINE('',#1938,#271);
#130=LINE('',#1940,#272);
#131=LINE('',#1942,#273);
#132=LINE('',#1944,#274);
#133=LINE('',#1946,#275);
#134=LINE('',#1948,#276);
#135=LINE('',#1949,#277);
#136=LINE('',#1951,#278);
#137=LINE('',#1953,#279);
#138=LINE('',#1955,#280);
#139=LINE('',#1957,#281);
#140=LINE('',#1959,#282);
#141=LINE('',#1979,#283);
#142=LINE('',#1981,#284);
#143=LINE('',#1982,#285);
#144=LINE('',#1986,#286);
#145=LINE('',#1988,#287);
#146=LINE('',#1989,#288);
#147=LINE('',#1995,#289);
#148=LINE('',#1998,#290);
#149=LINE('',#2000,#291);
#150=LINE('',#2002,#292);
#151=LINE('',#2004,#293);
#152=LINE('',#2006,#294);
#153=LINE('',#2008,#295);
#154=LINE('',#2010,#296);
#155=LINE('',#2012,#297);
#156=LINE('',#2014,#298);
#157=LINE('',#2016,#299);
#158=LINE('',#2018,#300);
#159=LINE('',#2020,#301);
#160=LINE('',#2022,#302);
#161=LINE('',#2024,#303);
#162=LINE('',#2026,#304);
#163=LINE('',#2028,#305);
#164=LINE('',#2030,#306);
#165=LINE('',#2031,#307);
#166=LINE('',#2033,#308);
#167=LINE('',#2035,#309);
#168=LINE('',#2037,#310);
#169=LINE('',#2039,#311);
#170=LINE('',#2041,#312);
#171=LINE('',#2044,#313);
#172=LINE('',#2046,#314);
#173=LINE('',#2048,#315);
#174=VECTOR('',#1383,1000.);
#175=VECTOR('',#1384,1000.);
#176=VECTOR('',#1385,1000.);
#177=VECTOR('',#1386,1000.);
#178=VECTOR('',#1389,1000.);
#179=VECTOR('',#1390,1000.);
#180=VECTOR('',#1391,1000.);
#181=VECTOR('',#1392,1000.);
#182=VECTOR('',#1393,1000.);
#183=VECTOR('',#1394,1000.);
#184=VECTOR('',#1395,1000.);
#185=VECTOR('',#1396,1000.);
#186=VECTOR('',#1397,1000.);
#187=VECTOR('',#1398,1000.);
#188=VECTOR('',#1401,1000.);
#189=VECTOR('',#1402,1000.);
#190=VECTOR('',#1403,1000.);
#191=VECTOR('',#1404,1000.);
#192=VECTOR('',#1405,1000.);
#193=VECTOR('',#1406,1000.);
#194=VECTOR('',#1407,1000.);
#195=VECTOR('',#1408,1000.);
#196=VECTOR('',#1409,1000.);
#197=VECTOR('',#1410,1000.);
#198=VECTOR('',#1413,1000.);
#199=VECTOR('',#1414,1000.);
#200=VECTOR('',#1415,1000.);
#201=VECTOR('',#1416,1000.);
#202=VECTOR('',#1419,1000.);
#203=VECTOR('',#1420,1000.);
#204=VECTOR('',#1421,1000.);
#205=VECTOR('',#1422,1000.);
#206=VECTOR('',#1429,1000.);
#207=VECTOR('',#1430,1000.);
#208=VECTOR('',#1433,1000.);
#209=VECTOR('',#1434,1000.);
#210=VECTOR('',#1437,1000.);
#211=VECTOR('',#1438,1000.);
#212=VECTOR('',#1439,1000.);
#213=VECTOR('',#1440,1000.);
#214=VECTOR('',#1441,1000.);
#215=VECTOR('',#1442,1000.);
#216=VECTOR('',#1457,1000.);
#217=VECTOR('',#1458,1000.);
#218=VECTOR('',#1459,1000.);
#219=VECTOR('',#1460,1000.);
#220=VECTOR('',#1461,1000.);
#221=VECTOR('',#1462,1000.);
#222=VECTOR('',#1463,1000.);
#223=VECTOR('',#1464,1000.);
#224=VECTOR('',#1465,1000.);
#225=VECTOR('',#1466,1000.);
#226=VECTOR('',#1469,1000.);
#227=VECTOR('',#1470,1000.);
#228=VECTOR('',#1471,1000.);
#229=VECTOR('',#1472,1000.);
#230=VECTOR('',#1473,1000.);
#231=VECTOR('',#1474,1000.);
#232=VECTOR('',#1475,1000.);
#233=VECTOR('',#1476,1000.);
#234=VECTOR('',#1477,1000.);
#235=VECTOR('',#1478,1000.);
#236=VECTOR('',#1481,1000.);
#237=VECTOR('',#1482,1000.);
#238=VECTOR('',#1483,1000.);
#239=VECTOR('',#1484,1000.);
#240=VECTOR('',#1485,1000.);
#241=VECTOR('',#1486,1000.);
#242=VECTOR('',#1487,1000.);
#243=VECTOR('',#1488,1000.);
#244=VECTOR('',#1489,1000.);
#245=VECTOR('',#1490,1000.);
#246=VECTOR('',#1491,1000.);
#247=VECTOR('',#1494,1000.);
#248=VECTOR('',#1495,1000.);
#249=VECTOR('',#1498,1000.);
#250=VECTOR('',#1499,1000.);
#251=VECTOR('',#1526,1000.);
#252=VECTOR('',#1533,1000.);
#253=VECTOR('',#1534,1000.);
#254=VECTOR('',#1535,1000.);
#255=VECTOR('',#1542,1000.);
#256=VECTOR('',#1543,1000.);
#257=VECTOR('',#1544,1000.);
#258=VECTOR('',#1547,1000.);
#259=VECTOR('',#1548,1000.);
#260=VECTOR('',#1549,1000.);
#261=VECTOR('',#1552,1000.);
#262=VECTOR('',#1555,1000.);
#263=VECTOR('',#1558,1000.);
#264=VECTOR('',#1561,1000.);
#265=VECTOR('',#1562,1000.);
#266=VECTOR('',#1565,1000.);
#267=VECTOR('',#1566,1000.);
#268=VECTOR('',#1569,1000.);
#269=VECTOR('',#1570,1000.);
#270=VECTOR('',#1571,1000.);
#271=VECTOR('',#1572,1000.);
#272=VECTOR('',#1573,1000.);
#273=VECTOR('',#1574,1000.);
#274=VECTOR('',#1575,1000.);
#275=VECTOR('',#1576,1000.);
#276=VECTOR('',#1577,1000.);
#277=VECTOR('',#1578,1000.);
#278=VECTOR('',#1579,1000.);
#279=VECTOR('',#1580,1000.);
#280=VECTOR('',#1581,1000.);
#281=VECTOR('',#1582,1000.);
#282=VECTOR('',#1583,1000.);
#283=VECTOR('',#1614,1000.);
#284=VECTOR('',#1617,1000.);
#285=VECTOR('',#1618,1000.);
#286=VECTOR('',#1625,1000.);
#287=VECTOR('',#1628,1000.);
#288=VECTOR('',#1629,1000.);
#289=VECTOR('',#1640,1000.);
#290=VECTOR('',#1645,1000.);
#291=VECTOR('',#1646,1000.);
#292=VECTOR('',#1649,1000.);
#293=VECTOR('',#1650,1000.);
#294=VECTOR('',#1653,1000.);
#295=VECTOR('',#1654,1000.);
#296=VECTOR('',#1655,1000.);
#297=VECTOR('',#1656,1000.);
#298=VECTOR('',#1657,1000.);
#299=VECTOR('',#1658,1000.);
#300=VECTOR('',#1661,1000.);
#301=VECTOR('',#1662,1000.);
#302=VECTOR('',#1663,1000.);
#303=VECTOR('',#1664,1000.);
#304=VECTOR('',#1665,1000.);
#305=VECTOR('',#1666,1000.);
#306=VECTOR('',#1669,1000.);
#307=VECTOR('',#1670,1000.);
#308=VECTOR('',#1673,1000.);
#309=VECTOR('',#1676,1000.);
#310=VECTOR('',#1679,1000.);
#311=VECTOR('',#1682,1000.);
#312=VECTOR('',#1685,1000.);
#313=VECTOR('',#1690,1000.);
#314=VECTOR('',#1693,1000.);
#315=VECTOR('',#1696,1000.);
#316=ORIENTED_EDGE('',*,*,#648,.T.);
#317=ORIENTED_EDGE('',*,*,#649,.T.);
#318=ORIENTED_EDGE('',*,*,#650,.F.);
#319=ORIENTED_EDGE('',*,*,#651,.F.);
#320=ORIENTED_EDGE('',*,*,#652,.T.);
#321=ORIENTED_EDGE('',*,*,#653,.F.);
#322=ORIENTED_EDGE('',*,*,#654,.F.);
#323=ORIENTED_EDGE('',*,*,#655,.T.);
#324=ORIENTED_EDGE('',*,*,#656,.T.);
#325=ORIENTED_EDGE('',*,*,#657,.T.);
#326=ORIENTED_EDGE('',*,*,#658,.F.);
#327=ORIENTED_EDGE('',*,*,#659,.F.);
#328=ORIENTED_EDGE('',*,*,#660,.F.);
#329=ORIENTED_EDGE('',*,*,#661,.T.);
#330=ORIENTED_EDGE('',*,*,#662,.T.);
#331=ORIENTED_EDGE('',*,*,#663,.F.);
#332=ORIENTED_EDGE('',*,*,#664,.F.);
#333=ORIENTED_EDGE('',*,*,#665,.F.);
#334=ORIENTED_EDGE('',*,*,#666,.T.);
#335=ORIENTED_EDGE('',*,*,#667,.T.);
#336=ORIENTED_EDGE('',*,*,#668,.F.);
#337=ORIENTED_EDGE('',*,*,#669,.T.);
#338=ORIENTED_EDGE('',*,*,#670,.F.);
#339=ORIENTED_EDGE('',*,*,#671,.T.);
#340=ORIENTED_EDGE('',*,*,#672,.F.);
#341=ORIENTED_EDGE('',*,*,#673,.T.);
#342=ORIENTED_EDGE('',*,*,#674,.F.);
#343=ORIENTED_EDGE('',*,*,#675,.F.);
#344=ORIENTED_EDGE('',*,*,#676,.T.);
#345=ORIENTED_EDGE('',*,*,#677,.F.);
#346=ORIENTED_EDGE('',*,*,#678,.F.);
#347=ORIENTED_EDGE('',*,*,#679,.F.);
#348=ORIENTED_EDGE('',*,*,#680,.F.);
#349=ORIENTED_EDGE('',*,*,#681,.F.);
#350=ORIENTED_EDGE('',*,*,#682,.T.);
#351=ORIENTED_EDGE('',*,*,#683,.T.);
#352=ORIENTED_EDGE('',*,*,#679,.T.);
#353=ORIENTED_EDGE('',*,*,#684,.T.);
#354=ORIENTED_EDGE('',*,*,#677,.T.);
#355=ORIENTED_EDGE('',*,*,#685,.T.);
#356=ORIENTED_EDGE('',*,*,#686,.F.);
#357=ORIENTED_EDGE('',*,*,#667,.F.);
#358=ORIENTED_EDGE('',*,*,#687,.T.);
#359=ORIENTED_EDGE('',*,*,#661,.F.);
#360=ORIENTED_EDGE('',*,*,#688,.F.);
#361=ORIENTED_EDGE('',*,*,#658,.T.);
#362=ORIENTED_EDGE('',*,*,#689,.T.);
#363=ORIENTED_EDGE('',*,*,#690,.T.);
#364=ORIENTED_EDGE('',*,*,#691,.T.);
#365=ORIENTED_EDGE('',*,*,#692,.T.);
#366=ORIENTED_EDGE('',*,*,#693,.T.);
#367=ORIENTED_EDGE('',*,*,#670,.T.);
#368=ORIENTED_EDGE('',*,*,#694,.T.);
#369=ORIENTED_EDGE('',*,*,#695,.F.);
#370=ORIENTED_EDGE('',*,*,#696,.T.);
#371=ORIENTED_EDGE('',*,*,#697,.F.);
#372=ORIENTED_EDGE('',*,*,#693,.F.);
#373=ORIENTED_EDGE('',*,*,#698,.F.);
#374=ORIENTED_EDGE('',*,*,#699,.T.);
#375=ORIENTED_EDGE('',*,*,#700,.F.);
#376=ORIENTED_EDGE('',*,*,#701,.T.);
#377=ORIENTED_EDGE('',*,*,#702,.F.);
#378=ORIENTED_EDGE('',*,*,#703,.T.);
#379=ORIENTED_EDGE('',*,*,#704,.F.);
#380=ORIENTED_EDGE('',*,*,#705,.F.);
#381=ORIENTED_EDGE('',*,*,#706,.F.);
#382=ORIENTED_EDGE('',*,*,#707,.F.);
#383=ORIENTED_EDGE('',*,*,#671,.F.);
#384=ORIENTED_EDGE('',*,*,#689,.F.);
#385=ORIENTED_EDGE('',*,*,#657,.F.);
#386=ORIENTED_EDGE('',*,*,#708,.T.);
#387=ORIENTED_EDGE('',*,*,#709,.F.);
#388=ORIENTED_EDGE('',*,*,#710,.F.);
#389=ORIENTED_EDGE('',*,*,#711,.F.);
#390=ORIENTED_EDGE('',*,*,#712,.T.);
#391=ORIENTED_EDGE('',*,*,#713,.F.);
#392=ORIENTED_EDGE('',*,*,#714,.F.);
#393=ORIENTED_EDGE('',*,*,#715,.F.);
#394=ORIENTED_EDGE('',*,*,#716,.T.);
#395=ORIENTED_EDGE('',*,*,#717,.F.);
#396=ORIENTED_EDGE('',*,*,#691,.F.);
#397=ORIENTED_EDGE('',*,*,#718,.F.);
#398=ORIENTED_EDGE('',*,*,#719,.T.);
#399=ORIENTED_EDGE('',*,*,#720,.F.);
#400=ORIENTED_EDGE('',*,*,#721,.F.);
#401=ORIENTED_EDGE('',*,*,#722,.F.);
#402=ORIENTED_EDGE('',*,*,#723,.T.);
#403=ORIENTED_EDGE('',*,*,#724,.F.);
#404=ORIENTED_EDGE('',*,*,#725,.T.);
#405=ORIENTED_EDGE('',*,*,#726,.F.);
#406=ORIENTED_EDGE('',*,*,#727,.T.);
#407=ORIENTED_EDGE('',*,*,#728,.F.);
#408=ORIENTED_EDGE('',*,*,#713,.T.);
#409=ORIENTED_EDGE('',*,*,#729,.T.);
#410=ORIENTED_EDGE('',*,*,#722,.T.);
#411=ORIENTED_EDGE('',*,*,#730,.T.);
#412=ORIENTED_EDGE('',*,*,#724,.T.);
#413=ORIENTED_EDGE('',*,*,#731,.T.);
#414=ORIENTED_EDGE('',*,*,#702,.T.);
#415=ORIENTED_EDGE('',*,*,#732,.T.);
#416=ORIENTED_EDGE('',*,*,#733,.T.);
#417=ORIENTED_EDGE('',*,*,#734,.F.);
#418=ORIENTED_EDGE('',*,*,#735,.T.);
#419=ORIENTED_EDGE('',*,*,#736,.F.);
#420=ORIENTED_EDGE('',*,*,#737,.T.);
#421=ORIENTED_EDGE('',*,*,#738,.F.);
#422=ORIENTED_EDGE('',*,*,#739,.T.);
#423=ORIENTED_EDGE('',*,*,#740,.F.);
#424=ORIENTED_EDGE('',*,*,#685,.F.);
#425=ORIENTED_EDGE('',*,*,#676,.F.);
#426=ORIENTED_EDGE('',*,*,#741,.F.);
#427=ORIENTED_EDGE('',*,*,#680,.T.);
#428=ORIENTED_EDGE('',*,*,#742,.F.);
#429=ORIENTED_EDGE('',*,*,#743,.F.);
#430=ORIENTED_EDGE('',*,*,#744,.F.);
#431=ORIENTED_EDGE('',*,*,#745,.T.);
#432=ORIENTED_EDGE('',*,*,#746,.T.);
#433=ORIENTED_EDGE('',*,*,#706,.T.);
#434=ORIENTED_EDGE('',*,*,#747,.F.);
#435=ORIENTED_EDGE('',*,*,#748,.F.);
#436=ORIENTED_EDGE('',*,*,#749,.F.);
#437=ORIENTED_EDGE('',*,*,#750,.T.);
#438=ORIENTED_EDGE('',*,*,#751,.T.);
#439=ORIENTED_EDGE('',*,*,#709,.T.);
#440=ORIENTED_EDGE('',*,*,#752,.T.);
#441=ORIENTED_EDGE('',*,*,#653,.T.);
#442=ORIENTED_EDGE('',*,*,#753,.T.);
#443=ORIENTED_EDGE('',*,*,#711,.T.);
#444=ORIENTED_EDGE('',*,*,#754,.F.);
#445=ORIENTED_EDGE('',*,*,#751,.F.);
#446=ORIENTED_EDGE('',*,*,#755,.T.);
#447=ORIENTED_EDGE('',*,*,#754,.T.);
#448=ORIENTED_EDGE('',*,*,#710,.T.);
#449=ORIENTED_EDGE('',*,*,#656,.F.);
#450=ORIENTED_EDGE('',*,*,#756,.T.);
#451=ORIENTED_EDGE('',*,*,#749,.T.);
#452=ORIENTED_EDGE('',*,*,#708,.F.);
#453=ORIENTED_EDGE('',*,*,#746,.F.);
#454=ORIENTED_EDGE('',*,*,#757,.T.);
#455=ORIENTED_EDGE('',*,*,#672,.T.);
#456=ORIENTED_EDGE('',*,*,#707,.T.);
#457=ORIENTED_EDGE('',*,*,#758,.F.);
#458=ORIENTED_EDGE('',*,*,#759,.T.);
#459=ORIENTED_EDGE('',*,*,#744,.T.);
#460=ORIENTED_EDGE('',*,*,#705,.T.);
#461=ORIENTED_EDGE('',*,*,#704,.T.);
#462=ORIENTED_EDGE('',*,*,#760,.T.);
#463=ORIENTED_EDGE('',*,*,#651,.T.);
#464=ORIENTED_EDGE('',*,*,#761,.T.);
#465=ORIENTED_EDGE('',*,*,#758,.T.);
#466=ORIENTED_EDGE('',*,*,#762,.T.);
#467=ORIENTED_EDGE('',*,*,#663,.T.);
#468=ORIENTED_EDGE('',*,*,#763,.T.);
#469=ORIENTED_EDGE('',*,*,#665,.T.);
#470=ORIENTED_EDGE('',*,*,#764,.T.);
#471=ORIENTED_EDGE('',*,*,#765,.T.);
#472=ORIENTED_EDGE('',*,*,#766,.T.);
#473=ORIENTED_EDGE('',*,*,#767,.T.);
#474=ORIENTED_EDGE('',*,*,#768,.T.);
#475=ORIENTED_EDGE('',*,*,#769,.T.);
#476=ORIENTED_EDGE('',*,*,#770,.T.);
#477=ORIENTED_EDGE('',*,*,#681,.T.);
#478=ORIENTED_EDGE('',*,*,#741,.T.);
#479=ORIENTED_EDGE('',*,*,#675,.T.);
#480=ORIENTED_EDGE('',*,*,#771,.T.);
#481=ORIENTED_EDGE('',*,*,#772,.T.);
#482=ORIENTED_EDGE('',*,*,#773,.T.);
#483=ORIENTED_EDGE('',*,*,#774,.T.);
#484=ORIENTED_EDGE('',*,*,#775,.T.);
#485=ORIENTED_EDGE('',*,*,#776,.T.);
#486=ORIENTED_EDGE('',*,*,#683,.F.);
#487=ORIENTED_EDGE('',*,*,#648,.F.);
#488=ORIENTED_EDGE('',*,*,#682,.F.);
#489=ORIENTED_EDGE('',*,*,#649,.F.);
#490=ORIENTED_EDGE('',*,*,#743,.T.);
#491=ORIENTED_EDGE('',*,*,#777,.F.);
#492=ORIENTED_EDGE('',*,*,#748,.T.);
#493=ORIENTED_EDGE('',*,*,#778,.F.);
#494=ORIENTED_EDGE('',*,*,#747,.T.);
#495=ORIENTED_EDGE('',*,*,#779,.F.);
#496=ORIENTED_EDGE('',*,*,#742,.T.);
#497=ORIENTED_EDGE('',*,*,#780,.F.);
#498=ORIENTED_EDGE('',*,*,#779,.T.);
#499=ORIENTED_EDGE('',*,*,#739,.F.);
#500=ORIENTED_EDGE('',*,*,#778,.T.);
#501=ORIENTED_EDGE('',*,*,#737,.F.);
#502=ORIENTED_EDGE('',*,*,#777,.T.);
#503=ORIENTED_EDGE('',*,*,#735,.F.);
#504=ORIENTED_EDGE('',*,*,#780,.T.);
#505=ORIENTED_EDGE('',*,*,#733,.F.);
#506=ORIENTED_EDGE('',*,*,#690,.F.);
#507=ORIENTED_EDGE('',*,*,#717,.T.);
#508=ORIENTED_EDGE('',*,*,#781,.T.);
#509=ORIENTED_EDGE('',*,*,#718,.T.);
#510=ORIENTED_EDGE('',*,*,#738,.T.);
#511=ORIENTED_EDGE('',*,*,#740,.T.);
#512=ORIENTED_EDGE('',*,*,#782,.T.);
#513=ORIENTED_EDGE('',*,*,#720,.T.);
#514=ORIENTED_EDGE('',*,*,#783,.T.);
#515=ORIENTED_EDGE('',*,*,#715,.T.);
#516=ORIENTED_EDGE('',*,*,#721,.T.);
#517=ORIENTED_EDGE('',*,*,#782,.F.);
#518=ORIENTED_EDGE('',*,*,#714,.T.);
#519=ORIENTED_EDGE('',*,*,#730,.F.);
#520=ORIENTED_EDGE('',*,*,#781,.F.);
#521=ORIENTED_EDGE('',*,*,#716,.F.);
#522=ORIENTED_EDGE('',*,*,#783,.F.);
#523=ORIENTED_EDGE('',*,*,#719,.F.);
#524=ORIENTED_EDGE('',*,*,#692,.F.);
#525=ORIENTED_EDGE('',*,*,#728,.T.);
#526=ORIENTED_EDGE('',*,*,#784,.T.);
#527=ORIENTED_EDGE('',*,*,#698,.T.);
#528=ORIENTED_EDGE('',*,*,#736,.T.);
#529=ORIENTED_EDGE('',*,*,#734,.T.);
#530=ORIENTED_EDGE('',*,*,#785,.T.);
#531=ORIENTED_EDGE('',*,*,#726,.T.);
#532=ORIENTED_EDGE('',*,*,#786,.T.);
#533=ORIENTED_EDGE('',*,*,#700,.T.);
#534=ORIENTED_EDGE('',*,*,#785,.F.);
#535=ORIENTED_EDGE('',*,*,#699,.F.);
#536=ORIENTED_EDGE('',*,*,#784,.F.);
#537=ORIENTED_EDGE('',*,*,#727,.F.);
#538=ORIENTED_EDGE('',*,*,#732,.F.);
#539=ORIENTED_EDGE('',*,*,#701,.F.);
#540=ORIENTED_EDGE('',*,*,#786,.F.);
#541=ORIENTED_EDGE('',*,*,#725,.F.);
#542=ORIENTED_EDGE('',*,*,#723,.F.);
#543=ORIENTED_EDGE('',*,*,#729,.F.);
#544=ORIENTED_EDGE('',*,*,#712,.F.);
#545=ORIENTED_EDGE('',*,*,#753,.F.);
#546=ORIENTED_EDGE('',*,*,#652,.F.);
#547=ORIENTED_EDGE('',*,*,#760,.F.);
#548=ORIENTED_EDGE('',*,*,#703,.F.);
#549=ORIENTED_EDGE('',*,*,#731,.F.);
#550=ORIENTED_EDGE('',*,*,#696,.F.);
#551=ORIENTED_EDGE('',*,*,#694,.F.);
#552=ORIENTED_EDGE('',*,*,#666,.F.);
#553=ORIENTED_EDGE('',*,*,#763,.F.);
#554=ORIENTED_EDGE('',*,*,#662,.F.);
#555=ORIENTED_EDGE('',*,*,#687,.F.);
#556=ORIENTED_EDGE('',*,*,#688,.T.);
#557=ORIENTED_EDGE('',*,*,#669,.F.);
#558=ORIENTED_EDGE('',*,*,#787,.F.);
#559=ORIENTED_EDGE('',*,*,#659,.T.);
#560=ORIENTED_EDGE('',*,*,#695,.T.);
#561=ORIENTED_EDGE('',*,*,#697,.T.);
#562=ORIENTED_EDGE('',*,*,#686,.T.);
#563=ORIENTED_EDGE('',*,*,#660,.T.);
#564=ORIENTED_EDGE('',*,*,#787,.T.);
#565=ORIENTED_EDGE('',*,*,#668,.T.);
#566=ORIENTED_EDGE('',*,*,#654,.T.);
#567=ORIENTED_EDGE('',*,*,#762,.F.);
#568=ORIENTED_EDGE('',*,*,#788,.F.);
#569=ORIENTED_EDGE('',*,*,#789,.T.);
#570=ORIENTED_EDGE('',*,*,#664,.T.);
#571=ORIENTED_EDGE('',*,*,#790,.T.);
#572=ORIENTED_EDGE('',*,*,#791,.T.);
#573=ORIENTED_EDGE('',*,*,#764,.F.);
#574=ORIENTED_EDGE('',*,*,#792,.F.);
#575=ORIENTED_EDGE('',*,*,#793,.F.);
#576=ORIENTED_EDGE('',*,*,#794,.F.);
#577=ORIENTED_EDGE('',*,*,#795,.F.);
#578=ORIENTED_EDGE('',*,*,#796,.F.);
#579=ORIENTED_EDGE('',*,*,#797,.F.);
#580=ORIENTED_EDGE('',*,*,#790,.F.);
#581=ORIENTED_EDGE('',*,*,#673,.F.);
#582=ORIENTED_EDGE('',*,*,#757,.F.);
#583=ORIENTED_EDGE('',*,*,#745,.F.);
#584=ORIENTED_EDGE('',*,*,#759,.F.);
#585=ORIENTED_EDGE('',*,*,#761,.F.);
#586=ORIENTED_EDGE('',*,*,#755,.F.);
#587=ORIENTED_EDGE('',*,*,#750,.F.);
#588=ORIENTED_EDGE('',*,*,#756,.F.);
#589=ORIENTED_EDGE('',*,*,#655,.F.);
#590=ORIENTED_EDGE('',*,*,#789,.F.);
#591=ORIENTED_EDGE('',*,*,#798,.F.);
#592=ORIENTED_EDGE('',*,*,#799,.F.);
#593=ORIENTED_EDGE('',*,*,#800,.F.);
#594=ORIENTED_EDGE('',*,*,#801,.F.);
#595=ORIENTED_EDGE('',*,*,#802,.F.);
#596=ORIENTED_EDGE('',*,*,#803,.F.);
#597=ORIENTED_EDGE('',*,*,#752,.F.);
#598=ORIENTED_EDGE('',*,*,#674,.T.);
#599=ORIENTED_EDGE('',*,*,#684,.F.);
#600=ORIENTED_EDGE('',*,*,#678,.T.);
#601=ORIENTED_EDGE('',*,*,#770,.F.);
#602=ORIENTED_EDGE('',*,*,#804,.F.);
#603=ORIENTED_EDGE('',*,*,#792,.T.);
#604=ORIENTED_EDGE('',*,*,#650,.T.);
#605=ORIENTED_EDGE('',*,*,#803,.T.);
#606=ORIENTED_EDGE('',*,*,#805,.T.);
#607=ORIENTED_EDGE('',*,*,#771,.F.);
#608=ORIENTED_EDGE('',*,*,#776,.F.);
#609=ORIENTED_EDGE('',*,*,#806,.F.);
#610=ORIENTED_EDGE('',*,*,#798,.T.);
#611=ORIENTED_EDGE('',*,*,#788,.T.);
#612=ORIENTED_EDGE('',*,*,#765,.F.);
#613=ORIENTED_EDGE('',*,*,#791,.F.);
#614=ORIENTED_EDGE('',*,*,#797,.T.);
#615=ORIENTED_EDGE('',*,*,#807,.T.);
#616=ORIENTED_EDGE('',*,*,#766,.F.);
#617=ORIENTED_EDGE('',*,*,#807,.F.);
#618=ORIENTED_EDGE('',*,*,#796,.T.);
#619=ORIENTED_EDGE('',*,*,#808,.T.);
#620=ORIENTED_EDGE('',*,*,#767,.F.);
#621=ORIENTED_EDGE('',*,*,#808,.F.);
#622=ORIENTED_EDGE('',*,*,#795,.T.);
#623=ORIENTED_EDGE('',*,*,#809,.T.);
#624=ORIENTED_EDGE('',*,*,#768,.F.);
#625=ORIENTED_EDGE('',*,*,#809,.F.);
#626=ORIENTED_EDGE('',*,*,#794,.T.);
#627=ORIENTED_EDGE('',*,*,#810,.T.);
#628=ORIENTED_EDGE('',*,*,#769,.F.);
#629=ORIENTED_EDGE('',*,*,#810,.F.);
#630=ORIENTED_EDGE('',*,*,#793,.T.);
#631=ORIENTED_EDGE('',*,*,#804,.T.);
#632=ORIENTED_EDGE('',*,*,#772,.F.);
#633=ORIENTED_EDGE('',*,*,#805,.F.);
#634=ORIENTED_EDGE('',*,*,#802,.T.);
#635=ORIENTED_EDGE('',*,*,#811,.T.);
#636=ORIENTED_EDGE('',*,*,#773,.F.);
#637=ORIENTED_EDGE('',*,*,#811,.F.);
#638=ORIENTED_EDGE('',*,*,#801,.T.);
#639=ORIENTED_EDGE('',*,*,#812,.T.);
#640=ORIENTED_EDGE('',*,*,#774,.F.);
#641=ORIENTED_EDGE('',*,*,#812,.F.);
#642=ORIENTED_EDGE('',*,*,#800,.T.);
#643=ORIENTED_EDGE('',*,*,#813,.T.);
#644=ORIENTED_EDGE('',*,*,#775,.F.);
#645=ORIENTED_EDGE('',*,*,#813,.F.);
#646=ORIENTED_EDGE('',*,*,#799,.T.);
#647=ORIENTED_EDGE('',*,*,#806,.T.);
#648=EDGE_CURVE('',#814,#814,#932,.T.);
#649=EDGE_CURVE('',#815,#815,#933,.T.);
#650=EDGE_CURVE('',#816,#817,#32,.T.);
#651=EDGE_CURVE('',#818,#816,#33,.T.);
#652=EDGE_CURVE('',#818,#819,#34,.T.);
#653=EDGE_CURVE('',#817,#819,#35,.T.);
#654=EDGE_CURVE('',#820,#821,#36,.T.);
#655=EDGE_CURVE('',#820,#822,#37,.T.);
#656=EDGE_CURVE('',#822,#823,#38,.T.);
#657=EDGE_CURVE('',#823,#824,#39,.T.);
#658=EDGE_CURVE('',#825,#824,#40,.T.);
#659=EDGE_CURVE('',#826,#825,#41,.T.);
#660=EDGE_CURVE('',#827,#826,#42,.T.);
#661=EDGE_CURVE('',#827,#828,#43,.T.);
#662=EDGE_CURVE('',#828,#829,#44,.T.);
#663=EDGE_CURVE('',#821,#829,#45,.T.);
#664=EDGE_CURVE('',#830,#831,#46,.T.);
#665=EDGE_CURVE('',#832,#830,#47,.T.);
#666=EDGE_CURVE('',#832,#833,#48,.T.);
#667=EDGE_CURVE('',#833,#834,#49,.T.);
#668=EDGE_CURVE('',#835,#834,#50,.T.);
#669=EDGE_CURVE('',#835,#836,#51,.T.);
#670=EDGE_CURVE('',#837,#836,#52,.T.);
#671=EDGE_CURVE('',#837,#838,#53,.T.);
#672=EDGE_CURVE('',#839,#838,#54,.T.);
#673=EDGE_CURVE('',#839,#831,#55,.T.);
#674=EDGE_CURVE('',#840,#841,#56,.T.);
#675=EDGE_CURVE('',#842,#840,#57,.T.);
#676=EDGE_CURVE('',#842,#843,#58,.T.);
#677=EDGE_CURVE('',#841,#843,#59,.T.);
#678=EDGE_CURVE('',#844,#845,#60,.T.);
#679=EDGE_CURVE('',#846,#844,#61,.T.);
#680=EDGE_CURVE('',#847,#846,#62,.T.);
#681=EDGE_CURVE('',#845,#847,#63,.T.);
#682=EDGE_CURVE('',#848,#848,#934,.F.);
#683=EDGE_CURVE('',#849,#849,#935,.F.);
#684=EDGE_CURVE('',#844,#841,#64,.T.);
#685=EDGE_CURVE('',#843,#846,#65,.T.);
#686=EDGE_CURVE('',#834,#827,#66,.T.);
#687=EDGE_CURVE('',#833,#828,#67,.T.);
#688=EDGE_CURVE('',#825,#836,#68,.T.);
#689=EDGE_CURVE('',#824,#850,#69,.T.);
#690=EDGE_CURVE('',#850,#851,#70,.T.);
#691=EDGE_CURVE('',#851,#852,#71,.T.);
#692=EDGE_CURVE('',#852,#853,#72,.T.);
#693=EDGE_CURVE('',#853,#837,#73,.T.);
#694=EDGE_CURVE('',#854,#854,#936,.F.);
#695=EDGE_CURVE('',#855,#855,#937,.T.);
#696=EDGE_CURVE('',#856,#856,#938,.F.);
#697=EDGE_CURVE('',#857,#857,#939,.T.);
#698=EDGE_CURVE('',#858,#853,#74,.T.);
#699=EDGE_CURVE('',#858,#859,#75,.T.);
#700=EDGE_CURVE('',#860,#859,#76,.T.);
#701=EDGE_CURVE('',#860,#861,#77,.T.);
#702=EDGE_CURVE('',#862,#861,#78,.T.);
#703=EDGE_CURVE('',#862,#863,#79,.T.);
#704=EDGE_CURVE('',#864,#863,#80,.T.);
#705=EDGE_CURVE('',#865,#864,#81,.T.);
#706=EDGE_CURVE('',#866,#865,#82,.T.);
#707=EDGE_CURVE('',#838,#866,#83,.T.);
#708=EDGE_CURVE('',#823,#867,#84,.T.);
#709=EDGE_CURVE('',#868,#867,#85,.T.);
#710=EDGE_CURVE('',#869,#868,#86,.T.);
#711=EDGE_CURVE('',#870,#869,#87,.T.);
#712=EDGE_CURVE('',#870,#871,#88,.T.);
#713=EDGE_CURVE('',#872,#871,#89,.T.);
#714=EDGE_CURVE('',#873,#872,#90,.T.);
#715=EDGE_CURVE('',#874,#873,#91,.T.);
#716=EDGE_CURVE('',#874,#875,#92,.T.);
#717=EDGE_CURVE('',#850,#875,#93,.T.);
#718=EDGE_CURVE('',#876,#851,#94,.T.);
#719=EDGE_CURVE('',#876,#877,#95,.T.);
#720=EDGE_CURVE('',#878,#877,#96,.T.);
#721=EDGE_CURVE('',#879,#878,#97,.T.);
#722=EDGE_CURVE('',#880,#879,#98,.T.);
#723=EDGE_CURVE('',#880,#881,#99,.T.);
#724=EDGE_CURVE('',#882,#881,#100,.T.);
#725=EDGE_CURVE('',#882,#883,#101,.T.);
#726=EDGE_CURVE('',#884,#883,#102,.T.);
#727=EDGE_CURVE('',#884,#885,#103,.T.);
#728=EDGE_CURVE('',#852,#885,#104,.T.);
#729=EDGE_CURVE('',#871,#880,#105,.T.);
#730=EDGE_CURVE('',#879,#872,#106,.T.);
#731=EDGE_CURVE('',#881,#862,#107,.T.);
#732=EDGE_CURVE('',#861,#882,#108,.T.);
#733=EDGE_CURVE('',#886,#886,#940,.T.);
#734=EDGE_CURVE('',#887,#887,#941,.T.);
#735=EDGE_CURVE('',#888,#888,#942,.T.);
#736=EDGE_CURVE('',#889,#889,#943,.T.);
#737=EDGE_CURVE('',#890,#890,#944,.T.);
#738=EDGE_CURVE('',#891,#891,#945,.T.);
#739=EDGE_CURVE('',#892,#892,#946,.T.);
#740=EDGE_CURVE('',#893,#893,#947,.T.);
#741=EDGE_CURVE('',#847,#842,#109,.T.);
#742=EDGE_CURVE('',#894,#894,#948,.F.);
#743=EDGE_CURVE('',#895,#895,#949,.F.);
#744=EDGE_CURVE('',#896,#865,#110,.T.);
#745=EDGE_CURVE('',#896,#897,#111,.T.);
#746=EDGE_CURVE('',#897,#866,#112,.T.);
#747=EDGE_CURVE('',#898,#898,#950,.F.);
#748=EDGE_CURVE('',#899,#899,#951,.F.);
#749=EDGE_CURVE('',#900,#867,#113,.T.);
#750=EDGE_CURVE('',#900,#901,#114,.T.);
#751=EDGE_CURVE('',#901,#868,#115,.T.);
#752=EDGE_CURVE('',#902,#817,#116,.T.);
#753=EDGE_CURVE('',#819,#870,#117,.T.);
#754=EDGE_CURVE('',#902,#869,#118,.T.);
#755=EDGE_CURVE('',#901,#902,#119,.T.);
#756=EDGE_CURVE('',#822,#900,#120,.T.);
#757=EDGE_CURVE('',#897,#839,#121,.T.);
#758=EDGE_CURVE('',#903,#864,#122,.T.);
#759=EDGE_CURVE('',#903,#896,#123,.T.);
#760=EDGE_CURVE('',#863,#818,#124,.T.);
#761=EDGE_CURVE('',#816,#903,#125,.T.);
#762=EDGE_CURVE('',#904,#821,#126,.T.);
#763=EDGE_CURVE('',#829,#832,#127,.T.);
#764=EDGE_CURVE('',#830,#905,#128,.T.);
#765=EDGE_CURVE('',#905,#906,#129,.T.);
#766=EDGE_CURVE('',#906,#907,#130,.T.);
#767=EDGE_CURVE('',#907,#908,#131,.T.);
#768=EDGE_CURVE('',#908,#909,#132,.T.);
#769=EDGE_CURVE('',#909,#910,#133,.T.);
#770=EDGE_CURVE('',#910,#845,#134,.T.);
#771=EDGE_CURVE('',#840,#911,#135,.T.);
#772=EDGE_CURVE('',#911,#912,#136,.T.);
#773=EDGE_CURVE('',#912,#913,#137,.T.);
#774=EDGE_CURVE('',#913,#914,#138,.T.);
#775=EDGE_CURVE('',#914,#915,#139,.T.);
#776=EDGE_CURVE('',#915,#904,#140,.T.);
#777=EDGE_CURVE('',#916,#916,#952,.T.);
#778=EDGE_CURVE('',#917,#917,#953,.T.);
#779=EDGE_CURVE('',#918,#918,#954,.T.);
#780=EDGE_CURVE('',#919,#919,#955,.T.);
#781=EDGE_CURVE('',#875,#876,#141,.T.);
#782=EDGE_CURVE('',#873,#878,#142,.T.);
#783=EDGE_CURVE('',#877,#874,#143,.T.);
#784=EDGE_CURVE('',#885,#858,#144,.T.);
#785=EDGE_CURVE('',#859,#884,#145,.T.);
#786=EDGE_CURVE('',#883,#860,#146,.T.);
#787=EDGE_CURVE('',#826,#835,#147,.T.);
#788=EDGE_CURVE('',#920,#904,#148,.T.);
#789=EDGE_CURVE('',#920,#820,#149,.T.);
#790=EDGE_CURVE('',#831,#921,#150,.T.);
#791=EDGE_CURVE('',#921,#905,#151,.T.);
#792=EDGE_CURVE('',#922,#816,#152,.T.);
#793=EDGE_CURVE('',#923,#922,#153,.T.);
#794=EDGE_CURVE('',#924,#923,#154,.T.);
#795=EDGE_CURVE('',#925,#924,#155,.T.);
#796=EDGE_CURVE('',#926,#925,#156,.T.);
#797=EDGE_CURVE('',#921,#926,#157,.T.);
#798=EDGE_CURVE('',#927,#920,#158,.T.);
#799=EDGE_CURVE('',#928,#927,#159,.T.);
#800=EDGE_CURVE('',#929,#928,#160,.T.);
#801=EDGE_CURVE('',#930,#929,#161,.T.);
#802=EDGE_CURVE('',#931,#930,#162,.T.);
#803=EDGE_CURVE('',#817,#931,#163,.T.);
#804=EDGE_CURVE('',#922,#910,#164,.T.);
#805=EDGE_CURVE('',#931,#911,#165,.T.);
#806=EDGE_CURVE('',#927,#915,#166,.T.);
#807=EDGE_CURVE('',#926,#906,#167,.T.);
#808=EDGE_CURVE('',#925,#907,#168,.T.);
#809=EDGE_CURVE('',#924,#908,#169,.T.);
#810=EDGE_CURVE('',#923,#909,#170,.T.);
#811=EDGE_CURVE('',#930,#912,#171,.T.);
#812=EDGE_CURVE('',#929,#913,#172,.T.);
#813=EDGE_CURVE('',#928,#914,#173,.T.);
#814=VERTEX_POINT('',#1702);
#815=VERTEX_POINT('',#1704);
#816=VERTEX_POINT('',#1706);
#817=VERTEX_POINT('',#1707);
#818=VERTEX_POINT('',#1709);
#819=VERTEX_POINT('',#1711);
#820=VERTEX_POINT('',#1715);
#821=VERTEX_POINT('',#1716);
#822=VERTEX_POINT('',#1718);
#823=VERTEX_POINT('',#1720);
#824=VERTEX_POINT('',#1722);
#825=VERTEX_POINT('',#1724);
#826=VERTEX_POINT('',#1726);
#827=VERTEX_POINT('',#1728);
#828=VERTEX_POINT('',#1730);
#829=VERTEX_POINT('',#1732);
#830=VERTEX_POINT('',#1736);
#831=VERTEX_POINT('',#1737);
#832=VERTEX_POINT('',#1739);
#833=VERTEX_POINT('',#1741);
#834=VERTEX_POINT('',#1743);
#835=VERTEX_POINT('',#1745);
#836=VERTEX_POINT('',#1747);
#837=VERTEX_POINT('',#1749);
#838=VERTEX_POINT('',#1751);
#839=VERTEX_POINT('',#1753);
#840=VERTEX_POINT('',#1757);
#841=VERTEX_POINT('',#1758);
#842=VERTEX_POINT('',#1760);
#843=VERTEX_POINT('',#1762);
#844=VERTEX_POINT('',#1766);
#845=VERTEX_POINT('',#1767);
#846=VERTEX_POINT('',#1769);
#847=VERTEX_POINT('',#1771);
#848=VERTEX_POINT('',#1775);
#849=VERTEX_POINT('',#1777);
#850=VERTEX_POINT('',#1786);
#851=VERTEX_POINT('',#1788);
#852=VERTEX_POINT('',#1790);
#853=VERTEX_POINT('',#1792);
#854=VERTEX_POINT('',#1796);
#855=VERTEX_POINT('',#1798);
#856=VERTEX_POINT('',#1801);
#857=VERTEX_POINT('',#1803);
#858=VERTEX_POINT('',#1806);
#859=VERTEX_POINT('',#1808);
#860=VERTEX_POINT('',#1810);
#861=VERTEX_POINT('',#1812);
#862=VERTEX_POINT('',#1814);
#863=VERTEX_POINT('',#1816);
#864=VERTEX_POINT('',#1818);
#865=VERTEX_POINT('',#1820);
#866=VERTEX_POINT('',#1822);
#867=VERTEX_POINT('',#1826);
#868=VERTEX_POINT('',#1828);
#869=VERTEX_POINT('',#1830);
#870=VERTEX_POINT('',#1832);
#871=VERTEX_POINT('',#1834);
#872=VERTEX_POINT('',#1836);
#873=VERTEX_POINT('',#1838);
#874=VERTEX_POINT('',#1840);
#875=VERTEX_POINT('',#1842);
#876=VERTEX_POINT('',#1846);
#877=VERTEX_POINT('',#1848);
#878=VERTEX_POINT('',#1850);
#879=VERTEX_POINT('',#1852);
#880=VERTEX_POINT('',#1854);
#881=VERTEX_POINT('',#1856);
#882=VERTEX_POINT('',#1858);
#883=VERTEX_POINT('',#1860);
#884=VERTEX_POINT('',#1862);
#885=VERTEX_POINT('',#1864);
#886=VERTEX_POINT('',#1874);
#887=VERTEX_POINT('',#1876);
#888=VERTEX_POINT('',#1879);
#889=VERTEX_POINT('',#1881);
#890=VERTEX_POINT('',#1884);
#891=VERTEX_POINT('',#1886);
#892=VERTEX_POINT('',#1889);
#893=VERTEX_POINT('',#1891);
#894=VERTEX_POINT('',#1896);
#895=VERTEX_POINT('',#1898);
#896=VERTEX_POINT('',#1900);
#897=VERTEX_POINT('',#1902);
#898=VERTEX_POINT('',#1906);
#899=VERTEX_POINT('',#1908);
#900=VERTEX_POINT('',#1910);
#901=VERTEX_POINT('',#1912);
#902=VERTEX_POINT('',#1916);
#903=VERTEX_POINT('',#1927);
#904=VERTEX_POINT('',#1934);
#905=VERTEX_POINT('',#1937);
#906=VERTEX_POINT('',#1939);
#907=VERTEX_POINT('',#1941);
#908=VERTEX_POINT('',#1943);
#909=VERTEX_POINT('',#1945);
#910=VERTEX_POINT('',#1947);
#911=VERTEX_POINT('',#1950);
#912=VERTEX_POINT('',#1952);
#913=VERTEX_POINT('',#1954);
#914=VERTEX_POINT('',#1956);
#915=VERTEX_POINT('',#1958);
#916=VERTEX_POINT('',#1964);
#917=VERTEX_POINT('',#1967);
#918=VERTEX_POINT('',#1970);
#919=VERTEX_POINT('',#1973);
#920=VERTEX_POINT('',#1999);
#921=VERTEX_POINT('',#2003);
#922=VERTEX_POINT('',#2007);
#923=VERTEX_POINT('',#2009);
#924=VERTEX_POINT('',#2011);
#925=VERTEX_POINT('',#2013);
#926=VERTEX_POINT('',#2015);
#927=VERTEX_POINT('',#2019);
#928=VERTEX_POINT('',#2021);
#929=VERTEX_POINT('',#2023);
#930=VERTEX_POINT('',#2025);
#931=VERTEX_POINT('',#2027);
#932=CIRCLE('',#1286,1.95);
#933=CIRCLE('',#1287,1.95);
#934=CIRCLE('',#1293,1.95);
#935=CIRCLE('',#1294,1.95);
#936=CIRCLE('',#1298,1.25);
#937=CIRCLE('',#1299,1.25);
#938=CIRCLE('',#1301,1.25);
#939=CIRCLE('',#1302,1.25);
#940=CIRCLE('',#1309,1.75);
#941=CIRCLE('',#1310,1.75);
#942=CIRCLE('',#1312,1.75);
#943=CIRCLE('',#1313,1.75);
#944=CIRCLE('',#1315,1.75);
#945=CIRCLE('',#1316,1.75);
#946=CIRCLE('',#1318,1.75);
#947=CIRCLE('',#1319,1.75);
#948=CIRCLE('',#1322,1.);
#949=CIRCLE('',#1323,1.00000008801276);
#950=CIRCLE('',#1325,1.);
#951=CIRCLE('',#1326,1.00000008801276);
#952=CIRCLE('',#1337,1.00000008801276);
#953=CIRCLE('',#1339,1.00000008801276);
#954=CIRCLE('',#1341,1.);
#955=CIRCLE('',#1343,1.);
#956=EDGE_LOOP('',(#316));
#957=EDGE_LOOP('',(#317));
#958=EDGE_LOOP('',(#318,#319,#320,#321));
#959=EDGE_LOOP('',(#322,#323,#324,#325,#326,#327,#328,#329,#330,#331));
#960=EDGE_LOOP('',(#332,#333,#334,#335,#336,#337,#338,#339,#340,#341));
#961=EDGE_LOOP('',(#342,#343,#344,#345));
#962=EDGE_LOOP('',(#346,#347,#348,#349));
#963=EDGE_LOOP('',(#350));
#964=EDGE_LOOP('',(#351));
#965=EDGE_LOOP('',(#352,#353,#354,#355));
#966=EDGE_LOOP('',(#356,#357,#358,#359));
#967=EDGE_LOOP('',(#360,#361,#362,#363,#364,#365,#366,#367));
#968=EDGE_LOOP('',(#368));
#969=EDGE_LOOP('',(#369));
#970=EDGE_LOOP('',(#370));
#971=EDGE_LOOP('',(#371));
#972=EDGE_LOOP('',(#372,#373,#374,#375,#376,#377,#378,#379,#380,#381,#382,
#383));
#973=EDGE_LOOP('',(#384,#385,#386,#387,#388,#389,#390,#391,#392,#393,#394,
#395));
#974=EDGE_LOOP('',(#396,#397,#398,#399,#400,#401,#402,#403,#404,#405,#406,
#407));
#975=EDGE_LOOP('',(#408,#409,#410,#411));
#976=EDGE_LOOP('',(#412,#413,#414,#415));
#977=EDGE_LOOP('',(#416));
#978=EDGE_LOOP('',(#417));
#979=EDGE_LOOP('',(#418));
#980=EDGE_LOOP('',(#419));
#981=EDGE_LOOP('',(#420));
#982=EDGE_LOOP('',(#421));
#983=EDGE_LOOP('',(#422));
#984=EDGE_LOOP('',(#423));
#985=EDGE_LOOP('',(#424,#425,#426,#427));
#986=EDGE_LOOP('',(#428));
#987=EDGE_LOOP('',(#429));
#988=EDGE_LOOP('',(#430,#431,#432,#433));
#989=EDGE_LOOP('',(#434));
#990=EDGE_LOOP('',(#435));
#991=EDGE_LOOP('',(#436,#437,#438,#439));
#992=EDGE_LOOP('',(#440,#441,#442,#443,#444));
#993=EDGE_LOOP('',(#445,#446,#447,#448));
#994=EDGE_LOOP('',(#449,#450,#451,#452));
#995=EDGE_LOOP('',(#453,#454,#455,#456));
#996=EDGE_LOOP('',(#457,#458,#459,#460));
#997=EDGE_LOOP('',(#461,#462,#463,#464,#465));
#998=EDGE_LOOP('',(#466,#467,#468,#469,#470,#471,#472,#473,#474,#475,#476,
#477,#478,#479,#480,#481,#482,#483,#484,#485));
#999=EDGE_LOOP('',(#486));
#1000=EDGE_LOOP('',(#487));
#1001=EDGE_LOOP('',(#488));
#1002=EDGE_LOOP('',(#489));
#1003=EDGE_LOOP('',(#490));
#1004=EDGE_LOOP('',(#491));
#1005=EDGE_LOOP('',(#492));
#1006=EDGE_LOOP('',(#493));
#1007=EDGE_LOOP('',(#494));
#1008=EDGE_LOOP('',(#495));
#1009=EDGE_LOOP('',(#496));
#1010=EDGE_LOOP('',(#497));
#1011=EDGE_LOOP('',(#498));
#1012=EDGE_LOOP('',(#499));
#1013=EDGE_LOOP('',(#500));
#1014=EDGE_LOOP('',(#501));
#1015=EDGE_LOOP('',(#502));
#1016=EDGE_LOOP('',(#503));
#1017=EDGE_LOOP('',(#504));
#1018=EDGE_LOOP('',(#505));
#1019=EDGE_LOOP('',(#506,#507,#508,#509));
#1020=EDGE_LOOP('',(#510));
#1021=EDGE_LOOP('',(#511));
#1022=EDGE_LOOP('',(#512,#513,#514,#515));
#1023=EDGE_LOOP('',(#516,#517,#518,#519));
#1024=EDGE_LOOP('',(#520,#521,#522,#523));
#1025=EDGE_LOOP('',(#524,#525,#526,#527));
#1026=EDGE_LOOP('',(#528));
#1027=EDGE_LOOP('',(#529));
#1028=EDGE_LOOP('',(#530,#531,#532,#533));
#1029=EDGE_LOOP('',(#534,#535,#536,#537));
#1030=EDGE_LOOP('',(#538,#539,#540,#541));
#1031=EDGE_LOOP('',(#542,#543,#544,#545,#546,#547,#548,#549));
#1032=EDGE_LOOP('',(#550));
#1033=EDGE_LOOP('',(#551));
#1034=EDGE_LOOP('',(#552,#553,#554,#555));
#1035=EDGE_LOOP('',(#556,#557,#558,#559));
#1036=EDGE_LOOP('',(#560));
#1037=EDGE_LOOP('',(#561));
#1038=EDGE_LOOP('',(#562,#563,#564,#565));
#1039=EDGE_LOOP('',(#566,#567,#568,#569));
#1040=EDGE_LOOP('',(#570,#571,#572,#573));
#1041=EDGE_LOOP('',(#574,#575,#576,#577,#578,#579,#580,#581,#582,#583,#584,
#585));
#1042=EDGE_LOOP('',(#586,#587,#588,#589,#590,#591,#592,#593,#594,#595,#596,
#597));
#1043=EDGE_LOOP('',(#598,#599,#600,#601,#602,#603,#604,#605,#606,#607));
#1044=EDGE_LOOP('',(#608,#609,#610,#611));
#1045=EDGE_LOOP('',(#612,#613,#614,#615));
#1046=EDGE_LOOP('',(#616,#617,#618,#619));
#1047=EDGE_LOOP('',(#620,#621,#622,#623));
#1048=EDGE_LOOP('',(#624,#625,#626,#627));
#1049=EDGE_LOOP('',(#628,#629,#630,#631));
#1050=EDGE_LOOP('',(#632,#633,#634,#635));
#1051=EDGE_LOOP('',(#636,#637,#638,#639));
#1052=EDGE_LOOP('',(#640,#641,#642,#643));
#1053=EDGE_LOOP('',(#644,#645,#646,#647));
#1054=FACE_BOUND('',#956,.T.);
#1055=FACE_BOUND('',#957,.T.);
#1056=FACE_BOUND('',#958,.T.);
#1057=FACE_BOUND('',#959,.T.);
#1058=FACE_BOUND('',#960,.T.);
#1059=FACE_BOUND('',#961,.T.);
#1060=FACE_BOUND('',#962,.T.);
#1061=FACE_BOUND('',#963,.T.);
#1062=FACE_BOUND('',#964,.T.);
#1063=FACE_BOUND('',#965,.T.);
#1064=FACE_BOUND('',#966,.T.);
#1065=FACE_BOUND('',#967,.T.);
#1066=FACE_BOUND('',#968,.T.);
#1067=FACE_BOUND('',#969,.T.);
#1068=FACE_BOUND('',#970,.T.);
#1069=FACE_BOUND('',#971,.T.);
#1070=FACE_BOUND('',#972,.T.);
#1071=FACE_BOUND('',#973,.T.);
#1072=FACE_BOUND('',#974,.T.);
#1073=FACE_BOUND('',#975,.T.);
#1074=FACE_BOUND('',#976,.T.);
#1075=FACE_BOUND('',#977,.T.);
#1076=FACE_BOUND('',#978,.T.);
#1077=FACE_BOUND('',#979,.T.);
#1078=FACE_BOUND('',#980,.T.);
#1079=FACE_BOUND('',#981,.T.);
#1080=FACE_BOUND('',#982,.T.);
#1081=FACE_BOUND('',#983,.T.);
#1082=FACE_BOUND('',#984,.T.);
#1083=FACE_BOUND('',#985,.T.);
#1084=FACE_BOUND('',#986,.T.);
#1085=FACE_BOUND('',#987,.T.);
#1086=FACE_BOUND('',#988,.T.);
#1087=FACE_BOUND('',#989,.T.);
#1088=FACE_BOUND('',#990,.T.);
#1089=FACE_BOUND('',#991,.T.);
#1090=FACE_BOUND('',#992,.T.);
#1091=FACE_BOUND('',#993,.T.);
#1092=FACE_BOUND('',#994,.T.);
#1093=FACE_BOUND('',#995,.T.);
#1094=FACE_BOUND('',#996,.T.);
#1095=FACE_BOUND('',#997,.T.);
#1096=FACE_BOUND('',#998,.T.);
#1097=FACE_BOUND('',#999,.T.);
#1098=FACE_BOUND('',#1000,.T.);
#1099=FACE_BOUND('',#1001,.T.);
#1100=FACE_BOUND('',#1002,.T.);
#1101=FACE_BOUND('',#1003,.T.);
#1102=FACE_BOUND('',#1004,.T.);
#1103=FACE_BOUND('',#1005,.T.);
#1104=FACE_BOUND('',#1006,.T.);
#1105=FACE_BOUND('',#1007,.T.);
#1106=FACE_BOUND('',#1008,.T.);
#1107=FACE_BOUND('',#1009,.T.);
#1108=FACE_BOUND('',#1010,.T.);
#1109=FACE_BOUND('',#1011,.T.);
#1110=FACE_BOUND('',#1012,.T.);
#1111=FACE_BOUND('',#1013,.T.);
#1112=FACE_BOUND('',#1014,.T.);
#1113=FACE_BOUND('',#1015,.T.);
#1114=FACE_BOUND('',#1016,.T.);
#1115=FACE_BOUND('',#1017,.T.);
#1116=FACE_BOUND('',#1018,.T.);
#1117=FACE_BOUND('',#1019,.T.);
#1118=FACE_BOUND('',#1020,.T.);
#1119=FACE_BOUND('',#1021,.T.);
#1120=FACE_BOUND('',#1022,.T.);
#1121=FACE_BOUND('',#1023,.T.);
#1122=FACE_BOUND('',#1024,.T.);
#1123=FACE_BOUND('',#1025,.T.);
#1124=FACE_BOUND('',#1026,.T.);
#1125=FACE_BOUND('',#1027,.T.);
#1126=FACE_BOUND('',#1028,.T.);
#1127=FACE_BOUND('',#1029,.T.);
#1128=FACE_BOUND('',#1030,.T.);
#1129=FACE_BOUND('',#1031,.T.);
#1130=FACE_BOUND('',#1032,.T.);
#1131=FACE_BOUND('',#1033,.T.);
#1132=FACE_BOUND('',#1034,.T.);
#1133=FACE_BOUND('',#1035,.T.);
#1134=FACE_BOUND('',#1036,.T.);
#1135=FACE_BOUND('',#1037,.T.);
#1136=FACE_BOUND('',#1038,.T.);
#1137=FACE_BOUND('',#1039,.T.);
#1138=FACE_BOUND('',#1040,.T.);
#1139=FACE_BOUND('',#1041,.T.);
#1140=FACE_BOUND('',#1042,.T.);
#1141=FACE_BOUND('',#1043,.T.);
#1142=FACE_BOUND('',#1044,.T.);
#1143=FACE_BOUND('',#1045,.T.);
#1144=FACE_BOUND('',#1046,.T.);
#1145=FACE_BOUND('',#1047,.T.);
#1146=FACE_BOUND('',#1048,.T.);
#1147=FACE_BOUND('',#1049,.T.);
#1148=FACE_BOUND('',#1050,.T.);
#1149=FACE_BOUND('',#1051,.T.);
#1150=FACE_BOUND('',#1052,.T.);
#1151=FACE_BOUND('',#1053,.T.);
#1152=PLANE('',#1285);
#1153=PLANE('',#1288);
#1154=PLANE('',#1289);
#1155=PLANE('',#1290);
#1156=PLANE('',#1291);
#1157=PLANE('',#1292);
#1158=PLANE('',#1295);
#1159=PLANE('',#1296);
#1160=PLANE('',#1303);
#1161=PLANE('',#1304);
#1162=PLANE('',#1305);
#1163=PLANE('',#1306);
#1164=PLANE('',#1307);
#1165=PLANE('',#1320);
#1166=PLANE('',#1321);
#1167=PLANE('',#1324);
#1168=PLANE('',#1327);
#1169=PLANE('',#1328);
#1170=PLANE('',#1329);
#1171=PLANE('',#1330);
#1172=PLANE('',#1331);
#1173=PLANE('',#1332);
#1174=PLANE('',#1333);
#1175=PLANE('',#1344);
#1176=PLANE('',#1345);
#1177=PLANE('',#1346);
#1178=PLANE('',#1347);
#1179=PLANE('',#1348);
#1180=PLANE('',#1349);
#1181=PLANE('',#1350);
#1182=PLANE('',#1351);
#1183=PLANE('',#1352);
#1184=PLANE('',#1353);
#1185=PLANE('',#1354);
#1186=PLANE('',#1355);
#1187=PLANE('',#1356);
#1188=PLANE('',#1357);
#1189=PLANE('',#1358);
#1190=PLANE('',#1359);
#1191=PLANE('',#1360);
#1192=PLANE('',#1361);
#1193=PLANE('',#1362);
#1194=PLANE('',#1363);
#1195=PLANE('',#1364);
#1196=PLANE('',#1365);
#1197=PLANE('',#1366);
#1198=PLANE('',#1367);
#1199=PLANE('',#1368);
#1200=PLANE('',#1369);
#1201=PLANE('',#1370);
#1202=PLANE('',#1371);
#1203=PLANE('',#1372);
#1204=PLANE('',#1373);
#1205=PLANE('',#1374);
#1206=ADVANCED_FACE('',(#1054,#1055,#1056),#1152,.F.);
#1207=ADVANCED_FACE('',(#1057),#1153,.F.);
#1208=ADVANCED_FACE('',(#1058),#1154,.F.);
#1209=ADVANCED_FACE('',(#1059),#1155,.F.);
#1210=ADVANCED_FACE('',(#1060),#1156,.F.);
#1211=ADVANCED_FACE('',(#1061,#1062,#1063),#1157,.T.);
#1212=ADVANCED_FACE('',(#1064),#1158,.F.);
#1213=ADVANCED_FACE('',(#1065),#1159,.F.);
#1214=ADVANCED_FACE('',(#1066,#1067),#20,.F.);
#1215=ADVANCED_FACE('',(#1068,#1069),#21,.F.);
#1216=ADVANCED_FACE('',(#1070),#1160,.F.);
#1217=ADVANCED_FACE('',(#1071),#1161,.F.);
#1218=ADVANCED_FACE('',(#1072),#1162,.T.);
#1219=ADVANCED_FACE('',(#1073),#1163,.T.);
#1220=ADVANCED_FACE('',(#1074),#1164,.T.);
#1221=ADVANCED_FACE('',(#1075,#1076),#22,.F.);
#1222=ADVANCED_FACE('',(#1077,#1078),#23,.F.);
#1223=ADVANCED_FACE('',(#1079,#1080),#24,.F.);
#1224=ADVANCED_FACE('',(#1081,#1082),#25,.F.);
#1225=ADVANCED_FACE('',(#1083),#1165,.F.);
#1226=ADVANCED_FACE('',(#1084,#1085,#1086),#1166,.F.);
#1227=ADVANCED_FACE('',(#1087,#1088,#1089),#1167,.F.);
#1228=ADVANCED_FACE('',(#1090),#1168,.F.);
#1229=ADVANCED_FACE('',(#1091),#1169,.F.);
#1230=ADVANCED_FACE('',(#1092),#1170,.F.);
#1231=ADVANCED_FACE('',(#1093),#1171,.F.);
#1232=ADVANCED_FACE('',(#1094),#1172,.F.);
#1233=ADVANCED_FACE('',(#1095),#1173,.F.);
#1234=ADVANCED_FACE('',(#1096),#1174,.F.);
#1235=ADVANCED_FACE('',(#1097,#1098),#26,.F.);
#1236=ADVANCED_FACE('',(#1099,#1100),#27,.F.);
#1237=ADVANCED_FACE('',(#1101,#1102),#28,.F.);
#1238=ADVANCED_FACE('',(#1103,#1104),#29,.F.);
#1239=ADVANCED_FACE('',(#1105,#1106),#30,.F.);
#1240=ADVANCED_FACE('',(#1107,#1108),#31,.F.);
#1241=ADVANCED_FACE('',(#1109,#1110),#1175,.F.);
#1242=ADVANCED_FACE('',(#1111,#1112),#1176,.F.);
#1243=ADVANCED_FACE('',(#1113,#1114),#1177,.F.);
#1244=ADVANCED_FACE('',(#1115,#1116),#1178,.F.);
#1245=ADVANCED_FACE('',(#1117),#1179,.T.);
#1246=ADVANCED_FACE('',(#1118,#1119,#1120),#1180,.T.);
#1247=ADVANCED_FACE('',(#1121),#1181,.F.);
#1248=ADVANCED_FACE('',(#1122),#1182,.T.);
#1249=ADVANCED_FACE('',(#1123),#1183,.T.);
#1250=ADVANCED_FACE('',(#1124,#1125,#1126),#1184,.T.);
#1251=ADVANCED_FACE('',(#1127),#1185,.T.);
#1252=ADVANCED_FACE('',(#1128),#1186,.T.);
#1253=ADVANCED_FACE('',(#1129),#1187,.F.);
#1254=ADVANCED_FACE('',(#1130,#1131,#1132),#1188,.F.);
#1255=ADVANCED_FACE('',(#1133),#1189,.F.);
#1256=ADVANCED_FACE('',(#1134,#1135,#1136),#1190,.T.);
#1257=ADVANCED_FACE('',(#1137),#1191,.T.);
#1258=ADVANCED_FACE('',(#1138),#1192,.T.);
#1259=ADVANCED_FACE('',(#1139),#1193,.F.);
#1260=ADVANCED_FACE('',(#1140),#1194,.F.);
#1261=ADVANCED_FACE('',(#1141),#1195,.T.);
#1262=ADVANCED_FACE('',(#1142),#1196,.T.);
#1263=ADVANCED_FACE('',(#1143),#1197,.T.);
#1264=ADVANCED_FACE('',(#1144),#1198,.T.);
#1265=ADVANCED_FACE('',(#1145),#1199,.T.);
#1266=ADVANCED_FACE('',(#1146),#1200,.T.);
#1267=ADVANCED_FACE('',(#1147),#1201,.T.);
#1268=ADVANCED_FACE('',(#1148),#1202,.T.);
#1269=ADVANCED_FACE('',(#1149),#1203,.T.);
#1270=ADVANCED_FACE('',(#1150),#1204,.T.);
#1271=ADVANCED_FACE('',(#1151),#1205,.T.);
#1272=CLOSED_SHELL('',(#1206,#1207,#1208,#1209,#1210,#1211,#1212,#1213,
#1214,#1215,#1216,#1217,#1218,#1219,#1220,#1221,#1222,#1223,#1224,#1225,
#1226,#1227,#1228,#1229,#1230,#1231,#1232,#1233,#1234,#1235,#1236,#1237,
#1238,#1239,#1240,#1241,#1242,#1243,#1244,#1245,#1246,#1247,#1248,#1249,
#1250,#1251,#1252,#1253,#1254,#1255,#1256,#1257,#1258,#1259,#1260,#1261,
#1262,#1263,#1264,#1265,#1266,#1267,#1268,#1269,#1270,#1271));
#1273=STYLED_ITEM('',(#1274),#1281);
#1274=PRESENTATION_STYLE_ASSIGNMENT((#1275));
#1275=SURFACE_STYLE_USAGE(.BOTH.,#1276);
#1276=SURFACE_SIDE_STYLE('',(#1277));
#1277=SURFACE_STYLE_FILL_AREA(#1278);
#1278=FILL_AREA_STYLE('',(#1279));
#1279=FILL_AREA_STYLE_COLOUR('',#1280);
#1280=COLOUR_RGB('',0.506983280181885,0.531564235687256,0.550000011920929);
#1281=MANIFOLD_SOLID_BREP('',#1272);
#1282=SHAPE_DEFINITION_REPRESENTATION(#2056,#1283);
#1283=SHAPE_REPRESENTATION('04_FDML_stimfix_PCB_boards_housing',(#1284),
#2051);
#1284=AXIS2_PLACEMENT_3D('',#1699,#1375,#1376);
#1285=AXIS2_PLACEMENT_3D('',#1700,#1377,#1378);
#1286=AXIS2_PLACEMENT_3D('',#1701,#1379,#1380);
#1287=AXIS2_PLACEMENT_3D('',#1703,#1381,#1382);
#1288=AXIS2_PLACEMENT_3D('',#1713,#1387,#1388);
#1289=AXIS2_PLACEMENT_3D('',#1734,#1399,#1400);
#1290=AXIS2_PLACEMENT_3D('',#1755,#1411,#1412);
#1291=AXIS2_PLACEMENT_3D('',#1764,#1417,#1418);
#1292=AXIS2_PLACEMENT_3D('',#1773,#1423,#1424);
#1293=AXIS2_PLACEMENT_3D('',#1774,#1425,#1426);
#1294=AXIS2_PLACEMENT_3D('',#1776,#1427,#1428);
#1295=AXIS2_PLACEMENT_3D('',#1780,#1431,#1432);
#1296=AXIS2_PLACEMENT_3D('',#1783,#1435,#1436);
#1297=AXIS2_PLACEMENT_3D('',#1794,#1443,#1444);
#1298=AXIS2_PLACEMENT_3D('',#1795,#1445,#1446);
#1299=AXIS2_PLACEMENT_3D('',#1797,#1447,#1448);
#1300=AXIS2_PLACEMENT_3D('',#1799,#1449,#1450);
#1301=AXIS2_PLACEMENT_3D('',#1800,#1451,#1452);
#1302=AXIS2_PLACEMENT_3D('',#1802,#1453,#1454);
#1303=AXIS2_PLACEMENT_3D('',#1804,#1455,#1456);
#1304=AXIS2_PLACEMENT_3D('',#1824,#1467,#1468);
#1305=AXIS2_PLACEMENT_3D('',#1844,#1479,#1480);
#1306=AXIS2_PLACEMENT_3D('',#1866,#1492,#1493);
#1307=AXIS2_PLACEMENT_3D('',#1869,#1496,#1497);
#1308=AXIS2_PLACEMENT_3D('',#1872,#1500,#1501);
#1309=AXIS2_PLACEMENT_3D('',#1873,#1502,#1503);
#1310=AXIS2_PLACEMENT_3D('',#1875,#1504,#1505);
#1311=AXIS2_PLACEMENT_3D('',#1877,#1506,#1507);
#1312=AXIS2_PLACEMENT_3D('',#1878,#1508,#1509);
#1313=AXIS2_PLACEMENT_3D('',#1880,#1510,#1511);
#1314=AXIS2_PLACEMENT_3D('',#1882,#1512,#1513);
#1315=AXIS2_PLACEMENT_3D('',#1883,#1514,#1515);
#1316=AXIS2_PLACEMENT_3D('',#1885,#1516,#1517);
#1317=AXIS2_PLACEMENT_3D('',#1887,#1518,#1519);
#1318=AXIS2_PLACEMENT_3D('',#1888,#1520,#1521);
#1319=AXIS2_PLACEMENT_3D('',#1890,#1522,#1523);
#1320=AXIS2_PLACEMENT_3D('',#1892,#1524,#1525);
#1321=AXIS2_PLACEMENT_3D('',#1894,#1527,#1528);
#1322=AXIS2_PLACEMENT_3D('',#1895,#1529,#1530);
#1323=AXIS2_PLACEMENT_3D('',#1897,#1531,#1532);
#1324=AXIS2_PLACEMENT_3D('',#1904,#1536,#1537);
#1325=AXIS2_PLACEMENT_3D('',#1905,#1538,#1539);
#1326=AXIS2_PLACEMENT_3D('',#1907,#1540,#1541);
#1327=AXIS2_PLACEMENT_3D('',#1914,#1545,#1546);
#1328=AXIS2_PLACEMENT_3D('',#1919,#1550,#1551);
#1329=AXIS2_PLACEMENT_3D('',#1921,#1553,#1554);
#1330=AXIS2_PLACEMENT_3D('',#1923,#1556,#1557);
#1331=AXIS2_PLACEMENT_3D('',#1925,#1559,#1560);
#1332=AXIS2_PLACEMENT_3D('',#1929,#1563,#1564);
#1333=AXIS2_PLACEMENT_3D('',#1932,#1567,#1568);
#1334=AXIS2_PLACEMENT_3D('',#1960,#1584,#1585);
#1335=AXIS2_PLACEMENT_3D('',#1961,#1586,#1587);
#1336=AXIS2_PLACEMENT_3D('',#1962,#1588,#1589);
#1337=AXIS2_PLACEMENT_3D('',#1963,#1590,#1591);
#1338=AXIS2_PLACEMENT_3D('',#1965,#1592,#1593);
#1339=AXIS2_PLACEMENT_3D('',#1966,#1594,#1595);
#1340=AXIS2_PLACEMENT_3D('',#1968,#1596,#1597);
#1341=AXIS2_PLACEMENT_3D('',#1969,#1598,#1599);
#1342=AXIS2_PLACEMENT_3D('',#1971,#1600,#1601);
#1343=AXIS2_PLACEMENT_3D('',#1972,#1602,#1603);
#1344=AXIS2_PLACEMENT_3D('',#1974,#1604,#1605);
#1345=AXIS2_PLACEMENT_3D('',#1975,#1606,#1607);
#1346=AXIS2_PLACEMENT_3D('',#1976,#1608,#1609);
#1347=AXIS2_PLACEMENT_3D('',#1977,#1610,#1611);
#1348=AXIS2_PLACEMENT_3D('',#1978,#1612,#1613);
#1349=AXIS2_PLACEMENT_3D('',#1980,#1615,#1616);
#1350=AXIS2_PLACEMENT_3D('',#1983,#1619,#1620);
#1351=AXIS2_PLACEMENT_3D('',#1984,#1621,#1622);
#1352=AXIS2_PLACEMENT_3D('',#1985,#1623,#1624);
#1353=AXIS2_PLACEMENT_3D('',#1987,#1626,#1627);
#1354=AXIS2_PLACEMENT_3D('',#1990,#1630,#1631);
#1355=AXIS2_PLACEMENT_3D('',#1991,#1632,#1633);
#1356=AXIS2_PLACEMENT_3D('',#1992,#1634,#1635);
#1357=AXIS2_PLACEMENT_3D('',#1993,#1636,#1637);
#1358=AXIS2_PLACEMENT_3D('',#1994,#1638,#1639);
#1359=AXIS2_PLACEMENT_3D('',#1996,#1641,#1642);
#1360=AXIS2_PLACEMENT_3D('',#1997,#1643,#1644);
#1361=AXIS2_PLACEMENT_3D('',#2001,#1647,#1648);
#1362=AXIS2_PLACEMENT_3D('',#2005,#1651,#1652);
#1363=AXIS2_PLACEMENT_3D('',#2017,#1659,#1660);
#1364=AXIS2_PLACEMENT_3D('',#2029,#1667,#1668);
#1365=AXIS2_PLACEMENT_3D('',#2032,#1671,#1672);
#1366=AXIS2_PLACEMENT_3D('',#2034,#1674,#1675);
#1367=AXIS2_PLACEMENT_3D('',#2036,#1677,#1678);
#1368=AXIS2_PLACEMENT_3D('',#2038,#1680,#1681);
#1369=AXIS2_PLACEMENT_3D('',#2040,#1683,#1684);
#1370=AXIS2_PLACEMENT_3D('',#2042,#1686,#1687);
#1371=AXIS2_PLACEMENT_3D('',#2043,#1688,#1689);
#1372=AXIS2_PLACEMENT_3D('',#2045,#1691,#1692);
#1373=AXIS2_PLACEMENT_3D('',#2047,#1694,#1695);
#1374=AXIS2_PLACEMENT_3D('',#2049,#1697,#1698);
#1375=DIRECTION('',(0.,0.,1.));
#1376=DIRECTION('',(1.,0.,0.));
#1377=DIRECTION('',(0.,0.,-1.));
#1378=DIRECTION('',(-1.,0.,0.));
#1379=DIRECTION('',(0.,0.,-1.));
#1380=DIRECTION('',(-1.,-2.29612637455567E-16,0.));
#1381=DIRECTION('',(0.,0.,-1.));
#1382=DIRECTION('',(-1.,-2.29612637455567E-16,0.));
#1383=DIRECTION('',(1.,0.,0.));
#1384=DIRECTION('',(-2.89174801541264E-15,1.,0.));
#1385=DIRECTION('',(1.,0.,0.));
#1386=DIRECTION('',(1.16190453849753E-16,-1.,0.));
#1387=DIRECTION('',(1.,-3.6102465681099E-16,0.));
#1388=DIRECTION('',(3.6102465681099E-16,1.,0.));
#1389=DIRECTION('',(0.,0.,-1.));
#1390=DIRECTION('',(-3.6102465681099E-16,-1.,0.));
#1391=DIRECTION('',(0.,0.,1.));
#1392=DIRECTION('',(0.,1.,0.));
#1393=DIRECTION('',(0.,0.,1.));
#1394=DIRECTION('',(0.,1.,0.));
#1395=DIRECTION('',(0.,0.,-1.));
#1396=DIRECTION('',(0.,-1.,0.));
#1397=DIRECTION('',(0.,0.,-1.));
#1398=DIRECTION('',(3.6102465681099E-16,1.,0.));
#1399=DIRECTION('',(-1.,0.,0.));
#1400=DIRECTION('',(0.,0.,1.));
#1401=DIRECTION('',(0.,0.,1.));
#1402=DIRECTION('',(0.,-1.,0.));
#1403=DIRECTION('',(0.,0.,1.));
#1404=DIRECTION('',(0.,1.,0.));
#1405=DIRECTION('',(0.,0.,1.));
#1406=DIRECTION('',(0.,1.,0.));
#1407=DIRECTION('',(0.,0.,-1.));
#1408=DIRECTION('',(4.46173733533129E-17,-1.,0.));
#1409=DIRECTION('',(0.,0.,1.));
#1410=DIRECTION('',(0.,1.,0.));
#1411=DIRECTION('',(1.,0.,0.));
#1412=DIRECTION('',(0.,0.,-1.));
#1413=DIRECTION('',(0.,0.,1.));
#1414=DIRECTION('',(7.69278703315656E-16,1.,0.));
#1415=DIRECTION('',(0.,0.,1.));
#1416=DIRECTION('',(-7.69278703315656E-16,-1.,0.));
#1417=DIRECTION('',(-1.,0.,0.));
#1418=DIRECTION('',(0.,0.,1.));
#1419=DIRECTION('',(0.,0.,-1.));
#1420=DIRECTION('',(0.,1.,0.));
#1421=DIRECTION('',(0.,0.,1.));
#1422=DIRECTION('',(0.,-1.,0.));
#1423=DIRECTION('',(0.,0.,-1.));
#1424=DIRECTION('',(-1.,0.,0.));
#1425=DIRECTION('',(0.,0.,-1.));
#1426=DIRECTION('',(-1.,0.,0.));
#1427=DIRECTION('',(0.,0.,-1.));
#1428=DIRECTION('',(-1.,0.,0.));
#1429=DIRECTION('',(1.,0.,0.));
#1430=DIRECTION('',(-1.,0.,0.));
#1431=DIRECTION('',(0.,0.,-1.));
#1432=DIRECTION('',(-1.,0.,0.));
#1433=DIRECTION('',(1.,0.,0.));
#1434=DIRECTION('',(1.,0.,0.));
#1435=DIRECTION('',(0.,-1.,0.));
#1436=DIRECTION('',(0.,0.,-1.));
#1437=DIRECTION('',(-1.,0.,0.));
#1438=DIRECTION('',(1.,0.,0.));
#1439=DIRECTION('',(0.,0.,-1.));
#1440=DIRECTION('',(-1.,0.,0.));
#1441=DIRECTION('',(0.,0.,1.));
#1442=DIRECTION('',(1.,0.,0.));
#1443=DIRECTION('',(0.,1.,0.));
#1444=DIRECTION('',(0.,0.,1.));
#1445=DIRECTION('',(0.,1.,0.));
#1446=DIRECTION('',(0.,0.,1.));
#1447=DIRECTION('',(0.,-1.,0.));
#1448=DIRECTION('',(1.,0.,0.));
#1449=DIRECTION('',(0.,1.,0.));
#1450=DIRECTION('',(0.,0.,1.));
#1451=DIRECTION('',(0.,1.,0.));
#1452=DIRECTION('',(0.,0.,1.));
#1453=DIRECTION('',(0.,-1.,0.));
#1454=DIRECTION('',(1.,0.,0.));
#1455=DIRECTION('',(0.,0.,-1.));
#1456=DIRECTION('',(-1.,0.,0.));
#1457=DIRECTION('',(-3.6102465681099E-16,1.,0.));
#1458=DIRECTION('',(-0.707106781186549,-0.707106781186546,0.));
#1459=DIRECTION('',(-3.48571361549258E-16,1.,0.));
#1460=DIRECTION('',(0.707106781186549,-0.707106781186546,0.));
#1461=DIRECTION('',(-3.6102465681099E-16,1.,0.));
#1462=DIRECTION('',(1.,0.,0.));
#1463=DIRECTION('',(1.15476422447506E-19,-1.,0.));
#1464=DIRECTION('',(0.707106781186546,-0.707106781186549,0.));
#1465=DIRECTION('',(1.23452357215362E-16,-1.,0.));
#1466=DIRECTION('',(-0.707106781186547,-0.707106781186548,0.));
#1467=DIRECTION('',(0.,0.,-1.));
#1468=DIRECTION('',(-1.,0.,0.));
#1469=DIRECTION('',(0.707106781186548,-0.707106781186548,0.));
#1470=DIRECTION('',(-1.16190453849753E-16,1.,0.));
#1471=DIRECTION('',(0.707106781186549,0.707106781186546,0.));
#1472=DIRECTION('',(0.,1.,0.));
#1473=DIRECTION('',(1.,0.,0.));
#1474=DIRECTION('',(0.,-1.,0.));
#1475=DIRECTION('',(-0.707106781186552,-0.707106781186543,0.));
#1476=DIRECTION('',(0.,-1.,0.));
#1477=DIRECTION('',(-0.707106781186549,0.707106781186547,0.));
#1478=DIRECTION('',(0.,-1.,0.));
#1479=DIRECTION('',(0.,0.,-1.));
#1480=DIRECTION('',(-1.,0.,0.));
#1481=DIRECTION('',(0.,1.,0.));
#1482=DIRECTION('',(0.707106781186549,-0.707106781186547,0.));
#1483=DIRECTION('',(0.,1.,0.));
#1484=DIRECTION('',(0.707106781186552,0.707106781186543,0.));
#1485=DIRECTION('',(0.,1.,0.));
#1486=DIRECTION('',(-1.,0.,0.));
#1487=DIRECTION('',(3.6102465681099E-16,-1.,0.));
#1488=DIRECTION('',(-0.707106781186549,0.707106781186546,0.));
#1489=DIRECTION('',(3.48571361549258E-16,-1.,0.));
#1490=DIRECTION('',(0.707106781186549,0.707106781186546,0.));
#1491=DIRECTION('',(3.6102465681099E-16,-1.,0.));
#1492=DIRECTION('',(1.,0.,0.));
#1493=DIRECTION('',(0.,0.,-1.));
#1494=DIRECTION('',(0.,0.,-1.));
#1495=DIRECTION('',(0.,0.,1.));
#1496=DIRECTION('',(-1.,-3.6102465681099E-16,0.));
#1497=DIRECTION('',(3.6102465681099E-16,-1.,0.));
#1498=DIRECTION('',(6.04573702129464E-17,0.,1.));
#1499=DIRECTION('',(0.,0.,-1.));
#1500=DIRECTION('',(-1.,-3.48571361549258E-16,0.));
#1501=DIRECTION('',(3.48571361549258E-16,-1.,0.));
#1502=DIRECTION('',(1.,3.48571361549258E-16,0.));
#1503=DIRECTION('',(-3.48571361549258E-16,1.,0.));
#1504=DIRECTION('',(1.,3.48571361549258E-16,0.));
#1505=DIRECTION('',(3.48571361549258E-16,-1.,0.));
#1506=DIRECTION('',(-1.,-3.48571361549258E-16,0.));
#1507=DIRECTION('',(3.48571361549258E-16,-1.,0.));
#1508=DIRECTION('',(1.,3.48571361549258E-16,0.));
#1509=DIRECTION('',(-3.48571361549258E-16,1.,0.));
#1510=DIRECTION('',(1.,3.48571361549258E-16,0.));
#1511=DIRECTION('',(3.48571361549258E-16,-1.,0.));
#1512=DIRECTION('',(1.,0.,0.));
#1513=DIRECTION('',(0.,0.,-1.));
#1514=DIRECTION('',(-1.,0.,0.));
#1515=DIRECTION('',(0.,0.,1.));
#1516=DIRECTION('',(-1.,0.,0.));
#1517=DIRECTION('',(0.,0.,-1.));
#1518=DIRECTION('',(1.,0.,0.));
#1519=DIRECTION('',(0.,0.,-1.));
#1520=DIRECTION('',(-1.,0.,0.));
#1521=DIRECTION('',(0.,0.,1.));
#1522=DIRECTION('',(-1.,0.,0.));
#1523=DIRECTION('',(0.,0.,-1.));
#1524=DIRECTION('',(0.,-1.,0.));
#1525=DIRECTION('',(0.,0.,-1.));
#1526=DIRECTION('',(1.,0.,0.));
#1527=DIRECTION('',(-1.,-1.16190453849753E-16,0.));
#1528=DIRECTION('',(1.16190453849753E-16,-1.,0.));
#1529=DIRECTION('',(-1.,-1.16190453849753E-16,0.));
#1530=DIRECTION('',(1.16190453849753E-16,-1.,0.));
#1531=DIRECTION('',(-1.,-1.16190453849753E-16,0.));
#1532=DIRECTION('',(1.16190453849753E-16,-1.,0.));
#1533=DIRECTION('',(0.,0.,1.));
#1534=DIRECTION('',(-1.16190453849753E-16,1.,0.));
#1535=DIRECTION('',(0.,0.,1.));
#1536=DIRECTION('',(1.,0.,0.));
#1537=DIRECTION('',(0.,0.,-1.));
#1538=DIRECTION('',(1.,0.,0.));
#1539=DIRECTION('',(0.,0.,-1.));
#1540=DIRECTION('',(1.,0.,0.));
#1541=DIRECTION('',(0.,0.,-1.));
#1542=DIRECTION('',(0.,0.,1.));
#1543=DIRECTION('',(0.,-1.,0.));
#1544=DIRECTION('',(0.,0.,1.));
#1545=DIRECTION('',(1.,0.,0.));
#1546=DIRECTION('',(0.,0.,-1.));
#1547=DIRECTION('',(1.16190453849753E-16,-1.,0.));
#1548=DIRECTION('',(0.,0.,1.));
#1549=DIRECTION('',(0.,0.,1.));
#1550=DIRECTION('',(0.707106781186546,-0.707106781186549,0.));
#1551=DIRECTION('',(0.707106781186549,0.707106781186546,0.));
#1552=DIRECTION('',(-0.707106781186549,-0.707106781186546,0.));
#1553=DIRECTION('',(0.707106781186547,0.707106781186548,0.));
#1554=DIRECTION('',(-0.707106781186548,0.707106781186547,0.));
#1555=DIRECTION('',(0.707106781186548,-0.707106781186547,0.));
#1556=DIRECTION('',(-0.707106781186548,0.707106781186548,0.));
#1557=DIRECTION('',(-0.707106781186548,-0.707106781186548,0.));
#1558=DIRECTION('',(0.707106781186548,0.707106781186548,0.));
#1559=DIRECTION('',(-0.707106781186549,-0.707106781186546,0.));
#1560=DIRECTION('',(0.707106781186546,-0.707106781186549,0.));
#1561=DIRECTION('',(0.,0.,1.));
#1562=DIRECTION('',(-0.707106781186546,0.707106781186549,0.));
#1563=DIRECTION('',(-1.,0.,0.));
#1564=DIRECTION('',(0.,0.,1.));
#1565=DIRECTION('',(-3.79494828503827E-16,0.,-1.));
#1566=DIRECTION('',(-2.89174801541264E-15,1.,0.));
#1567=DIRECTION('',(0.,0.,-1.));
#1568=DIRECTION('',(-1.,0.,0.));
#1569=DIRECTION('',(-1.,0.,0.));
#1570=DIRECTION('',(-1.,0.,0.));
#1571=DIRECTION('',(-1.,0.,0.));
#1572=DIRECTION('',(0.,-1.,0.));
#1573=DIRECTION('',(-0.707106781186548,-0.707106781186548,0.));
#1574=DIRECTION('',(0.,-1.,0.));
#1575=DIRECTION('',(0.707106781186546,-0.707106781186549,0.));
#1576=DIRECTION('',(6.93889390390732E-15,-1.,0.));
#1577=DIRECTION('',(1.,0.,0.));
#1578=DIRECTION('',(1.,0.,0.));
#1579=DIRECTION('',(0.,1.,0.));
#1580=DIRECTION('',(0.707106781186549,0.707106781186546,0.));
#1581=DIRECTION('',(0.,1.,0.));
#1582=DIRECTION('',(-0.707106781186548,0.707106781186548,0.));
#1583=DIRECTION('',(0.,1.,0.));
#1584=DIRECTION('',(0.,0.,1.));
#1585=DIRECTION('',(1.,0.,0.));
#1586=DIRECTION('',(0.,0.,1.));
#1587=DIRECTION('',(1.,0.,0.));
#1588=DIRECTION('',(-1.,-3.48571361549258E-16,0.));
#1589=DIRECTION('',(3.48571361549258E-16,-1.,0.));
#1590=DIRECTION('',(1.,3.48571361549258E-16,0.));
#1591=DIRECTION('',(-3.48571361549258E-16,1.,0.));
#1592=DIRECTION('',(-1.,-3.48571361549258E-16,0.));
#1593=DIRECTION('',(3.48571361549258E-16,-1.,0.));
#1594=DIRECTION('',(-1.,0.,0.));
#1595=DIRECTION('',(0.,0.,1.));
#1596=DIRECTION('',(-1.,-3.48571361549258E-16,0.));
#1597=DIRECTION('',(3.48571361549258E-16,-1.,0.));
#1598=DIRECTION('',(-1.,0.,0.));
#1599=DIRECTION('',(0.,0.,1.));
#1600=DIRECTION('',(-1.,-3.48571361549258E-16,0.));
#1601=DIRECTION('',(3.48571361549258E-16,-1.,0.));
#1602=DIRECTION('',(1.,3.48571361549258E-16,0.));
#1603=DIRECTION('',(-3.48571361549258E-16,1.,0.));
#1604=DIRECTION('',(-1.,0.,0.));
#1605=DIRECTION('',(0.,0.,1.));
#1606=DIRECTION('',(-1.,0.,0.));
#1607=DIRECTION('',(0.,0.,1.));
#1608=DIRECTION('',(1.,3.48571361549258E-16,0.));
#1609=DIRECTION('',(-3.48571361549258E-16,1.,0.));
#1610=DIRECTION('',(1.,3.48571361549258E-16,0.));
#1611=DIRECTION('',(-3.48571361549258E-16,1.,0.));
#1612=DIRECTION('',(1.,0.,0.));
#1613=DIRECTION('',(0.,0.,-1.));
#1614=DIRECTION('',(0.,0.,-1.));
#1615=DIRECTION('',(1.,0.,0.));
#1616=DIRECTION('',(0.,0.,-1.));
#1617=DIRECTION('',(0.,0.,-1.));
#1618=DIRECTION('',(0.,-1.0747976926746E-16,1.));
#1619=DIRECTION('',(-0.707106781186543,0.707106781186552,0.));
#1620=DIRECTION('',(-0.707106781186552,-0.707106781186543,0.));
#1621=DIRECTION('',(0.707106781186547,0.707106781186549,0.));
#1622=DIRECTION('',(-0.707106781186549,0.707106781186547,0.));
#1623=DIRECTION('',(-1.,-3.6102465681099E-16,0.));
#1624=DIRECTION('',(3.6102465681099E-16,-1.,0.));
#1625=DIRECTION('',(1.94014234069546E-32,-5.37398846337301E-17,1.));
#1626=DIRECTION('',(-1.,-3.48571361549258E-16,0.));
#1627=DIRECTION('',(3.48571361549258E-16,-1.,0.));
#1628=DIRECTION('',(0.,0.,-1.));
#1629=DIRECTION('',(0.,0.,1.));
#1630=DIRECTION('',(-0.707106781186546,0.707106781186549,0.));
#1631=DIRECTION('',(-0.707106781186549,-0.707106781186546,0.));
#1632=DIRECTION('',(-0.707106781186546,-0.707106781186549,0.));
#1633=DIRECTION('',(0.707106781186549,-0.707106781186546,0.));
#1634=DIRECTION('',(0.,1.,0.));
#1635=DIRECTION('',(0.,0.,1.));
#1636=DIRECTION('',(0.,1.,0.));
#1637=DIRECTION('',(0.,0.,1.));
#1638=DIRECTION('',(0.,0.,-1.));
#1639=DIRECTION('',(-1.,0.,0.));
#1640=DIRECTION('',(-1.,0.,0.));
#1641=DIRECTION('',(0.,1.,0.));
#1642=DIRECTION('',(0.,0.,1.));
#1643=DIRECTION('',(0.,-1.,0.));
#1644=DIRECTION('',(0.,0.,-1.));
#1645=DIRECTION('',(0.,0.,-1.));
#1646=DIRECTION('',(-1.,0.,0.));
#1647=DIRECTION('',(0.,-1.,0.));
#1648=DIRECTION('',(0.,0.,-1.));
#1649=DIRECTION('',(-1.,0.,0.));
#1650=DIRECTION('',(0.,0.,-1.));
#1651=DIRECTION('',(0.,0.,1.));
#1652=DIRECTION('',(1.,0.,0.));
#1653=DIRECTION('',(1.,0.,0.));
#1654=DIRECTION('',(6.93889390390732E-15,-1.,0.));
#1655=DIRECTION('',(0.707106781186546,-0.707106781186549,0.));
#1656=DIRECTION('',(0.,-1.,0.));
#1657=DIRECTION('',(-0.707106781186548,-0.707106781186548,0.));
#1658=DIRECTION('',(0.,-1.,0.));
#1659=DIRECTION('',(0.,0.,1.));
#1660=DIRECTION('',(1.,0.,0.));
#1661=DIRECTION('',(0.,1.,0.));
#1662=DIRECTION('',(-0.707106781186548,0.707106781186548,0.));
#1663=DIRECTION('',(0.,1.,0.));
#1664=DIRECTION('',(0.707106781186549,0.707106781186546,0.));
#1665=DIRECTION('',(0.,1.,0.));
#1666=DIRECTION('',(1.,0.,0.));
#1667=DIRECTION('',(0.,1.,0.));
#1668=DIRECTION('',(0.,0.,1.));
#1669=DIRECTION('',(0.,0.,-1.));
#1670=DIRECTION('',(0.,0.,-1.));
#1671=DIRECTION('',(-1.,0.,0.));
#1672=DIRECTION('',(0.,0.,1.));
#1673=DIRECTION('',(0.,0.,-1.));
#1674=DIRECTION('',(1.,0.,0.));
#1675=DIRECTION('',(0.,0.,-1.));
#1676=DIRECTION('',(0.,0.,-1.));
#1677=DIRECTION('',(0.707106781186547,-0.707106781186547,0.));
#1678=DIRECTION('',(0.707106781186548,0.707106781186548,0.));
#1679=DIRECTION('',(0.,0.,-1.));
#1680=DIRECTION('',(1.,0.,0.));
#1681=DIRECTION('',(0.,0.,-1.));
#1682=DIRECTION('',(0.,0.,-1.));
#1683=DIRECTION('',(0.707106781186549,0.707106781186546,0.));
#1684=DIRECTION('',(-0.707106781186546,0.707106781186549,0.));
#1685=DIRECTION('',(0.,0.,-1.));
#1686=DIRECTION('',(1.,6.93889390390732E-15,0.));
#1687=DIRECTION('',(-6.93889390390732E-15,1.,0.));
#1688=DIRECTION('',(-1.,0.,0.));
#1689=DIRECTION('',(0.,0.,1.));
#1690=DIRECTION('',(0.,0.,-1.));
#1691=DIRECTION('',(-0.707106781186546,0.707106781186549,0.));
#1692=DIRECTION('',(-0.707106781186549,-0.707106781186546,0.));
#1693=DIRECTION('',(0.,0.,-1.));
#1694=DIRECTION('',(-1.,0.,0.));
#1695=DIRECTION('',(0.,0.,1.));
#1696=DIRECTION('',(0.,0.,-1.));
#1697=DIRECTION('',(-0.707106781186547,-0.707106781186547,0.));
#1698=DIRECTION('',(0.707106781186548,-0.707106781186548,0.));
#1699=CARTESIAN_POINT('',(0.,0.,0.));
#1700=CARTESIAN_POINT('',(0.,0.,-19.05));
#1701=CARTESIAN_POINT('',(15.11,-79.76,-19.05));
#1702=CARTESIAN_POINT('',(13.16,-79.76,-19.05));
#1703=CARTESIAN_POINT('',(45.33,-79.76,-19.05));
#1704=CARTESIAN_POINT('',(43.38,-79.76,-19.05));
#1705=CARTESIAN_POINT('',(61.44,-75.,-19.05));
#1706=CARTESIAN_POINT('',(6.93889390390723E-15,-75.,-19.05));
#1707=CARTESIAN_POINT('',(60.44,-75.,-19.05));
#1708=CARTESIAN_POINT('',(6.93889390390723E-15,-85.52,-19.05));
#1709=CARTESIAN_POINT('',(-2.90482579090668E-16,-86.02,-19.05));
#1710=CARTESIAN_POINT('',(-2.90482579090667E-16,-86.02,-19.05));
#1711=CARTESIAN_POINT('',(60.44,-86.02,-19.05));
#1712=CARTESIAN_POINT('',(60.44,-83.02,-19.05));
#1713=CARTESIAN_POINT('',(60.44,9.5,-47.));
#1714=CARTESIAN_POINT('',(60.44,-8.72,-47.));
#1715=CARTESIAN_POINT('',(60.44,-8.72,-19.05));
#1716=CARTESIAN_POINT('',(60.44,-8.72,-61.56));
#1717=CARTESIAN_POINT('',(60.44,9.5,-19.05));
#1718=CARTESIAN_POINT('',(60.44,-9.72,-19.05));
#1719=CARTESIAN_POINT('',(60.44,-9.72,-47.));
#1720=CARTESIAN_POINT('',(60.44,-9.72,0.));
#1721=CARTESIAN_POINT('',(60.44,-9.72,0.));
#1722=CARTESIAN_POINT('',(60.44,7.5,0.));
#1723=CARTESIAN_POINT('',(60.44,7.5,0.));
#1724=CARTESIAN_POINT('',(60.44,7.5,-61.56));
#1725=CARTESIAN_POINT('',(60.44,5.5,-61.56));
#1726=CARTESIAN_POINT('',(60.44,5.5,-61.56));
#1727=CARTESIAN_POINT('',(60.44,5.5,-39.05));
#1728=CARTESIAN_POINT('',(60.44,5.5,-39.05));
#1729=CARTESIAN_POINT('',(60.44,10.5,-39.05));
#1730=CARTESIAN_POINT('',(60.44,1.49999999999999,-39.05));
#1731=CARTESIAN_POINT('',(60.44,1.49999999999999,-39.05));
#1732=CARTESIAN_POINT('',(60.44,1.49999999999999,-61.56));
#1733=CARTESIAN_POINT('',(60.44,-9.72,-61.56));
#1734=CARTESIAN_POINT('',(0.,9.5,-47.));
#1735=CARTESIAN_POINT('',(0.,-8.72,-47.));
#1736=CARTESIAN_POINT('',(0.,-8.72,-61.56));
#1737=CARTESIAN_POINT('',(0.,-8.72,-19.05));
#1738=CARTESIAN_POINT('',(0.,9.5,-61.56));
#1739=CARTESIAN_POINT('',(0.,1.49999999999999,-61.56));
#1740=CARTESIAN_POINT('',(0.,1.49999999999999,-61.56));
#1741=CARTESIAN_POINT('',(0.,1.49999999999999,-39.05));
#1742=CARTESIAN_POINT('',(0.,7.49999999999999,-39.05));
#1743=CARTESIAN_POINT('',(0.,5.5,-39.05));
#1744=CARTESIAN_POINT('',(0.,5.5,-61.56));
#1745=CARTESIAN_POINT('',(0.,5.5,-61.56));
#1746=CARTESIAN_POINT('',(0.,5.5,-61.56));
#1747=CARTESIAN_POINT('',(0.,7.5,-61.56));
#1748=CARTESIAN_POINT('',(0.,7.5,-39.05));
#1749=CARTESIAN_POINT('',(0.,7.5,0.));
#1750=CARTESIAN_POINT('',(0.,0.,0.));
#1751=CARTESIAN_POINT('',(4.33680868994202E-16,-9.72,0.));
#1752=CARTESIAN_POINT('',(0.,-9.72,-47.));
#1753=CARTESIAN_POINT('',(-2.96935222277507E-16,-9.72,-19.05));
#1754=CARTESIAN_POINT('',(0.,9.5,-19.05));
#1755=CARTESIAN_POINT('',(60.44,-74.,-47.));
#1756=CARTESIAN_POINT('',(60.44,-75.,-47.));
#1757=CARTESIAN_POINT('',(60.44,-75.,-61.56));
#1758=CARTESIAN_POINT('',(60.44,-75.,-24.05));
#1759=CARTESIAN_POINT('',(60.44,-83.02,-61.56));
#1760=CARTESIAN_POINT('',(60.44,-83.02,-61.56));
#1761=CARTESIAN_POINT('',(60.44,-83.02,-47.));
#1762=CARTESIAN_POINT('',(60.44,-83.02,-24.05));
#1763=CARTESIAN_POINT('',(60.44,-74.,-24.05));
#1764=CARTESIAN_POINT('',(0.,-74.,-47.));
#1765=CARTESIAN_POINT('',(0.,-75.,-47.));
#1766=CARTESIAN_POINT('',(0.,-75.,-24.05));
#1767=CARTESIAN_POINT('',(0.,-75.,-61.56));
#1768=CARTESIAN_POINT('',(0.,-83.02,-24.05));
#1769=CARTESIAN_POINT('',(0.,-83.02,-24.05));
#1770=CARTESIAN_POINT('',(0.,-83.02,-47.));
#1771=CARTESIAN_POINT('',(0.,-83.02,-61.56));
#1772=CARTESIAN_POINT('',(0.,-74.,-61.56));
#1773=CARTESIAN_POINT('',(0.,0.,-24.05));
#1774=CARTESIAN_POINT('',(45.33,-79.76,-24.05));
#1775=CARTESIAN_POINT('',(43.38,-79.76,-24.05));
#1776=CARTESIAN_POINT('',(15.11,-79.76,-24.05));
#1777=CARTESIAN_POINT('',(13.16,-79.76,-24.05));
#1778=CARTESIAN_POINT('',(0.,-75.,-24.05));
#1779=CARTESIAN_POINT('',(60.44,-83.02,-24.05));
#1780=CARTESIAN_POINT('',(0.,0.,-39.05));
#1781=CARTESIAN_POINT('',(0.,5.5,-39.05));
#1782=CARTESIAN_POINT('',(0.,1.49999999999999,-39.05));
#1783=CARTESIAN_POINT('',(0.,7.5,0.));
#1784=CARTESIAN_POINT('',(60.44,7.5,-61.56));
#1785=CARTESIAN_POINT('',(63.44,7.5,0.));
#1786=CARTESIAN_POINT('',(63.44,7.5,0.));
#1787=CARTESIAN_POINT('',(63.44,7.5,-64.56));
#1788=CARTESIAN_POINT('',(63.44,7.5,-64.56));
#1789=CARTESIAN_POINT('',(-3.00000000000001,7.5,-64.56));
#1790=CARTESIAN_POINT('',(-3.00000000000001,7.5,-64.56));
#1791=CARTESIAN_POINT('',(-3.00000000000001,7.5,0.));
#1792=CARTESIAN_POINT('',(-3.00000000000001,7.5,0.));
#1793=CARTESIAN_POINT('',(0.,7.5,0.));
#1794=CARTESIAN_POINT('',(15.11,-20.6284948016906,-50.305));
#1795=CARTESIAN_POINT('',(15.11,1.49999999999999,-50.305));
#1796=CARTESIAN_POINT('',(15.11,1.49999999999999,-49.055));
#1797=CARTESIAN_POINT('',(15.11,5.5,-50.305));
#1798=CARTESIAN_POINT('',(16.36,5.5,-50.305));
#1799=CARTESIAN_POINT('',(45.33,-20.6284948016906,-50.305));
#1800=CARTESIAN_POINT('',(45.33,1.49999999999999,-50.305));
#1801=CARTESIAN_POINT('',(45.33,1.49999999999999,-49.055));
#1802=CARTESIAN_POINT('',(45.33,5.5,-50.305));
#1803=CARTESIAN_POINT('',(46.58,5.5,-50.305));
#1804=CARTESIAN_POINT('',(0.,0.,0.));
#1805=CARTESIAN_POINT('',(-3.,-9.72,0.));
#1806=CARTESIAN_POINT('',(-2.99999999999999,-9.72,0.));
#1807=CARTESIAN_POINT('',(-2.99999999999999,-9.72,0.));
#1808=CARTESIAN_POINT('',(-5.28000000000001,-12.,0.));
#1809=CARTESIAN_POINT('',(-5.28,-71.72,0.));
#1810=CARTESIAN_POINT('',(-5.27999999999999,-71.72,0.));
#1811=CARTESIAN_POINT('',(-5.27999999999999,-71.72,0.));
#1812=CARTESIAN_POINT('',(-2.99999999999998,-74.,0.));
#1813=CARTESIAN_POINT('',(-2.99999999999997,-86.52,0.));
#1814=CARTESIAN_POINT('',(-2.99999999999997,-86.02,0.));
#1815=CARTESIAN_POINT('',(-2.99999999999997,-86.02,0.));
#1816=CARTESIAN_POINT('',(6.93889390390723E-15,-86.02,0.));
#1817=CARTESIAN_POINT('',(7.04731412115578E-16,-79.76,0.));
#1818=CARTESIAN_POINT('',(0.,-74.,0.));
#1819=CARTESIAN_POINT('',(2.79219470205595E-16,-74.,0.));
#1820=CARTESIAN_POINT('',(-2.27999999999999,-71.72,0.));
#1821=CARTESIAN_POINT('',(-2.28,-12.,0.));
#1822=CARTESIAN_POINT('',(-2.28,-12.,0.));
#1823=CARTESIAN_POINT('',(-2.28,-12.,0.));
#1824=CARTESIAN_POINT('',(0.,0.,0.));
#1825=CARTESIAN_POINT('',(60.44,-9.72,0.));
#1826=CARTESIAN_POINT('',(62.72,-12.,0.));
#1827=CARTESIAN_POINT('',(62.72,-71.72,0.));
#1828=CARTESIAN_POINT('',(62.72,-71.72,0.));
#1829=CARTESIAN_POINT('',(60.44,-74.,0.));
#1830=CARTESIAN_POINT('',(60.44,-74.,0.));
#1831=CARTESIAN_POINT('',(60.44,-85.52,0.));
#1832=CARTESIAN_POINT('',(60.44,-86.02,0.));
#1833=CARTESIAN_POINT('',(60.44,-86.02,0.));
#1834=CARTESIAN_POINT('',(63.44,-86.02,0.));
#1835=CARTESIAN_POINT('',(63.44,-74.,0.));
#1836=CARTESIAN_POINT('',(63.44,-74.,0.));
#1837=CARTESIAN_POINT('',(63.44,-74.,0.));
#1838=CARTESIAN_POINT('',(65.72,-71.72,0.));
#1839=CARTESIAN_POINT('',(65.72,-12.,0.));
#1840=CARTESIAN_POINT('',(65.72,-12.,0.));
#1841=CARTESIAN_POINT('',(63.44,-9.72,0.));
#1842=CARTESIAN_POINT('',(63.44,-9.72,0.));
#1843=CARTESIAN_POINT('',(63.44,9.5,0.));
#1844=CARTESIAN_POINT('',(0.,0.,-64.56));
#1845=CARTESIAN_POINT('',(63.44,-9.72,-64.56));
#1846=CARTESIAN_POINT('',(63.44,-9.72,-64.56));
#1847=CARTESIAN_POINT('',(26.8599999999999,26.86,-64.56));
#1848=CARTESIAN_POINT('',(65.72,-12.,-64.56));
#1849=CARTESIAN_POINT('',(65.72,-71.72,-64.56));
#1850=CARTESIAN_POINT('',(65.72,-71.72,-64.56));
#1851=CARTESIAN_POINT('',(68.7199999999996,-68.7200000000005,-64.56));
#1852=CARTESIAN_POINT('',(63.44,-74.,-64.56));
#1853=CARTESIAN_POINT('',(63.44,-86.52,-64.56));
#1854=CARTESIAN_POINT('',(63.44,-86.02,-64.56));
#1855=CARTESIAN_POINT('',(63.44,-86.02,-64.56));
#1856=CARTESIAN_POINT('',(-2.99999999999998,-86.02,-64.56));
#1857=CARTESIAN_POINT('',(-2.99999999999998,-74.,-64.56));
#1858=CARTESIAN_POINT('',(-2.99999999999998,-74.,-64.56));
#1859=CARTESIAN_POINT('',(-38.5,-38.5000000000002,-64.56));
#1860=CARTESIAN_POINT('',(-5.28,-71.72,-64.56));
#1861=CARTESIAN_POINT('',(-5.28000000000002,-12.,-64.56));
#1862=CARTESIAN_POINT('',(-5.28000000000001,-12.,-64.56));
#1863=CARTESIAN_POINT('',(3.36000000000001,-3.36000000000002,-64.56));
#1864=CARTESIAN_POINT('',(-3.,-9.72,-64.56));
#1865=CARTESIAN_POINT('',(-3.00000000000001,9.5,-64.56));
#1866=CARTESIAN_POINT('',(63.44,0.,0.));
#1867=CARTESIAN_POINT('',(63.44,-86.02,0.));
#1868=CARTESIAN_POINT('',(63.44,-74.,-64.56));
#1869=CARTESIAN_POINT('',(-3.,-1.08307397043297E-15,0.));
#1870=CARTESIAN_POINT('',(-2.99999999999998,-86.02,-64.56));
#1871=CARTESIAN_POINT('',(-2.99999999999998,-74.,0.));
#1872=CARTESIAN_POINT('',(-2.78,-56.79,-6.35));
#1873=CARTESIAN_POINT('',(-3.28,-56.79,-6.35));
#1874=CARTESIAN_POINT('',(-3.28,-55.04,-6.35));
#1875=CARTESIAN_POINT('',(-5.28,-56.79,-6.34999999999999));
#1876=CARTESIAN_POINT('',(-5.28,-58.54,-6.34999999999999));
#1877=CARTESIAN_POINT('',(-2.78000000000001,-26.93,-6.35));
#1878=CARTESIAN_POINT('',(-3.28000000000001,-26.93,-6.35));
#1879=CARTESIAN_POINT('',(-3.28000000000001,-25.18,-6.35));
#1880=CARTESIAN_POINT('',(-5.28000000000001,-26.93,-6.34999999999999));
#1881=CARTESIAN_POINT('',(-5.28000000000001,-28.68,-6.34999999999999));
#1882=CARTESIAN_POINT('',(63.22,-26.93,-6.34999999999999));
#1883=CARTESIAN_POINT('',(63.72,-26.93,-6.34999999999999));
#1884=CARTESIAN_POINT('',(63.72,-26.93,-4.59999999999999));
#1885=CARTESIAN_POINT('',(65.72,-26.93,-6.34999999999999));
#1886=CARTESIAN_POINT('',(65.72,-26.93,-8.1));
#1887=CARTESIAN_POINT('',(63.22,-56.79,-6.35));
#1888=CARTESIAN_POINT('',(63.72,-56.79,-6.35));
#1889=CARTESIAN_POINT('',(63.72,-56.79,-4.6));
#1890=CARTESIAN_POINT('',(65.72,-56.79,-6.34999999999999));
#1891=CARTESIAN_POINT('',(65.72,-56.79,-8.1));
#1892=CARTESIAN_POINT('',(0.,-83.02,-47.));
#1893=CARTESIAN_POINT('',(0.,-83.02,-61.56));
#1894=CARTESIAN_POINT('',(-2.28,-12.,-47.));
#1895=CARTESIAN_POINT('',(-2.28,-56.79,-6.35));
#1896=CARTESIAN_POINT('',(-2.28,-57.79,-6.35));
#1897=CARTESIAN_POINT('',(-2.28,-26.93,-6.34999999999999));
#1898=CARTESIAN_POINT('',(-2.28,-27.9300000880128,-6.34999999999999));
#1899=CARTESIAN_POINT('',(-2.27999999999999,-71.72,-47.));
#1900=CARTESIAN_POINT('',(-2.27999999999999,-71.72,-19.05));
#1901=CARTESIAN_POINT('',(-2.28,-12.,-19.05));
#1902=CARTESIAN_POINT('',(-2.28,-12.,-19.05));
#1903=CARTESIAN_POINT('',(-2.28,-12.,-47.));
#1904=CARTESIAN_POINT('',(62.72,-12.,-47.));
#1905=CARTESIAN_POINT('',(62.72,-56.79,-6.35));
#1906=CARTESIAN_POINT('',(62.72,-56.79,-7.35));
#1907=CARTESIAN_POINT('',(62.72,-26.93,-6.34999999999999));
#1908=CARTESIAN_POINT('',(62.72,-26.93,-7.35000008801275));
#1909=CARTESIAN_POINT('',(62.72,-12.,-47.));
#1910=CARTESIAN_POINT('',(62.72,-12.,-19.05));
#1911=CARTESIAN_POINT('',(62.72,-12.,-19.05));
#1912=CARTESIAN_POINT('',(62.72,-71.72,-19.05));
#1913=CARTESIAN_POINT('',(62.72,-71.72,-47.));
#1914=CARTESIAN_POINT('',(60.44,-74.,-47.));
#1915=CARTESIAN_POINT('',(60.44,-83.02,-19.05));
#1916=CARTESIAN_POINT('',(60.44,-74.,-19.05));
#1917=CARTESIAN_POINT('',(60.44,-86.02,-19.05));
#1918=CARTESIAN_POINT('',(60.44,-74.,-47.));
#1919=CARTESIAN_POINT('',(60.44,-74.,-47.));
#1920=CARTESIAN_POINT('',(60.44,-74.,-19.05));
#1921=CARTESIAN_POINT('',(60.44,-9.72,-47.));
#1922=CARTESIAN_POINT('',(60.44,-9.72,-19.05));
#1923=CARTESIAN_POINT('',(0.,-9.72,-47.));
#1924=CARTESIAN_POINT('',(0.,-9.72,-19.05));
#1925=CARTESIAN_POINT('',(-2.27999999999999,-71.72,-47.));
#1926=CARTESIAN_POINT('',(0.,-74.,-47.));
#1927=CARTESIAN_POINT('',(0.,-74.,-19.05));
#1928=CARTESIAN_POINT('',(-2.27999999999999,-71.72,-19.05));
#1929=CARTESIAN_POINT('',(0.,-74.,-47.));
#1930=CARTESIAN_POINT('',(6.93889390390723E-15,-86.02,0.));
#1931=CARTESIAN_POINT('',(6.93889390390723E-15,-85.52,-19.05));
#1932=CARTESIAN_POINT('',(0.,0.,-61.56));
#1933=CARTESIAN_POINT('',(61.44,-8.72,-61.56));
#1934=CARTESIAN_POINT('',(61.44,-8.72,-61.56));
#1935=CARTESIAN_POINT('',(60.44,1.49999999999999,-61.56));
#1936=CARTESIAN_POINT('',(61.44,-8.72,-61.56));
#1937=CARTESIAN_POINT('',(-1.,-8.72,-61.56));
#1938=CARTESIAN_POINT('',(-1.,-8.72,-61.56));
#1939=CARTESIAN_POINT('',(-1.,-9.72,-61.56));
#1940=CARTESIAN_POINT('',(-3.28,-12.,-61.56));
#1941=CARTESIAN_POINT('',(-3.28,-12.,-61.56));
#1942=CARTESIAN_POINT('',(-3.28,-12.,-61.56));
#1943=CARTESIAN_POINT('',(-3.28,-71.72,-61.56));
#1944=CARTESIAN_POINT('',(-1.,-74.,-61.56));
#1945=CARTESIAN_POINT('',(-1.,-74.,-61.56));
#1946=CARTESIAN_POINT('',(-0.999999999999994,-75.,-61.56));
#1947=CARTESIAN_POINT('',(-0.999999999999994,-75.,-61.56));
#1948=CARTESIAN_POINT('',(61.44,-75.,-61.56));
#1949=CARTESIAN_POINT('',(61.44,-75.,-61.56));
#1950=CARTESIAN_POINT('',(61.44,-75.,-61.56));
#1951=CARTESIAN_POINT('',(61.44,-74.,-61.56));
#1952=CARTESIAN_POINT('',(61.44,-74.,-61.56));
#1953=CARTESIAN_POINT('',(63.72,-71.72,-61.56));
#1954=CARTESIAN_POINT('',(63.72,-71.72,-61.56));
#1955=CARTESIAN_POINT('',(63.72,-71.72,-61.56));
#1956=CARTESIAN_POINT('',(63.72,-12.,-61.56));
#1957=CARTESIAN_POINT('',(61.44,-9.72,-61.56));
#1958=CARTESIAN_POINT('',(61.44,-9.72,-61.56));
#1959=CARTESIAN_POINT('',(61.44,-9.72,-61.56));
#1960=CARTESIAN_POINT('',(15.11,-79.76,-31.6072421677277));
#1961=CARTESIAN_POINT('',(45.33,-79.76,-31.6072421677277));
#1962=CARTESIAN_POINT('',(91.6055224735783,-26.93,-6.34999999999999));
#1963=CARTESIAN_POINT('',(-3.28000000000001,-26.93,-6.34999999999999));
#1964=CARTESIAN_POINT('',(-3.28000000000001,-25.9299999119872,-6.34999999999999));
#1965=CARTESIAN_POINT('',(91.6055224735783,-26.93,-6.34999999999999));
#1966=CARTESIAN_POINT('',(63.72,-26.93,-6.34999999999999));
#1967=CARTESIAN_POINT('',(63.72,-26.93,-5.34999991198724));
#1968=CARTESIAN_POINT('',(80.6970497866404,-56.79,-6.35));
#1969=CARTESIAN_POINT('',(63.72,-56.79,-6.35));
#1970=CARTESIAN_POINT('',(63.72,-56.79,-5.35));
#1971=CARTESIAN_POINT('',(80.6970497866404,-56.79,-6.35));
#1972=CARTESIAN_POINT('',(-3.28,-56.79,-6.35));
#1973=CARTESIAN_POINT('',(-3.28,-55.79,-6.35));
#1974=CARTESIAN_POINT('',(63.72,-56.79,-6.35));
#1975=CARTESIAN_POINT('',(63.72,-26.93,-6.34999999999999));
#1976=CARTESIAN_POINT('',(-3.28000000000001,-26.93,-6.35));
#1977=CARTESIAN_POINT('',(-3.28,-56.79,-6.35));
#1978=CARTESIAN_POINT('',(63.44,0.,0.));
#1979=CARTESIAN_POINT('',(63.44,-9.72,0.));
#1980=CARTESIAN_POINT('',(65.72,0.,0.));
#1981=CARTESIAN_POINT('',(65.72,-71.72,0.));
#1982=CARTESIAN_POINT('',(65.72,-12.,-64.56));
#1983=CARTESIAN_POINT('',(63.44,-74.,-78.9304823467153));
#1984=CARTESIAN_POINT('',(63.44,-9.72,-81.6034137670819));
#1985=CARTESIAN_POINT('',(-3.,-1.08307397043297E-15,0.));
#1986=CARTESIAN_POINT('',(-3.,-9.72,-64.56));
#1987=CARTESIAN_POINT('',(-5.28000000000002,-1.84045678898009E-15,0.));
#1988=CARTESIAN_POINT('',(-5.28000000000002,-12.,0.));
#1989=CARTESIAN_POINT('',(-5.28,-71.72,-64.56));
#1990=CARTESIAN_POINT('',(-2.99999999999999,-9.72,-76.6411549159515));
#1991=CARTESIAN_POINT('',(-5.27999999999999,-71.72,-75.8778430527808));
#1992=CARTESIAN_POINT('',(0.,-86.02,0.));
#1993=CARTESIAN_POINT('',(0.,1.49999999999999,0.));
#1994=CARTESIAN_POINT('',(60.44,5.5,-61.56));
#1995=CARTESIAN_POINT('',(60.44,5.5,-61.56));
#1996=CARTESIAN_POINT('',(0.,5.5,0.));
#1997=CARTESIAN_POINT('',(61.44,-8.72,-19.05));
#1998=CARTESIAN_POINT('',(61.44,-8.72,-19.05));
#1999=CARTESIAN_POINT('',(61.44,-8.72,-19.05));
#2000=CARTESIAN_POINT('',(61.44,-8.72,-19.05));
#2001=CARTESIAN_POINT('',(61.44,-8.72,-19.05));
#2002=CARTESIAN_POINT('',(61.44,-8.72,-19.05));
#2003=CARTESIAN_POINT('',(-1.,-8.72,-19.05));
#2004=CARTESIAN_POINT('',(-1.,-8.72,-19.05));
#2005=CARTESIAN_POINT('',(0.,0.,-19.05));
#2006=CARTESIAN_POINT('',(61.44,-75.,-19.05));
#2007=CARTESIAN_POINT('',(-0.999999999999994,-75.,-19.05));
#2008=CARTESIAN_POINT('',(-0.999999999999994,-75.,-19.05));
#2009=CARTESIAN_POINT('',(-1.,-74.,-19.05));
#2010=CARTESIAN_POINT('',(-1.,-74.,-19.05));
#2011=CARTESIAN_POINT('',(-3.28,-71.72,-19.05));
#2012=CARTESIAN_POINT('',(-3.28,-12.,-19.05));
#2013=CARTESIAN_POINT('',(-3.28,-12.,-19.05));
#2014=CARTESIAN_POINT('',(-3.28,-12.,-19.05));
#2015=CARTESIAN_POINT('',(-1.,-9.72,-19.05));
#2016=CARTESIAN_POINT('',(-1.,-8.72,-19.05));
#2017=CARTESIAN_POINT('',(0.,0.,-19.05));
#2018=CARTESIAN_POINT('',(61.44,-9.72,-19.05));
#2019=CARTESIAN_POINT('',(61.44,-9.72,-19.05));
#2020=CARTESIAN_POINT('',(61.44,-9.72,-19.05));
#2021=CARTESIAN_POINT('',(63.72,-12.,-19.05));
#2022=CARTESIAN_POINT('',(63.72,-71.72,-19.05));
#2023=CARTESIAN_POINT('',(63.72,-71.72,-19.05));
#2024=CARTESIAN_POINT('',(63.72,-71.72,-19.05));
#2025=CARTESIAN_POINT('',(61.44,-74.,-19.05));
#2026=CARTESIAN_POINT('',(61.44,-74.,-19.05));
#2027=CARTESIAN_POINT('',(61.44,-75.,-19.05));
#2028=CARTESIAN_POINT('',(61.44,-75.,-19.05));
#2029=CARTESIAN_POINT('',(61.44,-75.,-19.05));
#2030=CARTESIAN_POINT('',(-0.999999999999994,-75.,-19.05));
#2031=CARTESIAN_POINT('',(61.44,-75.,-19.05));
#2032=CARTESIAN_POINT('',(61.44,-9.72,-19.05));
#2033=CARTESIAN_POINT('',(61.44,-9.72,-19.05));
#2034=CARTESIAN_POINT('',(-1.,-8.72,-19.05));
#2035=CARTESIAN_POINT('',(-1.,-9.72,-19.05));
#2036=CARTESIAN_POINT('',(-3.28,-12.,-19.05));
#2037=CARTESIAN_POINT('',(-3.28,-12.,-19.05));
#2038=CARTESIAN_POINT('',(-3.28,-12.,-19.05));
#2039=CARTESIAN_POINT('',(-3.28,-71.72,-19.05));
#2040=CARTESIAN_POINT('',(-1.,-74.,-19.05));
#2041=CARTESIAN_POINT('',(-1.,-74.,-19.05));
#2042=CARTESIAN_POINT('',(-0.999999999999994,-75.,-19.05));
#2043=CARTESIAN_POINT('',(61.44,-74.,-19.05));
#2044=CARTESIAN_POINT('',(61.44,-74.,-19.05));
#2045=CARTESIAN_POINT('',(63.72,-71.72,-19.05));
#2046=CARTESIAN_POINT('',(63.72,-71.72,-19.05));
#2047=CARTESIAN_POINT('',(63.72,-71.72,-19.05));
#2048=CARTESIAN_POINT('',(63.72,-12.,-19.05));
#2049=CARTESIAN_POINT('',(61.44,-9.72,-19.05));
#2050=MECHANICAL_DESIGN_GEOMETRIC_PRESENTATION_REPRESENTATION('',(#1273),
#2051);
#2051=(
GEOMETRIC_REPRESENTATION_CONTEXT(3)
GLOBAL_UNCERTAINTY_ASSIGNED_CONTEXT((#2052))
GLOBAL_UNIT_ASSIGNED_CONTEXT((#2055,#2054,#2053))
REPRESENTATION_CONTEXT('04_FDML_stimfix_PCB_boards_housing',
'TOP_LEVEL_ASSEMBLY_PART')
);
#2052=UNCERTAINTY_MEASURE_WITH_UNIT(LENGTH_MEASURE(0.005),#2055,
'DISTANCE_ACCURACY_VALUE','Maximum Tolerance applied to model');
#2053=(
NAMED_UNIT(*)
SI_UNIT($,.STERADIAN.)
SOLID_ANGLE_UNIT()
);
#2054=(
NAMED_UNIT(*)
PLANE_ANGLE_UNIT()
SI_UNIT($,.RADIAN.)
);
#2055=(
LENGTH_UNIT()
NAMED_UNIT(*)
SI_UNIT(.MILLI.,.METRE.)
);
#2056=PRODUCT_DEFINITION_SHAPE('','',#2057);
#2057=PRODUCT_DEFINITION('','',#2059,#2058);
#2058=PRODUCT_DEFINITION_CONTEXT('',#2065,'design');
#2059=PRODUCT_DEFINITION_FORMATION_WITH_SPECIFIED_SOURCE('','',#2061,
 .NOT_KNOWN.);
#2060=PRODUCT_RELATED_PRODUCT_CATEGORY('','',(#2061));
#2061=PRODUCT('04_FDML_stimfix_PCB_boards_housing',
'04_FDML_stimfix_PCB_boards_housing',
'04_FDML_stimfix_PCB_boards_housing',(#2063));
#2062=PRODUCT_CATEGORY('','');
#2063=PRODUCT_CONTEXT('',#2065,'mechanical');
#2064=APPLICATION_PROTOCOL_DEFINITION('international standard',
'automotive_design',2010,#2065);
#2065=APPLICATION_CONTEXT(
'core data for automotive mechanical design processes');
ENDSEC;
END-ISO-10303-21;
