ISO-10303-21;
HEADER;
/* Generated by software containing ST-Developer
 * from STEP Tools, Inc. (www.steptools.com) 
 */
/* OPTION: strings as raw bytes, not using required /X/ escapes */

FILE_DESCRIPTION(
/* description */ ('Unknown'),
/* implementation_level */ '2;1');

FILE_NAME(
/* name */ '05_FDML_stimfix_LCD_screen_front_panel',
/* time_stamp */ '2026-09-07T13:56:42+02:00',
/* author */ ('Unknown'),
/* organization */ ('Unknown'),
/* preprocessor_version */ 'ST-DEVELOPER v16.7',
/* originating_system */ 'Solid Edge',
/* authorisation */ 'Unknown');

FILE_SCHEMA (('AUTOMOTIVE_DESIGN {1 0 10303 214 3 1 1}'));
ENDSEC;

DATA;
#10=PROPERTY_DEFINITION_REPRESENTATION(#14,#12);
#11=PROPERTY_DEFINITION_REPRESENTATION(#15,#13);
#12=REPRESENTATION('',(#16),#1469);
#13=REPRESENTATION('',(#17),#1469);
#14=PROPERTY_DEFINITION('pmi validation property','',#1474);
#15=PROPERTY_DEFINITION('pmi validation property','',#1474);
#16=VALUE_REPRESENTATION_ITEM('number of annotations',COUNT_MEASURE(0.));
#17=VALUE_REPRESENTATION_ITEM('number of views',COUNT_MEASURE(0.));
#18=SHAPE_REPRESENTATION_RELATIONSHIP('','',#895,#19);
#19=ADVANCED_BREP_SHAPE_REPRESENTATION('',(#893),#1469);
#20=LINE('',#1259,#86);
#21=LINE('',#1262,#87);
#22=LINE('',#1264,#88);
#23=LINE('',#1266,#89);
#24=LINE('',#1267,#90);
#25=LINE('',#1270,#91);
#26=LINE('',#1272,#92);
#27=LINE('',#1274,#93);
#28=LINE('',#1278,#94);
#29=LINE('',#1280,#95);
#30=LINE('',#1282,#96);
#31=LINE('',#1284,#97);
#32=LINE('',#1286,#98);
#33=LINE('',#1288,#99);
#34=LINE('',#1290,#100);
#35=LINE('',#1292,#101);
#36=LINE('',#1294,#102);
#37=LINE('',#1296,#103);
#38=LINE('',#1298,#104);
#39=LINE('',#1300,#105);
#40=LINE('',#1302,#106);
#41=LINE('',#1304,#107);
#42=LINE('',#1306,#108);
#43=LINE('',#1312,#109);
#44=LINE('',#1315,#110);
#45=LINE('',#1317,#111);
#46=LINE('',#1319,#112);
#47=LINE('',#1320,#113);
#48=LINE('',#1323,#114);
#49=LINE('',#1325,#115);
#50=LINE('',#1327,#116);
#51=LINE('',#1328,#117);
#52=LINE('',#1331,#118);
#53=LINE('',#1333,#119);
#54=LINE('',#1335,#120);
#55=LINE('',#1336,#121);
#56=LINE('',#1339,#122);
#57=LINE('',#1340,#123);
#58=LINE('',#1342,#124);
#59=LINE('',#1343,#125);
#60=LINE('',#1345,#126);
#61=LINE('',#1347,#127);
#62=LINE('',#1359,#128);
#63=LINE('',#1360,#129);
#64=LINE('',#1363,#130);
#65=LINE('',#1365,#131);
#66=LINE('',#1367,#132);
#67=LINE('',#1369,#133);
#68=LINE('',#1371,#134);
#69=LINE('',#1373,#135);
#70=LINE('',#1375,#136);
#71=LINE('',#1377,#137);
#72=LINE('',#1379,#138);
#73=LINE('',#1380,#139);
#74=LINE('',#1382,#140);
#75=LINE('',#1384,#141);
#76=LINE('',#1402,#142);
#77=LINE('',#1421,#143);
#78=LINE('',#1424,#144);
#79=LINE('',#1425,#145);
#80=LINE('',#1427,#146);
#81=LINE('',#1429,#147);
#82=LINE('',#1431,#148);
#83=LINE('',#1433,#149);
#84=LINE('',#1440,#150);
#85=LINE('',#1463,#151);
#86=VECTOR('',#1018,1000.);
#87=VECTOR('',#1019,1000.);
#88=VECTOR('',#1020,1000.);
#89=VECTOR('',#1021,1000.);
#90=VECTOR('',#1022,1000.);
#91=VECTOR('',#1023,1000.);
#92=VECTOR('',#1024,1000.);
#93=VECTOR('',#1025,1000.);
#94=VECTOR('',#1030,1000.);
#95=VECTOR('',#1031,1000.);
#96=VECTOR('',#1032,1000.);
#97=VECTOR('',#1035,1000.);
#98=VECTOR('',#1036,1000.);
#99=VECTOR('',#1037,1000.);
#100=VECTOR('',#1038,1000.);
#101=VECTOR('',#1039,1000.);
#102=VECTOR('',#1040,1000.);
#103=VECTOR('',#1041,1000.);
#104=VECTOR('',#1044,1000.);
#105=VECTOR('',#1045,1000.);
#106=VECTOR('',#1046,1000.);
#107=VECTOR('',#1047,1000.);
#108=VECTOR('',#1048,1000.);
#109=VECTOR('',#1055,1000.);
#110=VECTOR('',#1056,1000.);
#111=VECTOR('',#1057,1000.);
#112=VECTOR('',#1058,1000.);
#113=VECTOR('',#1059,1000.);
#114=VECTOR('',#1060,1000.);
#115=VECTOR('',#1061,1000.);
#116=VECTOR('',#1062,1000.);
#117=VECTOR('',#1063,1000.);
#118=VECTOR('',#1064,1000.);
#119=VECTOR('',#1065,1000.);
#120=VECTOR('',#1066,1000.);
#121=VECTOR('',#1067,1000.);
#122=VECTOR('',#1068,1000.);
#123=VECTOR('',#1069,1000.);
#124=VECTOR('',#1072,1000.);
#125=VECTOR('',#1073,1000.);
#126=VECTOR('',#1074,1000.);
#127=VECTOR('',#1075,1000.);
#128=VECTOR('',#1088,1000.);
#129=VECTOR('',#1089,1000.);
#130=VECTOR('',#1094,1000.);
#131=VECTOR('',#1095,1000.);
#132=VECTOR('',#1096,1000.);
#133=VECTOR('',#1099,1000.);
#134=VECTOR('',#1100,1000.);
#135=VECTOR('',#1103,1000.);
#136=VECTOR('',#1104,1000.);
#137=VECTOR('',#1107,1000.);
#138=VECTOR('',#1110,1000.);
#139=VECTOR('',#1111,1000.);
#140=VECTOR('',#1114,1000.);
#141=VECTOR('',#1117,1000.);
#142=VECTOR('',#1142,1000.);
#143=VECTOR('',#1171,1000.);
#144=VECTOR('',#1172,1000.);
#145=VECTOR('',#1173,1000.);
#146=VECTOR('',#1176,1000.);
#147=VECTOR('',#1177,1000.);
#148=VECTOR('',#1180,1000.);
#149=VECTOR('',#1181,1000.);
#150=VECTOR('',#1190,1000.);
#151=VECTOR('',#1223,1000.);
#152=PLANE('',#906);
#153=PLANE('',#912);
#154=PLANE('',#914);
#155=PLANE('',#915);
#156=PLANE('',#918);
#157=PLANE('',#919);
#158=PLANE('',#922);
#159=PLANE('',#926);
#160=PLANE('',#927);
#161=PLANE('',#928);
#162=PLANE('',#929);
#163=PLANE('',#930);
#164=PLANE('',#931);
#165=PLANE('',#932);
#166=PLANE('',#933);
#167=PLANE('',#934);
#168=PLANE('',#935);
#169=PLANE('',#945);
#170=PLANE('',#946);
#171=PLANE('',#949);
#172=PLANE('',#952);
#173=PLANE('',#955);
#174=PLANE('',#958);
#175=PLANE('',#959);
#176=PLANE('',#960);
#177=PLANE('',#961);
#178=PLANE('',#965);
#179=PLANE('',#966);
#180=PLANE('',#969);
#181=PLANE('',#980);
#182=PLANE('',#981);
#183=PLANE('',#982);
#184=PLANE('',#983);
#185=PLANE('',#984);
#186=PLANE('',#985);
#187=ORIENTED_EDGE('',*,*,#391,.F.);
#188=ORIENTED_EDGE('',*,*,#392,.T.);
#189=ORIENTED_EDGE('',*,*,#393,.F.);
#190=ORIENTED_EDGE('',*,*,#394,.T.);
#191=ORIENTED_EDGE('',*,*,#395,.F.);
#192=ORIENTED_EDGE('',*,*,#396,.T.);
#193=ORIENTED_EDGE('',*,*,#397,.T.);
#194=ORIENTED_EDGE('',*,*,#398,.T.);
#195=ORIENTED_EDGE('',*,*,#399,.T.);
#196=ORIENTED_EDGE('',*,*,#400,.T.);
#197=ORIENTED_EDGE('',*,*,#401,.T.);
#198=ORIENTED_EDGE('',*,*,#402,.F.);
#199=ORIENTED_EDGE('',*,*,#403,.F.);
#200=ORIENTED_EDGE('',*,*,#404,.F.);
#201=ORIENTED_EDGE('',*,*,#405,.F.);
#202=ORIENTED_EDGE('',*,*,#406,.F.);
#203=ORIENTED_EDGE('',*,*,#407,.T.);
#204=ORIENTED_EDGE('',*,*,#408,.F.);
#205=ORIENTED_EDGE('',*,*,#409,.T.);
#206=ORIENTED_EDGE('',*,*,#395,.T.);
#207=ORIENTED_EDGE('',*,*,#410,.T.);
#208=ORIENTED_EDGE('',*,*,#411,.F.);
#209=ORIENTED_EDGE('',*,*,#409,.F.);
#210=ORIENTED_EDGE('',*,*,#412,.F.);
#211=ORIENTED_EDGE('',*,*,#413,.F.);
#212=ORIENTED_EDGE('',*,*,#414,.F.);
#213=ORIENTED_EDGE('',*,*,#415,.T.);
#214=ORIENTED_EDGE('',*,*,#416,.F.);
#215=ORIENTED_EDGE('',*,*,#417,.F.);
#216=ORIENTED_EDGE('',*,*,#418,.T.);
#217=ORIENTED_EDGE('',*,*,#419,.T.);
#218=ORIENTED_EDGE('',*,*,#420,.F.);
#219=ORIENTED_EDGE('',*,*,#413,.T.);
#220=ORIENTED_EDGE('',*,*,#421,.F.);
#221=ORIENTED_EDGE('',*,*,#419,.F.);
#222=ORIENTED_EDGE('',*,*,#422,.T.);
#223=ORIENTED_EDGE('',*,*,#423,.T.);
#224=ORIENTED_EDGE('',*,*,#424,.T.);
#225=ORIENTED_EDGE('',*,*,#425,.F.);
#226=ORIENTED_EDGE('',*,*,#426,.T.);
#227=ORIENTED_EDGE('',*,*,#427,.T.);
#228=ORIENTED_EDGE('',*,*,#428,.F.);
#229=ORIENTED_EDGE('',*,*,#429,.F.);
#230=ORIENTED_EDGE('',*,*,#430,.F.);
#231=ORIENTED_EDGE('',*,*,#431,.F.);
#232=ORIENTED_EDGE('',*,*,#432,.T.);
#233=ORIENTED_EDGE('',*,*,#433,.T.);
#234=ORIENTED_EDGE('',*,*,#434,.T.);
#235=ORIENTED_EDGE('',*,*,#435,.T.);
#236=ORIENTED_EDGE('',*,*,#436,.T.);
#237=ORIENTED_EDGE('',*,*,#437,.T.);
#238=ORIENTED_EDGE('',*,*,#438,.T.);
#239=ORIENTED_EDGE('',*,*,#439,.T.);
#240=ORIENTED_EDGE('',*,*,#440,.F.);
#241=ORIENTED_EDGE('',*,*,#441,.F.);
#242=ORIENTED_EDGE('',*,*,#425,.T.);
#243=ORIENTED_EDGE('',*,*,#442,.T.);
#244=ORIENTED_EDGE('',*,*,#443,.F.);
#245=ORIENTED_EDGE('',*,*,#440,.T.);
#246=ORIENTED_EDGE('',*,*,#444,.F.);
#247=ORIENTED_EDGE('',*,*,#445,.F.);
#248=ORIENTED_EDGE('',*,*,#446,.F.);
#249=ORIENTED_EDGE('',*,*,#417,.T.);
#250=ORIENTED_EDGE('',*,*,#447,.F.);
#251=ORIENTED_EDGE('',*,*,#448,.T.);
#252=ORIENTED_EDGE('',*,*,#449,.F.);
#253=ORIENTED_EDGE('',*,*,#450,.F.);
#254=ORIENTED_EDGE('',*,*,#451,.F.);
#255=ORIENTED_EDGE('',*,*,#452,.F.);
#256=ORIENTED_EDGE('',*,*,#445,.T.);
#257=ORIENTED_EDGE('',*,*,#453,.F.);
#258=ORIENTED_EDGE('',*,*,#423,.F.);
#259=ORIENTED_EDGE('',*,*,#424,.F.);
#260=ORIENTED_EDGE('',*,*,#453,.T.);
#261=ORIENTED_EDGE('',*,*,#444,.T.);
#262=ORIENTED_EDGE('',*,*,#442,.F.);
#263=ORIENTED_EDGE('',*,*,#454,.F.);
#264=ORIENTED_EDGE('',*,*,#455,.T.);
#265=ORIENTED_EDGE('',*,*,#456,.T.);
#266=ORIENTED_EDGE('',*,*,#437,.F.);
#267=ORIENTED_EDGE('',*,*,#456,.F.);
#268=ORIENTED_EDGE('',*,*,#457,.T.);
#269=ORIENTED_EDGE('',*,*,#458,.T.);
#270=ORIENTED_EDGE('',*,*,#438,.F.);
#271=ORIENTED_EDGE('',*,*,#458,.F.);
#272=ORIENTED_EDGE('',*,*,#459,.T.);
#273=ORIENTED_EDGE('',*,*,#460,.T.);
#274=ORIENTED_EDGE('',*,*,#439,.F.);
#275=ORIENTED_EDGE('',*,*,#460,.F.);
#276=ORIENTED_EDGE('',*,*,#461,.T.);
#277=ORIENTED_EDGE('',*,*,#454,.T.);
#278=ORIENTED_EDGE('',*,*,#436,.F.);
#279=ORIENTED_EDGE('',*,*,#462,.T.);
#280=ORIENTED_EDGE('',*,*,#402,.T.);
#281=ORIENTED_EDGE('',*,*,#463,.F.);
#282=ORIENTED_EDGE('',*,*,#433,.F.);
#283=ORIENTED_EDGE('',*,*,#463,.T.);
#284=ORIENTED_EDGE('',*,*,#405,.T.);
#285=ORIENTED_EDGE('',*,*,#464,.F.);
#286=ORIENTED_EDGE('',*,*,#434,.F.);
#287=ORIENTED_EDGE('',*,*,#464,.T.);
#288=ORIENTED_EDGE('',*,*,#404,.T.);
#289=ORIENTED_EDGE('',*,*,#465,.F.);
#290=ORIENTED_EDGE('',*,*,#435,.F.);
#291=ORIENTED_EDGE('',*,*,#465,.T.);
#292=ORIENTED_EDGE('',*,*,#403,.T.);
#293=ORIENTED_EDGE('',*,*,#462,.F.);
#294=ORIENTED_EDGE('',*,*,#432,.F.);
#295=ORIENTED_EDGE('',*,*,#466,.F.);
#296=ORIENTED_EDGE('',*,*,#461,.F.);
#297=ORIENTED_EDGE('',*,*,#459,.F.);
#298=ORIENTED_EDGE('',*,*,#457,.F.);
#299=ORIENTED_EDGE('',*,*,#455,.F.);
#300=ORIENTED_EDGE('',*,*,#467,.F.);
#301=ORIENTED_EDGE('',*,*,#466,.T.);
#302=ORIENTED_EDGE('',*,*,#468,.F.);
#303=ORIENTED_EDGE('',*,*,#451,.T.);
#304=ORIENTED_EDGE('',*,*,#469,.F.);
#305=ORIENTED_EDGE('',*,*,#450,.T.);
#306=ORIENTED_EDGE('',*,*,#470,.F.);
#307=ORIENTED_EDGE('',*,*,#449,.T.);
#308=ORIENTED_EDGE('',*,*,#408,.T.);
#309=ORIENTED_EDGE('',*,*,#471,.T.);
#310=ORIENTED_EDGE('',*,*,#414,.T.);
#311=ORIENTED_EDGE('',*,*,#412,.T.);
#312=ORIENTED_EDGE('',*,*,#452,.T.);
#313=ORIENTED_EDGE('',*,*,#422,.F.);
#314=ORIENTED_EDGE('',*,*,#418,.F.);
#315=ORIENTED_EDGE('',*,*,#446,.T.);
#316=ORIENTED_EDGE('',*,*,#472,.T.);
#317=ORIENTED_EDGE('',*,*,#401,.F.);
#318=ORIENTED_EDGE('',*,*,#470,.T.);
#319=ORIENTED_EDGE('',*,*,#472,.F.);
#320=ORIENTED_EDGE('',*,*,#473,.T.);
#321=ORIENTED_EDGE('',*,*,#400,.F.);
#322=ORIENTED_EDGE('',*,*,#468,.T.);
#323=ORIENTED_EDGE('',*,*,#473,.F.);
#324=ORIENTED_EDGE('',*,*,#474,.T.);
#325=ORIENTED_EDGE('',*,*,#399,.F.);
#326=ORIENTED_EDGE('',*,*,#469,.T.);
#327=ORIENTED_EDGE('',*,*,#474,.F.);
#328=ORIENTED_EDGE('',*,*,#475,.T.);
#329=ORIENTED_EDGE('',*,*,#398,.F.);
#330=ORIENTED_EDGE('',*,*,#467,.T.);
#331=ORIENTED_EDGE('',*,*,#475,.F.);
#332=ORIENTED_EDGE('',*,*,#476,.F.);
#333=ORIENTED_EDGE('',*,*,#477,.F.);
#334=ORIENTED_EDGE('',*,*,#429,.T.);
#335=ORIENTED_EDGE('',*,*,#478,.T.);
#336=ORIENTED_EDGE('',*,*,#479,.F.);
#337=ORIENTED_EDGE('',*,*,#478,.F.);
#338=ORIENTED_EDGE('',*,*,#428,.T.);
#339=ORIENTED_EDGE('',*,*,#480,.T.);
#340=ORIENTED_EDGE('',*,*,#481,.F.);
#341=ORIENTED_EDGE('',*,*,#480,.F.);
#342=ORIENTED_EDGE('',*,*,#431,.T.);
#343=ORIENTED_EDGE('',*,*,#482,.T.);
#344=ORIENTED_EDGE('',*,*,#483,.F.);
#345=ORIENTED_EDGE('',*,*,#484,.F.);
#346=ORIENTED_EDGE('',*,*,#485,.F.);
#347=ORIENTED_EDGE('',*,*,#482,.F.);
#348=ORIENTED_EDGE('',*,*,#430,.T.);
#349=ORIENTED_EDGE('',*,*,#477,.T.);
#350=ORIENTED_EDGE('',*,*,#484,.T.);
#351=ORIENTED_EDGE('',*,*,#476,.T.);
#352=ORIENTED_EDGE('',*,*,#479,.T.);
#353=ORIENTED_EDGE('',*,*,#481,.T.);
#354=ORIENTED_EDGE('',*,*,#485,.T.);
#355=ORIENTED_EDGE('',*,*,#486,.T.);
#356=ORIENTED_EDGE('',*,*,#397,.F.);
#357=ORIENTED_EDGE('',*,*,#483,.T.);
#358=ORIENTED_EDGE('',*,*,#486,.F.);
#359=ORIENTED_EDGE('',*,*,#448,.F.);
#360=ORIENTED_EDGE('',*,*,#487,.F.);
#361=ORIENTED_EDGE('',*,*,#427,.F.);
#362=ORIENTED_EDGE('',*,*,#488,.F.);
#363=ORIENTED_EDGE('',*,*,#447,.T.);
#364=ORIENTED_EDGE('',*,*,#489,.F.);
#365=ORIENTED_EDGE('',*,*,#490,.F.);
#366=ORIENTED_EDGE('',*,*,#426,.F.);
#367=ORIENTED_EDGE('',*,*,#491,.T.);
#368=ORIENTED_EDGE('',*,*,#410,.F.);
#369=ORIENTED_EDGE('',*,*,#490,.T.);
#370=ORIENTED_EDGE('',*,*,#491,.F.);
#371=ORIENTED_EDGE('',*,*,#416,.T.);
#372=ORIENTED_EDGE('',*,*,#492,.T.);
#373=ORIENTED_EDGE('',*,*,#406,.T.);
#374=ORIENTED_EDGE('',*,*,#411,.T.);
#375=ORIENTED_EDGE('',*,*,#420,.T.);
#376=ORIENTED_EDGE('',*,*,#421,.T.);
#377=ORIENTED_EDGE('',*,*,#441,.T.);
#378=ORIENTED_EDGE('',*,*,#443,.T.);
#379=ORIENTED_EDGE('',*,*,#391,.T.);
#380=ORIENTED_EDGE('',*,*,#393,.T.);
#381=ORIENTED_EDGE('',*,*,#407,.F.);
#382=ORIENTED_EDGE('',*,*,#492,.F.);
#383=ORIENTED_EDGE('',*,*,#415,.F.);
#384=ORIENTED_EDGE('',*,*,#471,.F.);
#385=ORIENTED_EDGE('',*,*,#488,.T.);
#386=ORIENTED_EDGE('',*,*,#396,.F.);
#387=ORIENTED_EDGE('',*,*,#487,.T.);
#388=ORIENTED_EDGE('',*,*,#394,.F.);
#389=ORIENTED_EDGE('',*,*,#489,.T.);
#390=ORIENTED_EDGE('',*,*,#392,.F.);
#391=EDGE_CURVE('',#493,#493,#573,.T.);
#392=EDGE_CURVE('',#494,#494,#574,.T.);
#393=EDGE_CURVE('',#495,#495,#575,.T.);
#394=EDGE_CURVE('',#496,#496,#576,.T.);
#395=EDGE_CURVE('',#497,#497,#577,.T.);
#396=EDGE_CURVE('',#498,#498,#578,.T.);
#397=EDGE_CURVE('',#499,#499,#579,.T.);
#398=EDGE_CURVE('',#500,#500,#580,.T.);
#399=EDGE_CURVE('',#501,#501,#581,.T.);
#400=EDGE_CURVE('',#502,#502,#582,.T.);
#401=EDGE_CURVE('',#503,#503,#583,.T.);
#402=EDGE_CURVE('',#504,#505,#20,.T.);
#403=EDGE_CURVE('',#506,#504,#21,.T.);
#404=EDGE_CURVE('',#507,#506,#22,.T.);
#405=EDGE_CURVE('',#505,#507,#23,.T.);
#406=EDGE_CURVE('',#508,#509,#24,.T.);
#407=EDGE_CURVE('',#508,#510,#25,.T.);
#408=EDGE_CURVE('',#511,#510,#26,.T.);
#409=EDGE_CURVE('',#511,#509,#27,.T.);
#410=EDGE_CURVE('',#512,#512,#584,.T.);
#411=EDGE_CURVE('',#509,#513,#28,.T.);
#412=EDGE_CURVE('',#514,#511,#29,.T.);
#413=EDGE_CURVE('',#513,#514,#30,.T.);
#414=EDGE_CURVE('',#515,#514,#31,.T.);
#415=EDGE_CURVE('',#515,#516,#32,.T.);
#416=EDGE_CURVE('',#517,#516,#33,.T.);
#417=EDGE_CURVE('',#518,#517,#34,.T.);
#418=EDGE_CURVE('',#518,#519,#35,.T.);
#419=EDGE_CURVE('',#519,#520,#36,.T.);
#420=EDGE_CURVE('',#513,#520,#37,.T.);
#421=EDGE_CURVE('',#520,#521,#38,.T.);
#422=EDGE_CURVE('',#519,#522,#39,.T.);
#423=EDGE_CURVE('',#522,#523,#40,.T.);
#424=EDGE_CURVE('',#523,#524,#41,.T.);
#425=EDGE_CURVE('',#521,#524,#42,.T.);
#426=EDGE_CURVE('',#525,#525,#585,.F.);
#427=EDGE_CURVE('',#526,#526,#586,.F.);
#428=EDGE_CURVE('',#527,#528,#43,.T.);
#429=EDGE_CURVE('',#529,#527,#44,.T.);
#430=EDGE_CURVE('',#530,#529,#45,.T.);
#431=EDGE_CURVE('',#528,#530,#46,.T.);
#432=EDGE_CURVE('',#531,#532,#47,.T.);
#433=EDGE_CURVE('',#532,#533,#48,.T.);
#434=EDGE_CURVE('',#533,#534,#49,.T.);
#435=EDGE_CURVE('',#534,#531,#50,.T.);
#436=EDGE_CURVE('',#535,#536,#51,.T.);
#437=EDGE_CURVE('',#536,#537,#52,.T.);
#438=EDGE_CURVE('',#537,#538,#53,.T.);
#439=EDGE_CURVE('',#538,#535,#54,.T.);
#440=EDGE_CURVE('',#539,#540,#55,.T.);
#441=EDGE_CURVE('',#521,#539,#56,.T.);
#442=EDGE_CURVE('',#524,#540,#57,.T.);
#443=EDGE_CURVE('',#539,#517,#58,.T.);
#444=EDGE_CURVE('',#541,#540,#59,.T.);
#445=EDGE_CURVE('',#542,#541,#60,.T.);
#446=EDGE_CURVE('',#518,#542,#61,.T.);
#447=EDGE_CURVE('',#543,#543,#587,.T.);
#448=EDGE_CURVE('',#544,#544,#588,.F.);
#449=EDGE_CURVE('',#545,#545,#589,.F.);
#450=EDGE_CURVE('',#546,#546,#590,.F.);
#451=EDGE_CURVE('',#547,#547,#591,.F.);
#452=EDGE_CURVE('',#542,#522,#62,.T.);
#453=EDGE_CURVE('',#523,#541,#63,.T.);
#454=EDGE_CURVE('',#548,#536,#64,.T.);
#455=EDGE_CURVE('',#548,#549,#65,.T.);
#456=EDGE_CURVE('',#549,#537,#66,.T.);
#457=EDGE_CURVE('',#549,#550,#67,.T.);
#458=EDGE_CURVE('',#550,#538,#68,.T.);
#459=EDGE_CURVE('',#550,#551,#69,.T.);
#460=EDGE_CURVE('',#551,#535,#70,.T.);
#461=EDGE_CURVE('',#551,#548,#71,.T.);
#462=EDGE_CURVE('',#532,#504,#72,.T.);
#463=EDGE_CURVE('',#533,#505,#73,.T.);
#464=EDGE_CURVE('',#534,#507,#74,.T.);
#465=EDGE_CURVE('',#531,#506,#75,.T.);
#466=EDGE_CURVE('',#552,#552,#592,.F.);
#467=EDGE_CURVE('',#553,#553,#593,.T.);
#468=EDGE_CURVE('',#554,#554,#594,.T.);
#469=EDGE_CURVE('',#555,#555,#595,.T.);
#470=EDGE_CURVE('',#556,#556,#596,.T.);
#471=EDGE_CURVE('',#510,#515,#76,.T.);
#472=EDGE_CURVE('',#557,#557,#597,.T.);
#473=EDGE_CURVE('',#558,#558,#598,.T.);
#474=EDGE_CURVE('',#559,#559,#599,.T.);
#475=EDGE_CURVE('',#560,#560,#600,.T.);
#476=EDGE_CURVE('',#561,#562,#77,.T.);
#477=EDGE_CURVE('',#529,#561,#78,.T.);
#478=EDGE_CURVE('',#527,#562,#79,.T.);
#479=EDGE_CURVE('',#562,#563,#80,.T.);
#480=EDGE_CURVE('',#528,#563,#81,.T.);
#481=EDGE_CURVE('',#563,#564,#82,.T.);
#482=EDGE_CURVE('',#530,#564,#83,.T.);
#483=EDGE_CURVE('',#565,#565,#601,.T.);
#484=EDGE_CURVE('',#566,#566,#602,.T.);
#485=EDGE_CURVE('',#564,#561,#84,.T.);
#486=EDGE_CURVE('',#567,#567,#603,.T.);
#487=EDGE_CURVE('',#568,#568,#604,.T.);
#488=EDGE_CURVE('',#569,#569,#605,.T.);
#489=EDGE_CURVE('',#570,#570,#606,.T.);
#490=EDGE_CURVE('',#571,#571,#607,.T.);
#491=EDGE_CURVE('',#572,#572,#608,.T.);
#492=EDGE_CURVE('',#516,#508,#85,.T.);
#493=VERTEX_POINT('',#1235);
#494=VERTEX_POINT('',#1237);
#495=VERTEX_POINT('',#1240);
#496=VERTEX_POINT('',#1242);
#497=VERTEX_POINT('',#1245);
#498=VERTEX_POINT('',#1247);
#499=VERTEX_POINT('',#1250);
#500=VERTEX_POINT('',#1252);
#501=VERTEX_POINT('',#1254);
#502=VERTEX_POINT('',#1256);
#503=VERTEX_POINT('',#1258);
#504=VERTEX_POINT('',#1260);
#505=VERTEX_POINT('',#1261);
#506=VERTEX_POINT('',#1263);
#507=VERTEX_POINT('',#1265);
#508=VERTEX_POINT('',#1268);
#509=VERTEX_POINT('',#1269);
#510=VERTEX_POINT('',#1271);
#511=VERTEX_POINT('',#1273);
#512=VERTEX_POINT('',#1277);
#513=VERTEX_POINT('',#1279);
#514=VERTEX_POINT('',#1281);
#515=VERTEX_POINT('',#1285);
#516=VERTEX_POINT('',#1287);
#517=VERTEX_POINT('',#1289);
#518=VERTEX_POINT('',#1291);
#519=VERTEX_POINT('',#1293);
#520=VERTEX_POINT('',#1295);
#521=VERTEX_POINT('',#1299);
#522=VERTEX_POINT('',#1301);
#523=VERTEX_POINT('',#1303);
#524=VERTEX_POINT('',#1305);
#525=VERTEX_POINT('',#1308);
#526=VERTEX_POINT('',#1310);
#527=VERTEX_POINT('',#1313);
#528=VERTEX_POINT('',#1314);
#529=VERTEX_POINT('',#1316);
#530=VERTEX_POINT('',#1318);
#531=VERTEX_POINT('',#1321);
#532=VERTEX_POINT('',#1322);
#533=VERTEX_POINT('',#1324);
#534=VERTEX_POINT('',#1326);
#535=VERTEX_POINT('',#1329);
#536=VERTEX_POINT('',#1330);
#537=VERTEX_POINT('',#1332);
#538=VERTEX_POINT('',#1334);
#539=VERTEX_POINT('',#1337);
#540=VERTEX_POINT('',#1338);
#541=VERTEX_POINT('',#1344);
#542=VERTEX_POINT('',#1346);
#543=VERTEX_POINT('',#1349);
#544=VERTEX_POINT('',#1351);
#545=VERTEX_POINT('',#1354);
#546=VERTEX_POINT('',#1356);
#547=VERTEX_POINT('',#1358);
#548=VERTEX_POINT('',#1364);
#549=VERTEX_POINT('',#1366);
#550=VERTEX_POINT('',#1370);
#551=VERTEX_POINT('',#1374);
#552=VERTEX_POINT('',#1388);
#553=VERTEX_POINT('',#1391);
#554=VERTEX_POINT('',#1394);
#555=VERTEX_POINT('',#1397);
#556=VERTEX_POINT('',#1400);
#557=VERTEX_POINT('',#1406);
#558=VERTEX_POINT('',#1410);
#559=VERTEX_POINT('',#1414);
#560=VERTEX_POINT('',#1418);
#561=VERTEX_POINT('',#1422);
#562=VERTEX_POINT('',#1423);
#563=VERTEX_POINT('',#1428);
#564=VERTEX_POINT('',#1432);
#565=VERTEX_POINT('',#1436);
#566=VERTEX_POINT('',#1438);
#567=VERTEX_POINT('',#1444);
#568=VERTEX_POINT('',#1448);
#569=VERTEX_POINT('',#1451);
#570=VERTEX_POINT('',#1454);
#571=VERTEX_POINT('',#1457);
#572=VERTEX_POINT('',#1460);
#573=CIRCLE('',#898,1.75);
#574=CIRCLE('',#899,1.75);
#575=CIRCLE('',#901,1.75);
#576=CIRCLE('',#902,1.75);
#577=CIRCLE('',#904,1.75);
#578=CIRCLE('',#905,1.75);
#579=CIRCLE('',#907,1.75);
#580=CIRCLE('',#908,1.75);
#581=CIRCLE('',#909,1.75);
#582=CIRCLE('',#910,1.75);
#583=CIRCLE('',#911,1.75);
#584=CIRCLE('',#913,1.75);
#585=CIRCLE('',#916,1.);
#586=CIRCLE('',#917,1.);
#587=CIRCLE('',#920,1.);
#588=CIRCLE('',#921,1.);
#589=CIRCLE('',#923,1.);
#590=CIRCLE('',#924,1.);
#591=CIRCLE('',#925,1.);
#592=CIRCLE('',#936,1.);
#593=CIRCLE('',#938,1.);
#594=CIRCLE('',#940,1.);
#595=CIRCLE('',#942,1.);
#596=CIRCLE('',#944,1.);
#597=CIRCLE('',#948,1.75);
#598=CIRCLE('',#951,1.75);
#599=CIRCLE('',#954,1.75);
#600=CIRCLE('',#957,1.75);
#601=CIRCLE('',#963,1.);
#602=CIRCLE('',#964,1.);
#603=CIRCLE('',#968,1.75);
#604=CIRCLE('',#971,1.);
#605=CIRCLE('',#973,1.);
#606=CIRCLE('',#975,1.);
#607=CIRCLE('',#977,1.);
#608=CIRCLE('',#979,1.75);
#609=EDGE_LOOP('',(#187));
#610=EDGE_LOOP('',(#188));
#611=EDGE_LOOP('',(#189));
#612=EDGE_LOOP('',(#190));
#613=EDGE_LOOP('',(#191));
#614=EDGE_LOOP('',(#192));
#615=EDGE_LOOP('',(#193));
#616=EDGE_LOOP('',(#194));
#617=EDGE_LOOP('',(#195));
#618=EDGE_LOOP('',(#196));
#619=EDGE_LOOP('',(#197));
#620=EDGE_LOOP('',(#198,#199,#200,#201));
#621=EDGE_LOOP('',(#202,#203,#204,#205));
#622=EDGE_LOOP('',(#206));
#623=EDGE_LOOP('',(#207));
#624=EDGE_LOOP('',(#208,#209,#210,#211));
#625=EDGE_LOOP('',(#212,#213,#214,#215,#216,#217,#218,#219));
#626=EDGE_LOOP('',(#220,#221,#222,#223,#224,#225));
#627=EDGE_LOOP('',(#226));
#628=EDGE_LOOP('',(#227));
#629=EDGE_LOOP('',(#228,#229,#230,#231));
#630=EDGE_LOOP('',(#232,#233,#234,#235));
#631=EDGE_LOOP('',(#236,#237,#238,#239));
#632=EDGE_LOOP('',(#240,#241,#242,#243));
#633=EDGE_LOOP('',(#244,#245,#246,#247,#248,#249));
#634=EDGE_LOOP('',(#250));
#635=EDGE_LOOP('',(#251));
#636=EDGE_LOOP('',(#252));
#637=EDGE_LOOP('',(#253));
#638=EDGE_LOOP('',(#254));
#639=EDGE_LOOP('',(#255,#256,#257,#258));
#640=EDGE_LOOP('',(#259,#260,#261,#262));
#641=EDGE_LOOP('',(#263,#264,#265,#266));
#642=EDGE_LOOP('',(#267,#268,#269,#270));
#643=EDGE_LOOP('',(#271,#272,#273,#274));
#644=EDGE_LOOP('',(#275,#276,#277,#278));
#645=EDGE_LOOP('',(#279,#280,#281,#282));
#646=EDGE_LOOP('',(#283,#284,#285,#286));
#647=EDGE_LOOP('',(#287,#288,#289,#290));
#648=EDGE_LOOP('',(#291,#292,#293,#294));
#649=EDGE_LOOP('',(#295));
#650=EDGE_LOOP('',(#296,#297,#298,#299));
#651=EDGE_LOOP('',(#300));
#652=EDGE_LOOP('',(#301));
#653=EDGE_LOOP('',(#302));
#654=EDGE_LOOP('',(#303));
#655=EDGE_LOOP('',(#304));
#656=EDGE_LOOP('',(#305));
#657=EDGE_LOOP('',(#306));
#658=EDGE_LOOP('',(#307));
#659=EDGE_LOOP('',(#308,#309,#310,#311));
#660=EDGE_LOOP('',(#312,#313,#314,#315));
#661=EDGE_LOOP('',(#316));
#662=EDGE_LOOP('',(#317));
#663=EDGE_LOOP('',(#318));
#664=EDGE_LOOP('',(#319));
#665=EDGE_LOOP('',(#320));
#666=EDGE_LOOP('',(#321));
#667=EDGE_LOOP('',(#322));
#668=EDGE_LOOP('',(#323));
#669=EDGE_LOOP('',(#324));
#670=EDGE_LOOP('',(#325));
#671=EDGE_LOOP('',(#326));
#672=EDGE_LOOP('',(#327));
#673=EDGE_LOOP('',(#328));
#674=EDGE_LOOP('',(#329));
#675=EDGE_LOOP('',(#330));
#676=EDGE_LOOP('',(#331));
#677=EDGE_LOOP('',(#332,#333,#334,#335));
#678=EDGE_LOOP('',(#336,#337,#338,#339));
#679=EDGE_LOOP('',(#340,#341,#342,#343));
#680=EDGE_LOOP('',(#344));
#681=EDGE_LOOP('',(#345));
#682=EDGE_LOOP('',(#346,#347,#348,#349));
#683=EDGE_LOOP('',(#350));
#684=EDGE_LOOP('',(#351,#352,#353,#354));
#685=EDGE_LOOP('',(#355));
#686=EDGE_LOOP('',(#356));
#687=EDGE_LOOP('',(#357));
#688=EDGE_LOOP('',(#358));
#689=EDGE_LOOP('',(#359));
#690=EDGE_LOOP('',(#360));
#691=EDGE_LOOP('',(#361));
#692=EDGE_LOOP('',(#362));
#693=EDGE_LOOP('',(#363));
#694=EDGE_LOOP('',(#364));
#695=EDGE_LOOP('',(#365));
#696=EDGE_LOOP('',(#366));
#697=EDGE_LOOP('',(#367));
#698=EDGE_LOOP('',(#368));
#699=EDGE_LOOP('',(#369));
#700=EDGE_LOOP('',(#370));
#701=EDGE_LOOP('',(#371,#372,#373,#374,#375,#376,#377,#378));
#702=EDGE_LOOP('',(#379));
#703=EDGE_LOOP('',(#380));
#704=EDGE_LOOP('',(#381,#382,#383,#384));
#705=EDGE_LOOP('',(#385));
#706=EDGE_LOOP('',(#386));
#707=EDGE_LOOP('',(#387));
#708=EDGE_LOOP('',(#388));
#709=EDGE_LOOP('',(#389));
#710=EDGE_LOOP('',(#390));
#711=FACE_BOUND('',#609,.T.);
#712=FACE_BOUND('',#610,.T.);
#713=FACE_BOUND('',#611,.T.);
#714=FACE_BOUND('',#612,.T.);
#715=FACE_BOUND('',#613,.T.);
#716=FACE_BOUND('',#614,.T.);
#717=FACE_BOUND('',#615,.T.);
#718=FACE_BOUND('',#616,.T.);
#719=FACE_BOUND('',#617,.T.);
#720=FACE_BOUND('',#618,.T.);
#721=FACE_BOUND('',#619,.T.);
#722=FACE_BOUND('',#620,.T.);
#723=FACE_BOUND('',#621,.T.);
#724=FACE_BOUND('',#622,.T.);
#725=FACE_BOUND('',#623,.T.);
#726=FACE_BOUND('',#624,.T.);
#727=FACE_BOUND('',#625,.T.);
#728=FACE_BOUND('',#626,.T.);
#729=FACE_BOUND('',#627,.T.);
#730=FACE_BOUND('',#628,.T.);
#731=FACE_BOUND('',#629,.T.);
#732=FACE_BOUND('',#630,.T.);
#733=FACE_BOUND('',#631,.T.);
#734=FACE_BOUND('',#632,.T.);
#735=FACE_BOUND('',#633,.T.);
#736=FACE_BOUND('',#634,.T.);
#737=FACE_BOUND('',#635,.T.);
#738=FACE_BOUND('',#636,.T.);
#739=FACE_BOUND('',#637,.T.);
#740=FACE_BOUND('',#638,.T.);
#741=FACE_BOUND('',#639,.T.);
#742=FACE_BOUND('',#640,.T.);
#743=FACE_BOUND('',#641,.T.);
#744=FACE_BOUND('',#642,.T.);
#745=FACE_BOUND('',#643,.T.);
#746=FACE_BOUND('',#644,.T.);
#747=FACE_BOUND('',#645,.T.);
#748=FACE_BOUND('',#646,.T.);
#749=FACE_BOUND('',#647,.T.);
#750=FACE_BOUND('',#648,.T.);
#751=FACE_BOUND('',#649,.T.);
#752=FACE_BOUND('',#650,.T.);
#753=FACE_BOUND('',#651,.T.);
#754=FACE_BOUND('',#652,.T.);
#755=FACE_BOUND('',#653,.T.);
#756=FACE_BOUND('',#654,.T.);
#757=FACE_BOUND('',#655,.T.);
#758=FACE_BOUND('',#656,.T.);
#759=FACE_BOUND('',#657,.T.);
#760=FACE_BOUND('',#658,.T.);
#761=FACE_BOUND('',#659,.T.);
#762=FACE_BOUND('',#660,.T.);
#763=FACE_BOUND('',#661,.T.);
#764=FACE_BOUND('',#662,.T.);
#765=FACE_BOUND('',#663,.T.);
#766=FACE_BOUND('',#664,.T.);
#767=FACE_BOUND('',#665,.T.);
#768=FACE_BOUND('',#666,.T.);
#769=FACE_BOUND('',#667,.T.);
#770=FACE_BOUND('',#668,.T.);
#771=FACE_BOUND('',#669,.T.);
#772=FACE_BOUND('',#670,.T.);
#773=FACE_BOUND('',#671,.T.);
#774=FACE_BOUND('',#672,.T.);
#775=FACE_BOUND('',#673,.T.);
#776=FACE_BOUND('',#674,.T.);
#777=FACE_BOUND('',#675,.T.);
#778=FACE_BOUND('',#676,.T.);
#779=FACE_BOUND('',#677,.T.);
#780=FACE_BOUND('',#678,.T.);
#781=FACE_BOUND('',#679,.T.);
#782=FACE_BOUND('',#680,.T.);
#783=FACE_BOUND('',#681,.T.);
#784=FACE_BOUND('',#682,.T.);
#785=FACE_BOUND('',#683,.T.);
#786=FACE_BOUND('',#684,.T.);
#787=FACE_BOUND('',#685,.T.);
#788=FACE_BOUND('',#686,.T.);
#789=FACE_BOUND('',#687,.T.);
#790=FACE_BOUND('',#688,.T.);
#791=FACE_BOUND('',#689,.T.);
#792=FACE_BOUND('',#690,.T.);
#793=FACE_BOUND('',#691,.T.);
#794=FACE_BOUND('',#692,.T.);
#795=FACE_BOUND('',#693,.T.);
#796=FACE_BOUND('',#694,.T.);
#797=FACE_BOUND('',#695,.T.);
#798=FACE_BOUND('',#696,.T.);
#799=FACE_BOUND('',#697,.T.);
#800=FACE_BOUND('',#698,.T.);
#801=FACE_BOUND('',#699,.T.);
#802=FACE_BOUND('',#700,.T.);
#803=FACE_BOUND('',#701,.T.);
#804=FACE_BOUND('',#702,.T.);
#805=FACE_BOUND('',#703,.T.);
#806=FACE_BOUND('',#704,.T.);
#807=FACE_BOUND('',#705,.T.);
#808=FACE_BOUND('',#706,.T.);
#809=FACE_BOUND('',#707,.T.);
#810=FACE_BOUND('',#708,.T.);
#811=FACE_BOUND('',#709,.T.);
#812=FACE_BOUND('',#710,.T.);
#813=CYLINDRICAL_SURFACE('',#897,1.75);
#814=CYLINDRICAL_SURFACE('',#900,1.75);
#815=CYLINDRICAL_SURFACE('',#903,1.75);
#816=CYLINDRICAL_SURFACE('',#937,1.);
#817=CYLINDRICAL_SURFACE('',#939,1.);
#818=CYLINDRICAL_SURFACE('',#941,1.);
#819=CYLINDRICAL_SURFACE('',#943,1.);
#820=CYLINDRICAL_SURFACE('',#947,1.75);
#821=CYLINDRICAL_SURFACE('',#950,1.75);
#822=CYLINDRICAL_SURFACE('',#953,1.75);
#823=CYLINDRICAL_SURFACE('',#956,1.75);
#824=CYLINDRICAL_SURFACE('',#962,1.);
#825=CYLINDRICAL_SURFACE('',#967,1.75);
#826=CYLINDRICAL_SURFACE('',#970,1.);
#827=CYLINDRICAL_SURFACE('',#972,1.);
#828=CYLINDRICAL_SURFACE('',#974,1.);
#829=CYLINDRICAL_SURFACE('',#976,1.);
#830=CYLINDRICAL_SURFACE('',#978,1.75);
#831=ADVANCED_FACE('',(#711,#712),#813,.F.);
#832=ADVANCED_FACE('',(#713,#714),#814,.F.);
#833=ADVANCED_FACE('',(#715,#716),#815,.F.);
#834=ADVANCED_FACE('',(#717,#718,#719,#720,#721,#722,#723),#152,.T.);
#835=ADVANCED_FACE('',(#724,#725,#726),#153,.F.);
#836=ADVANCED_FACE('',(#727),#154,.F.);
#837=ADVANCED_FACE('',(#728,#729,#730),#155,.T.);
#838=ADVANCED_FACE('',(#731,#732,#733,#734),#156,.F.);
#839=ADVANCED_FACE('',(#735,#736,#737),#157,.T.);
#840=ADVANCED_FACE('',(#738,#739,#740,#741),#158,.F.);
#841=ADVANCED_FACE('',(#742),#159,.T.);
#842=ADVANCED_FACE('',(#743),#160,.T.);
#843=ADVANCED_FACE('',(#744),#161,.T.);
#844=ADVANCED_FACE('',(#745),#162,.T.);
#845=ADVANCED_FACE('',(#746),#163,.T.);
#846=ADVANCED_FACE('',(#747),#164,.F.);
#847=ADVANCED_FACE('',(#748),#165,.F.);
#848=ADVANCED_FACE('',(#749),#166,.F.);
#849=ADVANCED_FACE('',(#750),#167,.F.);
#850=ADVANCED_FACE('',(#751,#752),#168,.F.);
#851=ADVANCED_FACE('',(#753,#754),#816,.F.);
#852=ADVANCED_FACE('',(#755,#756),#817,.F.);
#853=ADVANCED_FACE('',(#757,#758),#818,.F.);
#854=ADVANCED_FACE('',(#759,#760),#819,.F.);
#855=ADVANCED_FACE('',(#761),#169,.F.);
#856=ADVANCED_FACE('',(#762),#170,.F.);
#857=ADVANCED_FACE('',(#763,#764),#820,.F.);
#858=ADVANCED_FACE('',(#765,#766),#171,.F.);
#859=ADVANCED_FACE('',(#767,#768),#821,.F.);
#860=ADVANCED_FACE('',(#769,#770),#172,.F.);
#861=ADVANCED_FACE('',(#771,#772),#822,.F.);
#862=ADVANCED_FACE('',(#773,#774),#173,.F.);
#863=ADVANCED_FACE('',(#775,#776),#823,.F.);
#864=ADVANCED_FACE('',(#777,#778),#174,.F.);
#865=ADVANCED_FACE('',(#779),#175,.T.);
#866=ADVANCED_FACE('',(#780),#176,.T.);
#867=ADVANCED_FACE('',(#781),#177,.T.);
#868=ADVANCED_FACE('',(#782,#783),#824,.F.);
#869=ADVANCED_FACE('',(#784),#178,.T.);
#870=ADVANCED_FACE('',(#785,#786),#179,.T.);
#871=ADVANCED_FACE('',(#787,#788),#825,.F.);
#872=ADVANCED_FACE('',(#789,#790),#180,.F.);
#873=ADVANCED_FACE('',(#791,#792),#826,.F.);
#874=ADVANCED_FACE('',(#793,#794),#827,.F.);
#875=ADVANCED_FACE('',(#795,#796),#828,.F.);
#876=ADVANCED_FACE('',(#797,#798),#829,.F.);
#877=ADVANCED_FACE('',(#799,#800),#830,.F.);
#878=ADVANCED_FACE('',(#801,#802),#181,.F.);
#879=ADVANCED_FACE('',(#803),#182,.F.);
#880=ADVANCED_FACE('',(#804,#805,#806),#183,.F.);
#881=ADVANCED_FACE('',(#807,#808),#184,.F.);
#882=ADVANCED_FACE('',(#809,#810),#185,.F.);
#883=ADVANCED_FACE('',(#811,#812),#186,.F.);
#884=CLOSED_SHELL('',(#831,#832,#833,#834,#835,#836,#837,#838,#839,#840,
#841,#842,#843,#844,#845,#846,#847,#848,#849,#850,#851,#852,#853,#854,#855,
#856,#857,#858,#859,#860,#861,#862,#863,#864,#865,#866,#867,#868,#869,#870,
#871,#872,#873,#874,#875,#876,#877,#878,#879,#880,#881,#882,#883));
#885=STYLED_ITEM('',(#886),#893);
#886=PRESENTATION_STYLE_ASSIGNMENT((#887));
#887=SURFACE_STYLE_USAGE(.BOTH.,#888);
#888=SURFACE_SIDE_STYLE('',(#889));
#889=SURFACE_STYLE_FILL_AREA(#890);
#890=FILL_AREA_STYLE('',(#891));
#891=FILL_AREA_STYLE_COLOUR('',#892);
#892=COLOUR_RGB('',0.506983280181885,0.531564235687256,0.550000011920929);
#893=MANIFOLD_SOLID_BREP('',#884);
#894=SHAPE_DEFINITION_REPRESENTATION(#1474,#895);
#895=SHAPE_REPRESENTATION('05_FDML_stimfix_LCD_screen_front_panel',(#896),
#1469);
#896=AXIS2_PLACEMENT_3D('',#1232,#986,#987);
#897=AXIS2_PLACEMENT_3D('',#1233,#988,#989);
#898=AXIS2_PLACEMENT_3D('',#1234,#990,#991);
#899=AXIS2_PLACEMENT_3D('',#1236,#992,#993);
#900=AXIS2_PLACEMENT_3D('',#1238,#994,#995);
#901=AXIS2_PLACEMENT_3D('',#1239,#996,#997);
#902=AXIS2_PLACEMENT_3D('',#1241,#998,#999);
#903=AXIS2_PLACEMENT_3D('',#1243,#1000,#1001);
#904=AXIS2_PLACEMENT_3D('',#1244,#1002,#1003);
#905=AXIS2_PLACEMENT_3D('',#1246,#1004,#1005);
#906=AXIS2_PLACEMENT_3D('',#1248,#1006,#1007);
#907=AXIS2_PLACEMENT_3D('',#1249,#1008,#1009);
#908=AXIS2_PLACEMENT_3D('',#1251,#1010,#1011);
#909=AXIS2_PLACEMENT_3D('',#1253,#1012,#1013);
#910=AXIS2_PLACEMENT_3D('',#1255,#1014,#1015);
#911=AXIS2_PLACEMENT_3D('',#1257,#1016,#1017);
#912=AXIS2_PLACEMENT_3D('',#1275,#1026,#1027);
#913=AXIS2_PLACEMENT_3D('',#1276,#1028,#1029);
#914=AXIS2_PLACEMENT_3D('',#1283,#1033,#1034);
#915=AXIS2_PLACEMENT_3D('',#1297,#1042,#1043);
#916=AXIS2_PLACEMENT_3D('',#1307,#1049,#1050);
#917=AXIS2_PLACEMENT_3D('',#1309,#1051,#1052);
#918=AXIS2_PLACEMENT_3D('',#1311,#1053,#1054);
#919=AXIS2_PLACEMENT_3D('',#1341,#1070,#1071);
#920=AXIS2_PLACEMENT_3D('',#1348,#1076,#1077);
#921=AXIS2_PLACEMENT_3D('',#1350,#1078,#1079);
#922=AXIS2_PLACEMENT_3D('',#1352,#1080,#1081);
#923=AXIS2_PLACEMENT_3D('',#1353,#1082,#1083);
#924=AXIS2_PLACEMENT_3D('',#1355,#1084,#1085);
#925=AXIS2_PLACEMENT_3D('',#1357,#1086,#1087);
#926=AXIS2_PLACEMENT_3D('',#1361,#1090,#1091);
#927=AXIS2_PLACEMENT_3D('',#1362,#1092,#1093);
#928=AXIS2_PLACEMENT_3D('',#1368,#1097,#1098);
#929=AXIS2_PLACEMENT_3D('',#1372,#1101,#1102);
#930=AXIS2_PLACEMENT_3D('',#1376,#1105,#1106);
#931=AXIS2_PLACEMENT_3D('',#1378,#1108,#1109);
#932=AXIS2_PLACEMENT_3D('',#1381,#1112,#1113);
#933=AXIS2_PLACEMENT_3D('',#1383,#1115,#1116);
#934=AXIS2_PLACEMENT_3D('',#1385,#1118,#1119);
#935=AXIS2_PLACEMENT_3D('',#1386,#1120,#1121);
#936=AXIS2_PLACEMENT_3D('',#1387,#1122,#1123);
#937=AXIS2_PLACEMENT_3D('',#1389,#1124,#1125);
#938=AXIS2_PLACEMENT_3D('',#1390,#1126,#1127);
#939=AXIS2_PLACEMENT_3D('',#1392,#1128,#1129);
#940=AXIS2_PLACEMENT_3D('',#1393,#1130,#1131);
#941=AXIS2_PLACEMENT_3D('',#1395,#1132,#1133);
#942=AXIS2_PLACEMENT_3D('',#1396,#1134,#1135);
#943=AXIS2_PLACEMENT_3D('',#1398,#1136,#1137);
#944=AXIS2_PLACEMENT_3D('',#1399,#1138,#1139);
#945=AXIS2_PLACEMENT_3D('',#1401,#1140,#1141);
#946=AXIS2_PLACEMENT_3D('',#1403,#1143,#1144);
#947=AXIS2_PLACEMENT_3D('',#1404,#1145,#1146);
#948=AXIS2_PLACEMENT_3D('',#1405,#1147,#1148);
#949=AXIS2_PLACEMENT_3D('',#1407,#1149,#1150);
#950=AXIS2_PLACEMENT_3D('',#1408,#1151,#1152);
#951=AXIS2_PLACEMENT_3D('',#1409,#1153,#1154);
#952=AXIS2_PLACEMENT_3D('',#1411,#1155,#1156);
#953=AXIS2_PLACEMENT_3D('',#1412,#1157,#1158);
#954=AXIS2_PLACEMENT_3D('',#1413,#1159,#1160);
#955=AXIS2_PLACEMENT_3D('',#1415,#1161,#1162);
#956=AXIS2_PLACEMENT_3D('',#1416,#1163,#1164);
#957=AXIS2_PLACEMENT_3D('',#1417,#1165,#1166);
#958=AXIS2_PLACEMENT_3D('',#1419,#1167,#1168);
#959=AXIS2_PLACEMENT_3D('',#1420,#1169,#1170);
#960=AXIS2_PLACEMENT_3D('',#1426,#1174,#1175);
#961=AXIS2_PLACEMENT_3D('',#1430,#1178,#1179);
#962=AXIS2_PLACEMENT_3D('',#1434,#1182,#1183);
#963=AXIS2_PLACEMENT_3D('',#1435,#1184,#1185);
#964=AXIS2_PLACEMENT_3D('',#1437,#1186,#1187);
#965=AXIS2_PLACEMENT_3D('',#1439,#1188,#1189);
#966=AXIS2_PLACEMENT_3D('',#1441,#1191,#1192);
#967=AXIS2_PLACEMENT_3D('',#1442,#1193,#1194);
#968=AXIS2_PLACEMENT_3D('',#1443,#1195,#1196);
#969=AXIS2_PLACEMENT_3D('',#1445,#1197,#1198);
#970=AXIS2_PLACEMENT_3D('',#1446,#1199,#1200);
#971=AXIS2_PLACEMENT_3D('',#1447,#1201,#1202);
#972=AXIS2_PLACEMENT_3D('',#1449,#1203,#1204);
#973=AXIS2_PLACEMENT_3D('',#1450,#1205,#1206);
#974=AXIS2_PLACEMENT_3D('',#1452,#1207,#1208);
#975=AXIS2_PLACEMENT_3D('',#1453,#1209,#1210);
#976=AXIS2_PLACEMENT_3D('',#1455,#1211,#1212);
#977=AXIS2_PLACEMENT_3D('',#1456,#1213,#1214);
#978=AXIS2_PLACEMENT_3D('',#1458,#1215,#1216);
#979=AXIS2_PLACEMENT_3D('',#1459,#1217,#1218);
#980=AXIS2_PLACEMENT_3D('',#1461,#1219,#1220);
#981=AXIS2_PLACEMENT_3D('',#1462,#1221,#1222);
#982=AXIS2_PLACEMENT_3D('',#1464,#1224,#1225);
#983=AXIS2_PLACEMENT_3D('',#1465,#1226,#1227);
#984=AXIS2_PLACEMENT_3D('',#1466,#1228,#1229);
#985=AXIS2_PLACEMENT_3D('',#1467,#1230,#1231);
#986=DIRECTION('',(0.,0.,1.));
#987=DIRECTION('',(1.,0.,0.));
#988=DIRECTION('',(1.,0.,0.));
#989=DIRECTION('',(0.,0.,-1.));
#990=DIRECTION('',(-1.,0.,0.));
#991=DIRECTION('',(0.,0.,1.));
#992=DIRECTION('',(-1.,0.,0.));
#993=DIRECTION('',(0.,0.,1.));
#994=DIRECTION('',(1.,0.,0.));
#995=DIRECTION('',(0.,0.,-1.));
#996=DIRECTION('',(-1.,0.,0.));
#997=DIRECTION('',(0.,0.,1.));
#998=DIRECTION('',(-1.,0.,0.));
#999=DIRECTION('',(0.,0.,1.));
#1000=DIRECTION('',(-1.,0.,0.));
#1001=DIRECTION('',(0.,0.,1.));
#1002=DIRECTION('',(1.,0.,0.));
#1003=DIRECTION('',(0.,-1.,0.));
#1004=DIRECTION('',(1.,0.,0.));
#1005=DIRECTION('',(0.,0.,-1.));
#1006=DIRECTION('',(0.,0.,1.));
#1007=DIRECTION('',(1.,0.,0.));
#1008=DIRECTION('',(0.,0.,-1.));
#1009=DIRECTION('',(1.,0.,0.));
#1010=DIRECTION('',(0.,0.,-1.));
#1011=DIRECTION('',(1.,0.,0.));
#1012=DIRECTION('',(0.,0.,-1.));
#1013=DIRECTION('',(1.,0.,0.));
#1014=DIRECTION('',(0.,0.,-1.));
#1015=DIRECTION('',(1.,0.,0.));
#1016=DIRECTION('',(0.,0.,-1.));
#1017=DIRECTION('',(1.,0.,0.));
#1018=DIRECTION('',(0.,1.,0.));
#1019=DIRECTION('',(1.,6.69260600299694E-17,0.));
#1020=DIRECTION('',(0.,-1.,0.));
#1021=DIRECTION('',(-1.,0.,0.));
#1022=DIRECTION('',(-1.,0.,1.30548124320952E-17));
#1023=DIRECTION('',(0.,1.,1.07599269999754E-17));
#1024=DIRECTION('',(1.,0.,0.));
#1025=DIRECTION('',(0.,-1.,0.));
#1026=DIRECTION('',(1.,0.,0.));
#1027=DIRECTION('',(0.,0.,-1.));
#1028=DIRECTION('',(1.,0.,0.));
#1029=DIRECTION('',(0.,1.,1.03121850297598E-17));
#1030=DIRECTION('',(0.,0.,-1.));
#1031=DIRECTION('',(0.,0.,1.));
#1032=DIRECTION('',(0.,1.,1.98004345819937E-17));
#1033=DIRECTION('',(0.,0.,1.));
#1034=DIRECTION('',(1.,0.,0.));
#1035=DIRECTION('',(-1.,0.,0.));
#1036=DIRECTION('',(0.,-1.,-2.15198539999508E-17));
#1037=DIRECTION('',(1.,0.,0.));
#1038=DIRECTION('',(0.,-1.,0.));
#1039=DIRECTION('',(-1.,1.14806318727783E-16,0.));
#1040=DIRECTION('',(0.,-1.,0.));
#1041=DIRECTION('',(1.,0.,-5.78241158658936E-16));
#1042=DIRECTION('',(1.,2.69199341956393E-18,0.));
#1043=DIRECTION('',(-2.69199341956393E-18,1.,0.));
#1044=DIRECTION('',(0.,0.,1.));
#1045=DIRECTION('',(0.,0.,1.));
#1046=DIRECTION('',(0.,-1.,0.));
#1047=DIRECTION('',(0.,0.,1.));
#1048=DIRECTION('',(-2.69199341956393E-18,1.,0.));
#1049=DIRECTION('',(1.,2.69199341956393E-18,0.));
#1050=DIRECTION('',(-2.69199341956393E-18,1.,0.));
#1051=DIRECTION('',(1.,2.69199341956393E-18,0.));
#1052=DIRECTION('',(-2.69199341956393E-18,1.,0.));
#1053=DIRECTION('',(0.,0.,1.));
#1054=DIRECTION('',(1.,0.,0.));
#1055=DIRECTION('',(0.,-1.,0.));
#1056=DIRECTION('',(1.,0.,0.));
#1057=DIRECTION('',(0.,1.,0.));
#1058=DIRECTION('',(-1.,0.,0.));
#1059=DIRECTION('',(1.,6.69260600299694E-17,0.));
#1060=DIRECTION('',(0.,1.,0.));
#1061=DIRECTION('',(-1.,0.,0.));
#1062=DIRECTION('',(0.,-1.,0.));
#1063=DIRECTION('',(1.,0.,0.));
#1064=DIRECTION('',(0.,1.,0.));
#1065=DIRECTION('',(-1.,0.,0.));
#1066=DIRECTION('',(0.,-1.,0.));
#1067=DIRECTION('',(0.,1.,0.));
#1068=DIRECTION('',(1.,0.,0.));
#1069=DIRECTION('',(1.,0.,0.));
#1070=DIRECTION('',(-1.,0.,0.));
#1071=DIRECTION('',(0.,0.,1.));
#1072=DIRECTION('',(0.,0.,-1.));
#1073=DIRECTION('',(0.,0.,1.));
#1074=DIRECTION('',(0.,-1.,0.));
#1075=DIRECTION('',(0.,0.,1.));
#1076=DIRECTION('',(-1.,0.,0.));
#1077=DIRECTION('',(0.,-1.,0.));
#1078=DIRECTION('',(-1.,0.,0.));
#1079=DIRECTION('',(0.,0.,1.));
#1080=DIRECTION('',(0.,0.,1.));
#1081=DIRECTION('',(1.,0.,0.));
#1082=DIRECTION('',(0.,0.,1.));
#1083=DIRECTION('',(1.,0.,0.));
#1084=DIRECTION('',(0.,0.,1.));
#1085=DIRECTION('',(1.,0.,0.));
#1086=DIRECTION('',(0.,0.,1.));
#1087=DIRECTION('',(1.,0.,0.));
#1088=DIRECTION('',(-1.,1.14806318727783E-16,0.));
#1089=DIRECTION('',(1.,0.,0.));
#1090=DIRECTION('',(0.,-1.,0.));
#1091=DIRECTION('',(0.,0.,-1.));
#1092=DIRECTION('',(1.,0.,0.));
#1093=DIRECTION('',(0.,0.,-1.));
#1094=DIRECTION('',(0.,0.,1.));
#1095=DIRECTION('',(0.,1.,0.));
#1096=DIRECTION('',(0.,0.,1.));
#1097=DIRECTION('',(0.,1.,0.));
#1098=DIRECTION('',(0.,0.,1.));
#1099=DIRECTION('',(-1.,0.,0.));
#1100=DIRECTION('',(0.,0.,1.));
#1101=DIRECTION('',(-1.,0.,0.));
#1102=DIRECTION('',(0.,0.,1.));
#1103=DIRECTION('',(0.,-1.,0.));
#1104=DIRECTION('',(0.,0.,1.));
#1105=DIRECTION('',(0.,-1.,0.));
#1106=DIRECTION('',(0.,0.,-1.));
#1107=DIRECTION('',(1.,0.,0.));
#1108=DIRECTION('',(1.,0.,0.));
#1109=DIRECTION('',(0.,0.,-1.));
#1110=DIRECTION('',(0.,0.,1.));
#1111=DIRECTION('',(0.,0.,1.));
#1112=DIRECTION('',(0.,1.,0.));
#1113=DIRECTION('',(0.,0.,1.));
#1114=DIRECTION('',(0.,0.,1.));
#1115=DIRECTION('',(-1.,0.,0.));
#1116=DIRECTION('',(0.,0.,1.));
#1117=DIRECTION('',(0.,0.,1.));
#1118=DIRECTION('',(6.69260600299694E-17,-1.,0.));
#1119=DIRECTION('',(1.,6.69260600299694E-17,0.));
#1120=DIRECTION('',(0.,0.,1.));
#1121=DIRECTION('',(1.,0.,0.));
#1122=DIRECTION('',(0.,0.,1.));
#1123=DIRECTION('',(1.,0.,0.));
#1124=DIRECTION('',(0.,0.,1.));
#1125=DIRECTION('',(1.,0.,0.));
#1126=DIRECTION('',(0.,0.,-1.));
#1127=DIRECTION('',(-1.,0.,0.));
#1128=DIRECTION('',(0.,0.,1.));
#1129=DIRECTION('',(1.,0.,0.));
#1130=DIRECTION('',(0.,0.,-1.));
#1131=DIRECTION('',(-1.,0.,0.));
#1132=DIRECTION('',(0.,0.,1.));
#1133=DIRECTION('',(1.,0.,0.));
#1134=DIRECTION('',(0.,0.,-1.));
#1135=DIRECTION('',(-1.,0.,0.));
#1136=DIRECTION('',(0.,0.,1.));
#1137=DIRECTION('',(1.,0.,0.));
#1138=DIRECTION('',(0.,0.,-1.));
#1139=DIRECTION('',(-1.,0.,0.));
#1140=DIRECTION('',(0.,-1.,0.));
#1141=DIRECTION('',(0.,0.,-1.));
#1142=DIRECTION('',(0.,6.60847038467355E-16,-1.));
#1143=DIRECTION('',(1.14806318727783E-16,1.,0.));
#1144=DIRECTION('',(-1.,1.14806318727783E-16,0.));
#1145=DIRECTION('',(0.,0.,1.));
#1146=DIRECTION('',(1.,0.,0.));
#1147=DIRECTION('',(0.,0.,-1.));
#1148=DIRECTION('',(1.,0.,0.));
#1149=DIRECTION('',(0.,0.,-1.));
#1150=DIRECTION('',(-1.,0.,0.));
#1151=DIRECTION('',(0.,0.,1.));
#1152=DIRECTION('',(1.,0.,0.));
#1153=DIRECTION('',(0.,0.,-1.));
#1154=DIRECTION('',(1.,0.,0.));
#1155=DIRECTION('',(0.,0.,-1.));
#1156=DIRECTION('',(-1.,0.,0.));
#1157=DIRECTION('',(0.,0.,1.));
#1158=DIRECTION('',(1.,0.,0.));
#1159=DIRECTION('',(0.,0.,-1.));
#1160=DIRECTION('',(1.,0.,0.));
#1161=DIRECTION('',(0.,0.,-1.));
#1162=DIRECTION('',(-1.,0.,0.));
#1163=DIRECTION('',(0.,0.,1.));
#1164=DIRECTION('',(1.,0.,0.));
#1165=DIRECTION('',(0.,0.,-1.));
#1166=DIRECTION('',(1.,0.,0.));
#1167=DIRECTION('',(0.,0.,-1.));
#1168=DIRECTION('',(-1.,0.,0.));
#1169=DIRECTION('',(0.,1.,0.));
#1170=DIRECTION('',(0.,0.,1.));
#1171=DIRECTION('',(1.,0.,0.));
#1172=DIRECTION('',(0.,0.,-1.));
#1173=DIRECTION('',(0.,0.,-1.));
#1174=DIRECTION('',(1.,0.,0.));
#1175=DIRECTION('',(0.,0.,-1.));
#1176=DIRECTION('',(0.,-1.,0.));
#1177=DIRECTION('',(0.,0.,-1.));
#1178=DIRECTION('',(0.,-1.,0.));
#1179=DIRECTION('',(0.,0.,-1.));
#1180=DIRECTION('',(-1.,0.,0.));
#1181=DIRECTION('',(0.,0.,-1.));
#1182=DIRECTION('',(0.,0.,-1.));
#1183=DIRECTION('',(-1.,0.,0.));
#1184=DIRECTION('',(0.,0.,-1.));
#1185=DIRECTION('',(-1.,0.,0.));
#1186=DIRECTION('',(0.,0.,1.));
#1187=DIRECTION('',(1.,0.,0.));
#1188=DIRECTION('',(-1.,0.,0.));
#1189=DIRECTION('',(0.,0.,1.));
#1190=DIRECTION('',(0.,1.,0.));
#1191=DIRECTION('',(0.,0.,-1.));
#1192=DIRECTION('',(-1.,0.,0.));
#1193=DIRECTION('',(0.,0.,1.));
#1194=DIRECTION('',(1.,0.,0.));
#1195=DIRECTION('',(0.,0.,-1.));
#1196=DIRECTION('',(1.,0.,0.));
#1197=DIRECTION('',(0.,0.,-1.));
#1198=DIRECTION('',(-1.,0.,0.));
#1199=DIRECTION('',(1.,0.,0.));
#1200=DIRECTION('',(0.,0.,-1.));
#1201=DIRECTION('',(-1.,0.,0.));
#1202=DIRECTION('',(0.,0.,1.));
#1203=DIRECTION('',(1.,0.,0.));
#1204=DIRECTION('',(0.,0.,-1.));
#1205=DIRECTION('',(1.,0.,0.));
#1206=DIRECTION('',(0.,0.,-1.));
#1207=DIRECTION('',(1.,0.,0.));
#1208=DIRECTION('',(0.,0.,-1.));
#1209=DIRECTION('',(-1.,0.,0.));
#1210=DIRECTION('',(0.,0.,1.));
#1211=DIRECTION('',(-1.,0.,0.));
#1212=DIRECTION('',(0.,0.,1.));
#1213=DIRECTION('',(1.,0.,0.));
#1214=DIRECTION('',(0.,0.,-1.));
#1215=DIRECTION('',(-1.,0.,0.));
#1216=DIRECTION('',(0.,0.,1.));
#1217=DIRECTION('',(1.,0.,0.));
#1218=DIRECTION('',(0.,1.,1.03121850297598E-17));
#1219=DIRECTION('',(1.,0.,0.));
#1220=DIRECTION('',(0.,0.,-1.));
#1221=DIRECTION('',(0.,1.,0.));
#1222=DIRECTION('',(0.,0.,1.));
#1223=DIRECTION('',(0.,-6.60847038467355E-16,1.));
#1224=DIRECTION('',(-1.,0.,0.));
#1225=DIRECTION('',(0.,0.,1.));
#1226=DIRECTION('',(1.,0.,0.));
#1227=DIRECTION('',(0.,0.,-1.));
#1228=DIRECTION('',(-1.,0.,0.));
#1229=DIRECTION('',(0.,0.,1.));
#1230=DIRECTION('',(-1.,0.,0.));
#1231=DIRECTION('',(0.,0.,1.));
#1232=CARTESIAN_POINT('',(0.,0.,0.));
#1233=CARTESIAN_POINT('',(31.22,-29.435,-4.75));
#1234=CARTESIAN_POINT('',(33.22,-29.435,-4.75));
#1235=CARTESIAN_POINT('',(33.22,-29.435,-3.));
#1236=CARTESIAN_POINT('',(31.22,-29.435,-4.75));
#1237=CARTESIAN_POINT('',(31.22,-29.435,-3.));
#1238=CARTESIAN_POINT('',(30.72,16.725,-4.75));
#1239=CARTESIAN_POINT('',(33.22,16.725,-4.75));
#1240=CARTESIAN_POINT('',(33.22,16.725,-3.));
#1241=CARTESIAN_POINT('',(31.22,16.725,-4.75));
#1242=CARTESIAN_POINT('',(31.22,16.725,-3.));
#1243=CARTESIAN_POINT('',(-30.72,16.725,-4.75));
#1244=CARTESIAN_POINT('',(-33.22,16.725,-4.75));
#1245=CARTESIAN_POINT('',(-33.22,14.975,-4.75));
#1246=CARTESIAN_POINT('',(-31.22,16.725,-4.75));
#1247=CARTESIAN_POINT('',(-31.22,16.725,-6.5));
#1248=CARTESIAN_POINT('',(0.,0.,1.));
#1249=CARTESIAN_POINT('',(26.05,-32.305,1.));
#1250=CARTESIAN_POINT('',(27.8,-32.305,1.));
#1251=CARTESIAN_POINT('',(-26.05,-32.305,1.));
#1252=CARTESIAN_POINT('',(-24.3,-32.305,1.));
#1253=CARTESIAN_POINT('',(0.,37.005,1.));
#1254=CARTESIAN_POINT('',(1.75,37.005,1.));
#1255=CARTESIAN_POINT('',(-27.12,37.005,1.));
#1256=CARTESIAN_POINT('',(-25.37,37.005,1.));
#1257=CARTESIAN_POINT('',(27.12,37.005,1.));
#1258=CARTESIAN_POINT('',(28.87,37.005,1.));
#1259=CARTESIAN_POINT('',(25.92,-19.375,1.));
#1260=CARTESIAN_POINT('',(25.92,-19.375,1.));
#1261=CARTESIAN_POINT('',(25.92,32.465,1.));
#1262=CARTESIAN_POINT('',(-25.92,-19.375,1.));
#1263=CARTESIAN_POINT('',(-25.92,-19.375,1.));
#1264=CARTESIAN_POINT('',(-25.92,32.465,1.));
#1265=CARTESIAN_POINT('',(-25.92,32.465,1.));
#1266=CARTESIAN_POINT('',(0.,32.465,1.));
#1267=CARTESIAN_POINT('',(33.22,-39.8053738427208,0.999999999999999));
#1268=CARTESIAN_POINT('',(33.22,-39.8053738427208,0.999999999999999));
#1269=CARTESIAN_POINT('',(-33.22,-39.8053738427208,1.));
#1270=CARTESIAN_POINT('',(33.22,-39.8053738427208,0.999999999999999));
#1271=CARTESIAN_POINT('',(33.22,40.805,1.));
#1272=CARTESIAN_POINT('',(31.22,40.805,1.));
#1273=CARTESIAN_POINT('',(-33.22,40.805,1.));
#1274=CARTESIAN_POINT('',(-33.22,-46.8053738427208,1.));
#1275=CARTESIAN_POINT('',(-33.22,0.,0.));
#1276=CARTESIAN_POINT('',(-33.22,-29.435,-4.75));
#1277=CARTESIAN_POINT('',(-33.22,-27.685,-4.75));
#1278=CARTESIAN_POINT('',(-33.22,-39.8053738427208,1.));
#1279=CARTESIAN_POINT('',(-33.22,-39.8053738427208,-9.5));
#1280=CARTESIAN_POINT('',(-33.22,40.805,-9.5));
#1281=CARTESIAN_POINT('',(-33.22,40.805,-9.5));
#1282=CARTESIAN_POINT('',(-33.22,-46.8053738427208,-9.5));
#1283=CARTESIAN_POINT('',(0.,0.,-9.5));
#1284=CARTESIAN_POINT('',(-31.22,40.805,-9.5));
#1285=CARTESIAN_POINT('',(33.22,40.805,-9.5));
#1286=CARTESIAN_POINT('',(33.22,40.805,-9.5));
#1287=CARTESIAN_POINT('',(33.22,-39.8053738427208,-9.5));
#1288=CARTESIAN_POINT('',(30.22,-39.8053738427208,-9.5));
#1289=CARTESIAN_POINT('',(30.22,-39.8053738427208,-9.5));
#1290=CARTESIAN_POINT('',(30.22,39.805,-9.5));
#1291=CARTESIAN_POINT('',(30.22,39.805,-9.5));
#1292=CARTESIAN_POINT('',(30.22,39.805,-9.5));
#1293=CARTESIAN_POINT('',(-30.22,39.805,-9.5));
#1294=CARTESIAN_POINT('',(-30.22,39.805,-9.5));
#1295=CARTESIAN_POINT('',(-30.22,-39.8053738427208,-9.5));
#1296=CARTESIAN_POINT('',(-33.22,-39.8053738427208,-9.5));
#1297=CARTESIAN_POINT('',(-30.22,-60.1953738427208,-4.5));
#1298=CARTESIAN_POINT('',(-30.22,-39.8053738427208,-9.5));
#1299=CARTESIAN_POINT('',(-30.22,-39.8053738427208,0.));
#1300=CARTESIAN_POINT('',(-30.22,39.805,-9.5));
#1301=CARTESIAN_POINT('',(-30.22,39.805,-4.5));
#1302=CARTESIAN_POINT('',(-30.22,-60.1953738427208,-4.5));
#1303=CARTESIAN_POINT('',(-30.22,34.215,-4.5));
#1304=CARTESIAN_POINT('',(-30.22,34.215,-4.5));
#1305=CARTESIAN_POINT('',(-30.22,34.215,0.));
#1306=CARTESIAN_POINT('',(-30.22,-60.1953738427208,0.));
#1307=CARTESIAN_POINT('',(-30.22,-29.435,-4.75));
#1308=CARTESIAN_POINT('',(-30.22,-28.435,-4.75));
#1309=CARTESIAN_POINT('',(-30.22,16.725,-4.75));
#1310=CARTESIAN_POINT('',(-30.22,17.725,-4.75));
#1311=CARTESIAN_POINT('',(0.,0.,0.));
#1312=CARTESIAN_POINT('',(28.575,-29.78,0.));
#1313=CARTESIAN_POINT('',(28.575,-29.78,0.));
#1314=CARTESIAN_POINT('',(28.575,-34.83,0.));
#1315=CARTESIAN_POINT('',(23.525,-29.78,0.));
#1316=CARTESIAN_POINT('',(23.525,-29.78,0.));
#1317=CARTESIAN_POINT('',(23.525,-34.83,0.));
#1318=CARTESIAN_POINT('',(23.525,-34.83,0.));
#1319=CARTESIAN_POINT('',(28.575,-34.83,0.));
#1320=CARTESIAN_POINT('',(1.29669241308066E-15,-19.375,0.));
#1321=CARTESIAN_POINT('',(-25.92,-19.375,-1.38777878078145E-14));
#1322=CARTESIAN_POINT('',(25.92,-19.375,0.));
#1323=CARTESIAN_POINT('',(25.92,0.,0.));
#1324=CARTESIAN_POINT('',(25.92,32.465,-1.38777878078145E-14));
#1325=CARTESIAN_POINT('',(0.,32.465,0.));
#1326=CARTESIAN_POINT('',(-25.92,32.465,-1.38777878078145E-14));
#1327=CARTESIAN_POINT('',(-25.92,0.,0.));
#1328=CARTESIAN_POINT('',(0.,-34.83,0.));
#1329=CARTESIAN_POINT('',(-28.575,-34.83,0.));
#1330=CARTESIAN_POINT('',(-23.525,-34.83,0.));
#1331=CARTESIAN_POINT('',(-23.525,0.,0.));
#1332=CARTESIAN_POINT('',(-23.525,-29.78,0.));
#1333=CARTESIAN_POINT('',(0.,-29.78,0.));
#1334=CARTESIAN_POINT('',(-28.575,-29.78,0.));
#1335=CARTESIAN_POINT('',(-28.575,0.,0.));
#1336=CARTESIAN_POINT('',(30.22,-60.1953738427208,0.));
#1337=CARTESIAN_POINT('',(30.22,-39.8053738427208,0.));
#1338=CARTESIAN_POINT('',(30.22,34.215,0.));
#1339=CARTESIAN_POINT('',(-30.22,-39.8053738427208,0.));
#1340=CARTESIAN_POINT('',(0.,34.215,0.));
#1341=CARTESIAN_POINT('',(30.22,39.805,-9.5));
#1342=CARTESIAN_POINT('',(30.22,-39.8053738427208,0.));
#1343=CARTESIAN_POINT('',(30.22,34.215,-4.5));
#1344=CARTESIAN_POINT('',(30.22,34.215,-4.5));
#1345=CARTESIAN_POINT('',(30.22,39.805,-4.5));
#1346=CARTESIAN_POINT('',(30.22,39.805,-4.5));
#1347=CARTESIAN_POINT('',(30.22,39.805,-9.5));
#1348=CARTESIAN_POINT('',(30.22,-29.435,-4.75));
#1349=CARTESIAN_POINT('',(30.22,-30.435,-4.75));
#1350=CARTESIAN_POINT('',(30.22,16.725,-4.75));
#1351=CARTESIAN_POINT('',(30.22,16.725,-3.75));
#1352=CARTESIAN_POINT('',(0.,0.,-4.5));
#1353=CARTESIAN_POINT('',(27.12,37.005,-4.5));
#1354=CARTESIAN_POINT('',(28.12,37.005,-4.5));
#1355=CARTESIAN_POINT('',(0.,37.005,-4.5));
#1356=CARTESIAN_POINT('',(1.,37.005,-4.5));
#1357=CARTESIAN_POINT('',(-27.12,37.005,-4.5));
#1358=CARTESIAN_POINT('',(-26.12,37.005,-4.5));
#1359=CARTESIAN_POINT('',(30.22,39.805,-4.5));
#1360=CARTESIAN_POINT('',(0.,34.215,-4.5));
#1361=CARTESIAN_POINT('',(0.,34.215,-4.5));
#1362=CARTESIAN_POINT('',(-23.525,-34.83,-4.5));
#1363=CARTESIAN_POINT('',(-23.525,-34.83,-4.5));
#1364=CARTESIAN_POINT('',(-23.525,-34.83,-4.35));
#1365=CARTESIAN_POINT('',(-23.525,-34.83,-4.35));
#1366=CARTESIAN_POINT('',(-23.525,-29.78,-4.35));
#1367=CARTESIAN_POINT('',(-23.525,-29.78,-4.5));
#1368=CARTESIAN_POINT('',(-23.525,-29.78,-4.5));
#1369=CARTESIAN_POINT('',(-23.525,-29.78,-4.35));
#1370=CARTESIAN_POINT('',(-28.575,-29.78,-4.35));
#1371=CARTESIAN_POINT('',(-28.575,-29.78,-4.5));
#1372=CARTESIAN_POINT('',(-28.575,-32.305,-4.5));
#1373=CARTESIAN_POINT('',(-28.575,-29.78,-4.35));
#1374=CARTESIAN_POINT('',(-28.575,-34.83,-4.35));
#1375=CARTESIAN_POINT('',(-28.575,-34.83,-4.5));
#1376=CARTESIAN_POINT('',(-28.575,-34.83,-4.5));
#1377=CARTESIAN_POINT('',(-28.575,-34.83,-4.35));
#1378=CARTESIAN_POINT('',(25.92,-19.375,-55.4312966134087));
#1379=CARTESIAN_POINT('',(25.92,-19.375,-55.4312966134087));
#1380=CARTESIAN_POINT('',(25.92,32.465,-55.4312966134087));
#1381=CARTESIAN_POINT('',(0.,32.465,-55.4312966134087));
#1382=CARTESIAN_POINT('',(-25.92,32.465,-55.4312966134087));
#1383=CARTESIAN_POINT('',(-25.92,32.465,-55.4312966134087));
#1384=CARTESIAN_POINT('',(-25.92,-19.375,-55.4312966134087));
#1385=CARTESIAN_POINT('',(-25.92,-19.375,-55.4312966134087));
#1386=CARTESIAN_POINT('',(0.,0.,-4.35));
#1387=CARTESIAN_POINT('',(-26.05,-32.305,-4.35000000000001));
#1388=CARTESIAN_POINT('',(-25.05,-32.305,-4.35000000000001));
#1389=CARTESIAN_POINT('',(-26.05,-32.305,-76.0053197829431));
#1390=CARTESIAN_POINT('',(-26.05,-32.305,-1.));
#1391=CARTESIAN_POINT('',(-27.05,-32.305,-1.));
#1392=CARTESIAN_POINT('',(-27.12,37.005,-57.6850093871032));
#1393=CARTESIAN_POINT('',(-27.12,37.005,-1.));
#1394=CARTESIAN_POINT('',(-28.12,37.005,-1.));
#1395=CARTESIAN_POINT('',(0.,37.005,-57.6850093871032));
#1396=CARTESIAN_POINT('',(0.,37.005,-1.));
#1397=CARTESIAN_POINT('',(-1.,37.005,-1.));
#1398=CARTESIAN_POINT('',(27.12,37.005,-57.6850093871032));
#1399=CARTESIAN_POINT('',(27.12,37.005,-1.));
#1400=CARTESIAN_POINT('',(26.12,37.005,-1.));
#1401=CARTESIAN_POINT('',(0.,40.805,0.));
#1402=CARTESIAN_POINT('',(33.22,40.805,1.));
#1403=CARTESIAN_POINT('',(30.22,39.805,-9.5));
#1404=CARTESIAN_POINT('',(27.12,37.005,-1.));
#1405=CARTESIAN_POINT('',(27.12,37.005,-1.));
#1406=CARTESIAN_POINT('',(28.87,37.005,-1.));
#1407=CARTESIAN_POINT('',(27.12,37.005,-1.));
#1408=CARTESIAN_POINT('',(-27.12,37.005,-1.));
#1409=CARTESIAN_POINT('',(-27.12,37.005,-1.));
#1410=CARTESIAN_POINT('',(-25.37,37.005,-1.));
#1411=CARTESIAN_POINT('',(-27.12,37.005,-1.));
#1412=CARTESIAN_POINT('',(0.,37.005,-1.));
#1413=CARTESIAN_POINT('',(0.,37.005,-1.));
#1414=CARTESIAN_POINT('',(1.75,37.005,-1.));
#1415=CARTESIAN_POINT('',(0.,37.005,-1.));
#1416=CARTESIAN_POINT('',(-26.05,-32.305,-1.));
#1417=CARTESIAN_POINT('',(-26.05,-32.305,-1.));
#1418=CARTESIAN_POINT('',(-24.3,-32.305,-1.));
#1419=CARTESIAN_POINT('',(-26.05,-32.305,-1.));
#1420=CARTESIAN_POINT('',(23.525,-29.78,0.));
#1421=CARTESIAN_POINT('',(23.525,-29.78,-4.35));
#1422=CARTESIAN_POINT('',(23.525,-29.78,-4.35));
#1423=CARTESIAN_POINT('',(28.575,-29.78,-4.35));
#1424=CARTESIAN_POINT('',(23.525,-29.78,0.));
#1425=CARTESIAN_POINT('',(28.575,-29.78,0.));
#1426=CARTESIAN_POINT('',(28.575,-29.78,0.));
#1427=CARTESIAN_POINT('',(28.575,-29.78,-4.35));
#1428=CARTESIAN_POINT('',(28.575,-34.83,-4.35));
#1429=CARTESIAN_POINT('',(28.575,-34.83,0.));
#1430=CARTESIAN_POINT('',(28.575,-34.83,0.));
#1431=CARTESIAN_POINT('',(28.575,-34.83,-4.35));
#1432=CARTESIAN_POINT('',(23.525,-34.83,-4.35));
#1433=CARTESIAN_POINT('',(23.525,-34.83,0.));
#1434=CARTESIAN_POINT('',(26.05,-32.305,0.));
#1435=CARTESIAN_POINT('',(26.05,-32.305,-1.));
#1436=CARTESIAN_POINT('',(25.05,-32.305,-1.));
#1437=CARTESIAN_POINT('',(26.05,-32.305,-4.35));
#1438=CARTESIAN_POINT('',(27.05,-32.305,-4.35));
#1439=CARTESIAN_POINT('',(23.525,-34.83,0.));
#1440=CARTESIAN_POINT('',(23.525,-34.83,-4.35));
#1441=CARTESIAN_POINT('',(0.,0.,-4.35));
#1442=CARTESIAN_POINT('',(26.05,-32.305,-1.));
#1443=CARTESIAN_POINT('',(26.05,-32.305,-1.));
#1444=CARTESIAN_POINT('',(27.8,-32.305,-1.));
#1445=CARTESIAN_POINT('',(26.05,-32.305,-1.));
#1446=CARTESIAN_POINT('',(-59.7453420112897,16.725,-4.75));
#1447=CARTESIAN_POINT('',(31.22,16.725,-4.75));
#1448=CARTESIAN_POINT('',(31.22,16.725,-3.75));
#1449=CARTESIAN_POINT('',(-59.7453420112897,16.725,-4.75));
#1450=CARTESIAN_POINT('',(-31.22,16.725,-4.75));
#1451=CARTESIAN_POINT('',(-31.22,16.725,-5.75));
#1452=CARTESIAN_POINT('',(30.22,-29.435,-4.75));
#1453=CARTESIAN_POINT('',(31.22,-29.435,-4.75));
#1454=CARTESIAN_POINT('',(31.22,-29.435,-3.75));
#1455=CARTESIAN_POINT('',(-29.0473051548681,-29.435,-4.75));
#1456=CARTESIAN_POINT('',(-31.22,-29.435,-4.75));
#1457=CARTESIAN_POINT('',(-31.22,-29.435,-5.75));
#1458=CARTESIAN_POINT('',(-31.22,-29.435,-4.75));
#1459=CARTESIAN_POINT('',(-31.22,-29.435,-4.75));
#1460=CARTESIAN_POINT('',(-31.22,-27.685,-4.75));
#1461=CARTESIAN_POINT('',(-31.22,-29.435,-4.75));
#1462=CARTESIAN_POINT('',(0.,-39.8053738427208,0.));
#1463=CARTESIAN_POINT('',(33.22,-39.8053738427208,-9.5));
#1464=CARTESIAN_POINT('',(33.22,0.,0.));
#1465=CARTESIAN_POINT('',(-31.22,16.725,-4.75));
#1466=CARTESIAN_POINT('',(31.22,16.725,-4.75));
#1467=CARTESIAN_POINT('',(31.22,-29.435,-4.75));
#1468=MECHANICAL_DESIGN_GEOMETRIC_PRESENTATION_REPRESENTATION('',(#885),
#1469);
#1469=(
GEOMETRIC_REPRESENTATION_CONTEXT(3)
GLOBAL_UNCERTAINTY_ASSIGNED_CONTEXT((#1470))
GLOBAL_UNIT_ASSIGNED_CONTEXT((#1473,#1472,#1471))
REPRESENTATION_CONTEXT('05_FDML_stimfix_LCD_screen_front_panel',
'TOP_LEVEL_ASSEMBLY_PART')
);
#1470=UNCERTAINTY_MEASURE_WITH_UNIT(LENGTH_MEASURE(0.005),#1473,
'DISTANCE_ACCURACY_VALUE','Maximum Tolerance applied to model');
#1471=(
NAMED_UNIT(*)
SI_UNIT($,.STERADIAN.)
SOLID_ANGLE_UNIT()
);
#1472=(
NAMED_UNIT(*)
PLANE_ANGLE_UNIT()
SI_UNIT($,.RADIAN.)
);
#1473=(
LENGTH_UNIT()
NAMED_UNIT(*)
SI_UNIT(.MILLI.,.METRE.)
);
#1474=PRODUCT_DEFINITION_SHAPE('','',#1475);
#1475=PRODUCT_DEFINITION('','',#1477,#1476);
#1476=PRODUCT_DEFINITION_CONTEXT('',#1483,'design');
#1477=PRODUCT_DEFINITION_FORMATION_WITH_SPECIFIED_SOURCE('','',#1479,
 .NOT_KNOWN.);
#1478=PRODUCT_RELATED_PRODUCT_CATEGORY('','',(#1479));
#1479=PRODUCT('05_FDML_stimfix_LCD_screen_front_panel',
'05_FDML_stimfix_LCD_screen_front_panel',
'05_FDML_stimfix_LCD_screen_front_panel',(#1481));
#1480=PRODUCT_CATEGORY('','');
#1481=PRODUCT_CONTEXT('',#1483,'mechanical');
#1482=APPLICATION_PROTOCOL_DEFINITION('international standard',
'automotive_design',2010,#1483);
#1483=APPLICATION_CONTEXT(
'core data for automotive mechanical design processes');
ENDSEC;
END-ISO-10303-21;
