ISO-10303-21;
HEADER;
/* Generated by software containing ST-Developer
 * from STEP Tools, Inc. (www.steptools.com) 
 */
/* OPTION: strings as raw bytes, not using required /X/ escapes */

FILE_DESCRIPTION(
/* description */ ('Unknown'),
/* implementation_level */ '2;1');

FILE_NAME(
/* name */ '06_FDML_stimfix_2in_lens_clamp_holder',
/* time_stamp */ '2026-09-07T13:58:46+02:00',
/* author */ ('Unknown'),
/* organization */ ('Unknown'),
/* preprocessor_version */ 'ST-DEVELOPER v16.7',
/* originating_system */ 'Solid Edge',
/* authorisation */ 'Unknown');

FILE_SCHEMA (('AUTOMOTIVE_DESIGN {1 0 10303 214 3 1 1}'));
ENDSEC;

DATA;
#10=PROPERTY_DEFINITION_REPRESENTATION(#14,#12);
#11=PROPERTY_DEFINITION_REPRESENTATION(#15,#13);
#12=REPRESENTATION('',(#16),#812);
#13=REPRESENTATION('',(#17),#812);
#14=PROPERTY_DEFINITION('pmi validation property','',#817);
#15=PROPERTY_DEFINITION('pmi validation property','',#817);
#16=VALUE_REPRESENTATION_ITEM('number of annotations',COUNT_MEASURE(0.));
#17=VALUE_REPRESENTATION_ITEM('number of views',COUNT_MEASURE(0.));
#18=SHAPE_REPRESENTATION_RELATIONSHIP('','',#499,#19);
#19=ADVANCED_BREP_SHAPE_REPRESENTATION('',(#497),#812);
#20=PLANE('',#504);
#21=PLANE('',#511);
#22=PLANE('',#512);
#23=PLANE('',#513);
#24=PLANE('',#514);
#25=PLANE('',#516);
#26=PLANE('',#518);
#27=PLANE('',#526);
#28=PLANE('',#527);
#29=PLANE('',#528);
#30=PLANE('',#529);
#31=PLANE('',#530);
#32=PLANE('',#531);
#33=PLANE('',#532);
#34=PLANE('',#533);
#35=PLANE('',#534);
#36=PLANE('',#535);
#37=PLANE('',#536);
#38=PLANE('',#539);
#39=B_SPLINE_CURVE_WITH_KNOTS('',3,(#678,#679,#680,#681,#682,#683,#684,
#685,#686,#687,#688),.UNSPECIFIED.,.T.,.F.,(1,1,1,1,1,1,1,1,1,1,1,1,1,1,
1),(-0.00469135076904102,-0.00312756717936068,-0.00156378358968034,3.25260651745651E-19,
0.00156378358968034,0.00312756717936068,0.00469135076904101,0.00625513435872135,
0.00781891794840169,0.00938270153808203,0.0109464851277624,0.0125102687174427,
0.014074052307123,0.0156378358968034,0.0172016194864837),.UNSPECIFIED.);
#40=LINE('',#673,#88);
#41=LINE('',#677,#89);
#42=LINE('',#691,#90);
#43=LINE('',#694,#91);
#44=LINE('',#696,#92);
#45=LINE('',#700,#93);
#46=LINE('',#702,#94);
#47=LINE('',#704,#95);
#48=LINE('',#705,#96);
#49=LINE('',#707,#97);
#50=LINE('',#709,#98);
#51=LINE('',#716,#99);
#52=LINE('',#717,#100);
#53=LINE('',#719,#101);
#54=LINE('',#723,#102);
#55=LINE('',#725,#103);
#56=LINE('',#727,#104);
#57=LINE('',#729,#105);
#58=LINE('',#731,#106);
#59=LINE('',#733,#107);
#60=LINE('',#735,#108);
#61=LINE('',#737,#109);
#62=LINE('',#740,#110);
#63=LINE('',#742,#111);
#64=LINE('',#744,#112);
#65=LINE('',#746,#113);
#66=LINE('',#748,#114);
#67=LINE('',#749,#115);
#68=LINE('',#753,#116);
#69=LINE('',#757,#117);
#70=LINE('',#759,#118);
#71=LINE('',#773,#119);
#72=LINE('',#775,#120);
#73=LINE('',#777,#121);
#74=LINE('',#779,#122);
#75=LINE('',#781,#123);
#76=LINE('',#783,#124);
#77=LINE('',#785,#125);
#78=LINE('',#787,#126);
#79=LINE('',#789,#127);
#80=LINE('',#791,#128);
#81=LINE('',#793,#129);
#82=LINE('',#795,#130);
#83=LINE('',#798,#131);
#84=LINE('',#800,#132);
#85=LINE('',#802,#133);
#86=LINE('',#804,#134);
#87=LINE('',#806,#135);
#88=VECTOR('',#546,1000.);
#89=VECTOR('',#549,1000.);
#90=VECTOR('',#552,1000.);
#91=VECTOR('',#553,1000.);
#92=VECTOR('',#554,1000.);
#93=VECTOR('',#557,1000.);
#94=VECTOR('',#558,1000.);
#95=VECTOR('',#559,1000.);
#96=VECTOR('',#560,1000.);
#97=VECTOR('',#561,1000.);
#98=VECTOR('',#562,1000.);
#99=VECTOR('',#569,1000.);
#100=VECTOR('',#570,1000.);
#101=VECTOR('',#573,1000.);
#102=VECTOR('',#576,1000.);
#103=VECTOR('',#579,1000.);
#104=VECTOR('',#580,1000.);
#105=VECTOR('',#581,1000.);
#106=VECTOR('',#584,1000.);
#107=VECTOR('',#585,1000.);
#108=VECTOR('',#586,1000.);
#109=VECTOR('',#589,1000.);
#110=VECTOR('',#590,1000.);
#111=VECTOR('',#591,1000.);
#112=VECTOR('',#592,1000.);
#113=VECTOR('',#593,1000.);
#114=VECTOR('',#594,1000.);
#115=VECTOR('',#595,1000.);
#116=VECTOR('',#600,1000.);
#117=VECTOR('',#605,1000.);
#118=VECTOR('',#608,1000.);
#119=VECTOR('',#627,1000.);
#120=VECTOR('',#628,1000.);
#121=VECTOR('',#629,1000.);
#122=VECTOR('',#632,1000.);
#123=VECTOR('',#633,1000.);
#124=VECTOR('',#636,1000.);
#125=VECTOR('',#637,1000.);
#126=VECTOR('',#640,1000.);
#127=VECTOR('',#641,1000.);
#128=VECTOR('',#644,1000.);
#129=VECTOR('',#645,1000.);
#130=VECTOR('',#648,1000.);
#131=VECTOR('',#653,1000.);
#132=VECTOR('',#654,1000.);
#133=VECTOR('',#655,1000.);
#134=VECTOR('',#658,1000.);
#135=VECTOR('',#661,1000.);
#136=ORIENTED_EDGE('',*,*,#260,.F.);
#137=ORIENTED_EDGE('',*,*,#261,.F.);
#138=ORIENTED_EDGE('',*,*,#262,.T.);
#139=ORIENTED_EDGE('',*,*,#263,.F.);
#140=ORIENTED_EDGE('',*,*,#264,.F.);
#141=ORIENTED_EDGE('',*,*,#265,.T.);
#142=ORIENTED_EDGE('',*,*,#266,.T.);
#143=ORIENTED_EDGE('',*,*,#267,.F.);
#144=ORIENTED_EDGE('',*,*,#268,.T.);
#145=ORIENTED_EDGE('',*,*,#269,.T.);
#146=ORIENTED_EDGE('',*,*,#270,.T.);
#147=ORIENTED_EDGE('',*,*,#271,.T.);
#148=ORIENTED_EDGE('',*,*,#260,.T.);
#149=ORIENTED_EDGE('',*,*,#272,.T.);
#150=ORIENTED_EDGE('',*,*,#273,.T.);
#151=ORIENTED_EDGE('',*,*,#274,.T.);
#152=ORIENTED_EDGE('',*,*,#275,.T.);
#153=ORIENTED_EDGE('',*,*,#276,.T.);
#154=ORIENTED_EDGE('',*,*,#277,.T.);
#155=ORIENTED_EDGE('',*,*,#275,.F.);
#156=ORIENTED_EDGE('',*,*,#278,.F.);
#157=ORIENTED_EDGE('',*,*,#268,.F.);
#158=ORIENTED_EDGE('',*,*,#279,.T.);
#159=ORIENTED_EDGE('',*,*,#280,.T.);
#160=ORIENTED_EDGE('',*,*,#281,.T.);
#161=ORIENTED_EDGE('',*,*,#273,.F.);
#162=ORIENTED_EDGE('',*,*,#282,.F.);
#163=ORIENTED_EDGE('',*,*,#283,.T.);
#164=ORIENTED_EDGE('',*,*,#284,.T.);
#165=ORIENTED_EDGE('',*,*,#270,.F.);
#166=ORIENTED_EDGE('',*,*,#285,.F.);
#167=ORIENTED_EDGE('',*,*,#286,.T.);
#168=ORIENTED_EDGE('',*,*,#287,.T.);
#169=ORIENTED_EDGE('',*,*,#288,.F.);
#170=ORIENTED_EDGE('',*,*,#289,.F.);
#171=ORIENTED_EDGE('',*,*,#290,.F.);
#172=ORIENTED_EDGE('',*,*,#291,.F.);
#173=ORIENTED_EDGE('',*,*,#292,.F.);
#174=ORIENTED_EDGE('',*,*,#293,.F.);
#175=ORIENTED_EDGE('',*,*,#269,.F.);
#176=ORIENTED_EDGE('',*,*,#281,.F.);
#177=ORIENTED_EDGE('',*,*,#294,.T.);
#178=ORIENTED_EDGE('',*,*,#285,.T.);
#179=ORIENTED_EDGE('',*,*,#295,.T.);
#180=ORIENTED_EDGE('',*,*,#261,.T.);
#181=ORIENTED_EDGE('',*,*,#271,.F.);
#182=ORIENTED_EDGE('',*,*,#287,.F.);
#183=ORIENTED_EDGE('',*,*,#296,.T.);
#184=ORIENTED_EDGE('',*,*,#297,.T.);
#185=ORIENTED_EDGE('',*,*,#282,.T.);
#186=ORIENTED_EDGE('',*,*,#272,.F.);
#187=ORIENTED_EDGE('',*,*,#263,.T.);
#188=ORIENTED_EDGE('',*,*,#298,.T.);
#189=ORIENTED_EDGE('',*,*,#274,.F.);
#190=ORIENTED_EDGE('',*,*,#284,.F.);
#191=ORIENTED_EDGE('',*,*,#299,.T.);
#192=ORIENTED_EDGE('',*,*,#278,.T.);
#193=ORIENTED_EDGE('',*,*,#300,.T.);
#194=ORIENTED_EDGE('',*,*,#301,.F.);
#195=ORIENTED_EDGE('',*,*,#297,.F.);
#196=ORIENTED_EDGE('',*,*,#302,.F.);
#197=ORIENTED_EDGE('',*,*,#295,.F.);
#198=ORIENTED_EDGE('',*,*,#303,.T.);
#199=ORIENTED_EDGE('',*,*,#300,.F.);
#200=ORIENTED_EDGE('',*,*,#301,.T.);
#201=ORIENTED_EDGE('',*,*,#303,.F.);
#202=ORIENTED_EDGE('',*,*,#289,.T.);
#203=ORIENTED_EDGE('',*,*,#304,.F.);
#204=ORIENTED_EDGE('',*,*,#305,.F.);
#205=ORIENTED_EDGE('',*,*,#306,.T.);
#206=ORIENTED_EDGE('',*,*,#288,.T.);
#207=ORIENTED_EDGE('',*,*,#307,.F.);
#208=ORIENTED_EDGE('',*,*,#308,.F.);
#209=ORIENTED_EDGE('',*,*,#304,.T.);
#210=ORIENTED_EDGE('',*,*,#293,.T.);
#211=ORIENTED_EDGE('',*,*,#309,.F.);
#212=ORIENTED_EDGE('',*,*,#310,.F.);
#213=ORIENTED_EDGE('',*,*,#307,.T.);
#214=ORIENTED_EDGE('',*,*,#292,.T.);
#215=ORIENTED_EDGE('',*,*,#311,.F.);
#216=ORIENTED_EDGE('',*,*,#312,.F.);
#217=ORIENTED_EDGE('',*,*,#309,.T.);
#218=ORIENTED_EDGE('',*,*,#291,.T.);
#219=ORIENTED_EDGE('',*,*,#313,.F.);
#220=ORIENTED_EDGE('',*,*,#314,.F.);
#221=ORIENTED_EDGE('',*,*,#311,.T.);
#222=ORIENTED_EDGE('',*,*,#290,.T.);
#223=ORIENTED_EDGE('',*,*,#306,.F.);
#224=ORIENTED_EDGE('',*,*,#315,.F.);
#225=ORIENTED_EDGE('',*,*,#313,.T.);
#226=ORIENTED_EDGE('',*,*,#302,.T.);
#227=ORIENTED_EDGE('',*,*,#305,.T.);
#228=ORIENTED_EDGE('',*,*,#308,.T.);
#229=ORIENTED_EDGE('',*,*,#310,.T.);
#230=ORIENTED_EDGE('',*,*,#312,.T.);
#231=ORIENTED_EDGE('',*,*,#314,.T.);
#232=ORIENTED_EDGE('',*,*,#315,.T.);
#233=ORIENTED_EDGE('',*,*,#316,.T.);
#234=ORIENTED_EDGE('',*,*,#317,.T.);
#235=ORIENTED_EDGE('',*,*,#318,.F.);
#236=ORIENTED_EDGE('',*,*,#276,.F.);
#237=ORIENTED_EDGE('',*,*,#299,.F.);
#238=ORIENTED_EDGE('',*,*,#283,.F.);
#239=ORIENTED_EDGE('',*,*,#298,.F.);
#240=ORIENTED_EDGE('',*,*,#262,.F.);
#241=ORIENTED_EDGE('',*,*,#296,.F.);
#242=ORIENTED_EDGE('',*,*,#286,.F.);
#243=ORIENTED_EDGE('',*,*,#294,.F.);
#244=ORIENTED_EDGE('',*,*,#280,.F.);
#245=ORIENTED_EDGE('',*,*,#318,.T.);
#246=ORIENTED_EDGE('',*,*,#319,.T.);
#247=ORIENTED_EDGE('',*,*,#265,.F.);
#248=ORIENTED_EDGE('',*,*,#277,.F.);
#249=ORIENTED_EDGE('',*,*,#267,.T.);
#250=ORIENTED_EDGE('',*,*,#320,.T.);
#251=ORIENTED_EDGE('',*,*,#316,.F.);
#252=ORIENTED_EDGE('',*,*,#279,.F.);
#253=ORIENTED_EDGE('',*,*,#321,.F.);
#254=ORIENTED_EDGE('',*,*,#264,.T.);
#255=ORIENTED_EDGE('',*,*,#321,.T.);
#256=ORIENTED_EDGE('',*,*,#317,.F.);
#257=ORIENTED_EDGE('',*,*,#320,.F.);
#258=ORIENTED_EDGE('',*,*,#266,.F.);
#259=ORIENTED_EDGE('',*,*,#319,.F.);
#260=EDGE_CURVE('',#322,#323,#366,.T.);
#261=EDGE_CURVE('',#324,#322,#40,.T.);
#262=EDGE_CURVE('',#324,#325,#367,.T.);
#263=EDGE_CURVE('',#323,#325,#41,.F.);
#264=EDGE_CURVE('',#326,#326,#39,.T.);
#265=EDGE_CURVE('',#327,#328,#42,.T.);
#266=EDGE_CURVE('',#328,#329,#43,.T.);
#267=EDGE_CURVE('',#330,#329,#44,.T.);
#268=EDGE_CURVE('',#330,#331,#368,.T.);
#269=EDGE_CURVE('',#331,#332,#45,.T.);
#270=EDGE_CURVE('',#332,#333,#46,.T.);
#271=EDGE_CURVE('',#333,#322,#47,.T.);
#272=EDGE_CURVE('',#323,#334,#48,.T.);
#273=EDGE_CURVE('',#334,#335,#49,.T.);
#274=EDGE_CURVE('',#335,#336,#50,.T.);
#275=EDGE_CURVE('',#336,#327,#369,.T.);
#276=EDGE_CURVE('',#337,#338,#370,.T.);
#277=EDGE_CURVE('',#338,#327,#51,.T.);
#278=EDGE_CURVE('',#337,#336,#52,.T.);
#279=EDGE_CURVE('',#330,#339,#53,.F.);
#280=EDGE_CURVE('',#339,#340,#371,.T.);
#281=EDGE_CURVE('',#340,#331,#54,.T.);
#282=EDGE_CURVE('',#341,#334,#55,.T.);
#283=EDGE_CURVE('',#341,#342,#56,.T.);
#284=EDGE_CURVE('',#342,#335,#57,.T.);
#285=EDGE_CURVE('',#343,#332,#58,.T.);
#286=EDGE_CURVE('',#343,#344,#59,.T.);
#287=EDGE_CURVE('',#344,#333,#60,.T.);
#288=EDGE_CURVE('',#345,#346,#61,.T.);
#289=EDGE_CURVE('',#347,#345,#62,.T.);
#290=EDGE_CURVE('',#348,#347,#63,.T.);
#291=EDGE_CURVE('',#349,#348,#64,.T.);
#292=EDGE_CURVE('',#350,#349,#65,.T.);
#293=EDGE_CURVE('',#346,#350,#66,.T.);
#294=EDGE_CURVE('',#340,#343,#67,.T.);
#295=EDGE_CURVE('',#351,#351,#372,.F.);
#296=EDGE_CURVE('',#344,#324,#68,.T.);
#297=EDGE_CURVE('',#352,#352,#373,.F.);
#298=EDGE_CURVE('',#325,#341,#69,.T.);
#299=EDGE_CURVE('',#342,#337,#70,.T.);
#300=EDGE_CURVE('',#353,#353,#374,.T.);
#301=EDGE_CURVE('',#354,#354,#375,.T.);
#302=EDGE_CURVE('',#355,#355,#376,.T.);
#303=EDGE_CURVE('',#356,#356,#377,.T.);
#304=EDGE_CURVE('',#357,#345,#71,.T.);
#305=EDGE_CURVE('',#358,#357,#72,.T.);
#306=EDGE_CURVE('',#358,#347,#73,.T.);
#307=EDGE_CURVE('',#359,#346,#74,.T.);
#308=EDGE_CURVE('',#357,#359,#75,.T.);
#309=EDGE_CURVE('',#360,#350,#76,.T.);
#310=EDGE_CURVE('',#359,#360,#77,.T.);
#311=EDGE_CURVE('',#361,#349,#78,.T.);
#312=EDGE_CURVE('',#360,#361,#79,.T.);
#313=EDGE_CURVE('',#362,#348,#80,.T.);
#314=EDGE_CURVE('',#361,#362,#81,.T.);
#315=EDGE_CURVE('',#362,#358,#82,.T.);
#316=EDGE_CURVE('',#339,#363,#83,.T.);
#317=EDGE_CURVE('',#363,#364,#84,.T.);
#318=EDGE_CURVE('',#338,#364,#85,.T.);
#319=EDGE_CURVE('',#364,#328,#86,.T.);
#320=EDGE_CURVE('',#329,#363,#87,.T.);
#321=EDGE_CURVE('',#365,#365,#378,.T.);
#322=VERTEX_POINT('',#671);
#323=VERTEX_POINT('',#672);
#324=VERTEX_POINT('',#674);
#325=VERTEX_POINT('',#676);
#326=VERTEX_POINT('',#689);
#327=VERTEX_POINT('',#692);
#328=VERTEX_POINT('',#693);
#329=VERTEX_POINT('',#695);
#330=VERTEX_POINT('',#697);
#331=VERTEX_POINT('',#699);
#332=VERTEX_POINT('',#701);
#333=VERTEX_POINT('',#703);
#334=VERTEX_POINT('',#706);
#335=VERTEX_POINT('',#708);
#336=VERTEX_POINT('',#710);
#337=VERTEX_POINT('',#714);
#338=VERTEX_POINT('',#715);
#339=VERTEX_POINT('',#720);
#340=VERTEX_POINT('',#722);
#341=VERTEX_POINT('',#726);
#342=VERTEX_POINT('',#728);
#343=VERTEX_POINT('',#732);
#344=VERTEX_POINT('',#734);
#345=VERTEX_POINT('',#738);
#346=VERTEX_POINT('',#739);
#347=VERTEX_POINT('',#741);
#348=VERTEX_POINT('',#743);
#349=VERTEX_POINT('',#745);
#350=VERTEX_POINT('',#747);
#351=VERTEX_POINT('',#752);
#352=VERTEX_POINT('',#756);
#353=VERTEX_POINT('',#761);
#354=VERTEX_POINT('',#764);
#355=VERTEX_POINT('',#767);
#356=VERTEX_POINT('',#770);
#357=VERTEX_POINT('',#774);
#358=VERTEX_POINT('',#776);
#359=VERTEX_POINT('',#780);
#360=VERTEX_POINT('',#784);
#361=VERTEX_POINT('',#788);
#362=VERTEX_POINT('',#792);
#363=VERTEX_POINT('',#799);
#364=VERTEX_POINT('',#801);
#365=VERTEX_POINT('',#809);
#366=CIRCLE('',#502,25.4);
#367=CIRCLE('',#503,25.4);
#368=CIRCLE('',#505,27.9);
#369=CIRCLE('',#506,27.9);
#370=CIRCLE('',#508,27.9);
#371=CIRCLE('',#510,27.9);
#372=CIRCLE('',#515,1.5);
#373=CIRCLE('',#517,1.5);
#374=CIRCLE('',#519,2.75);
#375=CIRCLE('',#521,1.5);
#376=CIRCLE('',#523,1.5);
#377=CIRCLE('',#525,2.75);
#378=CIRCLE('',#538,2.);
#379=EDGE_LOOP('',(#136,#137,#138,#139));
#380=EDGE_LOOP('',(#140));
#381=EDGE_LOOP('',(#141,#142,#143,#144,#145,#146,#147,#148,#149,#150,#151,
#152));
#382=EDGE_LOOP('',(#153,#154,#155,#156));
#383=EDGE_LOOP('',(#157,#158,#159,#160));
#384=EDGE_LOOP('',(#161,#162,#163,#164));
#385=EDGE_LOOP('',(#165,#166,#167,#168));
#386=EDGE_LOOP('',(#169,#170,#171,#172,#173,#174));
#387=EDGE_LOOP('',(#175,#176,#177,#178));
#388=EDGE_LOOP('',(#179));
#389=EDGE_LOOP('',(#180,#181,#182,#183));
#390=EDGE_LOOP('',(#184));
#391=EDGE_LOOP('',(#185,#186,#187,#188));
#392=EDGE_LOOP('',(#189,#190,#191,#192));
#393=EDGE_LOOP('',(#193));
#394=EDGE_LOOP('',(#194));
#395=EDGE_LOOP('',(#195));
#396=EDGE_LOOP('',(#196));
#397=EDGE_LOOP('',(#197));
#398=EDGE_LOOP('',(#198));
#399=EDGE_LOOP('',(#199));
#400=EDGE_LOOP('',(#200));
#401=EDGE_LOOP('',(#201));
#402=EDGE_LOOP('',(#202,#203,#204,#205));
#403=EDGE_LOOP('',(#206,#207,#208,#209));
#404=EDGE_LOOP('',(#210,#211,#212,#213));
#405=EDGE_LOOP('',(#214,#215,#216,#217));
#406=EDGE_LOOP('',(#218,#219,#220,#221));
#407=EDGE_LOOP('',(#222,#223,#224,#225));
#408=EDGE_LOOP('',(#226));
#409=EDGE_LOOP('',(#227,#228,#229,#230,#231,#232));
#410=EDGE_LOOP('',(#233,#234,#235,#236,#237,#238,#239,#240,#241,#242,#243,
#244));
#411=EDGE_LOOP('',(#245,#246,#247,#248));
#412=EDGE_LOOP('',(#249,#250,#251,#252));
#413=EDGE_LOOP('',(#253));
#414=EDGE_LOOP('',(#254));
#415=EDGE_LOOP('',(#255));
#416=EDGE_LOOP('',(#256,#257,#258,#259));
#417=FACE_BOUND('',#379,.T.);
#418=FACE_BOUND('',#380,.T.);
#419=FACE_BOUND('',#381,.T.);
#420=FACE_BOUND('',#382,.T.);
#421=FACE_BOUND('',#383,.T.);
#422=FACE_BOUND('',#384,.T.);
#423=FACE_BOUND('',#385,.T.);
#424=FACE_BOUND('',#386,.T.);
#425=FACE_BOUND('',#387,.T.);
#426=FACE_BOUND('',#388,.T.);
#427=FACE_BOUND('',#389,.T.);
#428=FACE_BOUND('',#390,.T.);
#429=FACE_BOUND('',#391,.T.);
#430=FACE_BOUND('',#392,.T.);
#431=FACE_BOUND('',#393,.T.);
#432=FACE_BOUND('',#394,.T.);
#433=FACE_BOUND('',#395,.T.);
#434=FACE_BOUND('',#396,.T.);
#435=FACE_BOUND('',#397,.T.);
#436=FACE_BOUND('',#398,.T.);
#437=FACE_BOUND('',#399,.T.);
#438=FACE_BOUND('',#400,.T.);
#439=FACE_BOUND('',#401,.T.);
#440=FACE_BOUND('',#402,.T.);
#441=FACE_BOUND('',#403,.T.);
#442=FACE_BOUND('',#404,.T.);
#443=FACE_BOUND('',#405,.T.);
#444=FACE_BOUND('',#406,.T.);
#445=FACE_BOUND('',#407,.T.);
#446=FACE_BOUND('',#408,.T.);
#447=FACE_BOUND('',#409,.T.);
#448=FACE_BOUND('',#410,.T.);
#449=FACE_BOUND('',#411,.T.);
#450=FACE_BOUND('',#412,.T.);
#451=FACE_BOUND('',#413,.T.);
#452=FACE_BOUND('',#414,.T.);
#453=FACE_BOUND('',#415,.T.);
#454=FACE_BOUND('',#416,.T.);
#455=CYLINDRICAL_SURFACE('',#501,25.4);
#456=CYLINDRICAL_SURFACE('',#507,27.9);
#457=CYLINDRICAL_SURFACE('',#509,27.9);
#458=CYLINDRICAL_SURFACE('',#520,1.5);
#459=CYLINDRICAL_SURFACE('',#522,1.5);
#460=CYLINDRICAL_SURFACE('',#524,2.75);
#461=CYLINDRICAL_SURFACE('',#537,2.);
#462=ADVANCED_FACE('',(#417,#418),#455,.F.);
#463=ADVANCED_FACE('',(#419),#20,.T.);
#464=ADVANCED_FACE('',(#420),#456,.T.);
#465=ADVANCED_FACE('',(#421),#457,.T.);
#466=ADVANCED_FACE('',(#422),#21,.F.);
#467=ADVANCED_FACE('',(#423),#22,.F.);
#468=ADVANCED_FACE('',(#424,#425),#23,.F.);
#469=ADVANCED_FACE('',(#426,#427),#24,.T.);
#470=ADVANCED_FACE('',(#428,#429),#25,.T.);
#471=ADVANCED_FACE('',(#430,#431),#26,.T.);
#472=ADVANCED_FACE('',(#432,#433),#458,.F.);
#473=ADVANCED_FACE('',(#434,#435),#459,.F.);
#474=ADVANCED_FACE('',(#436,#437),#460,.F.);
#475=ADVANCED_FACE('',(#438,#439),#27,.F.);
#476=ADVANCED_FACE('',(#440),#28,.F.);
#477=ADVANCED_FACE('',(#441),#29,.F.);
#478=ADVANCED_FACE('',(#442),#30,.F.);
#479=ADVANCED_FACE('',(#443),#31,.F.);
#480=ADVANCED_FACE('',(#444),#32,.F.);
#481=ADVANCED_FACE('',(#445),#33,.F.);
#482=ADVANCED_FACE('',(#446,#447),#34,.F.);
#483=ADVANCED_FACE('',(#448),#35,.F.);
#484=ADVANCED_FACE('',(#449),#36,.F.);
#485=ADVANCED_FACE('',(#450),#37,.F.);
#486=ADVANCED_FACE('',(#451,#452),#461,.F.);
#487=ADVANCED_FACE('',(#453,#454),#38,.F.);
#488=CLOSED_SHELL('',(#462,#463,#464,#465,#466,#467,#468,#469,#470,#471,
#472,#473,#474,#475,#476,#477,#478,#479,#480,#481,#482,#483,#484,#485,#486,
#487));
#489=STYLED_ITEM('',(#490),#497);
#490=PRESENTATION_STYLE_ASSIGNMENT((#491));
#491=SURFACE_STYLE_USAGE(.BOTH.,#492);
#492=SURFACE_SIDE_STYLE('',(#493));
#493=SURFACE_STYLE_FILL_AREA(#494);
#494=FILL_AREA_STYLE('',(#495));
#495=FILL_AREA_STYLE_COLOUR('',#496);
#496=COLOUR_RGB('',0.506983280181885,0.531564235687256,0.550000011920929);
#497=MANIFOLD_SOLID_BREP('',#488);
#498=SHAPE_DEFINITION_REPRESENTATION(#817,#499);
#499=SHAPE_REPRESENTATION('06_FDML_stimfix_2in_lens_clamp_holder',(#500),
#812);
#500=AXIS2_PLACEMENT_3D('',#668,#540,#541);
#501=AXIS2_PLACEMENT_3D('',#669,#542,#543);
#502=AXIS2_PLACEMENT_3D('',#670,#544,#545);
#503=AXIS2_PLACEMENT_3D('',#675,#547,#548);
#504=AXIS2_PLACEMENT_3D('',#690,#550,#551);
#505=AXIS2_PLACEMENT_3D('',#698,#555,#556);
#506=AXIS2_PLACEMENT_3D('',#711,#563,#564);
#507=AXIS2_PLACEMENT_3D('',#712,#565,#566);
#508=AXIS2_PLACEMENT_3D('',#713,#567,#568);
#509=AXIS2_PLACEMENT_3D('',#718,#571,#572);
#510=AXIS2_PLACEMENT_3D('',#721,#574,#575);
#511=AXIS2_PLACEMENT_3D('',#724,#577,#578);
#512=AXIS2_PLACEMENT_3D('',#730,#582,#583);
#513=AXIS2_PLACEMENT_3D('',#736,#587,#588);
#514=AXIS2_PLACEMENT_3D('',#750,#596,#597);
#515=AXIS2_PLACEMENT_3D('',#751,#598,#599);
#516=AXIS2_PLACEMENT_3D('',#754,#601,#602);
#517=AXIS2_PLACEMENT_3D('',#755,#603,#604);
#518=AXIS2_PLACEMENT_3D('',#758,#606,#607);
#519=AXIS2_PLACEMENT_3D('',#760,#609,#610);
#520=AXIS2_PLACEMENT_3D('',#762,#611,#612);
#521=AXIS2_PLACEMENT_3D('',#763,#613,#614);
#522=AXIS2_PLACEMENT_3D('',#765,#615,#616);
#523=AXIS2_PLACEMENT_3D('',#766,#617,#618);
#524=AXIS2_PLACEMENT_3D('',#768,#619,#620);
#525=AXIS2_PLACEMENT_3D('',#769,#621,#622);
#526=AXIS2_PLACEMENT_3D('',#771,#623,#624);
#527=AXIS2_PLACEMENT_3D('',#772,#625,#626);
#528=AXIS2_PLACEMENT_3D('',#778,#630,#631);
#529=AXIS2_PLACEMENT_3D('',#782,#634,#635);
#530=AXIS2_PLACEMENT_3D('',#786,#638,#639);
#531=AXIS2_PLACEMENT_3D('',#790,#642,#643);
#532=AXIS2_PLACEMENT_3D('',#794,#646,#647);
#533=AXIS2_PLACEMENT_3D('',#796,#649,#650);
#534=AXIS2_PLACEMENT_3D('',#797,#651,#652);
#535=AXIS2_PLACEMENT_3D('',#803,#656,#657);
#536=AXIS2_PLACEMENT_3D('',#805,#659,#660);
#537=AXIS2_PLACEMENT_3D('',#807,#662,#663);
#538=AXIS2_PLACEMENT_3D('',#808,#664,#665);
#539=AXIS2_PLACEMENT_3D('',#810,#666,#667);
#540=DIRECTION('',(0.,0.,1.));
#541=DIRECTION('',(1.,0.,0.));
#542=DIRECTION('',(0.,0.,-1.));
#543=DIRECTION('',(-1.,0.,0.));
#544=DIRECTION('',(0.,0.,1.));
#545=DIRECTION('',(0.,1.,0.));
#546=DIRECTION('',(0.,0.,-1.));
#547=DIRECTION('',(0.,0.,1.));
#548=DIRECTION('',(0.,1.,0.));
#549=DIRECTION('',(0.,0.,-1.));
#550=DIRECTION('',(0.,0.,-1.));
#551=DIRECTION('',(-1.,0.,0.));
#552=DIRECTION('',(0.,-1.,-1.22409922699976E-16));
#553=DIRECTION('',(-1.,8.49389466400621E-33,1.38777878078145E-16));
#554=DIRECTION('',(0.,-1.,-1.22409922699976E-16));
#555=DIRECTION('',(0.,0.,-1.));
#556=DIRECTION('',(0.,1.,0.));
#557=DIRECTION('',(6.84903156768021E-16,1.,0.));
#558=DIRECTION('',(1.,0.,0.));
#559=DIRECTION('',(1.24167840449883E-16,-1.,0.));
#560=DIRECTION('',(-1.24167840449883E-16,1.,0.));
#561=DIRECTION('',(1.,0.,0.));
#562=DIRECTION('',(-6.84903156768021E-16,-1.,0.));
#563=DIRECTION('',(0.,0.,-1.));
#564=DIRECTION('',(0.,1.,0.));
#565=DIRECTION('',(0.,0.,-1.));
#566=DIRECTION('',(-1.,0.,0.));
#567=DIRECTION('',(0.,0.,-1.));
#568=DIRECTION('',(0.,1.,0.));
#569=DIRECTION('',(0.,0.,-1.));
#570=DIRECTION('',(0.,0.,-1.));
#571=DIRECTION('',(0.,0.,-1.));
#572=DIRECTION('',(-1.,0.,0.));
#573=DIRECTION('',(0.,0.,-1.));
#574=DIRECTION('',(0.,0.,-1.));
#575=DIRECTION('',(0.,1.,0.));
#576=DIRECTION('',(0.,0.,-1.));
#577=DIRECTION('',(0.,-1.,0.));
#578=DIRECTION('',(0.,0.,-1.));
#579=DIRECTION('',(0.,0.,-1.));
#580=DIRECTION('',(1.,0.,0.));
#581=DIRECTION('',(0.,0.,-1.));
#582=DIRECTION('',(0.,-1.,0.));
#583=DIRECTION('',(0.,0.,-1.));
#584=DIRECTION('',(0.,0.,-1.));
#585=DIRECTION('',(1.,0.,0.));
#586=DIRECTION('',(0.,0.,-1.));
#587=DIRECTION('',(1.,-6.84903156768021E-16,0.));
#588=DIRECTION('',(6.84903156768021E-16,1.,0.));
#589=DIRECTION('',(2.2449600193746E-30,3.27777729915614E-15,1.));
#590=DIRECTION('',(-5.9314349408547E-16,-0.866025347122717,0.500000098140967));
#591=DIRECTION('',(-5.93143532893264E-16,-0.866025403784441,-0.499999999999995));
#592=DIRECTION('',(-7.76155714730428E-23,-1.13323424933974E-7,-0.999999999999994));
#593=DIRECTION('',(5.93143532893259E-16,0.866025403784434,-0.500000000000007));
#594=DIRECTION('',(5.93143571701045E-16,0.866025460446147,0.49999990185903));
#595=DIRECTION('',(6.84903156768021E-16,1.,0.));
#596=DIRECTION('',(1.,1.23908819712629E-16,0.));
#597=DIRECTION('',(-1.23908819712629E-16,1.,0.));
#598=DIRECTION('',(1.,1.23908819712629E-16,0.));
#599=DIRECTION('',(-1.23908819712629E-16,1.,0.));
#600=DIRECTION('',(-1.12879854954439E-17,-1.,0.));
#601=DIRECTION('',(-1.,-1.23908819712629E-16,0.));
#602=DIRECTION('',(1.23908819712629E-16,-1.,0.));
#603=DIRECTION('',(-1.,-1.23908819712629E-16,0.));
#604=DIRECTION('',(1.23908819712629E-16,-1.,0.));
#605=DIRECTION('',(-1.24167840449883E-16,1.,0.));
#606=DIRECTION('',(1.,-6.84903156768021E-16,0.));
#607=DIRECTION('',(6.84903156768021E-16,1.,0.));
#608=DIRECTION('',(-6.84903156768021E-16,-1.,0.));
#609=DIRECTION('',(-1.,6.84903156768021E-16,0.));
#610=DIRECTION('',(0.,0.,-1.));
#611=DIRECTION('',(1.,-6.84903156768021E-16,0.));
#612=DIRECTION('',(6.84903156768021E-16,1.,0.));
#613=DIRECTION('',(-1.,6.84903156768021E-16,0.));
#614=DIRECTION('',(-6.84903156768021E-16,-1.,0.));
#615=DIRECTION('',(1.,-6.84903156768021E-16,0.));
#616=DIRECTION('',(6.84903156768021E-16,1.,0.));
#617=DIRECTION('',(1.,-6.84903156768021E-16,1.1386225654593E-31));
#618=DIRECTION('',(6.84903156768021E-16,1.,0.));
#619=DIRECTION('',(1.,-6.84903156768021E-16,0.));
#620=DIRECTION('',(6.84903156768021E-16,1.,0.));
#621=DIRECTION('',(-1.,6.84903156768021E-16,0.));
#622=DIRECTION('',(0.,0.,-1.));
#623=DIRECTION('',(-1.,6.84903156768021E-16,0.));
#624=DIRECTION('',(-6.84903156768021E-16,-1.,0.));
#625=DIRECTION('',(-3.42451645601069E-16,-0.500000098140967,-0.866025347122717));
#626=DIRECTION('',(0.,0.866025347122717,-0.500000098140967));
#627=DIRECTION('',(-1.,6.84903156768021E-16,0.));
#628=DIRECTION('',(-5.9314349408547E-16,-0.866025347122717,0.500000098140967));
#629=DIRECTION('',(-1.,6.84903156768021E-16,0.));
#630=DIRECTION('',(-6.84903156768021E-16,-1.,3.27777729915614E-15));
#631=DIRECTION('',(0.,-3.27777729915614E-15,-1.));
#632=DIRECTION('',(-1.,6.84903156768021E-16,0.));
#633=DIRECTION('',(2.2449600193746E-30,3.27777729915614E-15,1.));
#634=DIRECTION('',(-3.4245151116695E-16,-0.49999990185903,0.866025460446147));
#635=DIRECTION('',(0.,-0.866025460446147,-0.49999990185903));
#636=DIRECTION('',(-1.,6.84903156768021E-16,0.));
#637=DIRECTION('',(5.93143571701045E-16,0.866025460446147,0.49999990185903));
#638=DIRECTION('',(3.42451578384015E-16,0.500000000000007,0.866025403784434));
#639=DIRECTION('',(0.,-0.866025403784434,0.500000000000007));
#640=DIRECTION('',(-1.,6.84903156768021E-16,0.));
#641=DIRECTION('',(5.93143532893259E-16,0.866025403784434,-0.500000000000007));
#642=DIRECTION('',(6.84903156768016E-16,0.999999999999994,-1.13323424933974E-7));
#643=DIRECTION('',(0.,1.13323424933974E-7,0.999999999999994));
#644=DIRECTION('',(-1.,6.84903156768021E-16,0.));
#645=DIRECTION('',(-7.76155714730428E-23,-1.13323424933974E-7,-0.999999999999994));
#646=DIRECTION('',(3.42451578384007E-16,0.499999999999995,-0.866025403784441));
#647=DIRECTION('',(0.,0.866025403784442,0.499999999999995));
#648=DIRECTION('',(-5.93143532893264E-16,-0.866025403784441,-0.499999999999995));
#649=DIRECTION('',(1.,-6.84903156768021E-16,1.1386225654593E-31));
#650=DIRECTION('',(6.84903156768021E-16,1.,0.));
#651=DIRECTION('',(0.,0.,-1.));
#652=DIRECTION('',(-1.,0.,0.));
#653=DIRECTION('',(0.,-1.,-1.22409922699976E-16));
#654=DIRECTION('',(1.,8.49389466400621E-33,-2.77555756156289E-16));
#655=DIRECTION('',(0.,-1.,-1.22409922699976E-16));
#656=DIRECTION('',(-1.,-2.23523543789637E-32,1.82602471155453E-16));
#657=DIRECTION('',(1.82602471155453E-16,0.,1.));
#658=DIRECTION('',(-2.08166817117217E-16,1.22409922699976E-16,-1.));
#659=DIRECTION('',(1.,2.23523543789637E-32,-1.82602471155453E-16));
#660=DIRECTION('',(-1.82602471155453E-16,0.,-1.));
#661=DIRECTION('',(2.08166817117217E-16,-1.22409922699976E-16,1.));
#662=DIRECTION('',(2.54816839920186E-32,1.,1.22409922699976E-16));
#663=DIRECTION('',(0.,-1.22409922699976E-16,1.));
#664=DIRECTION('',(2.54816839920186E-32,1.,1.22409922699976E-16));
#665=DIRECTION('',(-1.,0.,2.08166817117217E-16));
#666=DIRECTION('',(2.54816839920186E-32,1.,1.22409922699976E-16));
#667=DIRECTION('',(0.,-1.22409922699976E-16,1.));
#668=CARTESIAN_POINT('',(0.,0.,0.));
#669=CARTESIAN_POINT('',(0.,0.,10.));
#670=CARTESIAN_POINT('',(0.,0.,2.75));
#671=CARTESIAN_POINT('',(-0.499999999999999,25.3950782633171,2.75));
#672=CARTESIAN_POINT('',(0.500000000000001,25.3950782633171,2.75));
#673=CARTESIAN_POINT('',(-0.499999999999999,25.3950782633171,10.));
#674=CARTESIAN_POINT('',(-0.499999999999999,25.3950782633171,12.25));
#675=CARTESIAN_POINT('',(0.,0.,12.25));
#676=CARTESIAN_POINT('',(0.50000000000002,25.3950782633171,12.25));
#677=CARTESIAN_POINT('',(0.500000000000001,25.3950782633171,10.));
#678=CARTESIAN_POINT('',(1.06968778355671,-25.3864830674316,5.93433359189224));
#679=CARTESIAN_POINT('',(-0.500805460595787,-25.4147861029766,5.28316770970226));
#680=CARTESIAN_POINT('',(-2.06646594117355,-25.3248421005643,5.93299556929869));
#681=CARTESIAN_POINT('',(-2.71615628432425,-25.2526337029655,7.49711348482655));
#682=CARTESIAN_POINT('',(-2.06890197707293,-25.3246382805497,9.0656405375708));
#683=CARTESIAN_POINT('',(-0.503053731628167,-25.4146947433264,9.71605845899323));
#684=CARTESIAN_POINT('',(1.06429637646634,-25.3867202203464,9.07011383769493));
#685=CARTESIAN_POINT('',(1.71650058019799,-25.340204344015,7.5033913376975));
#686=CARTESIAN_POINT('',(1.06968778355671,-25.3864830674316,5.93433359189224));
#687=CARTESIAN_POINT('',(-0.500805460595787,-25.4147861029766,5.28316770970226));
#688=CARTESIAN_POINT('',(-2.06646594117355,-25.3248421005643,5.93299556929869));
#689=CARTESIAN_POINT('',(-0.499999999999999,-25.3950782633171,5.49999999999999));
#690=CARTESIAN_POINT('',(0.,0.,2.75));
#691=CARTESIAN_POINT('',(12.,-25.9122665778633,2.74999999999999));
#692=CARTESIAN_POINT('',(12.,-25.1874968982628,2.75));
#693=CARTESIAN_POINT('',(12.,-49.51,2.74999999999999));
#694=CARTESIAN_POINT('',(12.,-49.51,2.74999999999999));
#695=CARTESIAN_POINT('',(-13.,-49.51,2.74999999999999));
#696=CARTESIAN_POINT('',(-13.,-25.9122665778633,2.74999999999999));
#697=CARTESIAN_POINT('',(-13.,-24.6862309800423,2.74999999999999));
#698=CARTESIAN_POINT('',(0.,0.,2.75));
#699=CARTESIAN_POINT('',(-5.24999999999998,27.4015966688075,2.75));
#700=CARTESIAN_POINT('',(-5.25,35.,2.75));
#701=CARTESIAN_POINT('',(-5.25,35.,2.75));
#702=CARTESIAN_POINT('',(-0.5,35.,2.75));
#703=CARTESIAN_POINT('',(-0.5,35.,2.75));
#704=CARTESIAN_POINT('',(-0.5,35.,2.75));
#705=CARTESIAN_POINT('',(0.500000000000001,25.3950782633171,2.75));
#706=CARTESIAN_POINT('',(0.5,35.,2.75));
#707=CARTESIAN_POINT('',(5.25,35.,2.75));
#708=CARTESIAN_POINT('',(5.25,35.,2.75));
#709=CARTESIAN_POINT('',(5.25,35.,2.75));
#710=CARTESIAN_POINT('',(5.25,27.4015966688075,2.75));
#711=CARTESIAN_POINT('',(0.,0.,2.75));
#712=CARTESIAN_POINT('',(0.,0.,10.));
#713=CARTESIAN_POINT('',(0.,0.,12.25));
#714=CARTESIAN_POINT('',(5.25,27.4015966688075,12.25));
#715=CARTESIAN_POINT('',(12.,-25.1874968982628,12.25));
#716=CARTESIAN_POINT('',(12.,-25.1874968982628,10.));
#717=CARTESIAN_POINT('',(5.25,27.4015966688075,31.5177345904696));
#718=CARTESIAN_POINT('',(0.,0.,10.));
#719=CARTESIAN_POINT('',(-13.,-24.6862309800423,10.));
#720=CARTESIAN_POINT('',(-13.,-24.6862309800423,12.25));
#721=CARTESIAN_POINT('',(0.,0.,12.25));
#722=CARTESIAN_POINT('',(-5.25000000000001,27.4015966688075,12.25));
#723=CARTESIAN_POINT('',(-5.25,27.4015966688075,43.5630533276697));
#724=CARTESIAN_POINT('',(0.,35.,10.));
#725=CARTESIAN_POINT('',(0.5,35.,78.6419588487121));
#726=CARTESIAN_POINT('',(0.5,35.,12.25));
#727=CARTESIAN_POINT('',(0.5,35.,12.25));
#728=CARTESIAN_POINT('',(5.25,35.,12.25));
#729=CARTESIAN_POINT('',(5.25,35.,31.5177345904696));
#730=CARTESIAN_POINT('',(0.,35.,10.));
#731=CARTESIAN_POINT('',(-5.25,35.,43.5630533276697));
#732=CARTESIAN_POINT('',(-5.25,35.,12.25));
#733=CARTESIAN_POINT('',(-5.25,35.,12.25));
#734=CARTESIAN_POINT('',(-0.499999999999999,35.,12.25));
#735=CARTESIAN_POINT('',(-0.5,35.,78.6419588487121));
#736=CARTESIAN_POINT('',(-5.25,35.,43.5630533276697));
#737=CARTESIAN_POINT('',(-5.25,28.4507983344037,5.91228675625089));
#738=CARTESIAN_POINT('',(-5.25,28.4507983344037,5.91228675625089));
#739=CARTESIAN_POINT('',(-5.25,28.4507983344037,9.08771324374913));
#740=CARTESIAN_POINT('',(-5.25,31.2007981605021,4.32457320086235));
#741=CARTESIAN_POINT('',(-5.25,31.2007981605021,4.32457320086235));
#742=CARTESIAN_POINT('',(-5.25,33.9507981665255,5.91228644461145));
#743=CARTESIAN_POINT('',(-5.25,33.9507981665255,5.91228644461145));
#744=CARTESIAN_POINT('',(-5.25,33.9507985263757,9.08771293210967));
#745=CARTESIAN_POINT('',(-5.25,33.9507985263757,9.08771293210967));
#746=CARTESIAN_POINT('',(-5.25,31.2007985203523,10.6754261758588));
#747=CARTESIAN_POINT('',(-5.25,31.2007985203523,10.6754261758588));
#748=CARTESIAN_POINT('',(-5.25,28.4507983344037,9.08771324374913));
#749=CARTESIAN_POINT('',(-5.25,35.,12.25));
#750=CARTESIAN_POINT('',(-0.5,35.,78.6419588487121));
#751=CARTESIAN_POINT('',(-0.5,31.2007983344037,7.5));
#752=CARTESIAN_POINT('',(-0.500000000000001,32.7007983344037,7.5));
#753=CARTESIAN_POINT('',(-0.499999999999999,35.,12.25));
#754=CARTESIAN_POINT('',(0.5,35.,78.6419588487121));
#755=CARTESIAN_POINT('',(0.5,31.2007983344037,7.5));
#756=CARTESIAN_POINT('',(0.500000000000001,29.7007983344037,7.5));
#757=CARTESIAN_POINT('',(0.500000000000001,25.3950782633171,12.25));
#758=CARTESIAN_POINT('',(5.25,35.,31.5177345904696));
#759=CARTESIAN_POINT('',(5.25,35.,12.25));
#760=CARTESIAN_POINT('',(5.25,31.2007983344037,7.5));
#761=CARTESIAN_POINT('',(5.25,31.2007983344037,4.75));
#762=CARTESIAN_POINT('',(-28.8479004097309,31.2007983344038,7.5));
#763=CARTESIAN_POINT('',(3.25,31.2007983344037,7.5));
#764=CARTESIAN_POINT('',(3.25,29.7007983344037,7.5));
#765=CARTESIAN_POINT('',(-28.8479004097309,31.2007983344038,7.5));
#766=CARTESIAN_POINT('',(-3.25,31.2007983344037,7.5));
#767=CARTESIAN_POINT('',(-3.25,32.7007983344037,7.5));
#768=CARTESIAN_POINT('',(3.25,31.2007983344037,7.5));
#769=CARTESIAN_POINT('',(3.25,31.2007983344037,7.5));
#770=CARTESIAN_POINT('',(3.25,31.2007983344037,4.75));
#771=CARTESIAN_POINT('',(3.25,31.2007983344037,7.5));
#772=CARTESIAN_POINT('',(-3.25,31.2007981605021,4.32457320086235));
#773=CARTESIAN_POINT('',(-3.25,28.4507983344037,5.91228675625089));
#774=CARTESIAN_POINT('',(-3.25,28.4507983344037,5.91228675625089));
#775=CARTESIAN_POINT('',(-3.25,31.2007981605021,4.32457320086235));
#776=CARTESIAN_POINT('',(-3.25,31.2007981605021,4.32457320086235));
#777=CARTESIAN_POINT('',(-3.25,31.2007981605021,4.32457320086235));
#778=CARTESIAN_POINT('',(-3.25,28.4507983344037,5.91228675625089));
#779=CARTESIAN_POINT('',(-3.25,28.4507983344037,9.08771324374913));
#780=CARTESIAN_POINT('',(-3.25,28.4507983344037,9.08771324374913));
#781=CARTESIAN_POINT('',(-3.25,28.4507983344037,5.91228675625089));
#782=CARTESIAN_POINT('',(-3.25,28.4507983344037,9.08771324374913));
#783=CARTESIAN_POINT('',(-3.25,31.2007985203523,10.6754261758588));
#784=CARTESIAN_POINT('',(-3.25,31.2007985203523,10.6754261758588));
#785=CARTESIAN_POINT('',(-3.25,28.4507983344037,9.08771324374913));
#786=CARTESIAN_POINT('',(-3.25,31.2007985203523,10.6754261758588));
#787=CARTESIAN_POINT('',(-3.25,33.9507985263757,9.08771293210967));
#788=CARTESIAN_POINT('',(-3.25,33.9507985263757,9.08771293210967));
#789=CARTESIAN_POINT('',(-3.25,31.2007985203523,10.6754261758588));
#790=CARTESIAN_POINT('',(-3.25,33.9507985263757,9.08771293210967));
#791=CARTESIAN_POINT('',(-3.25,33.9507981665255,5.91228644461145));
#792=CARTESIAN_POINT('',(-3.25,33.9507981665255,5.91228644461145));
#793=CARTESIAN_POINT('',(-3.25,33.9507985263757,9.08771293210967));
#794=CARTESIAN_POINT('',(-3.25,33.9507981665255,5.91228644461145));
#795=CARTESIAN_POINT('',(-3.25,33.9507981665255,5.91228644461145));
#796=CARTESIAN_POINT('',(-3.25000000000002,2.22593525949608E-15,-5.97776846866137E-31));
#797=CARTESIAN_POINT('',(0.,0.,12.25));
#798=CARTESIAN_POINT('',(-13.,-25.9122665778633,12.25));
#799=CARTESIAN_POINT('',(-13.,-49.51,12.25));
#800=CARTESIAN_POINT('',(-13.,-49.51,12.25));
#801=CARTESIAN_POINT('',(12.,-49.51,12.25));
#802=CARTESIAN_POINT('',(12.,-25.9122665778633,12.25));
#803=CARTESIAN_POINT('',(12.,-25.9122665778633,12.25));
#804=CARTESIAN_POINT('',(12.,-49.51,12.25));
#805=CARTESIAN_POINT('',(-13.,-25.9122665778633,2.74999999999999));
#806=CARTESIAN_POINT('',(-13.,-49.51,2.74999999999999));
#807=CARTESIAN_POINT('',(-0.499999999999999,-49.51,7.49999999999999));
#808=CARTESIAN_POINT('',(-0.499999999999999,-49.51,7.49999999999999));
#809=CARTESIAN_POINT('',(-2.5,-49.51,7.49999999999999));
#810=CARTESIAN_POINT('',(-1.26159817444484E-30,-49.51,-6.06051527287583E-15));
#811=MECHANICAL_DESIGN_GEOMETRIC_PRESENTATION_REPRESENTATION('',(#489),
#812);
#812=(
GEOMETRIC_REPRESENTATION_CONTEXT(3)
GLOBAL_UNCERTAINTY_ASSIGNED_CONTEXT((#813))
GLOBAL_UNIT_ASSIGNED_CONTEXT((#816,#815,#814))
REPRESENTATION_CONTEXT('06_FDML_stimfix_2in_lens_clamp_holder',
'TOP_LEVEL_ASSEMBLY_PART')
);
#813=UNCERTAINTY_MEASURE_WITH_UNIT(LENGTH_MEASURE(0.005),#816,
'DISTANCE_ACCURACY_VALUE','Maximum Tolerance applied to model');
#814=(
NAMED_UNIT(*)
SI_UNIT($,.STERADIAN.)
SOLID_ANGLE_UNIT()
);
#815=(
NAMED_UNIT(*)
PLANE_ANGLE_UNIT()
SI_UNIT($,.RADIAN.)
);
#816=(
LENGTH_UNIT()
NAMED_UNIT(*)
SI_UNIT(.MILLI.,.METRE.)
);
#817=PRODUCT_DEFINITION_SHAPE('','',#818);
#818=PRODUCT_DEFINITION('','',#820,#819);
#819=PRODUCT_DEFINITION_CONTEXT('',#826,'design');
#820=PRODUCT_DEFINITION_FORMATION_WITH_SPECIFIED_SOURCE('','',#822,
 .NOT_KNOWN.);
#821=PRODUCT_RELATED_PRODUCT_CATEGORY('','',(#822));
#822=PRODUCT('06_FDML_stimfix_2in_lens_clamp_holder',
'06_FDML_stimfix_2in_lens_clamp_holder',
'06_FDML_stimfix_2in_lens_clamp_holder',(#824));
#823=PRODUCT_CATEGORY('','');
#824=PRODUCT_CONTEXT('',#826,'mechanical');
#825=APPLICATION_PROTOCOL_DEFINITION('international standard',
'automotive_design',2010,#826);
#826=APPLICATION_CONTEXT(
'core data for automotive mechanical design processes');
ENDSEC;
END-ISO-10303-21;
