ISO-10303-21;
HEADER;
/* Generated by software containing ST-Developer
 * from STEP Tools, Inc. (www.steptools.com) 
 */
/* OPTION: strings as raw bytes, not using required /X/ escapes */

FILE_DESCRIPTION(
/* description */ ('Unknown'),
/* implementation_level */ '2;1');

FILE_NAME(
/* name */ '07_FDML_stimfix_square_mirror_holder_small',
/* time_stamp */ '2026-09-07T14:25:02+02:00',
/* author */ ('Unknown'),
/* organization */ ('Unknown'),
/* preprocessor_version */ 'ST-DEVELOPER v16.7',
/* originating_system */ 'Solid Edge',
/* authorisation */ 'Unknown');

FILE_SCHEMA (('AUTOMOTIVE_DESIGN {1 0 10303 214 3 1 1}'));
ENDSEC;

DATA;
#10=PROPERTY_DEFINITION_REPRESENTATION(#14,#12);
#11=PROPERTY_DEFINITION_REPRESENTATION(#15,#13);
#12=REPRESENTATION('',(#16),#869);
#13=REPRESENTATION('',(#17),#869);
#14=PROPERTY_DEFINITION('pmi validation property','',#874);
#15=PROPERTY_DEFINITION('pmi validation property','',#874);
#16=VALUE_REPRESENTATION_ITEM('number of annotations',COUNT_MEASURE(0.));
#17=VALUE_REPRESENTATION_ITEM('number of views',COUNT_MEASURE(0.));
#18=SHAPE_REPRESENTATION_RELATIONSHIP('','',#507,#19);
#19=ADVANCED_BREP_SHAPE_REPRESENTATION('',(#505),#869);
#20=SPHERICAL_SURFACE('',#530,0.999999999999997);
#21=SPHERICAL_SURFACE('',#533,0.999999999999997);
#22=SPHERICAL_SURFACE('',#550,0.999999999999997);
#23=SPHERICAL_SURFACE('',#552,0.999999999999997);
#24=SPHERICAL_SURFACE('',#554,0.999999999999997);
#25=SPHERICAL_SURFACE('',#556,0.999999999999997);
#26=SPHERICAL_SURFACE('',#566,0.999999999999997);
#27=SPHERICAL_SURFACE('',#568,0.999999999999997);
#28=CYLINDRICAL_SURFACE('',#522,1.5);
#29=CYLINDRICAL_SURFACE('',#524,2.25);
#30=CYLINDRICAL_SURFACE('',#527,0.999999999999997);
#31=CYLINDRICAL_SURFACE('',#536,0.999999999999997);
#32=CYLINDRICAL_SURFACE('',#538,0.999999999999997);
#33=CYLINDRICAL_SURFACE('',#540,0.999999999999997);
#34=CYLINDRICAL_SURFACE('',#543,0.999999999999997);
#35=CYLINDRICAL_SURFACE('',#545,0.999999999999997);
#36=CYLINDRICAL_SURFACE('',#547,0.999999999999997);
#37=CYLINDRICAL_SURFACE('',#558,0.999999999999997);
#38=CYLINDRICAL_SURFACE('',#560,0.999999999999997);
#39=CYLINDRICAL_SURFACE('',#562,0.999999999999997);
#40=CYLINDRICAL_SURFACE('',#564,0.999999999999997);
#41=CYLINDRICAL_SURFACE('',#570,0.999999999999997);
#42=CIRCLE('',#514,1.5);
#43=CIRCLE('',#521,2.25);
#44=CIRCLE('',#523,1.5);
#45=CIRCLE('',#525,2.25);
#46=CIRCLE('',#528,0.999999999999997);
#47=CIRCLE('',#529,0.999999999999997);
#48=CIRCLE('',#531,0.999999999999997);
#49=CIRCLE('',#532,0.999999999999997);
#50=CIRCLE('',#534,0.999999999999997);
#51=CIRCLE('',#535,0.999999999999997);
#52=CIRCLE('',#537,0.999999999999997);
#53=CIRCLE('',#539,0.999999999999997);
#54=CIRCLE('',#541,0.999999999999997);
#55=CIRCLE('',#542,0.999999999999997);
#56=CIRCLE('',#544,0.999999999999997);
#57=CIRCLE('',#546,0.999999999999997);
#58=CIRCLE('',#548,0.999999999999997);
#59=CIRCLE('',#549,0.999999999999997);
#60=CIRCLE('',#551,0.999999999999997);
#61=CIRCLE('',#553,0.999999999999997);
#62=CIRCLE('',#555,0.999999999999997);
#63=CIRCLE('',#557,0.999999999999997);
#64=CIRCLE('',#559,0.999999999999997);
#65=CIRCLE('',#561,0.999999999999997);
#66=CIRCLE('',#563,0.999999999999997);
#67=CIRCLE('',#565,0.999999999999997);
#68=CIRCLE('',#567,0.999999999999997);
#69=CIRCLE('',#569,0.999999999999997);
#70=ORIENTED_EDGE('',*,*,#198,.T.);
#71=ORIENTED_EDGE('',*,*,#199,.T.);
#72=ORIENTED_EDGE('',*,*,#200,.T.);
#73=ORIENTED_EDGE('',*,*,#201,.T.);
#74=ORIENTED_EDGE('',*,*,#202,.T.);
#75=ORIENTED_EDGE('',*,*,#203,.T.);
#76=ORIENTED_EDGE('',*,*,#204,.T.);
#77=ORIENTED_EDGE('',*,*,#205,.T.);
#78=ORIENTED_EDGE('',*,*,#206,.T.);
#79=ORIENTED_EDGE('',*,*,#207,.T.);
#80=ORIENTED_EDGE('',*,*,#208,.T.);
#81=ORIENTED_EDGE('',*,*,#209,.T.);
#82=ORIENTED_EDGE('',*,*,#210,.T.);
#83=ORIENTED_EDGE('',*,*,#211,.T.);
#84=ORIENTED_EDGE('',*,*,#212,.T.);
#85=ORIENTED_EDGE('',*,*,#213,.T.);
#86=ORIENTED_EDGE('',*,*,#214,.T.);
#87=ORIENTED_EDGE('',*,*,#215,.T.);
#88=ORIENTED_EDGE('',*,*,#216,.T.);
#89=ORIENTED_EDGE('',*,*,#217,.T.);
#90=ORIENTED_EDGE('',*,*,#218,.F.);
#91=ORIENTED_EDGE('',*,*,#219,.F.);
#92=ORIENTED_EDGE('',*,*,#220,.F.);
#93=ORIENTED_EDGE('',*,*,#221,.T.);
#94=ORIENTED_EDGE('',*,*,#222,.T.);
#95=ORIENTED_EDGE('',*,*,#223,.F.);
#96=ORIENTED_EDGE('',*,*,#224,.F.);
#97=ORIENTED_EDGE('',*,*,#225,.T.);
#98=ORIENTED_EDGE('',*,*,#220,.T.);
#99=ORIENTED_EDGE('',*,*,#226,.F.);
#100=ORIENTED_EDGE('',*,*,#227,.F.);
#101=ORIENTED_EDGE('',*,*,#228,.T.);
#102=ORIENTED_EDGE('',*,*,#224,.T.);
#103=ORIENTED_EDGE('',*,*,#229,.F.);
#104=ORIENTED_EDGE('',*,*,#222,.F.);
#105=ORIENTED_EDGE('',*,*,#230,.T.);
#106=ORIENTED_EDGE('',*,*,#227,.T.);
#107=ORIENTED_EDGE('',*,*,#231,.T.);
#108=ORIENTED_EDGE('',*,*,#232,.T.);
#109=ORIENTED_EDGE('',*,*,#233,.T.);
#110=ORIENTED_EDGE('',*,*,#234,.T.);
#111=ORIENTED_EDGE('',*,*,#221,.F.);
#112=ORIENTED_EDGE('',*,*,#225,.F.);
#113=ORIENTED_EDGE('',*,*,#228,.F.);
#114=ORIENTED_EDGE('',*,*,#230,.F.);
#115=ORIENTED_EDGE('',*,*,#235,.T.);
#116=ORIENTED_EDGE('',*,*,#223,.T.);
#117=ORIENTED_EDGE('',*,*,#219,.T.);
#118=ORIENTED_EDGE('',*,*,#229,.T.);
#119=ORIENTED_EDGE('',*,*,#226,.T.);
#120=ORIENTED_EDGE('',*,*,#236,.F.);
#121=ORIENTED_EDGE('',*,*,#218,.T.);
#122=ORIENTED_EDGE('',*,*,#237,.T.);
#123=ORIENTED_EDGE('',*,*,#235,.F.);
#124=ORIENTED_EDGE('',*,*,#236,.T.);
#125=ORIENTED_EDGE('',*,*,#237,.F.);
#126=ORIENTED_EDGE('',*,*,#238,.F.);
#127=ORIENTED_EDGE('',*,*,#234,.F.);
#128=ORIENTED_EDGE('',*,*,#239,.F.);
#129=ORIENTED_EDGE('',*,*,#201,.F.);
#130=ORIENTED_EDGE('',*,*,#240,.F.);
#131=ORIENTED_EDGE('',*,*,#238,.T.);
#132=ORIENTED_EDGE('',*,*,#241,.F.);
#133=ORIENTED_EDGE('',*,*,#242,.F.);
#134=ORIENTED_EDGE('',*,*,#239,.T.);
#135=ORIENTED_EDGE('',*,*,#243,.F.);
#136=ORIENTED_EDGE('',*,*,#241,.T.);
#137=ORIENTED_EDGE('',*,*,#200,.F.);
#138=ORIENTED_EDGE('',*,*,#244,.F.);
#139=ORIENTED_EDGE('',*,*,#205,.F.);
#140=ORIENTED_EDGE('',*,*,#240,.T.);
#141=ORIENTED_EDGE('',*,*,#204,.F.);
#142=ORIENTED_EDGE('',*,*,#245,.F.);
#143=ORIENTED_EDGE('',*,*,#231,.F.);
#144=ORIENTED_EDGE('',*,*,#246,.F.);
#145=ORIENTED_EDGE('',*,*,#232,.F.);
#146=ORIENTED_EDGE('',*,*,#247,.F.);
#147=ORIENTED_EDGE('',*,*,#209,.F.);
#148=ORIENTED_EDGE('',*,*,#243,.T.);
#149=ORIENTED_EDGE('',*,*,#233,.F.);
#150=ORIENTED_EDGE('',*,*,#248,.F.);
#151=ORIENTED_EDGE('',*,*,#210,.F.);
#152=ORIENTED_EDGE('',*,*,#242,.T.);
#153=ORIENTED_EDGE('',*,*,#213,.F.);
#154=ORIENTED_EDGE('',*,*,#249,.F.);
#155=ORIENTED_EDGE('',*,*,#198,.F.);
#156=ORIENTED_EDGE('',*,*,#250,.F.);
#157=ORIENTED_EDGE('',*,*,#199,.F.);
#158=ORIENTED_EDGE('',*,*,#251,.F.);
#159=ORIENTED_EDGE('',*,*,#217,.F.);
#160=ORIENTED_EDGE('',*,*,#244,.T.);
#161=ORIENTED_EDGE('',*,*,#250,.T.);
#162=ORIENTED_EDGE('',*,*,#252,.F.);
#163=ORIENTED_EDGE('',*,*,#247,.T.);
#164=ORIENTED_EDGE('',*,*,#245,.T.);
#165=ORIENTED_EDGE('',*,*,#253,.F.);
#166=ORIENTED_EDGE('',*,*,#248,.T.);
#167=ORIENTED_EDGE('',*,*,#246,.T.);
#168=ORIENTED_EDGE('',*,*,#254,.F.);
#169=ORIENTED_EDGE('',*,*,#251,.T.);
#170=ORIENTED_EDGE('',*,*,#249,.T.);
#171=ORIENTED_EDGE('',*,*,#255,.F.);
#172=ORIENTED_EDGE('',*,*,#252,.T.);
#173=ORIENTED_EDGE('',*,*,#216,.F.);
#174=ORIENTED_EDGE('',*,*,#256,.F.);
#175=ORIENTED_EDGE('',*,*,#202,.F.);
#176=ORIENTED_EDGE('',*,*,#253,.T.);
#177=ORIENTED_EDGE('',*,*,#203,.F.);
#178=ORIENTED_EDGE('',*,*,#257,.F.);
#179=ORIENTED_EDGE('',*,*,#206,.F.);
#180=ORIENTED_EDGE('',*,*,#254,.T.);
#181=ORIENTED_EDGE('',*,*,#208,.F.);
#182=ORIENTED_EDGE('',*,*,#258,.F.);
#183=ORIENTED_EDGE('',*,*,#211,.F.);
#184=ORIENTED_EDGE('',*,*,#255,.T.);
#185=ORIENTED_EDGE('',*,*,#212,.F.);
#186=ORIENTED_EDGE('',*,*,#259,.F.);
#187=ORIENTED_EDGE('',*,*,#214,.F.);
#188=ORIENTED_EDGE('',*,*,#257,.T.);
#189=ORIENTED_EDGE('',*,*,#256,.T.);
#190=ORIENTED_EDGE('',*,*,#260,.F.);
#191=ORIENTED_EDGE('',*,*,#259,.T.);
#192=ORIENTED_EDGE('',*,*,#258,.T.);
#193=ORIENTED_EDGE('',*,*,#261,.F.);
#194=ORIENTED_EDGE('',*,*,#260,.T.);
#195=ORIENTED_EDGE('',*,*,#215,.F.);
#196=ORIENTED_EDGE('',*,*,#261,.T.);
#197=ORIENTED_EDGE('',*,*,#207,.F.);
#198=EDGE_CURVE('',#262,#263,#298,.F.);
#199=EDGE_CURVE('',#263,#264,#299,.T.);
#200=EDGE_CURVE('',#264,#265,#300,.T.);
#201=EDGE_CURVE('',#265,#262,#301,.F.);
#202=EDGE_CURVE('',#266,#267,#302,.T.);
#203=EDGE_CURVE('',#267,#268,#303,.T.);
#204=EDGE_CURVE('',#268,#269,#304,.F.);
#205=EDGE_CURVE('',#269,#266,#305,.F.);
#206=EDGE_CURVE('',#270,#271,#306,.F.);
#207=EDGE_CURVE('',#271,#272,#307,.T.);
#208=EDGE_CURVE('',#272,#273,#308,.T.);
#209=EDGE_CURVE('',#273,#270,#309,.F.);
#210=EDGE_CURVE('',#274,#275,#310,.F.);
#211=EDGE_CURVE('',#275,#276,#311,.F.);
#212=EDGE_CURVE('',#276,#277,#312,.T.);
#213=EDGE_CURVE('',#277,#274,#313,.T.);
#214=EDGE_CURVE('',#278,#279,#314,.F.);
#215=EDGE_CURVE('',#279,#280,#315,.F.);
#216=EDGE_CURVE('',#280,#281,#316,.F.);
#217=EDGE_CURVE('',#281,#278,#317,.F.);
#218=EDGE_CURVE('',#282,#282,#42,.F.);
#219=EDGE_CURVE('',#283,#284,#318,.T.);
#220=EDGE_CURVE('',#285,#283,#319,.T.);
#221=EDGE_CURVE('',#285,#286,#320,.T.);
#222=EDGE_CURVE('',#286,#284,#321,.T.);
#223=EDGE_CURVE('',#287,#283,#322,.T.);
#224=EDGE_CURVE('',#288,#287,#323,.T.);
#225=EDGE_CURVE('',#288,#285,#324,.T.);
#226=EDGE_CURVE('',#289,#287,#325,.T.);
#227=EDGE_CURVE('',#290,#289,#326,.T.);
#228=EDGE_CURVE('',#290,#288,#327,.T.);
#229=EDGE_CURVE('',#284,#289,#328,.T.);
#230=EDGE_CURVE('',#286,#290,#329,.T.);
#231=EDGE_CURVE('',#291,#292,#330,.T.);
#232=EDGE_CURVE('',#292,#293,#331,.T.);
#233=EDGE_CURVE('',#293,#294,#332,.T.);
#234=EDGE_CURVE('',#294,#291,#333,.T.);
#235=EDGE_CURVE('',#295,#295,#43,.T.);
#236=EDGE_CURVE('',#296,#296,#44,.T.);
#237=EDGE_CURVE('',#297,#297,#45,.T.);
#238=EDGE_CURVE('',#291,#265,#46,.T.);
#239=EDGE_CURVE('',#262,#294,#47,.T.);
#240=EDGE_CURVE('',#291,#269,#48,.F.);
#241=EDGE_CURVE('',#269,#265,#49,.F.);
#242=EDGE_CURVE('',#262,#274,#50,.F.);
#243=EDGE_CURVE('',#274,#294,#51,.F.);
#244=EDGE_CURVE('',#266,#264,#52,.T.);
#245=EDGE_CURVE('',#292,#268,#53,.T.);
#246=EDGE_CURVE('',#293,#273,#54,.T.);
#247=EDGE_CURVE('',#270,#292,#55,.T.);
#248=EDGE_CURVE('',#275,#293,#56,.T.);
#249=EDGE_CURVE('',#263,#277,#57,.T.);
#250=EDGE_CURVE('',#264,#281,#58,.T.);
#251=EDGE_CURVE('',#278,#263,#59,.T.);
#252=EDGE_CURVE('',#266,#281,#60,.F.);
#253=EDGE_CURVE('',#270,#268,#61,.F.);
#254=EDGE_CURVE('',#275,#273,#62,.F.);
#255=EDGE_CURVE('',#278,#277,#63,.F.);
#256=EDGE_CURVE('',#267,#280,#64,.T.);
#257=EDGE_CURVE('',#271,#267,#65,.T.);
#258=EDGE_CURVE('',#276,#272,#66,.T.);
#259=EDGE_CURVE('',#279,#276,#67,.T.);
#260=EDGE_CURVE('',#271,#280,#68,.F.);
#261=EDGE_CURVE('',#279,#272,#69,.F.);
#262=VERTEX_POINT('',#736);
#263=VERTEX_POINT('',#737);
#264=VERTEX_POINT('',#739);
#265=VERTEX_POINT('',#741);
#266=VERTEX_POINT('',#745);
#267=VERTEX_POINT('',#746);
#268=VERTEX_POINT('',#748);
#269=VERTEX_POINT('',#750);
#270=VERTEX_POINT('',#754);
#271=VERTEX_POINT('',#755);
#272=VERTEX_POINT('',#757);
#273=VERTEX_POINT('',#759);
#274=VERTEX_POINT('',#763);
#275=VERTEX_POINT('',#764);
#276=VERTEX_POINT('',#766);
#277=VERTEX_POINT('',#768);
#278=VERTEX_POINT('',#772);
#279=VERTEX_POINT('',#773);
#280=VERTEX_POINT('',#775);
#281=VERTEX_POINT('',#777);
#282=VERTEX_POINT('',#780);
#283=VERTEX_POINT('',#783);
#284=VERTEX_POINT('',#784);
#285=VERTEX_POINT('',#786);
#286=VERTEX_POINT('',#788);
#287=VERTEX_POINT('',#792);
#288=VERTEX_POINT('',#794);
#289=VERTEX_POINT('',#798);
#290=VERTEX_POINT('',#800);
#291=VERTEX_POINT('',#807);
#292=VERTEX_POINT('',#808);
#293=VERTEX_POINT('',#810);
#294=VERTEX_POINT('',#812);
#295=VERTEX_POINT('',#816);
#296=VERTEX_POINT('',#819);
#297=VERTEX_POINT('',#822);
#298=LINE('',#735,#334);
#299=LINE('',#738,#335);
#300=LINE('',#740,#336);
#301=LINE('',#742,#337);
#302=LINE('',#744,#338);
#303=LINE('',#747,#339);
#304=LINE('',#749,#340);
#305=LINE('',#751,#341);
#306=LINE('',#753,#342);
#307=LINE('',#756,#343);
#308=LINE('',#758,#344);
#309=LINE('',#760,#345);
#310=LINE('',#762,#346);
#311=LINE('',#765,#347);
#312=LINE('',#767,#348);
#313=LINE('',#769,#349);
#314=LINE('',#771,#350);
#315=LINE('',#774,#351);
#316=LINE('',#776,#352);
#317=LINE('',#778,#353);
#318=LINE('',#782,#354);
#319=LINE('',#785,#355);
#320=LINE('',#787,#356);
#321=LINE('',#789,#357);
#322=LINE('',#791,#358);
#323=LINE('',#793,#359);
#324=LINE('',#795,#360);
#325=LINE('',#797,#361);
#326=LINE('',#799,#362);
#327=LINE('',#801,#363);
#328=LINE('',#803,#364);
#329=LINE('',#804,#365);
#330=LINE('',#806,#366);
#331=LINE('',#809,#367);
#332=LINE('',#811,#368);
#333=LINE('',#813,#369);
#334=VECTOR('',#575,1000.);
#335=VECTOR('',#576,1000.);
#336=VECTOR('',#577,1000.);
#337=VECTOR('',#578,1000.);
#338=VECTOR('',#581,1000.);
#339=VECTOR('',#582,1000.);
#340=VECTOR('',#583,1000.);
#341=VECTOR('',#584,1000.);
#342=VECTOR('',#587,1000.);
#343=VECTOR('',#588,1000.);
#344=VECTOR('',#589,1000.);
#345=VECTOR('',#590,1000.);
#346=VECTOR('',#593,1000.);
#347=VECTOR('',#594,1000.);
#348=VECTOR('',#595,1000.);
#349=VECTOR('',#596,1000.);
#350=VECTOR('',#599,1000.);
#351=VECTOR('',#600,1000.);
#352=VECTOR('',#601,1000.);
#353=VECTOR('',#602,1000.);
#354=VECTOR('',#607,1000.);
#355=VECTOR('',#608,1000.);
#356=VECTOR('',#609,1000.);
#357=VECTOR('',#610,1000.);
#358=VECTOR('',#613,1000.);
#359=VECTOR('',#614,1000.);
#360=VECTOR('',#615,1000.);
#361=VECTOR('',#618,1000.);
#362=VECTOR('',#619,1000.);
#363=VECTOR('',#620,1000.);
#364=VECTOR('',#623,1000.);
#365=VECTOR('',#624,1000.);
#366=VECTOR('',#627,1000.);
#367=VECTOR('',#628,1000.);
#368=VECTOR('',#629,1000.);
#369=VECTOR('',#630,1000.);
#370=EDGE_LOOP('',(#70,#71,#72,#73));
#371=EDGE_LOOP('',(#74,#75,#76,#77));
#372=EDGE_LOOP('',(#78,#79,#80,#81));
#373=EDGE_LOOP('',(#82,#83,#84,#85));
#374=EDGE_LOOP('',(#86,#87,#88,#89));
#375=EDGE_LOOP('',(#90));
#376=EDGE_LOOP('',(#91,#92,#93,#94));
#377=EDGE_LOOP('',(#95,#96,#97,#98));
#378=EDGE_LOOP('',(#99,#100,#101,#102));
#379=EDGE_LOOP('',(#103,#104,#105,#106));
#380=EDGE_LOOP('',(#107,#108,#109,#110));
#381=EDGE_LOOP('',(#111,#112,#113,#114));
#382=EDGE_LOOP('',(#115));
#383=EDGE_LOOP('',(#116,#117,#118,#119));
#384=EDGE_LOOP('',(#120));
#385=EDGE_LOOP('',(#121));
#386=EDGE_LOOP('',(#122));
#387=EDGE_LOOP('',(#123));
#388=EDGE_LOOP('',(#124));
#389=EDGE_LOOP('',(#125));
#390=EDGE_LOOP('',(#126,#127,#128,#129));
#391=EDGE_LOOP('',(#130,#131,#132));
#392=EDGE_LOOP('',(#133,#134,#135));
#393=EDGE_LOOP('',(#136,#137,#138,#139));
#394=EDGE_LOOP('',(#140,#141,#142,#143));
#395=EDGE_LOOP('',(#144,#145,#146,#147));
#396=EDGE_LOOP('',(#148,#149,#150,#151));
#397=EDGE_LOOP('',(#152,#153,#154,#155));
#398=EDGE_LOOP('',(#156,#157,#158,#159));
#399=EDGE_LOOP('',(#160,#161,#162));
#400=EDGE_LOOP('',(#163,#164,#165));
#401=EDGE_LOOP('',(#166,#167,#168));
#402=EDGE_LOOP('',(#169,#170,#171));
#403=EDGE_LOOP('',(#172,#173,#174,#175));
#404=EDGE_LOOP('',(#176,#177,#178,#179));
#405=EDGE_LOOP('',(#180,#181,#182,#183));
#406=EDGE_LOOP('',(#184,#185,#186,#187));
#407=EDGE_LOOP('',(#188,#189,#190));
#408=EDGE_LOOP('',(#191,#192,#193));
#409=EDGE_LOOP('',(#194,#195,#196,#197));
#410=FACE_BOUND('',#370,.T.);
#411=FACE_BOUND('',#371,.T.);
#412=FACE_BOUND('',#372,.T.);
#413=FACE_BOUND('',#373,.T.);
#414=FACE_BOUND('',#374,.T.);
#415=FACE_BOUND('',#375,.T.);
#416=FACE_BOUND('',#376,.T.);
#417=FACE_BOUND('',#377,.T.);
#418=FACE_BOUND('',#378,.T.);
#419=FACE_BOUND('',#379,.T.);
#420=FACE_BOUND('',#380,.T.);
#421=FACE_BOUND('',#381,.T.);
#422=FACE_BOUND('',#382,.T.);
#423=FACE_BOUND('',#383,.T.);
#424=FACE_BOUND('',#384,.T.);
#425=FACE_BOUND('',#385,.T.);
#426=FACE_BOUND('',#386,.T.);
#427=FACE_BOUND('',#387,.T.);
#428=FACE_BOUND('',#388,.T.);
#429=FACE_BOUND('',#389,.T.);
#430=FACE_BOUND('',#390,.T.);
#431=FACE_BOUND('',#391,.T.);
#432=FACE_BOUND('',#392,.T.);
#433=FACE_BOUND('',#393,.T.);
#434=FACE_BOUND('',#394,.T.);
#435=FACE_BOUND('',#395,.T.);
#436=FACE_BOUND('',#396,.T.);
#437=FACE_BOUND('',#397,.T.);
#438=FACE_BOUND('',#398,.T.);
#439=FACE_BOUND('',#399,.T.);
#440=FACE_BOUND('',#400,.T.);
#441=FACE_BOUND('',#401,.T.);
#442=FACE_BOUND('',#402,.T.);
#443=FACE_BOUND('',#403,.T.);
#444=FACE_BOUND('',#404,.T.);
#445=FACE_BOUND('',#405,.T.);
#446=FACE_BOUND('',#406,.T.);
#447=FACE_BOUND('',#407,.T.);
#448=FACE_BOUND('',#408,.T.);
#449=FACE_BOUND('',#409,.T.);
#450=PLANE('',#509);
#451=PLANE('',#510);
#452=PLANE('',#511);
#453=PLANE('',#512);
#454=PLANE('',#513);
#455=PLANE('',#515);
#456=PLANE('',#516);
#457=PLANE('',#517);
#458=PLANE('',#518);
#459=PLANE('',#519);
#460=PLANE('',#520);
#461=PLANE('',#526);
#462=ADVANCED_FACE('',(#410),#450,.T.);
#463=ADVANCED_FACE('',(#411),#451,.T.);
#464=ADVANCED_FACE('',(#412),#452,.T.);
#465=ADVANCED_FACE('',(#413),#453,.T.);
#466=ADVANCED_FACE('',(#414,#415),#454,.F.);
#467=ADVANCED_FACE('',(#416),#455,.T.);
#468=ADVANCED_FACE('',(#417),#456,.T.);
#469=ADVANCED_FACE('',(#418),#457,.T.);
#470=ADVANCED_FACE('',(#419),#458,.T.);
#471=ADVANCED_FACE('',(#420,#421),#459,.T.);
#472=ADVANCED_FACE('',(#422,#423),#460,.T.);
#473=ADVANCED_FACE('',(#424,#425),#28,.F.);
#474=ADVANCED_FACE('',(#426,#427),#29,.F.);
#475=ADVANCED_FACE('',(#428,#429),#461,.F.);
#476=ADVANCED_FACE('',(#430),#30,.T.);
#477=ADVANCED_FACE('',(#431),#20,.T.);
#478=ADVANCED_FACE('',(#432),#21,.T.);
#479=ADVANCED_FACE('',(#433),#31,.T.);
#480=ADVANCED_FACE('',(#434),#32,.T.);
#481=ADVANCED_FACE('',(#435),#33,.T.);
#482=ADVANCED_FACE('',(#436),#34,.T.);
#483=ADVANCED_FACE('',(#437),#35,.T.);
#484=ADVANCED_FACE('',(#438),#36,.T.);
#485=ADVANCED_FACE('',(#439),#22,.T.);
#486=ADVANCED_FACE('',(#440),#23,.T.);
#487=ADVANCED_FACE('',(#441),#24,.T.);
#488=ADVANCED_FACE('',(#442),#25,.T.);
#489=ADVANCED_FACE('',(#443),#37,.T.);
#490=ADVANCED_FACE('',(#444),#38,.T.);
#491=ADVANCED_FACE('',(#445),#39,.T.);
#492=ADVANCED_FACE('',(#446),#40,.T.);
#493=ADVANCED_FACE('',(#447),#26,.T.);
#494=ADVANCED_FACE('',(#448),#27,.T.);
#495=ADVANCED_FACE('',(#449),#41,.T.);
#496=CLOSED_SHELL('',(#462,#463,#464,#465,#466,#467,#468,#469,#470,#471,
#472,#473,#474,#475,#476,#477,#478,#479,#480,#481,#482,#483,#484,#485,#486,
#487,#488,#489,#490,#491,#492,#493,#494,#495));
#497=STYLED_ITEM('',(#498),#505);
#498=PRESENTATION_STYLE_ASSIGNMENT((#499));
#499=SURFACE_STYLE_USAGE(.BOTH.,#500);
#500=SURFACE_SIDE_STYLE('',(#501));
#501=SURFACE_STYLE_FILL_AREA(#502);
#502=FILL_AREA_STYLE('',(#503));
#503=FILL_AREA_STYLE_COLOUR('',#504);
#504=COLOUR_RGB('',0.506983280181885,0.531564235687256,0.550000011920929);
#505=MANIFOLD_SOLID_BREP('',#496);
#506=SHAPE_DEFINITION_REPRESENTATION(#874,#507);
#507=SHAPE_REPRESENTATION('07_FDML_stimfix_square_mirror_holder_small',
(#508),#869);
#508=AXIS2_PLACEMENT_3D('',#733,#571,#572);
#509=AXIS2_PLACEMENT_3D('',#734,#573,#574);
#510=AXIS2_PLACEMENT_3D('',#743,#579,#580);
#511=AXIS2_PLACEMENT_3D('',#752,#585,#586);
#512=AXIS2_PLACEMENT_3D('',#761,#591,#592);
#513=AXIS2_PLACEMENT_3D('',#770,#597,#598);
#514=AXIS2_PLACEMENT_3D('',#779,#603,#604);
#515=AXIS2_PLACEMENT_3D('',#781,#605,#606);
#516=AXIS2_PLACEMENT_3D('',#790,#611,#612);
#517=AXIS2_PLACEMENT_3D('',#796,#616,#617);
#518=AXIS2_PLACEMENT_3D('',#802,#621,#622);
#519=AXIS2_PLACEMENT_3D('',#805,#625,#626);
#520=AXIS2_PLACEMENT_3D('',#814,#631,#632);
#521=AXIS2_PLACEMENT_3D('',#815,#633,#634);
#522=AXIS2_PLACEMENT_3D('',#817,#635,#636);
#523=AXIS2_PLACEMENT_3D('',#818,#637,#638);
#524=AXIS2_PLACEMENT_3D('',#820,#639,#640);
#525=AXIS2_PLACEMENT_3D('',#821,#641,#642);
#526=AXIS2_PLACEMENT_3D('',#823,#643,#644);
#527=AXIS2_PLACEMENT_3D('',#824,#645,#646);
#528=AXIS2_PLACEMENT_3D('',#825,#647,#648);
#529=AXIS2_PLACEMENT_3D('',#826,#649,#650);
#530=AXIS2_PLACEMENT_3D('',#827,#651,#652);
#531=AXIS2_PLACEMENT_3D('',#828,#653,#654);
#532=AXIS2_PLACEMENT_3D('',#829,#655,#656);
#533=AXIS2_PLACEMENT_3D('',#830,#657,#658);
#534=AXIS2_PLACEMENT_3D('',#831,#659,#660);
#535=AXIS2_PLACEMENT_3D('',#832,#661,#662);
#536=AXIS2_PLACEMENT_3D('',#833,#663,#664);
#537=AXIS2_PLACEMENT_3D('',#834,#665,#666);
#538=AXIS2_PLACEMENT_3D('',#835,#667,#668);
#539=AXIS2_PLACEMENT_3D('',#836,#669,#670);
#540=AXIS2_PLACEMENT_3D('',#837,#671,#672);
#541=AXIS2_PLACEMENT_3D('',#838,#673,#674);
#542=AXIS2_PLACEMENT_3D('',#839,#675,#676);
#543=AXIS2_PLACEMENT_3D('',#840,#677,#678);
#544=AXIS2_PLACEMENT_3D('',#841,#679,#680);
#545=AXIS2_PLACEMENT_3D('',#842,#681,#682);
#546=AXIS2_PLACEMENT_3D('',#843,#683,#684);
#547=AXIS2_PLACEMENT_3D('',#844,#685,#686);
#548=AXIS2_PLACEMENT_3D('',#845,#687,#688);
#549=AXIS2_PLACEMENT_3D('',#846,#689,#690);
#550=AXIS2_PLACEMENT_3D('',#847,#691,#692);
#551=AXIS2_PLACEMENT_3D('',#848,#693,#694);
#552=AXIS2_PLACEMENT_3D('',#849,#695,#696);
#553=AXIS2_PLACEMENT_3D('',#850,#697,#698);
#554=AXIS2_PLACEMENT_3D('',#851,#699,#700);
#555=AXIS2_PLACEMENT_3D('',#852,#701,#702);
#556=AXIS2_PLACEMENT_3D('',#853,#703,#704);
#557=AXIS2_PLACEMENT_3D('',#854,#705,#706);
#558=AXIS2_PLACEMENT_3D('',#855,#707,#708);
#559=AXIS2_PLACEMENT_3D('',#856,#709,#710);
#560=AXIS2_PLACEMENT_3D('',#857,#711,#712);
#561=AXIS2_PLACEMENT_3D('',#858,#713,#714);
#562=AXIS2_PLACEMENT_3D('',#859,#715,#716);
#563=AXIS2_PLACEMENT_3D('',#860,#717,#718);
#564=AXIS2_PLACEMENT_3D('',#861,#719,#720);
#565=AXIS2_PLACEMENT_3D('',#862,#721,#722);
#566=AXIS2_PLACEMENT_3D('',#863,#723,#724);
#567=AXIS2_PLACEMENT_3D('',#864,#725,#726);
#568=AXIS2_PLACEMENT_3D('',#865,#727,#728);
#569=AXIS2_PLACEMENT_3D('',#866,#729,#730);
#570=AXIS2_PLACEMENT_3D('',#867,#731,#732);
#571=DIRECTION('',(0.,0.,1.));
#572=DIRECTION('',(1.,0.,0.));
#573=DIRECTION('',(1.,0.,0.));
#574=DIRECTION('',(0.,0.,-1.));
#575=DIRECTION('',(0.,0.,1.));
#576=DIRECTION('',(0.,1.,0.));
#577=DIRECTION('',(0.,0.,1.));
#578=DIRECTION('',(0.,1.,0.));
#579=DIRECTION('',(0.,1.,0.));
#580=DIRECTION('',(0.,0.,1.));
#581=DIRECTION('',(-1.,0.,0.));
#582=DIRECTION('',(0.,0.,1.));
#583=DIRECTION('',(-1.,0.,0.));
#584=DIRECTION('',(0.,0.,1.));
#585=DIRECTION('',(-1.,0.,0.));
#586=DIRECTION('',(0.,0.,1.));
#587=DIRECTION('',(0.,0.,1.));
#588=DIRECTION('',(0.,-1.,0.));
#589=DIRECTION('',(0.,0.,1.));
#590=DIRECTION('',(0.,-1.,0.));
#591=DIRECTION('',(0.,-1.,0.));
#592=DIRECTION('',(0.,0.,-1.));
#593=DIRECTION('',(1.,0.,0.));
#594=DIRECTION('',(0.,0.,1.));
#595=DIRECTION('',(1.,0.,0.));
#596=DIRECTION('',(0.,0.,1.));
#597=DIRECTION('',(0.,0.,1.));
#598=DIRECTION('',(1.,0.,0.));
#599=DIRECTION('',(1.,0.,0.));
#600=DIRECTION('',(0.,-1.,0.));
#601=DIRECTION('',(-1.,0.,0.));
#602=DIRECTION('',(0.,1.,0.));
#603=DIRECTION('',(0.,0.,1.));
#604=DIRECTION('',(1.,0.,0.));
#605=DIRECTION('',(0.,-1.,0.));
#606=DIRECTION('',(0.,0.,-1.));
#607=DIRECTION('',(-1.,0.,0.));
#608=DIRECTION('',(0.,0.,-1.));
#609=DIRECTION('',(-1.,0.,0.));
#610=DIRECTION('',(0.,0.,-1.));
#611=DIRECTION('',(-1.,0.,0.));
#612=DIRECTION('',(0.,0.,1.));
#613=DIRECTION('',(0.,1.,0.));
#614=DIRECTION('',(0.,0.,-1.));
#615=DIRECTION('',(0.,1.,0.));
#616=DIRECTION('',(0.,1.,0.));
#617=DIRECTION('',(0.,0.,1.));
#618=DIRECTION('',(1.,0.,0.));
#619=DIRECTION('',(0.,0.,-1.));
#620=DIRECTION('',(1.,0.,0.));
#621=DIRECTION('',(1.,0.,0.));
#622=DIRECTION('',(0.,0.,-1.));
#623=DIRECTION('',(0.,-1.,0.));
#624=DIRECTION('',(0.,-1.,0.));
#625=DIRECTION('',(0.,0.,1.));
#626=DIRECTION('',(1.,0.,0.));
#627=DIRECTION('',(-1.,0.,0.));
#628=DIRECTION('',(0.,-1.,0.));
#629=DIRECTION('',(1.,0.,0.));
#630=DIRECTION('',(0.,1.,0.));
#631=DIRECTION('',(0.,0.,1.));
#632=DIRECTION('',(1.,0.,0.));
#633=DIRECTION('',(0.,0.,-1.));
#634=DIRECTION('',(1.,0.,0.));
#635=DIRECTION('',(0.,0.,1.));
#636=DIRECTION('',(1.,0.,0.));
#637=DIRECTION('',(0.,0.,-1.));
#638=DIRECTION('',(-1.,0.,0.));
#639=DIRECTION('',(0.,0.,1.));
#640=DIRECTION('',(1.,0.,0.));
#641=DIRECTION('',(0.,0.,-1.));
#642=DIRECTION('',(1.,0.,0.));
#643=DIRECTION('',(0.,0.,-1.));
#644=DIRECTION('',(-1.,0.,0.));
#645=DIRECTION('',(0.,1.,0.));
#646=DIRECTION('',(0.,0.,1.));
#647=DIRECTION('',(3.46944695195362E-15,1.,0.));
#648=DIRECTION('',(-1.,3.46944695195362E-15,0.));
#649=DIRECTION('',(0.,-1.,0.));
#650=DIRECTION('',(0.,0.,-1.));
#651=DIRECTION('',(1.,-3.46944695195362E-15,0.));
#652=DIRECTION('',(3.46944695195362E-15,1.,0.));
#653=DIRECTION('',(1.,0.,0.));
#654=DIRECTION('',(0.,0.,-1.));
#655=DIRECTION('',(0.,0.,1.));
#656=DIRECTION('',(1.,0.,0.));
#657=DIRECTION('',(0.,0.,1.));
#658=DIRECTION('',(1.,0.,0.));
#659=DIRECTION('',(0.,0.,1.));
#660=DIRECTION('',(1.,0.,0.));
#661=DIRECTION('',(1.,-3.46944695195362E-15,0.));
#662=DIRECTION('',(3.46944695195362E-15,1.,0.));
#663=DIRECTION('',(0.,0.,1.));
#664=DIRECTION('',(1.,0.,0.));
#665=DIRECTION('',(0.,0.,-1.));
#666=DIRECTION('',(-1.,0.,0.));
#667=DIRECTION('',(-1.,0.,0.));
#668=DIRECTION('',(0.,0.,1.));
#669=DIRECTION('',(-1.,3.46944695195362E-15,0.));
#670=DIRECTION('',(-3.46944695195362E-15,-1.,0.));
#671=DIRECTION('',(0.,-1.,0.));
#672=DIRECTION('',(0.,0.,-1.));
#673=DIRECTION('',(0.,-1.,0.));
#674=DIRECTION('',(0.,0.,-1.));
#675=DIRECTION('',(0.,1.,0.));
#676=DIRECTION('',(0.,0.,1.));
#677=DIRECTION('',(1.,0.,0.));
#678=DIRECTION('',(0.,0.,-1.));
#679=DIRECTION('',(-1.,0.,0.));
#680=DIRECTION('',(0.,0.,1.));
#681=DIRECTION('',(0.,0.,1.));
#682=DIRECTION('',(1.,0.,0.));
#683=DIRECTION('',(0.,0.,-1.));
#684=DIRECTION('',(-1.,0.,0.));
#685=DIRECTION('',(0.,-1.,0.));
#686=DIRECTION('',(0.,0.,-1.));
#687=DIRECTION('',(0.,1.,3.46944695195363E-15));
#688=DIRECTION('',(0.,-3.46944695195363E-15,1.));
#689=DIRECTION('',(0.,-1.,0.));
#690=DIRECTION('',(0.,0.,-1.));
#691=DIRECTION('',(1.,-3.46944695195362E-15,0.));
#692=DIRECTION('',(3.46944695195362E-15,1.,0.));
#693=DIRECTION('',(1.,0.,0.));
#694=DIRECTION('',(0.,0.,-1.));
#695=DIRECTION('',(0.,0.,1.));
#696=DIRECTION('',(1.,0.,0.));
#697=DIRECTION('',(0.,0.,1.));
#698=DIRECTION('',(1.,0.,0.));
#699=DIRECTION('',(0.,0.,1.));
#700=DIRECTION('',(1.,0.,0.));
#701=DIRECTION('',(0.,0.,1.));
#702=DIRECTION('',(1.,0.,0.));
#703=DIRECTION('',(1.,0.,0.));
#704=DIRECTION('',(0.,0.,-1.));
#705=DIRECTION('',(1.,0.,3.46944695195363E-15));
#706=DIRECTION('',(3.46944695195363E-15,0.,-1.));
#707=DIRECTION('',(1.,0.,0.));
#708=DIRECTION('',(0.,0.,-1.));
#709=DIRECTION('',(-1.,0.,3.46944695195363E-15));
#710=DIRECTION('',(3.46944695195363E-15,0.,1.));
#711=DIRECTION('',(0.,0.,1.));
#712=DIRECTION('',(1.,0.,0.));
#713=DIRECTION('',(0.,0.,-1.));
#714=DIRECTION('',(-1.,0.,0.));
#715=DIRECTION('',(0.,0.,1.));
#716=DIRECTION('',(1.,0.,0.));
#717=DIRECTION('',(0.,0.,-1.));
#718=DIRECTION('',(-1.,0.,0.));
#719=DIRECTION('',(-1.,0.,0.));
#720=DIRECTION('',(0.,0.,1.));
#721=DIRECTION('',(-1.,0.,0.));
#722=DIRECTION('',(0.,0.,1.));
#723=DIRECTION('',(3.46944695195362E-15,1.,0.));
#724=DIRECTION('',(-1.,3.46944695195362E-15,0.));
#725=DIRECTION('',(0.,1.,0.));
#726=DIRECTION('',(0.,0.,1.));
#727=DIRECTION('',(0.,-1.,0.));
#728=DIRECTION('',(0.,0.,-1.));
#729=DIRECTION('',(0.,-1.,0.));
#730=DIRECTION('',(0.,0.,-1.));
#731=DIRECTION('',(0.,1.,0.));
#732=DIRECTION('',(0.,0.,1.));
#733=CARTESIAN_POINT('',(0.,0.,0.));
#734=CARTESIAN_POINT('',(26.9,-26.9,-1.));
#735=CARTESIAN_POINT('',(26.9,-25.9,-1.));
#736=CARTESIAN_POINT('',(26.9,-25.9,4.));
#737=CARTESIAN_POINT('',(26.9,-25.9,-4.));
#738=CARTESIAN_POINT('',(26.9,26.9,-4.));
#739=CARTESIAN_POINT('',(26.9,25.9,-4.));
#740=CARTESIAN_POINT('',(26.9,25.9,-1.));
#741=CARTESIAN_POINT('',(26.9,25.9,4.));
#742=CARTESIAN_POINT('',(26.9,-26.9,4.));
#743=CARTESIAN_POINT('',(26.9,26.9,-1.));
#744=CARTESIAN_POINT('',(-26.9,26.9,-4.));
#745=CARTESIAN_POINT('',(25.9,26.9,-4.));
#746=CARTESIAN_POINT('',(-25.9,26.9,-4.));
#747=CARTESIAN_POINT('',(-25.9,26.9,-1.));
#748=CARTESIAN_POINT('',(-25.9,26.9,4.));
#749=CARTESIAN_POINT('',(26.9,26.9,4.));
#750=CARTESIAN_POINT('',(25.9,26.9,4.));
#751=CARTESIAN_POINT('',(25.9,26.9,-1.));
#752=CARTESIAN_POINT('',(-26.9,0.,-1.));
#753=CARTESIAN_POINT('',(-26.9,25.9,-1.));
#754=CARTESIAN_POINT('',(-26.9,25.9,4.));
#755=CARTESIAN_POINT('',(-26.9,25.9,-4.));
#756=CARTESIAN_POINT('',(-26.9,-26.9,-4.));
#757=CARTESIAN_POINT('',(-26.9,-25.9,-4.));
#758=CARTESIAN_POINT('',(-26.9,-25.9,-1.));
#759=CARTESIAN_POINT('',(-26.9,-25.9,4.));
#760=CARTESIAN_POINT('',(-26.9,0.,4.));
#761=CARTESIAN_POINT('',(-26.9,-26.9,-1.));
#762=CARTESIAN_POINT('',(-26.9,-26.9,4.));
#763=CARTESIAN_POINT('',(25.9,-26.9,4.));
#764=CARTESIAN_POINT('',(-25.9,-26.9,4.));
#765=CARTESIAN_POINT('',(-25.9,-26.9,-1.));
#766=CARTESIAN_POINT('',(-25.9,-26.9,-4.));
#767=CARTESIAN_POINT('',(26.9,-26.9,-4.));
#768=CARTESIAN_POINT('',(25.9,-26.9,-4.));
#769=CARTESIAN_POINT('',(25.9,-26.9,-1.));
#770=CARTESIAN_POINT('',(0.,0.,-5.));
#771=CARTESIAN_POINT('',(-26.9,-25.9,-5.));
#772=CARTESIAN_POINT('',(25.9,-25.9,-5.));
#773=CARTESIAN_POINT('',(-25.9,-25.9,-5.));
#774=CARTESIAN_POINT('',(-25.9,26.9,-5.));
#775=CARTESIAN_POINT('',(-25.9,25.9,-5.));
#776=CARTESIAN_POINT('',(26.9,25.9,-5.));
#777=CARTESIAN_POINT('',(25.9,25.9,-5.));
#778=CARTESIAN_POINT('',(25.9,-26.9,-5.));
#779=CARTESIAN_POINT('',(0.,0.,-5.));
#780=CARTESIAN_POINT('',(1.5,0.,-5.));
#781=CARTESIAN_POINT('',(25.4,25.4,5.));
#782=CARTESIAN_POINT('',(25.4,25.4,0.));
#783=CARTESIAN_POINT('',(25.4,25.4,0.));
#784=CARTESIAN_POINT('',(-25.4,25.4,0.));
#785=CARTESIAN_POINT('',(25.4,25.4,5.));
#786=CARTESIAN_POINT('',(25.4,25.4,5.));
#787=CARTESIAN_POINT('',(25.4,25.4,5.));
#788=CARTESIAN_POINT('',(-25.4,25.4,5.));
#789=CARTESIAN_POINT('',(-25.4,25.4,5.));
#790=CARTESIAN_POINT('',(25.4,-25.4,5.));
#791=CARTESIAN_POINT('',(25.4,-25.4,0.));
#792=CARTESIAN_POINT('',(25.4,-25.4,0.));
#793=CARTESIAN_POINT('',(25.4,-25.4,5.));
#794=CARTESIAN_POINT('',(25.4,-25.4,5.));
#795=CARTESIAN_POINT('',(25.4,-25.4,5.));
#796=CARTESIAN_POINT('',(-25.4,-25.4,5.));
#797=CARTESIAN_POINT('',(-25.4,-25.4,0.));
#798=CARTESIAN_POINT('',(-25.4,-25.4,0.));
#799=CARTESIAN_POINT('',(-25.4,-25.4,5.));
#800=CARTESIAN_POINT('',(-25.4,-25.4,5.));
#801=CARTESIAN_POINT('',(-25.4,-25.4,5.));
#802=CARTESIAN_POINT('',(-25.4,25.4,5.));
#803=CARTESIAN_POINT('',(-25.4,25.4,0.));
#804=CARTESIAN_POINT('',(-25.4,25.4,5.));
#805=CARTESIAN_POINT('',(0.,0.,5.));
#806=CARTESIAN_POINT('',(0.,25.9,5.));
#807=CARTESIAN_POINT('',(25.9,25.9,5.));
#808=CARTESIAN_POINT('',(-25.9,25.9,5.));
#809=CARTESIAN_POINT('',(-25.9,0.,5.));
#810=CARTESIAN_POINT('',(-25.9,-25.9,5.));
#811=CARTESIAN_POINT('',(0.,-25.9,5.));
#812=CARTESIAN_POINT('',(25.9,-25.9,5.));
#813=CARTESIAN_POINT('',(25.9,0.,5.));
#814=CARTESIAN_POINT('',(0.,0.,0.));
#815=CARTESIAN_POINT('',(0.,0.,0.));
#816=CARTESIAN_POINT('',(2.25,0.,0.));
#817=CARTESIAN_POINT('',(0.,0.,-35.2331942593479));
#818=CARTESIAN_POINT('',(0.,0.,-3.));
#819=CARTESIAN_POINT('',(-1.5,0.,-3.));
#820=CARTESIAN_POINT('',(0.,0.,-3.));
#821=CARTESIAN_POINT('',(0.,0.,-3.));
#822=CARTESIAN_POINT('',(2.25,0.,-3.));
#823=CARTESIAN_POINT('',(0.,0.,-3.));
#824=CARTESIAN_POINT('',(25.9,0.,4.));
#825=CARTESIAN_POINT('',(25.9,25.9,4.));
#826=CARTESIAN_POINT('',(25.9,-25.9,4.));
#827=CARTESIAN_POINT('',(25.9,25.9,4.));
#828=CARTESIAN_POINT('',(25.9,25.9,4.));
#829=CARTESIAN_POINT('',(25.9,25.9,4.));
#830=CARTESIAN_POINT('',(25.9,-25.9,4.));
#831=CARTESIAN_POINT('',(25.9,-25.9,4.));
#832=CARTESIAN_POINT('',(25.9,-25.9,4.));
#833=CARTESIAN_POINT('',(25.9,25.9,-1.));
#834=CARTESIAN_POINT('',(25.9,25.9,-4.));
#835=CARTESIAN_POINT('',(0.,25.9,4.));
#836=CARTESIAN_POINT('',(-25.9,25.9,4.));
#837=CARTESIAN_POINT('',(-25.9,0.,4.));
#838=CARTESIAN_POINT('',(-25.9,-25.9,4.));
#839=CARTESIAN_POINT('',(-25.9,25.9,4.));
#840=CARTESIAN_POINT('',(0.,-25.9,4.));
#841=CARTESIAN_POINT('',(-25.9,-25.9,4.));
#842=CARTESIAN_POINT('',(25.9,-25.9,-1.));
#843=CARTESIAN_POINT('',(25.9,-25.9,-4.));
#844=CARTESIAN_POINT('',(25.9,-26.9,-4.));
#845=CARTESIAN_POINT('',(25.9,25.9,-4.));
#846=CARTESIAN_POINT('',(25.9,-25.9,-4.));
#847=CARTESIAN_POINT('',(25.9,25.9,-4.));
#848=CARTESIAN_POINT('',(25.9,25.9,-4.));
#849=CARTESIAN_POINT('',(-25.9,25.9,4.));
#850=CARTESIAN_POINT('',(-25.9,25.9,4.));
#851=CARTESIAN_POINT('',(-25.9,-25.9,4.));
#852=CARTESIAN_POINT('',(-25.9,-25.9,4.));
#853=CARTESIAN_POINT('',(25.9,-25.9,-4.));
#854=CARTESIAN_POINT('',(25.9,-25.9,-4.));
#855=CARTESIAN_POINT('',(26.9,25.9,-4.));
#856=CARTESIAN_POINT('',(-25.9,25.9,-4.));
#857=CARTESIAN_POINT('',(-25.9,25.9,-1.));
#858=CARTESIAN_POINT('',(-25.9,25.9,-4.));
#859=CARTESIAN_POINT('',(-25.9,-25.9,-1.));
#860=CARTESIAN_POINT('',(-25.9,-25.9,-4.));
#861=CARTESIAN_POINT('',(-26.9,-25.9,-4.));
#862=CARTESIAN_POINT('',(-25.9,-25.9,-4.));
#863=CARTESIAN_POINT('',(-25.9,25.9,-4.));
#864=CARTESIAN_POINT('',(-25.9,25.9,-4.));
#865=CARTESIAN_POINT('',(-25.9,-25.9,-4.));
#866=CARTESIAN_POINT('',(-25.9,-25.9,-4.));
#867=CARTESIAN_POINT('',(-25.9,0.,-4.));
#868=MECHANICAL_DESIGN_GEOMETRIC_PRESENTATION_REPRESENTATION('',(#497),
#869);
#869=(
GEOMETRIC_REPRESENTATION_CONTEXT(3)
GLOBAL_UNCERTAINTY_ASSIGNED_CONTEXT((#870))
GLOBAL_UNIT_ASSIGNED_CONTEXT((#873,#872,#871))
REPRESENTATION_CONTEXT('07_FDML_stimfix_square_mirror_holder_small',
'TOP_LEVEL_ASSEMBLY_PART')
);
#870=UNCERTAINTY_MEASURE_WITH_UNIT(LENGTH_MEASURE(0.005),#873,
'DISTANCE_ACCURACY_VALUE','Maximum Tolerance applied to model');
#871=(
NAMED_UNIT(*)
SI_UNIT($,.STERADIAN.)
SOLID_ANGLE_UNIT()
);
#872=(
NAMED_UNIT(*)
PLANE_ANGLE_UNIT()
SI_UNIT($,.RADIAN.)
);
#873=(
LENGTH_UNIT()
NAMED_UNIT(*)
SI_UNIT(.MILLI.,.METRE.)
);
#874=PRODUCT_DEFINITION_SHAPE('','',#875);
#875=PRODUCT_DEFINITION('','',#877,#876);
#876=PRODUCT_DEFINITION_CONTEXT('',#883,'design');
#877=PRODUCT_DEFINITION_FORMATION_WITH_SPECIFIED_SOURCE('','',#879,
 .NOT_KNOWN.);
#878=PRODUCT_RELATED_PRODUCT_CATEGORY('','',(#879));
#879=PRODUCT('07_FDML_stimfix_square_mirror_holder_small',
'07_FDML_stimfix_square_mirror_holder_small',
'07_FDML_stimfix_square_mirror_holder_small',(#881));
#880=PRODUCT_CATEGORY('','');
#881=PRODUCT_CONTEXT('',#883,'mechanical');
#882=APPLICATION_PROTOCOL_DEFINITION('international standard',
'automotive_design',2010,#883);
#883=APPLICATION_CONTEXT(
'core data for automotive mechanical design processes');
ENDSEC;
END-ISO-10303-21;
