ISO-10303-21;
HEADER;
/* Generated by software containing ST-Developer
 * from STEP Tools, Inc. (www.steptools.com) 
 */
/* OPTION: strings as raw bytes, not using required /X/ escapes */

FILE_DESCRIPTION(
/* description */ ('Unknown'),
/* implementation_level */ '2;1');

FILE_NAME(
/* name */ '08_FDML_stimfix_square_mirror_support_with_6mm_rod_cutout',

/* time_stamp */ '2026-09-07T14:34:50+02:00',
/* author */ ('Unknown'),
/* organization */ ('Unknown'),
/* preprocessor_version */ 'ST-DEVELOPER v16.7',
/* originating_system */ 'Solid Edge',
/* authorisation */ 'Unknown');

FILE_SCHEMA (('AUTOMOTIVE_DESIGN {1 0 10303 214 3 1 1}'));
ENDSEC;

DATA;
#10=PROPERTY_DEFINITION_REPRESENTATION(#14,#12);
#11=PROPERTY_DEFINITION_REPRESENTATION(#15,#13);
#12=REPRESENTATION('',(#16),#1283);
#13=REPRESENTATION('',(#17),#1283);
#14=PROPERTY_DEFINITION('pmi validation property','',#1288);
#15=PROPERTY_DEFINITION('pmi validation property','',#1288);
#16=VALUE_REPRESENTATION_ITEM('number of annotations',COUNT_MEASURE(0.));
#17=VALUE_REPRESENTATION_ITEM('number of views',COUNT_MEASURE(0.));
#18=SHAPE_REPRESENTATION_RELATIONSHIP('','',#699,#19);
#19=ADVANCED_BREP_SHAPE_REPRESENTATION('',(#697),#1283);
#20=SPHERICAL_SURFACE('',#750,0.500000000000001);
#21=SPHERICAL_SURFACE('',#756,0.500000000000001);
#22=SPHERICAL_SURFACE('',#762,0.500000000000001);
#23=SPHERICAL_SURFACE('',#766,0.500000000000001);
#24=(
BOUNDED_SURFACE()
B_SPLINE_SURFACE(3,2,((#1147,#1148,#1149),(#1150,#1151,#1152),(#1153,#1154,
#1155),(#1156,#1157,#1158),(#1159,#1160,#1161),(#1162,#1163,#1164),(#1165,
#1166,#1167)),.UNSPECIFIED.,.F.,.F.,.F.)
B_SPLINE_SURFACE_WITH_KNOTS((4,1,1,1,4),(3,3),(6.28318530717959,6.64868719041541,
7.01418907365123,7.37969095688705,7.74519284012288),(0.,1.),
 .UNSPECIFIED.)
GEOMETRIC_REPRESENTATION_ITEM()
RATIONAL_B_SPLINE_SURFACE(((1.,0.707106781186547,1.),(1.,0.707106781231387,
1.),(1.,0.740982021774117,1.),(1.,0.851394754921864,1.),(1.,0.954696743257932,
1.),(1.,0.990454162911336,1.),(1.,0.997048547917133,1.)))
REPRESENTATION_ITEM('')
SURFACE()
);
#25=(
BOUNDED_SURFACE()
B_SPLINE_SURFACE(3,2,((#1175,#1176,#1177),(#1178,#1179,#1180),(#1181,#1182,
#1183),(#1184,#1185,#1186),(#1187,#1188,#1189),(#1190,#1191,#1192),(#1193,
#1194,#1195)),.UNSPECIFIED.,.F.,.F.,.F.)
B_SPLINE_SURFACE_WITH_KNOTS((4,1,1,1,4),(3,3),(6.28318530717959,6.64868719041541,
7.01418907365123,7.37969095688705,7.74519284012288),(0.,1.),
 .UNSPECIFIED.)
GEOMETRIC_REPRESENTATION_ITEM()
RATIONAL_B_SPLINE_SURFACE(((1.,0.707106781186547,1.),(1.,0.707106781231387,
1.),(1.,0.740982021774117,1.),(1.,0.851394754921864,1.),(1.,0.954696743257932,
1.),(1.,0.990454162911336,1.),(1.,0.997048547917133,1.)))
REPRESENTATION_ITEM('')
SURFACE()
);
#26=(
BOUNDED_SURFACE()
B_SPLINE_SURFACE(3,2,((#1200,#1201,#1202),(#1203,#1204,#1205),(#1206,#1207,
#1208),(#1209,#1210,#1211),(#1212,#1213,#1214),(#1215,#1216,#1217),(#1218,
#1219,#1220)),.UNSPECIFIED.,.F.,.F.,.F.)
B_SPLINE_SURFACE_WITH_KNOTS((4,1,1,1,4),(3,3),(6.28318530717959,6.64868719041541,
7.01418907365123,7.37969095688705,7.74519284012288),(0.,1.),
 .UNSPECIFIED.)
GEOMETRIC_REPRESENTATION_ITEM()
RATIONAL_B_SPLINE_SURFACE(((1.,0.707106781186547,1.),(1.,0.707106781231387,
1.),(1.,0.740982021774117,1.),(1.,0.851394754921864,1.),(1.,0.954696743257932,
1.),(1.,0.990454162911336,1.),(1.,0.997048547917133,1.)))
REPRESENTATION_ITEM('')
SURFACE()
);
#27=(
BOUNDED_SURFACE()
B_SPLINE_SURFACE(3,2,((#1228,#1229,#1230),(#1231,#1232,#1233),(#1234,#1235,
#1236),(#1237,#1238,#1239),(#1240,#1241,#1242),(#1243,#1244,#1245),(#1246,
#1247,#1248)),.UNSPECIFIED.,.F.,.F.,.F.)
B_SPLINE_SURFACE_WITH_KNOTS((4,1,1,1,4),(3,3),(3.14159265358979,3.50709453682562,
3.87259642006144,4.23809830329726,4.60360018653308),(0.,1.),
 .UNSPECIFIED.)
GEOMETRIC_REPRESENTATION_ITEM()
RATIONAL_B_SPLINE_SURFACE(((1.,0.707106781186547,1.),(1.,0.707106781231387,
1.),(1.,0.740982021774116,1.),(1.,0.851394754921866,1.),(1.,0.954696743257926,
1.),(1.,0.99045416291135,1.),(1.,0.997048547917133,1.)))
REPRESENTATION_ITEM('')
SURFACE()
);
#28=ELLIPSE('',#708,4.59619407771256,3.25);
#29=ELLIPSE('',#710,4.59619407771256,3.25);
#30=ELLIPSE('',#723,1.802775637732,1.);
#31=ELLIPSE('',#724,1.802775637732,1.);
#32=ELLIPSE('',#726,1.802775637732,1.);
#33=ELLIPSE('',#727,1.802775637732,1.);
#34=ELLIPSE('',#729,1.802775637732,1.);
#35=ELLIPSE('',#730,1.802775637732,1.);
#36=ELLIPSE('',#732,1.802775637732,1.);
#37=ELLIPSE('',#733,1.802775637732,1.);
#38=PLANE('',#703);
#39=PLANE('',#704);
#40=PLANE('',#705);
#41=PLANE('',#706);
#42=PLANE('',#707);
#43=PLANE('',#709);
#44=PLANE('',#711);
#45=PLANE('',#712);
#46=PLANE('',#713);
#47=PLANE('',#717);
#48=PLANE('',#718);
#49=PLANE('',#719);
#50=PLANE('',#720);
#51=PLANE('',#721);
#52=PLANE('',#770);
#53=CIRCLE('',#702,0.5);
#54=CIRCLE('',#714,2.);
#55=CIRCLE('',#716,2.);
#56=CIRCLE('',#735,0.5);
#57=CIRCLE('',#737,0.5);
#58=CIRCLE('',#738,0.5);
#59=CIRCLE('',#739,0.5);
#60=CIRCLE('',#741,0.5);
#61=CIRCLE('',#742,0.5);
#62=CIRCLE('',#744,0.5);
#63=CIRCLE('',#746,0.500000000000001);
#64=CIRCLE('',#748,0.500000000000001);
#65=CIRCLE('',#749,0.500000000000001);
#66=CIRCLE('',#751,0.500000000000001);
#67=CIRCLE('',#753,0.500000000000001);
#68=CIRCLE('',#755,0.500000000000001);
#69=CIRCLE('',#757,0.500000000000001);
#70=CIRCLE('',#759,0.500000000000001);
#71=CIRCLE('',#761,0.500000000000001);
#72=CIRCLE('',#763,0.500000000000001);
#73=CIRCLE('',#765,0.500000000000001);
#74=CIRCLE('',#767,0.500000000000001);
#75=LINE('',#971,#125);
#76=LINE('',#975,#126);
#77=LINE('',#977,#127);
#78=LINE('',#980,#128);
#79=LINE('',#982,#129);
#80=LINE('',#984,#130);
#81=LINE('',#986,#131);
#82=LINE('',#989,#132);
#83=LINE('',#990,#133);
#84=LINE('',#992,#134);
#85=LINE('',#995,#135);
#86=LINE('',#996,#136);
#87=LINE('',#998,#137);
#88=LINE('',#999,#138);
#89=LINE('',#1003,#139);
#90=LINE('',#1005,#140);
#91=LINE('',#1007,#141);
#92=LINE('',#1009,#142);
#93=LINE('',#1011,#143);
#94=LINE('',#1015,#144);
#95=LINE('',#1017,#145);
#96=LINE('',#1019,#146);
#97=LINE('',#1021,#147);
#98=LINE('',#1024,#148);
#99=LINE('',#1026,#149);
#100=LINE('',#1028,#150);
#101=LINE('',#1030,#151);
#102=LINE('',#1033,#152);
#103=LINE('',#1035,#153);
#104=LINE('',#1037,#154);
#105=LINE('',#1045,#155);
#106=LINE('',#1048,#156);
#107=LINE('',#1050,#157);
#108=LINE('',#1052,#158);
#109=LINE('',#1054,#159);
#110=LINE('',#1057,#160);
#111=LINE('',#1059,#161);
#112=LINE('',#1061,#162);
#113=LINE('',#1063,#163);
#114=LINE('',#1066,#164);
#115=LINE('',#1068,#165);
#116=LINE('',#1070,#166);
#117=LINE('',#1072,#167);
#118=LINE('',#1075,#168);
#119=LINE('',#1077,#169);
#120=LINE('',#1079,#170);
#121=LINE('',#1081,#171);
#122=LINE('',#1084,#172);
#123=LINE('',#1086,#173);
#124=LINE('',#1088,#174);
#125=VECTOR('',#775,1000.);
#126=VECTOR('',#778,1000.);
#127=VECTOR('',#781,1000.);
#128=VECTOR('',#782,1000.);
#129=VECTOR('',#783,1000.);
#130=VECTOR('',#784,1000.);
#131=VECTOR('',#787,1000.);
#132=VECTOR('',#788,1000.);
#133=VECTOR('',#789,1000.);
#134=VECTOR('',#792,1000.);
#135=VECTOR('',#793,1000.);
#136=VECTOR('',#794,1000.);
#137=VECTOR('',#797,1000.);
#138=VECTOR('',#798,1000.);
#139=VECTOR('',#803,1000.);
#140=VECTOR('',#804,1000.);
#141=VECTOR('',#805,1000.);
#142=VECTOR('',#806,1000.);
#143=VECTOR('',#809,1000.);
#144=VECTOR('',#812,1000.);
#145=VECTOR('',#813,1000.);
#146=VECTOR('',#814,1000.);
#147=VECTOR('',#817,1000.);
#148=VECTOR('',#818,1000.);
#149=VECTOR('',#819,1000.);
#150=VECTOR('',#820,1000.);
#151=VECTOR('',#823,1000.);
#152=VECTOR('',#824,1000.);
#153=VECTOR('',#825,1000.);
#154=VECTOR('',#826,1000.);
#155=VECTOR('',#837,1000.);
#156=VECTOR('',#838,1000.);
#157=VECTOR('',#839,1000.);
#158=VECTOR('',#840,1000.);
#159=VECTOR('',#843,1000.);
#160=VECTOR('',#844,1000.);
#161=VECTOR('',#845,1000.);
#162=VECTOR('',#846,1000.);
#163=VECTOR('',#849,1000.);
#164=VECTOR('',#850,1000.);
#165=VECTOR('',#851,1000.);
#166=VECTOR('',#852,1000.);
#167=VECTOR('',#855,1000.);
#168=VECTOR('',#856,1000.);
#169=VECTOR('',#857,1000.);
#170=VECTOR('',#858,1000.);
#171=VECTOR('',#861,1000.);
#172=VECTOR('',#862,1000.);
#173=VECTOR('',#863,1000.);
#174=VECTOR('',#864,1000.);
#175=ORIENTED_EDGE('',*,*,#367,.F.);
#176=ORIENTED_EDGE('',*,*,#368,.F.);
#177=ORIENTED_EDGE('',*,*,#369,.F.);
#178=ORIENTED_EDGE('',*,*,#370,.F.);
#179=ORIENTED_EDGE('',*,*,#371,.F.);
#180=ORIENTED_EDGE('',*,*,#372,.T.);
#181=ORIENTED_EDGE('',*,*,#373,.T.);
#182=ORIENTED_EDGE('',*,*,#374,.F.);
#183=ORIENTED_EDGE('',*,*,#375,.F.);
#184=ORIENTED_EDGE('',*,*,#376,.T.);
#185=ORIENTED_EDGE('',*,*,#371,.T.);
#186=ORIENTED_EDGE('',*,*,#377,.F.);
#187=ORIENTED_EDGE('',*,*,#378,.F.);
#188=ORIENTED_EDGE('',*,*,#379,.T.);
#189=ORIENTED_EDGE('',*,*,#375,.T.);
#190=ORIENTED_EDGE('',*,*,#380,.F.);
#191=ORIENTED_EDGE('',*,*,#373,.F.);
#192=ORIENTED_EDGE('',*,*,#381,.T.);
#193=ORIENTED_EDGE('',*,*,#378,.T.);
#194=ORIENTED_EDGE('',*,*,#382,.F.);
#195=ORIENTED_EDGE('',*,*,#368,.T.);
#196=ORIENTED_EDGE('',*,*,#383,.T.);
#197=ORIENTED_EDGE('',*,*,#384,.T.);
#198=ORIENTED_EDGE('',*,*,#385,.F.);
#199=ORIENTED_EDGE('',*,*,#386,.T.);
#200=ORIENTED_EDGE('',*,*,#387,.T.);
#201=ORIENTED_EDGE('',*,*,#388,.T.);
#202=ORIENTED_EDGE('',*,*,#389,.T.);
#203=ORIENTED_EDGE('',*,*,#370,.T.);
#204=ORIENTED_EDGE('',*,*,#390,.T.);
#205=ORIENTED_EDGE('',*,*,#391,.T.);
#206=ORIENTED_EDGE('',*,*,#392,.F.);
#207=ORIENTED_EDGE('',*,*,#393,.T.);
#208=ORIENTED_EDGE('',*,*,#394,.T.);
#209=ORIENTED_EDGE('',*,*,#395,.F.);
#210=ORIENTED_EDGE('',*,*,#396,.T.);
#211=ORIENTED_EDGE('',*,*,#397,.T.);
#212=ORIENTED_EDGE('',*,*,#398,.F.);
#213=ORIENTED_EDGE('',*,*,#399,.T.);
#214=ORIENTED_EDGE('',*,*,#400,.T.);
#215=ORIENTED_EDGE('',*,*,#377,.T.);
#216=ORIENTED_EDGE('',*,*,#374,.T.);
#217=ORIENTED_EDGE('',*,*,#382,.T.);
#218=ORIENTED_EDGE('',*,*,#380,.T.);
#219=ORIENTED_EDGE('',*,*,#401,.F.);
#220=ORIENTED_EDGE('',*,*,#401,.T.);
#221=ORIENTED_EDGE('',*,*,#402,.F.);
#222=ORIENTED_EDGE('',*,*,#403,.T.);
#223=ORIENTED_EDGE('',*,*,#404,.T.);
#224=ORIENTED_EDGE('',*,*,#405,.T.);
#225=ORIENTED_EDGE('',*,*,#406,.T.);
#226=ORIENTED_EDGE('',*,*,#407,.T.);
#227=ORIENTED_EDGE('',*,*,#408,.T.);
#228=ORIENTED_EDGE('',*,*,#409,.T.);
#229=ORIENTED_EDGE('',*,*,#410,.T.);
#230=ORIENTED_EDGE('',*,*,#411,.T.);
#231=ORIENTED_EDGE('',*,*,#412,.T.);
#232=ORIENTED_EDGE('',*,*,#413,.T.);
#233=ORIENTED_EDGE('',*,*,#414,.T.);
#234=ORIENTED_EDGE('',*,*,#415,.T.);
#235=ORIENTED_EDGE('',*,*,#416,.T.);
#236=ORIENTED_EDGE('',*,*,#417,.T.);
#237=ORIENTED_EDGE('',*,*,#418,.T.);
#238=ORIENTED_EDGE('',*,*,#379,.F.);
#239=ORIENTED_EDGE('',*,*,#381,.F.);
#240=ORIENTED_EDGE('',*,*,#372,.F.);
#241=ORIENTED_EDGE('',*,*,#376,.F.);
#242=ORIENTED_EDGE('',*,*,#419,.T.);
#243=ORIENTED_EDGE('',*,*,#420,.T.);
#244=ORIENTED_EDGE('',*,*,#421,.T.);
#245=ORIENTED_EDGE('',*,*,#422,.T.);
#246=ORIENTED_EDGE('',*,*,#423,.T.);
#247=ORIENTED_EDGE('',*,*,#424,.T.);
#248=ORIENTED_EDGE('',*,*,#403,.F.);
#249=ORIENTED_EDGE('',*,*,#425,.T.);
#250=ORIENTED_EDGE('',*,*,#426,.T.);
#251=ORIENTED_EDGE('',*,*,#400,.F.);
#252=ORIENTED_EDGE('',*,*,#409,.F.);
#253=ORIENTED_EDGE('',*,*,#427,.T.);
#254=ORIENTED_EDGE('',*,*,#428,.T.);
#255=ORIENTED_EDGE('',*,*,#393,.F.);
#256=ORIENTED_EDGE('',*,*,#429,.T.);
#257=ORIENTED_EDGE('',*,*,#430,.T.);
#258=ORIENTED_EDGE('',*,*,#413,.F.);
#259=ORIENTED_EDGE('',*,*,#431,.T.);
#260=ORIENTED_EDGE('',*,*,#432,.T.);
#261=ORIENTED_EDGE('',*,*,#390,.F.);
#262=ORIENTED_EDGE('',*,*,#433,.T.);
#263=ORIENTED_EDGE('',*,*,#434,.T.);
#264=ORIENTED_EDGE('',*,*,#435,.T.);
#265=ORIENTED_EDGE('',*,*,#436,.T.);
#266=ORIENTED_EDGE('',*,*,#415,.F.);
#267=ORIENTED_EDGE('',*,*,#437,.T.);
#268=ORIENTED_EDGE('',*,*,#438,.T.);
#269=ORIENTED_EDGE('',*,*,#387,.F.);
#270=ORIENTED_EDGE('',*,*,#439,.F.);
#271=ORIENTED_EDGE('',*,*,#388,.F.);
#272=ORIENTED_EDGE('',*,*,#440,.F.);
#273=ORIENTED_EDGE('',*,*,#384,.F.);
#274=ORIENTED_EDGE('',*,*,#438,.F.);
#275=ORIENTED_EDGE('',*,*,#441,.T.);
#276=ORIENTED_EDGE('',*,*,#433,.F.);
#277=ORIENTED_EDGE('',*,*,#369,.T.);
#278=ORIENTED_EDGE('',*,*,#396,.F.);
#279=ORIENTED_EDGE('',*,*,#442,.F.);
#280=ORIENTED_EDGE('',*,*,#391,.F.);
#281=ORIENTED_EDGE('',*,*,#443,.F.);
#282=ORIENTED_EDGE('',*,*,#432,.F.);
#283=ORIENTED_EDGE('',*,*,#444,.T.);
#284=ORIENTED_EDGE('',*,*,#429,.F.);
#285=ORIENTED_EDGE('',*,*,#443,.T.);
#286=ORIENTED_EDGE('',*,*,#426,.F.);
#287=ORIENTED_EDGE('',*,*,#445,.T.);
#288=ORIENTED_EDGE('',*,*,#435,.F.);
#289=ORIENTED_EDGE('',*,*,#446,.F.);
#290=ORIENTED_EDGE('',*,*,#386,.F.);
#291=ORIENTED_EDGE('',*,*,#447,.F.);
#292=ORIENTED_EDGE('',*,*,#397,.F.);
#293=ORIENTED_EDGE('',*,*,#446,.T.);
#294=ORIENTED_EDGE('',*,*,#428,.F.);
#295=ORIENTED_EDGE('',*,*,#448,.T.);
#296=ORIENTED_EDGE('',*,*,#423,.F.);
#297=ORIENTED_EDGE('',*,*,#449,.F.);
#298=ORIENTED_EDGE('',*,*,#399,.F.);
#299=ORIENTED_EDGE('',*,*,#450,.F.);
#300=ORIENTED_EDGE('',*,*,#394,.F.);
#301=ORIENTED_EDGE('',*,*,#449,.T.);
#302=ORIENTED_EDGE('',*,*,#437,.F.);
#303=ORIENTED_EDGE('',*,*,#418,.F.);
#304=ORIENTED_EDGE('',*,*,#451,.F.);
#305=ORIENTED_EDGE('',*,*,#414,.F.);
#306=ORIENTED_EDGE('',*,*,#434,.F.);
#307=ORIENTED_EDGE('',*,*,#441,.F.);
#308=ORIENTED_EDGE('',*,*,#422,.F.);
#309=ORIENTED_EDGE('',*,*,#452,.T.);
#310=ORIENTED_EDGE('',*,*,#411,.F.);
#311=ORIENTED_EDGE('',*,*,#453,.F.);
#312=ORIENTED_EDGE('',*,*,#453,.T.);
#313=ORIENTED_EDGE('',*,*,#451,.T.);
#314=ORIENTED_EDGE('',*,*,#454,.F.);
#315=ORIENTED_EDGE('',*,*,#417,.F.);
#316=ORIENTED_EDGE('',*,*,#455,.T.);
#317=ORIENTED_EDGE('',*,*,#419,.F.);
#318=ORIENTED_EDGE('',*,*,#454,.T.);
#319=ORIENTED_EDGE('',*,*,#431,.F.);
#320=ORIENTED_EDGE('',*,*,#412,.F.);
#321=ORIENTED_EDGE('',*,*,#456,.F.);
#322=ORIENTED_EDGE('',*,*,#410,.F.);
#323=ORIENTED_EDGE('',*,*,#430,.F.);
#324=ORIENTED_EDGE('',*,*,#444,.F.);
#325=ORIENTED_EDGE('',*,*,#456,.T.);
#326=ORIENTED_EDGE('',*,*,#452,.F.);
#327=ORIENTED_EDGE('',*,*,#457,.F.);
#328=ORIENTED_EDGE('',*,*,#421,.F.);
#329=ORIENTED_EDGE('',*,*,#458,.T.);
#330=ORIENTED_EDGE('',*,*,#407,.F.);
#331=ORIENTED_EDGE('',*,*,#457,.T.);
#332=ORIENTED_EDGE('',*,*,#459,.F.);
#333=ORIENTED_EDGE('',*,*,#416,.F.);
#334=ORIENTED_EDGE('',*,*,#436,.F.);
#335=ORIENTED_EDGE('',*,*,#445,.F.);
#336=ORIENTED_EDGE('',*,*,#425,.F.);
#337=ORIENTED_EDGE('',*,*,#406,.F.);
#338=ORIENTED_EDGE('',*,*,#455,.F.);
#339=ORIENTED_EDGE('',*,*,#459,.T.);
#340=ORIENTED_EDGE('',*,*,#460,.F.);
#341=ORIENTED_EDGE('',*,*,#461,.F.);
#342=ORIENTED_EDGE('',*,*,#420,.F.);
#343=ORIENTED_EDGE('',*,*,#460,.T.);
#344=ORIENTED_EDGE('',*,*,#405,.F.);
#345=ORIENTED_EDGE('',*,*,#458,.F.);
#346=ORIENTED_EDGE('',*,*,#461,.T.);
#347=ORIENTED_EDGE('',*,*,#462,.F.);
#348=ORIENTED_EDGE('',*,*,#427,.F.);
#349=ORIENTED_EDGE('',*,*,#408,.F.);
#350=ORIENTED_EDGE('',*,*,#462,.T.);
#351=ORIENTED_EDGE('',*,*,#404,.F.);
#352=ORIENTED_EDGE('',*,*,#424,.F.);
#353=ORIENTED_EDGE('',*,*,#448,.F.);
#354=ORIENTED_EDGE('',*,*,#367,.T.);
#355=ORIENTED_EDGE('',*,*,#389,.F.);
#356=ORIENTED_EDGE('',*,*,#439,.T.);
#357=ORIENTED_EDGE('',*,*,#383,.F.);
#358=ORIENTED_EDGE('',*,*,#402,.T.);
#359=ORIENTED_EDGE('',*,*,#395,.T.);
#360=ORIENTED_EDGE('',*,*,#450,.T.);
#361=ORIENTED_EDGE('',*,*,#398,.T.);
#362=ORIENTED_EDGE('',*,*,#447,.T.);
#363=ORIENTED_EDGE('',*,*,#385,.T.);
#364=ORIENTED_EDGE('',*,*,#440,.T.);
#365=ORIENTED_EDGE('',*,*,#392,.T.);
#366=ORIENTED_EDGE('',*,*,#442,.T.);
#367=EDGE_CURVE('',#463,#464,#521,.T.);
#368=EDGE_CURVE('',#465,#463,#75,.F.);
#369=EDGE_CURVE('',#466,#465,#53,.T.);
#370=EDGE_CURVE('',#464,#466,#76,.T.);
#371=EDGE_CURVE('',#467,#468,#77,.T.);
#372=EDGE_CURVE('',#467,#469,#78,.T.);
#373=EDGE_CURVE('',#469,#470,#79,.T.);
#374=EDGE_CURVE('',#468,#470,#80,.T.);
#375=EDGE_CURVE('',#471,#472,#81,.T.);
#376=EDGE_CURVE('',#471,#467,#82,.T.);
#377=EDGE_CURVE('',#472,#468,#83,.T.);
#378=EDGE_CURVE('',#473,#474,#84,.T.);
#379=EDGE_CURVE('',#473,#471,#85,.T.);
#380=EDGE_CURVE('',#474,#472,#86,.T.);
#381=EDGE_CURVE('',#469,#473,#87,.T.);
#382=EDGE_CURVE('',#470,#474,#88,.T.);
#383=EDGE_CURVE('',#463,#475,#28,.T.);
#384=EDGE_CURVE('',#475,#476,#89,.F.);
#385=EDGE_CURVE('',#477,#476,#90,.T.);
#386=EDGE_CURVE('',#477,#478,#91,.T.);
#387=EDGE_CURVE('',#478,#465,#92,.T.);
#388=EDGE_CURVE('',#479,#480,#93,.T.);
#389=EDGE_CURVE('',#480,#464,#29,.T.);
#390=EDGE_CURVE('',#466,#481,#94,.T.);
#391=EDGE_CURVE('',#481,#482,#95,.F.);
#392=EDGE_CURVE('',#479,#482,#96,.T.);
#393=EDGE_CURVE('',#483,#484,#97,.T.);
#394=EDGE_CURVE('',#484,#485,#98,.F.);
#395=EDGE_CURVE('',#486,#485,#99,.T.);
#396=EDGE_CURVE('',#486,#483,#100,.T.);
#397=EDGE_CURVE('',#487,#488,#101,.F.);
#398=EDGE_CURVE('',#489,#488,#102,.T.);
#399=EDGE_CURVE('',#489,#490,#103,.T.);
#400=EDGE_CURVE('',#490,#487,#104,.T.);
#401=EDGE_CURVE('',#491,#491,#54,.F.);
#402=EDGE_CURVE('',#492,#492,#55,.T.);
#403=EDGE_CURVE('',#493,#494,#105,.T.);
#404=EDGE_CURVE('',#494,#495,#106,.T.);
#405=EDGE_CURVE('',#495,#496,#107,.F.);
#406=EDGE_CURVE('',#496,#493,#108,.F.);
#407=EDGE_CURVE('',#497,#498,#109,.F.);
#408=EDGE_CURVE('',#498,#499,#110,.F.);
#409=EDGE_CURVE('',#499,#500,#111,.T.);
#410=EDGE_CURVE('',#500,#497,#112,.T.);
#411=EDGE_CURVE('',#501,#502,#113,.F.);
#412=EDGE_CURVE('',#502,#503,#114,.F.);
#413=EDGE_CURVE('',#503,#504,#115,.T.);
#414=EDGE_CURVE('',#504,#501,#116,.T.);
#415=EDGE_CURVE('',#505,#506,#117,.T.);
#416=EDGE_CURVE('',#506,#507,#118,.T.);
#417=EDGE_CURVE('',#507,#508,#119,.F.);
#418=EDGE_CURVE('',#508,#505,#120,.F.);
#419=EDGE_CURVE('',#509,#510,#121,.T.);
#420=EDGE_CURVE('',#510,#511,#122,.T.);
#421=EDGE_CURVE('',#511,#512,#123,.T.);
#422=EDGE_CURVE('',#512,#509,#124,.T.);
#423=EDGE_CURVE('',#490,#513,#30,.F.);
#424=EDGE_CURVE('',#513,#494,#522,.T.);
#425=EDGE_CURVE('',#493,#514,#523,.T.);
#426=EDGE_CURVE('',#514,#487,#31,.T.);
#427=EDGE_CURVE('',#499,#515,#524,.T.);
#428=EDGE_CURVE('',#515,#484,#32,.T.);
#429=EDGE_CURVE('',#483,#516,#33,.F.);
#430=EDGE_CURVE('',#516,#500,#525,.T.);
#431=EDGE_CURVE('',#503,#517,#526,.T.);
#432=EDGE_CURVE('',#517,#481,#34,.T.);
#433=EDGE_CURVE('',#466,#518,#35,.F.);
#434=EDGE_CURVE('',#518,#504,#527,.T.);
#435=EDGE_CURVE('',#478,#519,#36,.F.);
#436=EDGE_CURVE('',#519,#506,#528,.T.);
#437=EDGE_CURVE('',#505,#520,#529,.T.);
#438=EDGE_CURVE('',#520,#465,#37,.T.);
#439=EDGE_CURVE('',#480,#475,#530,.T.);
#440=EDGE_CURVE('',#476,#479,#56,.T.);
#441=EDGE_CURVE('',#520,#518,#531,.T.);
#442=EDGE_CURVE('',#482,#486,#57,.T.);
#443=EDGE_CURVE('',#483,#481,#58,.T.);
#444=EDGE_CURVE('',#517,#516,#532,.T.);
#445=EDGE_CURVE('',#514,#519,#533,.T.);
#446=EDGE_CURVE('',#487,#478,#59,.T.);
#447=EDGE_CURVE('',#488,#477,#60,.T.);
#448=EDGE_CURVE('',#515,#513,#534,.T.);
#449=EDGE_CURVE('',#484,#490,#61,.T.);
#450=EDGE_CURVE('',#485,#489,#62,.T.);
#451=EDGE_CURVE('',#501,#508,#63,.T.);
#452=EDGE_CURVE('',#512,#502,#64,.T.);
#453=EDGE_CURVE('',#509,#501,#65,.T.);
#454=EDGE_CURVE('',#509,#508,#66,.F.);
#455=EDGE_CURVE('',#507,#510,#67,.F.);
#456=EDGE_CURVE('',#497,#502,#68,.T.);
#457=EDGE_CURVE('',#497,#512,#69,.T.);
#458=EDGE_CURVE('',#511,#498,#70,.T.);
#459=EDGE_CURVE('',#507,#496,#71,.T.);
#460=EDGE_CURVE('',#510,#496,#72,.T.);
#461=EDGE_CURVE('',#511,#495,#73,.T.);
#462=EDGE_CURVE('',#498,#495,#74,.T.);
#463=VERTEX_POINT('',#969);
#464=VERTEX_POINT('',#970);
#465=VERTEX_POINT('',#972);
#466=VERTEX_POINT('',#974);
#467=VERTEX_POINT('',#978);
#468=VERTEX_POINT('',#979);
#469=VERTEX_POINT('',#981);
#470=VERTEX_POINT('',#983);
#471=VERTEX_POINT('',#987);
#472=VERTEX_POINT('',#988);
#473=VERTEX_POINT('',#993);
#474=VERTEX_POINT('',#994);
#475=VERTEX_POINT('',#1002);
#476=VERTEX_POINT('',#1004);
#477=VERTEX_POINT('',#1006);
#478=VERTEX_POINT('',#1008);
#479=VERTEX_POINT('',#1012);
#480=VERTEX_POINT('',#1013);
#481=VERTEX_POINT('',#1016);
#482=VERTEX_POINT('',#1018);
#483=VERTEX_POINT('',#1022);
#484=VERTEX_POINT('',#1023);
#485=VERTEX_POINT('',#1025);
#486=VERTEX_POINT('',#1027);
#487=VERTEX_POINT('',#1031);
#488=VERTEX_POINT('',#1032);
#489=VERTEX_POINT('',#1034);
#490=VERTEX_POINT('',#1036);
#491=VERTEX_POINT('',#1040);
#492=VERTEX_POINT('',#1043);
#493=VERTEX_POINT('',#1046);
#494=VERTEX_POINT('',#1047);
#495=VERTEX_POINT('',#1049);
#496=VERTEX_POINT('',#1051);
#497=VERTEX_POINT('',#1055);
#498=VERTEX_POINT('',#1056);
#499=VERTEX_POINT('',#1058);
#500=VERTEX_POINT('',#1060);
#501=VERTEX_POINT('',#1064);
#502=VERTEX_POINT('',#1065);
#503=VERTEX_POINT('',#1067);
#504=VERTEX_POINT('',#1069);
#505=VERTEX_POINT('',#1073);
#506=VERTEX_POINT('',#1074);
#507=VERTEX_POINT('',#1076);
#508=VERTEX_POINT('',#1078);
#509=VERTEX_POINT('',#1082);
#510=VERTEX_POINT('',#1083);
#511=VERTEX_POINT('',#1085);
#512=VERTEX_POINT('',#1087);
#513=VERTEX_POINT('',#1091);
#514=VERTEX_POINT('',#1100);
#515=VERTEX_POINT('',#1107);
#516=VERTEX_POINT('',#1110);
#517=VERTEX_POINT('',#1120);
#518=VERTEX_POINT('',#1123);
#519=VERTEX_POINT('',#1130);
#520=VERTEX_POINT('',#1139);
#521=B_SPLINE_CURVE_WITH_KNOTS('',3,(#965,#966,#967,#968),.UNSPECIFIED.,
 .F.,.F.,(4,4),(0.,0.000785061159996714),.UNSPECIFIED.);
#522=B_SPLINE_CURVE_WITH_KNOTS('',3,(#1092,#1093,#1094,#1095),
 .UNSPECIFIED.,.F.,.F.,(4,4),(0.,0.000349694371306745),.UNSPECIFIED.);
#523=B_SPLINE_CURVE_WITH_KNOTS('',3,(#1096,#1097,#1098,#1099),
 .UNSPECIFIED.,.F.,.F.,(4,4),(0.,0.000349715915747536),.UNSPECIFIED.);
#524=B_SPLINE_CURVE_WITH_KNOTS('',3,(#1103,#1104,#1105,#1106),
 .UNSPECIFIED.,.F.,.F.,(4,4),(0.,0.000349715915747537),.UNSPECIFIED.);
#525=B_SPLINE_CURVE_WITH_KNOTS('',3,(#1111,#1112,#1113,#1114),
 .UNSPECIFIED.,.F.,.F.,(4,4),(0.,0.000349694371306745),.UNSPECIFIED.);
#526=B_SPLINE_CURVE_WITH_KNOTS('',3,(#1116,#1117,#1118,#1119),
 .UNSPECIFIED.,.F.,.F.,(4,4),(0.,0.000349715915747536),.UNSPECIFIED.);
#527=B_SPLINE_CURVE_WITH_KNOTS('',3,(#1124,#1125,#1126,#1127),
 .UNSPECIFIED.,.F.,.F.,(4,4),(0.,0.000349694371306745),.UNSPECIFIED.);
#528=B_SPLINE_CURVE_WITH_KNOTS('',3,(#1131,#1132,#1133,#1134),
 .UNSPECIFIED.,.F.,.F.,(4,4),(0.,0.000349694371306745),.UNSPECIFIED.);
#529=B_SPLINE_CURVE_WITH_KNOTS('',3,(#1135,#1136,#1137,#1138),
 .UNSPECIFIED.,.F.,.F.,(4,4),(0.,0.000349715915747537),.UNSPECIFIED.);
#530=B_SPLINE_CURVE_WITH_KNOTS('',3,(#1142,#1143,#1144,#1145),
 .UNSPECIFIED.,.F.,.F.,(4,4),(0.,0.000785061159996714),.UNSPECIFIED.);
#531=B_SPLINE_CURVE_WITH_KNOTS('',3,(#1168,#1169,#1170,#1171),
 .UNSPECIFIED.,.F.,.F.,(4,4),(0.,8.35418587038114E-5),.UNSPECIFIED.);
#532=B_SPLINE_CURVE_WITH_KNOTS('',3,(#1196,#1197,#1198,#1199),
 .UNSPECIFIED.,.F.,.F.,(4,4),(0.,8.35418587038114E-5),.UNSPECIFIED.);
#533=B_SPLINE_CURVE_WITH_KNOTS('',3,(#1221,#1222,#1223,#1224),
 .UNSPECIFIED.,.F.,.F.,(4,4),(0.,8.35418587038114E-5),.UNSPECIFIED.);
#534=B_SPLINE_CURVE_WITH_KNOTS('',3,(#1249,#1250,#1251,#1252),
 .UNSPECIFIED.,.F.,.F.,(4,4),(0.,8.35418587038114E-5),.UNSPECIFIED.);
#535=EDGE_LOOP('',(#175,#176,#177,#178));
#536=EDGE_LOOP('',(#179,#180,#181,#182));
#537=EDGE_LOOP('',(#183,#184,#185,#186));
#538=EDGE_LOOP('',(#187,#188,#189,#190));
#539=EDGE_LOOP('',(#191,#192,#193,#194));
#540=EDGE_LOOP('',(#195,#196,#197,#198,#199,#200));
#541=EDGE_LOOP('',(#201,#202,#203,#204,#205,#206));
#542=EDGE_LOOP('',(#207,#208,#209,#210));
#543=EDGE_LOOP('',(#211,#212,#213,#214));
#544=EDGE_LOOP('',(#215,#216,#217,#218));
#545=EDGE_LOOP('',(#219));
#546=EDGE_LOOP('',(#220));
#547=EDGE_LOOP('',(#221));
#548=EDGE_LOOP('',(#222,#223,#224,#225));
#549=EDGE_LOOP('',(#226,#227,#228,#229));
#550=EDGE_LOOP('',(#230,#231,#232,#233));
#551=EDGE_LOOP('',(#234,#235,#236,#237));
#552=EDGE_LOOP('',(#238,#239,#240,#241));
#553=EDGE_LOOP('',(#242,#243,#244,#245));
#554=EDGE_LOOP('',(#246,#247,#248,#249,#250,#251));
#555=EDGE_LOOP('',(#252,#253,#254,#255,#256,#257));
#556=EDGE_LOOP('',(#258,#259,#260,#261,#262,#263));
#557=EDGE_LOOP('',(#264,#265,#266,#267,#268,#269));
#558=EDGE_LOOP('',(#270,#271,#272,#273));
#559=EDGE_LOOP('',(#274,#275,#276,#277));
#560=EDGE_LOOP('',(#278,#279,#280,#281));
#561=EDGE_LOOP('',(#282,#283,#284,#285));
#562=EDGE_LOOP('',(#286,#287,#288,#289));
#563=EDGE_LOOP('',(#290,#291,#292,#293));
#564=EDGE_LOOP('',(#294,#295,#296,#297));
#565=EDGE_LOOP('',(#298,#299,#300,#301));
#566=EDGE_LOOP('',(#302,#303,#304,#305,#306,#307));
#567=EDGE_LOOP('',(#308,#309,#310,#311));
#568=EDGE_LOOP('',(#312,#313,#314));
#569=EDGE_LOOP('',(#315,#316,#317,#318));
#570=EDGE_LOOP('',(#319,#320,#321,#322,#323,#324));
#571=EDGE_LOOP('',(#325,#326,#327));
#572=EDGE_LOOP('',(#328,#329,#330,#331));
#573=EDGE_LOOP('',(#332,#333,#334,#335,#336,#337));
#574=EDGE_LOOP('',(#338,#339,#340));
#575=EDGE_LOOP('',(#341,#342,#343,#344));
#576=EDGE_LOOP('',(#345,#346,#347));
#577=EDGE_LOOP('',(#348,#349,#350,#351,#352,#353));
#578=EDGE_LOOP('',(#354,#355,#356,#357));
#579=EDGE_LOOP('',(#358));
#580=EDGE_LOOP('',(#359,#360,#361,#362,#363,#364,#365,#366));
#581=FACE_BOUND('',#535,.T.);
#582=FACE_BOUND('',#536,.T.);
#583=FACE_BOUND('',#537,.T.);
#584=FACE_BOUND('',#538,.T.);
#585=FACE_BOUND('',#539,.T.);
#586=FACE_BOUND('',#540,.T.);
#587=FACE_BOUND('',#541,.T.);
#588=FACE_BOUND('',#542,.T.);
#589=FACE_BOUND('',#543,.T.);
#590=FACE_BOUND('',#544,.T.);
#591=FACE_BOUND('',#545,.T.);
#592=FACE_BOUND('',#546,.T.);
#593=FACE_BOUND('',#547,.T.);
#594=FACE_BOUND('',#548,.T.);
#595=FACE_BOUND('',#549,.T.);
#596=FACE_BOUND('',#550,.T.);
#597=FACE_BOUND('',#551,.T.);
#598=FACE_BOUND('',#552,.T.);
#599=FACE_BOUND('',#553,.T.);
#600=FACE_BOUND('',#554,.T.);
#601=FACE_BOUND('',#555,.T.);
#602=FACE_BOUND('',#556,.T.);
#603=FACE_BOUND('',#557,.T.);
#604=FACE_BOUND('',#558,.T.);
#605=FACE_BOUND('',#559,.T.);
#606=FACE_BOUND('',#560,.T.);
#607=FACE_BOUND('',#561,.T.);
#608=FACE_BOUND('',#562,.T.);
#609=FACE_BOUND('',#563,.T.);
#610=FACE_BOUND('',#564,.T.);
#611=FACE_BOUND('',#565,.T.);
#612=FACE_BOUND('',#566,.T.);
#613=FACE_BOUND('',#567,.T.);
#614=FACE_BOUND('',#568,.T.);
#615=FACE_BOUND('',#569,.T.);
#616=FACE_BOUND('',#570,.T.);
#617=FACE_BOUND('',#571,.T.);
#618=FACE_BOUND('',#572,.T.);
#619=FACE_BOUND('',#573,.T.);
#620=FACE_BOUND('',#574,.T.);
#621=FACE_BOUND('',#575,.T.);
#622=FACE_BOUND('',#576,.T.);
#623=FACE_BOUND('',#577,.T.);
#624=FACE_BOUND('',#578,.T.);
#625=FACE_BOUND('',#579,.T.);
#626=FACE_BOUND('',#580,.T.);
#627=CYLINDRICAL_SURFACE('',#701,0.5);
#628=CYLINDRICAL_SURFACE('',#715,2.);
#629=CYLINDRICAL_SURFACE('',#722,1.);
#630=CYLINDRICAL_SURFACE('',#725,1.);
#631=CYLINDRICAL_SURFACE('',#728,1.);
#632=CYLINDRICAL_SURFACE('',#731,1.);
#633=CYLINDRICAL_SURFACE('',#734,0.5);
#634=CYLINDRICAL_SURFACE('',#736,0.5);
#635=CYLINDRICAL_SURFACE('',#740,0.5);
#636=CYLINDRICAL_SURFACE('',#743,0.5);
#637=CYLINDRICAL_SURFACE('',#745,0.500000000000001);
#638=CYLINDRICAL_SURFACE('',#747,0.500000000000001);
#639=CYLINDRICAL_SURFACE('',#752,0.500000000000001);
#640=CYLINDRICAL_SURFACE('',#754,0.500000000000001);
#641=CYLINDRICAL_SURFACE('',#758,0.500000000000001);
#642=CYLINDRICAL_SURFACE('',#760,0.500000000000001);
#643=CYLINDRICAL_SURFACE('',#764,0.500000000000001);
#644=CYLINDRICAL_SURFACE('',#768,0.500000000000001);
#645=CYLINDRICAL_SURFACE('',#769,3.25);
#646=ADVANCED_FACE('',(#581),#627,.T.);
#647=ADVANCED_FACE('',(#582),#38,.T.);
#648=ADVANCED_FACE('',(#583),#39,.T.);
#649=ADVANCED_FACE('',(#584),#40,.T.);
#650=ADVANCED_FACE('',(#585),#41,.T.);
#651=ADVANCED_FACE('',(#586),#42,.F.);
#652=ADVANCED_FACE('',(#587),#43,.F.);
#653=ADVANCED_FACE('',(#588),#44,.F.);
#654=ADVANCED_FACE('',(#589),#45,.F.);
#655=ADVANCED_FACE('',(#590,#591),#46,.F.);
#656=ADVANCED_FACE('',(#592,#593),#628,.F.);
#657=ADVANCED_FACE('',(#594),#47,.T.);
#658=ADVANCED_FACE('',(#595),#48,.T.);
#659=ADVANCED_FACE('',(#596),#49,.T.);
#660=ADVANCED_FACE('',(#597),#50,.T.);
#661=ADVANCED_FACE('',(#598,#599),#51,.T.);
#662=ADVANCED_FACE('',(#600),#629,.F.);
#663=ADVANCED_FACE('',(#601),#630,.F.);
#664=ADVANCED_FACE('',(#602),#631,.F.);
#665=ADVANCED_FACE('',(#603),#632,.F.);
#666=ADVANCED_FACE('',(#604),#633,.T.);
#667=ADVANCED_FACE('',(#605),#24,.T.);
#668=ADVANCED_FACE('',(#606),#634,.T.);
#669=ADVANCED_FACE('',(#607),#25,.T.);
#670=ADVANCED_FACE('',(#608),#26,.T.);
#671=ADVANCED_FACE('',(#609),#635,.T.);
#672=ADVANCED_FACE('',(#610),#27,.T.);
#673=ADVANCED_FACE('',(#611),#636,.T.);
#674=ADVANCED_FACE('',(#612),#637,.T.);
#675=ADVANCED_FACE('',(#613),#638,.T.);
#676=ADVANCED_FACE('',(#614),#20,.T.);
#677=ADVANCED_FACE('',(#615),#639,.T.);
#678=ADVANCED_FACE('',(#616),#640,.T.);
#679=ADVANCED_FACE('',(#617),#21,.T.);
#680=ADVANCED_FACE('',(#618),#641,.T.);
#681=ADVANCED_FACE('',(#619),#642,.T.);
#682=ADVANCED_FACE('',(#620),#22,.T.);
#683=ADVANCED_FACE('',(#621),#643,.T.);
#684=ADVANCED_FACE('',(#622),#23,.T.);
#685=ADVANCED_FACE('',(#623),#644,.T.);
#686=ADVANCED_FACE('',(#624),#645,.F.);
#687=ADVANCED_FACE('',(#625,#626),#52,.T.);
#688=CLOSED_SHELL('',(#646,#647,#648,#649,#650,#651,#652,#653,#654,#655,
#656,#657,#658,#659,#660,#661,#662,#663,#664,#665,#666,#667,#668,#669,#670,
#671,#672,#673,#674,#675,#676,#677,#678,#679,#680,#681,#682,#683,#684,#685,
#686,#687));
#689=STYLED_ITEM('',(#690),#697);
#690=PRESENTATION_STYLE_ASSIGNMENT((#691));
#691=SURFACE_STYLE_USAGE(.BOTH.,#692);
#692=SURFACE_SIDE_STYLE('',(#693));
#693=SURFACE_STYLE_FILL_AREA(#694);
#694=FILL_AREA_STYLE('',(#695));
#695=FILL_AREA_STYLE_COLOUR('',#696);
#696=COLOUR_RGB('',0.506983280181885,0.531564235687256,0.550000011920929);
#697=MANIFOLD_SOLID_BREP('',#688);
#698=SHAPE_DEFINITION_REPRESENTATION(#1288,#699);
#699=SHAPE_REPRESENTATION(
'08_FDML_stimfix_square_mirror_support_with_6mm_rod_cutout',(#700),#1283);
#700=AXIS2_PLACEMENT_3D('',#963,#771,#772);
#701=AXIS2_PLACEMENT_3D('',#964,#773,#774);
#702=AXIS2_PLACEMENT_3D('',#973,#776,#777);
#703=AXIS2_PLACEMENT_3D('',#976,#779,#780);
#704=AXIS2_PLACEMENT_3D('',#985,#785,#786);
#705=AXIS2_PLACEMENT_3D('',#991,#790,#791);
#706=AXIS2_PLACEMENT_3D('',#997,#795,#796);
#707=AXIS2_PLACEMENT_3D('',#1000,#799,#800);
#708=AXIS2_PLACEMENT_3D('',#1001,#801,#802);
#709=AXIS2_PLACEMENT_3D('',#1010,#807,#808);
#710=AXIS2_PLACEMENT_3D('',#1014,#810,#811);
#711=AXIS2_PLACEMENT_3D('',#1020,#815,#816);
#712=AXIS2_PLACEMENT_3D('',#1029,#821,#822);
#713=AXIS2_PLACEMENT_3D('',#1038,#827,#828);
#714=AXIS2_PLACEMENT_3D('',#1039,#829,#830);
#715=AXIS2_PLACEMENT_3D('',#1041,#831,#832);
#716=AXIS2_PLACEMENT_3D('',#1042,#833,#834);
#717=AXIS2_PLACEMENT_3D('',#1044,#835,#836);
#718=AXIS2_PLACEMENT_3D('',#1053,#841,#842);
#719=AXIS2_PLACEMENT_3D('',#1062,#847,#848);
#720=AXIS2_PLACEMENT_3D('',#1071,#853,#854);
#721=AXIS2_PLACEMENT_3D('',#1080,#859,#860);
#722=AXIS2_PLACEMENT_3D('',#1089,#865,#866);
#723=AXIS2_PLACEMENT_3D('',#1090,#867,#868);
#724=AXIS2_PLACEMENT_3D('',#1101,#869,#870);
#725=AXIS2_PLACEMENT_3D('',#1102,#871,#872);
#726=AXIS2_PLACEMENT_3D('',#1108,#873,#874);
#727=AXIS2_PLACEMENT_3D('',#1109,#875,#876);
#728=AXIS2_PLACEMENT_3D('',#1115,#877,#878);
#729=AXIS2_PLACEMENT_3D('',#1121,#879,#880);
#730=AXIS2_PLACEMENT_3D('',#1122,#881,#882);
#731=AXIS2_PLACEMENT_3D('',#1128,#883,#884);
#732=AXIS2_PLACEMENT_3D('',#1129,#885,#886);
#733=AXIS2_PLACEMENT_3D('',#1140,#887,#888);
#734=AXIS2_PLACEMENT_3D('',#1141,#889,#890);
#735=AXIS2_PLACEMENT_3D('',#1146,#891,#892);
#736=AXIS2_PLACEMENT_3D('',#1172,#893,#894);
#737=AXIS2_PLACEMENT_3D('',#1173,#895,#896);
#738=AXIS2_PLACEMENT_3D('',#1174,#897,#898);
#739=AXIS2_PLACEMENT_3D('',#1225,#899,#900);
#740=AXIS2_PLACEMENT_3D('',#1226,#901,#902);
#741=AXIS2_PLACEMENT_3D('',#1227,#903,#904);
#742=AXIS2_PLACEMENT_3D('',#1253,#905,#906);
#743=AXIS2_PLACEMENT_3D('',#1254,#907,#908);
#744=AXIS2_PLACEMENT_3D('',#1255,#909,#910);
#745=AXIS2_PLACEMENT_3D('',#1256,#911,#912);
#746=AXIS2_PLACEMENT_3D('',#1257,#913,#914);
#747=AXIS2_PLACEMENT_3D('',#1258,#915,#916);
#748=AXIS2_PLACEMENT_3D('',#1259,#917,#918);
#749=AXIS2_PLACEMENT_3D('',#1260,#919,#920);
#750=AXIS2_PLACEMENT_3D('',#1261,#921,#922);
#751=AXIS2_PLACEMENT_3D('',#1262,#923,#924);
#752=AXIS2_PLACEMENT_3D('',#1263,#925,#926);
#753=AXIS2_PLACEMENT_3D('',#1264,#927,#928);
#754=AXIS2_PLACEMENT_3D('',#1265,#929,#930);
#755=AXIS2_PLACEMENT_3D('',#1266,#931,#932);
#756=AXIS2_PLACEMENT_3D('',#1267,#933,#934);
#757=AXIS2_PLACEMENT_3D('',#1268,#935,#936);
#758=AXIS2_PLACEMENT_3D('',#1269,#937,#938);
#759=AXIS2_PLACEMENT_3D('',#1270,#939,#940);
#760=AXIS2_PLACEMENT_3D('',#1271,#941,#942);
#761=AXIS2_PLACEMENT_3D('',#1272,#943,#944);
#762=AXIS2_PLACEMENT_3D('',#1273,#945,#946);
#763=AXIS2_PLACEMENT_3D('',#1274,#947,#948);
#764=AXIS2_PLACEMENT_3D('',#1275,#949,#950);
#765=AXIS2_PLACEMENT_3D('',#1276,#951,#952);
#766=AXIS2_PLACEMENT_3D('',#1277,#953,#954);
#767=AXIS2_PLACEMENT_3D('',#1278,#955,#956);
#768=AXIS2_PLACEMENT_3D('',#1279,#957,#958);
#769=AXIS2_PLACEMENT_3D('',#1280,#959,#960);
#770=AXIS2_PLACEMENT_3D('',#1281,#961,#962);
#771=DIRECTION('',(0.,0.,1.));
#772=DIRECTION('',(1.,0.,0.));
#773=DIRECTION('',(0.,0.,-1.));
#774=DIRECTION('',(-1.,0.,0.));
#775=DIRECTION('',(0.,0.,-1.));
#776=DIRECTION('',(0.,0.,-1.));
#777=DIRECTION('',(-1.,0.,0.));
#778=DIRECTION('',(0.,0.,-1.));
#779=DIRECTION('',(0.,-1.,0.));
#780=DIRECTION('',(0.,0.,-1.));
#781=DIRECTION('',(0.,0.,1.));
#782=DIRECTION('',(1.,0.,0.));
#783=DIRECTION('',(0.,0.,1.));
#784=DIRECTION('',(1.,0.,0.));
#785=DIRECTION('',(1.,0.,0.));
#786=DIRECTION('',(0.,0.,-1.));
#787=DIRECTION('',(0.,0.,1.));
#788=DIRECTION('',(0.,1.,0.));
#789=DIRECTION('',(0.,1.,0.));
#790=DIRECTION('',(0.,1.,0.));
#791=DIRECTION('',(0.,0.,1.));
#792=DIRECTION('',(0.,0.,1.));
#793=DIRECTION('',(-1.,0.,0.));
#794=DIRECTION('',(-1.,0.,0.));
#795=DIRECTION('',(-1.,0.,0.));
#796=DIRECTION('',(0.,0.,1.));
#797=DIRECTION('',(0.,-1.,0.));
#798=DIRECTION('',(0.,-1.,0.));
#799=DIRECTION('',(0.,1.,0.));
#800=DIRECTION('',(0.,0.,1.));
#801=DIRECTION('',(0.,1.,0.));
#802=DIRECTION('',(1.,0.,0.));
#803=DIRECTION('',(0.,0.,-1.));
#804=DIRECTION('',(1.,0.,0.));
#805=DIRECTION('',(0.,0.,-1.));
#806=DIRECTION('',(1.,0.,0.));
#807=DIRECTION('',(-1.,0.,0.));
#808=DIRECTION('',(0.,0.,1.));
#809=DIRECTION('',(0.,0.,-1.));
#810=DIRECTION('',(-1.,0.,0.));
#811=DIRECTION('',(0.,1.,0.));
#812=DIRECTION('',(0.,1.,0.));
#813=DIRECTION('',(0.,0.,-1.));
#814=DIRECTION('',(0.,1.,0.));
#815=DIRECTION('',(0.,-1.,0.));
#816=DIRECTION('',(0.,0.,-1.));
#817=DIRECTION('',(-1.,0.,0.));
#818=DIRECTION('',(0.,0.,-1.));
#819=DIRECTION('',(-1.,0.,0.));
#820=DIRECTION('',(0.,0.,-1.));
#821=DIRECTION('',(1.,0.,0.));
#822=DIRECTION('',(0.,0.,-1.));
#823=DIRECTION('',(0.,0.,-1.));
#824=DIRECTION('',(0.,-1.,0.));
#825=DIRECTION('',(0.,0.,-1.));
#826=DIRECTION('',(0.,-1.,0.));
#827=DIRECTION('',(0.,0.,1.));
#828=DIRECTION('',(1.,0.,0.));
#829=DIRECTION('',(0.,0.,1.));
#830=DIRECTION('',(1.,0.,0.));
#831=DIRECTION('',(0.,0.,1.));
#832=DIRECTION('',(1.,0.,0.));
#833=DIRECTION('',(0.,0.,-1.));
#834=DIRECTION('',(1.,0.,0.));
#835=DIRECTION('',(-1.,0.,0.));
#836=DIRECTION('',(0.,0.,1.));
#837=DIRECTION('',(0.,1.,0.));
#838=DIRECTION('',(0.,0.,-1.));
#839=DIRECTION('',(0.,1.,0.));
#840=DIRECTION('',(0.,0.,-1.));
#841=DIRECTION('',(0.,1.,0.));
#842=DIRECTION('',(0.,0.,1.));
#843=DIRECTION('',(1.,0.,0.));
#844=DIRECTION('',(0.,0.,-1.));
#845=DIRECTION('',(1.,0.,0.));
#846=DIRECTION('',(0.,0.,-1.));
#847=DIRECTION('',(1.,0.,0.));
#848=DIRECTION('',(0.,0.,-1.));
#849=DIRECTION('',(0.,-1.,0.));
#850=DIRECTION('',(0.,0.,-1.));
#851=DIRECTION('',(0.,-1.,0.));
#852=DIRECTION('',(0.,0.,-1.));
#853=DIRECTION('',(0.,-1.,0.));
#854=DIRECTION('',(0.,0.,-1.));
#855=DIRECTION('',(-1.,0.,0.));
#856=DIRECTION('',(0.,0.,-1.));
#857=DIRECTION('',(-1.,0.,0.));
#858=DIRECTION('',(0.,0.,-1.));
#859=DIRECTION('',(0.,0.,-1.));
#860=DIRECTION('',(-1.,0.,0.));
#861=DIRECTION('',(-1.,0.,0.));
#862=DIRECTION('',(0.,1.,0.));
#863=DIRECTION('',(1.,0.,0.));
#864=DIRECTION('',(0.,-1.,0.));
#865=DIRECTION('',(0.,1.,0.));
#866=DIRECTION('',(0.,0.,1.));
#867=DIRECTION('',(-0.832050294337843,-0.554700196225229,0.));
#868=DIRECTION('',(-0.554700196225229,0.832050294337843,0.));
#869=DIRECTION('',(0.832050294337843,-0.554700196225229,0.));
#870=DIRECTION('',(0.554700196225229,0.832050294337843,0.));
#871=DIRECTION('',(1.,0.,0.));
#872=DIRECTION('',(0.,0.,-1.));
#873=DIRECTION('',(-0.554700196225229,-0.832050294337844,0.));
#874=DIRECTION('',(-0.832050294337844,0.554700196225229,0.));
#875=DIRECTION('',(-0.554700196225229,0.832050294337844,0.));
#876=DIRECTION('',(-0.832050294337844,-0.554700196225229,0.));
#877=DIRECTION('',(0.,-1.,0.));
#878=DIRECTION('',(0.,0.,-1.));
#879=DIRECTION('',(-0.832050294337843,0.554700196225229,0.));
#880=DIRECTION('',(-0.554700196225229,-0.832050294337843,0.));
#881=DIRECTION('',(0.832050294337843,0.554700196225229,0.));
#882=DIRECTION('',(-0.554700196225229,0.832050294337843,0.));
#883=DIRECTION('',(-1.,0.,0.));
#884=DIRECTION('',(0.,0.,1.));
#885=DIRECTION('',(0.554700196225229,-0.832050294337844,0.));
#886=DIRECTION('',(0.832050294337844,0.554700196225229,0.));
#887=DIRECTION('',(0.554700196225229,0.832050294337844,0.));
#888=DIRECTION('',(-0.832050294337844,0.554700196225229,0.));
#889=DIRECTION('',(0.,0.,-1.));
#890=DIRECTION('',(-1.,0.,0.));
#891=DIRECTION('',(0.,0.,1.));
#892=DIRECTION('',(1.,0.,0.));
#893=DIRECTION('',(0.,0.,-1.));
#894=DIRECTION('',(-1.,0.,0.));
#895=DIRECTION('',(0.,0.,1.));
#896=DIRECTION('',(1.,0.,0.));
#897=DIRECTION('',(0.,0.,-1.));
#898=DIRECTION('',(-1.,0.,0.));
#899=DIRECTION('',(0.,0.,1.));
#900=DIRECTION('',(1.,0.,0.));
#901=DIRECTION('',(0.,0.,-1.));
#902=DIRECTION('',(-1.,0.,0.));
#903=DIRECTION('',(0.,0.,1.));
#904=DIRECTION('',(1.,0.,0.));
#905=DIRECTION('',(0.,0.,1.));
#906=DIRECTION('',(1.,0.,0.));
#907=DIRECTION('',(0.,0.,-1.));
#908=DIRECTION('',(-1.,0.,0.));
#909=DIRECTION('',(0.,0.,1.));
#910=DIRECTION('',(1.,0.,0.));
#911=DIRECTION('',(0.,0.,-1.));
#912=DIRECTION('',(-1.,0.,0.));
#913=DIRECTION('',(0.,0.,-1.));
#914=DIRECTION('',(-1.,0.,0.));
#915=DIRECTION('',(0.,-1.,0.));
#916=DIRECTION('',(0.,0.,-1.));
#917=DIRECTION('',(0.,-1.,0.));
#918=DIRECTION('',(0.,0.,-1.));
#919=DIRECTION('',(0.,-1.,0.));
#920=DIRECTION('',(0.,0.,-1.));
#921=DIRECTION('',(1.,0.,0.));
#922=DIRECTION('',(0.,0.,-1.));
#923=DIRECTION('',(1.,0.,0.));
#924=DIRECTION('',(0.,0.,-1.));
#925=DIRECTION('',(-1.,0.,0.));
#926=DIRECTION('',(0.,0.,1.));
#927=DIRECTION('',(-1.,0.,0.));
#928=DIRECTION('',(0.,0.,1.));
#929=DIRECTION('',(0.,0.,-1.));
#930=DIRECTION('',(-1.,0.,0.));
#931=DIRECTION('',(-4.33680868994201E-16,0.,-1.));
#932=DIRECTION('',(-1.,0.,4.33680868994201E-16));
#933=DIRECTION('',(0.,1.,0.));
#934=DIRECTION('',(0.,0.,1.));
#935=DIRECTION('',(-1.,0.,0.));
#936=DIRECTION('',(0.,0.,1.));
#937=DIRECTION('',(1.,0.,0.));
#938=DIRECTION('',(0.,0.,-1.));
#939=DIRECTION('',(1.,0.,0.));
#940=DIRECTION('',(0.,0.,-1.));
#941=DIRECTION('',(0.,0.,-1.));
#942=DIRECTION('',(-1.,0.,0.));
#943=DIRECTION('',(0.,0.,-1.));
#944=DIRECTION('',(-1.,0.,0.));
#945=DIRECTION('',(-1.,0.,0.));
#946=DIRECTION('',(0.,0.,1.));
#947=DIRECTION('',(0.,1.,0.));
#948=DIRECTION('',(0.,0.,1.));
#949=DIRECTION('',(0.,1.,0.));
#950=DIRECTION('',(0.,0.,1.));
#951=DIRECTION('',(0.,1.,0.));
#952=DIRECTION('',(0.,0.,1.));
#953=DIRECTION('',(-1.,0.,0.));
#954=DIRECTION('',(0.,0.,1.));
#955=DIRECTION('',(0.,4.33680868994201E-16,1.));
#956=DIRECTION('',(0.,-1.,4.33680868994201E-16));
#957=DIRECTION('',(0.,0.,-1.));
#958=DIRECTION('',(-1.,0.,0.));
#959=DIRECTION('',(0.707106781186547,0.707106781186548,0.));
#960=DIRECTION('',(-0.707106781186548,0.707106781186547,0.));
#961=DIRECTION('',(0.,0.,1.));
#962=DIRECTION('',(1.,0.,0.));
#963=CARTESIAN_POINT('',(0.,0.,0.));
#964=CARTESIAN_POINT('',(10.17,-3.055,30.64));
#965=CARTESIAN_POINT('',(10.17,-3.555,10.98));
#966=CARTESIAN_POINT('',(10.4312354764682,-3.555,10.9330866344388));
#967=CARTESIAN_POINT('',(10.67,-3.31624971414664,10.9330840775984));
#968=CARTESIAN_POINT('',(10.67,-3.055,10.98));
#969=CARTESIAN_POINT('',(10.17,-3.555,10.98));
#970=CARTESIAN_POINT('',(10.67,-3.055,10.98));
#971=CARTESIAN_POINT('',(10.17,-3.555,30.64));
#972=CARTESIAN_POINT('',(10.17,-3.555,3.));
#973=CARTESIAN_POINT('',(10.17,-3.055,3.));
#974=CARTESIAN_POINT('',(10.67,-3.055,3.));
#975=CARTESIAN_POINT('',(10.67,-3.055,30.64));
#976=CARTESIAN_POINT('',(-10.67,3.555,-5.));
#977=CARTESIAN_POINT('',(-10.67,3.555,-5.));
#978=CARTESIAN_POINT('',(-10.67,3.555,-2.));
#979=CARTESIAN_POINT('',(-10.67,3.555,0.));
#980=CARTESIAN_POINT('',(-10.67,3.555,-2.));
#981=CARTESIAN_POINT('',(10.67,3.555,-2.));
#982=CARTESIAN_POINT('',(10.67,3.555,-5.));
#983=CARTESIAN_POINT('',(10.67,3.555,0.));
#984=CARTESIAN_POINT('',(-10.67,3.555,0.));
#985=CARTESIAN_POINT('',(-10.67,-3.555,-5.));
#986=CARTESIAN_POINT('',(-10.67,-3.555,-5.));
#987=CARTESIAN_POINT('',(-10.67,-3.555,-2.));
#988=CARTESIAN_POINT('',(-10.67,-3.555,0.));
#989=CARTESIAN_POINT('',(-10.67,-3.555,-2.));
#990=CARTESIAN_POINT('',(-10.67,-3.555,0.));
#991=CARTESIAN_POINT('',(10.67,-3.555,-5.));
#992=CARTESIAN_POINT('',(10.67,-3.555,-5.));
#993=CARTESIAN_POINT('',(10.67,-3.555,-2.));
#994=CARTESIAN_POINT('',(10.67,-3.555,0.));
#995=CARTESIAN_POINT('',(10.67,-3.555,-2.));
#996=CARTESIAN_POINT('',(10.67,-3.555,0.));
#997=CARTESIAN_POINT('',(10.67,3.555,-5.));
#998=CARTESIAN_POINT('',(10.67,3.555,-2.));
#999=CARTESIAN_POINT('',(10.67,3.555,0.));
#1000=CARTESIAN_POINT('',(-10.67,-3.555,30.64));
#1001=CARTESIAN_POINT('',(11.3013708498985,-3.555,14.13));
#1002=CARTESIAN_POINT('',(10.17,-3.555,17.28));
#1003=CARTESIAN_POINT('',(10.17,-3.555,30.64));
#1004=CARTESIAN_POINT('',(10.17,-3.555,33.64));
#1005=CARTESIAN_POINT('',(-10.17,-3.555,33.64));
#1006=CARTESIAN_POINT('',(-10.17,-3.555,33.64));
#1007=CARTESIAN_POINT('',(-10.17,-3.555,30.64));
#1008=CARTESIAN_POINT('',(-10.17,-3.555,3.));
#1009=CARTESIAN_POINT('',(10.67,-3.555,3.));
#1010=CARTESIAN_POINT('',(10.67,-3.555,30.64));
#1011=CARTESIAN_POINT('',(10.67,-3.055,30.64));
#1012=CARTESIAN_POINT('',(10.67,-3.055,33.64));
#1013=CARTESIAN_POINT('',(10.67,-3.055,17.28));
#1014=CARTESIAN_POINT('',(10.67,-4.18637084989847,14.13));
#1015=CARTESIAN_POINT('',(10.67,3.555,3.));
#1016=CARTESIAN_POINT('',(10.67,3.055,3.));
#1017=CARTESIAN_POINT('',(10.67,3.055,30.64));
#1018=CARTESIAN_POINT('',(10.67,3.055,33.64));
#1019=CARTESIAN_POINT('',(10.67,-3.055,33.64));
#1020=CARTESIAN_POINT('',(10.67,3.555,30.64));
#1021=CARTESIAN_POINT('',(-11.67,3.555,3.));
#1022=CARTESIAN_POINT('',(10.17,3.555,3.));
#1023=CARTESIAN_POINT('',(-10.17,3.555,3.));
#1024=CARTESIAN_POINT('',(-10.17,3.555,30.64));
#1025=CARTESIAN_POINT('',(-10.17,3.555,33.64));
#1026=CARTESIAN_POINT('',(10.17,3.555,33.64));
#1027=CARTESIAN_POINT('',(10.17,3.555,33.64));
#1028=CARTESIAN_POINT('',(10.17,3.555,30.64));
#1029=CARTESIAN_POINT('',(-10.67,3.555,30.64));
#1030=CARTESIAN_POINT('',(-10.67,-3.055,30.64));
#1031=CARTESIAN_POINT('',(-10.67,-3.055,3.));
#1032=CARTESIAN_POINT('',(-10.67,-3.055,33.64));
#1033=CARTESIAN_POINT('',(-10.67,3.055,33.64));
#1034=CARTESIAN_POINT('',(-10.67,3.055,33.64));
#1035=CARTESIAN_POINT('',(-10.67,3.055,30.64));
#1036=CARTESIAN_POINT('',(-10.67,3.055,3.));
#1037=CARTESIAN_POINT('',(-10.67,-3.555,3.));
#1038=CARTESIAN_POINT('',(0.,0.,0.));
#1039=CARTESIAN_POINT('',(0.,0.,0.));
#1040=CARTESIAN_POINT('',(2.,0.,0.));
#1041=CARTESIAN_POINT('',(0.,0.,-6.37972691850062));
#1042=CARTESIAN_POINT('',(0.,0.,33.64));
#1043=CARTESIAN_POINT('',(2.,0.,33.64));
#1044=CARTESIAN_POINT('',(-11.67,-4.555,2.));
#1045=CARTESIAN_POINT('',(-11.67,-4.555,2.));
#1046=CARTESIAN_POINT('',(-11.67,-4.055,2.));
#1047=CARTESIAN_POINT('',(-11.67,4.055,2.));
#1048=CARTESIAN_POINT('',(-11.67,4.055,2.));
#1049=CARTESIAN_POINT('',(-11.67,4.055,-1.5));
#1050=CARTESIAN_POINT('',(-11.67,-4.555,-1.5));
#1051=CARTESIAN_POINT('',(-11.67,-4.055,-1.5));
#1052=CARTESIAN_POINT('',(-11.67,-4.055,2.));
#1053=CARTESIAN_POINT('',(-11.67,4.555,2.));
#1054=CARTESIAN_POINT('',(-11.67,4.555,-1.5));
#1055=CARTESIAN_POINT('',(11.17,4.555,-1.5));
#1056=CARTESIAN_POINT('',(-11.17,4.555,-1.5));
#1057=CARTESIAN_POINT('',(-11.17,4.555,2.));
#1058=CARTESIAN_POINT('',(-11.17,4.555,2.));
#1059=CARTESIAN_POINT('',(-11.67,4.555,2.));
#1060=CARTESIAN_POINT('',(11.17,4.555,2.));
#1061=CARTESIAN_POINT('',(11.17,4.555,2.));
#1062=CARTESIAN_POINT('',(11.67,4.555,2.));
#1063=CARTESIAN_POINT('',(11.67,4.555,-1.5));
#1064=CARTESIAN_POINT('',(11.67,-4.055,-1.5));
#1065=CARTESIAN_POINT('',(11.67,4.055,-1.5));
#1066=CARTESIAN_POINT('',(11.67,4.055,2.));
#1067=CARTESIAN_POINT('',(11.67,4.055,2.));
#1068=CARTESIAN_POINT('',(11.67,4.555,2.));
#1069=CARTESIAN_POINT('',(11.67,-4.055,2.));
#1070=CARTESIAN_POINT('',(11.67,-4.055,2.));
#1071=CARTESIAN_POINT('',(11.67,-4.555,2.));
#1072=CARTESIAN_POINT('',(11.67,-4.555,2.));
#1073=CARTESIAN_POINT('',(11.17,-4.555,2.));
#1074=CARTESIAN_POINT('',(-11.17,-4.555,2.));
#1075=CARTESIAN_POINT('',(-11.17,-4.555,2.));
#1076=CARTESIAN_POINT('',(-11.17,-4.555,-1.5));
#1077=CARTESIAN_POINT('',(11.67,-4.555,-1.5));
#1078=CARTESIAN_POINT('',(11.17,-4.555,-1.5));
#1079=CARTESIAN_POINT('',(11.17,-4.555,2.));
#1080=CARTESIAN_POINT('',(0.,0.,-2.));
#1081=CARTESIAN_POINT('',(0.,-4.055,-2.));
#1082=CARTESIAN_POINT('',(11.17,-4.055,-2.));
#1083=CARTESIAN_POINT('',(-11.17,-4.055,-2.));
#1084=CARTESIAN_POINT('',(-11.17,0.,-2.));
#1085=CARTESIAN_POINT('',(-11.17,4.055,-2.));
#1086=CARTESIAN_POINT('',(0.,4.055,-2.));
#1087=CARTESIAN_POINT('',(11.17,4.055,-2.));
#1088=CARTESIAN_POINT('',(11.17,0.,-2.));
#1089=CARTESIAN_POINT('',(-11.67,3.555,3.));
#1090=CARTESIAN_POINT('',(-11.67,4.555,3.));
#1091=CARTESIAN_POINT('',(-11.5518539703952,4.37778095559282,2.00700376854259));
#1092=CARTESIAN_POINT('',(-11.5518539703952,4.37778095559282,2.00700376854259));
#1093=CARTESIAN_POINT('',(-11.6279911998029,4.28770964611663,1.99794501174708));
#1094=CARTESIAN_POINT('',(-11.67,4.17324420685113,2.));
#1095=CARTESIAN_POINT('',(-11.67,4.055,2.));
#1096=CARTESIAN_POINT('',(-11.67,-4.055,2.));
#1097=CARTESIAN_POINT('',(-11.67,-4.17324304213118,2.));
#1098=CARTESIAN_POINT('',(-11.6279951745506,-4.28770494393968,1.99794453883425));
#1099=CARTESIAN_POINT('',(-11.5518539703952,-4.37778095559282,2.00700376854259));
#1100=CARTESIAN_POINT('',(-11.5518539703952,-4.37778095559282,2.00700376854259));
#1101=CARTESIAN_POINT('',(-11.67,-4.555,3.));
#1102=CARTESIAN_POINT('',(10.67,4.555,3.));
#1103=CARTESIAN_POINT('',(-11.17,4.555,2.));
#1104=CARTESIAN_POINT('',(-11.2882430421312,4.555,2.));
#1105=CARTESIAN_POINT('',(-11.4027049439397,4.51299517455055,1.99794453883425));
#1106=CARTESIAN_POINT('',(-11.4927809555928,4.43685397039521,2.00700376854259));
#1107=CARTESIAN_POINT('',(-11.4927809555928,4.43685397039521,2.00700376854259));
#1108=CARTESIAN_POINT('',(-11.67,4.555,3.));
#1109=CARTESIAN_POINT('',(11.67,4.555,3.));
#1110=CARTESIAN_POINT('',(11.4927809555928,4.43685397039521,2.00700376854259));
#1111=CARTESIAN_POINT('',(11.4927809555928,4.43685397039521,2.00700376854259));
#1112=CARTESIAN_POINT('',(11.4027096461166,4.51299119980291,1.99794501174708));
#1113=CARTESIAN_POINT('',(11.2882442068511,4.555,2.));
#1114=CARTESIAN_POINT('',(11.17,4.555,2.));
#1115=CARTESIAN_POINT('',(11.67,-3.555,3.));
#1116=CARTESIAN_POINT('',(11.67,4.055,2.));
#1117=CARTESIAN_POINT('',(11.67,4.17324304213118,2.));
#1118=CARTESIAN_POINT('',(11.6279951745506,4.28770494393968,1.99794453883425));
#1119=CARTESIAN_POINT('',(11.5518539703952,4.37778095559282,2.00700376854259));
#1120=CARTESIAN_POINT('',(11.5518539703952,4.37778095559282,2.00700376854259));
#1121=CARTESIAN_POINT('',(11.67,4.555,3.));
#1122=CARTESIAN_POINT('',(11.67,-4.555,3.));
#1123=CARTESIAN_POINT('',(11.5518539703952,-4.37778095559282,2.00700376854259));
#1124=CARTESIAN_POINT('',(11.5518539703952,-4.37778095559282,2.00700376854259));
#1125=CARTESIAN_POINT('',(11.6279911998029,-4.28770964611663,1.99794501174708));
#1126=CARTESIAN_POINT('',(11.67,-4.17324420685113,2.));
#1127=CARTESIAN_POINT('',(11.67,-4.055,2.));
#1128=CARTESIAN_POINT('',(-10.67,-4.555,3.));
#1129=CARTESIAN_POINT('',(-11.67,-4.555,3.));
#1130=CARTESIAN_POINT('',(-11.4927809555928,-4.43685397039521,2.00700376854259));
#1131=CARTESIAN_POINT('',(-11.4927809555928,-4.43685397039521,2.00700376854259));
#1132=CARTESIAN_POINT('',(-11.4027096461166,-4.51299119980291,1.99794501174708));
#1133=CARTESIAN_POINT('',(-11.2882442068511,-4.555,2.));
#1134=CARTESIAN_POINT('',(-11.17,-4.555,2.));
#1135=CARTESIAN_POINT('',(11.17,-4.555,2.));
#1136=CARTESIAN_POINT('',(11.2882430421312,-4.555,2.));
#1137=CARTESIAN_POINT('',(11.4027049439397,-4.51299517455055,1.99794453883425));
#1138=CARTESIAN_POINT('',(11.4927809555928,-4.43685397039521,2.00700376854259));
#1139=CARTESIAN_POINT('',(11.4927809555928,-4.43685397039521,2.00700376854259));
#1140=CARTESIAN_POINT('',(11.67,-4.555,3.));
#1141=CARTESIAN_POINT('',(10.17,-3.055,30.64));
#1142=CARTESIAN_POINT('',(10.67,-3.055,17.28));
#1143=CARTESIAN_POINT('',(10.67,-3.3162354764682,17.3269133655612));
#1144=CARTESIAN_POINT('',(10.4312497141466,-3.555,17.3269159224016));
#1145=CARTESIAN_POINT('',(10.17,-3.555,17.28));
#1146=CARTESIAN_POINT('',(10.17,-3.055,33.64));
#1147=CARTESIAN_POINT('',(10.17,-3.555,3.));
#1148=CARTESIAN_POINT('',(10.67,-3.555,3.));
#1149=CARTESIAN_POINT('',(10.67,-3.055,3.));
#1150=CARTESIAN_POINT('',(10.1700000000141,-3.555,2.87816602087196));
#1151=CARTESIAN_POINT('',(10.6699999998113,-3.5549999998106,2.93908314581061));
#1152=CARTESIAN_POINT('',(10.67,-3.05500000001355,2.87816602087196));
#1153=CARTESIAN_POINT('',(10.2375433462705,-3.60002889751801,2.63454059558665));
#1154=CARTESIAN_POINT('',(10.6607331751162,-3.54573317511636,2.81753563975764));
#1155=CARTESIAN_POINT('',(10.715028897518,-3.12254334627072,2.63454059558665));
#1156=CARTESIAN_POINT('',(10.5280978181053,-3.7937318787357,2.31735046079235));
#1157=CARTESIAN_POINT('',(10.7678604280658,-3.65286042806604,2.47173165587119));
#1158=CARTESIAN_POINT('',(10.9087318787356,-3.41309781810525,2.31735046079236));
#1159=CARTESIAN_POINT('',(10.9695235702104,-4.0880157134738,2.09035388119938));
#1160=CARTESIAN_POINT('',(11.0800731700249,-3.96507317002375,2.14260306155135));
#1161=CARTESIAN_POINT('',(11.2030157134741,-3.85452357021017,2.09035388119934));
#1162=CARTESIAN_POINT('',(11.3254679052495,-4.32531193683323,2.01913970927414));
#1163=CARTESIAN_POINT('',(11.3825871798924,-4.26758717989476,2.02879317777472));
#1164=CARTESIAN_POINT('',(11.4403119368325,-4.21046790524997,2.01913970927422));
#1165=CARTESIAN_POINT('',(11.5071384976936,-4.44642566512904,2.00591166699969));
#1166=CARTESIAN_POINT('',(11.5344430195354,-4.41944301953543,2.00885871174524));
#1167=CARTESIAN_POINT('',(11.561425665129,-4.39213849769356,2.00591166699969));
#1168=CARTESIAN_POINT('',(11.4927809555928,-4.43685397039521,2.00700376854259));
#1169=CARTESIAN_POINT('',(11.5141227544105,-4.41881375934462,2.00915018082628));
#1170=CARTESIAN_POINT('',(11.5338137593446,-4.39912275441049,2.00915018082628));
#1171=CARTESIAN_POINT('',(11.5518539703952,-4.37778095559282,2.00700376854259));
#1172=CARTESIAN_POINT('',(10.17,3.055,30.64));
#1173=CARTESIAN_POINT('',(10.17,3.055,33.64));
#1174=CARTESIAN_POINT('',(10.17,3.055,3.));
#1175=CARTESIAN_POINT('',(10.67,3.055,3.));
#1176=CARTESIAN_POINT('',(10.67,3.555,3.));
#1177=CARTESIAN_POINT('',(10.17,3.555,3.));
#1178=CARTESIAN_POINT('',(10.67,3.05500000001355,2.87816602087196));
#1179=CARTESIAN_POINT('',(10.6699999998113,3.5549999998106,2.93908314581061));
#1180=CARTESIAN_POINT('',(10.1700000000141,3.555,2.87816602087196));
#1181=CARTESIAN_POINT('',(10.715028897518,3.12254334627072,2.63454059558665));
#1182=CARTESIAN_POINT('',(10.6607331751162,3.54573317511636,2.81753563975763));
#1183=CARTESIAN_POINT('',(10.2375433462705,3.60002889751801,2.63454059558665));
#1184=CARTESIAN_POINT('',(10.9087318787356,3.41309781810525,2.31735046079236));
#1185=CARTESIAN_POINT('',(10.7678604280658,3.65286042806604,2.47173165587121));
#1186=CARTESIAN_POINT('',(10.5280978181053,3.7937318787357,2.31735046079235));
#1187=CARTESIAN_POINT('',(11.2030157134741,3.85452357021017,2.09035388119934));
#1188=CARTESIAN_POINT('',(11.0800731700249,3.96507317002375,2.1426030615513));
#1189=CARTESIAN_POINT('',(10.9695235702104,4.0880157134738,2.09035388119938));
#1190=CARTESIAN_POINT('',(11.4403119368325,4.21046790524997,2.01913970927422));
#1191=CARTESIAN_POINT('',(11.3825871798924,4.26758717989476,2.02879317777483));
#1192=CARTESIAN_POINT('',(11.3254679052495,4.32531193683323,2.01913970927414));
#1193=CARTESIAN_POINT('',(11.561425665129,4.39213849769356,2.00591166699969));
#1194=CARTESIAN_POINT('',(11.5344430195354,4.41944301953543,2.00885871174524));
#1195=CARTESIAN_POINT('',(11.5071384976936,4.44642566512904,2.00591166699969));
#1196=CARTESIAN_POINT('',(11.5518539703952,4.37778095559282,2.00700376854259));
#1197=CARTESIAN_POINT('',(11.5338137593446,4.39912275441049,2.00915018082628));
#1198=CARTESIAN_POINT('',(11.5141227544105,4.41881375934462,2.00915018082628));
#1199=CARTESIAN_POINT('',(11.4927809555928,4.43685397039521,2.00700376854259));
#1200=CARTESIAN_POINT('',(-10.67,-3.055,3.));
#1201=CARTESIAN_POINT('',(-10.67,-3.555,3.));
#1202=CARTESIAN_POINT('',(-10.17,-3.555,3.));
#1203=CARTESIAN_POINT('',(-10.67,-3.05500000001355,2.87816602087196));
#1204=CARTESIAN_POINT('',(-10.6699999998113,-3.5549999998106,2.93908314581061));
#1205=CARTESIAN_POINT('',(-10.1700000000141,-3.555,2.87816602087196));
#1206=CARTESIAN_POINT('',(-10.715028897518,-3.12254334627072,2.63454059558665));
#1207=CARTESIAN_POINT('',(-10.6607331751162,-3.54573317511636,2.81753563975763));
#1208=CARTESIAN_POINT('',(-10.2375433462705,-3.60002889751801,2.63454059558665));
#1209=CARTESIAN_POINT('',(-10.9087318787356,-3.41309781810525,2.31735046079236));
#1210=CARTESIAN_POINT('',(-10.7678604280658,-3.65286042806604,2.47173165587121));
#1211=CARTESIAN_POINT('',(-10.5280978181053,-3.7937318787357,2.31735046079235));
#1212=CARTESIAN_POINT('',(-11.2030157134741,-3.85452357021017,2.09035388119934));
#1213=CARTESIAN_POINT('',(-11.0800731700249,-3.96507317002375,2.1426030615513));
#1214=CARTESIAN_POINT('',(-10.9695235702104,-4.0880157134738,2.09035388119938));
#1215=CARTESIAN_POINT('',(-11.4403119368325,-4.21046790524997,2.01913970927422));
#1216=CARTESIAN_POINT('',(-11.3825871798924,-4.26758717989476,2.02879317777483));
#1217=CARTESIAN_POINT('',(-11.3254679052495,-4.32531193683323,2.01913970927414));
#1218=CARTESIAN_POINT('',(-11.561425665129,-4.39213849769356,2.00591166699969));
#1219=CARTESIAN_POINT('',(-11.5344430195354,-4.41944301953543,2.00885871174524));
#1220=CARTESIAN_POINT('',(-11.5071384976936,-4.44642566512904,2.00591166699969));
#1221=CARTESIAN_POINT('',(-11.5518539703952,-4.37778095559282,2.00700376854259));
#1222=CARTESIAN_POINT('',(-11.5338137593446,-4.39912275441049,2.00915018082628));
#1223=CARTESIAN_POINT('',(-11.5141227544105,-4.41881375934462,2.00915018082628));
#1224=CARTESIAN_POINT('',(-11.4927809555928,-4.43685397039521,2.00700376854259));
#1225=CARTESIAN_POINT('',(-10.17,-3.055,3.));
#1226=CARTESIAN_POINT('',(-10.17,-3.055,30.64));
#1227=CARTESIAN_POINT('',(-10.17,-3.055,33.64));
#1228=CARTESIAN_POINT('',(-10.17,3.555,3.));
#1229=CARTESIAN_POINT('',(-10.67,3.555,3.));
#1230=CARTESIAN_POINT('',(-10.67,3.055,3.));
#1231=CARTESIAN_POINT('',(-10.1700000000141,3.555,2.87816602087192));
#1232=CARTESIAN_POINT('',(-10.6699999998113,3.5549999998106,2.93908314581061));
#1233=CARTESIAN_POINT('',(-10.67,3.05500000001355,2.87816602087192));
#1234=CARTESIAN_POINT('',(-10.2375433462705,3.60002889751801,2.63454059558667));
#1235=CARTESIAN_POINT('',(-10.6607331751162,3.54573317511635,2.81753563975763));
#1236=CARTESIAN_POINT('',(-10.715028897518,3.12254334627072,2.63454059558667));
#1237=CARTESIAN_POINT('',(-10.5280978181053,3.7937318787357,2.31735046079234));
#1238=CARTESIAN_POINT('',(-10.7678604280658,3.65286042806607,2.47173165587121));
#1239=CARTESIAN_POINT('',(-10.9087318787356,3.41309781810525,2.31735046079235));
#1240=CARTESIAN_POINT('',(-10.9695235702102,4.0880157134738,2.09035388119938));
#1241=CARTESIAN_POINT('',(-11.0800731700249,3.96507317002367,2.14260306155128));
#1242=CARTESIAN_POINT('',(-11.2030157134742,3.85452357021017,2.09035388119934));
#1243=CARTESIAN_POINT('',(-11.3254679052497,4.32531193683323,2.01913970927414));
#1244=CARTESIAN_POINT('',(-11.3825871798924,4.26758717989492,2.02879317777486));
#1245=CARTESIAN_POINT('',(-11.4403119368325,4.21046790524996,2.01913970927422));
#1246=CARTESIAN_POINT('',(-11.5071384976936,4.44642566512904,2.00591166699969));
#1247=CARTESIAN_POINT('',(-11.5344430195354,4.41944301953543,2.00885871174524));
#1248=CARTESIAN_POINT('',(-11.561425665129,4.39213849769356,2.00591166699969));
#1249=CARTESIAN_POINT('',(-11.4927809555928,4.43685397039521,2.00700376854259));
#1250=CARTESIAN_POINT('',(-11.5141227544105,4.41881375934462,2.00915018082628));
#1251=CARTESIAN_POINT('',(-11.5338137593446,4.39912275441049,2.00915018082628));
#1252=CARTESIAN_POINT('',(-11.5518539703952,4.37778095559282,2.00700376854259));
#1253=CARTESIAN_POINT('',(-10.17,3.055,3.));
#1254=CARTESIAN_POINT('',(-10.17,3.055,30.64));
#1255=CARTESIAN_POINT('',(-10.17,3.055,33.64));
#1256=CARTESIAN_POINT('',(11.17,-4.055,2.));
#1257=CARTESIAN_POINT('',(11.17,-4.055,-1.5));
#1258=CARTESIAN_POINT('',(11.17,0.,-1.5));
#1259=CARTESIAN_POINT('',(11.17,4.055,-1.5));
#1260=CARTESIAN_POINT('',(11.17,-4.055,-1.5));
#1261=CARTESIAN_POINT('',(11.17,-4.055,-1.5));
#1262=CARTESIAN_POINT('',(11.17,-4.055,-1.5));
#1263=CARTESIAN_POINT('',(0.,-4.055,-1.5));
#1264=CARTESIAN_POINT('',(-11.17,-4.055,-1.5));
#1265=CARTESIAN_POINT('',(11.17,4.055,2.));
#1266=CARTESIAN_POINT('',(11.17,4.055,-1.5));
#1267=CARTESIAN_POINT('',(11.17,4.055,-1.5));
#1268=CARTESIAN_POINT('',(11.17,4.055,-1.5));
#1269=CARTESIAN_POINT('',(0.,4.055,-1.5));
#1270=CARTESIAN_POINT('',(-11.17,4.055,-1.5));
#1271=CARTESIAN_POINT('',(-11.17,-4.055,2.));
#1272=CARTESIAN_POINT('',(-11.17,-4.055,-1.5));
#1273=CARTESIAN_POINT('',(-11.17,-4.055,-1.5));
#1274=CARTESIAN_POINT('',(-11.17,-4.055,-1.5));
#1275=CARTESIAN_POINT('',(-11.17,0.,-1.5));
#1276=CARTESIAN_POINT('',(-11.17,4.055,-1.5));
#1277=CARTESIAN_POINT('',(-11.17,4.055,-1.5));
#1278=CARTESIAN_POINT('',(-11.17,4.055,-1.5));
#1279=CARTESIAN_POINT('',(-11.17,4.055,2.));
#1280=CARTESIAN_POINT('',(-18.7653031090377,-33.6216739589362,14.13));
#1281=CARTESIAN_POINT('',(-10.17,3.055,33.64));
#1282=MECHANICAL_DESIGN_GEOMETRIC_PRESENTATION_REPRESENTATION('',(#689),
#1283);
#1283=(
GEOMETRIC_REPRESENTATION_CONTEXT(3)
GLOBAL_UNCERTAINTY_ASSIGNED_CONTEXT((#1284))
GLOBAL_UNIT_ASSIGNED_CONTEXT((#1287,#1286,#1285))
REPRESENTATION_CONTEXT(
'08_FDML_stimfix_square_mirror_support_with_6mm_rod_cutout',
'TOP_LEVEL_ASSEMBLY_PART')
);
#1284=UNCERTAINTY_MEASURE_WITH_UNIT(LENGTH_MEASURE(0.005),#1287,
'DISTANCE_ACCURACY_VALUE','Maximum Tolerance applied to model');
#1285=(
NAMED_UNIT(*)
SI_UNIT($,.STERADIAN.)
SOLID_ANGLE_UNIT()
);
#1286=(
NAMED_UNIT(*)
PLANE_ANGLE_UNIT()
SI_UNIT($,.RADIAN.)
);
#1287=(
LENGTH_UNIT()
NAMED_UNIT(*)
SI_UNIT(.MILLI.,.METRE.)
);
#1288=PRODUCT_DEFINITION_SHAPE('','',#1289);
#1289=PRODUCT_DEFINITION('','',#1291,#1290);
#1290=PRODUCT_DEFINITION_CONTEXT('',#1297,'design');
#1291=PRODUCT_DEFINITION_FORMATION_WITH_SPECIFIED_SOURCE('','',#1293,
 .NOT_KNOWN.);
#1292=PRODUCT_RELATED_PRODUCT_CATEGORY('','',(#1293));
#1293=PRODUCT(
'08_FDML_stimfix_square_mirror_support_with_6mm_rod_cutout',
'08_FDML_stimfix_square_mirror_support_with_6mm_rod_cutout',
'08_FDML_stimfix_square_mirror_support_with_6mm_rod_cutout',(#1295));
#1294=PRODUCT_CATEGORY('','');
#1295=PRODUCT_CONTEXT('',#1297,'mechanical');
#1296=APPLICATION_PROTOCOL_DEFINITION('international standard',
'automotive_design',2010,#1297);
#1297=APPLICATION_CONTEXT(
'core data for automotive mechanical design processes');
ENDSEC;
END-ISO-10303-21;
