ISO-10303-21;
HEADER;
/* Generated by software containing ST-Developer
 * from STEP Tools, Inc. (www.steptools.com) 
 */
/* OPTION: strings as raw bytes, not using required /X/ escapes */

FILE_DESCRIPTION(
/* description */ ('Unknown'),
/* implementation_level */ '2;1');

FILE_NAME(
/* name */ '09_FDML_stimfix_1in_lens_clamp_holder_stim',
/* time_stamp */ '2026-09-07T14:42:37+02:00',
/* author */ ('Unknown'),
/* organization */ ('Unknown'),
/* preprocessor_version */ 'ST-DEVELOPER v16.7',
/* originating_system */ 'Solid Edge',
/* authorisation */ 'Unknown');

FILE_SCHEMA (('AUTOMOTIVE_DESIGN {1 0 10303 214 3 1 1}'));
ENDSEC;

DATA;
#10=PROPERTY_DEFINITION_REPRESENTATION(#14,#12);
#11=PROPERTY_DEFINITION_REPRESENTATION(#15,#13);
#12=REPRESENTATION('',(#16),#988);
#13=REPRESENTATION('',(#17),#988);
#14=PROPERTY_DEFINITION('pmi validation property','',#993);
#15=PROPERTY_DEFINITION('pmi validation property','',#993);
#16=VALUE_REPRESENTATION_ITEM('number of annotations',COUNT_MEASURE(0.));
#17=VALUE_REPRESENTATION_ITEM('number of views',COUNT_MEASURE(0.));
#18=SHAPE_REPRESENTATION_RELATIONSHIP('','',#601,#19);
#19=ADVANCED_BREP_SHAPE_REPRESENTATION('',(#599),#988);
#20=PLANE('',#608);
#21=PLANE('',#610);
#22=PLANE('',#620);
#23=PLANE('',#621);
#24=PLANE('',#622);
#25=PLANE('',#624);
#26=PLANE('',#625);
#27=PLANE('',#626);
#28=PLANE('',#628);
#29=PLANE('',#630);
#30=PLANE('',#631);
#31=PLANE('',#634);
#32=PLANE('',#636);
#33=PLANE('',#639);
#34=PLANE('',#640);
#35=PLANE('',#641);
#36=PLANE('',#642);
#37=PLANE('',#643);
#38=PLANE('',#644);
#39=PLANE('',#645);
#40=PLANE('',#646);
#41=PLANE('',#647);
#42=PLANE('',#653);
#43=B_SPLINE_CURVE_WITH_KNOTS('',3,(#832,#833,#834,#835,#836,#837,#838,
#839,#840,#841,#842),.UNSPECIFIED.,.T.,.F.,(1,1,1,1,1,1,1,1,1,1,1,1,1,1,
1),(-0.00469675823616635,-0.00313117215744424,-0.00156558607872212,3.79470760369927E-19,
0.00156558607872212,0.00313117215744424,0.00469675823616635,0.00626234431488847,
0.00782793039361059,0.00939351647233271,0.0109591025510548,0.0125246886297769,
0.0140902747084991,0.0156558607872212,0.0172214468659433),.UNSPECIFIED.);
#44=CIRCLE('',#604,12.7);
#45=CIRCLE('',#605,12.7);
#46=CIRCLE('',#606,12.7);
#47=CIRCLE('',#607,12.7);
#48=CIRCLE('',#609,12.2);
#49=CIRCLE('',#612,13.95);
#50=CIRCLE('',#613,13.95);
#51=CIRCLE('',#615,1.);
#52=CIRCLE('',#616,1.);
#53=CIRCLE('',#618,13.95);
#54=CIRCLE('',#619,13.95);
#55=CIRCLE('',#623,1.);
#56=CIRCLE('',#627,12.2);
#57=CIRCLE('',#633,1.);
#58=CIRCLE('',#635,2.);
#59=CIRCLE('',#638,2.);
#60=CIRCLE('',#648,1.875);
#61=CIRCLE('',#650,1.875);
#62=CIRCLE('',#652,2.);
#63=ORIENTED_EDGE('',*,*,#215,.F.);
#64=ORIENTED_EDGE('',*,*,#216,.F.);
#65=ORIENTED_EDGE('',*,*,#217,.F.);
#66=ORIENTED_EDGE('',*,*,#218,.T.);
#67=ORIENTED_EDGE('',*,*,#219,.F.);
#68=ORIENTED_EDGE('',*,*,#220,.F.);
#69=ORIENTED_EDGE('',*,*,#221,.T.);
#70=ORIENTED_EDGE('',*,*,#222,.T.);
#71=ORIENTED_EDGE('',*,*,#223,.F.);
#72=ORIENTED_EDGE('',*,*,#216,.T.);
#73=ORIENTED_EDGE('',*,*,#224,.F.);
#74=ORIENTED_EDGE('',*,*,#225,.F.);
#75=ORIENTED_EDGE('',*,*,#226,.F.);
#76=ORIENTED_EDGE('',*,*,#227,.F.);
#77=ORIENTED_EDGE('',*,*,#228,.T.);
#78=ORIENTED_EDGE('',*,*,#229,.T.);
#79=ORIENTED_EDGE('',*,*,#230,.F.);
#80=ORIENTED_EDGE('',*,*,#219,.T.);
#81=ORIENTED_EDGE('',*,*,#231,.T.);
#82=ORIENTED_EDGE('',*,*,#232,.T.);
#83=ORIENTED_EDGE('',*,*,#233,.T.);
#84=ORIENTED_EDGE('',*,*,#234,.F.);
#85=ORIENTED_EDGE('',*,*,#235,.T.);
#86=ORIENTED_EDGE('',*,*,#236,.F.);
#87=ORIENTED_EDGE('',*,*,#237,.T.);
#88=ORIENTED_EDGE('',*,*,#238,.T.);
#89=ORIENTED_EDGE('',*,*,#227,.T.);
#90=ORIENTED_EDGE('',*,*,#239,.T.);
#91=ORIENTED_EDGE('',*,*,#240,.T.);
#92=ORIENTED_EDGE('',*,*,#215,.T.);
#93=ORIENTED_EDGE('',*,*,#241,.F.);
#94=ORIENTED_EDGE('',*,*,#242,.F.);
#95=ORIENTED_EDGE('',*,*,#243,.T.);
#96=ORIENTED_EDGE('',*,*,#244,.T.);
#97=ORIENTED_EDGE('',*,*,#224,.T.);
#98=ORIENTED_EDGE('',*,*,#236,.T.);
#99=ORIENTED_EDGE('',*,*,#245,.T.);
#100=ORIENTED_EDGE('',*,*,#246,.T.);
#101=ORIENTED_EDGE('',*,*,#247,.T.);
#102=ORIENTED_EDGE('',*,*,#242,.T.);
#103=ORIENTED_EDGE('',*,*,#248,.F.);
#104=ORIENTED_EDGE('',*,*,#249,.F.);
#105=ORIENTED_EDGE('',*,*,#217,.T.);
#106=ORIENTED_EDGE('',*,*,#226,.T.);
#107=ORIENTED_EDGE('',*,*,#250,.T.);
#108=ORIENTED_EDGE('',*,*,#251,.T.);
#109=ORIENTED_EDGE('',*,*,#252,.T.);
#110=ORIENTED_EDGE('',*,*,#248,.T.);
#111=ORIENTED_EDGE('',*,*,#253,.T.);
#112=ORIENTED_EDGE('',*,*,#254,.F.);
#113=ORIENTED_EDGE('',*,*,#255,.F.);
#114=ORIENTED_EDGE('',*,*,#256,.T.);
#115=ORIENTED_EDGE('',*,*,#257,.T.);
#116=ORIENTED_EDGE('',*,*,#232,.F.);
#117=ORIENTED_EDGE('',*,*,#258,.T.);
#118=ORIENTED_EDGE('',*,*,#221,.F.);
#119=ORIENTED_EDGE('',*,*,#259,.F.);
#120=ORIENTED_EDGE('',*,*,#228,.F.);
#121=ORIENTED_EDGE('',*,*,#238,.F.);
#122=ORIENTED_EDGE('',*,*,#260,.F.);
#123=ORIENTED_EDGE('',*,*,#253,.F.);
#124=ORIENTED_EDGE('',*,*,#251,.F.);
#125=ORIENTED_EDGE('',*,*,#261,.T.);
#126=ORIENTED_EDGE('',*,*,#243,.F.);
#127=ORIENTED_EDGE('',*,*,#247,.F.);
#128=ORIENTED_EDGE('',*,*,#262,.T.);
#129=ORIENTED_EDGE('',*,*,#233,.F.);
#130=ORIENTED_EDGE('',*,*,#257,.F.);
#131=ORIENTED_EDGE('',*,*,#263,.F.);
#132=ORIENTED_EDGE('',*,*,#230,.T.);
#133=ORIENTED_EDGE('',*,*,#264,.T.);
#134=ORIENTED_EDGE('',*,*,#259,.T.);
#135=ORIENTED_EDGE('',*,*,#220,.T.);
#136=ORIENTED_EDGE('',*,*,#244,.F.);
#137=ORIENTED_EDGE('',*,*,#261,.F.);
#138=ORIENTED_EDGE('',*,*,#250,.F.);
#139=ORIENTED_EDGE('',*,*,#225,.T.);
#140=ORIENTED_EDGE('',*,*,#265,.F.);
#141=ORIENTED_EDGE('',*,*,#239,.F.);
#142=ORIENTED_EDGE('',*,*,#231,.F.);
#143=ORIENTED_EDGE('',*,*,#218,.F.);
#144=ORIENTED_EDGE('',*,*,#249,.T.);
#145=ORIENTED_EDGE('',*,*,#255,.T.);
#146=ORIENTED_EDGE('',*,*,#235,.F.);
#147=ORIENTED_EDGE('',*,*,#266,.T.);
#148=ORIENTED_EDGE('',*,*,#245,.F.);
#149=ORIENTED_EDGE('',*,*,#241,.T.);
#150=ORIENTED_EDGE('',*,*,#222,.F.);
#151=ORIENTED_EDGE('',*,*,#258,.F.);
#152=ORIENTED_EDGE('',*,*,#267,.F.);
#153=ORIENTED_EDGE('',*,*,#252,.F.);
#154=ORIENTED_EDGE('',*,*,#268,.T.);
#155=ORIENTED_EDGE('',*,*,#254,.T.);
#156=ORIENTED_EDGE('',*,*,#260,.T.);
#157=ORIENTED_EDGE('',*,*,#240,.F.);
#158=ORIENTED_EDGE('',*,*,#265,.T.);
#159=ORIENTED_EDGE('',*,*,#269,.F.);
#160=ORIENTED_EDGE('',*,*,#270,.F.);
#161=ORIENTED_EDGE('',*,*,#271,.F.);
#162=ORIENTED_EDGE('',*,*,#272,.F.);
#163=ORIENTED_EDGE('',*,*,#273,.F.);
#164=ORIENTED_EDGE('',*,*,#274,.F.);
#165=ORIENTED_EDGE('',*,*,#262,.F.);
#166=ORIENTED_EDGE('',*,*,#246,.F.);
#167=ORIENTED_EDGE('',*,*,#266,.F.);
#168=ORIENTED_EDGE('',*,*,#234,.T.);
#169=ORIENTED_EDGE('',*,*,#275,.T.);
#170=ORIENTED_EDGE('',*,*,#268,.F.);
#171=ORIENTED_EDGE('',*,*,#267,.T.);
#172=ORIENTED_EDGE('',*,*,#275,.F.);
#173=ORIENTED_EDGE('',*,*,#270,.T.);
#174=ORIENTED_EDGE('',*,*,#276,.F.);
#175=ORIENTED_EDGE('',*,*,#277,.F.);
#176=ORIENTED_EDGE('',*,*,#278,.T.);
#177=ORIENTED_EDGE('',*,*,#269,.T.);
#178=ORIENTED_EDGE('',*,*,#279,.F.);
#179=ORIENTED_EDGE('',*,*,#280,.F.);
#180=ORIENTED_EDGE('',*,*,#276,.T.);
#181=ORIENTED_EDGE('',*,*,#274,.T.);
#182=ORIENTED_EDGE('',*,*,#281,.F.);
#183=ORIENTED_EDGE('',*,*,#282,.F.);
#184=ORIENTED_EDGE('',*,*,#279,.T.);
#185=ORIENTED_EDGE('',*,*,#273,.T.);
#186=ORIENTED_EDGE('',*,*,#283,.F.);
#187=ORIENTED_EDGE('',*,*,#284,.F.);
#188=ORIENTED_EDGE('',*,*,#281,.T.);
#189=ORIENTED_EDGE('',*,*,#272,.T.);
#190=ORIENTED_EDGE('',*,*,#285,.F.);
#191=ORIENTED_EDGE('',*,*,#286,.F.);
#192=ORIENTED_EDGE('',*,*,#283,.T.);
#193=ORIENTED_EDGE('',*,*,#271,.T.);
#194=ORIENTED_EDGE('',*,*,#278,.F.);
#195=ORIENTED_EDGE('',*,*,#287,.F.);
#196=ORIENTED_EDGE('',*,*,#285,.T.);
#197=ORIENTED_EDGE('',*,*,#237,.F.);
#198=ORIENTED_EDGE('',*,*,#277,.T.);
#199=ORIENTED_EDGE('',*,*,#280,.T.);
#200=ORIENTED_EDGE('',*,*,#282,.T.);
#201=ORIENTED_EDGE('',*,*,#284,.T.);
#202=ORIENTED_EDGE('',*,*,#286,.T.);
#203=ORIENTED_EDGE('',*,*,#287,.T.);
#204=ORIENTED_EDGE('',*,*,#288,.T.);
#205=ORIENTED_EDGE('',*,*,#229,.F.);
#206=ORIENTED_EDGE('',*,*,#263,.T.);
#207=ORIENTED_EDGE('',*,*,#256,.F.);
#208=ORIENTED_EDGE('',*,*,#264,.F.);
#209=ORIENTED_EDGE('',*,*,#289,.T.);
#210=ORIENTED_EDGE('',*,*,#288,.F.);
#211=ORIENTED_EDGE('',*,*,#290,.F.);
#212=ORIENTED_EDGE('',*,*,#223,.T.);
#213=ORIENTED_EDGE('',*,*,#289,.F.);
#214=ORIENTED_EDGE('',*,*,#290,.T.);
#215=EDGE_CURVE('',#291,#292,#345,.T.);
#216=EDGE_CURVE('',#293,#291,#44,.T.);
#217=EDGE_CURVE('',#294,#293,#346,.F.);
#218=EDGE_CURVE('',#294,#295,#45,.T.);
#219=EDGE_CURVE('',#296,#295,#347,.T.);
#220=EDGE_CURVE('',#297,#296,#46,.T.);
#221=EDGE_CURVE('',#297,#298,#348,.T.);
#222=EDGE_CURVE('',#298,#292,#47,.T.);
#223=EDGE_CURVE('',#299,#299,#43,.T.);
#224=EDGE_CURVE('',#300,#291,#349,.T.);
#225=EDGE_CURVE('',#301,#300,#48,.T.);
#226=EDGE_CURVE('',#293,#301,#350,.T.);
#227=EDGE_CURVE('',#302,#303,#351,.T.);
#228=EDGE_CURVE('',#302,#304,#352,.T.);
#229=EDGE_CURVE('',#304,#305,#353,.T.);
#230=EDGE_CURVE('',#296,#305,#354,.T.);
#231=EDGE_CURVE('',#295,#303,#355,.T.);
#232=EDGE_CURVE('',#306,#307,#356,.F.);
#233=EDGE_CURVE('',#307,#308,#49,.T.);
#234=EDGE_CURVE('',#309,#308,#357,.F.);
#235=EDGE_CURVE('',#309,#306,#50,.T.);
#236=EDGE_CURVE('',#310,#310,#51,.F.);
#237=EDGE_CURVE('',#311,#311,#52,.T.);
#238=EDGE_CURVE('',#312,#302,#53,.T.);
#239=EDGE_CURVE('',#303,#313,#54,.T.);
#240=EDGE_CURVE('',#313,#312,#358,.F.);
#241=EDGE_CURVE('',#314,#292,#359,.T.);
#242=EDGE_CURVE('',#315,#314,#360,.T.);
#243=EDGE_CURVE('',#315,#316,#361,.T.);
#244=EDGE_CURVE('',#316,#300,#362,.F.);
#245=EDGE_CURVE('',#314,#317,#363,.T.);
#246=EDGE_CURVE('',#317,#318,#364,.T.);
#247=EDGE_CURVE('',#318,#315,#365,.T.);
#248=EDGE_CURVE('',#319,#320,#366,.T.);
#249=EDGE_CURVE('',#294,#319,#367,.T.);
#250=EDGE_CURVE('',#301,#321,#368,.T.);
#251=EDGE_CURVE('',#321,#320,#369,.T.);
#252=EDGE_CURVE('',#322,#322,#55,.F.);
#253=EDGE_CURVE('',#320,#323,#370,.T.);
#254=EDGE_CURVE('',#324,#323,#371,.T.);
#255=EDGE_CURVE('',#319,#324,#372,.T.);
#256=EDGE_CURVE('',#325,#326,#373,.T.);
#257=EDGE_CURVE('',#326,#307,#374,.T.);
#258=EDGE_CURVE('',#306,#298,#375,.T.);
#259=EDGE_CURVE('',#325,#297,#376,.T.);
#260=EDGE_CURVE('',#323,#312,#377,.T.);
#261=EDGE_CURVE('',#321,#316,#56,.T.);
#262=EDGE_CURVE('',#318,#308,#378,.T.);
#263=EDGE_CURVE('',#304,#326,#379,.T.);
#264=EDGE_CURVE('',#305,#325,#380,.T.);
#265=EDGE_CURVE('',#313,#324,#381,.T.);
#266=EDGE_CURVE('',#309,#317,#382,.T.);
#267=EDGE_CURVE('',#327,#327,#57,.T.);
#268=EDGE_CURVE('',#328,#328,#58,.T.);
#269=EDGE_CURVE('',#329,#330,#383,.T.);
#270=EDGE_CURVE('',#331,#329,#384,.T.);
#271=EDGE_CURVE('',#332,#331,#385,.T.);
#272=EDGE_CURVE('',#333,#332,#386,.T.);
#273=EDGE_CURVE('',#334,#333,#387,.T.);
#274=EDGE_CURVE('',#330,#334,#388,.T.);
#275=EDGE_CURVE('',#335,#335,#59,.T.);
#276=EDGE_CURVE('',#336,#329,#389,.T.);
#277=EDGE_CURVE('',#337,#336,#390,.T.);
#278=EDGE_CURVE('',#337,#331,#391,.T.);
#279=EDGE_CURVE('',#338,#330,#392,.T.);
#280=EDGE_CURVE('',#336,#338,#393,.T.);
#281=EDGE_CURVE('',#339,#334,#394,.T.);
#282=EDGE_CURVE('',#338,#339,#395,.T.);
#283=EDGE_CURVE('',#340,#333,#396,.T.);
#284=EDGE_CURVE('',#339,#340,#397,.T.);
#285=EDGE_CURVE('',#341,#332,#398,.T.);
#286=EDGE_CURVE('',#340,#341,#399,.T.);
#287=EDGE_CURVE('',#341,#337,#400,.T.);
#288=EDGE_CURVE('',#342,#342,#60,.T.);
#289=EDGE_CURVE('',#343,#343,#61,.T.);
#290=EDGE_CURVE('',#344,#344,#62,.T.);
#291=VERTEX_POINT('',#817);
#292=VERTEX_POINT('',#818);
#293=VERTEX_POINT('',#820);
#294=VERTEX_POINT('',#822);
#295=VERTEX_POINT('',#824);
#296=VERTEX_POINT('',#826);
#297=VERTEX_POINT('',#828);
#298=VERTEX_POINT('',#830);
#299=VERTEX_POINT('',#843);
#300=VERTEX_POINT('',#846);
#301=VERTEX_POINT('',#848);
#302=VERTEX_POINT('',#852);
#303=VERTEX_POINT('',#853);
#304=VERTEX_POINT('',#855);
#305=VERTEX_POINT('',#857);
#306=VERTEX_POINT('',#862);
#307=VERTEX_POINT('',#863);
#308=VERTEX_POINT('',#865);
#309=VERTEX_POINT('',#867);
#310=VERTEX_POINT('',#871);
#311=VERTEX_POINT('',#873);
#312=VERTEX_POINT('',#876);
#313=VERTEX_POINT('',#878);
#314=VERTEX_POINT('',#882);
#315=VERTEX_POINT('',#884);
#316=VERTEX_POINT('',#886);
#317=VERTEX_POINT('',#890);
#318=VERTEX_POINT('',#892);
#319=VERTEX_POINT('',#896);
#320=VERTEX_POINT('',#897);
#321=VERTEX_POINT('',#900);
#322=VERTEX_POINT('',#903);
#323=VERTEX_POINT('',#906);
#324=VERTEX_POINT('',#908);
#325=VERTEX_POINT('',#912);
#326=VERTEX_POINT('',#913);
#327=VERTEX_POINT('',#931);
#328=VERTEX_POINT('',#934);
#329=VERTEX_POINT('',#937);
#330=VERTEX_POINT('',#938);
#331=VERTEX_POINT('',#940);
#332=VERTEX_POINT('',#942);
#333=VERTEX_POINT('',#944);
#334=VERTEX_POINT('',#946);
#335=VERTEX_POINT('',#950);
#336=VERTEX_POINT('',#954);
#337=VERTEX_POINT('',#956);
#338=VERTEX_POINT('',#960);
#339=VERTEX_POINT('',#964);
#340=VERTEX_POINT('',#968);
#341=VERTEX_POINT('',#972);
#342=VERTEX_POINT('',#979);
#343=VERTEX_POINT('',#982);
#344=VERTEX_POINT('',#985);
#345=LINE('',#816,#401);
#346=LINE('',#821,#402);
#347=LINE('',#825,#403);
#348=LINE('',#829,#404);
#349=LINE('',#845,#405);
#350=LINE('',#849,#406);
#351=LINE('',#851,#407);
#352=LINE('',#854,#408);
#353=LINE('',#856,#409);
#354=LINE('',#858,#410);
#355=LINE('',#859,#411);
#356=LINE('',#861,#412);
#357=LINE('',#866,#413);
#358=LINE('',#879,#414);
#359=LINE('',#881,#415);
#360=LINE('',#883,#416);
#361=LINE('',#885,#417);
#362=LINE('',#887,#418);
#363=LINE('',#889,#419);
#364=LINE('',#891,#420);
#365=LINE('',#893,#421);
#366=LINE('',#895,#422);
#367=LINE('',#898,#423);
#368=LINE('',#899,#424);
#369=LINE('',#901,#425);
#370=LINE('',#905,#426);
#371=LINE('',#907,#427);
#372=LINE('',#909,#428);
#373=LINE('',#911,#429);
#374=LINE('',#914,#430);
#375=LINE('',#915,#431);
#376=LINE('',#916,#432);
#377=LINE('',#918,#433);
#378=LINE('',#920,#434);
#379=LINE('',#921,#435);
#380=LINE('',#923,#436);
#381=LINE('',#926,#437);
#382=LINE('',#928,#438);
#383=LINE('',#936,#439);
#384=LINE('',#939,#440);
#385=LINE('',#941,#441);
#386=LINE('',#943,#442);
#387=LINE('',#945,#443);
#388=LINE('',#947,#444);
#389=LINE('',#953,#445);
#390=LINE('',#955,#446);
#391=LINE('',#957,#447);
#392=LINE('',#959,#448);
#393=LINE('',#961,#449);
#394=LINE('',#963,#450);
#395=LINE('',#965,#451);
#396=LINE('',#967,#452);
#397=LINE('',#969,#453);
#398=LINE('',#971,#454);
#399=LINE('',#973,#455);
#400=LINE('',#975,#456);
#401=VECTOR('',#658,1000.);
#402=VECTOR('',#661,1000.);
#403=VECTOR('',#664,1000.);
#404=VECTOR('',#667,1000.);
#405=VECTOR('',#672,1000.);
#406=VECTOR('',#675,1000.);
#407=VECTOR('',#678,1000.);
#408=VECTOR('',#679,1000.);
#409=VECTOR('',#680,1000.);
#410=VECTOR('',#681,1000.);
#411=VECTOR('',#682,1000.);
#412=VECTOR('',#685,1000.);
#413=VECTOR('',#688,1000.);
#414=VECTOR('',#703,1000.);
#415=VECTOR('',#706,1000.);
#416=VECTOR('',#707,1000.);
#417=VECTOR('',#708,1000.);
#418=VECTOR('',#709,1000.);
#419=VECTOR('',#712,1000.);
#420=VECTOR('',#713,1000.);
#421=VECTOR('',#714,1000.);
#422=VECTOR('',#717,1000.);
#423=VECTOR('',#718,1000.);
#424=VECTOR('',#719,1000.);
#425=VECTOR('',#720,1000.);
#426=VECTOR('',#725,1000.);
#427=VECTOR('',#726,1000.);
#428=VECTOR('',#727,1000.);
#429=VECTOR('',#730,1000.);
#430=VECTOR('',#731,1000.);
#431=VECTOR('',#732,1000.);
#432=VECTOR('',#733,1000.);
#433=VECTOR('',#736,1000.);
#434=VECTOR('',#739,1000.);
#435=VECTOR('',#740,1000.);
#436=VECTOR('',#743,1000.);
#437=VECTOR('',#748,1000.);
#438=VECTOR('',#751,1000.);
#439=VECTOR('',#762,1000.);
#440=VECTOR('',#763,1000.);
#441=VECTOR('',#764,1000.);
#442=VECTOR('',#765,1000.);
#443=VECTOR('',#766,1000.);
#444=VECTOR('',#767,1000.);
#445=VECTOR('',#776,1000.);
#446=VECTOR('',#777,1000.);
#447=VECTOR('',#778,1000.);
#448=VECTOR('',#781,1000.);
#449=VECTOR('',#782,1000.);
#450=VECTOR('',#785,1000.);
#451=VECTOR('',#786,1000.);
#452=VECTOR('',#789,1000.);
#453=VECTOR('',#790,1000.);
#454=VECTOR('',#793,1000.);
#455=VECTOR('',#794,1000.);
#456=VECTOR('',#797,1000.);
#457=EDGE_LOOP('',(#63,#64,#65,#66,#67,#68,#69,#70));
#458=EDGE_LOOP('',(#71));
#459=EDGE_LOOP('',(#72,#73,#74,#75));
#460=EDGE_LOOP('',(#76,#77,#78,#79,#80,#81));
#461=EDGE_LOOP('',(#82,#83,#84,#85));
#462=EDGE_LOOP('',(#86));
#463=EDGE_LOOP('',(#87));
#464=EDGE_LOOP('',(#88,#89,#90,#91));
#465=EDGE_LOOP('',(#92,#93,#94,#95,#96,#97));
#466=EDGE_LOOP('',(#98));
#467=EDGE_LOOP('',(#99,#100,#101,#102));
#468=EDGE_LOOP('',(#103,#104,#105,#106,#107,#108));
#469=EDGE_LOOP('',(#109));
#470=EDGE_LOOP('',(#110,#111,#112,#113));
#471=EDGE_LOOP('',(#114,#115,#116,#117,#118,#119));
#472=EDGE_LOOP('',(#120,#121,#122,#123,#124,#125,#126,#127,#128,#129,#130,
#131));
#473=EDGE_LOOP('',(#132,#133,#134,#135));
#474=EDGE_LOOP('',(#136,#137,#138,#139));
#475=EDGE_LOOP('',(#140,#141,#142,#143,#144,#145));
#476=EDGE_LOOP('',(#146,#147,#148,#149,#150,#151));
#477=EDGE_LOOP('',(#152));
#478=EDGE_LOOP('',(#153));
#479=EDGE_LOOP('',(#154));
#480=EDGE_LOOP('',(#155,#156,#157,#158));
#481=EDGE_LOOP('',(#159,#160,#161,#162,#163,#164));
#482=EDGE_LOOP('',(#165,#166,#167,#168));
#483=EDGE_LOOP('',(#169));
#484=EDGE_LOOP('',(#170));
#485=EDGE_LOOP('',(#171));
#486=EDGE_LOOP('',(#172));
#487=EDGE_LOOP('',(#173,#174,#175,#176));
#488=EDGE_LOOP('',(#177,#178,#179,#180));
#489=EDGE_LOOP('',(#181,#182,#183,#184));
#490=EDGE_LOOP('',(#185,#186,#187,#188));
#491=EDGE_LOOP('',(#189,#190,#191,#192));
#492=EDGE_LOOP('',(#193,#194,#195,#196));
#493=EDGE_LOOP('',(#197));
#494=EDGE_LOOP('',(#198,#199,#200,#201,#202,#203));
#495=EDGE_LOOP('',(#204));
#496=EDGE_LOOP('',(#205,#206,#207,#208));
#497=EDGE_LOOP('',(#209));
#498=EDGE_LOOP('',(#210));
#499=EDGE_LOOP('',(#211));
#500=EDGE_LOOP('',(#212));
#501=EDGE_LOOP('',(#213));
#502=EDGE_LOOP('',(#214));
#503=FACE_BOUND('',#457,.T.);
#504=FACE_BOUND('',#458,.T.);
#505=FACE_BOUND('',#459,.T.);
#506=FACE_BOUND('',#460,.T.);
#507=FACE_BOUND('',#461,.T.);
#508=FACE_BOUND('',#462,.T.);
#509=FACE_BOUND('',#463,.T.);
#510=FACE_BOUND('',#464,.T.);
#511=FACE_BOUND('',#465,.T.);
#512=FACE_BOUND('',#466,.T.);
#513=FACE_BOUND('',#467,.T.);
#514=FACE_BOUND('',#468,.T.);
#515=FACE_BOUND('',#469,.T.);
#516=FACE_BOUND('',#470,.T.);
#517=FACE_BOUND('',#471,.T.);
#518=FACE_BOUND('',#472,.T.);
#519=FACE_BOUND('',#473,.T.);
#520=FACE_BOUND('',#474,.T.);
#521=FACE_BOUND('',#475,.T.);
#522=FACE_BOUND('',#476,.T.);
#523=FACE_BOUND('',#477,.T.);
#524=FACE_BOUND('',#478,.T.);
#525=FACE_BOUND('',#479,.T.);
#526=FACE_BOUND('',#480,.T.);
#527=FACE_BOUND('',#481,.T.);
#528=FACE_BOUND('',#482,.T.);
#529=FACE_BOUND('',#483,.T.);
#530=FACE_BOUND('',#484,.T.);
#531=FACE_BOUND('',#485,.T.);
#532=FACE_BOUND('',#486,.T.);
#533=FACE_BOUND('',#487,.T.);
#534=FACE_BOUND('',#488,.T.);
#535=FACE_BOUND('',#489,.T.);
#536=FACE_BOUND('',#490,.T.);
#537=FACE_BOUND('',#491,.T.);
#538=FACE_BOUND('',#492,.T.);
#539=FACE_BOUND('',#493,.T.);
#540=FACE_BOUND('',#494,.T.);
#541=FACE_BOUND('',#495,.T.);
#542=FACE_BOUND('',#496,.T.);
#543=FACE_BOUND('',#497,.T.);
#544=FACE_BOUND('',#498,.T.);
#545=FACE_BOUND('',#499,.T.);
#546=FACE_BOUND('',#500,.T.);
#547=FACE_BOUND('',#501,.T.);
#548=FACE_BOUND('',#502,.T.);
#549=CYLINDRICAL_SURFACE('',#603,12.7);
#550=CYLINDRICAL_SURFACE('',#611,13.95);
#551=CYLINDRICAL_SURFACE('',#614,1.);
#552=CYLINDRICAL_SURFACE('',#617,13.95);
#553=CYLINDRICAL_SURFACE('',#629,12.2);
#554=CYLINDRICAL_SURFACE('',#632,1.);
#555=CYLINDRICAL_SURFACE('',#637,2.);
#556=CYLINDRICAL_SURFACE('',#649,1.875);
#557=CYLINDRICAL_SURFACE('',#651,2.);
#558=ADVANCED_FACE('',(#503,#504),#549,.F.);
#559=ADVANCED_FACE('',(#505),#20,.T.);
#560=ADVANCED_FACE('',(#506),#21,.F.);
#561=ADVANCED_FACE('',(#507),#550,.T.);
#562=ADVANCED_FACE('',(#508,#509),#551,.F.);
#563=ADVANCED_FACE('',(#510),#552,.T.);
#564=ADVANCED_FACE('',(#511,#512),#22,.T.);
#565=ADVANCED_FACE('',(#513),#23,.T.);
#566=ADVANCED_FACE('',(#514,#515),#24,.T.);
#567=ADVANCED_FACE('',(#516),#25,.T.);
#568=ADVANCED_FACE('',(#517),#26,.F.);
#569=ADVANCED_FACE('',(#518),#27,.F.);
#570=ADVANCED_FACE('',(#519),#28,.F.);
#571=ADVANCED_FACE('',(#520),#553,.F.);
#572=ADVANCED_FACE('',(#521),#29,.T.);
#573=ADVANCED_FACE('',(#522),#30,.T.);
#574=ADVANCED_FACE('',(#523,#524),#554,.F.);
#575=ADVANCED_FACE('',(#525,#526),#31,.T.);
#576=ADVANCED_FACE('',(#527,#528),#32,.F.);
#577=ADVANCED_FACE('',(#529,#530),#555,.F.);
#578=ADVANCED_FACE('',(#531,#532),#33,.F.);
#579=ADVANCED_FACE('',(#533),#34,.F.);
#580=ADVANCED_FACE('',(#534),#35,.F.);
#581=ADVANCED_FACE('',(#535),#36,.F.);
#582=ADVANCED_FACE('',(#536),#37,.F.);
#583=ADVANCED_FACE('',(#537),#38,.F.);
#584=ADVANCED_FACE('',(#538),#39,.F.);
#585=ADVANCED_FACE('',(#539,#540),#40,.T.);
#586=ADVANCED_FACE('',(#541,#542),#41,.F.);
#587=ADVANCED_FACE('',(#543,#544),#556,.F.);
#588=ADVANCED_FACE('',(#545,#546),#557,.F.);
#589=ADVANCED_FACE('',(#547,#548),#42,.T.);
#590=CLOSED_SHELL('',(#558,#559,#560,#561,#562,#563,#564,#565,#566,#567,
#568,#569,#570,#571,#572,#573,#574,#575,#576,#577,#578,#579,#580,#581,#582,
#583,#584,#585,#586,#587,#588,#589));
#591=STYLED_ITEM('',(#592),#599);
#592=PRESENTATION_STYLE_ASSIGNMENT((#593));
#593=SURFACE_STYLE_USAGE(.BOTH.,#594);
#594=SURFACE_SIDE_STYLE('',(#595));
#595=SURFACE_STYLE_FILL_AREA(#596);
#596=FILL_AREA_STYLE('',(#597));
#597=FILL_AREA_STYLE_COLOUR('',#598);
#598=COLOUR_RGB('',0.506983280181885,0.531564235687256,0.550000011920929);
#599=MANIFOLD_SOLID_BREP('',#590);
#600=SHAPE_DEFINITION_REPRESENTATION(#993,#601);
#601=SHAPE_REPRESENTATION('09_FDML_stimfix_1in_lens_clamp_holder_stim',
(#602),#988);
#602=AXIS2_PLACEMENT_3D('',#814,#654,#655);
#603=AXIS2_PLACEMENT_3D('',#815,#656,#657);
#604=AXIS2_PLACEMENT_3D('',#819,#659,#660);
#605=AXIS2_PLACEMENT_3D('',#823,#662,#663);
#606=AXIS2_PLACEMENT_3D('',#827,#665,#666);
#607=AXIS2_PLACEMENT_3D('',#831,#668,#669);
#608=AXIS2_PLACEMENT_3D('',#844,#670,#671);
#609=AXIS2_PLACEMENT_3D('',#847,#673,#674);
#610=AXIS2_PLACEMENT_3D('',#850,#676,#677);
#611=AXIS2_PLACEMENT_3D('',#860,#683,#684);
#612=AXIS2_PLACEMENT_3D('',#864,#686,#687);
#613=AXIS2_PLACEMENT_3D('',#868,#689,#690);
#614=AXIS2_PLACEMENT_3D('',#869,#691,#692);
#615=AXIS2_PLACEMENT_3D('',#870,#693,#694);
#616=AXIS2_PLACEMENT_3D('',#872,#695,#696);
#617=AXIS2_PLACEMENT_3D('',#874,#697,#698);
#618=AXIS2_PLACEMENT_3D('',#875,#699,#700);
#619=AXIS2_PLACEMENT_3D('',#877,#701,#702);
#620=AXIS2_PLACEMENT_3D('',#880,#704,#705);
#621=AXIS2_PLACEMENT_3D('',#888,#710,#711);
#622=AXIS2_PLACEMENT_3D('',#894,#715,#716);
#623=AXIS2_PLACEMENT_3D('',#902,#721,#722);
#624=AXIS2_PLACEMENT_3D('',#904,#723,#724);
#625=AXIS2_PLACEMENT_3D('',#910,#728,#729);
#626=AXIS2_PLACEMENT_3D('',#917,#734,#735);
#627=AXIS2_PLACEMENT_3D('',#919,#737,#738);
#628=AXIS2_PLACEMENT_3D('',#922,#741,#742);
#629=AXIS2_PLACEMENT_3D('',#924,#744,#745);
#630=AXIS2_PLACEMENT_3D('',#925,#746,#747);
#631=AXIS2_PLACEMENT_3D('',#927,#749,#750);
#632=AXIS2_PLACEMENT_3D('',#929,#752,#753);
#633=AXIS2_PLACEMENT_3D('',#930,#754,#755);
#634=AXIS2_PLACEMENT_3D('',#932,#756,#757);
#635=AXIS2_PLACEMENT_3D('',#933,#758,#759);
#636=AXIS2_PLACEMENT_3D('',#935,#760,#761);
#637=AXIS2_PLACEMENT_3D('',#948,#768,#769);
#638=AXIS2_PLACEMENT_3D('',#949,#770,#771);
#639=AXIS2_PLACEMENT_3D('',#951,#772,#773);
#640=AXIS2_PLACEMENT_3D('',#952,#774,#775);
#641=AXIS2_PLACEMENT_3D('',#958,#779,#780);
#642=AXIS2_PLACEMENT_3D('',#962,#783,#784);
#643=AXIS2_PLACEMENT_3D('',#966,#787,#788);
#644=AXIS2_PLACEMENT_3D('',#970,#791,#792);
#645=AXIS2_PLACEMENT_3D('',#974,#795,#796);
#646=AXIS2_PLACEMENT_3D('',#976,#798,#799);
#647=AXIS2_PLACEMENT_3D('',#977,#800,#801);
#648=AXIS2_PLACEMENT_3D('',#978,#802,#803);
#649=AXIS2_PLACEMENT_3D('',#980,#804,#805);
#650=AXIS2_PLACEMENT_3D('',#981,#806,#807);
#651=AXIS2_PLACEMENT_3D('',#983,#808,#809);
#652=AXIS2_PLACEMENT_3D('',#984,#810,#811);
#653=AXIS2_PLACEMENT_3D('',#986,#812,#813);
#654=DIRECTION('',(0.,0.,1.));
#655=DIRECTION('',(1.,0.,0.));
#656=DIRECTION('',(0.,0.,-1.));
#657=DIRECTION('',(-1.,0.,0.));
#658=DIRECTION('',(0.,0.,-1.));
#659=DIRECTION('',(0.,0.,-1.));
#660=DIRECTION('',(6.81281043129656E-15,-1.,0.));
#661=DIRECTION('',(0.,0.,-1.));
#662=DIRECTION('',(0.,0.,-1.));
#663=DIRECTION('',(-1.,0.,0.));
#664=DIRECTION('',(0.,0.,1.));
#665=DIRECTION('',(0.,0.,1.));
#666=DIRECTION('',(-1.,0.,0.));
#667=DIRECTION('',(0.,0.,1.));
#668=DIRECTION('',(0.,0.,-1.));
#669=DIRECTION('',(1.,0.,0.));
#670=DIRECTION('',(0.,0.,-1.));
#671=DIRECTION('',(-1.,0.,0.));
#672=DIRECTION('',(5.61960466758427E-16,1.,0.));
#673=DIRECTION('',(0.,0.,-1.));
#674=DIRECTION('',(6.81281043129656E-15,-1.,0.));
#675=DIRECTION('',(-5.61960466758427E-16,-1.,0.));
#676=DIRECTION('',(-1.,-2.23523543789637E-32,1.82602471155453E-16));
#677=DIRECTION('',(1.82602471155453E-16,0.,1.));
#678=DIRECTION('',(0.,0.,-1.));
#679=DIRECTION('',(-2.06502769900625E-16,-1.,0.));
#680=DIRECTION('',(-9.13012355777267E-17,1.22409922699976E-16,-1.));
#681=DIRECTION('',(0.,-1.,0.));
#682=DIRECTION('',(0.,-1.,0.));
#683=DIRECTION('',(0.,0.,-1.));
#684=DIRECTION('',(-1.,0.,0.));
#685=DIRECTION('',(0.,0.,-1.));
#686=DIRECTION('',(0.,0.,-1.));
#687=DIRECTION('',(0.,1.,0.));
#688=DIRECTION('',(0.,0.,-1.));
#689=DIRECTION('',(0.,0.,1.));
#690=DIRECTION('',(1.,0.,0.));
#691=DIRECTION('',(1.,-6.84903156768021E-16,0.));
#692=DIRECTION('',(6.84903156768021E-16,1.,0.));
#693=DIRECTION('',(1.,1.23908819712629E-16,0.));
#694=DIRECTION('',(-1.23908819712629E-16,1.,0.));
#695=DIRECTION('',(-1.,6.84903156768021E-16,0.));
#696=DIRECTION('',(0.,0.,1.));
#697=DIRECTION('',(0.,0.,-1.));
#698=DIRECTION('',(-1.,0.,0.));
#699=DIRECTION('',(0.,0.,-1.));
#700=DIRECTION('',(0.,1.,0.));
#701=DIRECTION('',(0.,0.,1.));
#702=DIRECTION('',(-1.,0.,0.));
#703=DIRECTION('',(0.,0.,-1.));
#704=DIRECTION('',(1.,1.23908819712629E-16,0.));
#705=DIRECTION('',(-1.23908819712629E-16,1.,0.));
#706=DIRECTION('',(-6.84903156768021E-16,-1.,-7.30409884621813E-16));
#707=DIRECTION('',(-1.02423929725527E-31,5.80864757382433E-16,-1.));
#708=DIRECTION('',(-1.12879854954439E-17,-1.,0.));
#709=DIRECTION('',(0.,0.,1.));
#710=DIRECTION('',(6.84903156768021E-16,1.,5.80864757382433E-16));
#711=DIRECTION('',(-1.,6.84903156768021E-16,0.));
#712=DIRECTION('',(-1.,6.84903156768021E-16,5.00260035712045E-31));
#713=DIRECTION('',(0.,0.,1.));
#714=DIRECTION('',(1.,5.95005323920613E-47,-1.02438029691622E-31));
#715=DIRECTION('',(-1.,-1.23908819712629E-16,0.));
#716=DIRECTION('',(1.23908819712629E-16,-1.,0.));
#717=DIRECTION('',(0.,0.,1.));
#718=DIRECTION('',(6.84903156768021E-16,1.,0.));
#719=DIRECTION('',(0.,0.,1.));
#720=DIRECTION('',(-1.24167840449883E-16,1.,0.));
#721=DIRECTION('',(-1.,-1.23908819712629E-16,0.));
#722=DIRECTION('',(1.23908819712629E-16,-1.,0.));
#723=DIRECTION('',(6.84903156768021E-16,1.,0.));
#724=DIRECTION('',(-1.,6.84903156768021E-16,0.));
#725=DIRECTION('',(1.,0.,0.));
#726=DIRECTION('',(4.5047112220516E-31,6.57715061981728E-16,1.));
#727=DIRECTION('',(1.,-6.84903156768021E-16,0.));
#728=DIRECTION('',(1.,2.23523543789637E-32,-1.82602471155453E-16));
#729=DIRECTION('',(-1.82602471155453E-16,0.,-1.));
#730=DIRECTION('',(0.,-1.22409922699976E-16,1.));
#731=DIRECTION('',(-2.92193927237986E-17,1.,0.));
#732=DIRECTION('',(9.68733571476216E-15,1.,0.));
#733=DIRECTION('',(0.,1.,0.));
#734=DIRECTION('',(0.,0.,-1.));
#735=DIRECTION('',(-1.,0.,0.));
#736=DIRECTION('',(-6.84903156768021E-16,-1.,-2.9913142808398E-16));
#737=DIRECTION('',(0.,0.,-1.));
#738=DIRECTION('',(6.81281043129656E-15,-1.,0.));
#739=DIRECTION('',(-6.84903156768021E-16,-1.,-5.98262856167959E-16));
#740=DIRECTION('',(-1.,0.,0.));
#741=DIRECTION('',(0.,0.,1.));
#742=DIRECTION('',(1.,0.,0.));
#743=DIRECTION('',(-1.,1.9111262994014E-32,5.20417042793042E-17));
#744=DIRECTION('',(0.,0.,1.));
#745=DIRECTION('',(1.,0.,0.));
#746=DIRECTION('',(0.,0.,-1.));
#747=DIRECTION('',(-1.,0.,0.));
#748=DIRECTION('',(6.84903156768021E-16,1.,-1.4956571404199E-16));
#749=DIRECTION('',(2.88095901382569E-46,7.30409884621813E-16,-1.));
#750=DIRECTION('',(0.,1.,7.30409884621813E-16));
#751=DIRECTION('',(6.84903156768021E-16,1.,5.98262856167959E-16));
#752=DIRECTION('',(1.,-6.84903156768021E-16,0.));
#753=DIRECTION('',(6.84903156768021E-16,1.,0.));
#754=DIRECTION('',(-1.,6.84903156768021E-16,0.));
#755=DIRECTION('',(-6.84903156768021E-16,-1.,0.));
#756=DIRECTION('',(1.,-6.84903156768021E-16,0.));
#757=DIRECTION('',(6.84903156768021E-16,1.,0.));
#758=DIRECTION('',(-1.,6.84903156768021E-16,0.));
#759=DIRECTION('',(0.,0.,-1.));
#760=DIRECTION('',(1.,-6.84903156768021E-16,0.));
#761=DIRECTION('',(6.84903156768021E-16,1.,0.));
#762=DIRECTION('',(5.9314350592972E-16,0.866025364416038,0.500000068188064));
#763=DIRECTION('',(-5.39270798967664E-23,-7.87367956533331E-8,0.999999999999997));
#764=DIRECTION('',(-5.93143586820337E-16,-0.866025482521228,0.499999863623856));
#765=DIRECTION('',(-5.93143492447948E-16,-0.866025344731836,-0.500000102282094));
#766=DIRECTION('',(1.07854165241807E-22,1.57473599261475E-7,-0.999999999999988));
#767=DIRECTION('',(5.93143600302101E-16,0.866025502205417,-0.499999829529826));
#768=DIRECTION('',(1.,-6.84903156768021E-16,0.));
#769=DIRECTION('',(6.84903156768021E-16,1.,0.));
#770=DIRECTION('',(-1.,6.84903156768021E-16,0.));
#771=DIRECTION('',(0.,0.,-1.));
#772=DIRECTION('',(-1.,6.84903156768021E-16,0.));
#773=DIRECTION('',(-6.84903156768021E-16,-1.,0.));
#774=DIRECTION('',(-6.84903156768019E-16,-0.999999999999997,-7.87367956533331E-8));
#775=DIRECTION('',(0.,7.87367956533331E-8,-0.999999999999997));
#776=DIRECTION('',(-1.,6.84903156768021E-16,0.));
#777=DIRECTION('',(-5.39270798967664E-23,-7.87367956533331E-8,0.999999999999997));
#778=DIRECTION('',(-1.,6.84903156768021E-16,0.));
#779=DIRECTION('',(-3.4245162508623E-16,-0.500000068188064,0.866025364416038));
#780=DIRECTION('',(0.,-0.866025364416038,-0.500000068188064));
#781=DIRECTION('',(-1.,6.84903156768021E-16,0.));
#782=DIRECTION('',(5.9314350592972E-16,0.866025364416038,0.500000068188064));
#783=DIRECTION('',(3.4245146162845E-16,0.499999829529826,0.866025502205417));
#784=DIRECTION('',(0.,-0.866025502205417,0.499999829529826));
#785=DIRECTION('',(-1.,6.84903156768021E-16,0.));
#786=DIRECTION('',(5.93143600302101E-16,0.866025502205417,-0.499999829529826));
#787=DIRECTION('',(6.84903156768012E-16,0.999999999999987,1.57473599261475E-7));
#788=DIRECTION('',(0.,-1.57473599261475E-7,0.999999999999988));
#789=DIRECTION('',(-1.,6.84903156768021E-16,0.));
#790=DIRECTION('',(1.07854165241807E-22,1.57473599261475E-7,-0.999999999999988));
#791=DIRECTION('',(3.42451648437339E-16,0.500000102282094,-0.866025344731836));
#792=DIRECTION('',(0.,0.866025344731836,0.500000102282094));
#793=DIRECTION('',(-1.,6.84903156768021E-16,0.));
#794=DIRECTION('',(-5.93143492447948E-16,-0.866025344731836,-0.500000102282094));
#795=DIRECTION('',(-3.42451484979559E-16,-0.499999863623856,-0.866025482521228));
#796=DIRECTION('',(0.,0.866025482521228,-0.499999863623856));
#797=DIRECTION('',(-5.93143586820337E-16,-0.866025482521228,0.499999863623856));
#798=DIRECTION('',(-1.,6.84903156768021E-16,0.));
#799=DIRECTION('',(-6.84903156768021E-16,-1.,0.));
#800=DIRECTION('',(2.54816839920186E-32,1.,1.22409922699976E-16));
#801=DIRECTION('',(0.,-1.22409922699976E-16,1.));
#802=DIRECTION('',(0.,1.,1.22409922699976E-16));
#803=DIRECTION('',(1.,0.,0.));
#804=DIRECTION('',(0.,-1.,-1.22409922699976E-16));
#805=DIRECTION('',(0.,1.22409922699976E-16,-1.));
#806=DIRECTION('',(0.,1.,1.22409922699976E-16));
#807=DIRECTION('',(1.,0.,0.));
#808=DIRECTION('',(0.,-1.,-1.22409922699976E-16));
#809=DIRECTION('',(0.,1.22409922699976E-16,-1.));
#810=DIRECTION('',(0.,1.,1.22409922699976E-16));
#811=DIRECTION('',(1.,0.,0.));
#812=DIRECTION('',(0.,1.,1.22409922699976E-16));
#813=DIRECTION('',(0.,-1.22409922699976E-16,1.));
#814=CARTESIAN_POINT('',(0.,0.,0.));
#815=CARTESIAN_POINT('',(0.,0.,5.));
#816=CARTESIAN_POINT('',(-0.249999999999999,12.6975391316585,5.));
#817=CARTESIAN_POINT('',(-0.249999999999999,12.6975391316585,5.815));
#818=CARTESIAN_POINT('',(-0.249999999999998,12.6975391316585,0.850000000000005));
#819=CARTESIAN_POINT('',(0.,0.,5.815));
#820=CARTESIAN_POINT('',(0.250000000000001,12.6975391316585,5.815));
#821=CARTESIAN_POINT('',(0.250000000000001,12.6975391316585,5.));
#822=CARTESIAN_POINT('',(0.250000000000001,12.6975391316585,0.85));
#823=CARTESIAN_POINT('',(0.,0.,0.85));
#824=CARTESIAN_POINT('',(6.,-11.1933015683488,0.85));
#825=CARTESIAN_POINT('',(6.,-11.1933015683488,-1.));
#826=CARTESIAN_POINT('',(6.,-11.1933015683488,-1.));
#827=CARTESIAN_POINT('',(0.,0.,-1.));
#828=CARTESIAN_POINT('',(-6.49999999999999,-10.9105453575887,-1.));
#829=CARTESIAN_POINT('',(-6.49999999999999,-10.9105453575887,-1.));
#830=CARTESIAN_POINT('',(-6.49999999999999,-10.9105453575887,0.850000000000005));
#831=CARTESIAN_POINT('',(0.,0.,0.850000000000005));
#832=CARTESIAN_POINT('',(1.3204654981378,-12.6494339837822,1.92235683600416));
#833=CARTESIAN_POINT('',(-0.251195502290271,-12.7369613319593,1.27060883184766));
#834=CARTESIAN_POINT('',(-1.81568348897671,-12.5879554783319,1.92020783660522));
#835=CARTESIAN_POINT('',(-2.4662290759796,-12.4548229410257,3.48315869839051));
#836=CARTESIAN_POINT('',(-1.81938375469998,-12.5873555247954,5.05228634955187));
#837=CARTESIAN_POINT('',(-0.256038496232819,-12.7367633468984,5.70343116746383));
#838=CARTESIAN_POINT('',(1.31356379937967,-12.6502298262841,5.05895154565553));
#839=CARTESIAN_POINT('',(1.96648735773365,-12.5433617356795,3.49157155872566));
#840=CARTESIAN_POINT('',(1.3204654981378,-12.6494339837822,1.92235683600416));
#841=CARTESIAN_POINT('',(-0.251195502290271,-12.7369613319593,1.27060883184766));
#842=CARTESIAN_POINT('',(-1.81568348897671,-12.5879554783319,1.92020783660522));
#843=CARTESIAN_POINT('',(-0.25,-12.6975391316585,1.4875));
#844=CARTESIAN_POINT('',(0.,0.,5.815));
#845=CARTESIAN_POINT('',(-0.250000000000006,1.4049011668961E-16,5.815));
#846=CARTESIAN_POINT('',(-0.249999999999999,12.1974382556338,5.815));
#847=CARTESIAN_POINT('',(0.,0.,5.815));
#848=CARTESIAN_POINT('',(0.25,12.1974382556338,5.815));
#849=CARTESIAN_POINT('',(0.249999999999993,-1.40490116689603E-16,5.815));
#850=CARTESIAN_POINT('',(6.,-12.9561332889317,6.12499999999999));
#851=CARTESIAN_POINT('',(6.,-12.5937484491314,5.));
#852=CARTESIAN_POINT('',(6.00000000000001,-12.5937484491314,6.125));
#853=CARTESIAN_POINT('',(6.,-12.5937484491314,0.85));
#854=CARTESIAN_POINT('',(6.00000000000001,-11.1933015683488,6.125));
#855=CARTESIAN_POINT('',(6.,-40.595,6.125));
#856=CARTESIAN_POINT('',(6.,-40.595,8.5));
#857=CARTESIAN_POINT('',(6.,-40.595,-1.));
#858=CARTESIAN_POINT('',(6.,-12.5937484491314,-1.));
#859=CARTESIAN_POINT('',(6.,-11.1933015683488,0.85));
#860=CARTESIAN_POINT('',(0.,0.,5.));
#861=CARTESIAN_POINT('',(-6.5,-12.3431154900211,5.));
#862=CARTESIAN_POINT('',(-6.49999999999999,-12.3431154900211,0.850000000000005));
#863=CARTESIAN_POINT('',(-6.5,-12.3431154900211,6.125));
#864=CARTESIAN_POINT('',(0.,0.,6.125));
#865=CARTESIAN_POINT('',(-4.125,13.3261725562894,6.125));
#866=CARTESIAN_POINT('',(-4.125,13.3261725562894,5.));
#867=CARTESIAN_POINT('',(-4.125,13.3261725562894,0.850000000000015));
#868=CARTESIAN_POINT('',(0.,0.,0.850000000000005));
#869=CARTESIAN_POINT('',(-9.15390729775388,16.6003991672019,3.4875));
#870=CARTESIAN_POINT('',(-0.25,16.6003991672019,3.4875));
#871=CARTESIAN_POINT('',(-0.25,17.6003991672019,3.4875));
#872=CARTESIAN_POINT('',(-2.625,16.6003991672019,3.4875));
#873=CARTESIAN_POINT('',(-2.625,16.6003991672019,4.4875));
#874=CARTESIAN_POINT('',(0.,0.,5.));
#875=CARTESIAN_POINT('',(0.,0.,6.125));
#876=CARTESIAN_POINT('',(4.125,13.3261725562894,6.125));
#877=CARTESIAN_POINT('',(0.,0.,0.85));
#878=CARTESIAN_POINT('',(4.125,13.3261725562894,0.85));
#879=CARTESIAN_POINT('',(4.125,13.3261725562894,5.));
#880=CARTESIAN_POINT('',(-0.25,17.5,39.3209794243561));
#881=CARTESIAN_POINT('',(-0.249999999999998,19.5,0.850000000000005));
#882=CARTESIAN_POINT('',(-0.249999999999998,19.5,0.850000000000005));
#883=CARTESIAN_POINT('',(-0.249999999999998,19.5,6.65));
#884=CARTESIAN_POINT('',(-0.249999999999998,19.5,6.125));
#885=CARTESIAN_POINT('',(-0.249999999999999,17.5,6.125));
#886=CARTESIAN_POINT('',(-0.249999999999999,12.1974382556338,6.125));
#887=CARTESIAN_POINT('',(-0.249999999999999,12.1974382556338,5.815));
#888=CARTESIAN_POINT('',(-0.249999999999998,19.5,6.65));
#889=CARTESIAN_POINT('',(-0.249999999999998,19.5,0.850000000000005));
#890=CARTESIAN_POINT('',(-4.125,19.5,0.850000000000007));
#891=CARTESIAN_POINT('',(-4.125,19.5,6.125));
#892=CARTESIAN_POINT('',(-4.125,19.5,6.125));
#893=CARTESIAN_POINT('',(-0.249999999999998,19.5,6.125));
#894=CARTESIAN_POINT('',(0.25,17.5,39.3209794243561));
#895=CARTESIAN_POINT('',(0.250000000000001,19.5,0.85));
#896=CARTESIAN_POINT('',(0.250000000000001,19.5,0.85));
#897=CARTESIAN_POINT('',(0.250000000000001,19.5,6.125));
#898=CARTESIAN_POINT('',(0.249999999999998,13.7007983344037,0.85));
#899=CARTESIAN_POINT('',(0.25,12.1974382556338,5.815));
#900=CARTESIAN_POINT('',(0.25,12.1974382556338,6.125));
#901=CARTESIAN_POINT('',(0.250000000000001,12.6975391316585,6.125));
#902=CARTESIAN_POINT('',(0.25,16.6003991672019,3.4875));
#903=CARTESIAN_POINT('',(0.25,15.6003991672019,3.4875));
#904=CARTESIAN_POINT('',(0.250000000000001,19.5,0.85));
#905=CARTESIAN_POINT('',(0.250000000000001,19.5,6.125));
#906=CARTESIAN_POINT('',(4.125,19.5,6.125));
#907=CARTESIAN_POINT('',(4.125,19.5,0.85));
#908=CARTESIAN_POINT('',(4.125,19.5,0.85));
#909=CARTESIAN_POINT('',(0.250000000000001,19.5,0.85));
#910=CARTESIAN_POINT('',(-6.5,-12.9561332889317,1.375));
#911=CARTESIAN_POINT('',(-6.5,-40.595,-1.));
#912=CARTESIAN_POINT('',(-6.5,-40.595,-1.));
#913=CARTESIAN_POINT('',(-6.5,-40.595,6.125));
#914=CARTESIAN_POINT('',(-6.5,-40.595,6.125));
#915=CARTESIAN_POINT('',(-6.5,-12.3431154900211,0.850000000000005));
#916=CARTESIAN_POINT('',(-6.49999999999999,-12.3431154900212,-1.));
#917=CARTESIAN_POINT('',(0.,0.,6.125));
#918=CARTESIAN_POINT('',(4.125,19.5,6.125));
#919=CARTESIAN_POINT('',(0.,0.,6.125));
#920=CARTESIAN_POINT('',(-4.125,13.7007983344037,6.125));
#921=CARTESIAN_POINT('',(-6.5,-40.595,6.125));
#922=CARTESIAN_POINT('',(0.,0.,-1.));
#923=CARTESIAN_POINT('',(6.,-40.595,-1.));
#924=CARTESIAN_POINT('',(0.,0.,5.815));
#925=CARTESIAN_POINT('',(0.249999999999998,13.7007983344037,0.85));
#926=CARTESIAN_POINT('',(4.125,13.7007983344037,0.850000000000001));
#927=CARTESIAN_POINT('',(-0.249999999999998,19.5,0.850000000000005));
#928=CARTESIAN_POINT('',(-4.125,19.5,0.850000000000007));
#929=CARTESIAN_POINT('',(-9.15390729775388,16.6003991672019,3.4875));
#930=CARTESIAN_POINT('',(2.125,16.6003991672019,3.4875));
#931=CARTESIAN_POINT('',(2.125,15.6003991672019,3.4875));
#932=CARTESIAN_POINT('',(4.12499999999999,-2.82522552166808E-15,0.));
#933=CARTESIAN_POINT('',(4.125,16.6003991672019,3.4875));
#934=CARTESIAN_POINT('',(4.125,16.6003991672019,1.4875));
#935=CARTESIAN_POINT('',(-4.12500000000001,2.82522552166809E-15,0.));
#936=CARTESIAN_POINT('',(-4.125,14.6003987603436,4.64220055084673));
#937=CARTESIAN_POINT('',(-4.125,14.6003987603436,4.64220055084673));
#938=CARTESIAN_POINT('',(-4.125,16.600398600103,5.79690120667582));
#939=CARTESIAN_POINT('',(-4.125,14.6003989421784,2.33279892424124));
#940=CARTESIAN_POINT('',(-4.125,14.6003989421784,2.33279892424124));
#941=CARTESIAN_POINT('',(-4.125,16.6003991456076,1.17809868834173));
#942=CARTESIAN_POINT('',(-4.125,16.6003991456076,1.17809868834173));
#943=CARTESIAN_POINT('',(-4.125,18.6003993490367,2.33279965911807));
#944=CARTESIAN_POINT('',(-4.125,18.6003993490367,2.33279965911807));
#945=CARTESIAN_POINT('',(-4.125,18.600398985367,4.64220097077633));
#946=CARTESIAN_POINT('',(-4.125,18.600398985367,4.64220097077633));
#947=CARTESIAN_POINT('',(-4.125,16.600398600103,5.79690120667582));
#948=CARTESIAN_POINT('',(2.125,16.6003991672019,3.4875));
#949=CARTESIAN_POINT('',(2.125,16.6003991672019,3.4875));
#950=CARTESIAN_POINT('',(2.125,16.6003991672019,1.4875));
#951=CARTESIAN_POINT('',(2.125,16.6003991672019,3.4875));
#952=CARTESIAN_POINT('',(-2.625,14.6003989421784,2.33279892424124));
#953=CARTESIAN_POINT('',(-2.625,14.6003987603436,4.64220055084673));
#954=CARTESIAN_POINT('',(-2.625,14.6003987603436,4.64220055084673));
#955=CARTESIAN_POINT('',(-2.625,14.6003989421784,2.33279892424124));
#956=CARTESIAN_POINT('',(-2.625,14.6003989421784,2.33279892424124));
#957=CARTESIAN_POINT('',(-2.625,14.6003989421784,2.33279892424124));
#958=CARTESIAN_POINT('',(-2.625,14.6003987603436,4.64220055084673));
#959=CARTESIAN_POINT('',(-2.625,16.600398600103,5.79690120667582));
#960=CARTESIAN_POINT('',(-2.625,16.600398600103,5.79690120667582));
#961=CARTESIAN_POINT('',(-2.625,14.6003987603436,4.64220055084673));
#962=CARTESIAN_POINT('',(-2.625,16.600398600103,5.79690120667582));
#963=CARTESIAN_POINT('',(-2.625,18.600398985367,4.64220097077633));
#964=CARTESIAN_POINT('',(-2.625,18.600398985367,4.64220097077633));
#965=CARTESIAN_POINT('',(-2.625,16.600398600103,5.79690120667582));
#966=CARTESIAN_POINT('',(-2.625,18.600398985367,4.64220097077633));
#967=CARTESIAN_POINT('',(-2.625,18.6003993490367,2.33279965911807));
#968=CARTESIAN_POINT('',(-2.625,18.6003993490367,2.33279965911807));
#969=CARTESIAN_POINT('',(-2.625,18.600398985367,4.64220097077633));
#970=CARTESIAN_POINT('',(-2.625,18.6003993490367,2.33279965911807));
#971=CARTESIAN_POINT('',(-2.625,16.6003991456076,1.17809868834173));
#972=CARTESIAN_POINT('',(-2.625,16.6003991456076,1.17809868834173));
#973=CARTESIAN_POINT('',(-2.625,18.6003993490367,2.33279965911807));
#974=CARTESIAN_POINT('',(-2.625,16.6003991456076,1.17809868834173));
#975=CARTESIAN_POINT('',(-2.625,16.6003991456076,1.17809868834173));
#976=CARTESIAN_POINT('',(-2.62500000000001,1.79787078651606E-15,0.));
#977=CARTESIAN_POINT('',(-1.034428961656E-30,-40.595,-4.96923081200554E-15));
#978=CARTESIAN_POINT('',(-0.25,-40.595,3.4875));
#979=CARTESIAN_POINT('',(1.625,-40.595,3.4875));
#980=CARTESIAN_POINT('',(-0.25,-17.595,3.4875));
#981=CARTESIAN_POINT('',(-0.25,-17.595,3.4875));
#982=CARTESIAN_POINT('',(1.625,-17.595,3.4875));
#983=CARTESIAN_POINT('',(-0.25,0.00422916236616014,3.4875));
#984=CARTESIAN_POINT('',(-0.25,-17.595,3.4875));
#985=CARTESIAN_POINT('',(1.75,-17.595,3.4875));
#986=CARTESIAN_POINT('',(-0.25,-17.595,3.4875));
#987=MECHANICAL_DESIGN_GEOMETRIC_PRESENTATION_REPRESENTATION('',(#591),
#988);
#988=(
GEOMETRIC_REPRESENTATION_CONTEXT(3)
GLOBAL_UNCERTAINTY_ASSIGNED_CONTEXT((#989))
GLOBAL_UNIT_ASSIGNED_CONTEXT((#992,#991,#990))
REPRESENTATION_CONTEXT('09_FDML_stimfix_1in_lens_clamp_holder_stim',
'TOP_LEVEL_ASSEMBLY_PART')
);
#989=UNCERTAINTY_MEASURE_WITH_UNIT(LENGTH_MEASURE(0.005),#992,
'DISTANCE_ACCURACY_VALUE','Maximum Tolerance applied to model');
#990=(
NAMED_UNIT(*)
SI_UNIT($,.STERADIAN.)
SOLID_ANGLE_UNIT()
);
#991=(
NAMED_UNIT(*)
PLANE_ANGLE_UNIT()
SI_UNIT($,.RADIAN.)
);
#992=(
LENGTH_UNIT()
NAMED_UNIT(*)
SI_UNIT(.MILLI.,.METRE.)
);
#993=PRODUCT_DEFINITION_SHAPE('','',#994);
#994=PRODUCT_DEFINITION('','',#996,#995);
#995=PRODUCT_DEFINITION_CONTEXT('',#1002,'design');
#996=PRODUCT_DEFINITION_FORMATION_WITH_SPECIFIED_SOURCE('','',#998,
 .NOT_KNOWN.);
#997=PRODUCT_RELATED_PRODUCT_CATEGORY('','',(#998));
#998=PRODUCT('09_FDML_stimfix_1in_lens_clamp_holder_stim',
'09_FDML_stimfix_1in_lens_clamp_holder_stim',
'09_FDML_stimfix_1in_lens_clamp_holder_stim',(#1000));
#999=PRODUCT_CATEGORY('','');
#1000=PRODUCT_CONTEXT('',#1002,'mechanical');
#1001=APPLICATION_PROTOCOL_DEFINITION('international standard',
'automotive_design',2010,#1002);
#1002=APPLICATION_CONTEXT(
'core data for automotive mechanical design processes');
ENDSEC;
END-ISO-10303-21;
