ISO-10303-21;
HEADER;
/* Generated by software containing ST-Developer
 * from STEP Tools, Inc. (www.steptools.com) 
 */
/* OPTION: strings as raw bytes, not using required /X/ escapes */

FILE_DESCRIPTION(
/* description */ ('Unknown'),
/* implementation_level */ '2;1');

FILE_NAME(
/* name */ '10_FDML_stimfix_1in_lens_clamp_holder_fix',
/* time_stamp */ '2026-09-07T14:47:50+02:00',
/* author */ ('Unknown'),
/* organization */ ('Unknown'),
/* preprocessor_version */ 'ST-DEVELOPER v16.7',
/* originating_system */ 'Solid Edge',
/* authorisation */ 'Unknown');

FILE_SCHEMA (('AUTOMOTIVE_DESIGN {1 0 10303 214 3 1 1}'));
ENDSEC;

DATA;
#10=PROPERTY_DEFINITION_REPRESENTATION(#14,#12);
#11=PROPERTY_DEFINITION_REPRESENTATION(#15,#13);
#12=REPRESENTATION('',(#16),#1226);
#13=REPRESENTATION('',(#17),#1226);
#14=PROPERTY_DEFINITION('pmi validation property','',#1231);
#15=PROPERTY_DEFINITION('pmi validation property','',#1231);
#16=VALUE_REPRESENTATION_ITEM('number of annotations',COUNT_MEASURE(0.));
#17=VALUE_REPRESENTATION_ITEM('number of views',COUNT_MEASURE(0.));
#18=SHAPE_REPRESENTATION_RELATIONSHIP('','',#741,#19);
#19=ADVANCED_BREP_SHAPE_REPRESENTATION('',(#739),#1226);
#20=B_SPLINE_CURVE_WITH_KNOTS('',3,(#1102,#1103,#1104,#1105,#1106,#1107,
#1108,#1109,#1110,#1111,#1112),.UNSPECIFIED.,.T.,.F.,(1,1,1,1,1,1,1,1,1,
1,1,1,1,1,1),(-0.00469675823616635,-0.00313117215744424,-0.00156558607872212,
2.71050543121376E-19,0.00156558607872212,0.00313117215744424,0.00469675823616635,
0.00626234431488847,0.00782793039361059,0.00939351647233271,0.0109591025510548,
0.0125246886297769,0.0140902747084991,0.0156558607872212,0.0172214468659433),
 .UNSPECIFIED.);
#21=PLANE('',#754);
#22=PLANE('',#755);
#23=PLANE('',#756);
#24=PLANE('',#758);
#25=PLANE('',#759);
#26=PLANE('',#760);
#27=PLANE('',#773);
#28=PLANE('',#775);
#29=PLANE('',#777);
#30=PLANE('',#782);
#31=PLANE('',#783);
#32=PLANE('',#784);
#33=PLANE('',#785);
#34=PLANE('',#787);
#35=PLANE('',#789);
#36=PLANE('',#790);
#37=PLANE('',#793);
#38=PLANE('',#795);
#39=PLANE('',#798);
#40=PLANE('',#799);
#41=PLANE('',#800);
#42=PLANE('',#801);
#43=PLANE('',#802);
#44=PLANE('',#803);
#45=PLANE('',#804);
#46=PLANE('',#805);
#47=PLANE('',#806);
#48=PLANE('',#807);
#49=LINE('',#1025,#119);
#50=LINE('',#1029,#120);
#51=LINE('',#1033,#121);
#52=LINE('',#1037,#122);
#53=LINE('',#1039,#123);
#54=LINE('',#1042,#124);
#55=LINE('',#1044,#125);
#56=LINE('',#1046,#126);
#57=LINE('',#1048,#127);
#58=LINE('',#1050,#128);
#59=LINE('',#1052,#129);
#60=LINE('',#1054,#130);
#61=LINE('',#1056,#131);
#62=LINE('',#1058,#132);
#63=LINE('',#1061,#133);
#64=LINE('',#1063,#134);
#65=LINE('',#1065,#135);
#66=LINE('',#1067,#136);
#67=LINE('',#1069,#137);
#68=LINE('',#1073,#138);
#69=LINE('',#1075,#139);
#70=LINE('',#1077,#140);
#71=LINE('',#1079,#141);
#72=LINE('',#1082,#142);
#73=LINE('',#1084,#143);
#74=LINE('',#1086,#144);
#75=LINE('',#1088,#145);
#76=LINE('',#1090,#146);
#77=LINE('',#1092,#147);
#78=LINE('',#1094,#148);
#79=LINE('',#1096,#149);
#80=LINE('',#1098,#150);
#81=LINE('',#1100,#151);
#82=LINE('',#1119,#152);
#83=LINE('',#1124,#153);
#84=LINE('',#1128,#154);
#85=LINE('',#1134,#155);
#86=LINE('',#1139,#156);
#87=LINE('',#1140,#157);
#88=LINE('',#1141,#158);
#89=LINE('',#1142,#159);
#90=LINE('',#1144,#160);
#91=LINE('',#1148,#161);
#92=LINE('',#1149,#162);
#93=LINE('',#1151,#163);
#94=LINE('',#1159,#164);
#95=LINE('',#1161,#165);
#96=LINE('',#1163,#166);
#97=LINE('',#1167,#167);
#98=LINE('',#1169,#168);
#99=LINE('',#1172,#169);
#100=LINE('',#1174,#170);
#101=LINE('',#1182,#171);
#102=LINE('',#1185,#172);
#103=LINE('',#1187,#173);
#104=LINE('',#1189,#174);
#105=LINE('',#1191,#175);
#106=LINE('',#1193,#176);
#107=LINE('',#1199,#177);
#108=LINE('',#1201,#178);
#109=LINE('',#1203,#179);
#110=LINE('',#1205,#180);
#111=LINE('',#1207,#181);
#112=LINE('',#1209,#182);
#113=LINE('',#1211,#183);
#114=LINE('',#1213,#184);
#115=LINE('',#1215,#185);
#116=LINE('',#1217,#186);
#117=LINE('',#1219,#187);
#118=LINE('',#1221,#188);
#119=VECTOR('',#826,1000.);
#120=VECTOR('',#829,1000.);
#121=VECTOR('',#832,1000.);
#122=VECTOR('',#835,1000.);
#123=VECTOR('',#838,1000.);
#124=VECTOR('',#839,1000.);
#125=VECTOR('',#840,1000.);
#126=VECTOR('',#841,1000.);
#127=VECTOR('',#842,1000.);
#128=VECTOR('',#843,1000.);
#129=VECTOR('',#846,1000.);
#130=VECTOR('',#847,1000.);
#131=VECTOR('',#848,1000.);
#132=VECTOR('',#851,1000.);
#133=VECTOR('',#852,1000.);
#134=VECTOR('',#853,1000.);
#135=VECTOR('',#854,1000.);
#136=VECTOR('',#855,1000.);
#137=VECTOR('',#856,1000.);
#138=VECTOR('',#861,1000.);
#139=VECTOR('',#862,1000.);
#140=VECTOR('',#863,1000.);
#141=VECTOR('',#866,1000.);
#142=VECTOR('',#867,1000.);
#143=VECTOR('',#868,1000.);
#144=VECTOR('',#869,1000.);
#145=VECTOR('',#870,1000.);
#146=VECTOR('',#871,1000.);
#147=VECTOR('',#874,1000.);
#148=VECTOR('',#875,1000.);
#149=VECTOR('',#876,1000.);
#150=VECTOR('',#877,1000.);
#151=VECTOR('',#878,1000.);
#152=VECTOR('',#891,1000.);
#153=VECTOR('',#894,1000.);
#154=VECTOR('',#899,1000.);
#155=VECTOR('',#904,1000.);
#156=VECTOR('',#911,1000.);
#157=VECTOR('',#912,1000.);
#158=VECTOR('',#913,1000.);
#159=VECTOR('',#914,1000.);
#160=VECTOR('',#917,1000.);
#161=VECTOR('',#920,1000.);
#162=VECTOR('',#921,1000.);
#163=VECTOR('',#924,1000.);
#164=VECTOR('',#937,1000.);
#165=VECTOR('',#938,1000.);
#166=VECTOR('',#941,1000.);
#167=VECTOR('',#946,1000.);
#168=VECTOR('',#949,1000.);
#169=VECTOR('',#954,1000.);
#170=VECTOR('',#957,1000.);
#171=VECTOR('',#968,1000.);
#172=VECTOR('',#969,1000.);
#173=VECTOR('',#970,1000.);
#174=VECTOR('',#971,1000.);
#175=VECTOR('',#972,1000.);
#176=VECTOR('',#973,1000.);
#177=VECTOR('',#982,1000.);
#178=VECTOR('',#983,1000.);
#179=VECTOR('',#984,1000.);
#180=VECTOR('',#987,1000.);
#181=VECTOR('',#988,1000.);
#182=VECTOR('',#991,1000.);
#183=VECTOR('',#992,1000.);
#184=VECTOR('',#995,1000.);
#185=VECTOR('',#996,1000.);
#186=VECTOR('',#999,1000.);
#187=VECTOR('',#1000,1000.);
#188=VECTOR('',#1003,1000.);
#189=ORIENTED_EDGE('',*,*,#383,.F.);
#190=ORIENTED_EDGE('',*,*,#384,.T.);
#191=ORIENTED_EDGE('',*,*,#385,.F.);
#192=ORIENTED_EDGE('',*,*,#386,.T.);
#193=ORIENTED_EDGE('',*,*,#387,.T.);
#194=ORIENTED_EDGE('',*,*,#388,.T.);
#195=ORIENTED_EDGE('',*,*,#389,.T.);
#196=ORIENTED_EDGE('',*,*,#390,.T.);
#197=ORIENTED_EDGE('',*,*,#391,.T.);
#198=ORIENTED_EDGE('',*,*,#392,.T.);
#199=ORIENTED_EDGE('',*,*,#393,.T.);
#200=ORIENTED_EDGE('',*,*,#394,.T.);
#201=ORIENTED_EDGE('',*,*,#395,.T.);
#202=ORIENTED_EDGE('',*,*,#396,.F.);
#203=ORIENTED_EDGE('',*,*,#397,.F.);
#204=ORIENTED_EDGE('',*,*,#398,.T.);
#205=ORIENTED_EDGE('',*,*,#399,.T.);
#206=ORIENTED_EDGE('',*,*,#400,.T.);
#207=ORIENTED_EDGE('',*,*,#385,.T.);
#208=ORIENTED_EDGE('',*,*,#401,.T.);
#209=ORIENTED_EDGE('',*,*,#402,.T.);
#210=ORIENTED_EDGE('',*,*,#403,.T.);
#211=ORIENTED_EDGE('',*,*,#397,.T.);
#212=ORIENTED_EDGE('',*,*,#404,.F.);
#213=ORIENTED_EDGE('',*,*,#405,.F.);
#214=ORIENTED_EDGE('',*,*,#406,.T.);
#215=ORIENTED_EDGE('',*,*,#407,.T.);
#216=ORIENTED_EDGE('',*,*,#408,.T.);
#217=ORIENTED_EDGE('',*,*,#409,.T.);
#218=ORIENTED_EDGE('',*,*,#410,.T.);
#219=ORIENTED_EDGE('',*,*,#404,.T.);
#220=ORIENTED_EDGE('',*,*,#411,.T.);
#221=ORIENTED_EDGE('',*,*,#412,.F.);
#222=ORIENTED_EDGE('',*,*,#413,.F.);
#223=ORIENTED_EDGE('',*,*,#414,.F.);
#224=ORIENTED_EDGE('',*,*,#415,.T.);
#225=ORIENTED_EDGE('',*,*,#416,.F.);
#226=ORIENTED_EDGE('',*,*,#417,.F.);
#227=ORIENTED_EDGE('',*,*,#418,.T.);
#228=ORIENTED_EDGE('',*,*,#419,.T.);
#229=ORIENTED_EDGE('',*,*,#420,.T.);
#230=ORIENTED_EDGE('',*,*,#394,.F.);
#231=ORIENTED_EDGE('',*,*,#421,.T.);
#232=ORIENTED_EDGE('',*,*,#422,.T.);
#233=ORIENTED_EDGE('',*,*,#423,.F.);
#234=ORIENTED_EDGE('',*,*,#424,.T.);
#235=ORIENTED_EDGE('',*,*,#425,.F.);
#236=ORIENTED_EDGE('',*,*,#426,.F.);
#237=ORIENTED_EDGE('',*,*,#406,.F.);
#238=ORIENTED_EDGE('',*,*,#427,.T.);
#239=ORIENTED_EDGE('',*,*,#424,.F.);
#240=ORIENTED_EDGE('',*,*,#428,.F.);
#241=ORIENTED_EDGE('',*,*,#416,.T.);
#242=ORIENTED_EDGE('',*,*,#429,.T.);
#243=ORIENTED_EDGE('',*,*,#395,.F.);
#244=ORIENTED_EDGE('',*,*,#430,.T.);
#245=ORIENTED_EDGE('',*,*,#431,.T.);
#246=ORIENTED_EDGE('',*,*,#432,.F.);
#247=ORIENTED_EDGE('',*,*,#433,.T.);
#248=ORIENTED_EDGE('',*,*,#434,.F.);
#249=ORIENTED_EDGE('',*,*,#435,.T.);
#250=ORIENTED_EDGE('',*,*,#414,.T.);
#251=ORIENTED_EDGE('',*,*,#436,.T.);
#252=ORIENTED_EDGE('',*,*,#437,.F.);
#253=ORIENTED_EDGE('',*,*,#438,.T.);
#254=ORIENTED_EDGE('',*,*,#439,.T.);
#255=ORIENTED_EDGE('',*,*,#398,.F.);
#256=ORIENTED_EDGE('',*,*,#403,.F.);
#257=ORIENTED_EDGE('',*,*,#440,.T.);
#258=ORIENTED_EDGE('',*,*,#438,.F.);
#259=ORIENTED_EDGE('',*,*,#441,.T.);
#260=ORIENTED_EDGE('',*,*,#433,.F.);
#261=ORIENTED_EDGE('',*,*,#442,.T.);
#262=ORIENTED_EDGE('',*,*,#389,.F.);
#263=ORIENTED_EDGE('',*,*,#443,.F.);
#264=ORIENTED_EDGE('',*,*,#411,.F.);
#265=ORIENTED_EDGE('',*,*,#409,.F.);
#266=ORIENTED_EDGE('',*,*,#421,.F.);
#267=ORIENTED_EDGE('',*,*,#393,.F.);
#268=ORIENTED_EDGE('',*,*,#444,.T.);
#269=ORIENTED_EDGE('',*,*,#445,.T.);
#270=ORIENTED_EDGE('',*,*,#446,.F.);
#271=ORIENTED_EDGE('',*,*,#436,.F.);
#272=ORIENTED_EDGE('',*,*,#419,.F.);
#273=ORIENTED_EDGE('',*,*,#447,.T.);
#274=ORIENTED_EDGE('',*,*,#423,.T.);
#275=ORIENTED_EDGE('',*,*,#448,.T.);
#276=ORIENTED_EDGE('',*,*,#417,.T.);
#277=ORIENTED_EDGE('',*,*,#428,.T.);
#278=ORIENTED_EDGE('',*,*,#425,.T.);
#279=ORIENTED_EDGE('',*,*,#449,.F.);
#280=ORIENTED_EDGE('',*,*,#399,.F.);
#281=ORIENTED_EDGE('',*,*,#439,.F.);
#282=ORIENTED_EDGE('',*,*,#408,.F.);
#283=ORIENTED_EDGE('',*,*,#450,.T.);
#284=ORIENTED_EDGE('',*,*,#400,.F.);
#285=ORIENTED_EDGE('',*,*,#450,.F.);
#286=ORIENTED_EDGE('',*,*,#407,.F.);
#287=ORIENTED_EDGE('',*,*,#426,.T.);
#288=ORIENTED_EDGE('',*,*,#446,.T.);
#289=ORIENTED_EDGE('',*,*,#451,.F.);
#290=ORIENTED_EDGE('',*,*,#452,.T.);
#291=ORIENTED_EDGE('',*,*,#430,.F.);
#292=ORIENTED_EDGE('',*,*,#441,.F.);
#293=ORIENTED_EDGE('',*,*,#437,.T.);
#294=ORIENTED_EDGE('',*,*,#432,.T.);
#295=ORIENTED_EDGE('',*,*,#453,.T.);
#296=ORIENTED_EDGE('',*,*,#390,.F.);
#297=ORIENTED_EDGE('',*,*,#442,.F.);
#298=ORIENTED_EDGE('',*,*,#431,.F.);
#299=ORIENTED_EDGE('',*,*,#452,.F.);
#300=ORIENTED_EDGE('',*,*,#454,.F.);
#301=ORIENTED_EDGE('',*,*,#455,.F.);
#302=ORIENTED_EDGE('',*,*,#391,.F.);
#303=ORIENTED_EDGE('',*,*,#453,.F.);
#304=ORIENTED_EDGE('',*,*,#444,.F.);
#305=ORIENTED_EDGE('',*,*,#392,.F.);
#306=ORIENTED_EDGE('',*,*,#455,.T.);
#307=ORIENTED_EDGE('',*,*,#456,.T.);
#308=ORIENTED_EDGE('',*,*,#445,.F.);
#309=ORIENTED_EDGE('',*,*,#456,.F.);
#310=ORIENTED_EDGE('',*,*,#454,.T.);
#311=ORIENTED_EDGE('',*,*,#451,.T.);
#312=ORIENTED_EDGE('',*,*,#457,.F.);
#313=ORIENTED_EDGE('',*,*,#387,.F.);
#314=ORIENTED_EDGE('',*,*,#420,.F.);
#315=ORIENTED_EDGE('',*,*,#427,.F.);
#316=ORIENTED_EDGE('',*,*,#405,.T.);
#317=ORIENTED_EDGE('',*,*,#413,.T.);
#318=ORIENTED_EDGE('',*,*,#435,.F.);
#319=ORIENTED_EDGE('',*,*,#458,.T.);
#320=ORIENTED_EDGE('',*,*,#401,.F.);
#321=ORIENTED_EDGE('',*,*,#396,.T.);
#322=ORIENTED_EDGE('',*,*,#429,.F.);
#323=ORIENTED_EDGE('',*,*,#415,.F.);
#324=ORIENTED_EDGE('',*,*,#459,.F.);
#325=ORIENTED_EDGE('',*,*,#410,.F.);
#326=ORIENTED_EDGE('',*,*,#460,.T.);
#327=ORIENTED_EDGE('',*,*,#412,.T.);
#328=ORIENTED_EDGE('',*,*,#443,.T.);
#329=ORIENTED_EDGE('',*,*,#388,.F.);
#330=ORIENTED_EDGE('',*,*,#457,.T.);
#331=ORIENTED_EDGE('',*,*,#461,.F.);
#332=ORIENTED_EDGE('',*,*,#462,.F.);
#333=ORIENTED_EDGE('',*,*,#463,.F.);
#334=ORIENTED_EDGE('',*,*,#464,.F.);
#335=ORIENTED_EDGE('',*,*,#465,.F.);
#336=ORIENTED_EDGE('',*,*,#466,.F.);
#337=ORIENTED_EDGE('',*,*,#440,.F.);
#338=ORIENTED_EDGE('',*,*,#402,.F.);
#339=ORIENTED_EDGE('',*,*,#458,.F.);
#340=ORIENTED_EDGE('',*,*,#434,.T.);
#341=ORIENTED_EDGE('',*,*,#467,.T.);
#342=ORIENTED_EDGE('',*,*,#460,.F.);
#343=ORIENTED_EDGE('',*,*,#459,.T.);
#344=ORIENTED_EDGE('',*,*,#467,.F.);
#345=ORIENTED_EDGE('',*,*,#462,.T.);
#346=ORIENTED_EDGE('',*,*,#468,.F.);
#347=ORIENTED_EDGE('',*,*,#469,.F.);
#348=ORIENTED_EDGE('',*,*,#470,.T.);
#349=ORIENTED_EDGE('',*,*,#461,.T.);
#350=ORIENTED_EDGE('',*,*,#471,.F.);
#351=ORIENTED_EDGE('',*,*,#472,.F.);
#352=ORIENTED_EDGE('',*,*,#468,.T.);
#353=ORIENTED_EDGE('',*,*,#466,.T.);
#354=ORIENTED_EDGE('',*,*,#473,.F.);
#355=ORIENTED_EDGE('',*,*,#474,.F.);
#356=ORIENTED_EDGE('',*,*,#471,.T.);
#357=ORIENTED_EDGE('',*,*,#465,.T.);
#358=ORIENTED_EDGE('',*,*,#475,.F.);
#359=ORIENTED_EDGE('',*,*,#476,.F.);
#360=ORIENTED_EDGE('',*,*,#473,.T.);
#361=ORIENTED_EDGE('',*,*,#464,.T.);
#362=ORIENTED_EDGE('',*,*,#477,.F.);
#363=ORIENTED_EDGE('',*,*,#478,.F.);
#364=ORIENTED_EDGE('',*,*,#475,.T.);
#365=ORIENTED_EDGE('',*,*,#463,.T.);
#366=ORIENTED_EDGE('',*,*,#470,.F.);
#367=ORIENTED_EDGE('',*,*,#479,.F.);
#368=ORIENTED_EDGE('',*,*,#477,.T.);
#369=ORIENTED_EDGE('',*,*,#386,.F.);
#370=ORIENTED_EDGE('',*,*,#469,.T.);
#371=ORIENTED_EDGE('',*,*,#472,.T.);
#372=ORIENTED_EDGE('',*,*,#474,.T.);
#373=ORIENTED_EDGE('',*,*,#476,.T.);
#374=ORIENTED_EDGE('',*,*,#478,.T.);
#375=ORIENTED_EDGE('',*,*,#479,.T.);
#376=ORIENTED_EDGE('',*,*,#383,.T.);
#377=ORIENTED_EDGE('',*,*,#418,.F.);
#378=ORIENTED_EDGE('',*,*,#448,.F.);
#379=ORIENTED_EDGE('',*,*,#422,.F.);
#380=ORIENTED_EDGE('',*,*,#447,.F.);
#381=ORIENTED_EDGE('',*,*,#384,.F.);
#382=ORIENTED_EDGE('',*,*,#449,.T.);
#383=EDGE_CURVE('',#480,#480,#548,.T.);
#384=EDGE_CURVE('',#481,#481,#549,.T.);
#385=EDGE_CURVE('',#482,#482,#550,.F.);
#386=EDGE_CURVE('',#483,#483,#551,.T.);
#387=EDGE_CURVE('',#484,#485,#552,.T.);
#388=EDGE_CURVE('',#485,#486,#49,.F.);
#389=EDGE_CURVE('',#486,#487,#553,.T.);
#390=EDGE_CURVE('',#487,#488,#50,.T.);
#391=EDGE_CURVE('',#488,#489,#554,.T.);
#392=EDGE_CURVE('',#489,#490,#51,.T.);
#393=EDGE_CURVE('',#490,#491,#555,.T.);
#394=EDGE_CURVE('',#491,#484,#52,.T.);
#395=EDGE_CURVE('',#492,#493,#53,.T.);
#396=EDGE_CURVE('',#494,#493,#54,.T.);
#397=EDGE_CURVE('',#495,#494,#55,.T.);
#398=EDGE_CURVE('',#495,#496,#56,.T.);
#399=EDGE_CURVE('',#496,#497,#57,.F.);
#400=EDGE_CURVE('',#497,#492,#58,.T.);
#401=EDGE_CURVE('',#494,#498,#59,.T.);
#402=EDGE_CURVE('',#498,#499,#60,.T.);
#403=EDGE_CURVE('',#499,#495,#61,.T.);
#404=EDGE_CURVE('',#500,#501,#62,.T.);
#405=EDGE_CURVE('',#502,#500,#63,.T.);
#406=EDGE_CURVE('',#502,#503,#64,.F.);
#407=EDGE_CURVE('',#503,#504,#65,.T.);
#408=EDGE_CURVE('',#504,#505,#66,.T.);
#409=EDGE_CURVE('',#505,#501,#67,.T.);
#410=EDGE_CURVE('',#506,#506,#556,.F.);
#411=EDGE_CURVE('',#501,#507,#68,.T.);
#412=EDGE_CURVE('',#508,#507,#69,.T.);
#413=EDGE_CURVE('',#500,#508,#70,.T.);
#414=EDGE_CURVE('',#509,#510,#71,.F.);
#415=EDGE_CURVE('',#509,#511,#72,.T.);
#416=EDGE_CURVE('',#512,#511,#73,.T.);
#417=EDGE_CURVE('',#513,#512,#74,.T.);
#418=EDGE_CURVE('',#513,#514,#75,.T.);
#419=EDGE_CURVE('',#514,#510,#76,.T.);
#420=EDGE_CURVE('',#515,#484,#77,.T.);
#421=EDGE_CURVE('',#491,#516,#78,.T.);
#422=EDGE_CURVE('',#516,#517,#79,.T.);
#423=EDGE_CURVE('',#518,#517,#80,.T.);
#424=EDGE_CURVE('',#518,#515,#81,.T.);
#425=EDGE_CURVE('',#519,#519,#20,.T.);
#426=EDGE_CURVE('',#503,#492,#557,.T.);
#427=EDGE_CURVE('',#502,#515,#558,.T.);
#428=EDGE_CURVE('',#512,#518,#559,.T.);
#429=EDGE_CURVE('',#511,#493,#560,.T.);
#430=EDGE_CURVE('',#520,#521,#82,.T.);
#431=EDGE_CURVE('',#521,#522,#561,.F.);
#432=EDGE_CURVE('',#523,#522,#83,.T.);
#433=EDGE_CURVE('',#523,#520,#562,.T.);
#434=EDGE_CURVE('',#524,#525,#84,.F.);
#435=EDGE_CURVE('',#524,#509,#563,.T.);
#436=EDGE_CURVE('',#510,#526,#564,.T.);
#437=EDGE_CURVE('',#527,#526,#85,.T.);
#438=EDGE_CURVE('',#527,#525,#565,.T.);
#439=EDGE_CURVE('',#505,#496,#566,.T.);
#440=EDGE_CURVE('',#499,#525,#86,.T.);
#441=EDGE_CURVE('',#527,#520,#87,.T.);
#442=EDGE_CURVE('',#523,#487,#88,.T.);
#443=EDGE_CURVE('',#507,#486,#89,.T.);
#444=EDGE_CURVE('',#490,#528,#90,.T.);
#445=EDGE_CURVE('',#528,#529,#567,.T.);
#446=EDGE_CURVE('',#526,#529,#91,.T.);
#447=EDGE_CURVE('',#514,#516,#92,.T.);
#448=EDGE_CURVE('',#517,#513,#93,.T.);
#449=EDGE_CURVE('',#530,#530,#568,.T.);
#450=EDGE_CURVE('',#504,#497,#569,.T.);
#451=EDGE_CURVE('',#531,#529,#94,.T.);
#452=EDGE_CURVE('',#531,#521,#95,.T.);
#453=EDGE_CURVE('',#522,#488,#96,.T.);
#454=EDGE_CURVE('',#532,#531,#570,.T.);
#455=EDGE_CURVE('',#489,#532,#97,.T.);
#456=EDGE_CURVE('',#532,#528,#98,.T.);
#457=EDGE_CURVE('',#485,#508,#99,.T.);
#458=EDGE_CURVE('',#524,#498,#100,.T.);
#459=EDGE_CURVE('',#533,#533,#571,.T.);
#460=EDGE_CURVE('',#534,#534,#572,.T.);
#461=EDGE_CURVE('',#535,#536,#101,.T.);
#462=EDGE_CURVE('',#537,#535,#102,.T.);
#463=EDGE_CURVE('',#538,#537,#103,.T.);
#464=EDGE_CURVE('',#539,#538,#104,.T.);
#465=EDGE_CURVE('',#540,#539,#105,.T.);
#466=EDGE_CURVE('',#536,#540,#106,.T.);
#467=EDGE_CURVE('',#541,#541,#573,.T.);
#468=EDGE_CURVE('',#542,#535,#107,.T.);
#469=EDGE_CURVE('',#543,#542,#108,.T.);
#470=EDGE_CURVE('',#543,#537,#109,.T.);
#471=EDGE_CURVE('',#544,#536,#110,.T.);
#472=EDGE_CURVE('',#542,#544,#111,.T.);
#473=EDGE_CURVE('',#545,#540,#112,.T.);
#474=EDGE_CURVE('',#544,#545,#113,.T.);
#475=EDGE_CURVE('',#546,#539,#114,.T.);
#476=EDGE_CURVE('',#545,#546,#115,.T.);
#477=EDGE_CURVE('',#547,#538,#116,.T.);
#478=EDGE_CURVE('',#546,#547,#117,.T.);
#479=EDGE_CURVE('',#547,#543,#118,.T.);
#480=VERTEX_POINT('',#1013);
#481=VERTEX_POINT('',#1015);
#482=VERTEX_POINT('',#1018);
#483=VERTEX_POINT('',#1020);
#484=VERTEX_POINT('',#1023);
#485=VERTEX_POINT('',#1024);
#486=VERTEX_POINT('',#1026);
#487=VERTEX_POINT('',#1028);
#488=VERTEX_POINT('',#1030);
#489=VERTEX_POINT('',#1032);
#490=VERTEX_POINT('',#1034);
#491=VERTEX_POINT('',#1036);
#492=VERTEX_POINT('',#1040);
#493=VERTEX_POINT('',#1041);
#494=VERTEX_POINT('',#1043);
#495=VERTEX_POINT('',#1045);
#496=VERTEX_POINT('',#1047);
#497=VERTEX_POINT('',#1049);
#498=VERTEX_POINT('',#1053);
#499=VERTEX_POINT('',#1055);
#500=VERTEX_POINT('',#1059);
#501=VERTEX_POINT('',#1060);
#502=VERTEX_POINT('',#1062);
#503=VERTEX_POINT('',#1064);
#504=VERTEX_POINT('',#1066);
#505=VERTEX_POINT('',#1068);
#506=VERTEX_POINT('',#1071);
#507=VERTEX_POINT('',#1074);
#508=VERTEX_POINT('',#1076);
#509=VERTEX_POINT('',#1080);
#510=VERTEX_POINT('',#1081);
#511=VERTEX_POINT('',#1083);
#512=VERTEX_POINT('',#1085);
#513=VERTEX_POINT('',#1087);
#514=VERTEX_POINT('',#1089);
#515=VERTEX_POINT('',#1093);
#516=VERTEX_POINT('',#1095);
#517=VERTEX_POINT('',#1097);
#518=VERTEX_POINT('',#1099);
#519=VERTEX_POINT('',#1113);
#520=VERTEX_POINT('',#1120);
#521=VERTEX_POINT('',#1121);
#522=VERTEX_POINT('',#1123);
#523=VERTEX_POINT('',#1125);
#524=VERTEX_POINT('',#1129);
#525=VERTEX_POINT('',#1130);
#526=VERTEX_POINT('',#1133);
#527=VERTEX_POINT('',#1135);
#528=VERTEX_POINT('',#1145);
#529=VERTEX_POINT('',#1147);
#530=VERTEX_POINT('',#1154);
#531=VERTEX_POINT('',#1160);
#532=VERTEX_POINT('',#1166);
#533=VERTEX_POINT('',#1177);
#534=VERTEX_POINT('',#1180);
#535=VERTEX_POINT('',#1183);
#536=VERTEX_POINT('',#1184);
#537=VERTEX_POINT('',#1186);
#538=VERTEX_POINT('',#1188);
#539=VERTEX_POINT('',#1190);
#540=VERTEX_POINT('',#1192);
#541=VERTEX_POINT('',#1196);
#542=VERTEX_POINT('',#1200);
#543=VERTEX_POINT('',#1202);
#544=VERTEX_POINT('',#1206);
#545=VERTEX_POINT('',#1210);
#546=VERTEX_POINT('',#1214);
#547=VERTEX_POINT('',#1218);
#548=CIRCLE('',#744,1.875);
#549=CIRCLE('',#745,1.875);
#550=CIRCLE('',#747,1.);
#551=CIRCLE('',#748,1.);
#552=CIRCLE('',#750,13.95);
#553=CIRCLE('',#751,13.95);
#554=CIRCLE('',#752,13.95);
#555=CIRCLE('',#753,13.95);
#556=CIRCLE('',#757,1.);
#557=CIRCLE('',#762,12.7);
#558=CIRCLE('',#763,12.7);
#559=CIRCLE('',#764,12.7);
#560=CIRCLE('',#765,12.7);
#561=CIRCLE('',#767,12.7);
#562=CIRCLE('',#768,12.7);
#563=CIRCLE('',#770,13.95);
#564=CIRCLE('',#771,13.95);
#565=CIRCLE('',#772,13.95);
#566=CIRCLE('',#774,12.2);
#567=CIRCLE('',#776,12.2);
#568=CIRCLE('',#779,2.);
#569=CIRCLE('',#781,12.2);
#570=CIRCLE('',#786,12.2);
#571=CIRCLE('',#792,1.);
#572=CIRCLE('',#794,2.);
#573=CIRCLE('',#797,2.);
#574=EDGE_LOOP('',(#189));
#575=EDGE_LOOP('',(#190));
#576=EDGE_LOOP('',(#191));
#577=EDGE_LOOP('',(#192));
#578=EDGE_LOOP('',(#193,#194,#195,#196,#197,#198,#199,#200));
#579=EDGE_LOOP('',(#201,#202,#203,#204,#205,#206));
#580=EDGE_LOOP('',(#207));
#581=EDGE_LOOP('',(#208,#209,#210,#211));
#582=EDGE_LOOP('',(#212,#213,#214,#215,#216,#217));
#583=EDGE_LOOP('',(#218));
#584=EDGE_LOOP('',(#219,#220,#221,#222));
#585=EDGE_LOOP('',(#223,#224,#225,#226,#227,#228));
#586=EDGE_LOOP('',(#229,#230,#231,#232,#233,#234));
#587=EDGE_LOOP('',(#235));
#588=EDGE_LOOP('',(#236,#237,#238,#239,#240,#241,#242,#243));
#589=EDGE_LOOP('',(#244,#245,#246,#247));
#590=EDGE_LOOP('',(#248,#249,#250,#251,#252,#253));
#591=EDGE_LOOP('',(#254,#255,#256,#257,#258,#259,#260,#261,#262,#263,#264,
#265));
#592=EDGE_LOOP('',(#266,#267,#268,#269,#270,#271,#272,#273));
#593=EDGE_LOOP('',(#274,#275,#276,#277));
#594=EDGE_LOOP('',(#278));
#595=EDGE_LOOP('',(#279));
#596=EDGE_LOOP('',(#280,#281,#282,#283));
#597=EDGE_LOOP('',(#284,#285,#286,#287));
#598=EDGE_LOOP('',(#288,#289,#290,#291,#292,#293));
#599=EDGE_LOOP('',(#294,#295,#296,#297));
#600=EDGE_LOOP('',(#298,#299,#300,#301,#302,#303));
#601=EDGE_LOOP('',(#304,#305,#306,#307));
#602=EDGE_LOOP('',(#308,#309,#310,#311));
#603=EDGE_LOOP('',(#312,#313,#314,#315,#316,#317));
#604=EDGE_LOOP('',(#318,#319,#320,#321,#322,#323));
#605=EDGE_LOOP('',(#324));
#606=EDGE_LOOP('',(#325));
#607=EDGE_LOOP('',(#326));
#608=EDGE_LOOP('',(#327,#328,#329,#330));
#609=EDGE_LOOP('',(#331,#332,#333,#334,#335,#336));
#610=EDGE_LOOP('',(#337,#338,#339,#340));
#611=EDGE_LOOP('',(#341));
#612=EDGE_LOOP('',(#342));
#613=EDGE_LOOP('',(#343));
#614=EDGE_LOOP('',(#344));
#615=EDGE_LOOP('',(#345,#346,#347,#348));
#616=EDGE_LOOP('',(#349,#350,#351,#352));
#617=EDGE_LOOP('',(#353,#354,#355,#356));
#618=EDGE_LOOP('',(#357,#358,#359,#360));
#619=EDGE_LOOP('',(#361,#362,#363,#364));
#620=EDGE_LOOP('',(#365,#366,#367,#368));
#621=EDGE_LOOP('',(#369));
#622=EDGE_LOOP('',(#370,#371,#372,#373,#374,#375));
#623=EDGE_LOOP('',(#376));
#624=EDGE_LOOP('',(#377,#378,#379,#380));
#625=EDGE_LOOP('',(#381));
#626=EDGE_LOOP('',(#382));
#627=FACE_BOUND('',#574,.T.);
#628=FACE_BOUND('',#575,.T.);
#629=FACE_BOUND('',#576,.T.);
#630=FACE_BOUND('',#577,.T.);
#631=FACE_BOUND('',#578,.T.);
#632=FACE_BOUND('',#579,.T.);
#633=FACE_BOUND('',#580,.T.);
#634=FACE_BOUND('',#581,.T.);
#635=FACE_BOUND('',#582,.T.);
#636=FACE_BOUND('',#583,.T.);
#637=FACE_BOUND('',#584,.T.);
#638=FACE_BOUND('',#585,.T.);
#639=FACE_BOUND('',#586,.T.);
#640=FACE_BOUND('',#587,.T.);
#641=FACE_BOUND('',#588,.T.);
#642=FACE_BOUND('',#589,.T.);
#643=FACE_BOUND('',#590,.T.);
#644=FACE_BOUND('',#591,.T.);
#645=FACE_BOUND('',#592,.T.);
#646=FACE_BOUND('',#593,.T.);
#647=FACE_BOUND('',#594,.T.);
#648=FACE_BOUND('',#595,.T.);
#649=FACE_BOUND('',#596,.T.);
#650=FACE_BOUND('',#597,.T.);
#651=FACE_BOUND('',#598,.T.);
#652=FACE_BOUND('',#599,.T.);
#653=FACE_BOUND('',#600,.T.);
#654=FACE_BOUND('',#601,.T.);
#655=FACE_BOUND('',#602,.T.);
#656=FACE_BOUND('',#603,.T.);
#657=FACE_BOUND('',#604,.T.);
#658=FACE_BOUND('',#605,.T.);
#659=FACE_BOUND('',#606,.T.);
#660=FACE_BOUND('',#607,.T.);
#661=FACE_BOUND('',#608,.T.);
#662=FACE_BOUND('',#609,.T.);
#663=FACE_BOUND('',#610,.T.);
#664=FACE_BOUND('',#611,.T.);
#665=FACE_BOUND('',#612,.T.);
#666=FACE_BOUND('',#613,.T.);
#667=FACE_BOUND('',#614,.T.);
#668=FACE_BOUND('',#615,.T.);
#669=FACE_BOUND('',#616,.T.);
#670=FACE_BOUND('',#617,.T.);
#671=FACE_BOUND('',#618,.T.);
#672=FACE_BOUND('',#619,.T.);
#673=FACE_BOUND('',#620,.T.);
#674=FACE_BOUND('',#621,.T.);
#675=FACE_BOUND('',#622,.T.);
#676=FACE_BOUND('',#623,.T.);
#677=FACE_BOUND('',#624,.T.);
#678=FACE_BOUND('',#625,.T.);
#679=FACE_BOUND('',#626,.T.);
#680=CYLINDRICAL_SURFACE('',#743,1.875);
#681=CYLINDRICAL_SURFACE('',#746,1.);
#682=CYLINDRICAL_SURFACE('',#749,13.95);
#683=CYLINDRICAL_SURFACE('',#761,12.7);
#684=CYLINDRICAL_SURFACE('',#766,12.7);
#685=CYLINDRICAL_SURFACE('',#769,13.95);
#686=CYLINDRICAL_SURFACE('',#778,2.);
#687=CYLINDRICAL_SURFACE('',#780,12.2);
#688=CYLINDRICAL_SURFACE('',#788,12.2);
#689=CYLINDRICAL_SURFACE('',#791,1.);
#690=CYLINDRICAL_SURFACE('',#796,2.);
#691=ADVANCED_FACE('',(#627,#628),#680,.F.);
#692=ADVANCED_FACE('',(#629,#630),#681,.F.);
#693=ADVANCED_FACE('',(#631),#682,.T.);
#694=ADVANCED_FACE('',(#632,#633),#21,.T.);
#695=ADVANCED_FACE('',(#634),#22,.T.);
#696=ADVANCED_FACE('',(#635,#636),#23,.T.);
#697=ADVANCED_FACE('',(#637),#24,.T.);
#698=ADVANCED_FACE('',(#638),#25,.F.);
#699=ADVANCED_FACE('',(#639),#26,.F.);
#700=ADVANCED_FACE('',(#640,#641),#683,.F.);
#701=ADVANCED_FACE('',(#642),#684,.F.);
#702=ADVANCED_FACE('',(#643),#685,.T.);
#703=ADVANCED_FACE('',(#644),#27,.F.);
#704=ADVANCED_FACE('',(#645),#28,.T.);
#705=ADVANCED_FACE('',(#646),#29,.F.);
#706=ADVANCED_FACE('',(#647,#648),#686,.F.);
#707=ADVANCED_FACE('',(#649),#687,.F.);
#708=ADVANCED_FACE('',(#650),#30,.T.);
#709=ADVANCED_FACE('',(#651),#31,.F.);
#710=ADVANCED_FACE('',(#652),#32,.F.);
#711=ADVANCED_FACE('',(#653),#33,.T.);
#712=ADVANCED_FACE('',(#654),#34,.T.);
#713=ADVANCED_FACE('',(#655),#688,.F.);
#714=ADVANCED_FACE('',(#656),#35,.T.);
#715=ADVANCED_FACE('',(#657),#36,.T.);
#716=ADVANCED_FACE('',(#658,#659),#689,.F.);
#717=ADVANCED_FACE('',(#660,#661),#37,.T.);
#718=ADVANCED_FACE('',(#662,#663),#38,.F.);
#719=ADVANCED_FACE('',(#664,#665),#690,.F.);
#720=ADVANCED_FACE('',(#666,#667),#39,.F.);
#721=ADVANCED_FACE('',(#668),#40,.F.);
#722=ADVANCED_FACE('',(#669),#41,.F.);
#723=ADVANCED_FACE('',(#670),#42,.F.);
#724=ADVANCED_FACE('',(#671),#43,.F.);
#725=ADVANCED_FACE('',(#672),#44,.F.);
#726=ADVANCED_FACE('',(#673),#45,.F.);
#727=ADVANCED_FACE('',(#674,#675),#46,.T.);
#728=ADVANCED_FACE('',(#676,#677),#47,.F.);
#729=ADVANCED_FACE('',(#678,#679),#48,.T.);
#730=CLOSED_SHELL('',(#691,#692,#693,#694,#695,#696,#697,#698,#699,#700,
#701,#702,#703,#704,#705,#706,#707,#708,#709,#710,#711,#712,#713,#714,#715,
#716,#717,#718,#719,#720,#721,#722,#723,#724,#725,#726,#727,#728,#729));
#731=STYLED_ITEM('',(#732),#739);
#732=PRESENTATION_STYLE_ASSIGNMENT((#733));
#733=SURFACE_STYLE_USAGE(.BOTH.,#734);
#734=SURFACE_SIDE_STYLE('',(#735));
#735=SURFACE_STYLE_FILL_AREA(#736);
#736=FILL_AREA_STYLE('',(#737));
#737=FILL_AREA_STYLE_COLOUR('',#738);
#738=COLOUR_RGB('',0.506983280181885,0.531564235687256,0.550000011920929);
#739=MANIFOLD_SOLID_BREP('',#730);
#740=SHAPE_DEFINITION_REPRESENTATION(#1231,#741);
#741=SHAPE_REPRESENTATION('10_FDML_stimfix_1in_lens_clamp_holder_fix',(#742),
#1226);
#742=AXIS2_PLACEMENT_3D('',#1010,#808,#809);
#743=AXIS2_PLACEMENT_3D('',#1011,#810,#811);
#744=AXIS2_PLACEMENT_3D('',#1012,#812,#813);
#745=AXIS2_PLACEMENT_3D('',#1014,#814,#815);
#746=AXIS2_PLACEMENT_3D('',#1016,#816,#817);
#747=AXIS2_PLACEMENT_3D('',#1017,#818,#819);
#748=AXIS2_PLACEMENT_3D('',#1019,#820,#821);
#749=AXIS2_PLACEMENT_3D('',#1021,#822,#823);
#750=AXIS2_PLACEMENT_3D('',#1022,#824,#825);
#751=AXIS2_PLACEMENT_3D('',#1027,#827,#828);
#752=AXIS2_PLACEMENT_3D('',#1031,#830,#831);
#753=AXIS2_PLACEMENT_3D('',#1035,#833,#834);
#754=AXIS2_PLACEMENT_3D('',#1038,#836,#837);
#755=AXIS2_PLACEMENT_3D('',#1051,#844,#845);
#756=AXIS2_PLACEMENT_3D('',#1057,#849,#850);
#757=AXIS2_PLACEMENT_3D('',#1070,#857,#858);
#758=AXIS2_PLACEMENT_3D('',#1072,#859,#860);
#759=AXIS2_PLACEMENT_3D('',#1078,#864,#865);
#760=AXIS2_PLACEMENT_3D('',#1091,#872,#873);
#761=AXIS2_PLACEMENT_3D('',#1101,#879,#880);
#762=AXIS2_PLACEMENT_3D('',#1114,#881,#882);
#763=AXIS2_PLACEMENT_3D('',#1115,#883,#884);
#764=AXIS2_PLACEMENT_3D('',#1116,#885,#886);
#765=AXIS2_PLACEMENT_3D('',#1117,#887,#888);
#766=AXIS2_PLACEMENT_3D('',#1118,#889,#890);
#767=AXIS2_PLACEMENT_3D('',#1122,#892,#893);
#768=AXIS2_PLACEMENT_3D('',#1126,#895,#896);
#769=AXIS2_PLACEMENT_3D('',#1127,#897,#898);
#770=AXIS2_PLACEMENT_3D('',#1131,#900,#901);
#771=AXIS2_PLACEMENT_3D('',#1132,#902,#903);
#772=AXIS2_PLACEMENT_3D('',#1136,#905,#906);
#773=AXIS2_PLACEMENT_3D('',#1137,#907,#908);
#774=AXIS2_PLACEMENT_3D('',#1138,#909,#910);
#775=AXIS2_PLACEMENT_3D('',#1143,#915,#916);
#776=AXIS2_PLACEMENT_3D('',#1146,#918,#919);
#777=AXIS2_PLACEMENT_3D('',#1150,#922,#923);
#778=AXIS2_PLACEMENT_3D('',#1152,#925,#926);
#779=AXIS2_PLACEMENT_3D('',#1153,#927,#928);
#780=AXIS2_PLACEMENT_3D('',#1155,#929,#930);
#781=AXIS2_PLACEMENT_3D('',#1156,#931,#932);
#782=AXIS2_PLACEMENT_3D('',#1157,#933,#934);
#783=AXIS2_PLACEMENT_3D('',#1158,#935,#936);
#784=AXIS2_PLACEMENT_3D('',#1162,#939,#940);
#785=AXIS2_PLACEMENT_3D('',#1164,#942,#943);
#786=AXIS2_PLACEMENT_3D('',#1165,#944,#945);
#787=AXIS2_PLACEMENT_3D('',#1168,#947,#948);
#788=AXIS2_PLACEMENT_3D('',#1170,#950,#951);
#789=AXIS2_PLACEMENT_3D('',#1171,#952,#953);
#790=AXIS2_PLACEMENT_3D('',#1173,#955,#956);
#791=AXIS2_PLACEMENT_3D('',#1175,#958,#959);
#792=AXIS2_PLACEMENT_3D('',#1176,#960,#961);
#793=AXIS2_PLACEMENT_3D('',#1178,#962,#963);
#794=AXIS2_PLACEMENT_3D('',#1179,#964,#965);
#795=AXIS2_PLACEMENT_3D('',#1181,#966,#967);
#796=AXIS2_PLACEMENT_3D('',#1194,#974,#975);
#797=AXIS2_PLACEMENT_3D('',#1195,#976,#977);
#798=AXIS2_PLACEMENT_3D('',#1197,#978,#979);
#799=AXIS2_PLACEMENT_3D('',#1198,#980,#981);
#800=AXIS2_PLACEMENT_3D('',#1204,#985,#986);
#801=AXIS2_PLACEMENT_3D('',#1208,#989,#990);
#802=AXIS2_PLACEMENT_3D('',#1212,#993,#994);
#803=AXIS2_PLACEMENT_3D('',#1216,#997,#998);
#804=AXIS2_PLACEMENT_3D('',#1220,#1001,#1002);
#805=AXIS2_PLACEMENT_3D('',#1222,#1004,#1005);
#806=AXIS2_PLACEMENT_3D('',#1223,#1006,#1007);
#807=AXIS2_PLACEMENT_3D('',#1224,#1008,#1009);
#808=DIRECTION('',(0.,0.,1.));
#809=DIRECTION('',(1.,0.,0.));
#810=DIRECTION('',(0.,-1.,-1.22409922699976E-16));
#811=DIRECTION('',(0.,1.22409922699976E-16,-1.));
#812=DIRECTION('',(2.54816839920186E-32,1.,1.22409922699976E-16));
#813=DIRECTION('',(0.,-1.22409922699976E-16,1.));
#814=DIRECTION('',(0.,1.,1.22409922699976E-16));
#815=DIRECTION('',(0.,-1.22409922699976E-16,1.));
#816=DIRECTION('',(1.,-6.84903156768021E-16,0.));
#817=DIRECTION('',(6.84903156768021E-16,1.,0.));
#818=DIRECTION('',(1.,1.23908819712629E-16,0.));
#819=DIRECTION('',(-1.23908819712629E-16,1.,0.));
#820=DIRECTION('',(-1.,6.84903156768021E-16,0.));
#821=DIRECTION('',(0.,0.,1.));
#822=DIRECTION('',(0.,0.,-1.));
#823=DIRECTION('',(-1.,0.,0.));
#824=DIRECTION('',(0.,0.,1.));
#825=DIRECTION('',(-1.,0.,0.));
#826=DIRECTION('',(0.,0.,-1.));
#827=DIRECTION('',(0.,0.,-1.));
#828=DIRECTION('',(0.,1.,0.));
#829=DIRECTION('',(0.,0.,1.));
#830=DIRECTION('',(0.,0.,1.));
#831=DIRECTION('',(-1.,0.,0.));
#832=DIRECTION('',(0.,0.,1.));
#833=DIRECTION('',(0.,0.,-1.));
#834=DIRECTION('',(1.,0.,0.));
#835=DIRECTION('',(0.,0.,-1.));
#836=DIRECTION('',(1.,1.23908819712629E-16,0.));
#837=DIRECTION('',(-1.23908819712629E-16,1.,0.));
#838=DIRECTION('',(0.,0.,-1.));
#839=DIRECTION('',(-6.84903156768021E-16,-1.,-7.30409884621813E-16));
#840=DIRECTION('',(-1.02423929725527E-31,5.80864757382433E-16,-1.));
#841=DIRECTION('',(-1.12879854954439E-17,-1.,0.));
#842=DIRECTION('',(0.,0.,1.));
#843=DIRECTION('',(5.61960466758427E-16,1.,0.));
#844=DIRECTION('',(6.84903156768021E-16,1.,5.80864757382433E-16));
#845=DIRECTION('',(-1.,6.84903156768021E-16,0.));
#846=DIRECTION('',(-1.,6.84903156768021E-16,5.00260035712045E-31));
#847=DIRECTION('',(0.,0.,1.));
#848=DIRECTION('',(1.,5.95005323920613E-47,-1.02438029691622E-31));
#849=DIRECTION('',(-1.,-1.23908819712629E-16,0.));
#850=DIRECTION('',(1.23908819712629E-16,-1.,0.));
#851=DIRECTION('',(0.,0.,1.));
#852=DIRECTION('',(6.84903156768021E-16,1.,0.));
#853=DIRECTION('',(0.,0.,-1.));
#854=DIRECTION('',(-5.61960466758427E-16,-1.,0.));
#855=DIRECTION('',(0.,0.,1.));
#856=DIRECTION('',(-1.24167840449883E-16,1.,0.));
#857=DIRECTION('',(-1.,-1.23908819712629E-16,0.));
#858=DIRECTION('',(1.23908819712629E-16,-1.,0.));
#859=DIRECTION('',(6.84903156768021E-16,1.,0.));
#860=DIRECTION('',(-1.,6.84903156768021E-16,0.));
#861=DIRECTION('',(1.,0.,0.));
#862=DIRECTION('',(4.5047112220516E-31,6.57715061981728E-16,1.));
#863=DIRECTION('',(1.,-6.84903156768021E-16,0.));
#864=DIRECTION('',(1.,2.23523543789637E-32,-1.82602471155453E-16));
#865=DIRECTION('',(-1.82602471155453E-16,0.,-1.));
#866=DIRECTION('',(0.,0.,-1.));
#867=DIRECTION('',(9.68733571476216E-15,1.,0.));
#868=DIRECTION('',(0.,0.,1.));
#869=DIRECTION('',(0.,1.,0.));
#870=DIRECTION('',(0.,-1.22409922699976E-16,1.));
#871=DIRECTION('',(0.,1.,0.));
#872=DIRECTION('',(-1.,-2.23523543789637E-32,1.82602471155453E-16));
#873=DIRECTION('',(1.82602471155453E-16,0.,1.));
#874=DIRECTION('',(0.,-1.,0.));
#875=DIRECTION('',(0.,-1.,0.));
#876=DIRECTION('',(-9.13012355777267E-17,1.22409922699976E-16,-1.));
#877=DIRECTION('',(0.,-1.,0.));
#878=DIRECTION('',(0.,0.,1.));
#879=DIRECTION('',(0.,0.,-1.));
#880=DIRECTION('',(-1.,0.,0.));
#881=DIRECTION('',(0.,0.,-1.));
#882=DIRECTION('',(6.81281043129656E-15,-1.,0.));
#883=DIRECTION('',(0.,0.,-1.));
#884=DIRECTION('',(-1.,0.,0.));
#885=DIRECTION('',(0.,0.,1.));
#886=DIRECTION('',(-1.,0.,0.));
#887=DIRECTION('',(0.,0.,-1.));
#888=DIRECTION('',(1.,0.,0.));
#889=DIRECTION('',(0.,0.,-1.));
#890=DIRECTION('',(-1.,0.,0.));
#891=DIRECTION('',(0.,0.,1.));
#892=DIRECTION('',(0.,0.,-1.));
#893=DIRECTION('',(-1.,0.,0.));
#894=DIRECTION('',(0.,0.,1.));
#895=DIRECTION('',(0.,0.,-1.));
#896=DIRECTION('',(6.81281043129656E-15,-1.,0.));
#897=DIRECTION('',(0.,0.,-1.));
#898=DIRECTION('',(-1.,0.,0.));
#899=DIRECTION('',(0.,0.,-1.));
#900=DIRECTION('',(0.,0.,1.));
#901=DIRECTION('',(1.,0.,0.));
#902=DIRECTION('',(0.,0.,-1.));
#903=DIRECTION('',(1.,0.,0.));
#904=DIRECTION('',(0.,0.,1.));
#905=DIRECTION('',(0.,0.,-1.));
#906=DIRECTION('',(0.,1.,0.));
#907=DIRECTION('',(0.,0.,-1.));
#908=DIRECTION('',(-1.,0.,0.));
#909=DIRECTION('',(0.,0.,-1.));
#910=DIRECTION('',(6.81281043129656E-15,-1.,0.));
#911=DIRECTION('',(-6.84903156768021E-16,-1.,-5.98262856167959E-16));
#912=DIRECTION('',(1.,0.,0.));
#913=DIRECTION('',(1.,0.,0.));
#914=DIRECTION('',(-6.84903156768021E-16,-1.,-2.9913142808398E-16));
#915=DIRECTION('',(0.,0.,1.));
#916=DIRECTION('',(1.,0.,0.));
#917=DIRECTION('',(-0.999807709247308,-0.0196098069763495,0.));
#918=DIRECTION('',(0.,0.,-1.));
#919=DIRECTION('',(1.,0.,0.));
#920=DIRECTION('',(1.,0.,0.));
#921=DIRECTION('',(1.,-2.54816839920186E-32,-3.11921096772822E-48));
#922=DIRECTION('',(0.,0.,1.));
#923=DIRECTION('',(1.,0.,0.));
#924=DIRECTION('',(-1.,1.9111262994014E-32,5.20417042793042E-17));
#925=DIRECTION('',(0.,-1.,-1.22409922699976E-16));
#926=DIRECTION('',(0.,1.22409922699976E-16,-1.));
#927=DIRECTION('',(0.,1.,1.22409922699976E-16));
#928=DIRECTION('',(0.,-1.22409922699976E-16,1.));
#929=DIRECTION('',(0.,0.,1.));
#930=DIRECTION('',(1.,0.,0.));
#931=DIRECTION('',(0.,0.,-1.));
#932=DIRECTION('',(6.81281043129656E-15,-1.,0.));
#933=DIRECTION('',(0.,0.,-1.));
#934=DIRECTION('',(-1.,0.,0.));
#935=DIRECTION('',(0.,-1.,0.));
#936=DIRECTION('',(0.,0.,-1.));
#937=DIRECTION('',(0.,0.,1.));
#938=DIRECTION('',(-1.,0.,0.));
#939=DIRECTION('',(0.,-1.,0.));
#940=DIRECTION('',(0.,0.,-1.));
#941=DIRECTION('',(1.,0.,0.));
#942=DIRECTION('',(0.,0.,-1.));
#943=DIRECTION('',(-1.,0.,0.));
#944=DIRECTION('',(0.,0.,-1.));
#945=DIRECTION('',(1.,0.,0.));
#946=DIRECTION('',(-0.999807709247308,-0.0196098069763495,0.));
#947=DIRECTION('',(-0.0196098069763495,0.999807709247308,0.));
#948=DIRECTION('',(-0.999807709247308,-0.0196098069763495,0.));
#949=DIRECTION('',(0.,0.,1.));
#950=DIRECTION('',(0.,0.,1.));
#951=DIRECTION('',(1.,0.,0.));
#952=DIRECTION('',(0.,0.,-1.));
#953=DIRECTION('',(-1.,0.,0.));
#954=DIRECTION('',(6.84903156768021E-16,1.,-1.4956571404199E-16));
#955=DIRECTION('',(2.88095901382569E-46,7.30409884621813E-16,-1.));
#956=DIRECTION('',(0.,1.,7.30409884621813E-16));
#957=DIRECTION('',(6.84903156768021E-16,1.,5.98262856167959E-16));
#958=DIRECTION('',(1.,-6.84903156768021E-16,0.));
#959=DIRECTION('',(6.84903156768021E-16,1.,0.));
#960=DIRECTION('',(-1.,6.84903156768021E-16,0.));
#961=DIRECTION('',(-6.84903156768021E-16,-1.,0.));
#962=DIRECTION('',(1.,-6.84903156768021E-16,0.));
#963=DIRECTION('',(6.84903156768021E-16,1.,0.));
#964=DIRECTION('',(-1.,6.84903156768021E-16,0.));
#965=DIRECTION('',(0.,0.,-1.));
#966=DIRECTION('',(1.,-6.84903156768021E-16,0.));
#967=DIRECTION('',(6.84903156768021E-16,1.,0.));
#968=DIRECTION('',(5.9314350592972E-16,0.866025364416038,0.500000068188064));
#969=DIRECTION('',(-5.39270798967664E-23,-7.87367956533331E-8,0.999999999999997));
#970=DIRECTION('',(-5.93143586820337E-16,-0.866025482521228,0.499999863623856));
#971=DIRECTION('',(-5.93143492447948E-16,-0.866025344731836,-0.500000102282094));
#972=DIRECTION('',(1.07854165241807E-22,1.57473599261475E-7,-0.999999999999988));
#973=DIRECTION('',(5.93143600302101E-16,0.866025502205417,-0.499999829529826));
#974=DIRECTION('',(1.,-6.84903156768021E-16,0.));
#975=DIRECTION('',(6.84903156768021E-16,1.,0.));
#976=DIRECTION('',(-1.,6.84903156768021E-16,0.));
#977=DIRECTION('',(0.,0.,-1.));
#978=DIRECTION('',(-1.,6.84903156768021E-16,0.));
#979=DIRECTION('',(-6.84903156768021E-16,-1.,0.));
#980=DIRECTION('',(-6.84903156768019E-16,-0.999999999999997,-7.87367956533331E-8));
#981=DIRECTION('',(0.,7.87367956533331E-8,-0.999999999999997));
#982=DIRECTION('',(-1.,6.84903156768021E-16,0.));
#983=DIRECTION('',(-5.39270798967664E-23,-7.87367956533331E-8,0.999999999999997));
#984=DIRECTION('',(-1.,6.84903156768021E-16,0.));
#985=DIRECTION('',(-3.4245162508623E-16,-0.500000068188064,0.866025364416038));
#986=DIRECTION('',(0.,-0.866025364416038,-0.500000068188064));
#987=DIRECTION('',(-1.,6.84903156768021E-16,0.));
#988=DIRECTION('',(5.9314350592972E-16,0.866025364416038,0.500000068188064));
#989=DIRECTION('',(3.4245146162845E-16,0.499999829529826,0.866025502205417));
#990=DIRECTION('',(0.,-0.866025502205417,0.499999829529826));
#991=DIRECTION('',(-1.,6.84903156768021E-16,0.));
#992=DIRECTION('',(5.93143600302101E-16,0.866025502205417,-0.499999829529826));
#993=DIRECTION('',(6.84903156768012E-16,0.999999999999987,1.57473599261475E-7));
#994=DIRECTION('',(0.,-1.57473599261475E-7,0.999999999999988));
#995=DIRECTION('',(-1.,6.84903156768021E-16,0.));
#996=DIRECTION('',(1.07854165241807E-22,1.57473599261475E-7,-0.999999999999988));
#997=DIRECTION('',(3.42451648437339E-16,0.500000102282094,-0.866025344731836));
#998=DIRECTION('',(0.,0.866025344731836,0.500000102282094));
#999=DIRECTION('',(-1.,6.84903156768021E-16,0.));
#1000=DIRECTION('',(-5.93143492447948E-16,-0.866025344731836,-0.500000102282094));
#1001=DIRECTION('',(-3.42451484979559E-16,-0.499999863623856,-0.866025482521228));
#1002=DIRECTION('',(0.,0.866025482521228,-0.499999863623856));
#1003=DIRECTION('',(-5.93143586820337E-16,-0.866025482521228,0.499999863623856));
#1004=DIRECTION('',(-1.,6.84903156768021E-16,0.));
#1005=DIRECTION('',(-6.84903156768021E-16,-1.,0.));
#1006=DIRECTION('',(2.54816839920186E-32,1.,1.22409922699976E-16));
#1007=DIRECTION('',(0.,-1.22409922699976E-16,1.));
#1008=DIRECTION('',(0.,1.,1.22409922699976E-16));
#1009=DIRECTION('',(0.,-1.22409922699976E-16,1.));
#1010=CARTESIAN_POINT('',(0.,0.,0.));
#1011=CARTESIAN_POINT('',(-0.249999999999999,-18.755,3.75));
#1012=CARTESIAN_POINT('',(-0.249999999999999,-40.595,3.74999999999999));
#1013=CARTESIAN_POINT('',(-0.249999999999999,-40.595,5.62499999999999));
#1014=CARTESIAN_POINT('',(-0.249999999999999,-24.755,3.75));
#1015=CARTESIAN_POINT('',(-0.249999999999999,-24.755,5.62499999999999));
#1016=CARTESIAN_POINT('',(-9.15390729775388,16.6003991672019,3.4875));
#1017=CARTESIAN_POINT('',(-0.25,16.6003991672019,3.4875));
#1018=CARTESIAN_POINT('',(-0.25,17.6003991672019,3.4875));
#1019=CARTESIAN_POINT('',(-2.625,16.6003991672019,3.4875));
#1020=CARTESIAN_POINT('',(-2.625,16.6003991672019,4.4875));
#1021=CARTESIAN_POINT('',(0.,0.,5.));
#1022=CARTESIAN_POINT('',(0.,0.,0.85));
#1023=CARTESIAN_POINT('',(6.,-12.5937484491314,0.85));
#1024=CARTESIAN_POINT('',(4.125,13.3261725562894,0.85));
#1025=CARTESIAN_POINT('',(4.125,13.3261725562894,5.));
#1026=CARTESIAN_POINT('',(4.125,13.3261725562894,6.125));
#1027=CARTESIAN_POINT('',(0.,0.,6.125));
#1028=CARTESIAN_POINT('',(13.95,-3.46944695195361E-15,6.125));
#1029=CARTESIAN_POINT('',(13.95,-3.46944695195361E-15,6.125));
#1030=CARTESIAN_POINT('',(13.95,-3.46944695195361E-15,7.12));
#1031=CARTESIAN_POINT('',(0.,0.,7.12));
#1032=CARTESIAN_POINT('',(13.9499577754268,0.034322934175722,7.12));
#1033=CARTESIAN_POINT('',(13.9499577754268,0.034322934175722,7.12));
#1034=CARTESIAN_POINT('',(13.9499577754268,0.034322934175722,8.5));
#1035=CARTESIAN_POINT('',(0.,0.,8.5));
#1036=CARTESIAN_POINT('',(6.,-12.5937484491314,8.5));
#1037=CARTESIAN_POINT('',(6.,-12.5937484491314,5.));
#1038=CARTESIAN_POINT('',(-0.25,17.5,39.3209794243561));
#1039=CARTESIAN_POINT('',(-0.249999999999999,12.6975391316585,5.));
#1040=CARTESIAN_POINT('',(-0.249999999999999,12.6975391316585,5.815));
#1041=CARTESIAN_POINT('',(-0.249999999999998,12.6975391316585,0.850000000000005));
#1042=CARTESIAN_POINT('',(-0.249999999999998,19.5,0.850000000000005));
#1043=CARTESIAN_POINT('',(-0.249999999999998,19.5,0.850000000000005));
#1044=CARTESIAN_POINT('',(-0.249999999999998,19.5,6.65));
#1045=CARTESIAN_POINT('',(-0.249999999999998,19.5,6.125));
#1046=CARTESIAN_POINT('',(-0.249999999999999,17.5,6.125));
#1047=CARTESIAN_POINT('',(-0.249999999999999,12.1974382556338,6.125));
#1048=CARTESIAN_POINT('',(-0.249999999999999,12.1974382556338,5.815));
#1049=CARTESIAN_POINT('',(-0.249999999999999,12.1974382556338,5.815));
#1050=CARTESIAN_POINT('',(-0.250000000000006,1.4049011668961E-16,5.815));
#1051=CARTESIAN_POINT('',(-0.249999999999998,19.5,6.65));
#1052=CARTESIAN_POINT('',(-0.249999999999998,19.5,0.850000000000005));
#1053=CARTESIAN_POINT('',(-4.125,19.5,0.850000000000007));
#1054=CARTESIAN_POINT('',(-4.125,19.5,6.125));
#1055=CARTESIAN_POINT('',(-4.125,19.5,6.125));
#1056=CARTESIAN_POINT('',(-0.249999999999998,19.5,6.125));
#1057=CARTESIAN_POINT('',(0.25,17.5,39.3209794243561));
#1058=CARTESIAN_POINT('',(0.250000000000001,19.5,0.85));
#1059=CARTESIAN_POINT('',(0.250000000000001,19.5,0.85));
#1060=CARTESIAN_POINT('',(0.250000000000001,19.5,6.125));
#1061=CARTESIAN_POINT('',(0.249999999999998,13.7007983344037,0.85));
#1062=CARTESIAN_POINT('',(0.250000000000001,12.6975391316585,0.85));
#1063=CARTESIAN_POINT('',(0.250000000000001,12.6975391316585,5.));
#1064=CARTESIAN_POINT('',(0.250000000000001,12.6975391316585,5.815));
#1065=CARTESIAN_POINT('',(0.249999999999993,-1.40490116689603E-16,5.815));
#1066=CARTESIAN_POINT('',(0.25,12.1974382556338,5.815));
#1067=CARTESIAN_POINT('',(0.25,12.1974382556338,5.815));
#1068=CARTESIAN_POINT('',(0.25,12.1974382556338,6.125));
#1069=CARTESIAN_POINT('',(0.250000000000001,12.6975391316585,6.125));
#1070=CARTESIAN_POINT('',(0.25,16.6003991672019,3.4875));
#1071=CARTESIAN_POINT('',(0.25,15.6003991672019,3.4875));
#1072=CARTESIAN_POINT('',(0.250000000000001,19.5,0.85));
#1073=CARTESIAN_POINT('',(0.250000000000001,19.5,6.125));
#1074=CARTESIAN_POINT('',(4.125,19.5,6.125));
#1075=CARTESIAN_POINT('',(4.125,19.5,0.85));
#1076=CARTESIAN_POINT('',(4.125,19.5,0.85));
#1077=CARTESIAN_POINT('',(0.250000000000001,19.5,0.85));
#1078=CARTESIAN_POINT('',(-6.5,-12.9561332889317,1.375));
#1079=CARTESIAN_POINT('',(-6.5,-12.3431154900211,5.));
#1080=CARTESIAN_POINT('',(-6.49999999999999,-12.3431154900211,0.850000000000005));
#1081=CARTESIAN_POINT('',(-6.5,-12.3431154900211,8.5));
#1082=CARTESIAN_POINT('',(-6.5,-12.3431154900211,0.850000000000005));
#1083=CARTESIAN_POINT('',(-6.49999999999999,-10.9105453575887,0.850000000000005));
#1084=CARTESIAN_POINT('',(-6.49999999999999,-10.9105453575887,-1.));
#1085=CARTESIAN_POINT('',(-6.49999999999999,-10.9105453575887,-1.));
#1086=CARTESIAN_POINT('',(-6.49999999999999,-12.3431154900212,-1.));
#1087=CARTESIAN_POINT('',(-6.5,-40.595,-1.));
#1088=CARTESIAN_POINT('',(-6.5,-40.595,-1.));
#1089=CARTESIAN_POINT('',(-6.5,-40.595,8.5));
#1090=CARTESIAN_POINT('',(-6.5,-12.3431154900211,8.5));
#1091=CARTESIAN_POINT('',(6.,-12.9561332889317,6.12499999999999));
#1092=CARTESIAN_POINT('',(6.,-11.1933015683488,0.85));
#1093=CARTESIAN_POINT('',(6.,-11.1933015683488,0.85));
#1094=CARTESIAN_POINT('',(6.,-12.5937484491314,8.5));
#1095=CARTESIAN_POINT('',(6.,-40.595,8.5));
#1096=CARTESIAN_POINT('',(6.,-40.595,8.5));
#1097=CARTESIAN_POINT('',(6.,-40.595,-1.));
#1098=CARTESIAN_POINT('',(6.,-12.5937484491314,-1.));
#1099=CARTESIAN_POINT('',(6.,-11.1933015683488,-1.));
#1100=CARTESIAN_POINT('',(6.,-11.1933015683488,-1.));
#1101=CARTESIAN_POINT('',(0.,0.,5.));
#1102=CARTESIAN_POINT('',(1.3204654981378,-12.6494339837822,2.18485683600415));
#1103=CARTESIAN_POINT('',(-0.25119550229027,-12.7369613319593,1.53310883184765));
#1104=CARTESIAN_POINT('',(-1.81568348897671,-12.5879554783319,2.18270783660521));
#1105=CARTESIAN_POINT('',(-2.4662290759796,-12.4548229410257,3.74565869839051));
#1106=CARTESIAN_POINT('',(-1.81938375469997,-12.5873555247954,5.31478634955187));
#1107=CARTESIAN_POINT('',(-0.256038496232819,-12.7367633468984,5.96593116746382));
#1108=CARTESIAN_POINT('',(1.31356379937968,-12.6502298262841,5.32145154565552));
#1109=CARTESIAN_POINT('',(1.96648735773365,-12.5433617356795,3.75407155872565));
#1110=CARTESIAN_POINT('',(1.3204654981378,-12.6494339837822,2.18485683600415));
#1111=CARTESIAN_POINT('',(-0.25119550229027,-12.7369613319593,1.53310883184765));
#1112=CARTESIAN_POINT('',(-1.81568348897671,-12.5879554783319,2.18270783660521));
#1113=CARTESIAN_POINT('',(-0.249999999999999,-12.6975391316585,1.75));
#1114=CARTESIAN_POINT('',(0.,0.,5.815));
#1115=CARTESIAN_POINT('',(0.,0.,0.85));
#1116=CARTESIAN_POINT('',(0.,0.,-1.));
#1117=CARTESIAN_POINT('',(0.,0.,0.850000000000005));
#1118=CARTESIAN_POINT('',(0.,0.,5.));
#1119=CARTESIAN_POINT('',(-12.7,0.,6.125));
#1120=CARTESIAN_POINT('',(-12.7,0.,6.125));
#1121=CARTESIAN_POINT('',(-12.7,0.,7.12));
#1122=CARTESIAN_POINT('',(0.,0.,7.12));
#1123=CARTESIAN_POINT('',(12.7,-3.46944695195361E-15,7.12));
#1124=CARTESIAN_POINT('',(12.7,-1.55530143491714E-15,6.125));
#1125=CARTESIAN_POINT('',(12.7,-1.55530143491714E-15,6.125));
#1126=CARTESIAN_POINT('',(0.,0.,6.125));
#1127=CARTESIAN_POINT('',(0.,0.,5.));
#1128=CARTESIAN_POINT('',(-4.125,13.3261725562894,5.));
#1129=CARTESIAN_POINT('',(-4.125,13.3261725562894,0.850000000000015));
#1130=CARTESIAN_POINT('',(-4.125,13.3261725562894,6.125));
#1131=CARTESIAN_POINT('',(0.,0.,0.850000000000005));
#1132=CARTESIAN_POINT('',(0.,0.,8.5));
#1133=CARTESIAN_POINT('',(-13.95,-1.70838228481056E-15,8.5));
#1134=CARTESIAN_POINT('',(-13.95,-1.70838228481056E-15,6.125));
#1135=CARTESIAN_POINT('',(-13.95,0.,6.125));
#1136=CARTESIAN_POINT('',(0.,0.,6.125));
#1137=CARTESIAN_POINT('',(0.,0.,6.125));
#1138=CARTESIAN_POINT('',(0.,0.,6.125));
#1139=CARTESIAN_POINT('',(-4.125,13.7007983344037,6.125));
#1140=CARTESIAN_POINT('',(-12.7,0.,6.125));
#1141=CARTESIAN_POINT('',(12.7,-3.46944695195361E-15,6.125));
#1142=CARTESIAN_POINT('',(4.125,19.5,6.125));
#1143=CARTESIAN_POINT('',(0.,0.,8.5));
#1144=CARTESIAN_POINT('',(13.9499577754268,0.0343229341757262,8.5));
#1145=CARTESIAN_POINT('',(12.2,-3.46944695195361E-15,8.5));
#1146=CARTESIAN_POINT('',(0.,0.,8.5));
#1147=CARTESIAN_POINT('',(-12.2,-1.49406909495977E-15,8.5));
#1148=CARTESIAN_POINT('',(-12.7,0.,8.5));
#1149=CARTESIAN_POINT('',(-6.5,-40.595,8.5));
#1150=CARTESIAN_POINT('',(0.,0.,-1.));
#1151=CARTESIAN_POINT('',(6.,-40.595,-1.));
#1152=CARTESIAN_POINT('',(-0.249999999999999,2.08078512721873,3.75));
#1153=CARTESIAN_POINT('',(-0.249999999999999,-24.755,3.75));
#1154=CARTESIAN_POINT('',(-0.249999999999999,-24.755,5.75));
#1155=CARTESIAN_POINT('',(0.,0.,5.815));
#1156=CARTESIAN_POINT('',(0.,0.,5.815));
#1157=CARTESIAN_POINT('',(0.,0.,5.815));
#1158=CARTESIAN_POINT('',(-12.7,0.,6.125));
#1159=CARTESIAN_POINT('',(-12.2,-1.49406909495977E-15,7.12));
#1160=CARTESIAN_POINT('',(-12.2,-1.49406909495977E-15,7.12));
#1161=CARTESIAN_POINT('',(-13.95,0.,7.12));
#1162=CARTESIAN_POINT('',(12.7,-3.46944695195361E-15,6.125));
#1163=CARTESIAN_POINT('',(12.7,-3.46944695195361E-15,7.12));
#1164=CARTESIAN_POINT('',(0.,0.,7.12));
#1165=CARTESIAN_POINT('',(0.,0.,7.12));
#1166=CARTESIAN_POINT('',(12.2,-3.46944695195361E-15,7.12));
#1167=CARTESIAN_POINT('',(13.9499577754268,0.0343229341757262,7.12));
#1168=CARTESIAN_POINT('',(13.9499577754268,0.0343229341757262,7.12));
#1169=CARTESIAN_POINT('',(12.2,-3.46944695195361E-15,7.12));
#1170=CARTESIAN_POINT('',(0.,0.,7.12));
#1171=CARTESIAN_POINT('',(0.249999999999998,13.7007983344037,0.85));
#1172=CARTESIAN_POINT('',(4.125,13.7007983344037,0.850000000000001));
#1173=CARTESIAN_POINT('',(-0.249999999999998,19.5,0.850000000000005));
#1174=CARTESIAN_POINT('',(-4.125,19.5,0.850000000000007));
#1175=CARTESIAN_POINT('',(-9.15390729775388,16.6003991672019,3.4875));
#1176=CARTESIAN_POINT('',(2.125,16.6003991672019,3.4875));
#1177=CARTESIAN_POINT('',(2.125,15.6003991672019,3.4875));
#1178=CARTESIAN_POINT('',(4.12499999999999,-2.82522552166808E-15,0.));
#1179=CARTESIAN_POINT('',(4.125,16.6003991672019,3.4875));
#1180=CARTESIAN_POINT('',(4.125,16.6003991672019,1.4875));
#1181=CARTESIAN_POINT('',(-4.12500000000001,2.82522552166809E-15,0.));
#1182=CARTESIAN_POINT('',(-4.125,14.6003987603436,4.64220055084673));
#1183=CARTESIAN_POINT('',(-4.125,14.6003987603436,4.64220055084673));
#1184=CARTESIAN_POINT('',(-4.125,16.600398600103,5.79690120667582));
#1185=CARTESIAN_POINT('',(-4.125,14.6003989421784,2.33279892424124));
#1186=CARTESIAN_POINT('',(-4.125,14.6003989421784,2.33279892424124));
#1187=CARTESIAN_POINT('',(-4.125,16.6003991456076,1.17809868834173));
#1188=CARTESIAN_POINT('',(-4.125,16.6003991456076,1.17809868834173));
#1189=CARTESIAN_POINT('',(-4.125,18.6003993490367,2.33279965911807));
#1190=CARTESIAN_POINT('',(-4.125,18.6003993490367,2.33279965911807));
#1191=CARTESIAN_POINT('',(-4.125,18.600398985367,4.64220097077633));
#1192=CARTESIAN_POINT('',(-4.125,18.600398985367,4.64220097077633));
#1193=CARTESIAN_POINT('',(-4.125,16.600398600103,5.79690120667582));
#1194=CARTESIAN_POINT('',(2.125,16.6003991672019,3.4875));
#1195=CARTESIAN_POINT('',(2.125,16.6003991672019,3.4875));
#1196=CARTESIAN_POINT('',(2.125,16.6003991672019,1.4875));
#1197=CARTESIAN_POINT('',(2.125,16.6003991672019,3.4875));
#1198=CARTESIAN_POINT('',(-2.625,14.6003989421784,2.33279892424124));
#1199=CARTESIAN_POINT('',(-2.625,14.6003987603436,4.64220055084673));
#1200=CARTESIAN_POINT('',(-2.625,14.6003987603436,4.64220055084673));
#1201=CARTESIAN_POINT('',(-2.625,14.6003989421784,2.33279892424124));
#1202=CARTESIAN_POINT('',(-2.625,14.6003989421784,2.33279892424124));
#1203=CARTESIAN_POINT('',(-2.625,14.6003989421784,2.33279892424124));
#1204=CARTESIAN_POINT('',(-2.625,14.6003987603436,4.64220055084673));
#1205=CARTESIAN_POINT('',(-2.625,16.600398600103,5.79690120667582));
#1206=CARTESIAN_POINT('',(-2.625,16.600398600103,5.79690120667582));
#1207=CARTESIAN_POINT('',(-2.625,14.6003987603436,4.64220055084673));
#1208=CARTESIAN_POINT('',(-2.625,16.600398600103,5.79690120667582));
#1209=CARTESIAN_POINT('',(-2.625,18.600398985367,4.64220097077633));
#1210=CARTESIAN_POINT('',(-2.625,18.600398985367,4.64220097077633));
#1211=CARTESIAN_POINT('',(-2.625,16.600398600103,5.79690120667582));
#1212=CARTESIAN_POINT('',(-2.625,18.600398985367,4.64220097077633));
#1213=CARTESIAN_POINT('',(-2.625,18.6003993490367,2.33279965911807));
#1214=CARTESIAN_POINT('',(-2.625,18.6003993490367,2.33279965911807));
#1215=CARTESIAN_POINT('',(-2.625,18.600398985367,4.64220097077633));
#1216=CARTESIAN_POINT('',(-2.625,18.6003993490367,2.33279965911807));
#1217=CARTESIAN_POINT('',(-2.625,16.6003991456076,1.17809868834173));
#1218=CARTESIAN_POINT('',(-2.625,16.6003991456076,1.17809868834173));
#1219=CARTESIAN_POINT('',(-2.625,18.6003993490367,2.33279965911807));
#1220=CARTESIAN_POINT('',(-2.625,16.6003991456076,1.17809868834173));
#1221=CARTESIAN_POINT('',(-2.625,16.6003991456076,1.17809868834173));
#1222=CARTESIAN_POINT('',(-2.62500000000001,1.79787078651606E-15,0.));
#1223=CARTESIAN_POINT('',(-1.034428961656E-30,-40.595,-4.96923081200554E-15));
#1224=CARTESIAN_POINT('',(-0.249999999999999,-24.755,3.75));
#1225=MECHANICAL_DESIGN_GEOMETRIC_PRESENTATION_REPRESENTATION('',(#731),
#1226);
#1226=(
GEOMETRIC_REPRESENTATION_CONTEXT(3)
GLOBAL_UNCERTAINTY_ASSIGNED_CONTEXT((#1227))
GLOBAL_UNIT_ASSIGNED_CONTEXT((#1230,#1229,#1228))
REPRESENTATION_CONTEXT('10_FDML_stimfix_1in_lens_clamp_holder_fix',
'TOP_LEVEL_ASSEMBLY_PART')
);
#1227=UNCERTAINTY_MEASURE_WITH_UNIT(LENGTH_MEASURE(0.005),#1230,
'DISTANCE_ACCURACY_VALUE','Maximum Tolerance applied to model');
#1228=(
NAMED_UNIT(*)
SI_UNIT($,.STERADIAN.)
SOLID_ANGLE_UNIT()
);
#1229=(
NAMED_UNIT(*)
PLANE_ANGLE_UNIT()
SI_UNIT($,.RADIAN.)
);
#1230=(
LENGTH_UNIT()
NAMED_UNIT(*)
SI_UNIT(.MILLI.,.METRE.)
);
#1231=PRODUCT_DEFINITION_SHAPE('','',#1232);
#1232=PRODUCT_DEFINITION('','',#1234,#1233);
#1233=PRODUCT_DEFINITION_CONTEXT('',#1240,'design');
#1234=PRODUCT_DEFINITION_FORMATION_WITH_SPECIFIED_SOURCE('','',#1236,
 .NOT_KNOWN.);
#1235=PRODUCT_RELATED_PRODUCT_CATEGORY('','',(#1236));
#1236=PRODUCT('10_FDML_stimfix_1in_lens_clamp_holder_fix',
'10_FDML_stimfix_1in_lens_clamp_holder_fix',
'10_FDML_stimfix_1in_lens_clamp_holder_fix',(#1238));
#1237=PRODUCT_CATEGORY('','');
#1238=PRODUCT_CONTEXT('',#1240,'mechanical');
#1239=APPLICATION_PROTOCOL_DEFINITION('international standard',
'automotive_design',2010,#1240);
#1240=APPLICATION_CONTEXT(
'core data for automotive mechanical design processes');
ENDSEC;
END-ISO-10303-21;
