ISO-10303-21;
HEADER;
/* Generated by software containing ST-Developer
 * from STEP Tools, Inc. (www.steptools.com) 
 */
/* OPTION: strings as raw bytes, not using required /X/ escapes */

FILE_DESCRIPTION(
/* description */ ('Unknown'),
/* implementation_level */ '2;1');

FILE_NAME(
/* name */ '26_FDML_stimfix_stimulus_board',
/* time_stamp */ '2026-09-07T15:11:57+02:00',
/* author */ ('Unknown'),
/* organization */ ('Unknown'),
/* preprocessor_version */ 'ST-DEVELOPER v16.7',
/* originating_system */ 'Solid Edge',
/* authorisation */ 'Unknown');

FILE_SCHEMA (('AUTOMOTIVE_DESIGN {1 0 10303 214 3 1 1}'));
ENDSEC;

DATA;
#10=PROPERTY_DEFINITION_REPRESENTATION(#14,#12);
#11=PROPERTY_DEFINITION_REPRESENTATION(#15,#13);
#12=REPRESENTATION('',(#16),#2345);
#13=REPRESENTATION('',(#17),#2345);
#14=PROPERTY_DEFINITION('pmi validation property','',#2350);
#15=PROPERTY_DEFINITION('pmi validation property','',#2350);
#16=VALUE_REPRESENTATION_ITEM('number of annotations',COUNT_MEASURE(0.));
#17=VALUE_REPRESENTATION_ITEM('number of views',COUNT_MEASURE(0.));
#18=SHAPE_REPRESENTATION_RELATIONSHIP('','',#1403,#19);
#19=ADVANCED_BREP_SHAPE_REPRESENTATION('',(#1401),#2345);
#20=LINE('',#1977,#106);
#21=LINE('',#1980,#107);
#22=LINE('',#1982,#108);
#23=LINE('',#1984,#109);
#24=LINE('',#1986,#110);
#25=LINE('',#1988,#111);
#26=LINE('',#1998,#112);
#27=LINE('',#2001,#113);
#28=LINE('',#2002,#114);
#29=LINE('',#2004,#115);
#30=LINE('',#2006,#116);
#31=LINE('',#2010,#117);
#32=LINE('',#2014,#118);
#33=LINE('',#2016,#119);
#34=LINE('',#2018,#120);
#35=LINE('',#2046,#121);
#36=LINE('',#2048,#122);
#37=LINE('',#2050,#123);
#38=LINE('',#2052,#124);
#39=LINE('',#2054,#125);
#40=LINE('',#2076,#126);
#41=LINE('',#2079,#127);
#42=LINE('',#2081,#128);
#43=LINE('',#2083,#129);
#44=LINE('',#2084,#130);
#45=LINE('',#2085,#131);
#46=LINE('',#2087,#132);
#47=LINE('',#2089,#133);
#48=LINE('',#2093,#134);
#49=LINE('',#2097,#135);
#50=LINE('',#2099,#136);
#51=LINE('',#2101,#137);
#52=LINE('',#2102,#138);
#53=LINE('',#2105,#139);
#54=LINE('',#2107,#140);
#55=LINE('',#2109,#141);
#56=LINE('',#2110,#142);
#57=LINE('',#2113,#143);
#58=LINE('',#2115,#144);
#59=LINE('',#2117,#145);
#60=LINE('',#2118,#146);
#61=LINE('',#2121,#147);
#62=LINE('',#2123,#148);
#63=LINE('',#2125,#149);
#64=LINE('',#2127,#150);
#65=LINE('',#2128,#151);
#66=LINE('',#2130,#152);
#67=LINE('',#2132,#153);
#68=LINE('',#2183,#154);
#69=LINE('',#2185,#155);
#70=LINE('',#2193,#156);
#71=LINE('',#2195,#157);
#72=LINE('',#2197,#158);
#73=LINE('',#2199,#159);
#74=LINE('',#2201,#160);
#75=LINE('',#2203,#161);
#76=LINE('',#2205,#162);
#77=LINE('',#2207,#163);
#78=LINE('',#2212,#164);
#79=LINE('',#2213,#165);
#80=LINE('',#2215,#166);
#81=LINE('',#2218,#167);
#82=LINE('',#2224,#168);
#83=LINE('',#2226,#169);
#84=LINE('',#2228,#170);
#85=LINE('',#2230,#171);
#86=LINE('',#2232,#172);
#87=LINE('',#2234,#173);
#88=LINE('',#2236,#174);
#89=LINE('',#2238,#175);
#90=LINE('',#2250,#176);
#91=LINE('',#2252,#177);
#92=LINE('',#2254,#178);
#93=LINE('',#2256,#179);
#94=LINE('',#2258,#180);
#95=LINE('',#2260,#181);
#96=LINE('',#2262,#182);
#97=LINE('',#2264,#183);
#98=LINE('',#2267,#184);
#99=LINE('',#2269,#185);
#100=LINE('',#2271,#186);
#101=LINE('',#2273,#187);
#102=LINE('',#2275,#188);
#103=LINE('',#2277,#189);
#104=LINE('',#2279,#190);
#105=LINE('',#2281,#191);
#106=VECTOR('',#1574,1000.);
#107=VECTOR('',#1575,1000.);
#108=VECTOR('',#1576,1000.);
#109=VECTOR('',#1577,1000.);
#110=VECTOR('',#1578,1000.);
#111=VECTOR('',#1579,1000.);
#112=VECTOR('',#1590,1000.);
#113=VECTOR('',#1591,1000.);
#114=VECTOR('',#1592,1000.);
#115=VECTOR('',#1593,1000.);
#116=VECTOR('',#1594,1000.);
#117=VECTOR('',#1597,1000.);
#118=VECTOR('',#1600,1000.);
#119=VECTOR('',#1601,1000.);
#120=VECTOR('',#1602,1000.);
#121=VECTOR('',#1631,1000.);
#122=VECTOR('',#1632,1000.);
#123=VECTOR('',#1633,1000.);
#124=VECTOR('',#1636,1000.);
#125=VECTOR('',#1637,1000.);
#126=VECTOR('',#1660,1000.);
#127=VECTOR('',#1661,1000.);
#128=VECTOR('',#1662,1000.);
#129=VECTOR('',#1663,1000.);
#130=VECTOR('',#1664,1000.);
#131=VECTOR('',#1665,1000.);
#132=VECTOR('',#1666,1000.);
#133=VECTOR('',#1667,1000.);
#134=VECTOR('',#1670,1000.);
#135=VECTOR('',#1673,1000.);
#136=VECTOR('',#1674,1000.);
#137=VECTOR('',#1675,1000.);
#138=VECTOR('',#1676,1000.);
#139=VECTOR('',#1677,1000.);
#140=VECTOR('',#1678,1000.);
#141=VECTOR('',#1679,1000.);
#142=VECTOR('',#1680,1000.);
#143=VECTOR('',#1681,1000.);
#144=VECTOR('',#1682,1000.);
#145=VECTOR('',#1683,1000.);
#146=VECTOR('',#1684,1000.);
#147=VECTOR('',#1685,1000.);
#148=VECTOR('',#1686,1000.);
#149=VECTOR('',#1687,1000.);
#150=VECTOR('',#1690,1000.);
#151=VECTOR('',#1691,1000.);
#152=VECTOR('',#1692,1000.);
#153=VECTOR('',#1695,1000.);
#154=VECTOR('',#1764,1000.);
#155=VECTOR('',#1767,1000.);
#156=VECTOR('',#1778,1000.);
#157=VECTOR('',#1779,1000.);
#158=VECTOR('',#1780,1000.);
#159=VECTOR('',#1783,1000.);
#160=VECTOR('',#1784,1000.);
#161=VECTOR('',#1787,1000.);
#162=VECTOR('',#1788,1000.);
#163=VECTOR('',#1791,1000.);
#164=VECTOR('',#1798,1000.);
#165=VECTOR('',#1799,1000.);
#166=VECTOR('',#1802,1000.);
#167=VECTOR('',#1807,1000.);
#168=VECTOR('',#1816,1000.);
#169=VECTOR('',#1817,1000.);
#170=VECTOR('',#1818,1000.);
#171=VECTOR('',#1821,1000.);
#172=VECTOR('',#1822,1000.);
#173=VECTOR('',#1825,1000.);
#174=VECTOR('',#1826,1000.);
#175=VECTOR('',#1829,1000.);
#176=VECTOR('',#1846,1000.);
#177=VECTOR('',#1847,1000.);
#178=VECTOR('',#1848,1000.);
#179=VECTOR('',#1851,1000.);
#180=VECTOR('',#1852,1000.);
#181=VECTOR('',#1855,1000.);
#182=VECTOR('',#1856,1000.);
#183=VECTOR('',#1859,1000.);
#184=VECTOR('',#1864,1000.);
#185=VECTOR('',#1865,1000.);
#186=VECTOR('',#1866,1000.);
#187=VECTOR('',#1869,1000.);
#188=VECTOR('',#1870,1000.);
#189=VECTOR('',#1873,1000.);
#190=VECTOR('',#1874,1000.);
#191=VECTOR('',#1877,1000.);
#192=PLANE('',#1408);
#193=PLANE('',#1409);
#194=PLANE('',#1429);
#195=PLANE('',#1430);
#196=PLANE('',#1431);
#197=PLANE('',#1444);
#198=PLANE('',#1445);
#199=PLANE('',#1455);
#200=PLANE('',#1458);
#201=PLANE('',#1461);
#202=PLANE('',#1464);
#203=PLANE('',#1479);
#204=PLANE('',#1480);
#205=PLANE('',#1485);
#206=PLANE('',#1486);
#207=PLANE('',#1487);
#208=PLANE('',#1488);
#209=PLANE('',#1489);
#210=PLANE('',#1491);
#211=PLANE('',#1492);
#212=PLANE('',#1494);
#213=PLANE('',#1498);
#214=PLANE('',#1499);
#215=PLANE('',#1500);
#216=PLANE('',#1501);
#217=PLANE('',#1502);
#218=PLANE('',#1508);
#219=PLANE('',#1509);
#220=PLANE('',#1510);
#221=PLANE('',#1511);
#222=PLANE('',#1512);
#223=PLANE('',#1513);
#224=PLANE('',#1514);
#225=PLANE('',#1515);
#226=PLANE('',#1516);
#227=PLANE('',#1517);
#228=PLANE('',#1518);
#229=PLANE('',#1524);
#230=PLANE('',#1527);
#231=PLANE('',#1530);
#232=PLANE('',#1533);
#233=PLANE('',#1536);
#234=PLANE('',#1539);
#235=PLANE('',#1542);
#236=PLANE('',#1545);
#237=PLANE('',#1548);
#238=PLANE('',#1551);
#239=PLANE('',#1554);
#240=PLANE('',#1557);
#241=PLANE('',#1560);
#242=PLANE('',#1563);
#243=ORIENTED_EDGE('',*,*,#559,.F.);
#244=ORIENTED_EDGE('',*,*,#560,.T.);
#245=ORIENTED_EDGE('',*,*,#561,.T.);
#246=ORIENTED_EDGE('',*,*,#562,.T.);
#247=ORIENTED_EDGE('',*,*,#563,.T.);
#248=ORIENTED_EDGE('',*,*,#564,.T.);
#249=ORIENTED_EDGE('',*,*,#565,.T.);
#250=ORIENTED_EDGE('',*,*,#566,.T.);
#251=ORIENTED_EDGE('',*,*,#567,.T.);
#252=ORIENTED_EDGE('',*,*,#568,.T.);
#253=ORIENTED_EDGE('',*,*,#569,.T.);
#254=ORIENTED_EDGE('',*,*,#570,.T.);
#255=ORIENTED_EDGE('',*,*,#571,.T.);
#256=ORIENTED_EDGE('',*,*,#572,.T.);
#257=ORIENTED_EDGE('',*,*,#561,.F.);
#258=ORIENTED_EDGE('',*,*,#573,.F.);
#259=ORIENTED_EDGE('',*,*,#574,.F.);
#260=ORIENTED_EDGE('',*,*,#575,.T.);
#261=ORIENTED_EDGE('',*,*,#576,.T.);
#262=ORIENTED_EDGE('',*,*,#577,.T.);
#263=ORIENTED_EDGE('',*,*,#578,.T.);
#264=ORIENTED_EDGE('',*,*,#579,.F.);
#265=ORIENTED_EDGE('',*,*,#580,.F.);
#266=ORIENTED_EDGE('',*,*,#581,.F.);
#267=ORIENTED_EDGE('',*,*,#582,.F.);
#268=ORIENTED_EDGE('',*,*,#583,.F.);
#269=ORIENTED_EDGE('',*,*,#584,.F.);
#270=ORIENTED_EDGE('',*,*,#585,.F.);
#271=ORIENTED_EDGE('',*,*,#586,.F.);
#272=ORIENTED_EDGE('',*,*,#587,.F.);
#273=ORIENTED_EDGE('',*,*,#588,.F.);
#274=ORIENTED_EDGE('',*,*,#589,.T.);
#275=ORIENTED_EDGE('',*,*,#590,.T.);
#276=ORIENTED_EDGE('',*,*,#591,.T.);
#277=ORIENTED_EDGE('',*,*,#592,.F.);
#278=ORIENTED_EDGE('',*,*,#593,.F.);
#279=ORIENTED_EDGE('',*,*,#594,.F.);
#280=ORIENTED_EDGE('',*,*,#595,.T.);
#281=ORIENTED_EDGE('',*,*,#571,.F.);
#282=ORIENTED_EDGE('',*,*,#596,.F.);
#283=ORIENTED_EDGE('',*,*,#597,.F.);
#284=ORIENTED_EDGE('',*,*,#566,.F.);
#285=ORIENTED_EDGE('',*,*,#598,.F.);
#286=ORIENTED_EDGE('',*,*,#599,.T.);
#287=ORIENTED_EDGE('',*,*,#573,.T.);
#288=ORIENTED_EDGE('',*,*,#600,.T.);
#289=ORIENTED_EDGE('',*,*,#601,.T.);
#290=ORIENTED_EDGE('',*,*,#602,.T.);
#291=ORIENTED_EDGE('',*,*,#603,.T.);
#292=ORIENTED_EDGE('',*,*,#604,.T.);
#293=ORIENTED_EDGE('',*,*,#605,.T.);
#294=ORIENTED_EDGE('',*,*,#606,.T.);
#295=ORIENTED_EDGE('',*,*,#607,.T.);
#296=ORIENTED_EDGE('',*,*,#608,.T.);
#297=ORIENTED_EDGE('',*,*,#609,.T.);
#298=ORIENTED_EDGE('',*,*,#610,.F.);
#299=ORIENTED_EDGE('',*,*,#611,.F.);
#300=ORIENTED_EDGE('',*,*,#612,.F.);
#301=ORIENTED_EDGE('',*,*,#613,.F.);
#302=ORIENTED_EDGE('',*,*,#614,.F.);
#303=ORIENTED_EDGE('',*,*,#597,.T.);
#304=ORIENTED_EDGE('',*,*,#615,.F.);
#305=ORIENTED_EDGE('',*,*,#616,.F.);
#306=ORIENTED_EDGE('',*,*,#617,.F.);
#307=ORIENTED_EDGE('',*,*,#618,.T.);
#308=ORIENTED_EDGE('',*,*,#619,.F.);
#309=ORIENTED_EDGE('',*,*,#620,.T.);
#310=ORIENTED_EDGE('',*,*,#621,.T.);
#311=ORIENTED_EDGE('',*,*,#622,.T.);
#312=ORIENTED_EDGE('',*,*,#623,.F.);
#313=ORIENTED_EDGE('',*,*,#563,.F.);
#314=ORIENTED_EDGE('',*,*,#624,.F.);
#315=ORIENTED_EDGE('',*,*,#625,.F.);
#316=ORIENTED_EDGE('',*,*,#626,.F.);
#317=ORIENTED_EDGE('',*,*,#627,.F.);
#318=ORIENTED_EDGE('',*,*,#628,.F.);
#319=ORIENTED_EDGE('',*,*,#629,.F.);
#320=ORIENTED_EDGE('',*,*,#630,.F.);
#321=ORIENTED_EDGE('',*,*,#631,.F.);
#322=ORIENTED_EDGE('',*,*,#632,.F.);
#323=ORIENTED_EDGE('',*,*,#633,.F.);
#324=ORIENTED_EDGE('',*,*,#634,.F.);
#325=ORIENTED_EDGE('',*,*,#635,.F.);
#326=ORIENTED_EDGE('',*,*,#622,.F.);
#327=ORIENTED_EDGE('',*,*,#636,.T.);
#328=ORIENTED_EDGE('',*,*,#574,.T.);
#329=ORIENTED_EDGE('',*,*,#599,.F.);
#330=ORIENTED_EDGE('',*,*,#637,.F.);
#331=ORIENTED_EDGE('',*,*,#638,.T.);
#332=ORIENTED_EDGE('',*,*,#564,.F.);
#333=ORIENTED_EDGE('',*,*,#623,.T.);
#334=ORIENTED_EDGE('',*,*,#638,.F.);
#335=ORIENTED_EDGE('',*,*,#639,.F.);
#336=ORIENTED_EDGE('',*,*,#640,.F.);
#337=ORIENTED_EDGE('',*,*,#641,.F.);
#338=ORIENTED_EDGE('',*,*,#642,.F.);
#339=ORIENTED_EDGE('',*,*,#643,.F.);
#340=ORIENTED_EDGE('',*,*,#644,.F.);
#341=ORIENTED_EDGE('',*,*,#645,.F.);
#342=ORIENTED_EDGE('',*,*,#565,.F.);
#343=ORIENTED_EDGE('',*,*,#639,.T.);
#344=ORIENTED_EDGE('',*,*,#637,.T.);
#345=ORIENTED_EDGE('',*,*,#598,.T.);
#346=ORIENTED_EDGE('',*,*,#641,.T.);
#347=ORIENTED_EDGE('',*,*,#643,.T.);
#348=ORIENTED_EDGE('',*,*,#645,.T.);
#349=ORIENTED_EDGE('',*,*,#646,.T.);
#350=ORIENTED_EDGE('',*,*,#591,.F.);
#351=ORIENTED_EDGE('',*,*,#640,.T.);
#352=ORIENTED_EDGE('',*,*,#646,.F.);
#353=ORIENTED_EDGE('',*,*,#647,.T.);
#354=ORIENTED_EDGE('',*,*,#590,.F.);
#355=ORIENTED_EDGE('',*,*,#642,.T.);
#356=ORIENTED_EDGE('',*,*,#647,.F.);
#357=ORIENTED_EDGE('',*,*,#648,.T.);
#358=ORIENTED_EDGE('',*,*,#589,.F.);
#359=ORIENTED_EDGE('',*,*,#644,.T.);
#360=ORIENTED_EDGE('',*,*,#648,.F.);
#361=ORIENTED_EDGE('',*,*,#649,.F.);
#362=ORIENTED_EDGE('',*,*,#588,.T.);
#363=ORIENTED_EDGE('',*,*,#650,.F.);
#364=ORIENTED_EDGE('',*,*,#587,.T.);
#365=ORIENTED_EDGE('',*,*,#651,.F.);
#366=ORIENTED_EDGE('',*,*,#586,.T.);
#367=ORIENTED_EDGE('',*,*,#652,.F.);
#368=ORIENTED_EDGE('',*,*,#585,.T.);
#369=ORIENTED_EDGE('',*,*,#653,.F.);
#370=ORIENTED_EDGE('',*,*,#584,.T.);
#371=ORIENTED_EDGE('',*,*,#654,.F.);
#372=ORIENTED_EDGE('',*,*,#583,.T.);
#373=ORIENTED_EDGE('',*,*,#655,.F.);
#374=ORIENTED_EDGE('',*,*,#582,.T.);
#375=ORIENTED_EDGE('',*,*,#615,.T.);
#376=ORIENTED_EDGE('',*,*,#596,.T.);
#377=ORIENTED_EDGE('',*,*,#581,.T.);
#378=ORIENTED_EDGE('',*,*,#656,.F.);
#379=ORIENTED_EDGE('',*,*,#657,.F.);
#380=ORIENTED_EDGE('',*,*,#616,.T.);
#381=ORIENTED_EDGE('',*,*,#656,.T.);
#382=ORIENTED_EDGE('',*,*,#580,.T.);
#383=ORIENTED_EDGE('',*,*,#658,.F.);
#384=ORIENTED_EDGE('',*,*,#592,.T.);
#385=ORIENTED_EDGE('',*,*,#659,.F.);
#386=ORIENTED_EDGE('',*,*,#593,.T.);
#387=ORIENTED_EDGE('',*,*,#628,.T.);
#388=ORIENTED_EDGE('',*,*,#660,.F.);
#389=ORIENTED_EDGE('',*,*,#661,.F.);
#390=ORIENTED_EDGE('',*,*,#662,.T.);
#391=ORIENTED_EDGE('',*,*,#631,.T.);
#392=ORIENTED_EDGE('',*,*,#663,.F.);
#393=ORIENTED_EDGE('',*,*,#664,.F.);
#394=ORIENTED_EDGE('',*,*,#660,.T.);
#395=ORIENTED_EDGE('',*,*,#630,.T.);
#396=ORIENTED_EDGE('',*,*,#665,.F.);
#397=ORIENTED_EDGE('',*,*,#666,.F.);
#398=ORIENTED_EDGE('',*,*,#663,.T.);
#399=ORIENTED_EDGE('',*,*,#629,.T.);
#400=ORIENTED_EDGE('',*,*,#662,.F.);
#401=ORIENTED_EDGE('',*,*,#667,.F.);
#402=ORIENTED_EDGE('',*,*,#665,.T.);
#403=ORIENTED_EDGE('',*,*,#668,.T.);
#404=ORIENTED_EDGE('',*,*,#661,.T.);
#405=ORIENTED_EDGE('',*,*,#664,.T.);
#406=ORIENTED_EDGE('',*,*,#666,.T.);
#407=ORIENTED_EDGE('',*,*,#667,.T.);
#408=ORIENTED_EDGE('',*,*,#619,.T.);
#409=ORIENTED_EDGE('',*,*,#669,.T.);
#410=ORIENTED_EDGE('',*,*,#577,.F.);
#411=ORIENTED_EDGE('',*,*,#670,.T.);
#412=ORIENTED_EDGE('',*,*,#621,.F.);
#413=ORIENTED_EDGE('',*,*,#671,.T.);
#414=ORIENTED_EDGE('',*,*,#575,.F.);
#415=ORIENTED_EDGE('',*,*,#636,.F.);
#416=ORIENTED_EDGE('',*,*,#620,.F.);
#417=ORIENTED_EDGE('',*,*,#670,.F.);
#418=ORIENTED_EDGE('',*,*,#576,.F.);
#419=ORIENTED_EDGE('',*,*,#671,.F.);
#420=ORIENTED_EDGE('',*,*,#579,.T.);
#421=ORIENTED_EDGE('',*,*,#672,.T.);
#422=ORIENTED_EDGE('',*,*,#617,.T.);
#423=ORIENTED_EDGE('',*,*,#657,.T.);
#424=ORIENTED_EDGE('',*,*,#578,.F.);
#425=ORIENTED_EDGE('',*,*,#669,.F.);
#426=ORIENTED_EDGE('',*,*,#618,.F.);
#427=ORIENTED_EDGE('',*,*,#672,.F.);
#428=ORIENTED_EDGE('',*,*,#673,.F.);
#429=ORIENTED_EDGE('',*,*,#668,.F.);
#430=ORIENTED_EDGE('',*,*,#624,.T.);
#431=ORIENTED_EDGE('',*,*,#674,.F.);
#432=ORIENTED_EDGE('',*,*,#675,.F.);
#433=ORIENTED_EDGE('',*,*,#676,.T.);
#434=ORIENTED_EDGE('',*,*,#627,.T.);
#435=ORIENTED_EDGE('',*,*,#677,.F.);
#436=ORIENTED_EDGE('',*,*,#678,.F.);
#437=ORIENTED_EDGE('',*,*,#674,.T.);
#438=ORIENTED_EDGE('',*,*,#626,.T.);
#439=ORIENTED_EDGE('',*,*,#679,.F.);
#440=ORIENTED_EDGE('',*,*,#680,.F.);
#441=ORIENTED_EDGE('',*,*,#677,.T.);
#442=ORIENTED_EDGE('',*,*,#625,.T.);
#443=ORIENTED_EDGE('',*,*,#676,.F.);
#444=ORIENTED_EDGE('',*,*,#681,.F.);
#445=ORIENTED_EDGE('',*,*,#679,.T.);
#446=ORIENTED_EDGE('',*,*,#682,.T.);
#447=ORIENTED_EDGE('',*,*,#681,.T.);
#448=ORIENTED_EDGE('',*,*,#675,.T.);
#449=ORIENTED_EDGE('',*,*,#678,.T.);
#450=ORIENTED_EDGE('',*,*,#680,.T.);
#451=ORIENTED_EDGE('',*,*,#683,.F.);
#452=ORIENTED_EDGE('',*,*,#682,.F.);
#453=ORIENTED_EDGE('',*,*,#684,.F.);
#454=ORIENTED_EDGE('',*,*,#594,.T.);
#455=ORIENTED_EDGE('',*,*,#614,.T.);
#456=ORIENTED_EDGE('',*,*,#562,.F.);
#457=ORIENTED_EDGE('',*,*,#572,.F.);
#458=ORIENTED_EDGE('',*,*,#595,.F.);
#459=ORIENTED_EDGE('',*,*,#632,.T.);
#460=ORIENTED_EDGE('',*,*,#685,.F.);
#461=ORIENTED_EDGE('',*,*,#686,.F.);
#462=ORIENTED_EDGE('',*,*,#687,.T.);
#463=ORIENTED_EDGE('',*,*,#635,.T.);
#464=ORIENTED_EDGE('',*,*,#688,.F.);
#465=ORIENTED_EDGE('',*,*,#689,.F.);
#466=ORIENTED_EDGE('',*,*,#685,.T.);
#467=ORIENTED_EDGE('',*,*,#634,.T.);
#468=ORIENTED_EDGE('',*,*,#690,.F.);
#469=ORIENTED_EDGE('',*,*,#691,.F.);
#470=ORIENTED_EDGE('',*,*,#688,.T.);
#471=ORIENTED_EDGE('',*,*,#633,.T.);
#472=ORIENTED_EDGE('',*,*,#687,.F.);
#473=ORIENTED_EDGE('',*,*,#692,.F.);
#474=ORIENTED_EDGE('',*,*,#690,.T.);
#475=ORIENTED_EDGE('',*,*,#560,.F.);
#476=ORIENTED_EDGE('',*,*,#686,.T.);
#477=ORIENTED_EDGE('',*,*,#689,.T.);
#478=ORIENTED_EDGE('',*,*,#691,.T.);
#479=ORIENTED_EDGE('',*,*,#692,.T.);
#480=ORIENTED_EDGE('',*,*,#610,.T.);
#481=ORIENTED_EDGE('',*,*,#693,.F.);
#482=ORIENTED_EDGE('',*,*,#694,.F.);
#483=ORIENTED_EDGE('',*,*,#695,.T.);
#484=ORIENTED_EDGE('',*,*,#613,.T.);
#485=ORIENTED_EDGE('',*,*,#696,.F.);
#486=ORIENTED_EDGE('',*,*,#697,.F.);
#487=ORIENTED_EDGE('',*,*,#693,.T.);
#488=ORIENTED_EDGE('',*,*,#612,.T.);
#489=ORIENTED_EDGE('',*,*,#698,.F.);
#490=ORIENTED_EDGE('',*,*,#699,.F.);
#491=ORIENTED_EDGE('',*,*,#696,.T.);
#492=ORIENTED_EDGE('',*,*,#611,.T.);
#493=ORIENTED_EDGE('',*,*,#695,.F.);
#494=ORIENTED_EDGE('',*,*,#700,.F.);
#495=ORIENTED_EDGE('',*,*,#698,.T.);
#496=ORIENTED_EDGE('',*,*,#701,.T.);
#497=ORIENTED_EDGE('',*,*,#694,.T.);
#498=ORIENTED_EDGE('',*,*,#697,.T.);
#499=ORIENTED_EDGE('',*,*,#699,.T.);
#500=ORIENTED_EDGE('',*,*,#700,.T.);
#501=ORIENTED_EDGE('',*,*,#702,.F.);
#502=ORIENTED_EDGE('',*,*,#701,.F.);
#503=ORIENTED_EDGE('',*,*,#703,.T.);
#504=ORIENTED_EDGE('',*,*,#609,.F.);
#505=ORIENTED_EDGE('',*,*,#654,.T.);
#506=ORIENTED_EDGE('',*,*,#703,.F.);
#507=ORIENTED_EDGE('',*,*,#704,.T.);
#508=ORIENTED_EDGE('',*,*,#608,.F.);
#509=ORIENTED_EDGE('',*,*,#655,.T.);
#510=ORIENTED_EDGE('',*,*,#704,.F.);
#511=ORIENTED_EDGE('',*,*,#705,.T.);
#512=ORIENTED_EDGE('',*,*,#607,.F.);
#513=ORIENTED_EDGE('',*,*,#649,.T.);
#514=ORIENTED_EDGE('',*,*,#705,.F.);
#515=ORIENTED_EDGE('',*,*,#706,.T.);
#516=ORIENTED_EDGE('',*,*,#606,.F.);
#517=ORIENTED_EDGE('',*,*,#653,.T.);
#518=ORIENTED_EDGE('',*,*,#706,.F.);
#519=ORIENTED_EDGE('',*,*,#707,.T.);
#520=ORIENTED_EDGE('',*,*,#605,.F.);
#521=ORIENTED_EDGE('',*,*,#652,.T.);
#522=ORIENTED_EDGE('',*,*,#707,.F.);
#523=ORIENTED_EDGE('',*,*,#708,.T.);
#524=ORIENTED_EDGE('',*,*,#604,.F.);
#525=ORIENTED_EDGE('',*,*,#651,.T.);
#526=ORIENTED_EDGE('',*,*,#708,.F.);
#527=ORIENTED_EDGE('',*,*,#709,.T.);
#528=ORIENTED_EDGE('',*,*,#603,.F.);
#529=ORIENTED_EDGE('',*,*,#650,.T.);
#530=ORIENTED_EDGE('',*,*,#709,.F.);
#531=ORIENTED_EDGE('',*,*,#710,.T.);
#532=ORIENTED_EDGE('',*,*,#602,.F.);
#533=ORIENTED_EDGE('',*,*,#659,.T.);
#534=ORIENTED_EDGE('',*,*,#710,.F.);
#535=ORIENTED_EDGE('',*,*,#711,.T.);
#536=ORIENTED_EDGE('',*,*,#601,.F.);
#537=ORIENTED_EDGE('',*,*,#658,.T.);
#538=ORIENTED_EDGE('',*,*,#711,.F.);
#539=ORIENTED_EDGE('',*,*,#712,.T.);
#540=ORIENTED_EDGE('',*,*,#600,.F.);
#541=ORIENTED_EDGE('',*,*,#684,.T.);
#542=ORIENTED_EDGE('',*,*,#712,.F.);
#543=ORIENTED_EDGE('',*,*,#713,.T.);
#544=ORIENTED_EDGE('',*,*,#570,.F.);
#545=ORIENTED_EDGE('',*,*,#702,.T.);
#546=ORIENTED_EDGE('',*,*,#713,.F.);
#547=ORIENTED_EDGE('',*,*,#714,.T.);
#548=ORIENTED_EDGE('',*,*,#569,.F.);
#549=ORIENTED_EDGE('',*,*,#559,.T.);
#550=ORIENTED_EDGE('',*,*,#714,.F.);
#551=ORIENTED_EDGE('',*,*,#715,.T.);
#552=ORIENTED_EDGE('',*,*,#568,.F.);
#553=ORIENTED_EDGE('',*,*,#673,.T.);
#554=ORIENTED_EDGE('',*,*,#715,.F.);
#555=ORIENTED_EDGE('',*,*,#716,.T.);
#556=ORIENTED_EDGE('',*,*,#567,.F.);
#557=ORIENTED_EDGE('',*,*,#683,.T.);
#558=ORIENTED_EDGE('',*,*,#716,.F.);
#559=EDGE_CURVE('',#717,#717,#845,.T.);
#560=EDGE_CURVE('',#718,#718,#846,.T.);
#561=EDGE_CURVE('',#719,#720,#20,.T.);
#562=EDGE_CURVE('',#720,#721,#21,.T.);
#563=EDGE_CURVE('',#721,#722,#22,.T.);
#564=EDGE_CURVE('',#722,#723,#23,.T.);
#565=EDGE_CURVE('',#723,#724,#24,.T.);
#566=EDGE_CURVE('',#724,#719,#25,.T.);
#567=EDGE_CURVE('',#725,#725,#847,.T.);
#568=EDGE_CURVE('',#726,#726,#848,.T.);
#569=EDGE_CURVE('',#727,#727,#849,.T.);
#570=EDGE_CURVE('',#728,#728,#850,.T.);
#571=EDGE_CURVE('',#729,#730,#26,.T.);
#572=EDGE_CURVE('',#730,#720,#27,.T.);
#573=EDGE_CURVE('',#731,#719,#28,.T.);
#574=EDGE_CURVE('',#732,#731,#29,.T.);
#575=EDGE_CURVE('',#732,#733,#30,.T.);
#576=EDGE_CURVE('',#733,#734,#851,.T.);
#577=EDGE_CURVE('',#734,#735,#31,.T.);
#578=EDGE_CURVE('',#735,#736,#852,.T.);
#579=EDGE_CURVE('',#737,#736,#32,.T.);
#580=EDGE_CURVE('',#738,#737,#33,.T.);
#581=EDGE_CURVE('',#729,#738,#34,.T.);
#582=EDGE_CURVE('',#739,#739,#853,.F.);
#583=EDGE_CURVE('',#740,#740,#854,.F.);
#584=EDGE_CURVE('',#741,#741,#855,.F.);
#585=EDGE_CURVE('',#742,#742,#856,.F.);
#586=EDGE_CURVE('',#743,#743,#857,.F.);
#587=EDGE_CURVE('',#744,#744,#858,.F.);
#588=EDGE_CURVE('',#745,#745,#859,.F.);
#589=EDGE_CURVE('',#746,#746,#860,.T.);
#590=EDGE_CURVE('',#747,#747,#861,.T.);
#591=EDGE_CURVE('',#748,#748,#862,.T.);
#592=EDGE_CURVE('',#749,#749,#863,.F.);
#593=EDGE_CURVE('',#750,#750,#864,.F.);
#594=EDGE_CURVE('',#751,#751,#865,.F.);
#595=EDGE_CURVE('',#752,#730,#35,.T.);
#596=EDGE_CURVE('',#753,#729,#36,.T.);
#597=EDGE_CURVE('',#752,#753,#37,.T.);
#598=EDGE_CURVE('',#754,#724,#38,.T.);
#599=EDGE_CURVE('',#754,#731,#39,.T.);
#600=EDGE_CURVE('',#755,#755,#866,.T.);
#601=EDGE_CURVE('',#756,#756,#867,.T.);
#602=EDGE_CURVE('',#757,#757,#868,.T.);
#603=EDGE_CURVE('',#758,#758,#869,.T.);
#604=EDGE_CURVE('',#759,#759,#870,.T.);
#605=EDGE_CURVE('',#760,#760,#871,.T.);
#606=EDGE_CURVE('',#761,#761,#872,.T.);
#607=EDGE_CURVE('',#762,#762,#873,.T.);
#608=EDGE_CURVE('',#763,#763,#874,.T.);
#609=EDGE_CURVE('',#764,#764,#875,.T.);
#610=EDGE_CURVE('',#765,#766,#40,.T.);
#611=EDGE_CURVE('',#767,#765,#41,.T.);
#612=EDGE_CURVE('',#768,#767,#42,.T.);
#613=EDGE_CURVE('',#766,#768,#43,.T.);
#614=EDGE_CURVE('',#752,#721,#44,.T.);
#615=EDGE_CURVE('',#769,#753,#45,.T.);
#616=EDGE_CURVE('',#770,#769,#46,.T.);
#617=EDGE_CURVE('',#771,#770,#47,.T.);
#618=EDGE_CURVE('',#771,#772,#876,.F.);
#619=EDGE_CURVE('',#773,#772,#48,.T.);
#620=EDGE_CURVE('',#773,#774,#877,.F.);
#621=EDGE_CURVE('',#774,#775,#49,.T.);
#622=EDGE_CURVE('',#775,#776,#50,.T.);
#623=EDGE_CURVE('',#722,#776,#51,.T.);
#624=EDGE_CURVE('',#777,#778,#52,.T.);
#625=EDGE_CURVE('',#779,#777,#53,.T.);
#626=EDGE_CURVE('',#780,#779,#54,.T.);
#627=EDGE_CURVE('',#778,#780,#55,.T.);
#628=EDGE_CURVE('',#781,#782,#56,.T.);
#629=EDGE_CURVE('',#783,#781,#57,.T.);
#630=EDGE_CURVE('',#784,#783,#58,.T.);
#631=EDGE_CURVE('',#782,#784,#59,.T.);
#632=EDGE_CURVE('',#785,#786,#60,.T.);
#633=EDGE_CURVE('',#787,#785,#61,.T.);
#634=EDGE_CURVE('',#788,#787,#62,.T.);
#635=EDGE_CURVE('',#786,#788,#63,.T.);
#636=EDGE_CURVE('',#775,#732,#64,.T.);
#637=EDGE_CURVE('',#789,#754,#65,.T.);
#638=EDGE_CURVE('',#789,#776,#66,.T.);
#639=EDGE_CURVE('',#723,#789,#67,.T.);
#640=EDGE_CURVE('',#790,#790,#878,.T.);
#641=EDGE_CURVE('',#791,#791,#879,.T.);
#642=EDGE_CURVE('',#792,#792,#880,.T.);
#643=EDGE_CURVE('',#793,#793,#881,.T.);
#644=EDGE_CURVE('',#794,#794,#882,.T.);
#645=EDGE_CURVE('',#795,#795,#883,.T.);
#646=EDGE_CURVE('',#796,#796,#884,.T.);
#647=EDGE_CURVE('',#797,#797,#885,.T.);
#648=EDGE_CURVE('',#798,#798,#886,.T.);
#649=EDGE_CURVE('',#799,#799,#887,.T.);
#650=EDGE_CURVE('',#800,#800,#888,.T.);
#651=EDGE_CURVE('',#801,#801,#889,.T.);
#652=EDGE_CURVE('',#802,#802,#890,.T.);
#653=EDGE_CURVE('',#803,#803,#891,.T.);
#654=EDGE_CURVE('',#804,#804,#892,.T.);
#655=EDGE_CURVE('',#805,#805,#893,.T.);
#656=EDGE_CURVE('',#769,#738,#68,.T.);
#657=EDGE_CURVE('',#770,#737,#69,.T.);
#658=EDGE_CURVE('',#806,#806,#894,.T.);
#659=EDGE_CURVE('',#807,#807,#895,.T.);
#660=EDGE_CURVE('',#808,#782,#70,.T.);
#661=EDGE_CURVE('',#809,#808,#71,.T.);
#662=EDGE_CURVE('',#809,#781,#72,.T.);
#663=EDGE_CURVE('',#810,#784,#73,.T.);
#664=EDGE_CURVE('',#808,#810,#74,.T.);
#665=EDGE_CURVE('',#811,#783,#75,.T.);
#666=EDGE_CURVE('',#810,#811,#76,.T.);
#667=EDGE_CURVE('',#811,#809,#77,.T.);
#668=EDGE_CURVE('',#812,#812,#896,.F.);
#669=EDGE_CURVE('',#772,#735,#78,.F.);
#670=EDGE_CURVE('',#734,#773,#79,.F.);
#671=EDGE_CURVE('',#774,#733,#80,.T.);
#672=EDGE_CURVE('',#736,#771,#81,.T.);
#673=EDGE_CURVE('',#813,#813,#897,.T.);
#674=EDGE_CURVE('',#814,#778,#82,.T.);
#675=EDGE_CURVE('',#815,#814,#83,.T.);
#676=EDGE_CURVE('',#815,#777,#84,.T.);
#677=EDGE_CURVE('',#816,#780,#85,.T.);
#678=EDGE_CURVE('',#814,#816,#86,.T.);
#679=EDGE_CURVE('',#817,#779,#87,.T.);
#680=EDGE_CURVE('',#816,#817,#88,.T.);
#681=EDGE_CURVE('',#817,#815,#89,.T.);
#682=EDGE_CURVE('',#818,#818,#898,.F.);
#683=EDGE_CURVE('',#819,#819,#899,.T.);
#684=EDGE_CURVE('',#820,#820,#900,.T.);
#685=EDGE_CURVE('',#821,#786,#90,.T.);
#686=EDGE_CURVE('',#822,#821,#91,.T.);
#687=EDGE_CURVE('',#822,#785,#92,.T.);
#688=EDGE_CURVE('',#823,#788,#93,.T.);
#689=EDGE_CURVE('',#821,#823,#94,.T.);
#690=EDGE_CURVE('',#824,#787,#95,.T.);
#691=EDGE_CURVE('',#823,#824,#96,.T.);
#692=EDGE_CURVE('',#824,#822,#97,.T.);
#693=EDGE_CURVE('',#825,#766,#98,.T.);
#694=EDGE_CURVE('',#826,#825,#99,.T.);
#695=EDGE_CURVE('',#826,#765,#100,.T.);
#696=EDGE_CURVE('',#827,#768,#101,.T.);
#697=EDGE_CURVE('',#825,#827,#102,.T.);
#698=EDGE_CURVE('',#828,#767,#103,.T.);
#699=EDGE_CURVE('',#827,#828,#104,.T.);
#700=EDGE_CURVE('',#828,#826,#105,.T.);
#701=EDGE_CURVE('',#829,#829,#901,.F.);
#702=EDGE_CURVE('',#830,#830,#902,.T.);
#703=EDGE_CURVE('',#831,#831,#903,.T.);
#704=EDGE_CURVE('',#832,#832,#904,.T.);
#705=EDGE_CURVE('',#833,#833,#905,.T.);
#706=EDGE_CURVE('',#834,#834,#906,.T.);
#707=EDGE_CURVE('',#835,#835,#907,.T.);
#708=EDGE_CURVE('',#836,#836,#908,.T.);
#709=EDGE_CURVE('',#837,#837,#909,.T.);
#710=EDGE_CURVE('',#838,#838,#910,.T.);
#711=EDGE_CURVE('',#839,#839,#911,.T.);
#712=EDGE_CURVE('',#840,#840,#912,.T.);
#713=EDGE_CURVE('',#841,#841,#913,.T.);
#714=EDGE_CURVE('',#842,#842,#914,.T.);
#715=EDGE_CURVE('',#843,#843,#915,.T.);
#716=EDGE_CURVE('',#844,#844,#916,.T.);
#717=VERTEX_POINT('',#1973);
#718=VERTEX_POINT('',#1975);
#719=VERTEX_POINT('',#1978);
#720=VERTEX_POINT('',#1979);
#721=VERTEX_POINT('',#1981);
#722=VERTEX_POINT('',#1983);
#723=VERTEX_POINT('',#1985);
#724=VERTEX_POINT('',#1987);
#725=VERTEX_POINT('',#1991);
#726=VERTEX_POINT('',#1993);
#727=VERTEX_POINT('',#1995);
#728=VERTEX_POINT('',#1997);
#729=VERTEX_POINT('',#1999);
#730=VERTEX_POINT('',#2000);
#731=VERTEX_POINT('',#2003);
#732=VERTEX_POINT('',#2005);
#733=VERTEX_POINT('',#2007);
#734=VERTEX_POINT('',#2009);
#735=VERTEX_POINT('',#2011);
#736=VERTEX_POINT('',#2013);
#737=VERTEX_POINT('',#2015);
#738=VERTEX_POINT('',#2017);
#739=VERTEX_POINT('',#2020);
#740=VERTEX_POINT('',#2022);
#741=VERTEX_POINT('',#2024);
#742=VERTEX_POINT('',#2026);
#743=VERTEX_POINT('',#2028);
#744=VERTEX_POINT('',#2030);
#745=VERTEX_POINT('',#2032);
#746=VERTEX_POINT('',#2034);
#747=VERTEX_POINT('',#2036);
#748=VERTEX_POINT('',#2038);
#749=VERTEX_POINT('',#2040);
#750=VERTEX_POINT('',#2042);
#751=VERTEX_POINT('',#2044);
#752=VERTEX_POINT('',#2047);
#753=VERTEX_POINT('',#2049);
#754=VERTEX_POINT('',#2053);
#755=VERTEX_POINT('',#2057);
#756=VERTEX_POINT('',#2059);
#757=VERTEX_POINT('',#2061);
#758=VERTEX_POINT('',#2063);
#759=VERTEX_POINT('',#2065);
#760=VERTEX_POINT('',#2067);
#761=VERTEX_POINT('',#2069);
#762=VERTEX_POINT('',#2071);
#763=VERTEX_POINT('',#2073);
#764=VERTEX_POINT('',#2075);
#765=VERTEX_POINT('',#2077);
#766=VERTEX_POINT('',#2078);
#767=VERTEX_POINT('',#2080);
#768=VERTEX_POINT('',#2082);
#769=VERTEX_POINT('',#2086);
#770=VERTEX_POINT('',#2088);
#771=VERTEX_POINT('',#2090);
#772=VERTEX_POINT('',#2092);
#773=VERTEX_POINT('',#2094);
#774=VERTEX_POINT('',#2096);
#775=VERTEX_POINT('',#2098);
#776=VERTEX_POINT('',#2100);
#777=VERTEX_POINT('',#2103);
#778=VERTEX_POINT('',#2104);
#779=VERTEX_POINT('',#2106);
#780=VERTEX_POINT('',#2108);
#781=VERTEX_POINT('',#2111);
#782=VERTEX_POINT('',#2112);
#783=VERTEX_POINT('',#2114);
#784=VERTEX_POINT('',#2116);
#785=VERTEX_POINT('',#2119);
#786=VERTEX_POINT('',#2120);
#787=VERTEX_POINT('',#2122);
#788=VERTEX_POINT('',#2124);
#789=VERTEX_POINT('',#2129);
#790=VERTEX_POINT('',#2135);
#791=VERTEX_POINT('',#2137);
#792=VERTEX_POINT('',#2140);
#793=VERTEX_POINT('',#2142);
#794=VERTEX_POINT('',#2145);
#795=VERTEX_POINT('',#2147);
#796=VERTEX_POINT('',#2151);
#797=VERTEX_POINT('',#2155);
#798=VERTEX_POINT('',#2159);
#799=VERTEX_POINT('',#2163);
#800=VERTEX_POINT('',#2166);
#801=VERTEX_POINT('',#2169);
#802=VERTEX_POINT('',#2172);
#803=VERTEX_POINT('',#2175);
#804=VERTEX_POINT('',#2178);
#805=VERTEX_POINT('',#2181);
#806=VERTEX_POINT('',#2188);
#807=VERTEX_POINT('',#2191);
#808=VERTEX_POINT('',#2194);
#809=VERTEX_POINT('',#2196);
#810=VERTEX_POINT('',#2200);
#811=VERTEX_POINT('',#2204);
#812=VERTEX_POINT('',#2210);
#813=VERTEX_POINT('',#2222);
#814=VERTEX_POINT('',#2225);
#815=VERTEX_POINT('',#2227);
#816=VERTEX_POINT('',#2231);
#817=VERTEX_POINT('',#2235);
#818=VERTEX_POINT('',#2241);
#819=VERTEX_POINT('',#2244);
#820=VERTEX_POINT('',#2247);
#821=VERTEX_POINT('',#2251);
#822=VERTEX_POINT('',#2253);
#823=VERTEX_POINT('',#2257);
#824=VERTEX_POINT('',#2261);
#825=VERTEX_POINT('',#2268);
#826=VERTEX_POINT('',#2270);
#827=VERTEX_POINT('',#2274);
#828=VERTEX_POINT('',#2278);
#829=VERTEX_POINT('',#2284);
#830=VERTEX_POINT('',#2287);
#831=VERTEX_POINT('',#2290);
#832=VERTEX_POINT('',#2294);
#833=VERTEX_POINT('',#2298);
#834=VERTEX_POINT('',#2302);
#835=VERTEX_POINT('',#2306);
#836=VERTEX_POINT('',#2310);
#837=VERTEX_POINT('',#2314);
#838=VERTEX_POINT('',#2318);
#839=VERTEX_POINT('',#2322);
#840=VERTEX_POINT('',#2326);
#841=VERTEX_POINT('',#2330);
#842=VERTEX_POINT('',#2334);
#843=VERTEX_POINT('',#2338);
#844=VERTEX_POINT('',#2342);
#845=CIRCLE('',#1406,1.5);
#846=CIRCLE('',#1407,1.5);
#847=CIRCLE('',#1410,2.5);
#848=CIRCLE('',#1411,2.5);
#849=CIRCLE('',#1412,2.5);
#850=CIRCLE('',#1413,2.5);
#851=CIRCLE('',#1414,3.);
#852=CIRCLE('',#1415,3.);
#853=CIRCLE('',#1416,3.);
#854=CIRCLE('',#1417,3.);
#855=CIRCLE('',#1418,3.);
#856=CIRCLE('',#1419,3.);
#857=CIRCLE('',#1420,3.);
#858=CIRCLE('',#1421,3.);
#859=CIRCLE('',#1422,3.);
#860=CIRCLE('',#1423,5.);
#861=CIRCLE('',#1424,5.);
#862=CIRCLE('',#1425,5.);
#863=CIRCLE('',#1426,3.);
#864=CIRCLE('',#1427,3.);
#865=CIRCLE('',#1428,3.);
#866=CIRCLE('',#1432,5.);
#867=CIRCLE('',#1433,5.);
#868=CIRCLE('',#1434,5.);
#869=CIRCLE('',#1435,5.);
#870=CIRCLE('',#1436,5.);
#871=CIRCLE('',#1437,5.);
#872=CIRCLE('',#1438,5.);
#873=CIRCLE('',#1439,5.);
#874=CIRCLE('',#1440,5.);
#875=CIRCLE('',#1441,5.);
#876=CIRCLE('',#1442,3.);
#877=CIRCLE('',#1443,3.);
#878=CIRCLE('',#1447,3.);
#879=CIRCLE('',#1448,3.);
#880=CIRCLE('',#1450,3.);
#881=CIRCLE('',#1451,3.);
#882=CIRCLE('',#1453,3.);
#883=CIRCLE('',#1454,3.);
#884=CIRCLE('',#1457,5.);
#885=CIRCLE('',#1460,5.);
#886=CIRCLE('',#1463,5.);
#887=CIRCLE('',#1466,3.);
#888=CIRCLE('',#1468,3.);
#889=CIRCLE('',#1470,3.);
#890=CIRCLE('',#1472,3.);
#891=CIRCLE('',#1474,3.);
#892=CIRCLE('',#1476,3.);
#893=CIRCLE('',#1478,3.);
#894=CIRCLE('',#1482,3.);
#895=CIRCLE('',#1484,3.);
#896=CIRCLE('',#1490,1.5);
#897=CIRCLE('',#1497,1.5);
#898=CIRCLE('',#1503,1.5);
#899=CIRCLE('',#1505,1.5);
#900=CIRCLE('',#1507,3.);
#901=CIRCLE('',#1519,1.5);
#902=CIRCLE('',#1521,1.5);
#903=CIRCLE('',#1523,5.);
#904=CIRCLE('',#1526,5.);
#905=CIRCLE('',#1529,5.);
#906=CIRCLE('',#1532,5.);
#907=CIRCLE('',#1535,5.);
#908=CIRCLE('',#1538,5.);
#909=CIRCLE('',#1541,5.);
#910=CIRCLE('',#1544,5.);
#911=CIRCLE('',#1547,5.);
#912=CIRCLE('',#1550,5.);
#913=CIRCLE('',#1553,2.5);
#914=CIRCLE('',#1556,2.5);
#915=CIRCLE('',#1559,2.5);
#916=CIRCLE('',#1562,2.5);
#917=EDGE_LOOP('',(#243));
#918=EDGE_LOOP('',(#244));
#919=EDGE_LOOP('',(#245,#246,#247,#248,#249,#250));
#920=EDGE_LOOP('',(#251));
#921=EDGE_LOOP('',(#252));
#922=EDGE_LOOP('',(#253));
#923=EDGE_LOOP('',(#254));
#924=EDGE_LOOP('',(#255,#256,#257,#258,#259,#260,#261,#262,#263,#264,#265,
#266));
#925=EDGE_LOOP('',(#267));
#926=EDGE_LOOP('',(#268));
#927=EDGE_LOOP('',(#269));
#928=EDGE_LOOP('',(#270));
#929=EDGE_LOOP('',(#271));
#930=EDGE_LOOP('',(#272));
#931=EDGE_LOOP('',(#273));
#932=EDGE_LOOP('',(#274));
#933=EDGE_LOOP('',(#275));
#934=EDGE_LOOP('',(#276));
#935=EDGE_LOOP('',(#277));
#936=EDGE_LOOP('',(#278));
#937=EDGE_LOOP('',(#279));
#938=EDGE_LOOP('',(#280,#281,#282,#283));
#939=EDGE_LOOP('',(#284,#285,#286,#287));
#940=EDGE_LOOP('',(#288));
#941=EDGE_LOOP('',(#289));
#942=EDGE_LOOP('',(#290));
#943=EDGE_LOOP('',(#291));
#944=EDGE_LOOP('',(#292));
#945=EDGE_LOOP('',(#293));
#946=EDGE_LOOP('',(#294));
#947=EDGE_LOOP('',(#295));
#948=EDGE_LOOP('',(#296));
#949=EDGE_LOOP('',(#297));
#950=EDGE_LOOP('',(#298,#299,#300,#301));
#951=EDGE_LOOP('',(#302,#303,#304,#305,#306,#307,#308,#309,#310,#311,#312,
#313));
#952=EDGE_LOOP('',(#314,#315,#316,#317));
#953=EDGE_LOOP('',(#318,#319,#320,#321));
#954=EDGE_LOOP('',(#322,#323,#324,#325));
#955=EDGE_LOOP('',(#326,#327,#328,#329,#330,#331));
#956=EDGE_LOOP('',(#332,#333,#334,#335));
#957=EDGE_LOOP('',(#336));
#958=EDGE_LOOP('',(#337));
#959=EDGE_LOOP('',(#338));
#960=EDGE_LOOP('',(#339));
#961=EDGE_LOOP('',(#340));
#962=EDGE_LOOP('',(#341));
#963=EDGE_LOOP('',(#342,#343,#344,#345));
#964=EDGE_LOOP('',(#346));
#965=EDGE_LOOP('',(#347));
#966=EDGE_LOOP('',(#348));
#967=EDGE_LOOP('',(#349));
#968=EDGE_LOOP('',(#350));
#969=EDGE_LOOP('',(#351));
#970=EDGE_LOOP('',(#352));
#971=EDGE_LOOP('',(#353));
#972=EDGE_LOOP('',(#354));
#973=EDGE_LOOP('',(#355));
#974=EDGE_LOOP('',(#356));
#975=EDGE_LOOP('',(#357));
#976=EDGE_LOOP('',(#358));
#977=EDGE_LOOP('',(#359));
#978=EDGE_LOOP('',(#360));
#979=EDGE_LOOP('',(#361));
#980=EDGE_LOOP('',(#362));
#981=EDGE_LOOP('',(#363));
#982=EDGE_LOOP('',(#364));
#983=EDGE_LOOP('',(#365));
#984=EDGE_LOOP('',(#366));
#985=EDGE_LOOP('',(#367));
#986=EDGE_LOOP('',(#368));
#987=EDGE_LOOP('',(#369));
#988=EDGE_LOOP('',(#370));
#989=EDGE_LOOP('',(#371));
#990=EDGE_LOOP('',(#372));
#991=EDGE_LOOP('',(#373));
#992=EDGE_LOOP('',(#374));
#993=EDGE_LOOP('',(#375,#376,#377,#378));
#994=EDGE_LOOP('',(#379,#380,#381,#382));
#995=EDGE_LOOP('',(#383));
#996=EDGE_LOOP('',(#384));
#997=EDGE_LOOP('',(#385));
#998=EDGE_LOOP('',(#386));
#999=EDGE_LOOP('',(#387,#388,#389,#390));
#1000=EDGE_LOOP('',(#391,#392,#393,#394));
#1001=EDGE_LOOP('',(#395,#396,#397,#398));
#1002=EDGE_LOOP('',(#399,#400,#401,#402));
#1003=EDGE_LOOP('',(#403));
#1004=EDGE_LOOP('',(#404,#405,#406,#407));
#1005=EDGE_LOOP('',(#408,#409,#410,#411));
#1006=EDGE_LOOP('',(#412,#413,#414,#415));
#1007=EDGE_LOOP('',(#416,#417,#418,#419));
#1008=EDGE_LOOP('',(#420,#421,#422,#423));
#1009=EDGE_LOOP('',(#424,#425,#426,#427));
#1010=EDGE_LOOP('',(#428));
#1011=EDGE_LOOP('',(#429));
#1012=EDGE_LOOP('',(#430,#431,#432,#433));
#1013=EDGE_LOOP('',(#434,#435,#436,#437));
#1014=EDGE_LOOP('',(#438,#439,#440,#441));
#1015=EDGE_LOOP('',(#442,#443,#444,#445));
#1016=EDGE_LOOP('',(#446));
#1017=EDGE_LOOP('',(#447,#448,#449,#450));
#1018=EDGE_LOOP('',(#451));
#1019=EDGE_LOOP('',(#452));
#1020=EDGE_LOOP('',(#453));
#1021=EDGE_LOOP('',(#454));
#1022=EDGE_LOOP('',(#455,#456,#457,#458));
#1023=EDGE_LOOP('',(#459,#460,#461,#462));
#1024=EDGE_LOOP('',(#463,#464,#465,#466));
#1025=EDGE_LOOP('',(#467,#468,#469,#470));
#1026=EDGE_LOOP('',(#471,#472,#473,#474));
#1027=EDGE_LOOP('',(#475));
#1028=EDGE_LOOP('',(#476,#477,#478,#479));
#1029=EDGE_LOOP('',(#480,#481,#482,#483));
#1030=EDGE_LOOP('',(#484,#485,#486,#487));
#1031=EDGE_LOOP('',(#488,#489,#490,#491));
#1032=EDGE_LOOP('',(#492,#493,#494,#495));
#1033=EDGE_LOOP('',(#496));
#1034=EDGE_LOOP('',(#497,#498,#499,#500));
#1035=EDGE_LOOP('',(#501));
#1036=EDGE_LOOP('',(#502));
#1037=EDGE_LOOP('',(#503));
#1038=EDGE_LOOP('',(#504));
#1039=EDGE_LOOP('',(#505));
#1040=EDGE_LOOP('',(#506));
#1041=EDGE_LOOP('',(#507));
#1042=EDGE_LOOP('',(#508));
#1043=EDGE_LOOP('',(#509));
#1044=EDGE_LOOP('',(#510));
#1045=EDGE_LOOP('',(#511));
#1046=EDGE_LOOP('',(#512));
#1047=EDGE_LOOP('',(#513));
#1048=EDGE_LOOP('',(#514));
#1049=EDGE_LOOP('',(#515));
#1050=EDGE_LOOP('',(#516));
#1051=EDGE_LOOP('',(#517));
#1052=EDGE_LOOP('',(#518));
#1053=EDGE_LOOP('',(#519));
#1054=EDGE_LOOP('',(#520));
#1055=EDGE_LOOP('',(#521));
#1056=EDGE_LOOP('',(#522));
#1057=EDGE_LOOP('',(#523));
#1058=EDGE_LOOP('',(#524));
#1059=EDGE_LOOP('',(#525));
#1060=EDGE_LOOP('',(#526));
#1061=EDGE_LOOP('',(#527));
#1062=EDGE_LOOP('',(#528));
#1063=EDGE_LOOP('',(#529));
#1064=EDGE_LOOP('',(#530));
#1065=EDGE_LOOP('',(#531));
#1066=EDGE_LOOP('',(#532));
#1067=EDGE_LOOP('',(#533));
#1068=EDGE_LOOP('',(#534));
#1069=EDGE_LOOP('',(#535));
#1070=EDGE_LOOP('',(#536));
#1071=EDGE_LOOP('',(#537));
#1072=EDGE_LOOP('',(#538));
#1073=EDGE_LOOP('',(#539));
#1074=EDGE_LOOP('',(#540));
#1075=EDGE_LOOP('',(#541));
#1076=EDGE_LOOP('',(#542));
#1077=EDGE_LOOP('',(#543));
#1078=EDGE_LOOP('',(#544));
#1079=EDGE_LOOP('',(#545));
#1080=EDGE_LOOP('',(#546));
#1081=EDGE_LOOP('',(#547));
#1082=EDGE_LOOP('',(#548));
#1083=EDGE_LOOP('',(#549));
#1084=EDGE_LOOP('',(#550));
#1085=EDGE_LOOP('',(#551));
#1086=EDGE_LOOP('',(#552));
#1087=EDGE_LOOP('',(#553));
#1088=EDGE_LOOP('',(#554));
#1089=EDGE_LOOP('',(#555));
#1090=EDGE_LOOP('',(#556));
#1091=EDGE_LOOP('',(#557));
#1092=EDGE_LOOP('',(#558));
#1093=FACE_BOUND('',#917,.T.);
#1094=FACE_BOUND('',#918,.T.);
#1095=FACE_BOUND('',#919,.T.);
#1096=FACE_BOUND('',#920,.T.);
#1097=FACE_BOUND('',#921,.T.);
#1098=FACE_BOUND('',#922,.T.);
#1099=FACE_BOUND('',#923,.T.);
#1100=FACE_BOUND('',#924,.T.);
#1101=FACE_BOUND('',#925,.T.);
#1102=FACE_BOUND('',#926,.T.);
#1103=FACE_BOUND('',#927,.T.);
#1104=FACE_BOUND('',#928,.T.);
#1105=FACE_BOUND('',#929,.T.);
#1106=FACE_BOUND('',#930,.T.);
#1107=FACE_BOUND('',#931,.T.);
#1108=FACE_BOUND('',#932,.T.);
#1109=FACE_BOUND('',#933,.T.);
#1110=FACE_BOUND('',#934,.T.);
#1111=FACE_BOUND('',#935,.T.);
#1112=FACE_BOUND('',#936,.T.);
#1113=FACE_BOUND('',#937,.T.);
#1114=FACE_BOUND('',#938,.T.);
#1115=FACE_BOUND('',#939,.T.);
#1116=FACE_BOUND('',#940,.T.);
#1117=FACE_BOUND('',#941,.T.);
#1118=FACE_BOUND('',#942,.T.);
#1119=FACE_BOUND('',#943,.T.);
#1120=FACE_BOUND('',#944,.T.);
#1121=FACE_BOUND('',#945,.T.);
#1122=FACE_BOUND('',#946,.T.);
#1123=FACE_BOUND('',#947,.T.);
#1124=FACE_BOUND('',#948,.T.);
#1125=FACE_BOUND('',#949,.T.);
#1126=FACE_BOUND('',#950,.T.);
#1127=FACE_BOUND('',#951,.T.);
#1128=FACE_BOUND('',#952,.T.);
#1129=FACE_BOUND('',#953,.T.);
#1130=FACE_BOUND('',#954,.T.);
#1131=FACE_BOUND('',#955,.T.);
#1132=FACE_BOUND('',#956,.T.);
#1133=FACE_BOUND('',#957,.T.);
#1134=FACE_BOUND('',#958,.T.);
#1135=FACE_BOUND('',#959,.T.);
#1136=FACE_BOUND('',#960,.T.);
#1137=FACE_BOUND('',#961,.T.);
#1138=FACE_BOUND('',#962,.T.);
#1139=FACE_BOUND('',#963,.T.);
#1140=FACE_BOUND('',#964,.T.);
#1141=FACE_BOUND('',#965,.T.);
#1142=FACE_BOUND('',#966,.T.);
#1143=FACE_BOUND('',#967,.T.);
#1144=FACE_BOUND('',#968,.T.);
#1145=FACE_BOUND('',#969,.T.);
#1146=FACE_BOUND('',#970,.T.);
#1147=FACE_BOUND('',#971,.T.);
#1148=FACE_BOUND('',#972,.T.);
#1149=FACE_BOUND('',#973,.T.);
#1150=FACE_BOUND('',#974,.T.);
#1151=FACE_BOUND('',#975,.T.);
#1152=FACE_BOUND('',#976,.T.);
#1153=FACE_BOUND('',#977,.T.);
#1154=FACE_BOUND('',#978,.T.);
#1155=FACE_BOUND('',#979,.T.);
#1156=FACE_BOUND('',#980,.T.);
#1157=FACE_BOUND('',#981,.T.);
#1158=FACE_BOUND('',#982,.T.);
#1159=FACE_BOUND('',#983,.T.);
#1160=FACE_BOUND('',#984,.T.);
#1161=FACE_BOUND('',#985,.T.);
#1162=FACE_BOUND('',#986,.T.);
#1163=FACE_BOUND('',#987,.T.);
#1164=FACE_BOUND('',#988,.T.);
#1165=FACE_BOUND('',#989,.T.);
#1166=FACE_BOUND('',#990,.T.);
#1167=FACE_BOUND('',#991,.T.);
#1168=FACE_BOUND('',#992,.T.);
#1169=FACE_BOUND('',#993,.T.);
#1170=FACE_BOUND('',#994,.T.);
#1171=FACE_BOUND('',#995,.T.);
#1172=FACE_BOUND('',#996,.T.);
#1173=FACE_BOUND('',#997,.T.);
#1174=FACE_BOUND('',#998,.T.);
#1175=FACE_BOUND('',#999,.T.);
#1176=FACE_BOUND('',#1000,.T.);
#1177=FACE_BOUND('',#1001,.T.);
#1178=FACE_BOUND('',#1002,.T.);
#1179=FACE_BOUND('',#1003,.T.);
#1180=FACE_BOUND('',#1004,.T.);
#1181=FACE_BOUND('',#1005,.T.);
#1182=FACE_BOUND('',#1006,.T.);
#1183=FACE_BOUND('',#1007,.T.);
#1184=FACE_BOUND('',#1008,.T.);
#1185=FACE_BOUND('',#1009,.T.);
#1186=FACE_BOUND('',#1010,.T.);
#1187=FACE_BOUND('',#1011,.T.);
#1188=FACE_BOUND('',#1012,.T.);
#1189=FACE_BOUND('',#1013,.T.);
#1190=FACE_BOUND('',#1014,.T.);
#1191=FACE_BOUND('',#1015,.T.);
#1192=FACE_BOUND('',#1016,.T.);
#1193=FACE_BOUND('',#1017,.T.);
#1194=FACE_BOUND('',#1018,.T.);
#1195=FACE_BOUND('',#1019,.T.);
#1196=FACE_BOUND('',#1020,.T.);
#1197=FACE_BOUND('',#1021,.T.);
#1198=FACE_BOUND('',#1022,.T.);
#1199=FACE_BOUND('',#1023,.T.);
#1200=FACE_BOUND('',#1024,.T.);
#1201=FACE_BOUND('',#1025,.T.);
#1202=FACE_BOUND('',#1026,.T.);
#1203=FACE_BOUND('',#1027,.T.);
#1204=FACE_BOUND('',#1028,.T.);
#1205=FACE_BOUND('',#1029,.T.);
#1206=FACE_BOUND('',#1030,.T.);
#1207=FACE_BOUND('',#1031,.T.);
#1208=FACE_BOUND('',#1032,.T.);
#1209=FACE_BOUND('',#1033,.T.);
#1210=FACE_BOUND('',#1034,.T.);
#1211=FACE_BOUND('',#1035,.T.);
#1212=FACE_BOUND('',#1036,.T.);
#1213=FACE_BOUND('',#1037,.T.);
#1214=FACE_BOUND('',#1038,.T.);
#1215=FACE_BOUND('',#1039,.T.);
#1216=FACE_BOUND('',#1040,.T.);
#1217=FACE_BOUND('',#1041,.T.);
#1218=FACE_BOUND('',#1042,.T.);
#1219=FACE_BOUND('',#1043,.T.);
#1220=FACE_BOUND('',#1044,.T.);
#1221=FACE_BOUND('',#1045,.T.);
#1222=FACE_BOUND('',#1046,.T.);
#1223=FACE_BOUND('',#1047,.T.);
#1224=FACE_BOUND('',#1048,.T.);
#1225=FACE_BOUND('',#1049,.T.);
#1226=FACE_BOUND('',#1050,.T.);
#1227=FACE_BOUND('',#1051,.T.);
#1228=FACE_BOUND('',#1052,.T.);
#1229=FACE_BOUND('',#1053,.T.);
#1230=FACE_BOUND('',#1054,.T.);
#1231=FACE_BOUND('',#1055,.T.);
#1232=FACE_BOUND('',#1056,.T.);
#1233=FACE_BOUND('',#1057,.T.);
#1234=FACE_BOUND('',#1058,.T.);
#1235=FACE_BOUND('',#1059,.T.);
#1236=FACE_BOUND('',#1060,.T.);
#1237=FACE_BOUND('',#1061,.T.);
#1238=FACE_BOUND('',#1062,.T.);
#1239=FACE_BOUND('',#1063,.T.);
#1240=FACE_BOUND('',#1064,.T.);
#1241=FACE_BOUND('',#1065,.T.);
#1242=FACE_BOUND('',#1066,.T.);
#1243=FACE_BOUND('',#1067,.T.);
#1244=FACE_BOUND('',#1068,.T.);
#1245=FACE_BOUND('',#1069,.T.);
#1246=FACE_BOUND('',#1070,.T.);
#1247=FACE_BOUND('',#1071,.T.);
#1248=FACE_BOUND('',#1072,.T.);
#1249=FACE_BOUND('',#1073,.T.);
#1250=FACE_BOUND('',#1074,.T.);
#1251=FACE_BOUND('',#1075,.T.);
#1252=FACE_BOUND('',#1076,.T.);
#1253=FACE_BOUND('',#1077,.T.);
#1254=FACE_BOUND('',#1078,.T.);
#1255=FACE_BOUND('',#1079,.T.);
#1256=FACE_BOUND('',#1080,.T.);
#1257=FACE_BOUND('',#1081,.T.);
#1258=FACE_BOUND('',#1082,.T.);
#1259=FACE_BOUND('',#1083,.T.);
#1260=FACE_BOUND('',#1084,.T.);
#1261=FACE_BOUND('',#1085,.T.);
#1262=FACE_BOUND('',#1086,.T.);
#1263=FACE_BOUND('',#1087,.T.);
#1264=FACE_BOUND('',#1088,.T.);
#1265=FACE_BOUND('',#1089,.T.);
#1266=FACE_BOUND('',#1090,.T.);
#1267=FACE_BOUND('',#1091,.T.);
#1268=FACE_BOUND('',#1092,.T.);
#1269=CYLINDRICAL_SURFACE('',#1405,1.5);
#1270=CYLINDRICAL_SURFACE('',#1446,3.);
#1271=CYLINDRICAL_SURFACE('',#1449,3.);
#1272=CYLINDRICAL_SURFACE('',#1452,3.);
#1273=CYLINDRICAL_SURFACE('',#1456,5.);
#1274=CYLINDRICAL_SURFACE('',#1459,5.);
#1275=CYLINDRICAL_SURFACE('',#1462,5.);
#1276=CYLINDRICAL_SURFACE('',#1465,3.);
#1277=CYLINDRICAL_SURFACE('',#1467,3.);
#1278=CYLINDRICAL_SURFACE('',#1469,3.);
#1279=CYLINDRICAL_SURFACE('',#1471,3.);
#1280=CYLINDRICAL_SURFACE('',#1473,3.);
#1281=CYLINDRICAL_SURFACE('',#1475,3.);
#1282=CYLINDRICAL_SURFACE('',#1477,3.);
#1283=CYLINDRICAL_SURFACE('',#1481,3.);
#1284=CYLINDRICAL_SURFACE('',#1483,3.);
#1285=CYLINDRICAL_SURFACE('',#1493,3.);
#1286=CYLINDRICAL_SURFACE('',#1495,3.);
#1287=CYLINDRICAL_SURFACE('',#1496,1.5);
#1288=CYLINDRICAL_SURFACE('',#1504,1.5);
#1289=CYLINDRICAL_SURFACE('',#1506,3.);
#1290=CYLINDRICAL_SURFACE('',#1520,1.5);
#1291=CYLINDRICAL_SURFACE('',#1522,5.);
#1292=CYLINDRICAL_SURFACE('',#1525,5.);
#1293=CYLINDRICAL_SURFACE('',#1528,5.);
#1294=CYLINDRICAL_SURFACE('',#1531,5.);
#1295=CYLINDRICAL_SURFACE('',#1534,5.);
#1296=CYLINDRICAL_SURFACE('',#1537,5.);
#1297=CYLINDRICAL_SURFACE('',#1540,5.);
#1298=CYLINDRICAL_SURFACE('',#1543,5.);
#1299=CYLINDRICAL_SURFACE('',#1546,5.);
#1300=CYLINDRICAL_SURFACE('',#1549,5.);
#1301=CYLINDRICAL_SURFACE('',#1552,2.5);
#1302=CYLINDRICAL_SURFACE('',#1555,2.5);
#1303=CYLINDRICAL_SURFACE('',#1558,2.5);
#1304=CYLINDRICAL_SURFACE('',#1561,2.5);
#1305=ADVANCED_FACE('',(#1093,#1094),#1269,.F.);
#1306=ADVANCED_FACE('',(#1095),#192,.T.);
#1307=ADVANCED_FACE('',(#1096,#1097,#1098,#1099,#1100,#1101,#1102,#1103,
#1104,#1105,#1106,#1107,#1108,#1109,#1110,#1111,#1112,#1113),#193,.F.);
#1308=ADVANCED_FACE('',(#1114),#194,.F.);
#1309=ADVANCED_FACE('',(#1115),#195,.F.);
#1310=ADVANCED_FACE('',(#1116,#1117,#1118,#1119,#1120,#1121,#1122,#1123,
#1124,#1125,#1126,#1127,#1128,#1129,#1130),#196,.T.);
#1311=ADVANCED_FACE('',(#1131),#197,.F.);
#1312=ADVANCED_FACE('',(#1132),#198,.F.);
#1313=ADVANCED_FACE('',(#1133,#1134),#1270,.F.);
#1314=ADVANCED_FACE('',(#1135,#1136),#1271,.F.);
#1315=ADVANCED_FACE('',(#1137,#1138),#1272,.F.);
#1316=ADVANCED_FACE('',(#1139,#1140,#1141,#1142),#199,.T.);
#1317=ADVANCED_FACE('',(#1143,#1144),#1273,.F.);
#1318=ADVANCED_FACE('',(#1145,#1146),#200,.F.);
#1319=ADVANCED_FACE('',(#1147,#1148),#1274,.F.);
#1320=ADVANCED_FACE('',(#1149,#1150),#201,.F.);
#1321=ADVANCED_FACE('',(#1151,#1152),#1275,.F.);
#1322=ADVANCED_FACE('',(#1153,#1154),#202,.F.);
#1323=ADVANCED_FACE('',(#1155,#1156),#1276,.F.);
#1324=ADVANCED_FACE('',(#1157,#1158),#1277,.F.);
#1325=ADVANCED_FACE('',(#1159,#1160),#1278,.F.);
#1326=ADVANCED_FACE('',(#1161,#1162),#1279,.F.);
#1327=ADVANCED_FACE('',(#1163,#1164),#1280,.F.);
#1328=ADVANCED_FACE('',(#1165,#1166),#1281,.F.);
#1329=ADVANCED_FACE('',(#1167,#1168),#1282,.F.);
#1330=ADVANCED_FACE('',(#1169),#203,.T.);
#1331=ADVANCED_FACE('',(#1170),#204,.T.);
#1332=ADVANCED_FACE('',(#1171,#1172),#1283,.F.);
#1333=ADVANCED_FACE('',(#1173,#1174),#1284,.F.);
#1334=ADVANCED_FACE('',(#1175),#205,.F.);
#1335=ADVANCED_FACE('',(#1176),#206,.F.);
#1336=ADVANCED_FACE('',(#1177),#207,.F.);
#1337=ADVANCED_FACE('',(#1178),#208,.F.);
#1338=ADVANCED_FACE('',(#1179,#1180),#209,.T.);
#1339=ADVANCED_FACE('',(#1181),#210,.F.);
#1340=ADVANCED_FACE('',(#1182),#211,.F.);
#1341=ADVANCED_FACE('',(#1183),#1285,.F.);
#1342=ADVANCED_FACE('',(#1184),#212,.T.);
#1343=ADVANCED_FACE('',(#1185),#1286,.F.);
#1344=ADVANCED_FACE('',(#1186,#1187),#1287,.F.);
#1345=ADVANCED_FACE('',(#1188),#213,.F.);
#1346=ADVANCED_FACE('',(#1189),#214,.F.);
#1347=ADVANCED_FACE('',(#1190),#215,.F.);
#1348=ADVANCED_FACE('',(#1191),#216,.F.);
#1349=ADVANCED_FACE('',(#1192,#1193),#217,.T.);
#1350=ADVANCED_FACE('',(#1194,#1195),#1288,.F.);
#1351=ADVANCED_FACE('',(#1196,#1197),#1289,.F.);
#1352=ADVANCED_FACE('',(#1198),#218,.F.);
#1353=ADVANCED_FACE('',(#1199),#219,.F.);
#1354=ADVANCED_FACE('',(#1200),#220,.F.);
#1355=ADVANCED_FACE('',(#1201),#221,.F.);
#1356=ADVANCED_FACE('',(#1202),#222,.F.);
#1357=ADVANCED_FACE('',(#1203,#1204),#223,.T.);
#1358=ADVANCED_FACE('',(#1205),#224,.F.);
#1359=ADVANCED_FACE('',(#1206),#225,.F.);
#1360=ADVANCED_FACE('',(#1207),#226,.F.);
#1361=ADVANCED_FACE('',(#1208),#227,.F.);
#1362=ADVANCED_FACE('',(#1209,#1210),#228,.T.);
#1363=ADVANCED_FACE('',(#1211,#1212),#1290,.F.);
#1364=ADVANCED_FACE('',(#1213,#1214),#1291,.F.);
#1365=ADVANCED_FACE('',(#1215,#1216),#229,.F.);
#1366=ADVANCED_FACE('',(#1217,#1218),#1292,.F.);
#1367=ADVANCED_FACE('',(#1219,#1220),#230,.F.);
#1368=ADVANCED_FACE('',(#1221,#1222),#1293,.F.);
#1369=ADVANCED_FACE('',(#1223,#1224),#231,.F.);
#1370=ADVANCED_FACE('',(#1225,#1226),#1294,.F.);
#1371=ADVANCED_FACE('',(#1227,#1228),#232,.F.);
#1372=ADVANCED_FACE('',(#1229,#1230),#1295,.F.);
#1373=ADVANCED_FACE('',(#1231,#1232),#233,.F.);
#1374=ADVANCED_FACE('',(#1233,#1234),#1296,.F.);
#1375=ADVANCED_FACE('',(#1235,#1236),#234,.F.);
#1376=ADVANCED_FACE('',(#1237,#1238),#1297,.F.);
#1377=ADVANCED_FACE('',(#1239,#1240),#235,.F.);
#1378=ADVANCED_FACE('',(#1241,#1242),#1298,.F.);
#1379=ADVANCED_FACE('',(#1243,#1244),#236,.F.);
#1380=ADVANCED_FACE('',(#1245,#1246),#1299,.F.);
#1381=ADVANCED_FACE('',(#1247,#1248),#237,.F.);
#1382=ADVANCED_FACE('',(#1249,#1250),#1300,.F.);
#1383=ADVANCED_FACE('',(#1251,#1252),#238,.F.);
#1384=ADVANCED_FACE('',(#1253,#1254),#1301,.F.);
#1385=ADVANCED_FACE('',(#1255,#1256),#239,.F.);
#1386=ADVANCED_FACE('',(#1257,#1258),#1302,.F.);
#1387=ADVANCED_FACE('',(#1259,#1260),#240,.F.);
#1388=ADVANCED_FACE('',(#1261,#1262),#1303,.F.);
#1389=ADVANCED_FACE('',(#1263,#1264),#241,.F.);
#1390=ADVANCED_FACE('',(#1265,#1266),#1304,.F.);
#1391=ADVANCED_FACE('',(#1267,#1268),#242,.F.);
#1392=CLOSED_SHELL('',(#1305,#1306,#1307,#1308,#1309,#1310,#1311,#1312,
#1313,#1314,#1315,#1316,#1317,#1318,#1319,#1320,#1321,#1322,#1323,#1324,
#1325,#1326,#1327,#1328,#1329,#1330,#1331,#1332,#1333,#1334,#1335,#1336,
#1337,#1338,#1339,#1340,#1341,#1342,#1343,#1344,#1345,#1346,#1347,#1348,
#1349,#1350,#1351,#1352,#1353,#1354,#1355,#1356,#1357,#1358,#1359,#1360,
#1361,#1362,#1363,#1364,#1365,#1366,#1367,#1368,#1369,#1370,#1371,#1372,
#1373,#1374,#1375,#1376,#1377,#1378,#1379,#1380,#1381,#1382,#1383,#1384,
#1385,#1386,#1387,#1388,#1389,#1390,#1391));
#1393=STYLED_ITEM('',(#1394),#1401);
#1394=PRESENTATION_STYLE_ASSIGNMENT((#1395));
#1395=SURFACE_STYLE_USAGE(.BOTH.,#1396);
#1396=SURFACE_SIDE_STYLE('',(#1397));
#1397=SURFACE_STYLE_FILL_AREA(#1398);
#1398=FILL_AREA_STYLE('',(#1399));
#1399=FILL_AREA_STYLE_COLOUR('',#1400);
#1400=COLOUR_RGB('',0.506983280181885,0.531564235687256,0.550000011920929);
#1401=MANIFOLD_SOLID_BREP('',#1392);
#1402=SHAPE_DEFINITION_REPRESENTATION(#2350,#1403);
#1403=SHAPE_REPRESENTATION('26_FDML_stimfix_stimulus_board',(#1404),#2345);
#1404=AXIS2_PLACEMENT_3D('',#1970,#1564,#1565);
#1405=AXIS2_PLACEMENT_3D('',#1971,#1566,#1567);
#1406=AXIS2_PLACEMENT_3D('',#1972,#1568,#1569);
#1407=AXIS2_PLACEMENT_3D('',#1974,#1570,#1571);
#1408=AXIS2_PLACEMENT_3D('',#1976,#1572,#1573);
#1409=AXIS2_PLACEMENT_3D('',#1989,#1580,#1581);
#1410=AXIS2_PLACEMENT_3D('',#1990,#1582,#1583);
#1411=AXIS2_PLACEMENT_3D('',#1992,#1584,#1585);
#1412=AXIS2_PLACEMENT_3D('',#1994,#1586,#1587);
#1413=AXIS2_PLACEMENT_3D('',#1996,#1588,#1589);
#1414=AXIS2_PLACEMENT_3D('',#2008,#1595,#1596);
#1415=AXIS2_PLACEMENT_3D('',#2012,#1598,#1599);
#1416=AXIS2_PLACEMENT_3D('',#2019,#1603,#1604);
#1417=AXIS2_PLACEMENT_3D('',#2021,#1605,#1606);
#1418=AXIS2_PLACEMENT_3D('',#2023,#1607,#1608);
#1419=AXIS2_PLACEMENT_3D('',#2025,#1609,#1610);
#1420=AXIS2_PLACEMENT_3D('',#2027,#1611,#1612);
#1421=AXIS2_PLACEMENT_3D('',#2029,#1613,#1614);
#1422=AXIS2_PLACEMENT_3D('',#2031,#1615,#1616);
#1423=AXIS2_PLACEMENT_3D('',#2033,#1617,#1618);
#1424=AXIS2_PLACEMENT_3D('',#2035,#1619,#1620);
#1425=AXIS2_PLACEMENT_3D('',#2037,#1621,#1622);
#1426=AXIS2_PLACEMENT_3D('',#2039,#1623,#1624);
#1427=AXIS2_PLACEMENT_3D('',#2041,#1625,#1626);
#1428=AXIS2_PLACEMENT_3D('',#2043,#1627,#1628);
#1429=AXIS2_PLACEMENT_3D('',#2045,#1629,#1630);
#1430=AXIS2_PLACEMENT_3D('',#2051,#1634,#1635);
#1431=AXIS2_PLACEMENT_3D('',#2055,#1638,#1639);
#1432=AXIS2_PLACEMENT_3D('',#2056,#1640,#1641);
#1433=AXIS2_PLACEMENT_3D('',#2058,#1642,#1643);
#1434=AXIS2_PLACEMENT_3D('',#2060,#1644,#1645);
#1435=AXIS2_PLACEMENT_3D('',#2062,#1646,#1647);
#1436=AXIS2_PLACEMENT_3D('',#2064,#1648,#1649);
#1437=AXIS2_PLACEMENT_3D('',#2066,#1650,#1651);
#1438=AXIS2_PLACEMENT_3D('',#2068,#1652,#1653);
#1439=AXIS2_PLACEMENT_3D('',#2070,#1654,#1655);
#1440=AXIS2_PLACEMENT_3D('',#2072,#1656,#1657);
#1441=AXIS2_PLACEMENT_3D('',#2074,#1658,#1659);
#1442=AXIS2_PLACEMENT_3D('',#2091,#1668,#1669);
#1443=AXIS2_PLACEMENT_3D('',#2095,#1671,#1672);
#1444=AXIS2_PLACEMENT_3D('',#2126,#1688,#1689);
#1445=AXIS2_PLACEMENT_3D('',#2131,#1693,#1694);
#1446=AXIS2_PLACEMENT_3D('',#2133,#1696,#1697);
#1447=AXIS2_PLACEMENT_3D('',#2134,#1698,#1699);
#1448=AXIS2_PLACEMENT_3D('',#2136,#1700,#1701);
#1449=AXIS2_PLACEMENT_3D('',#2138,#1702,#1703);
#1450=AXIS2_PLACEMENT_3D('',#2139,#1704,#1705);
#1451=AXIS2_PLACEMENT_3D('',#2141,#1706,#1707);
#1452=AXIS2_PLACEMENT_3D('',#2143,#1708,#1709);
#1453=AXIS2_PLACEMENT_3D('',#2144,#1710,#1711);
#1454=AXIS2_PLACEMENT_3D('',#2146,#1712,#1713);
#1455=AXIS2_PLACEMENT_3D('',#2148,#1714,#1715);
#1456=AXIS2_PLACEMENT_3D('',#2149,#1716,#1717);
#1457=AXIS2_PLACEMENT_3D('',#2150,#1718,#1719);
#1458=AXIS2_PLACEMENT_3D('',#2152,#1720,#1721);
#1459=AXIS2_PLACEMENT_3D('',#2153,#1722,#1723);
#1460=AXIS2_PLACEMENT_3D('',#2154,#1724,#1725);
#1461=AXIS2_PLACEMENT_3D('',#2156,#1726,#1727);
#1462=AXIS2_PLACEMENT_3D('',#2157,#1728,#1729);
#1463=AXIS2_PLACEMENT_3D('',#2158,#1730,#1731);
#1464=AXIS2_PLACEMENT_3D('',#2160,#1732,#1733);
#1465=AXIS2_PLACEMENT_3D('',#2161,#1734,#1735);
#1466=AXIS2_PLACEMENT_3D('',#2162,#1736,#1737);
#1467=AXIS2_PLACEMENT_3D('',#2164,#1738,#1739);
#1468=AXIS2_PLACEMENT_3D('',#2165,#1740,#1741);
#1469=AXIS2_PLACEMENT_3D('',#2167,#1742,#1743);
#1470=AXIS2_PLACEMENT_3D('',#2168,#1744,#1745);
#1471=AXIS2_PLACEMENT_3D('',#2170,#1746,#1747);
#1472=AXIS2_PLACEMENT_3D('',#2171,#1748,#1749);
#1473=AXIS2_PLACEMENT_3D('',#2173,#1750,#1751);
#1474=AXIS2_PLACEMENT_3D('',#2174,#1752,#1753);
#1475=AXIS2_PLACEMENT_3D('',#2176,#1754,#1755);
#1476=AXIS2_PLACEMENT_3D('',#2177,#1756,#1757);
#1477=AXIS2_PLACEMENT_3D('',#2179,#1758,#1759);
#1478=AXIS2_PLACEMENT_3D('',#2180,#1760,#1761);
#1479=AXIS2_PLACEMENT_3D('',#2182,#1762,#1763);
#1480=AXIS2_PLACEMENT_3D('',#2184,#1765,#1766);
#1481=AXIS2_PLACEMENT_3D('',#2186,#1768,#1769);
#1482=AXIS2_PLACEMENT_3D('',#2187,#1770,#1771);
#1483=AXIS2_PLACEMENT_3D('',#2189,#1772,#1773);
#1484=AXIS2_PLACEMENT_3D('',#2190,#1774,#1775);
#1485=AXIS2_PLACEMENT_3D('',#2192,#1776,#1777);
#1486=AXIS2_PLACEMENT_3D('',#2198,#1781,#1782);
#1487=AXIS2_PLACEMENT_3D('',#2202,#1785,#1786);
#1488=AXIS2_PLACEMENT_3D('',#2206,#1789,#1790);
#1489=AXIS2_PLACEMENT_3D('',#2208,#1792,#1793);
#1490=AXIS2_PLACEMENT_3D('',#2209,#1794,#1795);
#1491=AXIS2_PLACEMENT_3D('',#2211,#1796,#1797);
#1492=AXIS2_PLACEMENT_3D('',#2214,#1800,#1801);
#1493=AXIS2_PLACEMENT_3D('',#2216,#1803,#1804);
#1494=AXIS2_PLACEMENT_3D('',#2217,#1805,#1806);
#1495=AXIS2_PLACEMENT_3D('',#2219,#1808,#1809);
#1496=AXIS2_PLACEMENT_3D('',#2220,#1810,#1811);
#1497=AXIS2_PLACEMENT_3D('',#2221,#1812,#1813);
#1498=AXIS2_PLACEMENT_3D('',#2223,#1814,#1815);
#1499=AXIS2_PLACEMENT_3D('',#2229,#1819,#1820);
#1500=AXIS2_PLACEMENT_3D('',#2233,#1823,#1824);
#1501=AXIS2_PLACEMENT_3D('',#2237,#1827,#1828);
#1502=AXIS2_PLACEMENT_3D('',#2239,#1830,#1831);
#1503=AXIS2_PLACEMENT_3D('',#2240,#1832,#1833);
#1504=AXIS2_PLACEMENT_3D('',#2242,#1834,#1835);
#1505=AXIS2_PLACEMENT_3D('',#2243,#1836,#1837);
#1506=AXIS2_PLACEMENT_3D('',#2245,#1838,#1839);
#1507=AXIS2_PLACEMENT_3D('',#2246,#1840,#1841);
#1508=AXIS2_PLACEMENT_3D('',#2248,#1842,#1843);
#1509=AXIS2_PLACEMENT_3D('',#2249,#1844,#1845);
#1510=AXIS2_PLACEMENT_3D('',#2255,#1849,#1850);
#1511=AXIS2_PLACEMENT_3D('',#2259,#1853,#1854);
#1512=AXIS2_PLACEMENT_3D('',#2263,#1857,#1858);
#1513=AXIS2_PLACEMENT_3D('',#2265,#1860,#1861);
#1514=AXIS2_PLACEMENT_3D('',#2266,#1862,#1863);
#1515=AXIS2_PLACEMENT_3D('',#2272,#1867,#1868);
#1516=AXIS2_PLACEMENT_3D('',#2276,#1871,#1872);
#1517=AXIS2_PLACEMENT_3D('',#2280,#1875,#1876);
#1518=AXIS2_PLACEMENT_3D('',#2282,#1878,#1879);
#1519=AXIS2_PLACEMENT_3D('',#2283,#1880,#1881);
#1520=AXIS2_PLACEMENT_3D('',#2285,#1882,#1883);
#1521=AXIS2_PLACEMENT_3D('',#2286,#1884,#1885);
#1522=AXIS2_PLACEMENT_3D('',#2288,#1886,#1887);
#1523=AXIS2_PLACEMENT_3D('',#2289,#1888,#1889);
#1524=AXIS2_PLACEMENT_3D('',#2291,#1890,#1891);
#1525=AXIS2_PLACEMENT_3D('',#2292,#1892,#1893);
#1526=AXIS2_PLACEMENT_3D('',#2293,#1894,#1895);
#1527=AXIS2_PLACEMENT_3D('',#2295,#1896,#1897);
#1528=AXIS2_PLACEMENT_3D('',#2296,#1898,#1899);
#1529=AXIS2_PLACEMENT_3D('',#2297,#1900,#1901);
#1530=AXIS2_PLACEMENT_3D('',#2299,#1902,#1903);
#1531=AXIS2_PLACEMENT_3D('',#2300,#1904,#1905);
#1532=AXIS2_PLACEMENT_3D('',#2301,#1906,#1907);
#1533=AXIS2_PLACEMENT_3D('',#2303,#1908,#1909);
#1534=AXIS2_PLACEMENT_3D('',#2304,#1910,#1911);
#1535=AXIS2_PLACEMENT_3D('',#2305,#1912,#1913);
#1536=AXIS2_PLACEMENT_3D('',#2307,#1914,#1915);
#1537=AXIS2_PLACEMENT_3D('',#2308,#1916,#1917);
#1538=AXIS2_PLACEMENT_3D('',#2309,#1918,#1919);
#1539=AXIS2_PLACEMENT_3D('',#2311,#1920,#1921);
#1540=AXIS2_PLACEMENT_3D('',#2312,#1922,#1923);
#1541=AXIS2_PLACEMENT_3D('',#2313,#1924,#1925);
#1542=AXIS2_PLACEMENT_3D('',#2315,#1926,#1927);
#1543=AXIS2_PLACEMENT_3D('',#2316,#1928,#1929);
#1544=AXIS2_PLACEMENT_3D('',#2317,#1930,#1931);
#1545=AXIS2_PLACEMENT_3D('',#2319,#1932,#1933);
#1546=AXIS2_PLACEMENT_3D('',#2320,#1934,#1935);
#1547=AXIS2_PLACEMENT_3D('',#2321,#1936,#1937);
#1548=AXIS2_PLACEMENT_3D('',#2323,#1938,#1939);
#1549=AXIS2_PLACEMENT_3D('',#2324,#1940,#1941);
#1550=AXIS2_PLACEMENT_3D('',#2325,#1942,#1943);
#1551=AXIS2_PLACEMENT_3D('',#2327,#1944,#1945);
#1552=AXIS2_PLACEMENT_3D('',#2328,#1946,#1947);
#1553=AXIS2_PLACEMENT_3D('',#2329,#1948,#1949);
#1554=AXIS2_PLACEMENT_3D('',#2331,#1950,#1951);
#1555=AXIS2_PLACEMENT_3D('',#2332,#1952,#1953);
#1556=AXIS2_PLACEMENT_3D('',#2333,#1954,#1955);
#1557=AXIS2_PLACEMENT_3D('',#2335,#1956,#1957);
#1558=AXIS2_PLACEMENT_3D('',#2336,#1958,#1959);
#1559=AXIS2_PLACEMENT_3D('',#2337,#1960,#1961);
#1560=AXIS2_PLACEMENT_3D('',#2339,#1962,#1963);
#1561=AXIS2_PLACEMENT_3D('',#2340,#1964,#1965);
#1562=AXIS2_PLACEMENT_3D('',#2341,#1966,#1967);
#1563=AXIS2_PLACEMENT_3D('',#2343,#1968,#1969);
#1564=DIRECTION('',(0.,0.,1.));
#1565=DIRECTION('',(1.,0.,0.));
#1566=DIRECTION('',(0.,0.,1.));
#1567=DIRECTION('',(1.,0.,0.));
#1568=DIRECTION('',(0.,0.,1.));
#1569=DIRECTION('',(1.,0.,0.));
#1570=DIRECTION('',(0.,0.,1.));
#1571=DIRECTION('',(1.,0.,0.));
#1572=DIRECTION('',(-1.,0.,0.));
#1573=DIRECTION('',(0.,0.,1.));
#1574=DIRECTION('',(0.,-1.,0.));
#1575=DIRECTION('',(0.,0.,1.));
#1576=DIRECTION('',(0.,1.,0.));
#1577=DIRECTION('',(0.,0.,-1.));
#1578=DIRECTION('',(-4.10828531906881E-16,1.,0.));
#1579=DIRECTION('',(0.,0.,-1.));
#1580=DIRECTION('',(0.,0.,1.));
#1581=DIRECTION('',(1.,0.,0.));
#1582=DIRECTION('',(0.,0.,1.));
#1583=DIRECTION('',(0.,-1.,0.));
#1584=DIRECTION('',(0.,0.,1.));
#1585=DIRECTION('',(0.,-1.,0.));
#1586=DIRECTION('',(0.,0.,1.));
#1587=DIRECTION('',(0.,-1.,0.));
#1588=DIRECTION('',(0.,0.,1.));
#1589=DIRECTION('',(0.,-1.,0.));
#1590=DIRECTION('',(0.,1.,0.));
#1591=DIRECTION('',(0.632596517037279,0.7744815340809,0.));
#1592=DIRECTION('',(-1.,0.,0.));
#1593=DIRECTION('',(0.,1.,0.));
#1594=DIRECTION('',(-1.,-1.14126544472158E-16,0.));
#1595=DIRECTION('',(0.,0.,1.));
#1596=DIRECTION('',(1.,0.,0.));
#1597=DIRECTION('',(1.21430643318377E-16,-1.,0.));
#1598=DIRECTION('',(0.,0.,1.));
#1599=DIRECTION('',(1.,0.,0.));
#1600=DIRECTION('',(-1.,1.82602471155453E-16,0.));
#1601=DIRECTION('',(0.,1.,0.));
#1602=DIRECTION('',(1.,0.,0.));
#1603=DIRECTION('',(0.,0.,1.));
#1604=DIRECTION('',(1.,0.,0.));
#1605=DIRECTION('',(0.,0.,1.));
#1606=DIRECTION('',(1.,0.,0.));
#1607=DIRECTION('',(0.,0.,1.));
#1608=DIRECTION('',(1.,0.,0.));
#1609=DIRECTION('',(0.,0.,1.));
#1610=DIRECTION('',(1.,0.,0.));
#1611=DIRECTION('',(0.,0.,1.));
#1612=DIRECTION('',(1.,0.,0.));
#1613=DIRECTION('',(0.,0.,1.));
#1614=DIRECTION('',(1.,0.,0.));
#1615=DIRECTION('',(0.,0.,1.));
#1616=DIRECTION('',(1.,0.,0.));
#1617=DIRECTION('',(0.,0.,1.));
#1618=DIRECTION('',(1.,0.,0.));
#1619=DIRECTION('',(0.,0.,1.));
#1620=DIRECTION('',(1.,0.,0.));
#1621=DIRECTION('',(0.,0.,1.));
#1622=DIRECTION('',(1.,0.,0.));
#1623=DIRECTION('',(0.,0.,1.));
#1624=DIRECTION('',(1.,0.,0.));
#1625=DIRECTION('',(0.,0.,1.));
#1626=DIRECTION('',(1.,0.,0.));
#1627=DIRECTION('',(0.,0.,1.));
#1628=DIRECTION('',(1.,0.,0.));
#1629=DIRECTION('',(1.,0.,0.));
#1630=DIRECTION('',(0.,0.,-1.));
#1631=DIRECTION('',(0.,0.,-1.));
#1632=DIRECTION('',(0.,0.,-1.));
#1633=DIRECTION('',(0.,-1.,0.));
#1634=DIRECTION('',(0.,-1.,0.));
#1635=DIRECTION('',(0.,0.,-1.));
#1636=DIRECTION('',(-1.,0.,0.));
#1637=DIRECTION('',(0.,0.,-1.));
#1638=DIRECTION('',(0.,0.,1.));
#1639=DIRECTION('',(1.,0.,0.));
#1640=DIRECTION('',(0.,0.,-1.));
#1641=DIRECTION('',(-1.,0.,0.));
#1642=DIRECTION('',(0.,0.,-1.));
#1643=DIRECTION('',(-1.,0.,0.));
#1644=DIRECTION('',(0.,0.,-1.));
#1645=DIRECTION('',(-1.,0.,0.));
#1646=DIRECTION('',(0.,0.,-1.));
#1647=DIRECTION('',(-1.,0.,0.));
#1648=DIRECTION('',(0.,0.,-1.));
#1649=DIRECTION('',(-1.,0.,0.));
#1650=DIRECTION('',(0.,0.,-1.));
#1651=DIRECTION('',(-1.,0.,0.));
#1652=DIRECTION('',(0.,0.,-1.));
#1653=DIRECTION('',(-1.,0.,0.));
#1654=DIRECTION('',(0.,0.,-1.));
#1655=DIRECTION('',(-1.,0.,0.));
#1656=DIRECTION('',(0.,0.,-1.));
#1657=DIRECTION('',(-1.,0.,0.));
#1658=DIRECTION('',(0.,0.,-1.));
#1659=DIRECTION('',(-1.,0.,0.));
#1660=DIRECTION('',(-1.,0.,0.));
#1661=DIRECTION('',(0.,1.,0.));
#1662=DIRECTION('',(1.,0.,0.));
#1663=DIRECTION('',(0.,-1.,0.));
#1664=DIRECTION('',(0.632596517037279,0.774481534080899,0.));
#1665=DIRECTION('',(-1.,0.,0.));
#1666=DIRECTION('',(0.,-1.,0.));
#1667=DIRECTION('',(1.,-1.82602471155453E-16,1.38777878078145E-16));
#1668=DIRECTION('',(0.,0.,1.));
#1669=DIRECTION('',(1.,0.,0.));
#1670=DIRECTION('',(1.21430643318376E-16,-1.,0.));
#1671=DIRECTION('',(0.,0.,1.));
#1672=DIRECTION('',(1.,0.,0.));
#1673=DIRECTION('',(1.,1.14126544472158E-16,0.));
#1674=DIRECTION('',(0.,1.,0.));
#1675=DIRECTION('',(1.,0.,0.));
#1676=DIRECTION('',(0.,1.,0.));
#1677=DIRECTION('',(1.,0.,0.));
#1678=DIRECTION('',(0.,-1.,0.));
#1679=DIRECTION('',(-1.,0.,0.));
#1680=DIRECTION('',(1.,0.,0.));
#1681=DIRECTION('',(0.,-1.,0.));
#1682=DIRECTION('',(-1.,0.,0.));
#1683=DIRECTION('',(0.,1.,0.));
#1684=DIRECTION('',(1.,0.,0.));
#1685=DIRECTION('',(0.,-1.,0.));
#1686=DIRECTION('',(-1.,0.,0.));
#1687=DIRECTION('',(0.,1.,0.));
#1688=DIRECTION('',(-1.,0.,0.));
#1689=DIRECTION('',(0.,0.,1.));
#1690=DIRECTION('',(0.,0.,-1.));
#1691=DIRECTION('',(0.,1.,0.));
#1692=DIRECTION('',(0.,0.,1.));
#1693=DIRECTION('',(0.,-1.,0.));
#1694=DIRECTION('',(0.,0.,-1.));
#1695=DIRECTION('',(1.,0.,0.));
#1696=DIRECTION('',(0.,0.,1.));
#1697=DIRECTION('',(1.,0.,0.));
#1698=DIRECTION('',(0.,0.,1.));
#1699=DIRECTION('',(1.,0.,0.));
#1700=DIRECTION('',(0.,0.,-1.));
#1701=DIRECTION('',(-1.,0.,0.));
#1702=DIRECTION('',(0.,0.,1.));
#1703=DIRECTION('',(1.,0.,0.));
#1704=DIRECTION('',(0.,0.,1.));
#1705=DIRECTION('',(1.,0.,0.));
#1706=DIRECTION('',(0.,0.,-1.));
#1707=DIRECTION('',(-1.,0.,0.));
#1708=DIRECTION('',(0.,0.,1.));
#1709=DIRECTION('',(1.,0.,0.));
#1710=DIRECTION('',(0.,0.,1.));
#1711=DIRECTION('',(1.,0.,0.));
#1712=DIRECTION('',(0.,0.,-1.));
#1713=DIRECTION('',(-1.,0.,0.));
#1714=DIRECTION('',(0.,0.,1.));
#1715=DIRECTION('',(1.,0.,0.));
#1716=DIRECTION('',(0.,0.,-1.));
#1717=DIRECTION('',(-1.,0.,0.));
#1718=DIRECTION('',(0.,0.,1.));
#1719=DIRECTION('',(1.,0.,0.));
#1720=DIRECTION('',(0.,0.,1.));
#1721=DIRECTION('',(1.,0.,0.));
#1722=DIRECTION('',(0.,0.,-1.));
#1723=DIRECTION('',(-1.,0.,0.));
#1724=DIRECTION('',(0.,0.,1.));
#1725=DIRECTION('',(1.,0.,0.));
#1726=DIRECTION('',(0.,0.,1.));
#1727=DIRECTION('',(1.,0.,0.));
#1728=DIRECTION('',(0.,0.,-1.));
#1729=DIRECTION('',(-1.,0.,0.));
#1730=DIRECTION('',(0.,0.,1.));
#1731=DIRECTION('',(1.,0.,0.));
#1732=DIRECTION('',(0.,0.,1.));
#1733=DIRECTION('',(1.,0.,0.));
#1734=DIRECTION('',(0.,0.,1.));
#1735=DIRECTION('',(1.,0.,0.));
#1736=DIRECTION('',(0.,0.,-1.));
#1737=DIRECTION('',(-1.,0.,0.));
#1738=DIRECTION('',(0.,0.,1.));
#1739=DIRECTION('',(1.,0.,0.));
#1740=DIRECTION('',(0.,0.,-1.));
#1741=DIRECTION('',(-1.,0.,0.));
#1742=DIRECTION('',(0.,0.,1.));
#1743=DIRECTION('',(1.,0.,0.));
#1744=DIRECTION('',(0.,0.,-1.));
#1745=DIRECTION('',(-1.,0.,0.));
#1746=DIRECTION('',(0.,0.,1.));
#1747=DIRECTION('',(1.,0.,0.));
#1748=DIRECTION('',(0.,0.,-1.));
#1749=DIRECTION('',(-1.,0.,0.));
#1750=DIRECTION('',(0.,0.,1.));
#1751=DIRECTION('',(1.,0.,0.));
#1752=DIRECTION('',(0.,0.,-1.));
#1753=DIRECTION('',(-1.,0.,0.));
#1754=DIRECTION('',(0.,0.,1.));
#1755=DIRECTION('',(1.,0.,0.));
#1756=DIRECTION('',(0.,0.,-1.));
#1757=DIRECTION('',(-1.,0.,0.));
#1758=DIRECTION('',(0.,0.,1.));
#1759=DIRECTION('',(1.,0.,0.));
#1760=DIRECTION('',(0.,0.,-1.));
#1761=DIRECTION('',(-1.,0.,0.));
#1762=DIRECTION('',(0.,-1.,0.));
#1763=DIRECTION('',(0.,0.,-1.));
#1764=DIRECTION('',(1.82123199577617E-16,0.,-1.));
#1765=DIRECTION('',(1.,0.,0.));
#1766=DIRECTION('',(0.,0.,-1.));
#1767=DIRECTION('',(0.,0.,-1.));
#1768=DIRECTION('',(0.,0.,1.));
#1769=DIRECTION('',(1.,0.,0.));
#1770=DIRECTION('',(0.,0.,-1.));
#1771=DIRECTION('',(-1.,0.,0.));
#1772=DIRECTION('',(0.,0.,1.));
#1773=DIRECTION('',(1.,0.,0.));
#1774=DIRECTION('',(0.,0.,-1.));
#1775=DIRECTION('',(-1.,0.,0.));
#1776=DIRECTION('',(0.,-1.,0.));
#1777=DIRECTION('',(0.,0.,-1.));
#1778=DIRECTION('',(0.,0.,1.));
#1779=DIRECTION('',(1.,0.,0.));
#1780=DIRECTION('',(0.,0.,1.));
#1781=DIRECTION('',(1.,0.,0.));
#1782=DIRECTION('',(0.,0.,-1.));
#1783=DIRECTION('',(0.,0.,1.));
#1784=DIRECTION('',(0.,1.,0.));
#1785=DIRECTION('',(0.,1.,0.));
#1786=DIRECTION('',(0.,0.,1.));
#1787=DIRECTION('',(0.,0.,1.));
#1788=DIRECTION('',(-1.,0.,0.));
#1789=DIRECTION('',(-1.,0.,0.));
#1790=DIRECTION('',(0.,0.,1.));
#1791=DIRECTION('',(0.,-1.,0.));
#1792=DIRECTION('',(0.,0.,1.));
#1793=DIRECTION('',(1.,0.,0.));
#1794=DIRECTION('',(0.,0.,1.));
#1795=DIRECTION('',(1.,0.,0.));
#1796=DIRECTION('',(-1.,-1.21430643318376E-16,0.));
#1797=DIRECTION('',(1.21430643318377E-16,-1.,0.));
#1798=DIRECTION('',(0.,0.,1.));
#1799=DIRECTION('',(0.,0.,-1.));
#1800=DIRECTION('',(-1.14126544472158E-16,1.,0.));
#1801=DIRECTION('',(-1.,-1.14126544472158E-16,0.));
#1802=DIRECTION('',(0.,0.,-1.));
#1803=DIRECTION('',(0.,0.,1.));
#1804=DIRECTION('',(1.,0.,0.));
#1805=DIRECTION('',(1.82602471155453E-16,1.,0.));
#1806=DIRECTION('',(-1.,1.82602471155453E-16,0.));
#1807=DIRECTION('',(0.,0.,1.));
#1808=DIRECTION('',(0.,0.,1.));
#1809=DIRECTION('',(1.,0.,0.));
#1810=DIRECTION('',(0.,0.,1.));
#1811=DIRECTION('',(1.,0.,0.));
#1812=DIRECTION('',(0.,0.,1.));
#1813=DIRECTION('',(1.,0.,0.));
#1814=DIRECTION('',(1.,0.,0.));
#1815=DIRECTION('',(0.,0.,-1.));
#1816=DIRECTION('',(0.,0.,1.));
#1817=DIRECTION('',(0.,1.,0.));
#1818=DIRECTION('',(0.,0.,1.));
#1819=DIRECTION('',(0.,1.,0.));
#1820=DIRECTION('',(0.,0.,1.));
#1821=DIRECTION('',(0.,0.,1.));
#1822=DIRECTION('',(-1.,0.,0.));
#1823=DIRECTION('',(-1.,0.,0.));
#1824=DIRECTION('',(0.,0.,1.));
#1825=DIRECTION('',(0.,0.,1.));
#1826=DIRECTION('',(0.,-1.,0.));
#1827=DIRECTION('',(0.,-1.,0.));
#1828=DIRECTION('',(0.,0.,-1.));
#1829=DIRECTION('',(1.,0.,0.));
#1830=DIRECTION('',(0.,0.,1.));
#1831=DIRECTION('',(1.,0.,0.));
#1832=DIRECTION('',(0.,0.,1.));
#1833=DIRECTION('',(1.,0.,0.));
#1834=DIRECTION('',(0.,0.,1.));
#1835=DIRECTION('',(1.,0.,0.));
#1836=DIRECTION('',(0.,0.,1.));
#1837=DIRECTION('',(1.,0.,0.));
#1838=DIRECTION('',(0.,0.,1.));
#1839=DIRECTION('',(1.,0.,0.));
#1840=DIRECTION('',(0.,0.,-1.));
#1841=DIRECTION('',(-1.,0.,0.));
#1842=DIRECTION('',(0.774481534080899,-0.632596517037279,0.));
#1843=DIRECTION('',(0.632596517037279,0.774481534080899,0.));
#1844=DIRECTION('',(0.,-1.,0.));
#1845=DIRECTION('',(0.,0.,-1.));
#1846=DIRECTION('',(0.,0.,1.));
#1847=DIRECTION('',(1.,0.,0.));
#1848=DIRECTION('',(0.,0.,1.));
#1849=DIRECTION('',(1.,0.,0.));
#1850=DIRECTION('',(0.,0.,-1.));
#1851=DIRECTION('',(0.,0.,1.));
#1852=DIRECTION('',(0.,1.,0.));
#1853=DIRECTION('',(0.,1.,0.));
#1854=DIRECTION('',(0.,0.,1.));
#1855=DIRECTION('',(0.,0.,1.));
#1856=DIRECTION('',(-1.,0.,0.));
#1857=DIRECTION('',(-1.,0.,0.));
#1858=DIRECTION('',(0.,0.,1.));
#1859=DIRECTION('',(0.,-1.,0.));
#1860=DIRECTION('',(0.,0.,1.));
#1861=DIRECTION('',(1.,0.,0.));
#1862=DIRECTION('',(0.,1.,0.));
#1863=DIRECTION('',(0.,0.,1.));
#1864=DIRECTION('',(0.,0.,1.));
#1865=DIRECTION('',(-1.,0.,0.));
#1866=DIRECTION('',(0.,0.,1.));
#1867=DIRECTION('',(-1.,0.,0.));
#1868=DIRECTION('',(0.,0.,1.));
#1869=DIRECTION('',(0.,0.,1.));
#1870=DIRECTION('',(0.,-1.,0.));
#1871=DIRECTION('',(0.,-1.,0.));
#1872=DIRECTION('',(0.,0.,-1.));
#1873=DIRECTION('',(0.,0.,1.));
#1874=DIRECTION('',(1.,0.,0.));
#1875=DIRECTION('',(1.,0.,0.));
#1876=DIRECTION('',(0.,0.,-1.));
#1877=DIRECTION('',(0.,1.,0.));
#1878=DIRECTION('',(0.,0.,1.));
#1879=DIRECTION('',(1.,0.,0.));
#1880=DIRECTION('',(0.,0.,1.));
#1881=DIRECTION('',(1.,0.,0.));
#1882=DIRECTION('',(0.,0.,1.));
#1883=DIRECTION('',(1.,0.,0.));
#1884=DIRECTION('',(0.,0.,1.));
#1885=DIRECTION('',(1.,0.,0.));
#1886=DIRECTION('',(0.,0.,1.));
#1887=DIRECTION('',(1.,0.,0.));
#1888=DIRECTION('',(0.,0.,-1.));
#1889=DIRECTION('',(-1.,0.,0.));
#1890=DIRECTION('',(0.,0.,-1.));
#1891=DIRECTION('',(-1.,0.,0.));
#1892=DIRECTION('',(0.,0.,1.));
#1893=DIRECTION('',(1.,0.,0.));
#1894=DIRECTION('',(0.,0.,-1.));
#1895=DIRECTION('',(-1.,0.,0.));
#1896=DIRECTION('',(0.,0.,-1.));
#1897=DIRECTION('',(-1.,0.,0.));
#1898=DIRECTION('',(0.,0.,1.));
#1899=DIRECTION('',(1.,0.,0.));
#1900=DIRECTION('',(0.,0.,-1.));
#1901=DIRECTION('',(-1.,0.,0.));
#1902=DIRECTION('',(0.,0.,-1.));
#1903=DIRECTION('',(-1.,0.,0.));
#1904=DIRECTION('',(0.,0.,1.));
#1905=DIRECTION('',(1.,0.,0.));
#1906=DIRECTION('',(0.,0.,-1.));
#1907=DIRECTION('',(-1.,0.,0.));
#1908=DIRECTION('',(0.,0.,-1.));
#1909=DIRECTION('',(-1.,0.,0.));
#1910=DIRECTION('',(0.,0.,1.));
#1911=DIRECTION('',(1.,0.,0.));
#1912=DIRECTION('',(0.,0.,-1.));
#1913=DIRECTION('',(-1.,0.,0.));
#1914=DIRECTION('',(0.,0.,-1.));
#1915=DIRECTION('',(-1.,0.,0.));
#1916=DIRECTION('',(0.,0.,1.));
#1917=DIRECTION('',(1.,0.,0.));
#1918=DIRECTION('',(0.,0.,-1.));
#1919=DIRECTION('',(-1.,0.,0.));
#1920=DIRECTION('',(0.,0.,-1.));
#1921=DIRECTION('',(-1.,0.,0.));
#1922=DIRECTION('',(0.,0.,1.));
#1923=DIRECTION('',(1.,0.,0.));
#1924=DIRECTION('',(0.,0.,-1.));
#1925=DIRECTION('',(-1.,0.,0.));
#1926=DIRECTION('',(0.,0.,-1.));
#1927=DIRECTION('',(-1.,0.,0.));
#1928=DIRECTION('',(0.,0.,1.));
#1929=DIRECTION('',(1.,0.,0.));
#1930=DIRECTION('',(0.,0.,-1.));
#1931=DIRECTION('',(-1.,0.,0.));
#1932=DIRECTION('',(0.,0.,-1.));
#1933=DIRECTION('',(-1.,0.,0.));
#1934=DIRECTION('',(0.,0.,1.));
#1935=DIRECTION('',(1.,0.,0.));
#1936=DIRECTION('',(0.,0.,-1.));
#1937=DIRECTION('',(-1.,0.,0.));
#1938=DIRECTION('',(0.,0.,-1.));
#1939=DIRECTION('',(-1.,0.,0.));
#1940=DIRECTION('',(0.,0.,1.));
#1941=DIRECTION('',(1.,0.,0.));
#1942=DIRECTION('',(0.,0.,-1.));
#1943=DIRECTION('',(-1.,0.,0.));
#1944=DIRECTION('',(0.,0.,-1.));
#1945=DIRECTION('',(-1.,0.,0.));
#1946=DIRECTION('',(0.,0.,-1.));
#1947=DIRECTION('',(-1.,0.,0.));
#1948=DIRECTION('',(0.,0.,1.));
#1949=DIRECTION('',(0.,-1.,0.));
#1950=DIRECTION('',(0.,0.,1.));
#1951=DIRECTION('',(1.,0.,0.));
#1952=DIRECTION('',(0.,0.,-1.));
#1953=DIRECTION('',(-1.,0.,0.));
#1954=DIRECTION('',(0.,0.,1.));
#1955=DIRECTION('',(0.,-1.,0.));
#1956=DIRECTION('',(0.,0.,1.));
#1957=DIRECTION('',(1.,0.,0.));
#1958=DIRECTION('',(0.,0.,-1.));
#1959=DIRECTION('',(-1.,0.,0.));
#1960=DIRECTION('',(0.,0.,1.));
#1961=DIRECTION('',(0.,-1.,0.));
#1962=DIRECTION('',(0.,0.,1.));
#1963=DIRECTION('',(1.,0.,0.));
#1964=DIRECTION('',(0.,0.,-1.));
#1965=DIRECTION('',(-1.,0.,0.));
#1966=DIRECTION('',(0.,0.,1.));
#1967=DIRECTION('',(0.,-1.,0.));
#1968=DIRECTION('',(0.,0.,1.));
#1969=DIRECTION('',(1.,0.,0.));
#1970=CARTESIAN_POINT('',(0.,0.,0.));
#1971=CARTESIAN_POINT('',(-30.145,-26.38,-42.5935492780185));
#1972=CARTESIAN_POINT('',(-30.145,-26.38,12.05));
#1973=CARTESIAN_POINT('',(-28.645,-26.38,12.05));
#1974=CARTESIAN_POINT('',(-30.145,-26.38,14.05));
#1975=CARTESIAN_POINT('',(-28.645,-26.38,14.05));
#1976=CARTESIAN_POINT('',(-40.32,0.,0.));
#1977=CARTESIAN_POINT('',(-40.32,125.,0.));
#1978=CARTESIAN_POINT('',(-40.32,125.,0.));
#1979=CARTESIAN_POINT('',(-40.32,73.62,0.));
#1980=CARTESIAN_POINT('',(-40.32,73.62,0.));
#1981=CARTESIAN_POINT('',(-40.32,73.6200000000001,19.05));
#1982=CARTESIAN_POINT('',(-40.32,125.,19.05));
#1983=CARTESIAN_POINT('',(-40.32,108.11,19.05));
#1984=CARTESIAN_POINT('',(-40.32,108.11,19.05));
#1985=CARTESIAN_POINT('',(-40.32,108.11,9.05));
#1986=CARTESIAN_POINT('',(-40.32,125.,9.05));
#1987=CARTESIAN_POINT('',(-40.32,125.,9.05));
#1988=CARTESIAN_POINT('',(-40.32,125.,19.05));
#1989=CARTESIAN_POINT('',(0.,0.,0.));
#1990=CARTESIAN_POINT('',(11.23,50.97,0.));
#1991=CARTESIAN_POINT('',(11.23,48.47,0.));
#1992=CARTESIAN_POINT('',(11.23,-51.38,0.));
#1993=CARTESIAN_POINT('',(11.23,-53.88,0.));
#1994=CARTESIAN_POINT('',(-30.145,-26.38,0.));
#1995=CARTESIAN_POINT('',(-30.145,-28.88,0.));
#1996=CARTESIAN_POINT('',(-30.145,-51.38,0.));
#1997=CARTESIAN_POINT('',(-30.145,-53.88,0.));
#1998=CARTESIAN_POINT('',(-60.74,-63.88,0.));
#1999=CARTESIAN_POINT('',(-60.74,-63.88,0.));
#2000=CARTESIAN_POINT('',(-60.74,48.62,0.));
#2001=CARTESIAN_POINT('',(-60.74,48.62,0.));
#2002=CARTESIAN_POINT('',(40.32,125.,0.));
#2003=CARTESIAN_POINT('',(40.32,125.,0.));
#2004=CARTESIAN_POINT('',(40.32,-125.,0.));
#2005=CARTESIAN_POINT('',(40.32,23.62,0.));
#2006=CARTESIAN_POINT('',(40.32,23.62,0.));
#2007=CARTESIAN_POINT('',(1.75999999999998,23.62,0.));
#2008=CARTESIAN_POINT('',(1.75999999999999,20.62,0.));
#2009=CARTESIAN_POINT('',(-1.24000000000001,20.62,0.));
#2010=CARTESIAN_POINT('',(-1.24000000000001,-1.50573997714788E-16,0.));
#2011=CARTESIAN_POINT('',(-1.24000000000001,-23.38,0.));
#2012=CARTESIAN_POINT('',(1.75999999999999,-23.38,0.));
#2013=CARTESIAN_POINT('',(1.75999999999999,-26.38,0.));
#2014=CARTESIAN_POINT('',(1.75999999999998,-26.38,0.));
#2015=CARTESIAN_POINT('',(26.76,-26.38,0.));
#2016=CARTESIAN_POINT('',(26.76,-38.88,0.));
#2017=CARTESIAN_POINT('',(26.76,-63.88,0.));
#2018=CARTESIAN_POINT('',(4.76,-63.88,0.));
#2019=CARTESIAN_POINT('',(1.75999999999998,86.12,0.));
#2020=CARTESIAN_POINT('',(4.75999999999998,86.12,0.));
#2021=CARTESIAN_POINT('',(26.76,86.12,0.));
#2022=CARTESIAN_POINT('',(29.76,86.12,0.));
#2023=CARTESIAN_POINT('',(-23.24,61.12,0.));
#2024=CARTESIAN_POINT('',(-20.24,61.12,0.));
#2025=CARTESIAN_POINT('',(-23.24,36.12,0.));
#2026=CARTESIAN_POINT('',(-20.24,36.12,0.));
#2027=CARTESIAN_POINT('',(-23.24,11.12,0.));
#2028=CARTESIAN_POINT('',(-20.24,11.12,0.));
#2029=CARTESIAN_POINT('',(-23.24,-13.88,0.));
#2030=CARTESIAN_POINT('',(-20.24,-13.88,0.));
#2031=CARTESIAN_POINT('',(-23.24,86.12,0.));
#2032=CARTESIAN_POINT('',(-20.24,86.12,0.));
#2033=CARTESIAN_POINT('',(-26.88,116.56,0.));
#2034=CARTESIAN_POINT('',(-21.88,116.56,0.));
#2035=CARTESIAN_POINT('',(0.,116.56,0.));
#2036=CARTESIAN_POINT('',(5.,116.56,0.));
#2037=CARTESIAN_POINT('',(26.88,116.56,0.));
#2038=CARTESIAN_POINT('',(31.88,116.56,0.));
#2039=CARTESIAN_POINT('',(-48.24,11.12,0.));
#2040=CARTESIAN_POINT('',(-45.24,11.12,0.));
#2041=CARTESIAN_POINT('',(-48.24,-13.88,0.));
#2042=CARTESIAN_POINT('',(-45.24,-13.88,0.));
#2043=CARTESIAN_POINT('',(-48.24,36.12,0.));
#2044=CARTESIAN_POINT('',(-45.24,36.12,0.));
#2045=CARTESIAN_POINT('',(-60.74,0.,0.));
#2046=CARTESIAN_POINT('',(-60.74,48.62,19.05));
#2047=CARTESIAN_POINT('',(-60.74,48.62,19.05));
#2048=CARTESIAN_POINT('',(-60.74,-63.88,19.05));
#2049=CARTESIAN_POINT('',(-60.74,-63.88,19.05));
#2050=CARTESIAN_POINT('',(-60.74,125.,19.05));
#2051=CARTESIAN_POINT('',(40.32,125.,19.05));
#2052=CARTESIAN_POINT('',(40.32,125.,9.05));
#2053=CARTESIAN_POINT('',(40.32,125.,9.05));
#2054=CARTESIAN_POINT('',(40.32,125.,19.05));
#2055=CARTESIAN_POINT('',(0.,0.,19.05));
#2056=CARTESIAN_POINT('',(-48.24,36.12,19.05));
#2057=CARTESIAN_POINT('',(-53.24,36.12,19.05));
#2058=CARTESIAN_POINT('',(-48.24,11.12,19.05));
#2059=CARTESIAN_POINT('',(-53.24,11.12,19.05));
#2060=CARTESIAN_POINT('',(-48.24,-13.88,19.05));
#2061=CARTESIAN_POINT('',(-53.24,-13.88,19.05));
#2062=CARTESIAN_POINT('',(-23.24,-13.88,19.05));
#2063=CARTESIAN_POINT('',(-28.24,-13.88,19.05));
#2064=CARTESIAN_POINT('',(-23.24,11.12,19.05));
#2065=CARTESIAN_POINT('',(-28.24,11.12,19.05));
#2066=CARTESIAN_POINT('',(-23.24,36.12,19.05));
#2067=CARTESIAN_POINT('',(-28.24,36.12,19.05));
#2068=CARTESIAN_POINT('',(-23.24,61.12,19.05));
#2069=CARTESIAN_POINT('',(-28.24,61.12,19.05));
#2070=CARTESIAN_POINT('',(-23.24,86.12,19.05));
#2071=CARTESIAN_POINT('',(-28.24,86.12,19.05));
#2072=CARTESIAN_POINT('',(1.75999999999998,86.12,19.05));
#2073=CARTESIAN_POINT('',(-3.24000000000002,86.12,19.05));
#2074=CARTESIAN_POINT('',(26.76,86.12,19.05));
#2075=CARTESIAN_POINT('',(21.76,86.12,19.05));
#2076=CARTESIAN_POINT('',(-23.24,-46.63,19.05));
#2077=CARTESIAN_POINT('',(-17.645,-46.63,19.05));
#2078=CARTESIAN_POINT('',(-42.645,-46.63,19.05));
#2079=CARTESIAN_POINT('',(-17.645,-51.38,19.05));
#2080=CARTESIAN_POINT('',(-17.645,-56.13,19.05));
#2081=CARTESIAN_POINT('',(-23.24,-56.13,19.05));
#2082=CARTESIAN_POINT('',(-42.645,-56.13,19.05));
#2083=CARTESIAN_POINT('',(-42.645,-46.63,19.05));
#2084=CARTESIAN_POINT('',(-45.24,67.5964936336925,19.05));
#2085=CARTESIAN_POINT('',(23.76,-63.88,19.05));
#2086=CARTESIAN_POINT('',(26.76,-63.88,19.05));
#2087=CARTESIAN_POINT('',(26.76,-38.88,19.05));
#2088=CARTESIAN_POINT('',(26.76,-26.38,19.05));
#2089=CARTESIAN_POINT('',(26.76,-26.38,19.05));
#2090=CARTESIAN_POINT('',(1.75999999999999,-26.38,19.05));
#2091=CARTESIAN_POINT('',(1.75999999999999,-23.38,19.05));
#2092=CARTESIAN_POINT('',(-1.24000000000001,-23.38,19.05));
#2093=CARTESIAN_POINT('',(-1.24000000000001,11.12,19.05));
#2094=CARTESIAN_POINT('',(-1.24000000000001,20.62,19.05));
#2095=CARTESIAN_POINT('',(1.75999999999999,20.62,19.05));
#2096=CARTESIAN_POINT('',(1.75999999999999,23.62,19.05));
#2097=CARTESIAN_POINT('',(1.75999999999999,23.62,19.05));
#2098=CARTESIAN_POINT('',(40.32,23.62,19.05));
#2099=CARTESIAN_POINT('',(40.32,-125.,19.05));
#2100=CARTESIAN_POINT('',(40.32,108.11,19.05));
#2101=CARTESIAN_POINT('',(40.32,108.11,19.05));
#2102=CARTESIAN_POINT('',(23.73,46.22,19.05));
#2103=CARTESIAN_POINT('',(23.73,46.22,19.05));
#2104=CARTESIAN_POINT('',(23.73,55.72,19.05));
#2105=CARTESIAN_POINT('',(-1.27000000000001,46.22,19.05));
#2106=CARTESIAN_POINT('',(-1.27000000000001,46.22,19.05));
#2107=CARTESIAN_POINT('',(-1.27000000000001,55.72,19.05));
#2108=CARTESIAN_POINT('',(-1.27000000000001,55.72,19.05));
#2109=CARTESIAN_POINT('',(1.75999999999998,55.72,19.05));
#2110=CARTESIAN_POINT('',(1.76,-56.13,19.05));
#2111=CARTESIAN_POINT('',(-1.27,-56.13,19.05));
#2112=CARTESIAN_POINT('',(23.73,-56.13,19.05));
#2113=CARTESIAN_POINT('',(-1.27,-46.63,19.05));
#2114=CARTESIAN_POINT('',(-1.27,-46.63,19.05));
#2115=CARTESIAN_POINT('',(1.76,-46.63,19.05));
#2116=CARTESIAN_POINT('',(23.73,-46.63,19.05));
#2117=CARTESIAN_POINT('',(23.73,-56.13,19.05));
#2118=CARTESIAN_POINT('',(-23.24,-31.13,19.05));
#2119=CARTESIAN_POINT('',(-42.645,-31.13,19.05));
#2120=CARTESIAN_POINT('',(-17.645,-31.13,19.05));
#2121=CARTESIAN_POINT('',(-42.645,-21.63,19.05));
#2122=CARTESIAN_POINT('',(-42.645,-21.63,19.05));
#2123=CARTESIAN_POINT('',(-17.645,-21.63,19.05));
#2124=CARTESIAN_POINT('',(-17.645,-21.63,19.05));
#2125=CARTESIAN_POINT('',(-17.645,-26.38,19.05));
#2126=CARTESIAN_POINT('',(40.32,-125.,19.05));
#2127=CARTESIAN_POINT('',(40.32,23.62,19.05));
#2128=CARTESIAN_POINT('',(40.32,108.11,9.05));
#2129=CARTESIAN_POINT('',(40.32,108.11,9.05));
#2130=CARTESIAN_POINT('',(40.32,108.11,9.05));
#2131=CARTESIAN_POINT('',(40.32,108.11,9.05));
#2132=CARTESIAN_POINT('',(40.32,108.11,9.05));
#2133=CARTESIAN_POINT('',(26.88,116.56,-80.8067332482447));
#2134=CARTESIAN_POINT('',(26.88,116.56,6.09999999999999));
#2135=CARTESIAN_POINT('',(29.88,116.56,6.09999999999999));
#2136=CARTESIAN_POINT('',(26.88,116.56,9.05));
#2137=CARTESIAN_POINT('',(23.88,116.56,9.05));
#2138=CARTESIAN_POINT('',(0.,116.56,-13.9998531420438));
#2139=CARTESIAN_POINT('',(0.,116.56,6.1));
#2140=CARTESIAN_POINT('',(3.,116.56,6.1));
#2141=CARTESIAN_POINT('',(0.,116.56,9.05));
#2142=CARTESIAN_POINT('',(-3.,116.56,9.05));
#2143=CARTESIAN_POINT('',(-26.88,116.56,-13.9998531420438));
#2144=CARTESIAN_POINT('',(-26.88,116.56,6.1));
#2145=CARTESIAN_POINT('',(-23.88,116.56,6.1));
#2146=CARTESIAN_POINT('',(-26.88,116.56,9.05));
#2147=CARTESIAN_POINT('',(-29.88,116.56,9.05));
#2148=CARTESIAN_POINT('',(0.,0.,9.05));
#2149=CARTESIAN_POINT('',(26.88,116.56,6.1));
#2150=CARTESIAN_POINT('',(26.88,116.56,6.1));
#2151=CARTESIAN_POINT('',(31.88,116.56,6.1));
#2152=CARTESIAN_POINT('',(26.88,116.56,6.1));
#2153=CARTESIAN_POINT('',(0.,116.56,6.1));
#2154=CARTESIAN_POINT('',(0.,116.56,6.1));
#2155=CARTESIAN_POINT('',(5.,116.56,6.1));
#2156=CARTESIAN_POINT('',(0.,116.56,6.1));
#2157=CARTESIAN_POINT('',(-26.88,116.56,6.1));
#2158=CARTESIAN_POINT('',(-26.88,116.56,6.1));
#2159=CARTESIAN_POINT('',(-21.88,116.56,6.1));
#2160=CARTESIAN_POINT('',(-26.88,116.56,6.1));
#2161=CARTESIAN_POINT('',(-23.24,86.12,-24.0992795241071));
#2162=CARTESIAN_POINT('',(-23.24,86.12,12.95));
#2163=CARTESIAN_POINT('',(-26.24,86.12,12.95));
#2164=CARTESIAN_POINT('',(-23.24,-13.88,-80.458691667063));
#2165=CARTESIAN_POINT('',(-23.24,-13.88,12.95));
#2166=CARTESIAN_POINT('',(-26.24,-13.88,12.95));
#2167=CARTESIAN_POINT('',(-23.24,11.12,-80.458691667063));
#2168=CARTESIAN_POINT('',(-23.24,11.12,12.95));
#2169=CARTESIAN_POINT('',(-26.24,11.12,12.95));
#2170=CARTESIAN_POINT('',(-23.24,36.12,-80.458691667063));
#2171=CARTESIAN_POINT('',(-23.24,36.12,12.95));
#2172=CARTESIAN_POINT('',(-26.24,36.12,12.95));
#2173=CARTESIAN_POINT('',(-23.24,61.12,-80.458691667063));
#2174=CARTESIAN_POINT('',(-23.24,61.12,12.95));
#2175=CARTESIAN_POINT('',(-26.24,61.12,12.95));
#2176=CARTESIAN_POINT('',(26.76,86.12,-80.458691667063));
#2177=CARTESIAN_POINT('',(26.76,86.12,12.95));
#2178=CARTESIAN_POINT('',(23.76,86.12,12.95));
#2179=CARTESIAN_POINT('',(1.75999999999998,86.12,-80.458691667063));
#2180=CARTESIAN_POINT('',(1.75999999999998,86.12,12.95));
#2181=CARTESIAN_POINT('',(-1.24000000000002,86.12,12.95));
#2182=CARTESIAN_POINT('',(0.,-63.88,0.));
#2183=CARTESIAN_POINT('',(26.76,-63.88,19.05));
#2184=CARTESIAN_POINT('',(26.76,0.,0.));
#2185=CARTESIAN_POINT('',(26.76,-26.38,19.05));
#2186=CARTESIAN_POINT('',(-48.24,11.12,-31.910895891973));
#2187=CARTESIAN_POINT('',(-48.24,11.12,12.95));
#2188=CARTESIAN_POINT('',(-51.24,11.12,12.95));
#2189=CARTESIAN_POINT('',(-48.24,-13.88,-31.910895891973));
#2190=CARTESIAN_POINT('',(-48.24,-13.88,12.95));
#2191=CARTESIAN_POINT('',(-51.24,-13.88,12.95));
#2192=CARTESIAN_POINT('',(1.76,-56.13,14.05));
#2193=CARTESIAN_POINT('',(23.73,-56.13,14.05));
#2194=CARTESIAN_POINT('',(23.73,-56.13,14.05));
#2195=CARTESIAN_POINT('',(1.76,-56.13,14.05));
#2196=CARTESIAN_POINT('',(-1.27,-56.13,14.05));
#2197=CARTESIAN_POINT('',(-1.27,-56.13,14.05));
#2198=CARTESIAN_POINT('',(23.73,-56.13,14.05));
#2199=CARTESIAN_POINT('',(23.73,-46.63,14.05));
#2200=CARTESIAN_POINT('',(23.73,-46.63,14.05));
#2201=CARTESIAN_POINT('',(23.73,-56.13,14.05));
#2202=CARTESIAN_POINT('',(1.76,-46.63,14.05));
#2203=CARTESIAN_POINT('',(-1.27,-46.63,14.05));
#2204=CARTESIAN_POINT('',(-1.27,-46.63,14.05));
#2205=CARTESIAN_POINT('',(23.73,-46.63,14.05));
#2206=CARTESIAN_POINT('',(-1.27,-46.63,14.05));
#2207=CARTESIAN_POINT('',(-1.27,-46.63,14.05));
#2208=CARTESIAN_POINT('',(0.,0.,14.05));
#2209=CARTESIAN_POINT('',(11.23,-51.38,14.05));
#2210=CARTESIAN_POINT('',(12.73,-51.38,14.05));
#2211=CARTESIAN_POINT('',(-1.24000000000001,11.12,-33.0066149593872));
#2212=CARTESIAN_POINT('',(-1.24000000000001,-23.38,-33.0066149593872));
#2213=CARTESIAN_POINT('',(-1.24000000000001,20.62,19.05));
#2214=CARTESIAN_POINT('',(-2.69566898043238E-15,23.62,0.));
#2215=CARTESIAN_POINT('',(1.75999999999999,23.62,-2.39036699445623E-16));
#2216=CARTESIAN_POINT('',(1.75999999999999,20.62,0.));
#2217=CARTESIAN_POINT('',(-4.81705318908086E-15,-26.38,0.));
#2218=CARTESIAN_POINT('',(1.75999999999999,-26.38,0.));
#2219=CARTESIAN_POINT('',(1.75999999999999,-23.38,0.));
#2220=CARTESIAN_POINT('',(11.23,-51.38,-33.050333899324));
#2221=CARTESIAN_POINT('',(11.23,-51.38,12.05));
#2222=CARTESIAN_POINT('',(12.73,-51.38,12.05));
#2223=CARTESIAN_POINT('',(23.73,46.22,14.05));
#2224=CARTESIAN_POINT('',(23.73,55.72,14.05));
#2225=CARTESIAN_POINT('',(23.73,55.72,14.05));
#2226=CARTESIAN_POINT('',(23.73,46.22,14.05));
#2227=CARTESIAN_POINT('',(23.73,46.22,14.05));
#2228=CARTESIAN_POINT('',(23.73,46.22,14.05));
#2229=CARTESIAN_POINT('',(1.75999999999998,55.72,14.05));
#2230=CARTESIAN_POINT('',(-1.27000000000001,55.72,14.05));
#2231=CARTESIAN_POINT('',(-1.27000000000001,55.72,14.05));
#2232=CARTESIAN_POINT('',(23.73,55.72,14.05));
#2233=CARTESIAN_POINT('',(-1.27000000000001,55.72,14.05));
#2234=CARTESIAN_POINT('',(-1.27000000000001,46.22,14.05));
#2235=CARTESIAN_POINT('',(-1.27000000000001,46.22,14.05));
#2236=CARTESIAN_POINT('',(-1.27000000000001,55.72,14.05));
#2237=CARTESIAN_POINT('',(-1.27000000000001,46.22,14.05));
#2238=CARTESIAN_POINT('',(11.23,46.22,14.05));
#2239=CARTESIAN_POINT('',(0.,0.,14.05));
#2240=CARTESIAN_POINT('',(11.23,50.97,14.05));
#2241=CARTESIAN_POINT('',(12.73,50.97,14.05));
#2242=CARTESIAN_POINT('',(11.23,50.97,-71.7635579278929));
#2243=CARTESIAN_POINT('',(11.23,50.97,12.05));
#2244=CARTESIAN_POINT('',(12.73,50.97,12.05));
#2245=CARTESIAN_POINT('',(-48.24,36.12,-27.9101505722262));
#2246=CARTESIAN_POINT('',(-48.24,36.12,12.95));
#2247=CARTESIAN_POINT('',(-51.24,36.12,12.95));
#2248=CARTESIAN_POINT('',(-45.24,67.5964936336925,0.));
#2249=CARTESIAN_POINT('',(-42.645,-31.13,14.05));
#2250=CARTESIAN_POINT('',(-17.645,-31.13,14.05));
#2251=CARTESIAN_POINT('',(-17.645,-31.13,14.05));
#2252=CARTESIAN_POINT('',(-42.645,-31.13,14.05));
#2253=CARTESIAN_POINT('',(-42.645,-31.13,14.05));
#2254=CARTESIAN_POINT('',(-42.645,-31.13,14.05));
#2255=CARTESIAN_POINT('',(-17.645,-31.13,14.05));
#2256=CARTESIAN_POINT('',(-17.645,-21.63,14.05));
#2257=CARTESIAN_POINT('',(-17.645,-21.63,14.05));
#2258=CARTESIAN_POINT('',(-17.645,-31.13,14.05));
#2259=CARTESIAN_POINT('',(-17.645,-21.63,14.05));
#2260=CARTESIAN_POINT('',(-42.645,-21.63,14.05));
#2261=CARTESIAN_POINT('',(-42.645,-21.63,14.05));
#2262=CARTESIAN_POINT('',(-17.645,-21.63,14.05));
#2263=CARTESIAN_POINT('',(-42.645,-21.63,14.05));
#2264=CARTESIAN_POINT('',(-42.645,-21.63,14.05));
#2265=CARTESIAN_POINT('',(0.,0.,14.05));
#2266=CARTESIAN_POINT('',(-23.24,-46.63,14.05));
#2267=CARTESIAN_POINT('',(-42.645,-46.63,14.05));
#2268=CARTESIAN_POINT('',(-42.645,-46.63,14.05));
#2269=CARTESIAN_POINT('',(-23.24,-46.63,14.05));
#2270=CARTESIAN_POINT('',(-17.645,-46.63,14.05));
#2271=CARTESIAN_POINT('',(-17.645,-46.63,14.05));
#2272=CARTESIAN_POINT('',(-42.645,-46.63,14.05));
#2273=CARTESIAN_POINT('',(-42.645,-56.13,14.05));
#2274=CARTESIAN_POINT('',(-42.645,-56.13,14.05));
#2275=CARTESIAN_POINT('',(-42.645,-46.63,14.05));
#2276=CARTESIAN_POINT('',(-23.24,-56.13,14.05));
#2277=CARTESIAN_POINT('',(-17.645,-56.13,14.05));
#2278=CARTESIAN_POINT('',(-17.645,-56.13,14.05));
#2279=CARTESIAN_POINT('',(-42.645,-56.13,14.05));
#2280=CARTESIAN_POINT('',(-17.645,-51.38,14.05));
#2281=CARTESIAN_POINT('',(-17.645,-56.13,14.05));
#2282=CARTESIAN_POINT('',(0.,0.,14.05));
#2283=CARTESIAN_POINT('',(-30.145,-51.38,14.05));
#2284=CARTESIAN_POINT('',(-28.645,-51.38,14.05));
#2285=CARTESIAN_POINT('',(-30.145,-51.38,-51.3734363765009));
#2286=CARTESIAN_POINT('',(-30.145,-51.38,12.05));
#2287=CARTESIAN_POINT('',(-28.645,-51.38,12.05));
#2288=CARTESIAN_POINT('',(26.76,86.12,12.95));
#2289=CARTESIAN_POINT('',(26.76,86.12,12.95));
#2290=CARTESIAN_POINT('',(21.76,86.12,12.95));
#2291=CARTESIAN_POINT('',(26.76,86.12,12.95));
#2292=CARTESIAN_POINT('',(1.75999999999998,86.12,12.95));
#2293=CARTESIAN_POINT('',(1.75999999999998,86.12,12.95));
#2294=CARTESIAN_POINT('',(-3.24000000000002,86.12,12.95));
#2295=CARTESIAN_POINT('',(1.75999999999998,86.12,12.95));
#2296=CARTESIAN_POINT('',(-23.24,86.12,12.95));
#2297=CARTESIAN_POINT('',(-23.24,86.12,12.95));
#2298=CARTESIAN_POINT('',(-28.24,86.12,12.95));
#2299=CARTESIAN_POINT('',(-23.24,86.12,12.95));
#2300=CARTESIAN_POINT('',(-23.24,61.12,12.95));
#2301=CARTESIAN_POINT('',(-23.24,61.12,12.95));
#2302=CARTESIAN_POINT('',(-28.24,61.12,12.95));
#2303=CARTESIAN_POINT('',(-23.24,61.12,12.95));
#2304=CARTESIAN_POINT('',(-23.24,36.12,12.95));
#2305=CARTESIAN_POINT('',(-23.24,36.12,12.95));
#2306=CARTESIAN_POINT('',(-28.24,36.12,12.95));
#2307=CARTESIAN_POINT('',(-23.24,36.12,12.95));
#2308=CARTESIAN_POINT('',(-23.24,11.12,12.95));
#2309=CARTESIAN_POINT('',(-23.24,11.12,12.95));
#2310=CARTESIAN_POINT('',(-28.24,11.12,12.95));
#2311=CARTESIAN_POINT('',(-23.24,11.12,12.95));
#2312=CARTESIAN_POINT('',(-23.24,-13.88,12.95));
#2313=CARTESIAN_POINT('',(-23.24,-13.88,12.95));
#2314=CARTESIAN_POINT('',(-28.24,-13.88,12.95));
#2315=CARTESIAN_POINT('',(-23.24,-13.88,12.95));
#2316=CARTESIAN_POINT('',(-48.24,-13.88,12.95));
#2317=CARTESIAN_POINT('',(-48.24,-13.88,12.95));
#2318=CARTESIAN_POINT('',(-53.24,-13.88,12.95));
#2319=CARTESIAN_POINT('',(-48.24,-13.88,12.95));
#2320=CARTESIAN_POINT('',(-48.24,11.12,12.95));
#2321=CARTESIAN_POINT('',(-48.24,11.12,12.95));
#2322=CARTESIAN_POINT('',(-53.24,11.12,12.95));
#2323=CARTESIAN_POINT('',(-48.24,11.12,12.95));
#2324=CARTESIAN_POINT('',(-48.24,36.12,12.95));
#2325=CARTESIAN_POINT('',(-48.24,36.12,12.95));
#2326=CARTESIAN_POINT('',(-53.24,36.12,12.95));
#2327=CARTESIAN_POINT('',(-48.24,36.12,12.95));
#2328=CARTESIAN_POINT('',(-30.145,-51.38,12.05));
#2329=CARTESIAN_POINT('',(-30.145,-51.38,12.05));
#2330=CARTESIAN_POINT('',(-30.145,-53.88,12.05));
#2331=CARTESIAN_POINT('',(-30.145,-51.38,12.05));
#2332=CARTESIAN_POINT('',(-30.145,-26.38,12.05));
#2333=CARTESIAN_POINT('',(-30.145,-26.38,12.05));
#2334=CARTESIAN_POINT('',(-30.145,-28.88,12.05));
#2335=CARTESIAN_POINT('',(-30.145,-26.38,12.05));
#2336=CARTESIAN_POINT('',(11.23,-51.38,12.05));
#2337=CARTESIAN_POINT('',(11.23,-51.38,12.05));
#2338=CARTESIAN_POINT('',(11.23,-53.88,12.05));
#2339=CARTESIAN_POINT('',(11.23,-51.38,12.05));
#2340=CARTESIAN_POINT('',(11.23,50.97,12.05));
#2341=CARTESIAN_POINT('',(11.23,50.97,12.05));
#2342=CARTESIAN_POINT('',(11.23,48.47,12.05));
#2343=CARTESIAN_POINT('',(11.23,50.97,12.05));
#2344=MECHANICAL_DESIGN_GEOMETRIC_PRESENTATION_REPRESENTATION('',(#1393),
#2345);
#2345=(
GEOMETRIC_REPRESENTATION_CONTEXT(3)
GLOBAL_UNCERTAINTY_ASSIGNED_CONTEXT((#2346))
GLOBAL_UNIT_ASSIGNED_CONTEXT((#2349,#2348,#2347))
REPRESENTATION_CONTEXT('26_FDML_stimfix_stimulus_board',
'TOP_LEVEL_ASSEMBLY_PART')
);
#2346=UNCERTAINTY_MEASURE_WITH_UNIT(LENGTH_MEASURE(0.005),#2349,
'DISTANCE_ACCURACY_VALUE','Maximum Tolerance applied to model');
#2347=(
NAMED_UNIT(*)
SI_UNIT($,.STERADIAN.)
SOLID_ANGLE_UNIT()
);
#2348=(
NAMED_UNIT(*)
PLANE_ANGLE_UNIT()
SI_UNIT($,.RADIAN.)
);
#2349=(
LENGTH_UNIT()
NAMED_UNIT(*)
SI_UNIT(.MILLI.,.METRE.)
);
#2350=PRODUCT_DEFINITION_SHAPE('','',#2351);
#2351=PRODUCT_DEFINITION('','',#2353,#2352);
#2352=PRODUCT_DEFINITION_CONTEXT('',#2359,'design');
#2353=PRODUCT_DEFINITION_FORMATION_WITH_SPECIFIED_SOURCE('','',#2355,
 .NOT_KNOWN.);
#2354=PRODUCT_RELATED_PRODUCT_CATEGORY('','',(#2355));
#2355=PRODUCT('26_FDML_stimfix_stimulus_board',
'26_FDML_stimfix_stimulus_board','26_FDML_stimfix_stimulus_board',(#2357));
#2356=PRODUCT_CATEGORY('','');
#2357=PRODUCT_CONTEXT('',#2359,'mechanical');
#2358=APPLICATION_PROTOCOL_DEFINITION('international standard',
'automotive_design',2010,#2359);
#2359=APPLICATION_CONTEXT(
'core data for automotive mechanical design processes');
ENDSEC;
END-ISO-10303-21;
