ISO-10303-21;
HEADER;
/* Generated by software containing ST-Developer
 * from STEP Tools, Inc. (www.steptools.com) 
 */
/* OPTION: strings as raw bytes, not using required /X/ escapes */

FILE_DESCRIPTION(
/* description */ ('Unknown'),
/* implementation_level */ '2;1');

FILE_NAME(
/* name */ '27_FDML_stimfix_cage_system_insert_iris_holder',
/* time_stamp */ '2026-09-07T15:12:22+02:00',
/* author */ ('Unknown'),
/* organization */ ('Unknown'),
/* preprocessor_version */ 'ST-DEVELOPER v16.7',
/* originating_system */ 'Solid Edge',
/* authorisation */ 'Unknown');

FILE_SCHEMA (('AUTOMOTIVE_DESIGN {1 0 10303 214 3 1 1}'));
ENDSEC;

DATA;
#10=PROPERTY_DEFINITION_REPRESENTATION(#14,#12);
#11=PROPERTY_DEFINITION_REPRESENTATION(#15,#13);
#12=REPRESENTATION('',(#16),#1009);
#13=REPRESENTATION('',(#17),#1009);
#14=PROPERTY_DEFINITION('pmi validation property','',#1014);
#15=PROPERTY_DEFINITION('pmi validation property','',#1014);
#16=VALUE_REPRESENTATION_ITEM('number of annotations',COUNT_MEASURE(0.));
#17=VALUE_REPRESENTATION_ITEM('number of views',COUNT_MEASURE(0.));
#18=SHAPE_REPRESENTATION_RELATIONSHIP('','',#603,#19);
#19=ADVANCED_BREP_SHAPE_REPRESENTATION('',(#601),#1009);
#20=B_SPLINE_CURVE_WITH_KNOTS('',3,(#845,#846,#847,#848,#849,#850,#851,
#852,#853,#854,#855,#856,#857,#858,#859,#860,#861,#862,#863),
 .UNSPECIFIED.,.T.,.F.,(1,1,1,1,1,1,1,1,1,1,1,1,1,1,1,1,1,1,1,1,1,1,1),
(-0.00169398060650741,-0.00112932040433828,-0.000564660202169139,0.,0.000564660202169138,
0.00112932040433828,0.00169398060650741,0.00225864080867655,0.00282330101084569,
0.00338796121301483,0.00395262141518397,0.0045172816173531,0.00508194181952224,
0.00564660202169138,0.00621126222386052,0.00677592242602965,0.00734058262819879,
0.00790524283036793,0.00846990303253707,0.00903456323470621,0.00959922343687534,
0.0101638836390445,0.0107285438412136),.UNSPECIFIED.);
#21=B_SPLINE_CURVE_WITH_KNOTS('',3,(#868,#869,#870,#871,#872,#873,#874,
#875,#876,#877,#878,#879,#880,#881,#882,#883,#884,#885,#886),
 .UNSPECIFIED.,.T.,.F.,(1,1,1,1,1,1,1,1,1,1,1,1,1,1,1,1,1,1,1,1,1,1,1),
(-0.00169398060650741,-0.00112932040433827,-0.000564660202169135,0.,0.000564660202169135,
0.00112932040433827,0.00169398060650741,0.00225864080867654,0.00282330101084568,
0.00338796121301481,0.00395262141518395,0.00451728161735308,0.00508194181952222,
0.00564660202169135,0.00621126222386049,0.00677592242602962,0.00734058262819876,
0.00790524283036789,0.00846990303253703,0.00903456323470616,0.0095992234368753,
0.0101638836390444,0.0107285438412136),.UNSPECIFIED.);
#22=CYLINDRICAL_SURFACE('',#609,3.075);
#23=CYLINDRICAL_SURFACE('',#611,3.075);
#24=CYLINDRICAL_SURFACE('',#625,12.7);
#25=CYLINDRICAL_SURFACE('',#626,1.);
#26=CYLINDRICAL_SURFACE('',#630,1.);
#27=CYLINDRICAL_SURFACE('',#634,1.4);
#28=CYLINDRICAL_SURFACE('',#637,1.4);
#29=CYLINDRICAL_SURFACE('',#651,1.875);
#30=CYLINDRICAL_SURFACE('',#653,1.95);
#31=LINE('',#818,#83);
#32=LINE('',#821,#84);
#33=LINE('',#823,#85);
#34=LINE('',#825,#86);
#35=LINE('',#827,#87);
#36=LINE('',#829,#88);
#37=LINE('',#831,#89);
#38=LINE('',#835,#90);
#39=LINE('',#837,#91);
#40=LINE('',#839,#92);
#41=LINE('',#841,#93);
#42=LINE('',#889,#94);
#43=LINE('',#891,#95);
#44=LINE('',#893,#96);
#45=LINE('',#897,#97);
#46=LINE('',#899,#98);
#47=LINE('',#901,#99);
#48=LINE('',#903,#100);
#49=LINE('',#905,#101);
#50=LINE('',#907,#102);
#51=LINE('',#909,#103);
#52=LINE('',#913,#104);
#53=LINE('',#915,#105);
#54=LINE('',#917,#106);
#55=LINE('',#919,#107);
#56=LINE('',#921,#108);
#57=LINE('',#923,#109);
#58=LINE('',#925,#110);
#59=LINE('',#927,#111);
#60=LINE('',#929,#112);
#61=LINE('',#932,#113);
#62=LINE('',#934,#114);
#63=LINE('',#957,#115);
#64=LINE('',#959,#116);
#65=LINE('',#961,#117);
#66=LINE('',#963,#118);
#67=LINE('',#966,#119);
#68=LINE('',#968,#120);
#69=LINE('',#970,#121);
#70=LINE('',#974,#122);
#71=LINE('',#976,#123);
#72=LINE('',#978,#124);
#73=LINE('',#980,#125);
#74=LINE('',#981,#126);
#75=LINE('',#983,#127);
#76=LINE('',#986,#128);
#77=LINE('',#987,#129);
#78=LINE('',#991,#130);
#79=LINE('',#994,#131);
#80=LINE('',#995,#132);
#81=LINE('',#997,#133);
#82=LINE('',#999,#134);
#83=VECTOR('',#664,1000.);
#84=VECTOR('',#665,1000.);
#85=VECTOR('',#666,1000.);
#86=VECTOR('',#667,1000.);
#87=VECTOR('',#668,1000.);
#88=VECTOR('',#669,1000.);
#89=VECTOR('',#670,1000.);
#90=VECTOR('',#673,1000.);
#91=VECTOR('',#674,1000.);
#92=VECTOR('',#675,1000.);
#93=VECTOR('',#676,1000.);
#94=VECTOR('',#687,1000.);
#95=VECTOR('',#688,1000.);
#96=VECTOR('',#689,1000.);
#97=VECTOR('',#694,1000.);
#98=VECTOR('',#695,1000.);
#99=VECTOR('',#696,1000.);
#100=VECTOR('',#699,1000.);
#101=VECTOR('',#700,1000.);
#102=VECTOR('',#701,1000.);
#103=VECTOR('',#704,1000.);
#104=VECTOR('',#709,1000.);
#105=VECTOR('',#710,1000.);
#106=VECTOR('',#713,1000.);
#107=VECTOR('',#714,1000.);
#108=VECTOR('',#717,1000.);
#109=VECTOR('',#718,1000.);
#110=VECTOR('',#721,1000.);
#111=VECTOR('',#722,1000.);
#112=VECTOR('',#725,1000.);
#113=VECTOR('',#726,1000.);
#114=VECTOR('',#729,1000.);
#115=VECTOR('',#762,1000.);
#116=VECTOR('',#763,1000.);
#117=VECTOR('',#764,1000.);
#118=VECTOR('',#767,1000.);
#119=VECTOR('',#768,1000.);
#120=VECTOR('',#769,1000.);
#121=VECTOR('',#770,1000.);
#122=VECTOR('',#775,1000.);
#123=VECTOR('',#776,1000.);
#124=VECTOR('',#777,1000.);
#125=VECTOR('',#780,1000.);
#126=VECTOR('',#781,1000.);
#127=VECTOR('',#784,1000.);
#128=VECTOR('',#785,1000.);
#129=VECTOR('',#786,1000.);
#130=VECTOR('',#791,1000.);
#131=VECTOR('',#792,1000.);
#132=VECTOR('',#793,1000.);
#133=VECTOR('',#796,1000.);
#134=VECTOR('',#799,1000.);
#135=ORIENTED_EDGE('',*,*,#279,.F.);
#136=ORIENTED_EDGE('',*,*,#280,.F.);
#137=ORIENTED_EDGE('',*,*,#281,.T.);
#138=ORIENTED_EDGE('',*,*,#282,.T.);
#139=ORIENTED_EDGE('',*,*,#283,.F.);
#140=ORIENTED_EDGE('',*,*,#284,.F.);
#141=ORIENTED_EDGE('',*,*,#285,.T.);
#142=ORIENTED_EDGE('',*,*,#286,.T.);
#143=ORIENTED_EDGE('',*,*,#287,.T.);
#144=ORIENTED_EDGE('',*,*,#288,.T.);
#145=ORIENTED_EDGE('',*,*,#289,.T.);
#146=ORIENTED_EDGE('',*,*,#290,.T.);
#147=ORIENTED_EDGE('',*,*,#291,.T.);
#148=ORIENTED_EDGE('',*,*,#292,.F.);
#149=ORIENTED_EDGE('',*,*,#279,.T.);
#150=ORIENTED_EDGE('',*,*,#293,.F.);
#151=ORIENTED_EDGE('',*,*,#294,.T.);
#152=ORIENTED_EDGE('',*,*,#280,.T.);
#153=ORIENTED_EDGE('',*,*,#295,.F.);
#154=ORIENTED_EDGE('',*,*,#296,.T.);
#155=ORIENTED_EDGE('',*,*,#297,.T.);
#156=ORIENTED_EDGE('',*,*,#287,.F.);
#157=ORIENTED_EDGE('',*,*,#298,.F.);
#158=ORIENTED_EDGE('',*,*,#299,.T.);
#159=ORIENTED_EDGE('',*,*,#300,.T.);
#160=ORIENTED_EDGE('',*,*,#290,.F.);
#161=ORIENTED_EDGE('',*,*,#301,.T.);
#162=ORIENTED_EDGE('',*,*,#302,.T.);
#163=ORIENTED_EDGE('',*,*,#303,.T.);
#164=ORIENTED_EDGE('',*,*,#304,.T.);
#165=ORIENTED_EDGE('',*,*,#292,.T.);
#166=ORIENTED_EDGE('',*,*,#305,.F.);
#167=ORIENTED_EDGE('',*,*,#306,.F.);
#168=ORIENTED_EDGE('',*,*,#291,.F.);
#169=ORIENTED_EDGE('',*,*,#303,.F.);
#170=ORIENTED_EDGE('',*,*,#307,.T.);
#171=ORIENTED_EDGE('',*,*,#305,.T.);
#172=ORIENTED_EDGE('',*,*,#308,.T.);
#173=ORIENTED_EDGE('',*,*,#286,.F.);
#174=ORIENTED_EDGE('',*,*,#309,.F.);
#175=ORIENTED_EDGE('',*,*,#310,.T.);
#176=ORIENTED_EDGE('',*,*,#298,.T.);
#177=ORIENTED_EDGE('',*,*,#285,.F.);
#178=ORIENTED_EDGE('',*,*,#311,.F.);
#179=ORIENTED_EDGE('',*,*,#312,.T.);
#180=ORIENTED_EDGE('',*,*,#309,.T.);
#181=ORIENTED_EDGE('',*,*,#311,.T.);
#182=ORIENTED_EDGE('',*,*,#284,.T.);
#183=ORIENTED_EDGE('',*,*,#313,.T.);
#184=ORIENTED_EDGE('',*,*,#314,.F.);
#185=ORIENTED_EDGE('',*,*,#289,.F.);
#186=ORIENTED_EDGE('',*,*,#315,.T.);
#187=ORIENTED_EDGE('',*,*,#316,.T.);
#188=ORIENTED_EDGE('',*,*,#301,.F.);
#189=ORIENTED_EDGE('',*,*,#317,.F.);
#190=ORIENTED_EDGE('',*,*,#318,.F.);
#191=ORIENTED_EDGE('',*,*,#306,.T.);
#192=ORIENTED_EDGE('',*,*,#307,.F.);
#193=ORIENTED_EDGE('',*,*,#302,.F.);
#194=ORIENTED_EDGE('',*,*,#316,.F.);
#195=ORIENTED_EDGE('',*,*,#319,.F.);
#196=ORIENTED_EDGE('',*,*,#299,.F.);
#197=ORIENTED_EDGE('',*,*,#310,.F.);
#198=ORIENTED_EDGE('',*,*,#312,.F.);
#199=ORIENTED_EDGE('',*,*,#314,.T.);
#200=ORIENTED_EDGE('',*,*,#320,.T.);
#201=ORIENTED_EDGE('',*,*,#295,.T.);
#202=ORIENTED_EDGE('',*,*,#293,.T.);
#203=ORIENTED_EDGE('',*,*,#315,.F.);
#204=ORIENTED_EDGE('',*,*,#288,.F.);
#205=ORIENTED_EDGE('',*,*,#297,.F.);
#206=ORIENTED_EDGE('',*,*,#319,.T.);
#207=ORIENTED_EDGE('',*,*,#321,.F.);
#208=ORIENTED_EDGE('',*,*,#296,.F.);
#209=ORIENTED_EDGE('',*,*,#322,.T.);
#210=ORIENTED_EDGE('',*,*,#322,.F.);
#211=ORIENTED_EDGE('',*,*,#323,.F.);
#212=ORIENTED_EDGE('',*,*,#294,.F.);
#213=ORIENTED_EDGE('',*,*,#324,.T.);
#214=ORIENTED_EDGE('',*,*,#324,.F.);
#215=ORIENTED_EDGE('',*,*,#325,.T.);
#216=ORIENTED_EDGE('',*,*,#308,.F.);
#217=ORIENTED_EDGE('',*,*,#323,.T.);
#218=ORIENTED_EDGE('',*,*,#325,.F.);
#219=ORIENTED_EDGE('',*,*,#326,.T.);
#220=ORIENTED_EDGE('',*,*,#300,.F.);
#221=ORIENTED_EDGE('',*,*,#321,.T.);
#222=ORIENTED_EDGE('',*,*,#326,.F.);
#223=ORIENTED_EDGE('',*,*,#327,.T.);
#224=ORIENTED_EDGE('',*,*,#328,.T.);
#225=ORIENTED_EDGE('',*,*,#329,.T.);
#226=ORIENTED_EDGE('',*,*,#317,.T.);
#227=ORIENTED_EDGE('',*,*,#330,.F.);
#228=ORIENTED_EDGE('',*,*,#331,.F.);
#229=ORIENTED_EDGE('',*,*,#332,.T.);
#230=ORIENTED_EDGE('',*,*,#333,.T.);
#231=ORIENTED_EDGE('',*,*,#334,.T.);
#232=ORIENTED_EDGE('',*,*,#282,.F.);
#233=ORIENTED_EDGE('',*,*,#335,.F.);
#234=ORIENTED_EDGE('',*,*,#336,.T.);
#235=ORIENTED_EDGE('',*,*,#337,.T.);
#236=ORIENTED_EDGE('',*,*,#336,.F.);
#237=ORIENTED_EDGE('',*,*,#338,.T.);
#238=ORIENTED_EDGE('',*,*,#332,.F.);
#239=ORIENTED_EDGE('',*,*,#339,.F.);
#240=ORIENTED_EDGE('',*,*,#340,.T.);
#241=ORIENTED_EDGE('',*,*,#341,.T.);
#242=ORIENTED_EDGE('',*,*,#330,.T.);
#243=ORIENTED_EDGE('',*,*,#342,.T.);
#244=ORIENTED_EDGE('',*,*,#343,.T.);
#245=ORIENTED_EDGE('',*,*,#344,.F.);
#246=ORIENTED_EDGE('',*,*,#345,.F.);
#247=ORIENTED_EDGE('',*,*,#340,.F.);
#248=ORIENTED_EDGE('',*,*,#346,.F.);
#249=ORIENTED_EDGE('',*,*,#347,.F.);
#250=ORIENTED_EDGE('',*,*,#327,.F.);
#251=ORIENTED_EDGE('',*,*,#320,.F.);
#252=ORIENTED_EDGE('',*,*,#313,.F.);
#253=ORIENTED_EDGE('',*,*,#283,.T.);
#254=ORIENTED_EDGE('',*,*,#337,.F.);
#255=ORIENTED_EDGE('',*,*,#339,.T.);
#256=ORIENTED_EDGE('',*,*,#331,.T.);
#257=ORIENTED_EDGE('',*,*,#341,.F.);
#258=ORIENTED_EDGE('',*,*,#345,.T.);
#259=ORIENTED_EDGE('',*,*,#342,.F.);
#260=ORIENTED_EDGE('',*,*,#333,.F.);
#261=ORIENTED_EDGE('',*,*,#338,.F.);
#262=ORIENTED_EDGE('',*,*,#335,.T.);
#263=ORIENTED_EDGE('',*,*,#281,.F.);
#264=ORIENTED_EDGE('',*,*,#304,.F.);
#265=ORIENTED_EDGE('',*,*,#318,.T.);
#266=ORIENTED_EDGE('',*,*,#329,.F.);
#267=ORIENTED_EDGE('',*,*,#348,.T.);
#268=ORIENTED_EDGE('',*,*,#346,.T.);
#269=ORIENTED_EDGE('',*,*,#344,.T.);
#270=ORIENTED_EDGE('',*,*,#348,.F.);
#271=ORIENTED_EDGE('',*,*,#328,.F.);
#272=ORIENTED_EDGE('',*,*,#347,.T.);
#273=ORIENTED_EDGE('',*,*,#349,.F.);
#274=ORIENTED_EDGE('',*,*,#343,.F.);
#275=ORIENTED_EDGE('',*,*,#350,.T.);
#276=ORIENTED_EDGE('',*,*,#334,.F.);
#277=ORIENTED_EDGE('',*,*,#349,.T.);
#278=ORIENTED_EDGE('',*,*,#350,.F.);
#279=EDGE_CURVE('',#351,#351,#405,.T.);
#280=EDGE_CURVE('',#352,#352,#406,.T.);
#281=EDGE_CURVE('',#353,#354,#31,.T.);
#282=EDGE_CURVE('',#354,#355,#32,.T.);
#283=EDGE_CURVE('',#356,#355,#33,.T.);
#284=EDGE_CURVE('',#357,#356,#34,.T.);
#285=EDGE_CURVE('',#357,#358,#35,.T.);
#286=EDGE_CURVE('',#358,#359,#36,.T.);
#287=EDGE_CURVE('',#359,#360,#37,.T.);
#288=EDGE_CURVE('',#360,#361,#407,.F.);
#289=EDGE_CURVE('',#361,#362,#38,.T.);
#290=EDGE_CURVE('',#362,#363,#39,.T.);
#291=EDGE_CURVE('',#363,#364,#40,.T.);
#292=EDGE_CURVE('',#353,#364,#41,.T.);
#293=EDGE_CURVE('',#365,#365,#408,.T.);
#294=EDGE_CURVE('',#366,#366,#20,.T.);
#295=EDGE_CURVE('',#367,#367,#409,.T.);
#296=EDGE_CURVE('',#368,#368,#21,.T.);
#297=EDGE_CURVE('',#369,#360,#42,.T.);
#298=EDGE_CURVE('',#370,#359,#43,.T.);
#299=EDGE_CURVE('',#370,#369,#44,.T.);
#300=EDGE_CURVE('',#371,#371,#410,.T.);
#301=EDGE_CURVE('',#362,#372,#45,.T.);
#302=EDGE_CURVE('',#372,#373,#46,.T.);
#303=EDGE_CURVE('',#373,#363,#47,.T.);
#304=EDGE_CURVE('',#374,#353,#48,.T.);
#305=EDGE_CURVE('',#375,#364,#49,.T.);
#306=EDGE_CURVE('',#374,#375,#50,.T.);
#307=EDGE_CURVE('',#373,#375,#51,.T.);
#308=EDGE_CURVE('',#376,#376,#411,.T.);
#309=EDGE_CURVE('',#377,#358,#52,.T.);
#310=EDGE_CURVE('',#377,#370,#53,.T.);
#311=EDGE_CURVE('',#378,#357,#54,.T.);
#312=EDGE_CURVE('',#378,#377,#55,.T.);
#313=EDGE_CURVE('',#356,#379,#56,.T.);
#314=EDGE_CURVE('',#378,#379,#57,.T.);
#315=EDGE_CURVE('',#361,#380,#58,.F.);
#316=EDGE_CURVE('',#380,#372,#59,.T.);
#317=EDGE_CURVE('',#381,#382,#60,.T.);
#318=EDGE_CURVE('',#374,#381,#61,.T.);
#319=EDGE_CURVE('',#369,#380,#412,.T.);
#320=EDGE_CURVE('',#379,#382,#62,.T.);
#321=EDGE_CURVE('',#383,#383,#413,.T.);
#322=EDGE_CURVE('',#384,#384,#414,.T.);
#323=EDGE_CURVE('',#385,#385,#415,.T.);
#324=EDGE_CURVE('',#386,#386,#416,.T.);
#325=EDGE_CURVE('',#387,#387,#417,.T.);
#326=EDGE_CURVE('',#388,#388,#418,.T.);
#327=EDGE_CURVE('',#382,#389,#63,.T.);
#328=EDGE_CURVE('',#389,#390,#64,.T.);
#329=EDGE_CURVE('',#390,#381,#65,.T.);
#330=EDGE_CURVE('',#391,#392,#66,.T.);
#331=EDGE_CURVE('',#393,#391,#67,.T.);
#332=EDGE_CURVE('',#393,#394,#68,.T.);
#333=EDGE_CURVE('',#394,#392,#69,.T.);
#334=EDGE_CURVE('',#395,#395,#419,.T.);
#335=EDGE_CURVE('',#396,#354,#70,.T.);
#336=EDGE_CURVE('',#396,#397,#71,.T.);
#337=EDGE_CURVE('',#397,#355,#72,.T.);
#338=EDGE_CURVE('',#396,#394,#73,.T.);
#339=EDGE_CURVE('',#397,#393,#74,.T.);
#340=EDGE_CURVE('',#398,#399,#75,.T.);
#341=EDGE_CURVE('',#399,#391,#76,.T.);
#342=EDGE_CURVE('',#392,#398,#77,.T.);
#343=EDGE_CURVE('',#400,#400,#420,.F.);
#344=EDGE_CURVE('',#401,#402,#78,.T.);
#345=EDGE_CURVE('',#399,#401,#79,.T.);
#346=EDGE_CURVE('',#402,#398,#80,.T.);
#347=EDGE_CURVE('',#389,#401,#81,.T.);
#348=EDGE_CURVE('',#390,#402,#82,.T.);
#349=EDGE_CURVE('',#403,#403,#421,.T.);
#350=EDGE_CURVE('',#404,#404,#422,.T.);
#351=VERTEX_POINT('',#815);
#352=VERTEX_POINT('',#817);
#353=VERTEX_POINT('',#819);
#354=VERTEX_POINT('',#820);
#355=VERTEX_POINT('',#822);
#356=VERTEX_POINT('',#824);
#357=VERTEX_POINT('',#826);
#358=VERTEX_POINT('',#828);
#359=VERTEX_POINT('',#830);
#360=VERTEX_POINT('',#832);
#361=VERTEX_POINT('',#834);
#362=VERTEX_POINT('',#836);
#363=VERTEX_POINT('',#838);
#364=VERTEX_POINT('',#840);
#365=VERTEX_POINT('',#844);
#366=VERTEX_POINT('',#864);
#367=VERTEX_POINT('',#867);
#368=VERTEX_POINT('',#887);
#369=VERTEX_POINT('',#890);
#370=VERTEX_POINT('',#892);
#371=VERTEX_POINT('',#896);
#372=VERTEX_POINT('',#898);
#373=VERTEX_POINT('',#900);
#374=VERTEX_POINT('',#904);
#375=VERTEX_POINT('',#906);
#376=VERTEX_POINT('',#912);
#377=VERTEX_POINT('',#914);
#378=VERTEX_POINT('',#918);
#379=VERTEX_POINT('',#922);
#380=VERTEX_POINT('',#926);
#381=VERTEX_POINT('',#930);
#382=VERTEX_POINT('',#931);
#383=VERTEX_POINT('',#938);
#384=VERTEX_POINT('',#940);
#385=VERTEX_POINT('',#944);
#386=VERTEX_POINT('',#946);
#387=VERTEX_POINT('',#950);
#388=VERTEX_POINT('',#954);
#389=VERTEX_POINT('',#958);
#390=VERTEX_POINT('',#960);
#391=VERTEX_POINT('',#964);
#392=VERTEX_POINT('',#965);
#393=VERTEX_POINT('',#967);
#394=VERTEX_POINT('',#969);
#395=VERTEX_POINT('',#973);
#396=VERTEX_POINT('',#975);
#397=VERTEX_POINT('',#977);
#398=VERTEX_POINT('',#984);
#399=VERTEX_POINT('',#985);
#400=VERTEX_POINT('',#990);
#401=VERTEX_POINT('',#992);
#402=VERTEX_POINT('',#993);
#403=VERTEX_POINT('',#1003);
#404=VERTEX_POINT('',#1006);
#405=CIRCLE('',#606,3.075);
#406=CIRCLE('',#607,3.075);
#407=CIRCLE('',#608,12.7);
#408=CIRCLE('',#610,3.075);
#409=CIRCLE('',#612,3.075);
#410=CIRCLE('',#615,1.4);
#411=CIRCLE('',#619,1.4);
#412=CIRCLE('',#624,12.7);
#413=CIRCLE('',#627,1.);
#414=CIRCLE('',#628,1.);
#415=CIRCLE('',#631,1.);
#416=CIRCLE('',#632,1.);
#417=CIRCLE('',#635,1.4);
#418=CIRCLE('',#638,1.4);
#419=CIRCLE('',#643,1.95);
#420=CIRCLE('',#647,1.875);
#421=CIRCLE('',#652,1.875);
#422=CIRCLE('',#654,1.95);
#423=EDGE_LOOP('',(#135));
#424=EDGE_LOOP('',(#136));
#425=EDGE_LOOP('',(#137,#138,#139,#140,#141,#142,#143,#144,#145,#146,#147,
#148));
#426=EDGE_LOOP('',(#149));
#427=EDGE_LOOP('',(#150));
#428=EDGE_LOOP('',(#151));
#429=EDGE_LOOP('',(#152));
#430=EDGE_LOOP('',(#153));
#431=EDGE_LOOP('',(#154));
#432=EDGE_LOOP('',(#155,#156,#157,#158));
#433=EDGE_LOOP('',(#159));
#434=EDGE_LOOP('',(#160,#161,#162,#163));
#435=EDGE_LOOP('',(#164,#165,#166,#167));
#436=EDGE_LOOP('',(#168,#169,#170,#171));
#437=EDGE_LOOP('',(#172));
#438=EDGE_LOOP('',(#173,#174,#175,#176));
#439=EDGE_LOOP('',(#177,#178,#179,#180));
#440=EDGE_LOOP('',(#181,#182,#183,#184));
#441=EDGE_LOOP('',(#185,#186,#187,#188));
#442=EDGE_LOOP('',(#189,#190,#191,#192,#193,#194,#195,#196,#197,#198,#199,
#200));
#443=EDGE_LOOP('',(#201));
#444=EDGE_LOOP('',(#202));
#445=EDGE_LOOP('',(#203,#204,#205,#206));
#446=EDGE_LOOP('',(#207));
#447=EDGE_LOOP('',(#208));
#448=EDGE_LOOP('',(#209));
#449=EDGE_LOOP('',(#210));
#450=EDGE_LOOP('',(#211));
#451=EDGE_LOOP('',(#212));
#452=EDGE_LOOP('',(#213));
#453=EDGE_LOOP('',(#214));
#454=EDGE_LOOP('',(#215));
#455=EDGE_LOOP('',(#216));
#456=EDGE_LOOP('',(#217));
#457=EDGE_LOOP('',(#218));
#458=EDGE_LOOP('',(#219));
#459=EDGE_LOOP('',(#220));
#460=EDGE_LOOP('',(#221));
#461=EDGE_LOOP('',(#222));
#462=EDGE_LOOP('',(#223,#224,#225,#226));
#463=EDGE_LOOP('',(#227,#228,#229,#230));
#464=EDGE_LOOP('',(#231));
#465=EDGE_LOOP('',(#232,#233,#234,#235));
#466=EDGE_LOOP('',(#236,#237,#238,#239));
#467=EDGE_LOOP('',(#240,#241,#242,#243));
#468=EDGE_LOOP('',(#244));
#469=EDGE_LOOP('',(#245,#246,#247,#248));
#470=EDGE_LOOP('',(#249,#250,#251,#252,#253,#254,#255,#256,#257,#258));
#471=EDGE_LOOP('',(#259,#260,#261,#262,#263,#264,#265,#266,#267,#268));
#472=EDGE_LOOP('',(#269,#270,#271,#272));
#473=EDGE_LOOP('',(#273));
#474=EDGE_LOOP('',(#274));
#475=EDGE_LOOP('',(#275));
#476=EDGE_LOOP('',(#276));
#477=EDGE_LOOP('',(#277));
#478=EDGE_LOOP('',(#278));
#479=FACE_BOUND('',#423,.T.);
#480=FACE_BOUND('',#424,.T.);
#481=FACE_BOUND('',#425,.T.);
#482=FACE_BOUND('',#426,.T.);
#483=FACE_BOUND('',#427,.T.);
#484=FACE_BOUND('',#428,.T.);
#485=FACE_BOUND('',#429,.T.);
#486=FACE_BOUND('',#430,.T.);
#487=FACE_BOUND('',#431,.T.);
#488=FACE_BOUND('',#432,.T.);
#489=FACE_BOUND('',#433,.T.);
#490=FACE_BOUND('',#434,.T.);
#491=FACE_BOUND('',#435,.T.);
#492=FACE_BOUND('',#436,.T.);
#493=FACE_BOUND('',#437,.T.);
#494=FACE_BOUND('',#438,.T.);
#495=FACE_BOUND('',#439,.T.);
#496=FACE_BOUND('',#440,.T.);
#497=FACE_BOUND('',#441,.T.);
#498=FACE_BOUND('',#442,.T.);
#499=FACE_BOUND('',#443,.T.);
#500=FACE_BOUND('',#444,.T.);
#501=FACE_BOUND('',#445,.T.);
#502=FACE_BOUND('',#446,.T.);
#503=FACE_BOUND('',#447,.T.);
#504=FACE_BOUND('',#448,.T.);
#505=FACE_BOUND('',#449,.T.);
#506=FACE_BOUND('',#450,.T.);
#507=FACE_BOUND('',#451,.T.);
#508=FACE_BOUND('',#452,.T.);
#509=FACE_BOUND('',#453,.T.);
#510=FACE_BOUND('',#454,.T.);
#511=FACE_BOUND('',#455,.T.);
#512=FACE_BOUND('',#456,.T.);
#513=FACE_BOUND('',#457,.T.);
#514=FACE_BOUND('',#458,.T.);
#515=FACE_BOUND('',#459,.T.);
#516=FACE_BOUND('',#460,.T.);
#517=FACE_BOUND('',#461,.T.);
#518=FACE_BOUND('',#462,.T.);
#519=FACE_BOUND('',#463,.T.);
#520=FACE_BOUND('',#464,.T.);
#521=FACE_BOUND('',#465,.T.);
#522=FACE_BOUND('',#466,.T.);
#523=FACE_BOUND('',#467,.T.);
#524=FACE_BOUND('',#468,.T.);
#525=FACE_BOUND('',#469,.T.);
#526=FACE_BOUND('',#470,.T.);
#527=FACE_BOUND('',#471,.T.);
#528=FACE_BOUND('',#472,.T.);
#529=FACE_BOUND('',#473,.T.);
#530=FACE_BOUND('',#474,.T.);
#531=FACE_BOUND('',#475,.T.);
#532=FACE_BOUND('',#476,.T.);
#533=FACE_BOUND('',#477,.T.);
#534=FACE_BOUND('',#478,.T.);
#535=PLANE('',#605);
#536=PLANE('',#613);
#537=PLANE('',#614);
#538=PLANE('',#616);
#539=PLANE('',#617);
#540=PLANE('',#618);
#541=PLANE('',#620);
#542=PLANE('',#621);
#543=PLANE('',#622);
#544=PLANE('',#623);
#545=PLANE('',#629);
#546=PLANE('',#633);
#547=PLANE('',#636);
#548=PLANE('',#639);
#549=PLANE('',#640);
#550=PLANE('',#641);
#551=PLANE('',#642);
#552=PLANE('',#644);
#553=PLANE('',#645);
#554=PLANE('',#646);
#555=PLANE('',#648);
#556=PLANE('',#649);
#557=PLANE('',#650);
#558=PLANE('',#655);
#559=ADVANCED_FACE('',(#479,#480,#481),#535,.T.);
#560=ADVANCED_FACE('',(#482,#483,#484),#22,.F.);
#561=ADVANCED_FACE('',(#485,#486,#487),#23,.F.);
#562=ADVANCED_FACE('',(#488),#536,.F.);
#563=ADVANCED_FACE('',(#489,#490),#537,.F.);
#564=ADVANCED_FACE('',(#491),#538,.T.);
#565=ADVANCED_FACE('',(#492),#539,.F.);
#566=ADVANCED_FACE('',(#493,#494),#540,.F.);
#567=ADVANCED_FACE('',(#495),#541,.F.);
#568=ADVANCED_FACE('',(#496),#542,.T.);
#569=ADVANCED_FACE('',(#497),#543,.F.);
#570=ADVANCED_FACE('',(#498,#499,#500),#544,.T.);
#571=ADVANCED_FACE('',(#501),#24,.F.);
#572=ADVANCED_FACE('',(#502,#503,#504),#25,.F.);
#573=ADVANCED_FACE('',(#505),#545,.F.);
#574=ADVANCED_FACE('',(#506,#507,#508),#26,.F.);
#575=ADVANCED_FACE('',(#509),#546,.F.);
#576=ADVANCED_FACE('',(#510,#511),#27,.F.);
#577=ADVANCED_FACE('',(#512,#513),#547,.F.);
#578=ADVANCED_FACE('',(#514,#515),#28,.F.);
#579=ADVANCED_FACE('',(#516,#517),#548,.F.);
#580=ADVANCED_FACE('',(#518),#549,.T.);
#581=ADVANCED_FACE('',(#519),#550,.T.);
#582=ADVANCED_FACE('',(#520,#521),#551,.T.);
#583=ADVANCED_FACE('',(#522),#552,.T.);
#584=ADVANCED_FACE('',(#523),#553,.T.);
#585=ADVANCED_FACE('',(#524,#525),#554,.T.);
#586=ADVANCED_FACE('',(#526),#555,.F.);
#587=ADVANCED_FACE('',(#527),#556,.F.);
#588=ADVANCED_FACE('',(#528),#557,.F.);
#589=ADVANCED_FACE('',(#529,#530),#29,.F.);
#590=ADVANCED_FACE('',(#531,#532),#30,.F.);
#591=ADVANCED_FACE('',(#533,#534),#558,.F.);
#592=CLOSED_SHELL('',(#559,#560,#561,#562,#563,#564,#565,#566,#567,#568,
#569,#570,#571,#572,#573,#574,#575,#576,#577,#578,#579,#580,#581,#582,#583,
#584,#585,#586,#587,#588,#589,#590,#591));
#593=STYLED_ITEM('',(#594),#601);
#594=PRESENTATION_STYLE_ASSIGNMENT((#595));
#595=SURFACE_STYLE_USAGE(.BOTH.,#596);
#596=SURFACE_SIDE_STYLE('',(#597));
#597=SURFACE_STYLE_FILL_AREA(#598);
#598=FILL_AREA_STYLE('',(#599));
#599=FILL_AREA_STYLE_COLOUR('',#600);
#600=COLOUR_RGB('',0.506983280181885,0.531564235687256,0.550000011920929);
#601=MANIFOLD_SOLID_BREP('',#592);
#602=SHAPE_DEFINITION_REPRESENTATION(#1014,#603);
#603=SHAPE_REPRESENTATION(
'27_FDML_stimfix_cage_system_insert_iris_holder',(#604),#1009);
#604=AXIS2_PLACEMENT_3D('',#812,#656,#657);
#605=AXIS2_PLACEMENT_3D('',#813,#658,#659);
#606=AXIS2_PLACEMENT_3D('',#814,#660,#661);
#607=AXIS2_PLACEMENT_3D('',#816,#662,#663);
#608=AXIS2_PLACEMENT_3D('',#833,#671,#672);
#609=AXIS2_PLACEMENT_3D('',#842,#677,#678);
#610=AXIS2_PLACEMENT_3D('',#843,#679,#680);
#611=AXIS2_PLACEMENT_3D('',#865,#681,#682);
#612=AXIS2_PLACEMENT_3D('',#866,#683,#684);
#613=AXIS2_PLACEMENT_3D('',#888,#685,#686);
#614=AXIS2_PLACEMENT_3D('',#894,#690,#691);
#615=AXIS2_PLACEMENT_3D('',#895,#692,#693);
#616=AXIS2_PLACEMENT_3D('',#902,#697,#698);
#617=AXIS2_PLACEMENT_3D('',#908,#702,#703);
#618=AXIS2_PLACEMENT_3D('',#910,#705,#706);
#619=AXIS2_PLACEMENT_3D('',#911,#707,#708);
#620=AXIS2_PLACEMENT_3D('',#916,#711,#712);
#621=AXIS2_PLACEMENT_3D('',#920,#715,#716);
#622=AXIS2_PLACEMENT_3D('',#924,#719,#720);
#623=AXIS2_PLACEMENT_3D('',#928,#723,#724);
#624=AXIS2_PLACEMENT_3D('',#933,#727,#728);
#625=AXIS2_PLACEMENT_3D('',#935,#730,#731);
#626=AXIS2_PLACEMENT_3D('',#936,#732,#733);
#627=AXIS2_PLACEMENT_3D('',#937,#734,#735);
#628=AXIS2_PLACEMENT_3D('',#939,#736,#737);
#629=AXIS2_PLACEMENT_3D('',#941,#738,#739);
#630=AXIS2_PLACEMENT_3D('',#942,#740,#741);
#631=AXIS2_PLACEMENT_3D('',#943,#742,#743);
#632=AXIS2_PLACEMENT_3D('',#945,#744,#745);
#633=AXIS2_PLACEMENT_3D('',#947,#746,#747);
#634=AXIS2_PLACEMENT_3D('',#948,#748,#749);
#635=AXIS2_PLACEMENT_3D('',#949,#750,#751);
#636=AXIS2_PLACEMENT_3D('',#951,#752,#753);
#637=AXIS2_PLACEMENT_3D('',#952,#754,#755);
#638=AXIS2_PLACEMENT_3D('',#953,#756,#757);
#639=AXIS2_PLACEMENT_3D('',#955,#758,#759);
#640=AXIS2_PLACEMENT_3D('',#956,#760,#761);
#641=AXIS2_PLACEMENT_3D('',#962,#765,#766);
#642=AXIS2_PLACEMENT_3D('',#971,#771,#772);
#643=AXIS2_PLACEMENT_3D('',#972,#773,#774);
#644=AXIS2_PLACEMENT_3D('',#979,#778,#779);
#645=AXIS2_PLACEMENT_3D('',#982,#782,#783);
#646=AXIS2_PLACEMENT_3D('',#988,#787,#788);
#647=AXIS2_PLACEMENT_3D('',#989,#789,#790);
#648=AXIS2_PLACEMENT_3D('',#996,#794,#795);
#649=AXIS2_PLACEMENT_3D('',#998,#797,#798);
#650=AXIS2_PLACEMENT_3D('',#1000,#800,#801);
#651=AXIS2_PLACEMENT_3D('',#1001,#802,#803);
#652=AXIS2_PLACEMENT_3D('',#1002,#804,#805);
#653=AXIS2_PLACEMENT_3D('',#1004,#806,#807);
#654=AXIS2_PLACEMENT_3D('',#1005,#808,#809);
#655=AXIS2_PLACEMENT_3D('',#1007,#810,#811);
#656=DIRECTION('',(0.,0.,1.));
#657=DIRECTION('',(1.,0.,0.));
#658=DIRECTION('',(3.46944695195361E-17,0.,-1.));
#659=DIRECTION('',(-1.,0.,-3.46944695195361E-17));
#660=DIRECTION('',(6.64814999274537E-17,0.,-1.));
#661=DIRECTION('',(-1.,0.,-6.64814999274537E-17));
#662=DIRECTION('',(6.64814999274537E-17,0.,-1.));
#663=DIRECTION('',(-1.,0.,-6.64814999274537E-17));
#664=DIRECTION('',(0.,-1.,0.));
#665=DIRECTION('',(-1.,0.,-3.46944695195361E-17));
#666=DIRECTION('',(0.,-1.,0.));
#667=DIRECTION('',(1.,0.,6.64814999274537E-17));
#668=DIRECTION('',(-0.707106781186548,0.707106781186548,-4.70095194221555E-17));
#669=DIRECTION('',(0.,1.,0.));
#670=DIRECTION('',(1.,0.,6.64814999274537E-17));
#671=DIRECTION('',(3.46944695195361E-17,0.,-1.));
#672=DIRECTION('',(-1.,0.,-3.46944695195361E-17));
#673=DIRECTION('',(1.,0.,6.64814999274537E-17));
#674=DIRECTION('',(0.,-1.,0.));
#675=DIRECTION('',(-0.707106781186548,-0.707106781186547,-4.70095194221555E-17));
#676=DIRECTION('',(1.,0.,6.64814999274537E-17));
#677=DIRECTION('',(0.,0.,1.));
#678=DIRECTION('',(1.,0.,0.));
#679=DIRECTION('',(0.,0.,-1.));
#680=DIRECTION('',(-1.,0.,0.));
#681=DIRECTION('',(0.,0.,1.));
#682=DIRECTION('',(1.,0.,0.));
#683=DIRECTION('',(0.,0.,-1.));
#684=DIRECTION('',(-1.,0.,0.));
#685=DIRECTION('',(0.,-1.,0.));
#686=DIRECTION('',(0.,0.,-1.));
#687=DIRECTION('',(0.,0.,-1.));
#688=DIRECTION('',(0.,0.,-1.));
#689=DIRECTION('',(1.,0.,0.));
#690=DIRECTION('',(-1.,0.,0.));
#691=DIRECTION('',(0.,0.,1.));
#692=DIRECTION('',(-1.,0.,0.));
#693=DIRECTION('',(0.,0.,-1.));
#694=DIRECTION('',(0.,0.,1.));
#695=DIRECTION('',(0.,-1.,0.));
#696=DIRECTION('',(0.,0.,-1.));
#697=DIRECTION('',(0.,-1.,0.));
#698=DIRECTION('',(0.,0.,-1.));
#699=DIRECTION('',(4.15300682189637E-17,0.,-1.));
#700=DIRECTION('',(0.,0.,-1.));
#701=DIRECTION('',(1.,0.,0.));
#702=DIRECTION('',(-0.707106781186547,0.707106781186548,0.));
#703=DIRECTION('',(-0.707106781186548,-0.707106781186547,0.));
#704=DIRECTION('',(-0.707106781186548,-0.707106781186547,0.));
#705=DIRECTION('',(1.,0.,0.));
#706=DIRECTION('',(0.,0.,-1.));
#707=DIRECTION('',(1.,0.,0.));
#708=DIRECTION('',(0.,0.,1.));
#709=DIRECTION('',(0.,0.,-1.));
#710=DIRECTION('',(0.,1.,0.));
#711=DIRECTION('',(0.707106781186547,0.707106781186547,0.));
#712=DIRECTION('',(-0.707106781186548,0.707106781186548,0.));
#713=DIRECTION('',(0.,0.,-1.));
#714=DIRECTION('',(-0.707106781186548,0.707106781186548,0.));
#715=DIRECTION('',(0.,-1.,0.));
#716=DIRECTION('',(0.,0.,-1.));
#717=DIRECTION('',(-4.15300682189637E-17,0.,1.));
#718=DIRECTION('',(1.,0.,0.));
#719=DIRECTION('',(0.,-1.,0.));
#720=DIRECTION('',(0.,0.,-1.));
#721=DIRECTION('',(0.,0.,-1.));
#722=DIRECTION('',(1.,0.,0.));
#723=DIRECTION('',(-6.93889390390723E-17,0.,1.));
#724=DIRECTION('',(1.,0.,6.93889390390723E-17));
#725=DIRECTION('',(-1.,0.,0.));
#726=DIRECTION('',(0.,-1.,0.));
#727=DIRECTION('',(-6.93889390390723E-17,0.,1.));
#728=DIRECTION('',(1.,0.,6.93889390390723E-17));
#729=DIRECTION('',(0.,-1.,0.));
#730=DIRECTION('',(0.,0.,-1.));
#731=DIRECTION('',(-1.,0.,0.));
#732=DIRECTION('',(1.,0.,0.));
#733=DIRECTION('',(0.,0.,-1.));
#734=DIRECTION('',(-1.,0.,0.));
#735=DIRECTION('',(0.,0.,1.));
#736=DIRECTION('',(-1.,0.,0.));
#737=DIRECTION('',(0.,0.,-1.));
#738=DIRECTION('',(-1.,0.,0.));
#739=DIRECTION('',(0.,0.,1.));
#740=DIRECTION('',(-1.,0.,0.));
#741=DIRECTION('',(0.,0.,1.));
#742=DIRECTION('',(1.,0.,0.));
#743=DIRECTION('',(0.,0.,-1.));
#744=DIRECTION('',(1.,0.,0.));
#745=DIRECTION('',(0.,0.,1.));
#746=DIRECTION('',(1.,0.,0.));
#747=DIRECTION('',(0.,0.,-1.));
#748=DIRECTION('',(-1.,0.,0.));
#749=DIRECTION('',(0.,0.,1.));
#750=DIRECTION('',(1.,0.,0.));
#751=DIRECTION('',(0.,0.,1.));
#752=DIRECTION('',(1.,0.,0.));
#753=DIRECTION('',(0.,0.,-1.));
#754=DIRECTION('',(1.,0.,0.));
#755=DIRECTION('',(0.,0.,-1.));
#756=DIRECTION('',(-1.,0.,0.));
#757=DIRECTION('',(0.,0.,-1.));
#758=DIRECTION('',(-1.,0.,0.));
#759=DIRECTION('',(0.,0.,1.));
#760=DIRECTION('',(0.,-1.,0.));
#761=DIRECTION('',(0.,0.,-1.));
#762=DIRECTION('',(-1.04926128162811E-16,0.,-1.));
#763=DIRECTION('',(1.,0.,2.77555756156289E-16));
#764=DIRECTION('',(1.04926128162812E-16,0.,1.));
#765=DIRECTION('',(0.,-1.,0.));
#766=DIRECTION('',(0.,0.,-1.));
#767=DIRECTION('',(1.,0.,3.46944695195361E-17));
#768=DIRECTION('',(-3.20453844084385E-17,0.,1.));
#769=DIRECTION('',(1.,0.,3.46944695195361E-17));
#770=DIRECTION('',(-4.15300682189637E-17,0.,1.));
#771=DIRECTION('',(0.,1.,0.));
#772=DIRECTION('',(0.,0.,1.));
#773=DIRECTION('',(0.,-1.,0.));
#774=DIRECTION('',(0.,0.,-1.));
#775=DIRECTION('',(-4.15300682189637E-17,0.,1.));
#776=DIRECTION('',(-1.,0.,-3.46944695195361E-17));
#777=DIRECTION('',(-3.20453844084385E-17,0.,1.));
#778=DIRECTION('',(3.46944695195361E-17,0.,-1.));
#779=DIRECTION('',(-1.,0.,-3.46944695195361E-17));
#780=DIRECTION('',(0.,-1.,0.));
#781=DIRECTION('',(0.,-1.,0.));
#782=DIRECTION('',(3.46944695195361E-17,0.,-1.));
#783=DIRECTION('',(-1.,0.,-3.46944695195361E-17));
#784=DIRECTION('',(-1.,0.,-3.46944695195361E-17));
#785=DIRECTION('',(0.,1.,0.));
#786=DIRECTION('',(0.,-1.,0.));
#787=DIRECTION('',(0.,-1.,0.));
#788=DIRECTION('',(0.,0.,-1.));
#789=DIRECTION('',(0.,-1.,0.));
#790=DIRECTION('',(0.,0.,-1.));
#791=DIRECTION('',(1.,0.,2.77555756156289E-16));
#792=DIRECTION('',(-4.15300682189637E-17,0.,1.));
#793=DIRECTION('',(4.15300682189637E-17,0.,-1.));
#794=DIRECTION('',(1.,0.,4.15300682189637E-17));
#795=DIRECTION('',(4.15300682189637E-17,0.,-1.));
#796=DIRECTION('',(0.,-1.,0.));
#797=DIRECTION('',(-1.,0.,-4.15300682189637E-17));
#798=DIRECTION('',(-4.15300682189637E-17,0.,1.));
#799=DIRECTION('',(0.,-1.,0.));
#800=DIRECTION('',(2.77555756156289E-16,0.,-1.));
#801=DIRECTION('',(-1.,0.,-2.77555756156289E-16));
#802=DIRECTION('',(0.,1.,0.));
#803=DIRECTION('',(0.,0.,1.));
#804=DIRECTION('',(0.,-1.,0.));
#805=DIRECTION('',(0.,0.,-1.));
#806=DIRECTION('',(0.,1.,0.));
#807=DIRECTION('',(0.,0.,1.));
#808=DIRECTION('',(0.,-1.,0.));
#809=DIRECTION('',(0.,0.,-1.));
#810=DIRECTION('',(0.,-1.,0.));
#811=DIRECTION('',(0.,0.,-1.));
#812=CARTESIAN_POINT('',(0.,0.,0.));
#813=CARTESIAN_POINT('',(-12.5,-44.51,-0.810000000000002));
#814=CARTESIAN_POINT('',(-15.,-15.,-0.809999999999998));
#815=CARTESIAN_POINT('',(-18.075,-15.,-0.809999999999998));
#816=CARTESIAN_POINT('',(15.,-15.,-0.809999999999998));
#817=CARTESIAN_POINT('',(11.925,-15.,-0.809999999999998));
#818=CARTESIAN_POINT('',(12.5,-44.51,-0.810000000000001));
#819=CARTESIAN_POINT('',(12.5,-20.3,-0.809999999999996));
#820=CARTESIAN_POINT('',(12.5,-32.405,-0.810000000000001));
#821=CARTESIAN_POINT('',(-12.5,-32.405,-0.810000000000002));
#822=CARTESIAN_POINT('',(-12.5,-32.405,-0.810000000000002));
#823=CARTESIAN_POINT('',(-12.5,-44.51,-0.810000000000002));
#824=CARTESIAN_POINT('',(-12.5,-20.3,-0.809999999999998));
#825=CARTESIAN_POINT('',(-17.65,-20.3,-0.809999999999998));
#826=CARTESIAN_POINT('',(-17.65,-20.3,-0.810000000000001));
#827=CARTESIAN_POINT('',(-20.3,-17.65,-0.810000000000002));
#828=CARTESIAN_POINT('',(-20.3,-17.65,-0.810000000000002));
#829=CARTESIAN_POINT('',(-20.3,17.65,-0.810000000000002));
#830=CARTESIAN_POINT('',(-20.3,0.,-0.81));
#831=CARTESIAN_POINT('',(-3.37651719532967E-15,0.,-0.809999999999998));
#832=CARTESIAN_POINT('',(-12.7,-1.55530143491714E-15,-0.810000000000005));
#833=CARTESIAN_POINT('',(0.,0.,-0.810000000000005));
#834=CARTESIAN_POINT('',(12.7,0.,-0.810000000000004));
#835=CARTESIAN_POINT('',(-3.37651719532967E-15,0.,-0.809999999999998));
#836=CARTESIAN_POINT('',(20.3,0.,-0.809999999999997));
#837=CARTESIAN_POINT('',(20.3,-17.65,-0.81));
#838=CARTESIAN_POINT('',(20.3,-17.65,-0.81));
#839=CARTESIAN_POINT('',(18.975,-18.975,-0.81));
#840=CARTESIAN_POINT('',(17.65,-20.3,-0.81));
#841=CARTESIAN_POINT('',(-17.65,-20.3,-0.809999999999998));
#842=CARTESIAN_POINT('',(-15.,-15.,-51.4487583904587));
#843=CARTESIAN_POINT('',(-15.,-15.,8.69));
#844=CARTESIAN_POINT('',(-18.075,-15.,8.69));
#845=CARTESIAN_POINT('',(-14.4277598745834,-11.9609966147183,3.06048339734575));
#846=CARTESIAN_POINT('',(-15.0015102482667,-11.907208358721,3.03655756077782));
#847=CARTESIAN_POINT('',(-15.5661991323497,-11.9601699503975,3.06010294559161));
#848=CARTESIAN_POINT('',(-16.1108772890416,-12.1138338679635,3.15636821858884));
#849=CARTESIAN_POINT('',(-16.5910055225023,-12.3556502408516,3.38726887226614));
#850=CARTESIAN_POINT('',(-16.8476576859297,-12.5421195756513,3.93872050292628));
#851=CARTESIAN_POINT('',(-16.5913499488102,-12.3558693898517,4.49286913537983));
#852=CARTESIAN_POINT('',(-16.1121706266398,-12.1145215608209,4.72292265725292));
#853=CARTESIAN_POINT('',(-15.5692684033139,-11.9604923536663,4.81978847802402));
#854=CARTESIAN_POINT('',(-14.9992020308116,-11.9073315918095,4.84338238129636));
#855=CARTESIAN_POINT('',(-14.4332526351625,-11.9601812912914,4.81986540468167));
#856=CARTESIAN_POINT('',(-13.8885673894573,-12.1140444692563,4.72360126296262));
#857=CARTESIAN_POINT('',(-13.4081163928708,-12.3561944071128,4.49169347919447));
#858=CARTESIAN_POINT('',(-13.1527510981448,-12.5418752723584,3.94173893320959));
#859=CARTESIAN_POINT('',(-13.4078948842619,-12.3563011188149,3.38772382227753));
#860=CARTESIAN_POINT('',(-13.8874531458345,-12.1147896406524,3.15728971388166));
#861=CARTESIAN_POINT('',(-14.4277598745834,-11.9609966147183,3.06048339734575));
#862=CARTESIAN_POINT('',(-15.0015102482667,-11.907208358721,3.03655756077782));
#863=CARTESIAN_POINT('',(-15.5661991323497,-11.9601699503975,3.06010294559161));
#864=CARTESIAN_POINT('',(-15.,-11.925,3.04446943100811));
#865=CARTESIAN_POINT('',(15.,-15.,-51.4487583904587));
#866=CARTESIAN_POINT('',(15.,-15.,8.69));
#867=CARTESIAN_POINT('',(11.925,-15.,8.69));
#868=CARTESIAN_POINT('',(15.5722401254166,-11.9609966147183,3.06048339734576));
#869=CARTESIAN_POINT('',(14.9984897517333,-11.907208358721,3.03655756077782));
#870=CARTESIAN_POINT('',(14.4338008676503,-11.9601699503975,3.06010294559162));
#871=CARTESIAN_POINT('',(13.8891227109584,-12.1138338679635,3.15636821858884));
#872=CARTESIAN_POINT('',(13.4089944774977,-12.3556502408516,3.38726887226614));
#873=CARTESIAN_POINT('',(13.1523423140703,-12.5421195756513,3.93872050292628));
#874=CARTESIAN_POINT('',(13.4086500511898,-12.3558693898517,4.49286913537983));
#875=CARTESIAN_POINT('',(13.8878293733602,-12.1145215608209,4.72292265725292));
#876=CARTESIAN_POINT('',(14.4307315966861,-11.9604923536663,4.81978847802402));
#877=CARTESIAN_POINT('',(15.0007979691884,-11.9073315918095,4.84338238129635));
#878=CARTESIAN_POINT('',(15.5667473648375,-11.9601812912914,4.81986540468167));
#879=CARTESIAN_POINT('',(16.1114326105427,-12.1140444692563,4.72360126296262));
#880=CARTESIAN_POINT('',(16.5918836071292,-12.3561944071128,4.49169347919447));
#881=CARTESIAN_POINT('',(16.8472489018552,-12.5418752723584,3.94173893320958));
#882=CARTESIAN_POINT('',(16.5921051157381,-12.3563011188149,3.38772382227753));
#883=CARTESIAN_POINT('',(16.1125468541655,-12.1147896406524,3.15728971388166));
#884=CARTESIAN_POINT('',(15.5722401254166,-11.9609966147183,3.06048339734576));
#885=CARTESIAN_POINT('',(14.9984897517333,-11.907208358721,3.03655756077782));
#886=CARTESIAN_POINT('',(14.4338008676503,-11.9601699503975,3.06010294559162));
#887=CARTESIAN_POINT('',(15.,-11.925,3.04446943100811));
#888=CARTESIAN_POINT('',(0.,0.,-51.5988239437168));
#889=CARTESIAN_POINT('',(-12.7,0.,31.5090157654523));
#890=CARTESIAN_POINT('',(-12.7,0.,8.69));
#891=CARTESIAN_POINT('',(-20.3,0.,14.));
#892=CARTESIAN_POINT('',(-20.3,0.,8.69));
#893=CARTESIAN_POINT('',(0.,0.,8.69));
#894=CARTESIAN_POINT('',(20.3,-17.65,14.));
#895=CARTESIAN_POINT('',(20.3,-11.4799999999988,3.94));
#896=CARTESIAN_POINT('',(20.3,-11.4799999999988,2.54));
#897=CARTESIAN_POINT('',(20.3,0.,14.));
#898=CARTESIAN_POINT('',(20.3,0.,8.69));
#899=CARTESIAN_POINT('',(20.3,-17.65,8.69));
#900=CARTESIAN_POINT('',(20.3,-17.65,8.69));
#901=CARTESIAN_POINT('',(20.3,-17.65,14.));
#902=CARTESIAN_POINT('',(-17.65,-20.3,-42.878204063276));
#903=CARTESIAN_POINT('',(12.5,-20.3,0.0931372549019616));
#904=CARTESIAN_POINT('',(12.5,-20.3,8.69));
#905=CARTESIAN_POINT('',(17.65,-20.3,14.));
#906=CARTESIAN_POINT('',(17.65,-20.3,8.69));
#907=CARTESIAN_POINT('',(-17.65,-20.3,8.69));
#908=CARTESIAN_POINT('',(18.975,-18.975,14.));
#909=CARTESIAN_POINT('',(18.975,-18.975,8.69));
#910=CARTESIAN_POINT('',(-20.3,17.65,14.));
#911=CARTESIAN_POINT('',(-20.3,-11.4799999999988,3.94));
#912=CARTESIAN_POINT('',(-20.3,-11.4799999999988,5.34));
#913=CARTESIAN_POINT('',(-20.3,-17.65,14.));
#914=CARTESIAN_POINT('',(-20.3,-17.65,8.69));
#915=CARTESIAN_POINT('',(-20.3,17.65,8.69));
#916=CARTESIAN_POINT('',(-20.3,-17.65,14.));
#917=CARTESIAN_POINT('',(-17.65,-20.3,14.));
#918=CARTESIAN_POINT('',(-17.65,-20.3,8.69));
#919=CARTESIAN_POINT('',(-20.3,-17.65,8.69));
#920=CARTESIAN_POINT('',(-17.65,-20.3,-42.878204063276));
#921=CARTESIAN_POINT('',(-12.5,-20.3,9.40686274509804));
#922=CARTESIAN_POINT('',(-12.5,-20.3,8.69));
#923=CARTESIAN_POINT('',(-17.65,-20.3,8.69));
#924=CARTESIAN_POINT('',(0.,0.,-51.5988239437168));
#925=CARTESIAN_POINT('',(12.7,0.,31.5090157654523));
#926=CARTESIAN_POINT('',(12.7,0.,8.69));
#927=CARTESIAN_POINT('',(0.,0.,8.69));
#928=CARTESIAN_POINT('',(12.5,-44.51,8.69));
#929=CARTESIAN_POINT('',(12.5,-44.51,8.69));
#930=CARTESIAN_POINT('',(12.5,-44.51,8.69));
#931=CARTESIAN_POINT('',(-12.5,-44.51,8.69));
#932=CARTESIAN_POINT('',(12.5,-44.51,8.69));
#933=CARTESIAN_POINT('',(0.,0.,8.69));
#934=CARTESIAN_POINT('',(-12.5,-44.51,8.69));
#935=CARTESIAN_POINT('',(0.,0.,31.5090157654523));
#936=CARTESIAN_POINT('',(12.5,-11.4799999999988,3.94));
#937=CARTESIAN_POINT('',(17.8,-11.4799999999988,3.94));
#938=CARTESIAN_POINT('',(17.8,-11.4799999999988,4.94));
#939=CARTESIAN_POINT('',(12.5,-11.4799999999988,3.94));
#940=CARTESIAN_POINT('',(12.5,-11.4799999999988,2.94));
#941=CARTESIAN_POINT('',(12.5,-11.4799999999988,3.94));
#942=CARTESIAN_POINT('',(-12.5,-11.4799999999988,3.94));
#943=CARTESIAN_POINT('',(-17.8,-11.4799999999988,3.94));
#944=CARTESIAN_POINT('',(-17.8,-11.4799999999988,2.94));
#945=CARTESIAN_POINT('',(-12.5,-11.4799999999988,3.94));
#946=CARTESIAN_POINT('',(-12.5,-11.4799999999988,4.94));
#947=CARTESIAN_POINT('',(-12.5,-11.4799999999988,3.94));
#948=CARTESIAN_POINT('',(-17.8,-11.4799999999988,3.94));
#949=CARTESIAN_POINT('',(-17.8,-11.4799999999988,3.94));
#950=CARTESIAN_POINT('',(-17.8,-11.4799999999988,5.34));
#951=CARTESIAN_POINT('',(-17.8,-11.4799999999988,3.94));
#952=CARTESIAN_POINT('',(17.8,-11.4799999999988,3.94));
#953=CARTESIAN_POINT('',(17.8,-11.4799999999988,3.94));
#954=CARTESIAN_POINT('',(17.8,-11.4799999999988,2.54));
#955=CARTESIAN_POINT('',(17.8,-11.4799999999988,3.94));
#956=CARTESIAN_POINT('',(0.,-44.51,0.));
#957=CARTESIAN_POINT('',(-12.5,-44.51,-7.84280747465566));
#958=CARTESIAN_POINT('',(-12.5,-44.51,-7.84280747465566));
#959=CARTESIAN_POINT('',(12.5,-44.51,-7.84280747465565));
#960=CARTESIAN_POINT('',(12.5,-44.51,-7.84280747465566));
#961=CARTESIAN_POINT('',(12.5,-44.51,8.69));
#962=CARTESIAN_POINT('',(0.,-44.51,0.));
#963=CARTESIAN_POINT('',(-12.5,-44.51,-17.3428074746557));
#964=CARTESIAN_POINT('',(-12.5,-44.51,-17.3428074746557));
#965=CARTESIAN_POINT('',(12.5,-44.51,-17.3428074746557));
#966=CARTESIAN_POINT('',(-12.5,-44.51,-26.81));
#967=CARTESIAN_POINT('',(-12.5,-44.51,-26.81));
#968=CARTESIAN_POINT('',(9.30158727818764E-16,-44.51,-26.81));
#969=CARTESIAN_POINT('',(12.5,-44.51,-26.81));
#970=CARTESIAN_POINT('',(12.5,-44.51,0.0931372549019616));
#971=CARTESIAN_POINT('',(-12.5,-32.405,-26.81));
#972=CARTESIAN_POINT('',(1.73472347597681E-15,-32.405,-12.5928074746557));
#973=CARTESIAN_POINT('',(1.73472347597681E-15,-32.405,-14.5428074746557));
#974=CARTESIAN_POINT('',(12.5,-32.405,-26.81));
#975=CARTESIAN_POINT('',(12.5,-32.405,-26.81));
#976=CARTESIAN_POINT('',(-12.5,-32.405,-26.81));
#977=CARTESIAN_POINT('',(-12.5,-32.405,-26.81));
#978=CARTESIAN_POINT('',(-12.5,-32.405,-26.81));
#979=CARTESIAN_POINT('',(-12.5,-44.51,-26.81));
#980=CARTESIAN_POINT('',(12.5,-20.3,-26.81));
#981=CARTESIAN_POINT('',(-12.5,-44.51,-26.81));
#982=CARTESIAN_POINT('',(6.01699505312624E-16,0.,-17.3428074746557));
#983=CARTESIAN_POINT('',(12.5,-49.51,-17.3428074746557));
#984=CARTESIAN_POINT('',(12.5,-49.51,-17.3428074746557));
#985=CARTESIAN_POINT('',(-12.5,-49.51,-17.3428074746557));
#986=CARTESIAN_POINT('',(-12.5,-49.51,-17.3428074746557));
#987=CARTESIAN_POINT('',(12.5,-44.51,-17.3428074746557));
#988=CARTESIAN_POINT('',(0.,-49.51,0.));
#989=CARTESIAN_POINT('',(1.73472347597681E-15,-49.51,-12.5928074746557));
#990=CARTESIAN_POINT('',(1.73472347597681E-15,-49.51,-14.4678074746557));
#991=CARTESIAN_POINT('',(12.5,-49.51,-7.84280747465565));
#992=CARTESIAN_POINT('',(-12.5,-49.51,-7.84280747465566));
#993=CARTESIAN_POINT('',(12.5,-49.51,-7.84280747465565));
#994=CARTESIAN_POINT('',(-12.5,-49.51,9.40686274509804));
#995=CARTESIAN_POINT('',(12.5,-49.51,0.0931372549019616));
#996=CARTESIAN_POINT('',(-12.5,-20.3,9.40686274509804));
#997=CARTESIAN_POINT('',(-12.5,-44.51,-7.84280747465566));
#998=CARTESIAN_POINT('',(12.5,-20.3,0.0931372549019616));
#999=CARTESIAN_POINT('',(12.5,-44.51,-7.84280747465565));
#1000=CARTESIAN_POINT('',(12.5,-44.51,-7.84280747465565));
#1001=CARTESIAN_POINT('',(1.73472347597681E-15,-68.9544060829905,-12.5928074746557));
#1002=CARTESIAN_POINT('',(1.73472347597681E-15,-37.405,-12.5928074746557));
#1003=CARTESIAN_POINT('',(1.73472347597681E-15,-37.405,-14.4678074746557));
#1004=CARTESIAN_POINT('',(1.73472347597681E-15,-37.405,-12.5928074746557));
#1005=CARTESIAN_POINT('',(1.73472347597681E-15,-37.405,-12.5928074746557));
#1006=CARTESIAN_POINT('',(1.73472347597681E-15,-37.405,-14.5428074746557));
#1007=CARTESIAN_POINT('',(1.73472347597681E-15,-37.405,-12.5928074746557));
#1008=MECHANICAL_DESIGN_GEOMETRIC_PRESENTATION_REPRESENTATION('',(#593),
#1009);
#1009=(
GEOMETRIC_REPRESENTATION_CONTEXT(3)
GLOBAL_UNCERTAINTY_ASSIGNED_CONTEXT((#1010))
GLOBAL_UNIT_ASSIGNED_CONTEXT((#1013,#1012,#1011))
REPRESENTATION_CONTEXT('27_FDML_stimfix_cage_system_insert_iris_holder',
'TOP_LEVEL_ASSEMBLY_PART')
);
#1010=UNCERTAINTY_MEASURE_WITH_UNIT(LENGTH_MEASURE(0.005),#1013,
'DISTANCE_ACCURACY_VALUE','Maximum Tolerance applied to model');
#1011=(
NAMED_UNIT(*)
SI_UNIT($,.STERADIAN.)
SOLID_ANGLE_UNIT()
);
#1012=(
NAMED_UNIT(*)
PLANE_ANGLE_UNIT()
SI_UNIT($,.RADIAN.)
);
#1013=(
LENGTH_UNIT()
NAMED_UNIT(*)
SI_UNIT(.MILLI.,.METRE.)
);
#1014=PRODUCT_DEFINITION_SHAPE('','',#1015);
#1015=PRODUCT_DEFINITION('','',#1017,#1016);
#1016=PRODUCT_DEFINITION_CONTEXT('',#1023,'design');
#1017=PRODUCT_DEFINITION_FORMATION_WITH_SPECIFIED_SOURCE('','',#1019,
 .NOT_KNOWN.);
#1018=PRODUCT_RELATED_PRODUCT_CATEGORY('','',(#1019));
#1019=PRODUCT('27_FDML_stimfix_cage_system_insert_iris_holder',
'27_FDML_stimfix_cage_system_insert_iris_holder',
'27_FDML_stimfix_cage_system_insert_iris_holder',(#1021));
#1020=PRODUCT_CATEGORY('','');
#1021=PRODUCT_CONTEXT('',#1023,'mechanical');
#1022=APPLICATION_PROTOCOL_DEFINITION('international standard',
'automotive_design',2010,#1023);
#1023=APPLICATION_CONTEXT(
'core data for automotive mechanical design processes');
ENDSEC;
END-ISO-10303-21;
