ISO-10303-21;
HEADER;
/* Generated by software containing ST-Developer
 * from STEP Tools, Inc. (www.steptools.com) 
 */
/* OPTION: strings as raw bytes, not using required /X/ escapes */

FILE_DESCRIPTION(
/* description */ ('Unknown'),
/* implementation_level */ '2;1');

FILE_NAME(
/* name */ '12_FDML_stimfix_Badal_stage_bottom',
/* time_stamp */ '2026-09-07T14:57:49+02:00',
/* author */ ('Unknown'),
/* organization */ ('Unknown'),
/* preprocessor_version */ 'ST-DEVELOPER v16.7',
/* originating_system */ 'Solid Edge',
/* authorisation */ 'Unknown');

FILE_SCHEMA (('AUTOMOTIVE_DESIGN {1 0 10303 214 3 1 1}'));
ENDSEC;

DATA;
#10=PROPERTY_DEFINITION_REPRESENTATION(#14,#12);
#11=PROPERTY_DEFINITION_REPRESENTATION(#15,#13);
#12=REPRESENTATION('',(#16),#2440);
#13=REPRESENTATION('',(#17),#2440);
#14=PROPERTY_DEFINITION('pmi validation property','',#2445);
#15=PROPERTY_DEFINITION('pmi validation property','',#2445);
#16=VALUE_REPRESENTATION_ITEM('number of annotations',COUNT_MEASURE(0.));
#17=VALUE_REPRESENTATION_ITEM('number of views',COUNT_MEASURE(0.));
#18=SHAPE_REPRESENTATION_RELATIONSHIP('','',#1418,#19);
#19=ADVANCED_BREP_SHAPE_REPRESENTATION('',(#1416),#2440);
#20=LINE('',#2073,#65);
#21=LINE('',#2076,#66);
#22=LINE('',#2078,#67);
#23=LINE('',#2080,#68);
#24=LINE('',#2082,#69);
#25=LINE('',#2084,#70);
#26=LINE('',#2086,#71);
#27=LINE('',#2088,#72);
#28=LINE('',#2090,#73);
#29=LINE('',#2092,#74);
#30=LINE('',#2098,#75);
#31=LINE('',#2101,#76);
#32=LINE('',#2103,#77);
#33=LINE('',#2105,#78);
#34=LINE('',#2115,#79);
#35=LINE('',#2117,#80);
#36=LINE('',#2119,#81);
#37=LINE('',#2129,#82);
#38=LINE('',#2131,#83);
#39=LINE('',#2133,#84);
#40=LINE('',#2135,#85);
#41=LINE('',#2137,#86);
#42=LINE('',#2139,#87);
#43=LINE('',#2141,#88);
#44=LINE('',#2149,#89);
#45=LINE('',#2151,#90);
#46=LINE('',#2153,#91);
#47=LINE('',#2155,#92);
#48=LINE('',#2161,#93);
#49=LINE('',#2187,#94);
#50=LINE('',#2189,#95);
#51=LINE('',#2191,#96);
#52=LINE('',#2193,#97);
#53=LINE('',#2195,#98);
#54=LINE('',#2234,#99);
#55=LINE('',#2236,#100);
#56=LINE('',#2237,#101);
#57=LINE('',#2239,#102);
#58=LINE('',#2275,#103);
#59=LINE('',#2276,#104);
#60=LINE('',#2278,#105);
#61=LINE('',#2279,#106);
#62=LINE('',#2281,#107);
#63=LINE('',#2398,#108);
#64=LINE('',#2401,#109);
#65=VECTOR('',#1631,1000.);
#66=VECTOR('',#1632,1000.);
#67=VECTOR('',#1633,1000.);
#68=VECTOR('',#1634,1000.);
#69=VECTOR('',#1635,1000.);
#70=VECTOR('',#1636,1000.);
#71=VECTOR('',#1637,1000.);
#72=VECTOR('',#1638,1000.);
#73=VECTOR('',#1639,1000.);
#74=VECTOR('',#1640,1000.);
#75=VECTOR('',#1647,1000.);
#76=VECTOR('',#1648,1000.);
#77=VECTOR('',#1649,1000.);
#78=VECTOR('',#1650,1000.);
#79=VECTOR('',#1661,1000.);
#80=VECTOR('',#1662,1000.);
#81=VECTOR('',#1663,1000.);
#82=VECTOR('',#1674,1000.);
#83=VECTOR('',#1675,1000.);
#84=VECTOR('',#1676,1000.);
#85=VECTOR('',#1677,1000.);
#86=VECTOR('',#1678,1000.);
#87=VECTOR('',#1679,1000.);
#88=VECTOR('',#1680,1000.);
#89=VECTOR('',#1689,1000.);
#90=VECTOR('',#1690,1000.);
#91=VECTOR('',#1691,1000.);
#92=VECTOR('',#1694,1000.);
#93=VECTOR('',#1701,1000.);
#94=VECTOR('',#1728,1000.);
#95=VECTOR('',#1729,1000.);
#96=VECTOR('',#1732,1000.);
#97=VECTOR('',#1733,1000.);
#98=VECTOR('',#1736,1000.);
#99=VECTOR('',#1787,1000.);
#100=VECTOR('',#1788,1000.);
#101=VECTOR('',#1789,1000.);
#102=VECTOR('',#1790,1000.);
#103=VECTOR('',#1829,1000.);
#104=VECTOR('',#1830,1000.);
#105=VECTOR('',#1831,1000.);
#106=VECTOR('',#1832,1000.);
#107=VECTOR('',#1833,1000.);
#108=VECTOR('',#2002,1000.);
#109=VECTOR('',#2007,1000.);
#110=PLANE('',#1423);
#111=PLANE('',#1427);
#112=PLANE('',#1428);
#113=PLANE('',#1433);
#114=PLANE('',#1438);
#115=PLANE('',#1442);
#116=PLANE('',#1443);
#117=PLANE('',#1458);
#118=PLANE('',#1459);
#119=PLANE('',#1460);
#120=PLANE('',#1470);
#121=PLANE('',#1474);
#122=PLANE('',#1478);
#123=PLANE('',#1483);
#124=PLANE('',#1498);
#125=PLANE('',#1499);
#126=PLANE('',#1500);
#127=PLANE('',#1535);
#128=PLANE('',#1538);
#129=PLANE('',#1541);
#130=PLANE('',#1544);
#131=PLANE('',#1547);
#132=PLANE('',#1550);
#133=PLANE('',#1553);
#134=PLANE('',#1556);
#135=PLANE('',#1559);
#136=PLANE('',#1562);
#137=PLANE('',#1565);
#138=PLANE('',#1568);
#139=PLANE('',#1571);
#140=PLANE('',#1574);
#141=PLANE('',#1575);
#142=PLANE('',#1578);
#143=PLANE('',#1581);
#144=PLANE('',#1584);
#145=PLANE('',#1587);
#146=PLANE('',#1588);
#147=PLANE('',#1589);
#148=PLANE('',#1590);
#149=PLANE('',#1591);
#150=PLANE('',#1594);
#151=PLANE('',#1597);
#152=PLANE('',#1600);
#153=PLANE('',#1603);
#154=PLANE('',#1606);
#155=PLANE('',#1609);
#156=PLANE('',#1612);
#157=PLANE('',#1615);
#158=PLANE('',#1618);
#159=ORIENTED_EDGE('',*,*,#449,.F.);
#160=ORIENTED_EDGE('',*,*,#450,.T.);
#161=ORIENTED_EDGE('',*,*,#451,.F.);
#162=ORIENTED_EDGE('',*,*,#452,.T.);
#163=ORIENTED_EDGE('',*,*,#453,.F.);
#164=ORIENTED_EDGE('',*,*,#454,.F.);
#165=ORIENTED_EDGE('',*,*,#455,.F.);
#166=ORIENTED_EDGE('',*,*,#456,.T.);
#167=ORIENTED_EDGE('',*,*,#457,.F.);
#168=ORIENTED_EDGE('',*,*,#458,.T.);
#169=ORIENTED_EDGE('',*,*,#459,.F.);
#170=ORIENTED_EDGE('',*,*,#460,.F.);
#171=ORIENTED_EDGE('',*,*,#461,.F.);
#172=ORIENTED_EDGE('',*,*,#462,.T.);
#173=ORIENTED_EDGE('',*,*,#463,.T.);
#174=ORIENTED_EDGE('',*,*,#464,.T.);
#175=ORIENTED_EDGE('',*,*,#465,.T.);
#176=ORIENTED_EDGE('',*,*,#466,.T.);
#177=ORIENTED_EDGE('',*,*,#467,.F.);
#178=ORIENTED_EDGE('',*,*,#468,.T.);
#179=ORIENTED_EDGE('',*,*,#469,.T.);
#180=ORIENTED_EDGE('',*,*,#470,.T.);
#181=ORIENTED_EDGE('',*,*,#471,.T.);
#182=ORIENTED_EDGE('',*,*,#452,.F.);
#183=ORIENTED_EDGE('',*,*,#472,.F.);
#184=ORIENTED_EDGE('',*,*,#473,.F.);
#185=ORIENTED_EDGE('',*,*,#474,.F.);
#186=ORIENTED_EDGE('',*,*,#475,.T.);
#187=ORIENTED_EDGE('',*,*,#476,.T.);
#188=ORIENTED_EDGE('',*,*,#477,.T.);
#189=ORIENTED_EDGE('',*,*,#478,.T.);
#190=ORIENTED_EDGE('',*,*,#473,.T.);
#191=ORIENTED_EDGE('',*,*,#479,.F.);
#192=ORIENTED_EDGE('',*,*,#480,.F.);
#193=ORIENTED_EDGE('',*,*,#481,.T.);
#194=ORIENTED_EDGE('',*,*,#482,.T.);
#195=ORIENTED_EDGE('',*,*,#483,.F.);
#196=ORIENTED_EDGE('',*,*,#484,.F.);
#197=ORIENTED_EDGE('',*,*,#485,.F.);
#198=ORIENTED_EDGE('',*,*,#486,.T.);
#199=ORIENTED_EDGE('',*,*,#487,.T.);
#200=ORIENTED_EDGE('',*,*,#488,.T.);
#201=ORIENTED_EDGE('',*,*,#489,.T.);
#202=ORIENTED_EDGE('',*,*,#460,.T.);
#203=ORIENTED_EDGE('',*,*,#490,.T.);
#204=ORIENTED_EDGE('',*,*,#491,.T.);
#205=ORIENTED_EDGE('',*,*,#474,.T.);
#206=ORIENTED_EDGE('',*,*,#485,.T.);
#207=ORIENTED_EDGE('',*,*,#492,.F.);
#208=ORIENTED_EDGE('',*,*,#453,.T.);
#209=ORIENTED_EDGE('',*,*,#493,.T.);
#210=ORIENTED_EDGE('',*,*,#494,.T.);
#211=ORIENTED_EDGE('',*,*,#484,.T.);
#212=ORIENTED_EDGE('',*,*,#495,.F.);
#213=ORIENTED_EDGE('',*,*,#454,.T.);
#214=ORIENTED_EDGE('',*,*,#492,.T.);
#215=ORIENTED_EDGE('',*,*,#496,.T.);
#216=ORIENTED_EDGE('',*,*,#497,.T.);
#217=ORIENTED_EDGE('',*,*,#498,.T.);
#218=ORIENTED_EDGE('',*,*,#499,.T.);
#219=ORIENTED_EDGE('',*,*,#500,.T.);
#220=ORIENTED_EDGE('',*,*,#501,.T.);
#221=ORIENTED_EDGE('',*,*,#502,.T.);
#222=ORIENTED_EDGE('',*,*,#503,.T.);
#223=ORIENTED_EDGE('',*,*,#504,.T.);
#224=ORIENTED_EDGE('',*,*,#505,.T.);
#225=ORIENTED_EDGE('',*,*,#506,.T.);
#226=ORIENTED_EDGE('',*,*,#507,.T.);
#227=ORIENTED_EDGE('',*,*,#459,.T.);
#228=ORIENTED_EDGE('',*,*,#508,.T.);
#229=ORIENTED_EDGE('',*,*,#509,.F.);
#230=ORIENTED_EDGE('',*,*,#490,.F.);
#231=ORIENTED_EDGE('',*,*,#449,.T.);
#232=ORIENTED_EDGE('',*,*,#509,.T.);
#233=ORIENTED_EDGE('',*,*,#510,.T.);
#234=ORIENTED_EDGE('',*,*,#511,.F.);
#235=ORIENTED_EDGE('',*,*,#491,.F.);
#236=ORIENTED_EDGE('',*,*,#512,.T.);
#237=ORIENTED_EDGE('',*,*,#479,.T.);
#238=ORIENTED_EDGE('',*,*,#472,.T.);
#239=ORIENTED_EDGE('',*,*,#461,.T.);
#240=ORIENTED_EDGE('',*,*,#489,.F.);
#241=ORIENTED_EDGE('',*,*,#511,.T.);
#242=ORIENTED_EDGE('',*,*,#513,.F.);
#243=ORIENTED_EDGE('',*,*,#488,.F.);
#244=ORIENTED_EDGE('',*,*,#514,.F.);
#245=ORIENTED_EDGE('',*,*,#487,.F.);
#246=ORIENTED_EDGE('',*,*,#515,.F.);
#247=ORIENTED_EDGE('',*,*,#486,.F.);
#248=ORIENTED_EDGE('',*,*,#516,.T.);
#249=ORIENTED_EDGE('',*,*,#517,.F.);
#250=ORIENTED_EDGE('',*,*,#515,.T.);
#251=ORIENTED_EDGE('',*,*,#516,.F.);
#252=ORIENTED_EDGE('',*,*,#518,.T.);
#253=ORIENTED_EDGE('',*,*,#519,.F.);
#254=ORIENTED_EDGE('',*,*,#513,.T.);
#255=ORIENTED_EDGE('',*,*,#518,.F.);
#256=ORIENTED_EDGE('',*,*,#520,.T.);
#257=ORIENTED_EDGE('',*,*,#521,.F.);
#258=ORIENTED_EDGE('',*,*,#514,.T.);
#259=ORIENTED_EDGE('',*,*,#520,.F.);
#260=ORIENTED_EDGE('',*,*,#522,.F.);
#261=ORIENTED_EDGE('',*,*,#463,.F.);
#262=ORIENTED_EDGE('',*,*,#523,.F.);
#263=ORIENTED_EDGE('',*,*,#462,.F.);
#264=ORIENTED_EDGE('',*,*,#524,.F.);
#265=ORIENTED_EDGE('',*,*,#525,.F.);
#266=ORIENTED_EDGE('',*,*,#458,.F.);
#267=ORIENTED_EDGE('',*,*,#526,.T.);
#268=ORIENTED_EDGE('',*,*,#527,.T.);
#269=ORIENTED_EDGE('',*,*,#464,.F.);
#270=ORIENTED_EDGE('',*,*,#528,.T.);
#271=ORIENTED_EDGE('',*,*,#529,.T.);
#272=ORIENTED_EDGE('',*,*,#480,.T.);
#273=ORIENTED_EDGE('',*,*,#512,.F.);
#274=ORIENTED_EDGE('',*,*,#510,.F.);
#275=ORIENTED_EDGE('',*,*,#508,.F.);
#276=ORIENTED_EDGE('',*,*,#521,.T.);
#277=ORIENTED_EDGE('',*,*,#519,.T.);
#278=ORIENTED_EDGE('',*,*,#517,.T.);
#279=ORIENTED_EDGE('',*,*,#530,.F.);
#280=ORIENTED_EDGE('',*,*,#531,.F.);
#281=ORIENTED_EDGE('',*,*,#532,.F.);
#282=ORIENTED_EDGE('',*,*,#533,.F.);
#283=ORIENTED_EDGE('',*,*,#534,.F.);
#284=ORIENTED_EDGE('',*,*,#535,.F.);
#285=ORIENTED_EDGE('',*,*,#536,.F.);
#286=ORIENTED_EDGE('',*,*,#537,.F.);
#287=ORIENTED_EDGE('',*,*,#538,.F.);
#288=ORIENTED_EDGE('',*,*,#539,.F.);
#289=ORIENTED_EDGE('',*,*,#540,.F.);
#290=ORIENTED_EDGE('',*,*,#541,.F.);
#291=ORIENTED_EDGE('',*,*,#522,.T.);
#292=ORIENTED_EDGE('',*,*,#523,.T.);
#293=ORIENTED_EDGE('',*,*,#542,.T.);
#294=ORIENTED_EDGE('',*,*,#543,.T.);
#295=ORIENTED_EDGE('',*,*,#544,.T.);
#296=ORIENTED_EDGE('',*,*,#545,.T.);
#297=ORIENTED_EDGE('',*,*,#456,.F.);
#298=ORIENTED_EDGE('',*,*,#546,.F.);
#299=ORIENTED_EDGE('',*,*,#482,.F.);
#300=ORIENTED_EDGE('',*,*,#547,.F.);
#301=ORIENTED_EDGE('',*,*,#548,.F.);
#302=ORIENTED_EDGE('',*,*,#466,.F.);
#303=ORIENTED_EDGE('',*,*,#549,.F.);
#304=ORIENTED_EDGE('',*,*,#550,.F.);
#305=ORIENTED_EDGE('',*,*,#551,.F.);
#306=ORIENTED_EDGE('',*,*,#530,.T.);
#307=ORIENTED_EDGE('',*,*,#552,.F.);
#308=ORIENTED_EDGE('',*,*,#531,.T.);
#309=ORIENTED_EDGE('',*,*,#553,.F.);
#310=ORIENTED_EDGE('',*,*,#532,.T.);
#311=ORIENTED_EDGE('',*,*,#554,.F.);
#312=ORIENTED_EDGE('',*,*,#533,.T.);
#313=ORIENTED_EDGE('',*,*,#555,.F.);
#314=ORIENTED_EDGE('',*,*,#534,.T.);
#315=ORIENTED_EDGE('',*,*,#556,.F.);
#316=ORIENTED_EDGE('',*,*,#535,.T.);
#317=ORIENTED_EDGE('',*,*,#557,.F.);
#318=ORIENTED_EDGE('',*,*,#524,.T.);
#319=ORIENTED_EDGE('',*,*,#558,.F.);
#320=ORIENTED_EDGE('',*,*,#536,.T.);
#321=ORIENTED_EDGE('',*,*,#559,.F.);
#322=ORIENTED_EDGE('',*,*,#525,.T.);
#323=ORIENTED_EDGE('',*,*,#560,.F.);
#324=ORIENTED_EDGE('',*,*,#541,.T.);
#325=ORIENTED_EDGE('',*,*,#561,.F.);
#326=ORIENTED_EDGE('',*,*,#540,.T.);
#327=ORIENTED_EDGE('',*,*,#562,.F.);
#328=ORIENTED_EDGE('',*,*,#539,.T.);
#329=ORIENTED_EDGE('',*,*,#563,.F.);
#330=ORIENTED_EDGE('',*,*,#538,.T.);
#331=ORIENTED_EDGE('',*,*,#564,.F.);
#332=ORIENTED_EDGE('',*,*,#537,.T.);
#333=ORIENTED_EDGE('',*,*,#565,.T.);
#334=ORIENTED_EDGE('',*,*,#502,.F.);
#335=ORIENTED_EDGE('',*,*,#552,.T.);
#336=ORIENTED_EDGE('',*,*,#565,.F.);
#337=ORIENTED_EDGE('',*,*,#566,.T.);
#338=ORIENTED_EDGE('',*,*,#501,.F.);
#339=ORIENTED_EDGE('',*,*,#551,.T.);
#340=ORIENTED_EDGE('',*,*,#566,.F.);
#341=ORIENTED_EDGE('',*,*,#567,.T.);
#342=ORIENTED_EDGE('',*,*,#500,.F.);
#343=ORIENTED_EDGE('',*,*,#554,.T.);
#344=ORIENTED_EDGE('',*,*,#567,.F.);
#345=ORIENTED_EDGE('',*,*,#568,.T.);
#346=ORIENTED_EDGE('',*,*,#499,.F.);
#347=ORIENTED_EDGE('',*,*,#553,.T.);
#348=ORIENTED_EDGE('',*,*,#568,.F.);
#349=ORIENTED_EDGE('',*,*,#569,.T.);
#350=ORIENTED_EDGE('',*,*,#498,.F.);
#351=ORIENTED_EDGE('',*,*,#556,.T.);
#352=ORIENTED_EDGE('',*,*,#569,.F.);
#353=ORIENTED_EDGE('',*,*,#570,.T.);
#354=ORIENTED_EDGE('',*,*,#497,.F.);
#355=ORIENTED_EDGE('',*,*,#555,.T.);
#356=ORIENTED_EDGE('',*,*,#570,.F.);
#357=ORIENTED_EDGE('',*,*,#493,.F.);
#358=ORIENTED_EDGE('',*,*,#571,.T.);
#359=ORIENTED_EDGE('',*,*,#557,.T.);
#360=ORIENTED_EDGE('',*,*,#571,.F.);
#361=ORIENTED_EDGE('',*,*,#572,.T.);
#362=ORIENTED_EDGE('',*,*,#496,.F.);
#363=ORIENTED_EDGE('',*,*,#558,.T.);
#364=ORIENTED_EDGE('',*,*,#572,.F.);
#365=ORIENTED_EDGE('',*,*,#494,.F.);
#366=ORIENTED_EDGE('',*,*,#573,.T.);
#367=ORIENTED_EDGE('',*,*,#559,.T.);
#368=ORIENTED_EDGE('',*,*,#573,.F.);
#369=ORIENTED_EDGE('',*,*,#574,.T.);
#370=ORIENTED_EDGE('',*,*,#503,.F.);
#371=ORIENTED_EDGE('',*,*,#560,.T.);
#372=ORIENTED_EDGE('',*,*,#574,.F.);
#373=ORIENTED_EDGE('',*,*,#575,.T.);
#374=ORIENTED_EDGE('',*,*,#504,.F.);
#375=ORIENTED_EDGE('',*,*,#561,.T.);
#376=ORIENTED_EDGE('',*,*,#575,.F.);
#377=ORIENTED_EDGE('',*,*,#576,.T.);
#378=ORIENTED_EDGE('',*,*,#505,.F.);
#379=ORIENTED_EDGE('',*,*,#562,.T.);
#380=ORIENTED_EDGE('',*,*,#576,.F.);
#381=ORIENTED_EDGE('',*,*,#577,.T.);
#382=ORIENTED_EDGE('',*,*,#506,.F.);
#383=ORIENTED_EDGE('',*,*,#563,.T.);
#384=ORIENTED_EDGE('',*,*,#577,.F.);
#385=ORIENTED_EDGE('',*,*,#578,.T.);
#386=ORIENTED_EDGE('',*,*,#507,.F.);
#387=ORIENTED_EDGE('',*,*,#564,.T.);
#388=ORIENTED_EDGE('',*,*,#578,.F.);
#389=ORIENTED_EDGE('',*,*,#495,.T.);
#390=ORIENTED_EDGE('',*,*,#483,.T.);
#391=ORIENTED_EDGE('',*,*,#546,.T.);
#392=ORIENTED_EDGE('',*,*,#455,.T.);
#393=ORIENTED_EDGE('',*,*,#579,.T.);
#394=ORIENTED_EDGE('',*,*,#478,.F.);
#395=ORIENTED_EDGE('',*,*,#579,.F.);
#396=ORIENTED_EDGE('',*,*,#580,.T.);
#397=ORIENTED_EDGE('',*,*,#477,.F.);
#398=ORIENTED_EDGE('',*,*,#580,.F.);
#399=ORIENTED_EDGE('',*,*,#581,.T.);
#400=ORIENTED_EDGE('',*,*,#476,.F.);
#401=ORIENTED_EDGE('',*,*,#581,.F.);
#402=ORIENTED_EDGE('',*,*,#582,.T.);
#403=ORIENTED_EDGE('',*,*,#475,.F.);
#404=ORIENTED_EDGE('',*,*,#582,.F.);
#405=ORIENTED_EDGE('',*,*,#548,.T.);
#406=ORIENTED_EDGE('',*,*,#583,.F.);
#407=ORIENTED_EDGE('',*,*,#528,.F.);
#408=ORIENTED_EDGE('',*,*,#467,.T.);
#409=ORIENTED_EDGE('',*,*,#547,.T.);
#410=ORIENTED_EDGE('',*,*,#481,.F.);
#411=ORIENTED_EDGE('',*,*,#529,.F.);
#412=ORIENTED_EDGE('',*,*,#583,.T.);
#413=ORIENTED_EDGE('',*,*,#549,.T.);
#414=ORIENTED_EDGE('',*,*,#465,.F.);
#415=ORIENTED_EDGE('',*,*,#527,.F.);
#416=ORIENTED_EDGE('',*,*,#584,.T.);
#417=ORIENTED_EDGE('',*,*,#550,.T.);
#418=ORIENTED_EDGE('',*,*,#584,.F.);
#419=ORIENTED_EDGE('',*,*,#526,.F.);
#420=ORIENTED_EDGE('',*,*,#457,.T.);
#421=ORIENTED_EDGE('',*,*,#585,.T.);
#422=ORIENTED_EDGE('',*,*,#471,.F.);
#423=ORIENTED_EDGE('',*,*,#585,.F.);
#424=ORIENTED_EDGE('',*,*,#586,.T.);
#425=ORIENTED_EDGE('',*,*,#470,.F.);
#426=ORIENTED_EDGE('',*,*,#586,.F.);
#427=ORIENTED_EDGE('',*,*,#587,.T.);
#428=ORIENTED_EDGE('',*,*,#469,.F.);
#429=ORIENTED_EDGE('',*,*,#587,.F.);
#430=ORIENTED_EDGE('',*,*,#588,.T.);
#431=ORIENTED_EDGE('',*,*,#468,.F.);
#432=ORIENTED_EDGE('',*,*,#588,.F.);
#433=ORIENTED_EDGE('',*,*,#589,.T.);
#434=ORIENTED_EDGE('',*,*,#545,.F.);
#435=ORIENTED_EDGE('',*,*,#589,.F.);
#436=ORIENTED_EDGE('',*,*,#590,.T.);
#437=ORIENTED_EDGE('',*,*,#544,.F.);
#438=ORIENTED_EDGE('',*,*,#590,.F.);
#439=ORIENTED_EDGE('',*,*,#591,.T.);
#440=ORIENTED_EDGE('',*,*,#543,.F.);
#441=ORIENTED_EDGE('',*,*,#591,.F.);
#442=ORIENTED_EDGE('',*,*,#592,.T.);
#443=ORIENTED_EDGE('',*,*,#542,.F.);
#444=ORIENTED_EDGE('',*,*,#592,.F.);
#445=ORIENTED_EDGE('',*,*,#451,.T.);
#446=ORIENTED_EDGE('',*,*,#593,.F.);
#447=ORIENTED_EDGE('',*,*,#450,.F.);
#448=ORIENTED_EDGE('',*,*,#593,.T.);
#449=EDGE_CURVE('',#594,#594,#724,.T.);
#450=EDGE_CURVE('',#595,#595,#725,.T.);
#451=EDGE_CURVE('',#596,#596,#726,.T.);
#452=EDGE_CURVE('',#597,#598,#20,.T.);
#453=EDGE_CURVE('',#599,#598,#21,.T.);
#454=EDGE_CURVE('',#600,#599,#22,.T.);
#455=EDGE_CURVE('',#601,#600,#23,.T.);
#456=EDGE_CURVE('',#601,#602,#24,.T.);
#457=EDGE_CURVE('',#603,#602,#25,.T.);
#458=EDGE_CURVE('',#603,#604,#26,.T.);
#459=EDGE_CURVE('',#605,#604,#27,.T.);
#460=EDGE_CURVE('',#606,#605,#28,.T.);
#461=EDGE_CURVE('',#597,#606,#29,.T.);
#462=EDGE_CURVE('',#607,#607,#727,.T.);
#463=EDGE_CURVE('',#608,#608,#728,.T.);
#464=EDGE_CURVE('',#609,#610,#30,.T.);
#465=EDGE_CURVE('',#610,#611,#31,.T.);
#466=EDGE_CURVE('',#611,#612,#32,.T.);
#467=EDGE_CURVE('',#609,#612,#33,.T.);
#468=EDGE_CURVE('',#613,#613,#729,.T.);
#469=EDGE_CURVE('',#614,#614,#730,.T.);
#470=EDGE_CURVE('',#615,#615,#731,.T.);
#471=EDGE_CURVE('',#616,#616,#732,.T.);
#472=EDGE_CURVE('',#617,#597,#34,.T.);
#473=EDGE_CURVE('',#618,#617,#35,.T.);
#474=EDGE_CURVE('',#598,#618,#36,.T.);
#475=EDGE_CURVE('',#619,#619,#733,.T.);
#476=EDGE_CURVE('',#620,#620,#734,.T.);
#477=EDGE_CURVE('',#621,#621,#735,.T.);
#478=EDGE_CURVE('',#622,#622,#736,.T.);
#479=EDGE_CURVE('',#623,#617,#37,.T.);
#480=EDGE_CURVE('',#624,#623,#38,.T.);
#481=EDGE_CURVE('',#624,#625,#39,.T.);
#482=EDGE_CURVE('',#625,#626,#40,.T.);
#483=EDGE_CURVE('',#627,#626,#41,.T.);
#484=EDGE_CURVE('',#628,#627,#42,.T.);
#485=EDGE_CURVE('',#618,#628,#43,.T.);
#486=EDGE_CURVE('',#629,#629,#737,.T.);
#487=EDGE_CURVE('',#630,#630,#738,.T.);
#488=EDGE_CURVE('',#631,#631,#739,.T.);
#489=EDGE_CURVE('',#632,#606,#44,.T.);
#490=EDGE_CURVE('',#605,#633,#45,.T.);
#491=EDGE_CURVE('',#633,#632,#46,.T.);
#492=EDGE_CURVE('',#599,#628,#47,.T.);
#493=EDGE_CURVE('',#634,#634,#740,.T.);
#494=EDGE_CURVE('',#635,#635,#741,.T.);
#495=EDGE_CURVE('',#600,#627,#48,.T.);
#496=EDGE_CURVE('',#636,#636,#742,.T.);
#497=EDGE_CURVE('',#637,#637,#743,.T.);
#498=EDGE_CURVE('',#638,#638,#744,.T.);
#499=EDGE_CURVE('',#639,#639,#745,.T.);
#500=EDGE_CURVE('',#640,#640,#746,.T.);
#501=EDGE_CURVE('',#641,#641,#747,.T.);
#502=EDGE_CURVE('',#642,#642,#748,.T.);
#503=EDGE_CURVE('',#643,#643,#749,.T.);
#504=EDGE_CURVE('',#644,#644,#750,.T.);
#505=EDGE_CURVE('',#645,#645,#751,.T.);
#506=EDGE_CURVE('',#646,#646,#752,.T.);
#507=EDGE_CURVE('',#647,#647,#753,.T.);
#508=EDGE_CURVE('',#604,#648,#49,.T.);
#509=EDGE_CURVE('',#633,#648,#50,.T.);
#510=EDGE_CURVE('',#648,#649,#51,.T.);
#511=EDGE_CURVE('',#632,#649,#52,.T.);
#512=EDGE_CURVE('',#649,#623,#53,.T.);
#513=EDGE_CURVE('',#650,#650,#754,.T.);
#514=EDGE_CURVE('',#651,#651,#755,.T.);
#515=EDGE_CURVE('',#652,#652,#756,.T.);
#516=EDGE_CURVE('',#653,#653,#757,.T.);
#517=EDGE_CURVE('',#654,#654,#758,.T.);
#518=EDGE_CURVE('',#655,#655,#759,.T.);
#519=EDGE_CURVE('',#656,#656,#760,.T.);
#520=EDGE_CURVE('',#657,#657,#761,.T.);
#521=EDGE_CURVE('',#658,#658,#762,.T.);
#522=EDGE_CURVE('',#659,#659,#763,.T.);
#523=EDGE_CURVE('',#660,#660,#764,.T.);
#524=EDGE_CURVE('',#661,#661,#765,.F.);
#525=EDGE_CURVE('',#662,#662,#766,.F.);
#526=EDGE_CURVE('',#603,#663,#54,.T.);
#527=EDGE_CURVE('',#663,#610,#55,.T.);
#528=EDGE_CURVE('',#609,#664,#56,.T.);
#529=EDGE_CURVE('',#664,#624,#57,.T.);
#530=EDGE_CURVE('',#665,#665,#767,.F.);
#531=EDGE_CURVE('',#666,#666,#768,.F.);
#532=EDGE_CURVE('',#667,#667,#769,.F.);
#533=EDGE_CURVE('',#668,#668,#770,.F.);
#534=EDGE_CURVE('',#669,#669,#771,.F.);
#535=EDGE_CURVE('',#670,#670,#772,.F.);
#536=EDGE_CURVE('',#671,#671,#773,.F.);
#537=EDGE_CURVE('',#672,#672,#774,.F.);
#538=EDGE_CURVE('',#673,#673,#775,.F.);
#539=EDGE_CURVE('',#674,#674,#776,.F.);
#540=EDGE_CURVE('',#675,#675,#777,.F.);
#541=EDGE_CURVE('',#676,#676,#778,.F.);
#542=EDGE_CURVE('',#677,#677,#779,.T.);
#543=EDGE_CURVE('',#678,#678,#780,.T.);
#544=EDGE_CURVE('',#679,#679,#781,.T.);
#545=EDGE_CURVE('',#680,#680,#782,.T.);
#546=EDGE_CURVE('',#626,#601,#58,.T.);
#547=EDGE_CURVE('',#681,#625,#59,.T.);
#548=EDGE_CURVE('',#612,#681,#60,.T.);
#549=EDGE_CURVE('',#682,#611,#61,.T.);
#550=EDGE_CURVE('',#602,#682,#62,.T.);
#551=EDGE_CURVE('',#683,#683,#783,.T.);
#552=EDGE_CURVE('',#684,#684,#784,.T.);
#553=EDGE_CURVE('',#685,#685,#785,.T.);
#554=EDGE_CURVE('',#686,#686,#786,.T.);
#555=EDGE_CURVE('',#687,#687,#787,.T.);
#556=EDGE_CURVE('',#688,#688,#788,.T.);
#557=EDGE_CURVE('',#689,#689,#789,.T.);
#558=EDGE_CURVE('',#690,#690,#790,.T.);
#559=EDGE_CURVE('',#691,#691,#791,.T.);
#560=EDGE_CURVE('',#692,#692,#792,.T.);
#561=EDGE_CURVE('',#693,#693,#793,.T.);
#562=EDGE_CURVE('',#694,#694,#794,.T.);
#563=EDGE_CURVE('',#695,#695,#795,.T.);
#564=EDGE_CURVE('',#696,#696,#796,.T.);
#565=EDGE_CURVE('',#697,#697,#797,.T.);
#566=EDGE_CURVE('',#698,#698,#798,.T.);
#567=EDGE_CURVE('',#699,#699,#799,.T.);
#568=EDGE_CURVE('',#700,#700,#800,.T.);
#569=EDGE_CURVE('',#701,#701,#801,.T.);
#570=EDGE_CURVE('',#702,#702,#802,.T.);
#571=EDGE_CURVE('',#703,#703,#803,.T.);
#572=EDGE_CURVE('',#704,#704,#804,.T.);
#573=EDGE_CURVE('',#705,#705,#805,.T.);
#574=EDGE_CURVE('',#706,#706,#806,.T.);
#575=EDGE_CURVE('',#707,#707,#807,.T.);
#576=EDGE_CURVE('',#708,#708,#808,.T.);
#577=EDGE_CURVE('',#709,#709,#809,.T.);
#578=EDGE_CURVE('',#710,#710,#810,.T.);
#579=EDGE_CURVE('',#711,#711,#811,.T.);
#580=EDGE_CURVE('',#712,#712,#812,.T.);
#581=EDGE_CURVE('',#713,#713,#813,.T.);
#582=EDGE_CURVE('',#714,#714,#814,.T.);
#583=EDGE_CURVE('',#664,#681,#63,.T.);
#584=EDGE_CURVE('',#663,#682,#64,.T.);
#585=EDGE_CURVE('',#715,#715,#815,.T.);
#586=EDGE_CURVE('',#716,#716,#816,.T.);
#587=EDGE_CURVE('',#717,#717,#817,.T.);
#588=EDGE_CURVE('',#718,#718,#818,.T.);
#589=EDGE_CURVE('',#719,#719,#819,.T.);
#590=EDGE_CURVE('',#720,#720,#820,.T.);
#591=EDGE_CURVE('',#721,#721,#821,.T.);
#592=EDGE_CURVE('',#722,#722,#822,.T.);
#593=EDGE_CURVE('',#723,#723,#823,.T.);
#594=VERTEX_POINT('',#2067);
#595=VERTEX_POINT('',#2069);
#596=VERTEX_POINT('',#2072);
#597=VERTEX_POINT('',#2074);
#598=VERTEX_POINT('',#2075);
#599=VERTEX_POINT('',#2077);
#600=VERTEX_POINT('',#2079);
#601=VERTEX_POINT('',#2081);
#602=VERTEX_POINT('',#2083);
#603=VERTEX_POINT('',#2085);
#604=VERTEX_POINT('',#2087);
#605=VERTEX_POINT('',#2089);
#606=VERTEX_POINT('',#2091);
#607=VERTEX_POINT('',#2094);
#608=VERTEX_POINT('',#2096);
#609=VERTEX_POINT('',#2099);
#610=VERTEX_POINT('',#2100);
#611=VERTEX_POINT('',#2102);
#612=VERTEX_POINT('',#2104);
#613=VERTEX_POINT('',#2108);
#614=VERTEX_POINT('',#2110);
#615=VERTEX_POINT('',#2112);
#616=VERTEX_POINT('',#2114);
#617=VERTEX_POINT('',#2116);
#618=VERTEX_POINT('',#2118);
#619=VERTEX_POINT('',#2122);
#620=VERTEX_POINT('',#2124);
#621=VERTEX_POINT('',#2126);
#622=VERTEX_POINT('',#2128);
#623=VERTEX_POINT('',#2130);
#624=VERTEX_POINT('',#2132);
#625=VERTEX_POINT('',#2134);
#626=VERTEX_POINT('',#2136);
#627=VERTEX_POINT('',#2138);
#628=VERTEX_POINT('',#2140);
#629=VERTEX_POINT('',#2144);
#630=VERTEX_POINT('',#2146);
#631=VERTEX_POINT('',#2148);
#632=VERTEX_POINT('',#2150);
#633=VERTEX_POINT('',#2152);
#634=VERTEX_POINT('',#2158);
#635=VERTEX_POINT('',#2160);
#636=VERTEX_POINT('',#2163);
#637=VERTEX_POINT('',#2165);
#638=VERTEX_POINT('',#2167);
#639=VERTEX_POINT('',#2169);
#640=VERTEX_POINT('',#2171);
#641=VERTEX_POINT('',#2173);
#642=VERTEX_POINT('',#2175);
#643=VERTEX_POINT('',#2177);
#644=VERTEX_POINT('',#2179);
#645=VERTEX_POINT('',#2181);
#646=VERTEX_POINT('',#2183);
#647=VERTEX_POINT('',#2185);
#648=VERTEX_POINT('',#2188);
#649=VERTEX_POINT('',#2192);
#650=VERTEX_POINT('',#2198);
#651=VERTEX_POINT('',#2201);
#652=VERTEX_POINT('',#2204);
#653=VERTEX_POINT('',#2207);
#654=VERTEX_POINT('',#2209);
#655=VERTEX_POINT('',#2213);
#656=VERTEX_POINT('',#2215);
#657=VERTEX_POINT('',#2219);
#658=VERTEX_POINT('',#2221);
#659=VERTEX_POINT('',#2225);
#660=VERTEX_POINT('',#2228);
#661=VERTEX_POINT('',#2231);
#662=VERTEX_POINT('',#2233);
#663=VERTEX_POINT('',#2235);
#664=VERTEX_POINT('',#2238);
#665=VERTEX_POINT('',#2241);
#666=VERTEX_POINT('',#2243);
#667=VERTEX_POINT('',#2245);
#668=VERTEX_POINT('',#2247);
#669=VERTEX_POINT('',#2249);
#670=VERTEX_POINT('',#2251);
#671=VERTEX_POINT('',#2253);
#672=VERTEX_POINT('',#2255);
#673=VERTEX_POINT('',#2257);
#674=VERTEX_POINT('',#2259);
#675=VERTEX_POINT('',#2261);
#676=VERTEX_POINT('',#2263);
#677=VERTEX_POINT('',#2268);
#678=VERTEX_POINT('',#2270);
#679=VERTEX_POINT('',#2272);
#680=VERTEX_POINT('',#2274);
#681=VERTEX_POINT('',#2277);
#682=VERTEX_POINT('',#2280);
#683=VERTEX_POINT('',#2284);
#684=VERTEX_POINT('',#2287);
#685=VERTEX_POINT('',#2290);
#686=VERTEX_POINT('',#2293);
#687=VERTEX_POINT('',#2296);
#688=VERTEX_POINT('',#2299);
#689=VERTEX_POINT('',#2302);
#690=VERTEX_POINT('',#2305);
#691=VERTEX_POINT('',#2308);
#692=VERTEX_POINT('',#2311);
#693=VERTEX_POINT('',#2314);
#694=VERTEX_POINT('',#2317);
#695=VERTEX_POINT('',#2320);
#696=VERTEX_POINT('',#2323);
#697=VERTEX_POINT('',#2326);
#698=VERTEX_POINT('',#2330);
#699=VERTEX_POINT('',#2334);
#700=VERTEX_POINT('',#2338);
#701=VERTEX_POINT('',#2342);
#702=VERTEX_POINT('',#2346);
#703=VERTEX_POINT('',#2350);
#704=VERTEX_POINT('',#2354);
#705=VERTEX_POINT('',#2358);
#706=VERTEX_POINT('',#2362);
#707=VERTEX_POINT('',#2366);
#708=VERTEX_POINT('',#2370);
#709=VERTEX_POINT('',#2374);
#710=VERTEX_POINT('',#2378);
#711=VERTEX_POINT('',#2383);
#712=VERTEX_POINT('',#2387);
#713=VERTEX_POINT('',#2391);
#714=VERTEX_POINT('',#2395);
#715=VERTEX_POINT('',#2405);
#716=VERTEX_POINT('',#2409);
#717=VERTEX_POINT('',#2413);
#718=VERTEX_POINT('',#2417);
#719=VERTEX_POINT('',#2421);
#720=VERTEX_POINT('',#2425);
#721=VERTEX_POINT('',#2429);
#722=VERTEX_POINT('',#2433);
#723=VERTEX_POINT('',#2437);
#724=CIRCLE('',#1421,4.);
#725=CIRCLE('',#1422,4.);
#726=CIRCLE('',#1424,6.);
#727=CIRCLE('',#1425,3.00000012446574);
#728=CIRCLE('',#1426,3.00000011568882);
#729=CIRCLE('',#1429,1.5);
#730=CIRCLE('',#1430,1.5);
#731=CIRCLE('',#1431,1.5);
#732=CIRCLE('',#1432,1.5);
#733=CIRCLE('',#1434,2.125);
#734=CIRCLE('',#1435,2.125);
#735=CIRCLE('',#1436,2.125);
#736=CIRCLE('',#1437,2.125);
#737=CIRCLE('',#1439,3.);
#738=CIRCLE('',#1440,3.);
#739=CIRCLE('',#1441,3.);
#740=CIRCLE('',#1444,5.);
#741=CIRCLE('',#1445,5.);
#742=CIRCLE('',#1446,5.);
#743=CIRCLE('',#1447,5.);
#744=CIRCLE('',#1448,5.);
#745=CIRCLE('',#1449,5.);
#746=CIRCLE('',#1450,5.);
#747=CIRCLE('',#1451,5.);
#748=CIRCLE('',#1452,5.);
#749=CIRCLE('',#1453,5.);
#750=CIRCLE('',#1454,5.);
#751=CIRCLE('',#1455,5.);
#752=CIRCLE('',#1456,5.);
#753=CIRCLE('',#1457,5.);
#754=CIRCLE('',#1462,3.);
#755=CIRCLE('',#1464,3.);
#756=CIRCLE('',#1466,3.);
#757=CIRCLE('',#1468,4.1);
#758=CIRCLE('',#1469,4.1);
#759=CIRCLE('',#1472,4.1);
#760=CIRCLE('',#1473,4.1);
#761=CIRCLE('',#1476,4.1);
#762=CIRCLE('',#1477,4.1);
#763=CIRCLE('',#1480,3.00000011568882);
#764=CIRCLE('',#1482,3.00000012446574);
#765=CIRCLE('',#1484,3.);
#766=CIRCLE('',#1485,3.);
#767=CIRCLE('',#1486,3.);
#768=CIRCLE('',#1487,3.);
#769=CIRCLE('',#1488,3.);
#770=CIRCLE('',#1489,3.);
#771=CIRCLE('',#1490,3.);
#772=CIRCLE('',#1491,3.);
#773=CIRCLE('',#1492,3.);
#774=CIRCLE('',#1493,3.);
#775=CIRCLE('',#1494,3.);
#776=CIRCLE('',#1495,3.);
#777=CIRCLE('',#1496,3.);
#778=CIRCLE('',#1497,3.);
#779=CIRCLE('',#1501,1.5);
#780=CIRCLE('',#1502,1.5);
#781=CIRCLE('',#1503,1.5);
#782=CIRCLE('',#1504,1.5);
#783=CIRCLE('',#1506,3.);
#784=CIRCLE('',#1508,3.);
#785=CIRCLE('',#1510,3.);
#786=CIRCLE('',#1512,3.);
#787=CIRCLE('',#1514,3.);
#788=CIRCLE('',#1516,3.);
#789=CIRCLE('',#1518,3.);
#790=CIRCLE('',#1520,3.);
#791=CIRCLE('',#1522,3.);
#792=CIRCLE('',#1524,3.);
#793=CIRCLE('',#1526,3.);
#794=CIRCLE('',#1528,3.);
#795=CIRCLE('',#1530,3.);
#796=CIRCLE('',#1532,3.);
#797=CIRCLE('',#1534,5.);
#798=CIRCLE('',#1537,5.);
#799=CIRCLE('',#1540,5.);
#800=CIRCLE('',#1543,5.);
#801=CIRCLE('',#1546,5.);
#802=CIRCLE('',#1549,5.);
#803=CIRCLE('',#1552,5.);
#804=CIRCLE('',#1555,5.);
#805=CIRCLE('',#1558,5.);
#806=CIRCLE('',#1561,5.);
#807=CIRCLE('',#1564,5.);
#808=CIRCLE('',#1567,5.);
#809=CIRCLE('',#1570,5.);
#810=CIRCLE('',#1573,5.);
#811=CIRCLE('',#1577,2.125);
#812=CIRCLE('',#1580,2.125);
#813=CIRCLE('',#1583,2.125);
#814=CIRCLE('',#1586,2.125);
#815=CIRCLE('',#1593,1.5);
#816=CIRCLE('',#1596,1.5);
#817=CIRCLE('',#1599,1.5);
#818=CIRCLE('',#1602,1.5);
#819=CIRCLE('',#1605,1.5);
#820=CIRCLE('',#1608,1.5);
#821=CIRCLE('',#1611,1.5);
#822=CIRCLE('',#1614,1.5);
#823=CIRCLE('',#1617,6.);
#824=EDGE_LOOP('',(#159));
#825=EDGE_LOOP('',(#160));
#826=EDGE_LOOP('',(#161));
#827=EDGE_LOOP('',(#162,#163,#164,#165,#166,#167,#168,#169,#170,#171));
#828=EDGE_LOOP('',(#172));
#829=EDGE_LOOP('',(#173));
#830=EDGE_LOOP('',(#174,#175,#176,#177));
#831=EDGE_LOOP('',(#178));
#832=EDGE_LOOP('',(#179));
#833=EDGE_LOOP('',(#180));
#834=EDGE_LOOP('',(#181));
#835=EDGE_LOOP('',(#182,#183,#184,#185));
#836=EDGE_LOOP('',(#186));
#837=EDGE_LOOP('',(#187));
#838=EDGE_LOOP('',(#188));
#839=EDGE_LOOP('',(#189));
#840=EDGE_LOOP('',(#190,#191,#192,#193,#194,#195,#196,#197));
#841=EDGE_LOOP('',(#198));
#842=EDGE_LOOP('',(#199));
#843=EDGE_LOOP('',(#200));
#844=EDGE_LOOP('',(#201,#202,#203,#204));
#845=EDGE_LOOP('',(#205,#206,#207,#208));
#846=EDGE_LOOP('',(#209));
#847=EDGE_LOOP('',(#210));
#848=EDGE_LOOP('',(#211,#212,#213,#214));
#849=EDGE_LOOP('',(#215));
#850=EDGE_LOOP('',(#216));
#851=EDGE_LOOP('',(#217));
#852=EDGE_LOOP('',(#218));
#853=EDGE_LOOP('',(#219));
#854=EDGE_LOOP('',(#220));
#855=EDGE_LOOP('',(#221));
#856=EDGE_LOOP('',(#222));
#857=EDGE_LOOP('',(#223));
#858=EDGE_LOOP('',(#224));
#859=EDGE_LOOP('',(#225));
#860=EDGE_LOOP('',(#226));
#861=EDGE_LOOP('',(#227,#228,#229,#230));
#862=EDGE_LOOP('',(#231));
#863=EDGE_LOOP('',(#232,#233,#234,#235));
#864=EDGE_LOOP('',(#236,#237,#238,#239,#240,#241));
#865=EDGE_LOOP('',(#242));
#866=EDGE_LOOP('',(#243));
#867=EDGE_LOOP('',(#244));
#868=EDGE_LOOP('',(#245));
#869=EDGE_LOOP('',(#246));
#870=EDGE_LOOP('',(#247));
#871=EDGE_LOOP('',(#248));
#872=EDGE_LOOP('',(#249));
#873=EDGE_LOOP('',(#250));
#874=EDGE_LOOP('',(#251));
#875=EDGE_LOOP('',(#252));
#876=EDGE_LOOP('',(#253));
#877=EDGE_LOOP('',(#254));
#878=EDGE_LOOP('',(#255));
#879=EDGE_LOOP('',(#256));
#880=EDGE_LOOP('',(#257));
#881=EDGE_LOOP('',(#258));
#882=EDGE_LOOP('',(#259));
#883=EDGE_LOOP('',(#260));
#884=EDGE_LOOP('',(#261));
#885=EDGE_LOOP('',(#262));
#886=EDGE_LOOP('',(#263));
#887=EDGE_LOOP('',(#264));
#888=EDGE_LOOP('',(#265));
#889=EDGE_LOOP('',(#266,#267,#268,#269,#270,#271,#272,#273,#274,#275));
#890=EDGE_LOOP('',(#276));
#891=EDGE_LOOP('',(#277));
#892=EDGE_LOOP('',(#278));
#893=EDGE_LOOP('',(#279));
#894=EDGE_LOOP('',(#280));
#895=EDGE_LOOP('',(#281));
#896=EDGE_LOOP('',(#282));
#897=EDGE_LOOP('',(#283));
#898=EDGE_LOOP('',(#284));
#899=EDGE_LOOP('',(#285));
#900=EDGE_LOOP('',(#286));
#901=EDGE_LOOP('',(#287));
#902=EDGE_LOOP('',(#288));
#903=EDGE_LOOP('',(#289));
#904=EDGE_LOOP('',(#290));
#905=EDGE_LOOP('',(#291));
#906=EDGE_LOOP('',(#292));
#907=EDGE_LOOP('',(#293));
#908=EDGE_LOOP('',(#294));
#909=EDGE_LOOP('',(#295));
#910=EDGE_LOOP('',(#296));
#911=EDGE_LOOP('',(#297,#298,#299,#300,#301,#302,#303,#304));
#912=EDGE_LOOP('',(#305));
#913=EDGE_LOOP('',(#306));
#914=EDGE_LOOP('',(#307));
#915=EDGE_LOOP('',(#308));
#916=EDGE_LOOP('',(#309));
#917=EDGE_LOOP('',(#310));
#918=EDGE_LOOP('',(#311));
#919=EDGE_LOOP('',(#312));
#920=EDGE_LOOP('',(#313));
#921=EDGE_LOOP('',(#314));
#922=EDGE_LOOP('',(#315));
#923=EDGE_LOOP('',(#316));
#924=EDGE_LOOP('',(#317));
#925=EDGE_LOOP('',(#318));
#926=EDGE_LOOP('',(#319));
#927=EDGE_LOOP('',(#320));
#928=EDGE_LOOP('',(#321));
#929=EDGE_LOOP('',(#322));
#930=EDGE_LOOP('',(#323));
#931=EDGE_LOOP('',(#324));
#932=EDGE_LOOP('',(#325));
#933=EDGE_LOOP('',(#326));
#934=EDGE_LOOP('',(#327));
#935=EDGE_LOOP('',(#328));
#936=EDGE_LOOP('',(#329));
#937=EDGE_LOOP('',(#330));
#938=EDGE_LOOP('',(#331));
#939=EDGE_LOOP('',(#332));
#940=EDGE_LOOP('',(#333));
#941=EDGE_LOOP('',(#334));
#942=EDGE_LOOP('',(#335));
#943=EDGE_LOOP('',(#336));
#944=EDGE_LOOP('',(#337));
#945=EDGE_LOOP('',(#338));
#946=EDGE_LOOP('',(#339));
#947=EDGE_LOOP('',(#340));
#948=EDGE_LOOP('',(#341));
#949=EDGE_LOOP('',(#342));
#950=EDGE_LOOP('',(#343));
#951=EDGE_LOOP('',(#344));
#952=EDGE_LOOP('',(#345));
#953=EDGE_LOOP('',(#346));
#954=EDGE_LOOP('',(#347));
#955=EDGE_LOOP('',(#348));
#956=EDGE_LOOP('',(#349));
#957=EDGE_LOOP('',(#350));
#958=EDGE_LOOP('',(#351));
#959=EDGE_LOOP('',(#352));
#960=EDGE_LOOP('',(#353));
#961=EDGE_LOOP('',(#354));
#962=EDGE_LOOP('',(#355));
#963=EDGE_LOOP('',(#356));
#964=EDGE_LOOP('',(#357));
#965=EDGE_LOOP('',(#358));
#966=EDGE_LOOP('',(#359));
#967=EDGE_LOOP('',(#360));
#968=EDGE_LOOP('',(#361));
#969=EDGE_LOOP('',(#362));
#970=EDGE_LOOP('',(#363));
#971=EDGE_LOOP('',(#364));
#972=EDGE_LOOP('',(#365));
#973=EDGE_LOOP('',(#366));
#974=EDGE_LOOP('',(#367));
#975=EDGE_LOOP('',(#368));
#976=EDGE_LOOP('',(#369));
#977=EDGE_LOOP('',(#370));
#978=EDGE_LOOP('',(#371));
#979=EDGE_LOOP('',(#372));
#980=EDGE_LOOP('',(#373));
#981=EDGE_LOOP('',(#374));
#982=EDGE_LOOP('',(#375));
#983=EDGE_LOOP('',(#376));
#984=EDGE_LOOP('',(#377));
#985=EDGE_LOOP('',(#378));
#986=EDGE_LOOP('',(#379));
#987=EDGE_LOOP('',(#380));
#988=EDGE_LOOP('',(#381));
#989=EDGE_LOOP('',(#382));
#990=EDGE_LOOP('',(#383));
#991=EDGE_LOOP('',(#384));
#992=EDGE_LOOP('',(#385));
#993=EDGE_LOOP('',(#386));
#994=EDGE_LOOP('',(#387));
#995=EDGE_LOOP('',(#388));
#996=EDGE_LOOP('',(#389,#390,#391,#392));
#997=EDGE_LOOP('',(#393));
#998=EDGE_LOOP('',(#394));
#999=EDGE_LOOP('',(#395));
#1000=EDGE_LOOP('',(#396));
#1001=EDGE_LOOP('',(#397));
#1002=EDGE_LOOP('',(#398));
#1003=EDGE_LOOP('',(#399));
#1004=EDGE_LOOP('',(#400));
#1005=EDGE_LOOP('',(#401));
#1006=EDGE_LOOP('',(#402));
#1007=EDGE_LOOP('',(#403));
#1008=EDGE_LOOP('',(#404));
#1009=EDGE_LOOP('',(#405,#406,#407,#408));
#1010=EDGE_LOOP('',(#409,#410,#411,#412));
#1011=EDGE_LOOP('',(#413,#414,#415,#416));
#1012=EDGE_LOOP('',(#417,#418,#419,#420));
#1013=EDGE_LOOP('',(#421));
#1014=EDGE_LOOP('',(#422));
#1015=EDGE_LOOP('',(#423));
#1016=EDGE_LOOP('',(#424));
#1017=EDGE_LOOP('',(#425));
#1018=EDGE_LOOP('',(#426));
#1019=EDGE_LOOP('',(#427));
#1020=EDGE_LOOP('',(#428));
#1021=EDGE_LOOP('',(#429));
#1022=EDGE_LOOP('',(#430));
#1023=EDGE_LOOP('',(#431));
#1024=EDGE_LOOP('',(#432));
#1025=EDGE_LOOP('',(#433));
#1026=EDGE_LOOP('',(#434));
#1027=EDGE_LOOP('',(#435));
#1028=EDGE_LOOP('',(#436));
#1029=EDGE_LOOP('',(#437));
#1030=EDGE_LOOP('',(#438));
#1031=EDGE_LOOP('',(#439));
#1032=EDGE_LOOP('',(#440));
#1033=EDGE_LOOP('',(#441));
#1034=EDGE_LOOP('',(#442));
#1035=EDGE_LOOP('',(#443));
#1036=EDGE_LOOP('',(#444));
#1037=EDGE_LOOP('',(#445));
#1038=EDGE_LOOP('',(#446));
#1039=EDGE_LOOP('',(#447));
#1040=EDGE_LOOP('',(#448));
#1041=FACE_BOUND('',#824,.T.);
#1042=FACE_BOUND('',#825,.T.);
#1043=FACE_BOUND('',#826,.T.);
#1044=FACE_BOUND('',#827,.T.);
#1045=FACE_BOUND('',#828,.T.);
#1046=FACE_BOUND('',#829,.T.);
#1047=FACE_BOUND('',#830,.T.);
#1048=FACE_BOUND('',#831,.T.);
#1049=FACE_BOUND('',#832,.T.);
#1050=FACE_BOUND('',#833,.T.);
#1051=FACE_BOUND('',#834,.T.);
#1052=FACE_BOUND('',#835,.T.);
#1053=FACE_BOUND('',#836,.T.);
#1054=FACE_BOUND('',#837,.T.);
#1055=FACE_BOUND('',#838,.T.);
#1056=FACE_BOUND('',#839,.T.);
#1057=FACE_BOUND('',#840,.T.);
#1058=FACE_BOUND('',#841,.T.);
#1059=FACE_BOUND('',#842,.T.);
#1060=FACE_BOUND('',#843,.T.);
#1061=FACE_BOUND('',#844,.T.);
#1062=FACE_BOUND('',#845,.T.);
#1063=FACE_BOUND('',#846,.T.);
#1064=FACE_BOUND('',#847,.T.);
#1065=FACE_BOUND('',#848,.T.);
#1066=FACE_BOUND('',#849,.T.);
#1067=FACE_BOUND('',#850,.T.);
#1068=FACE_BOUND('',#851,.T.);
#1069=FACE_BOUND('',#852,.T.);
#1070=FACE_BOUND('',#853,.T.);
#1071=FACE_BOUND('',#854,.T.);
#1072=FACE_BOUND('',#855,.T.);
#1073=FACE_BOUND('',#856,.T.);
#1074=FACE_BOUND('',#857,.T.);
#1075=FACE_BOUND('',#858,.T.);
#1076=FACE_BOUND('',#859,.T.);
#1077=FACE_BOUND('',#860,.T.);
#1078=FACE_BOUND('',#861,.T.);
#1079=FACE_BOUND('',#862,.T.);
#1080=FACE_BOUND('',#863,.T.);
#1081=FACE_BOUND('',#864,.T.);
#1082=FACE_BOUND('',#865,.T.);
#1083=FACE_BOUND('',#866,.T.);
#1084=FACE_BOUND('',#867,.T.);
#1085=FACE_BOUND('',#868,.T.);
#1086=FACE_BOUND('',#869,.T.);
#1087=FACE_BOUND('',#870,.T.);
#1088=FACE_BOUND('',#871,.T.);
#1089=FACE_BOUND('',#872,.T.);
#1090=FACE_BOUND('',#873,.T.);
#1091=FACE_BOUND('',#874,.T.);
#1092=FACE_BOUND('',#875,.T.);
#1093=FACE_BOUND('',#876,.T.);
#1094=FACE_BOUND('',#877,.T.);
#1095=FACE_BOUND('',#878,.T.);
#1096=FACE_BOUND('',#879,.T.);
#1097=FACE_BOUND('',#880,.T.);
#1098=FACE_BOUND('',#881,.T.);
#1099=FACE_BOUND('',#882,.T.);
#1100=FACE_BOUND('',#883,.T.);
#1101=FACE_BOUND('',#884,.T.);
#1102=FACE_BOUND('',#885,.T.);
#1103=FACE_BOUND('',#886,.T.);
#1104=FACE_BOUND('',#887,.T.);
#1105=FACE_BOUND('',#888,.T.);
#1106=FACE_BOUND('',#889,.T.);
#1107=FACE_BOUND('',#890,.T.);
#1108=FACE_BOUND('',#891,.T.);
#1109=FACE_BOUND('',#892,.T.);
#1110=FACE_BOUND('',#893,.T.);
#1111=FACE_BOUND('',#894,.T.);
#1112=FACE_BOUND('',#895,.T.);
#1113=FACE_BOUND('',#896,.T.);
#1114=FACE_BOUND('',#897,.T.);
#1115=FACE_BOUND('',#898,.T.);
#1116=FACE_BOUND('',#899,.T.);
#1117=FACE_BOUND('',#900,.T.);
#1118=FACE_BOUND('',#901,.T.);
#1119=FACE_BOUND('',#902,.T.);
#1120=FACE_BOUND('',#903,.T.);
#1121=FACE_BOUND('',#904,.T.);
#1122=FACE_BOUND('',#905,.T.);
#1123=FACE_BOUND('',#906,.T.);
#1124=FACE_BOUND('',#907,.T.);
#1125=FACE_BOUND('',#908,.T.);
#1126=FACE_BOUND('',#909,.T.);
#1127=FACE_BOUND('',#910,.T.);
#1128=FACE_BOUND('',#911,.T.);
#1129=FACE_BOUND('',#912,.T.);
#1130=FACE_BOUND('',#913,.T.);
#1131=FACE_BOUND('',#914,.T.);
#1132=FACE_BOUND('',#915,.T.);
#1133=FACE_BOUND('',#916,.T.);
#1134=FACE_BOUND('',#917,.T.);
#1135=FACE_BOUND('',#918,.T.);
#1136=FACE_BOUND('',#919,.T.);
#1137=FACE_BOUND('',#920,.T.);
#1138=FACE_BOUND('',#921,.T.);
#1139=FACE_BOUND('',#922,.T.);
#1140=FACE_BOUND('',#923,.T.);
#1141=FACE_BOUND('',#924,.T.);
#1142=FACE_BOUND('',#925,.T.);
#1143=FACE_BOUND('',#926,.T.);
#1144=FACE_BOUND('',#927,.T.);
#1145=FACE_BOUND('',#928,.T.);
#1146=FACE_BOUND('',#929,.T.);
#1147=FACE_BOUND('',#930,.T.);
#1148=FACE_BOUND('',#931,.T.);
#1149=FACE_BOUND('',#932,.T.);
#1150=FACE_BOUND('',#933,.T.);
#1151=FACE_BOUND('',#934,.T.);
#1152=FACE_BOUND('',#935,.T.);
#1153=FACE_BOUND('',#936,.T.);
#1154=FACE_BOUND('',#937,.T.);
#1155=FACE_BOUND('',#938,.T.);
#1156=FACE_BOUND('',#939,.T.);
#1157=FACE_BOUND('',#940,.T.);
#1158=FACE_BOUND('',#941,.T.);
#1159=FACE_BOUND('',#942,.T.);
#1160=FACE_BOUND('',#943,.T.);
#1161=FACE_BOUND('',#944,.T.);
#1162=FACE_BOUND('',#945,.T.);
#1163=FACE_BOUND('',#946,.T.);
#1164=FACE_BOUND('',#947,.T.);
#1165=FACE_BOUND('',#948,.T.);
#1166=FACE_BOUND('',#949,.T.);
#1167=FACE_BOUND('',#950,.T.);
#1168=FACE_BOUND('',#951,.T.);
#1169=FACE_BOUND('',#952,.T.);
#1170=FACE_BOUND('',#953,.T.);
#1171=FACE_BOUND('',#954,.T.);
#1172=FACE_BOUND('',#955,.T.);
#1173=FACE_BOUND('',#956,.T.);
#1174=FACE_BOUND('',#957,.T.);
#1175=FACE_BOUND('',#958,.T.);
#1176=FACE_BOUND('',#959,.T.);
#1177=FACE_BOUND('',#960,.T.);
#1178=FACE_BOUND('',#961,.T.);
#1179=FACE_BOUND('',#962,.T.);
#1180=FACE_BOUND('',#963,.T.);
#1181=FACE_BOUND('',#964,.T.);
#1182=FACE_BOUND('',#965,.T.);
#1183=FACE_BOUND('',#966,.T.);
#1184=FACE_BOUND('',#967,.T.);
#1185=FACE_BOUND('',#968,.T.);
#1186=FACE_BOUND('',#969,.T.);
#1187=FACE_BOUND('',#970,.T.);
#1188=FACE_BOUND('',#971,.T.);
#1189=FACE_BOUND('',#972,.T.);
#1190=FACE_BOUND('',#973,.T.);
#1191=FACE_BOUND('',#974,.T.);
#1192=FACE_BOUND('',#975,.T.);
#1193=FACE_BOUND('',#976,.T.);
#1194=FACE_BOUND('',#977,.T.);
#1195=FACE_BOUND('',#978,.T.);
#1196=FACE_BOUND('',#979,.T.);
#1197=FACE_BOUND('',#980,.T.);
#1198=FACE_BOUND('',#981,.T.);
#1199=FACE_BOUND('',#982,.T.);
#1200=FACE_BOUND('',#983,.T.);
#1201=FACE_BOUND('',#984,.T.);
#1202=FACE_BOUND('',#985,.T.);
#1203=FACE_BOUND('',#986,.T.);
#1204=FACE_BOUND('',#987,.T.);
#1205=FACE_BOUND('',#988,.T.);
#1206=FACE_BOUND('',#989,.T.);
#1207=FACE_BOUND('',#990,.T.);
#1208=FACE_BOUND('',#991,.T.);
#1209=FACE_BOUND('',#992,.T.);
#1210=FACE_BOUND('',#993,.T.);
#1211=FACE_BOUND('',#994,.T.);
#1212=FACE_BOUND('',#995,.T.);
#1213=FACE_BOUND('',#996,.T.);
#1214=FACE_BOUND('',#997,.T.);
#1215=FACE_BOUND('',#998,.T.);
#1216=FACE_BOUND('',#999,.T.);
#1217=FACE_BOUND('',#1000,.T.);
#1218=FACE_BOUND('',#1001,.T.);
#1219=FACE_BOUND('',#1002,.T.);
#1220=FACE_BOUND('',#1003,.T.);
#1221=FACE_BOUND('',#1004,.T.);
#1222=FACE_BOUND('',#1005,.T.);
#1223=FACE_BOUND('',#1006,.T.);
#1224=FACE_BOUND('',#1007,.T.);
#1225=FACE_BOUND('',#1008,.T.);
#1226=FACE_BOUND('',#1009,.T.);
#1227=FACE_BOUND('',#1010,.T.);
#1228=FACE_BOUND('',#1011,.T.);
#1229=FACE_BOUND('',#1012,.T.);
#1230=FACE_BOUND('',#1013,.T.);
#1231=FACE_BOUND('',#1014,.T.);
#1232=FACE_BOUND('',#1015,.T.);
#1233=FACE_BOUND('',#1016,.T.);
#1234=FACE_BOUND('',#1017,.T.);
#1235=FACE_BOUND('',#1018,.T.);
#1236=FACE_BOUND('',#1019,.T.);
#1237=FACE_BOUND('',#1020,.T.);
#1238=FACE_BOUND('',#1021,.T.);
#1239=FACE_BOUND('',#1022,.T.);
#1240=FACE_BOUND('',#1023,.T.);
#1241=FACE_BOUND('',#1024,.T.);
#1242=FACE_BOUND('',#1025,.T.);
#1243=FACE_BOUND('',#1026,.T.);
#1244=FACE_BOUND('',#1027,.T.);
#1245=FACE_BOUND('',#1028,.T.);
#1246=FACE_BOUND('',#1029,.T.);
#1247=FACE_BOUND('',#1030,.T.);
#1248=FACE_BOUND('',#1031,.T.);
#1249=FACE_BOUND('',#1032,.T.);
#1250=FACE_BOUND('',#1033,.T.);
#1251=FACE_BOUND('',#1034,.T.);
#1252=FACE_BOUND('',#1035,.T.);
#1253=FACE_BOUND('',#1036,.T.);
#1254=FACE_BOUND('',#1037,.T.);
#1255=FACE_BOUND('',#1038,.T.);
#1256=FACE_BOUND('',#1039,.T.);
#1257=FACE_BOUND('',#1040,.T.);
#1258=CYLINDRICAL_SURFACE('',#1420,4.);
#1259=CYLINDRICAL_SURFACE('',#1461,3.);
#1260=CYLINDRICAL_SURFACE('',#1463,3.);
#1261=CYLINDRICAL_SURFACE('',#1465,3.);
#1262=CYLINDRICAL_SURFACE('',#1467,4.1);
#1263=CYLINDRICAL_SURFACE('',#1471,4.1);
#1264=CYLINDRICAL_SURFACE('',#1475,4.1);
#1265=CYLINDRICAL_SURFACE('',#1479,3.00000011568882);
#1266=CYLINDRICAL_SURFACE('',#1481,3.00000012446574);
#1267=CYLINDRICAL_SURFACE('',#1505,3.);
#1268=CYLINDRICAL_SURFACE('',#1507,3.);
#1269=CYLINDRICAL_SURFACE('',#1509,3.);
#1270=CYLINDRICAL_SURFACE('',#1511,3.);
#1271=CYLINDRICAL_SURFACE('',#1513,3.);
#1272=CYLINDRICAL_SURFACE('',#1515,3.);
#1273=CYLINDRICAL_SURFACE('',#1517,3.);
#1274=CYLINDRICAL_SURFACE('',#1519,3.);
#1275=CYLINDRICAL_SURFACE('',#1521,3.);
#1276=CYLINDRICAL_SURFACE('',#1523,3.);
#1277=CYLINDRICAL_SURFACE('',#1525,3.);
#1278=CYLINDRICAL_SURFACE('',#1527,3.);
#1279=CYLINDRICAL_SURFACE('',#1529,3.);
#1280=CYLINDRICAL_SURFACE('',#1531,3.);
#1281=CYLINDRICAL_SURFACE('',#1533,5.);
#1282=CYLINDRICAL_SURFACE('',#1536,5.);
#1283=CYLINDRICAL_SURFACE('',#1539,5.);
#1284=CYLINDRICAL_SURFACE('',#1542,5.);
#1285=CYLINDRICAL_SURFACE('',#1545,5.);
#1286=CYLINDRICAL_SURFACE('',#1548,5.);
#1287=CYLINDRICAL_SURFACE('',#1551,5.);
#1288=CYLINDRICAL_SURFACE('',#1554,5.);
#1289=CYLINDRICAL_SURFACE('',#1557,5.);
#1290=CYLINDRICAL_SURFACE('',#1560,5.);
#1291=CYLINDRICAL_SURFACE('',#1563,5.);
#1292=CYLINDRICAL_SURFACE('',#1566,5.);
#1293=CYLINDRICAL_SURFACE('',#1569,5.);
#1294=CYLINDRICAL_SURFACE('',#1572,5.);
#1295=CYLINDRICAL_SURFACE('',#1576,2.125);
#1296=CYLINDRICAL_SURFACE('',#1579,2.125);
#1297=CYLINDRICAL_SURFACE('',#1582,2.125);
#1298=CYLINDRICAL_SURFACE('',#1585,2.125);
#1299=CYLINDRICAL_SURFACE('',#1592,1.5);
#1300=CYLINDRICAL_SURFACE('',#1595,1.5);
#1301=CYLINDRICAL_SURFACE('',#1598,1.5);
#1302=CYLINDRICAL_SURFACE('',#1601,1.5);
#1303=CYLINDRICAL_SURFACE('',#1604,1.5);
#1304=CYLINDRICAL_SURFACE('',#1607,1.5);
#1305=CYLINDRICAL_SURFACE('',#1610,1.5);
#1306=CYLINDRICAL_SURFACE('',#1613,1.5);
#1307=CYLINDRICAL_SURFACE('',#1616,6.);
#1308=ADVANCED_FACE('',(#1041,#1042),#1258,.F.);
#1309=ADVANCED_FACE('',(#1043,#1044,#1045,#1046),#110,.F.);
#1310=ADVANCED_FACE('',(#1047),#111,.T.);
#1311=ADVANCED_FACE('',(#1048,#1049,#1050,#1051,#1052),#112,.F.);
#1312=ADVANCED_FACE('',(#1053,#1054,#1055,#1056,#1057),#113,.F.);
#1313=ADVANCED_FACE('',(#1058,#1059,#1060,#1061),#114,.T.);
#1314=ADVANCED_FACE('',(#1062),#115,.F.);
#1315=ADVANCED_FACE('',(#1063,#1064,#1065,#1066,#1067,#1068,#1069,#1070,
#1071,#1072,#1073,#1074,#1075,#1076,#1077),#116,.T.);
#1316=ADVANCED_FACE('',(#1078),#117,.F.);
#1317=ADVANCED_FACE('',(#1079,#1080),#118,.F.);
#1318=ADVANCED_FACE('',(#1081),#119,.F.);
#1319=ADVANCED_FACE('',(#1082,#1083),#1259,.F.);
#1320=ADVANCED_FACE('',(#1084,#1085),#1260,.F.);
#1321=ADVANCED_FACE('',(#1086,#1087),#1261,.F.);
#1322=ADVANCED_FACE('',(#1088,#1089),#1262,.F.);
#1323=ADVANCED_FACE('',(#1090,#1091),#120,.F.);
#1324=ADVANCED_FACE('',(#1092,#1093),#1263,.F.);
#1325=ADVANCED_FACE('',(#1094,#1095),#121,.F.);
#1326=ADVANCED_FACE('',(#1096,#1097),#1264,.F.);
#1327=ADVANCED_FACE('',(#1098,#1099),#122,.F.);
#1328=ADVANCED_FACE('',(#1100,#1101),#1265,.F.);
#1329=ADVANCED_FACE('',(#1102,#1103),#1266,.F.);
#1330=ADVANCED_FACE('',(#1104,#1105,#1106,#1107,#1108,#1109,#1110,#1111,
#1112,#1113,#1114,#1115,#1116,#1117,#1118,#1119,#1120,#1121),#123,.F.);
#1331=ADVANCED_FACE('',(#1122),#124,.T.);
#1332=ADVANCED_FACE('',(#1123),#125,.T.);
#1333=ADVANCED_FACE('',(#1124,#1125,#1126,#1127,#1128),#126,.F.);
#1334=ADVANCED_FACE('',(#1129,#1130),#1267,.F.);
#1335=ADVANCED_FACE('',(#1131,#1132),#1268,.F.);
#1336=ADVANCED_FACE('',(#1133,#1134),#1269,.F.);
#1337=ADVANCED_FACE('',(#1135,#1136),#1270,.F.);
#1338=ADVANCED_FACE('',(#1137,#1138),#1271,.F.);
#1339=ADVANCED_FACE('',(#1139,#1140),#1272,.F.);
#1340=ADVANCED_FACE('',(#1141,#1142),#1273,.F.);
#1341=ADVANCED_FACE('',(#1143,#1144),#1274,.F.);
#1342=ADVANCED_FACE('',(#1145,#1146),#1275,.F.);
#1343=ADVANCED_FACE('',(#1147,#1148),#1276,.F.);
#1344=ADVANCED_FACE('',(#1149,#1150),#1277,.F.);
#1345=ADVANCED_FACE('',(#1151,#1152),#1278,.F.);
#1346=ADVANCED_FACE('',(#1153,#1154),#1279,.F.);
#1347=ADVANCED_FACE('',(#1155,#1156),#1280,.F.);
#1348=ADVANCED_FACE('',(#1157,#1158),#1281,.F.);
#1349=ADVANCED_FACE('',(#1159,#1160),#127,.F.);
#1350=ADVANCED_FACE('',(#1161,#1162),#1282,.F.);
#1351=ADVANCED_FACE('',(#1163,#1164),#128,.F.);
#1352=ADVANCED_FACE('',(#1165,#1166),#1283,.F.);
#1353=ADVANCED_FACE('',(#1167,#1168),#129,.F.);
#1354=ADVANCED_FACE('',(#1169,#1170),#1284,.F.);
#1355=ADVANCED_FACE('',(#1171,#1172),#130,.F.);
#1356=ADVANCED_FACE('',(#1173,#1174),#1285,.F.);
#1357=ADVANCED_FACE('',(#1175,#1176),#131,.F.);
#1358=ADVANCED_FACE('',(#1177,#1178),#1286,.F.);
#1359=ADVANCED_FACE('',(#1179,#1180),#132,.F.);
#1360=ADVANCED_FACE('',(#1181,#1182),#1287,.F.);
#1361=ADVANCED_FACE('',(#1183,#1184),#133,.F.);
#1362=ADVANCED_FACE('',(#1185,#1186),#1288,.F.);
#1363=ADVANCED_FACE('',(#1187,#1188),#134,.F.);
#1364=ADVANCED_FACE('',(#1189,#1190),#1289,.F.);
#1365=ADVANCED_FACE('',(#1191,#1192),#135,.F.);
#1366=ADVANCED_FACE('',(#1193,#1194),#1290,.F.);
#1367=ADVANCED_FACE('',(#1195,#1196),#136,.F.);
#1368=ADVANCED_FACE('',(#1197,#1198),#1291,.F.);
#1369=ADVANCED_FACE('',(#1199,#1200),#137,.F.);
#1370=ADVANCED_FACE('',(#1201,#1202),#1292,.F.);
#1371=ADVANCED_FACE('',(#1203,#1204),#138,.F.);
#1372=ADVANCED_FACE('',(#1205,#1206),#1293,.F.);
#1373=ADVANCED_FACE('',(#1207,#1208),#139,.F.);
#1374=ADVANCED_FACE('',(#1209,#1210),#1294,.F.);
#1375=ADVANCED_FACE('',(#1211,#1212),#140,.F.);
#1376=ADVANCED_FACE('',(#1213),#141,.T.);
#1377=ADVANCED_FACE('',(#1214,#1215),#1295,.F.);
#1378=ADVANCED_FACE('',(#1216),#142,.F.);
#1379=ADVANCED_FACE('',(#1217,#1218),#1296,.F.);
#1380=ADVANCED_FACE('',(#1219),#143,.F.);
#1381=ADVANCED_FACE('',(#1220,#1221),#1297,.F.);
#1382=ADVANCED_FACE('',(#1222),#144,.F.);
#1383=ADVANCED_FACE('',(#1223,#1224),#1298,.F.);
#1384=ADVANCED_FACE('',(#1225),#145,.F.);
#1385=ADVANCED_FACE('',(#1226),#146,.F.);
#1386=ADVANCED_FACE('',(#1227),#147,.F.);
#1387=ADVANCED_FACE('',(#1228),#148,.F.);
#1388=ADVANCED_FACE('',(#1229),#149,.F.);
#1389=ADVANCED_FACE('',(#1230,#1231),#1299,.F.);
#1390=ADVANCED_FACE('',(#1232),#150,.F.);
#1391=ADVANCED_FACE('',(#1233,#1234),#1300,.F.);
#1392=ADVANCED_FACE('',(#1235),#151,.F.);
#1393=ADVANCED_FACE('',(#1236,#1237),#1301,.F.);
#1394=ADVANCED_FACE('',(#1238),#152,.F.);
#1395=ADVANCED_FACE('',(#1239,#1240),#1302,.F.);
#1396=ADVANCED_FACE('',(#1241),#153,.F.);
#1397=ADVANCED_FACE('',(#1242,#1243),#1303,.F.);
#1398=ADVANCED_FACE('',(#1244),#154,.F.);
#1399=ADVANCED_FACE('',(#1245,#1246),#1304,.F.);
#1400=ADVANCED_FACE('',(#1247),#155,.F.);
#1401=ADVANCED_FACE('',(#1248,#1249),#1305,.F.);
#1402=ADVANCED_FACE('',(#1250),#156,.F.);
#1403=ADVANCED_FACE('',(#1251,#1252),#1306,.F.);
#1404=ADVANCED_FACE('',(#1253),#157,.F.);
#1405=ADVANCED_FACE('',(#1254,#1255),#1307,.F.);
#1406=ADVANCED_FACE('',(#1256,#1257),#158,.T.);
#1407=CLOSED_SHELL('',(#1308,#1309,#1310,#1311,#1312,#1313,#1314,#1315,
#1316,#1317,#1318,#1319,#1320,#1321,#1322,#1323,#1324,#1325,#1326,#1327,
#1328,#1329,#1330,#1331,#1332,#1333,#1334,#1335,#1336,#1337,#1338,#1339,
#1340,#1341,#1342,#1343,#1344,#1345,#1346,#1347,#1348,#1349,#1350,#1351,
#1352,#1353,#1354,#1355,#1356,#1357,#1358,#1359,#1360,#1361,#1362,#1363,
#1364,#1365,#1366,#1367,#1368,#1369,#1370,#1371,#1372,#1373,#1374,#1375,
#1376,#1377,#1378,#1379,#1380,#1381,#1382,#1383,#1384,#1385,#1386,#1387,
#1388,#1389,#1390,#1391,#1392,#1393,#1394,#1395,#1396,#1397,#1398,#1399,
#1400,#1401,#1402,#1403,#1404,#1405,#1406));
#1408=STYLED_ITEM('',(#1409),#1416);
#1409=PRESENTATION_STYLE_ASSIGNMENT((#1410));
#1410=SURFACE_STYLE_USAGE(.BOTH.,#1411);
#1411=SURFACE_SIDE_STYLE('',(#1412));
#1412=SURFACE_STYLE_FILL_AREA(#1413);
#1413=FILL_AREA_STYLE('',(#1414));
#1414=FILL_AREA_STYLE_COLOUR('',#1415);
#1415=COLOUR_RGB('',0.506983280181885,0.531564235687256,0.550000011920929);
#1416=MANIFOLD_SOLID_BREP('',#1407);
#1417=SHAPE_DEFINITION_REPRESENTATION(#2445,#1418);
#1418=SHAPE_REPRESENTATION('12_FDML_stimfix_Badal_stage_bottom',(#1419),
#2440);
#1419=AXIS2_PLACEMENT_3D('',#2064,#1619,#1620);
#1420=AXIS2_PLACEMENT_3D('',#2065,#1621,#1622);
#1421=AXIS2_PLACEMENT_3D('',#2066,#1623,#1624);
#1422=AXIS2_PLACEMENT_3D('',#2068,#1625,#1626);
#1423=AXIS2_PLACEMENT_3D('',#2070,#1627,#1628);
#1424=AXIS2_PLACEMENT_3D('',#2071,#1629,#1630);
#1425=AXIS2_PLACEMENT_3D('',#2093,#1641,#1642);
#1426=AXIS2_PLACEMENT_3D('',#2095,#1643,#1644);
#1427=AXIS2_PLACEMENT_3D('',#2097,#1645,#1646);
#1428=AXIS2_PLACEMENT_3D('',#2106,#1651,#1652);
#1429=AXIS2_PLACEMENT_3D('',#2107,#1653,#1654);
#1430=AXIS2_PLACEMENT_3D('',#2109,#1655,#1656);
#1431=AXIS2_PLACEMENT_3D('',#2111,#1657,#1658);
#1432=AXIS2_PLACEMENT_3D('',#2113,#1659,#1660);
#1433=AXIS2_PLACEMENT_3D('',#2120,#1664,#1665);
#1434=AXIS2_PLACEMENT_3D('',#2121,#1666,#1667);
#1435=AXIS2_PLACEMENT_3D('',#2123,#1668,#1669);
#1436=AXIS2_PLACEMENT_3D('',#2125,#1670,#1671);
#1437=AXIS2_PLACEMENT_3D('',#2127,#1672,#1673);
#1438=AXIS2_PLACEMENT_3D('',#2142,#1681,#1682);
#1439=AXIS2_PLACEMENT_3D('',#2143,#1683,#1684);
#1440=AXIS2_PLACEMENT_3D('',#2145,#1685,#1686);
#1441=AXIS2_PLACEMENT_3D('',#2147,#1687,#1688);
#1442=AXIS2_PLACEMENT_3D('',#2154,#1692,#1693);
#1443=AXIS2_PLACEMENT_3D('',#2156,#1695,#1696);
#1444=AXIS2_PLACEMENT_3D('',#2157,#1697,#1698);
#1445=AXIS2_PLACEMENT_3D('',#2159,#1699,#1700);
#1446=AXIS2_PLACEMENT_3D('',#2162,#1702,#1703);
#1447=AXIS2_PLACEMENT_3D('',#2164,#1704,#1705);
#1448=AXIS2_PLACEMENT_3D('',#2166,#1706,#1707);
#1449=AXIS2_PLACEMENT_3D('',#2168,#1708,#1709);
#1450=AXIS2_PLACEMENT_3D('',#2170,#1710,#1711);
#1451=AXIS2_PLACEMENT_3D('',#2172,#1712,#1713);
#1452=AXIS2_PLACEMENT_3D('',#2174,#1714,#1715);
#1453=AXIS2_PLACEMENT_3D('',#2176,#1716,#1717);
#1454=AXIS2_PLACEMENT_3D('',#2178,#1718,#1719);
#1455=AXIS2_PLACEMENT_3D('',#2180,#1720,#1721);
#1456=AXIS2_PLACEMENT_3D('',#2182,#1722,#1723);
#1457=AXIS2_PLACEMENT_3D('',#2184,#1724,#1725);
#1458=AXIS2_PLACEMENT_3D('',#2186,#1726,#1727);
#1459=AXIS2_PLACEMENT_3D('',#2190,#1730,#1731);
#1460=AXIS2_PLACEMENT_3D('',#2194,#1734,#1735);
#1461=AXIS2_PLACEMENT_3D('',#2196,#1737,#1738);
#1462=AXIS2_PLACEMENT_3D('',#2197,#1739,#1740);
#1463=AXIS2_PLACEMENT_3D('',#2199,#1741,#1742);
#1464=AXIS2_PLACEMENT_3D('',#2200,#1743,#1744);
#1465=AXIS2_PLACEMENT_3D('',#2202,#1745,#1746);
#1466=AXIS2_PLACEMENT_3D('',#2203,#1747,#1748);
#1467=AXIS2_PLACEMENT_3D('',#2205,#1749,#1750);
#1468=AXIS2_PLACEMENT_3D('',#2206,#1751,#1752);
#1469=AXIS2_PLACEMENT_3D('',#2208,#1753,#1754);
#1470=AXIS2_PLACEMENT_3D('',#2210,#1755,#1756);
#1471=AXIS2_PLACEMENT_3D('',#2211,#1757,#1758);
#1472=AXIS2_PLACEMENT_3D('',#2212,#1759,#1760);
#1473=AXIS2_PLACEMENT_3D('',#2214,#1761,#1762);
#1474=AXIS2_PLACEMENT_3D('',#2216,#1763,#1764);
#1475=AXIS2_PLACEMENT_3D('',#2217,#1765,#1766);
#1476=AXIS2_PLACEMENT_3D('',#2218,#1767,#1768);
#1477=AXIS2_PLACEMENT_3D('',#2220,#1769,#1770);
#1478=AXIS2_PLACEMENT_3D('',#2222,#1771,#1772);
#1479=AXIS2_PLACEMENT_3D('',#2223,#1773,#1774);
#1480=AXIS2_PLACEMENT_3D('',#2224,#1775,#1776);
#1481=AXIS2_PLACEMENT_3D('',#2226,#1777,#1778);
#1482=AXIS2_PLACEMENT_3D('',#2227,#1779,#1780);
#1483=AXIS2_PLACEMENT_3D('',#2229,#1781,#1782);
#1484=AXIS2_PLACEMENT_3D('',#2230,#1783,#1784);
#1485=AXIS2_PLACEMENT_3D('',#2232,#1785,#1786);
#1486=AXIS2_PLACEMENT_3D('',#2240,#1791,#1792);
#1487=AXIS2_PLACEMENT_3D('',#2242,#1793,#1794);
#1488=AXIS2_PLACEMENT_3D('',#2244,#1795,#1796);
#1489=AXIS2_PLACEMENT_3D('',#2246,#1797,#1798);
#1490=AXIS2_PLACEMENT_3D('',#2248,#1799,#1800);
#1491=AXIS2_PLACEMENT_3D('',#2250,#1801,#1802);
#1492=AXIS2_PLACEMENT_3D('',#2252,#1803,#1804);
#1493=AXIS2_PLACEMENT_3D('',#2254,#1805,#1806);
#1494=AXIS2_PLACEMENT_3D('',#2256,#1807,#1808);
#1495=AXIS2_PLACEMENT_3D('',#2258,#1809,#1810);
#1496=AXIS2_PLACEMENT_3D('',#2260,#1811,#1812);
#1497=AXIS2_PLACEMENT_3D('',#2262,#1813,#1814);
#1498=AXIS2_PLACEMENT_3D('',#2264,#1815,#1816);
#1499=AXIS2_PLACEMENT_3D('',#2265,#1817,#1818);
#1500=AXIS2_PLACEMENT_3D('',#2266,#1819,#1820);
#1501=AXIS2_PLACEMENT_3D('',#2267,#1821,#1822);
#1502=AXIS2_PLACEMENT_3D('',#2269,#1823,#1824);
#1503=AXIS2_PLACEMENT_3D('',#2271,#1825,#1826);
#1504=AXIS2_PLACEMENT_3D('',#2273,#1827,#1828);
#1505=AXIS2_PLACEMENT_3D('',#2282,#1834,#1835);
#1506=AXIS2_PLACEMENT_3D('',#2283,#1836,#1837);
#1507=AXIS2_PLACEMENT_3D('',#2285,#1838,#1839);
#1508=AXIS2_PLACEMENT_3D('',#2286,#1840,#1841);
#1509=AXIS2_PLACEMENT_3D('',#2288,#1842,#1843);
#1510=AXIS2_PLACEMENT_3D('',#2289,#1844,#1845);
#1511=AXIS2_PLACEMENT_3D('',#2291,#1846,#1847);
#1512=AXIS2_PLACEMENT_3D('',#2292,#1848,#1849);
#1513=AXIS2_PLACEMENT_3D('',#2294,#1850,#1851);
#1514=AXIS2_PLACEMENT_3D('',#2295,#1852,#1853);
#1515=AXIS2_PLACEMENT_3D('',#2297,#1854,#1855);
#1516=AXIS2_PLACEMENT_3D('',#2298,#1856,#1857);
#1517=AXIS2_PLACEMENT_3D('',#2300,#1858,#1859);
#1518=AXIS2_PLACEMENT_3D('',#2301,#1860,#1861);
#1519=AXIS2_PLACEMENT_3D('',#2303,#1862,#1863);
#1520=AXIS2_PLACEMENT_3D('',#2304,#1864,#1865);
#1521=AXIS2_PLACEMENT_3D('',#2306,#1866,#1867);
#1522=AXIS2_PLACEMENT_3D('',#2307,#1868,#1869);
#1523=AXIS2_PLACEMENT_3D('',#2309,#1870,#1871);
#1524=AXIS2_PLACEMENT_3D('',#2310,#1872,#1873);
#1525=AXIS2_PLACEMENT_3D('',#2312,#1874,#1875);
#1526=AXIS2_PLACEMENT_3D('',#2313,#1876,#1877);
#1527=AXIS2_PLACEMENT_3D('',#2315,#1878,#1879);
#1528=AXIS2_PLACEMENT_3D('',#2316,#1880,#1881);
#1529=AXIS2_PLACEMENT_3D('',#2318,#1882,#1883);
#1530=AXIS2_PLACEMENT_3D('',#2319,#1884,#1885);
#1531=AXIS2_PLACEMENT_3D('',#2321,#1886,#1887);
#1532=AXIS2_PLACEMENT_3D('',#2322,#1888,#1889);
#1533=AXIS2_PLACEMENT_3D('',#2324,#1890,#1891);
#1534=AXIS2_PLACEMENT_3D('',#2325,#1892,#1893);
#1535=AXIS2_PLACEMENT_3D('',#2327,#1894,#1895);
#1536=AXIS2_PLACEMENT_3D('',#2328,#1896,#1897);
#1537=AXIS2_PLACEMENT_3D('',#2329,#1898,#1899);
#1538=AXIS2_PLACEMENT_3D('',#2331,#1900,#1901);
#1539=AXIS2_PLACEMENT_3D('',#2332,#1902,#1903);
#1540=AXIS2_PLACEMENT_3D('',#2333,#1904,#1905);
#1541=AXIS2_PLACEMENT_3D('',#2335,#1906,#1907);
#1542=AXIS2_PLACEMENT_3D('',#2336,#1908,#1909);
#1543=AXIS2_PLACEMENT_3D('',#2337,#1910,#1911);
#1544=AXIS2_PLACEMENT_3D('',#2339,#1912,#1913);
#1545=AXIS2_PLACEMENT_3D('',#2340,#1914,#1915);
#1546=AXIS2_PLACEMENT_3D('',#2341,#1916,#1917);
#1547=AXIS2_PLACEMENT_3D('',#2343,#1918,#1919);
#1548=AXIS2_PLACEMENT_3D('',#2344,#1920,#1921);
#1549=AXIS2_PLACEMENT_3D('',#2345,#1922,#1923);
#1550=AXIS2_PLACEMENT_3D('',#2347,#1924,#1925);
#1551=AXIS2_PLACEMENT_3D('',#2348,#1926,#1927);
#1552=AXIS2_PLACEMENT_3D('',#2349,#1928,#1929);
#1553=AXIS2_PLACEMENT_3D('',#2351,#1930,#1931);
#1554=AXIS2_PLACEMENT_3D('',#2352,#1932,#1933);
#1555=AXIS2_PLACEMENT_3D('',#2353,#1934,#1935);
#1556=AXIS2_PLACEMENT_3D('',#2355,#1936,#1937);
#1557=AXIS2_PLACEMENT_3D('',#2356,#1938,#1939);
#1558=AXIS2_PLACEMENT_3D('',#2357,#1940,#1941);
#1559=AXIS2_PLACEMENT_3D('',#2359,#1942,#1943);
#1560=AXIS2_PLACEMENT_3D('',#2360,#1944,#1945);
#1561=AXIS2_PLACEMENT_3D('',#2361,#1946,#1947);
#1562=AXIS2_PLACEMENT_3D('',#2363,#1948,#1949);
#1563=AXIS2_PLACEMENT_3D('',#2364,#1950,#1951);
#1564=AXIS2_PLACEMENT_3D('',#2365,#1952,#1953);
#1565=AXIS2_PLACEMENT_3D('',#2367,#1954,#1955);
#1566=AXIS2_PLACEMENT_3D('',#2368,#1956,#1957);
#1567=AXIS2_PLACEMENT_3D('',#2369,#1958,#1959);
#1568=AXIS2_PLACEMENT_3D('',#2371,#1960,#1961);
#1569=AXIS2_PLACEMENT_3D('',#2372,#1962,#1963);
#1570=AXIS2_PLACEMENT_3D('',#2373,#1964,#1965);
#1571=AXIS2_PLACEMENT_3D('',#2375,#1966,#1967);
#1572=AXIS2_PLACEMENT_3D('',#2376,#1968,#1969);
#1573=AXIS2_PLACEMENT_3D('',#2377,#1970,#1971);
#1574=AXIS2_PLACEMENT_3D('',#2379,#1972,#1973);
#1575=AXIS2_PLACEMENT_3D('',#2380,#1974,#1975);
#1576=AXIS2_PLACEMENT_3D('',#2381,#1976,#1977);
#1577=AXIS2_PLACEMENT_3D('',#2382,#1978,#1979);
#1578=AXIS2_PLACEMENT_3D('',#2384,#1980,#1981);
#1579=AXIS2_PLACEMENT_3D('',#2385,#1982,#1983);
#1580=AXIS2_PLACEMENT_3D('',#2386,#1984,#1985);
#1581=AXIS2_PLACEMENT_3D('',#2388,#1986,#1987);
#1582=AXIS2_PLACEMENT_3D('',#2389,#1988,#1989);
#1583=AXIS2_PLACEMENT_3D('',#2390,#1990,#1991);
#1584=AXIS2_PLACEMENT_3D('',#2392,#1992,#1993);
#1585=AXIS2_PLACEMENT_3D('',#2393,#1994,#1995);
#1586=AXIS2_PLACEMENT_3D('',#2394,#1996,#1997);
#1587=AXIS2_PLACEMENT_3D('',#2396,#1998,#1999);
#1588=AXIS2_PLACEMENT_3D('',#2397,#2000,#2001);
#1589=AXIS2_PLACEMENT_3D('',#2399,#2003,#2004);
#1590=AXIS2_PLACEMENT_3D('',#2400,#2005,#2006);
#1591=AXIS2_PLACEMENT_3D('',#2402,#2008,#2009);
#1592=AXIS2_PLACEMENT_3D('',#2403,#2010,#2011);
#1593=AXIS2_PLACEMENT_3D('',#2404,#2012,#2013);
#1594=AXIS2_PLACEMENT_3D('',#2406,#2014,#2015);
#1595=AXIS2_PLACEMENT_3D('',#2407,#2016,#2017);
#1596=AXIS2_PLACEMENT_3D('',#2408,#2018,#2019);
#1597=AXIS2_PLACEMENT_3D('',#2410,#2020,#2021);
#1598=AXIS2_PLACEMENT_3D('',#2411,#2022,#2023);
#1599=AXIS2_PLACEMENT_3D('',#2412,#2024,#2025);
#1600=AXIS2_PLACEMENT_3D('',#2414,#2026,#2027);
#1601=AXIS2_PLACEMENT_3D('',#2415,#2028,#2029);
#1602=AXIS2_PLACEMENT_3D('',#2416,#2030,#2031);
#1603=AXIS2_PLACEMENT_3D('',#2418,#2032,#2033);
#1604=AXIS2_PLACEMENT_3D('',#2419,#2034,#2035);
#1605=AXIS2_PLACEMENT_3D('',#2420,#2036,#2037);
#1606=AXIS2_PLACEMENT_3D('',#2422,#2038,#2039);
#1607=AXIS2_PLACEMENT_3D('',#2423,#2040,#2041);
#1608=AXIS2_PLACEMENT_3D('',#2424,#2042,#2043);
#1609=AXIS2_PLACEMENT_3D('',#2426,#2044,#2045);
#1610=AXIS2_PLACEMENT_3D('',#2427,#2046,#2047);
#1611=AXIS2_PLACEMENT_3D('',#2428,#2048,#2049);
#1612=AXIS2_PLACEMENT_3D('',#2430,#2050,#2051);
#1613=AXIS2_PLACEMENT_3D('',#2431,#2052,#2053);
#1614=AXIS2_PLACEMENT_3D('',#2432,#2054,#2055);
#1615=AXIS2_PLACEMENT_3D('',#2434,#2056,#2057);
#1616=AXIS2_PLACEMENT_3D('',#2435,#2058,#2059);
#1617=AXIS2_PLACEMENT_3D('',#2436,#2060,#2061);
#1618=AXIS2_PLACEMENT_3D('',#2438,#2062,#2063);
#1619=DIRECTION('',(0.,0.,1.));
#1620=DIRECTION('',(1.,0.,0.));
#1621=DIRECTION('',(0.,1.,0.));
#1622=DIRECTION('',(0.,0.,1.));
#1623=DIRECTION('',(0.,-1.,0.));
#1624=DIRECTION('',(0.,0.,1.));
#1625=DIRECTION('',(0.,-1.,0.));
#1626=DIRECTION('',(0.,0.,-1.));
#1627=DIRECTION('',(0.,1.,0.));
#1628=DIRECTION('',(0.,0.,1.));
#1629=DIRECTION('',(1.22464679914735E-16,-1.,0.));
#1630=DIRECTION('',(-1.,-1.22464679914735E-16,0.));
#1631=DIRECTION('',(1.,0.,0.));
#1632=DIRECTION('',(0.,0.,1.));
#1633=DIRECTION('',(-1.,0.,0.));
#1634=DIRECTION('',(0.,0.,-1.));
#1635=DIRECTION('',(1.,1.15648231731787E-15,0.));
#1636=DIRECTION('',(0.,0.,1.));
#1637=DIRECTION('',(1.,-1.88249970263354E-16,0.));
#1638=DIRECTION('',(0.,0.,-1.));
#1639=DIRECTION('',(1.,0.,0.));
#1640=DIRECTION('',(0.,0.,1.));
#1641=DIRECTION('',(2.31296463463574E-15,1.,0.));
#1642=DIRECTION('',(-1.,2.31296463463574E-15,0.));
#1643=DIRECTION('',(0.,1.,0.));
#1644=DIRECTION('',(0.,0.,1.));
#1645=DIRECTION('',(1.,0.,0.));
#1646=DIRECTION('',(0.,0.,-1.));
#1647=DIRECTION('',(0.,1.,9.25205986193591E-18));
#1648=DIRECTION('',(0.,0.,1.));
#1649=DIRECTION('',(0.,-1.,0.));
#1650=DIRECTION('',(0.,0.,1.));
#1651=DIRECTION('',(0.,0.,-1.));
#1652=DIRECTION('',(-1.,0.,0.));
#1653=DIRECTION('',(0.,0.,-1.));
#1654=DIRECTION('',(-3.70082394477436E-17,-1.,0.));
#1655=DIRECTION('',(0.,0.,-1.));
#1656=DIRECTION('',(-3.70082394477436E-17,-1.,0.));
#1657=DIRECTION('',(0.,0.,-1.));
#1658=DIRECTION('',(-3.70082394477436E-17,-1.,0.));
#1659=DIRECTION('',(0.,0.,-1.));
#1660=DIRECTION('',(-3.70082394477436E-17,-1.,0.));
#1661=DIRECTION('',(0.,1.,0.));
#1662=DIRECTION('',(-1.,0.,0.));
#1663=DIRECTION('',(7.93034935072588E-17,-1.,0.));
#1664=DIRECTION('',(0.,1.,0.));
#1665=DIRECTION('',(0.,0.,1.));
#1666=DIRECTION('',(0.,1.,0.));
#1667=DIRECTION('',(1.,0.,-1.6277784329331E-17));
#1668=DIRECTION('',(0.,1.,0.));
#1669=DIRECTION('',(1.,0.,-1.6277784329331E-17));
#1670=DIRECTION('',(0.,1.,0.));
#1671=DIRECTION('',(1.,0.,-1.6277784329331E-17));
#1672=DIRECTION('',(0.,1.,0.));
#1673=DIRECTION('',(1.,0.,-1.6277784329331E-17));
#1674=DIRECTION('',(0.,0.,1.));
#1675=DIRECTION('',(-1.,0.,1.6277784329331E-17));
#1676=DIRECTION('',(0.,0.,1.));
#1677=DIRECTION('',(-1.,0.,0.));
#1678=DIRECTION('',(1.6277784329331E-17,0.,1.));
#1679=DIRECTION('',(1.,0.,-1.6277784329331E-17));
#1680=DIRECTION('',(-1.6277784329331E-17,0.,-1.));
#1681=DIRECTION('',(0.,0.,1.));
#1682=DIRECTION('',(1.,0.,0.));
#1683=DIRECTION('',(0.,0.,-1.));
#1684=DIRECTION('',(1.,0.,0.));
#1685=DIRECTION('',(0.,0.,-1.));
#1686=DIRECTION('',(1.,0.,0.));
#1687=DIRECTION('',(0.,0.,-1.));
#1688=DIRECTION('',(1.,0.,0.));
#1689=DIRECTION('',(0.,-1.,0.));
#1690=DIRECTION('',(0.,1.,0.));
#1691=DIRECTION('',(-1.,0.,0.));
#1692=DIRECTION('',(-1.,-1.04085531888381E-16,0.));
#1693=DIRECTION('',(1.04085531888381E-16,-1.,0.));
#1694=DIRECTION('',(1.04085531888381E-16,-1.,0.));
#1695=DIRECTION('',(0.,0.,1.));
#1696=DIRECTION('',(1.,0.,0.));
#1697=DIRECTION('',(0.,0.,-1.));
#1698=DIRECTION('',(1.,0.,0.));
#1699=DIRECTION('',(0.,0.,-1.));
#1700=DIRECTION('',(1.,0.,0.));
#1701=DIRECTION('',(0.,-1.,0.));
#1702=DIRECTION('',(0.,0.,-1.));
#1703=DIRECTION('',(1.,0.,0.));
#1704=DIRECTION('',(0.,0.,-1.));
#1705=DIRECTION('',(1.,0.,0.));
#1706=DIRECTION('',(0.,0.,-1.));
#1707=DIRECTION('',(1.,0.,0.));
#1708=DIRECTION('',(0.,0.,-1.));
#1709=DIRECTION('',(1.,0.,0.));
#1710=DIRECTION('',(0.,0.,-1.));
#1711=DIRECTION('',(1.,0.,0.));
#1712=DIRECTION('',(0.,0.,-1.));
#1713=DIRECTION('',(1.,0.,0.));
#1714=DIRECTION('',(0.,0.,-1.));
#1715=DIRECTION('',(1.,0.,0.));
#1716=DIRECTION('',(0.,0.,-1.));
#1717=DIRECTION('',(1.,0.,0.));
#1718=DIRECTION('',(0.,0.,-1.));
#1719=DIRECTION('',(1.,0.,0.));
#1720=DIRECTION('',(0.,0.,-1.));
#1721=DIRECTION('',(1.,0.,0.));
#1722=DIRECTION('',(0.,0.,-1.));
#1723=DIRECTION('',(1.,0.,0.));
#1724=DIRECTION('',(0.,0.,-1.));
#1725=DIRECTION('',(1.,0.,0.));
#1726=DIRECTION('',(-1.,0.,0.));
#1727=DIRECTION('',(0.,0.,1.));
#1728=DIRECTION('',(0.,1.,0.));
#1729=DIRECTION('',(0.,0.,-1.));
#1730=DIRECTION('',(0.,-1.,0.));
#1731=DIRECTION('',(0.,0.,-1.));
#1732=DIRECTION('',(-1.,0.,0.));
#1733=DIRECTION('',(0.,0.,-1.));
#1734=DIRECTION('',(1.,0.,0.));
#1735=DIRECTION('',(0.,0.,-1.));
#1736=DIRECTION('',(0.,-1.,0.));
#1737=DIRECTION('',(0.,0.,1.));
#1738=DIRECTION('',(1.,0.,0.));
#1739=DIRECTION('',(0.,0.,1.));
#1740=DIRECTION('',(1.,0.,0.));
#1741=DIRECTION('',(0.,0.,1.));
#1742=DIRECTION('',(1.,0.,0.));
#1743=DIRECTION('',(0.,0.,1.));
#1744=DIRECTION('',(1.,0.,0.));
#1745=DIRECTION('',(0.,0.,1.));
#1746=DIRECTION('',(1.,0.,0.));
#1747=DIRECTION('',(0.,0.,1.));
#1748=DIRECTION('',(1.,0.,0.));
#1749=DIRECTION('',(0.,0.,-1.));
#1750=DIRECTION('',(-1.,0.,0.));
#1751=DIRECTION('',(0.,0.,1.));
#1752=DIRECTION('',(-1.,0.,0.));
#1753=DIRECTION('',(0.,0.,1.));
#1754=DIRECTION('',(1.,0.,0.));
#1755=DIRECTION('',(0.,0.,1.));
#1756=DIRECTION('',(1.,0.,0.));
#1757=DIRECTION('',(0.,0.,-1.));
#1758=DIRECTION('',(-1.,0.,0.));
#1759=DIRECTION('',(0.,0.,1.));
#1760=DIRECTION('',(-1.,0.,0.));
#1761=DIRECTION('',(0.,0.,1.));
#1762=DIRECTION('',(1.,0.,0.));
#1763=DIRECTION('',(0.,0.,1.));
#1764=DIRECTION('',(1.,0.,0.));
#1765=DIRECTION('',(0.,0.,-1.));
#1766=DIRECTION('',(-1.,0.,0.));
#1767=DIRECTION('',(0.,0.,1.));
#1768=DIRECTION('',(-1.,0.,0.));
#1769=DIRECTION('',(0.,0.,1.));
#1770=DIRECTION('',(1.,0.,0.));
#1771=DIRECTION('',(0.,0.,1.));
#1772=DIRECTION('',(1.,0.,0.));
#1773=DIRECTION('',(0.,-1.,0.));
#1774=DIRECTION('',(0.,0.,-1.));
#1775=DIRECTION('',(0.,-1.,0.));
#1776=DIRECTION('',(0.,0.,-1.));
#1777=DIRECTION('',(0.,-1.,0.));
#1778=DIRECTION('',(0.,0.,-1.));
#1779=DIRECTION('',(0.,-1.,0.));
#1780=DIRECTION('',(0.,0.,-1.));
#1781=DIRECTION('',(0.,0.,1.));
#1782=DIRECTION('',(1.,0.,0.));
#1783=DIRECTION('',(0.,0.,1.));
#1784=DIRECTION('',(1.,0.,0.));
#1785=DIRECTION('',(0.,0.,1.));
#1786=DIRECTION('',(1.,0.,0.));
#1787=DIRECTION('',(3.09548450067491E-18,-1.,0.));
#1788=DIRECTION('',(-0.707106781186548,-0.707106781186548,0.));
#1789=DIRECTION('',(0.70710678118655,-0.707106781186545,0.));
#1790=DIRECTION('',(1.79940669503833E-16,-1.,0.));
#1791=DIRECTION('',(0.,0.,1.));
#1792=DIRECTION('',(1.,0.,0.));
#1793=DIRECTION('',(0.,0.,1.));
#1794=DIRECTION('',(1.,0.,0.));
#1795=DIRECTION('',(0.,0.,1.));
#1796=DIRECTION('',(1.,0.,0.));
#1797=DIRECTION('',(0.,0.,1.));
#1798=DIRECTION('',(1.,0.,0.));
#1799=DIRECTION('',(0.,0.,1.));
#1800=DIRECTION('',(1.,0.,0.));
#1801=DIRECTION('',(0.,0.,1.));
#1802=DIRECTION('',(1.,0.,0.));
#1803=DIRECTION('',(0.,0.,1.));
#1804=DIRECTION('',(1.,0.,0.));
#1805=DIRECTION('',(0.,0.,1.));
#1806=DIRECTION('',(1.,0.,0.));
#1807=DIRECTION('',(0.,0.,1.));
#1808=DIRECTION('',(1.,0.,0.));
#1809=DIRECTION('',(0.,0.,1.));
#1810=DIRECTION('',(1.,0.,0.));
#1811=DIRECTION('',(0.,0.,1.));
#1812=DIRECTION('',(1.,0.,0.));
#1813=DIRECTION('',(0.,0.,1.));
#1814=DIRECTION('',(1.,0.,0.));
#1815=DIRECTION('',(0.,-1.,0.));
#1816=DIRECTION('',(0.,0.,-1.));
#1817=DIRECTION('',(0.,-1.,0.));
#1818=DIRECTION('',(0.,0.,-1.));
#1819=DIRECTION('',(0.,0.,-1.));
#1820=DIRECTION('',(-1.,0.,0.));
#1821=DIRECTION('',(0.,0.,-1.));
#1822=DIRECTION('',(-3.70082394477436E-17,-1.,0.));
#1823=DIRECTION('',(0.,0.,-1.));
#1824=DIRECTION('',(-3.70082394477436E-17,-1.,0.));
#1825=DIRECTION('',(0.,0.,-1.));
#1826=DIRECTION('',(-3.70082394477436E-17,-1.,0.));
#1827=DIRECTION('',(0.,0.,-1.));
#1828=DIRECTION('',(-3.70082394477436E-17,-1.,0.));
#1829=DIRECTION('',(0.,1.,0.));
#1830=DIRECTION('',(1.79940669503833E-16,-1.,0.));
#1831=DIRECTION('',(0.70710678118655,-0.707106781186545,0.));
#1832=DIRECTION('',(-0.707106781186548,-0.707106781186548,0.));
#1833=DIRECTION('',(3.09548450067491E-18,-1.,0.));
#1834=DIRECTION('',(0.,0.,1.));
#1835=DIRECTION('',(1.,0.,0.));
#1836=DIRECTION('',(0.,0.,-1.));
#1837=DIRECTION('',(-1.,0.,0.));
#1838=DIRECTION('',(0.,0.,1.));
#1839=DIRECTION('',(1.,0.,0.));
#1840=DIRECTION('',(0.,0.,-1.));
#1841=DIRECTION('',(-1.,0.,0.));
#1842=DIRECTION('',(0.,0.,1.));
#1843=DIRECTION('',(1.,0.,0.));
#1844=DIRECTION('',(0.,0.,-1.));
#1845=DIRECTION('',(-1.,0.,0.));
#1846=DIRECTION('',(0.,0.,1.));
#1847=DIRECTION('',(1.,0.,0.));
#1848=DIRECTION('',(0.,0.,-1.));
#1849=DIRECTION('',(-1.,0.,0.));
#1850=DIRECTION('',(0.,0.,1.));
#1851=DIRECTION('',(1.,0.,0.));
#1852=DIRECTION('',(0.,0.,-1.));
#1853=DIRECTION('',(-1.,0.,0.));
#1854=DIRECTION('',(0.,0.,1.));
#1855=DIRECTION('',(1.,0.,0.));
#1856=DIRECTION('',(0.,0.,-1.));
#1857=DIRECTION('',(-1.,0.,0.));
#1858=DIRECTION('',(0.,0.,1.));
#1859=DIRECTION('',(1.,0.,0.));
#1860=DIRECTION('',(0.,0.,-1.));
#1861=DIRECTION('',(-1.,0.,0.));
#1862=DIRECTION('',(0.,0.,1.));
#1863=DIRECTION('',(1.,0.,0.));
#1864=DIRECTION('',(0.,0.,-1.));
#1865=DIRECTION('',(-1.,0.,0.));
#1866=DIRECTION('',(0.,0.,1.));
#1867=DIRECTION('',(1.,0.,0.));
#1868=DIRECTION('',(0.,0.,-1.));
#1869=DIRECTION('',(-1.,0.,0.));
#1870=DIRECTION('',(0.,0.,1.));
#1871=DIRECTION('',(1.,0.,0.));
#1872=DIRECTION('',(0.,0.,-1.));
#1873=DIRECTION('',(-1.,0.,0.));
#1874=DIRECTION('',(0.,0.,1.));
#1875=DIRECTION('',(1.,0.,0.));
#1876=DIRECTION('',(0.,0.,-1.));
#1877=DIRECTION('',(-1.,0.,0.));
#1878=DIRECTION('',(0.,0.,1.));
#1879=DIRECTION('',(1.,0.,0.));
#1880=DIRECTION('',(0.,0.,-1.));
#1881=DIRECTION('',(-1.,0.,0.));
#1882=DIRECTION('',(0.,0.,1.));
#1883=DIRECTION('',(1.,0.,0.));
#1884=DIRECTION('',(0.,0.,-1.));
#1885=DIRECTION('',(-1.,0.,0.));
#1886=DIRECTION('',(0.,0.,1.));
#1887=DIRECTION('',(1.,0.,0.));
#1888=DIRECTION('',(0.,0.,-1.));
#1889=DIRECTION('',(-1.,0.,0.));
#1890=DIRECTION('',(0.,0.,1.));
#1891=DIRECTION('',(1.,0.,0.));
#1892=DIRECTION('',(0.,0.,-1.));
#1893=DIRECTION('',(1.,0.,0.));
#1894=DIRECTION('',(0.,0.,-1.));
#1895=DIRECTION('',(-1.,0.,0.));
#1896=DIRECTION('',(0.,0.,1.));
#1897=DIRECTION('',(1.,0.,0.));
#1898=DIRECTION('',(0.,0.,-1.));
#1899=DIRECTION('',(1.,0.,0.));
#1900=DIRECTION('',(0.,0.,-1.));
#1901=DIRECTION('',(-1.,0.,0.));
#1902=DIRECTION('',(0.,0.,1.));
#1903=DIRECTION('',(1.,0.,0.));
#1904=DIRECTION('',(0.,0.,-1.));
#1905=DIRECTION('',(1.,0.,0.));
#1906=DIRECTION('',(0.,0.,-1.));
#1907=DIRECTION('',(-1.,0.,0.));
#1908=DIRECTION('',(0.,0.,1.));
#1909=DIRECTION('',(1.,0.,0.));
#1910=DIRECTION('',(0.,0.,-1.));
#1911=DIRECTION('',(1.,0.,0.));
#1912=DIRECTION('',(0.,0.,-1.));
#1913=DIRECTION('',(-1.,0.,0.));
#1914=DIRECTION('',(0.,0.,1.));
#1915=DIRECTION('',(1.,0.,0.));
#1916=DIRECTION('',(0.,0.,-1.));
#1917=DIRECTION('',(1.,0.,0.));
#1918=DIRECTION('',(0.,0.,-1.));
#1919=DIRECTION('',(-1.,0.,0.));
#1920=DIRECTION('',(0.,0.,1.));
#1921=DIRECTION('',(1.,0.,0.));
#1922=DIRECTION('',(0.,0.,-1.));
#1923=DIRECTION('',(1.,0.,0.));
#1924=DIRECTION('',(0.,0.,-1.));
#1925=DIRECTION('',(-1.,0.,0.));
#1926=DIRECTION('',(0.,0.,1.));
#1927=DIRECTION('',(1.,0.,0.));
#1928=DIRECTION('',(0.,0.,-1.));
#1929=DIRECTION('',(1.,0.,0.));
#1930=DIRECTION('',(0.,0.,-1.));
#1931=DIRECTION('',(-1.,0.,0.));
#1932=DIRECTION('',(0.,0.,1.));
#1933=DIRECTION('',(1.,0.,0.));
#1934=DIRECTION('',(0.,0.,-1.));
#1935=DIRECTION('',(1.,0.,0.));
#1936=DIRECTION('',(0.,0.,-1.));
#1937=DIRECTION('',(-1.,0.,0.));
#1938=DIRECTION('',(0.,0.,1.));
#1939=DIRECTION('',(1.,0.,0.));
#1940=DIRECTION('',(0.,0.,-1.));
#1941=DIRECTION('',(1.,0.,0.));
#1942=DIRECTION('',(0.,0.,-1.));
#1943=DIRECTION('',(-1.,0.,0.));
#1944=DIRECTION('',(0.,0.,1.));
#1945=DIRECTION('',(1.,0.,0.));
#1946=DIRECTION('',(0.,0.,-1.));
#1947=DIRECTION('',(1.,0.,0.));
#1948=DIRECTION('',(0.,0.,-1.));
#1949=DIRECTION('',(-1.,0.,0.));
#1950=DIRECTION('',(0.,0.,1.));
#1951=DIRECTION('',(1.,0.,0.));
#1952=DIRECTION('',(0.,0.,-1.));
#1953=DIRECTION('',(1.,0.,0.));
#1954=DIRECTION('',(0.,0.,-1.));
#1955=DIRECTION('',(-1.,0.,0.));
#1956=DIRECTION('',(0.,0.,1.));
#1957=DIRECTION('',(1.,0.,0.));
#1958=DIRECTION('',(0.,0.,-1.));
#1959=DIRECTION('',(1.,0.,0.));
#1960=DIRECTION('',(0.,0.,-1.));
#1961=DIRECTION('',(-1.,0.,0.));
#1962=DIRECTION('',(0.,0.,1.));
#1963=DIRECTION('',(1.,0.,0.));
#1964=DIRECTION('',(0.,0.,-1.));
#1965=DIRECTION('',(1.,0.,0.));
#1966=DIRECTION('',(0.,0.,-1.));
#1967=DIRECTION('',(-1.,0.,0.));
#1968=DIRECTION('',(0.,0.,1.));
#1969=DIRECTION('',(1.,0.,0.));
#1970=DIRECTION('',(0.,0.,-1.));
#1971=DIRECTION('',(1.,0.,0.));
#1972=DIRECTION('',(0.,0.,-1.));
#1973=DIRECTION('',(-1.,0.,0.));
#1974=DIRECTION('',(-1.,0.,0.));
#1975=DIRECTION('',(0.,0.,1.));
#1976=DIRECTION('',(0.,-1.,0.));
#1977=DIRECTION('',(0.,0.,-1.));
#1978=DIRECTION('',(0.,1.,0.));
#1979=DIRECTION('',(1.,0.,-1.6277784329331E-17));
#1980=DIRECTION('',(0.,1.,0.));
#1981=DIRECTION('',(0.,0.,1.));
#1982=DIRECTION('',(0.,-1.,0.));
#1983=DIRECTION('',(0.,0.,-1.));
#1984=DIRECTION('',(0.,1.,0.));
#1985=DIRECTION('',(1.,0.,-1.6277784329331E-17));
#1986=DIRECTION('',(0.,1.,0.));
#1987=DIRECTION('',(0.,0.,1.));
#1988=DIRECTION('',(0.,-1.,0.));
#1989=DIRECTION('',(0.,0.,-1.));
#1990=DIRECTION('',(0.,1.,0.));
#1991=DIRECTION('',(1.,0.,-1.6277784329331E-17));
#1992=DIRECTION('',(0.,1.,0.));
#1993=DIRECTION('',(0.,0.,1.));
#1994=DIRECTION('',(0.,-1.,0.));
#1995=DIRECTION('',(0.,0.,-1.));
#1996=DIRECTION('',(0.,1.,0.));
#1997=DIRECTION('',(1.,0.,-1.6277784329331E-17));
#1998=DIRECTION('',(0.,1.,0.));
#1999=DIRECTION('',(0.,0.,1.));
#2000=DIRECTION('',(-0.707106781186545,-0.70710678118655,0.));
#2001=DIRECTION('',(0.70710678118655,-0.707106781186545,0.));
#2002=DIRECTION('',(0.,0.,1.));
#2003=DIRECTION('',(-1.,-1.79940669503833E-16,0.));
#2004=DIRECTION('',(1.79940669503833E-16,-1.,0.));
#2005=DIRECTION('',(-0.707106781186547,0.707106781186547,0.));
#2006=DIRECTION('',(-0.707106781186548,-0.707106781186548,0.));
#2007=DIRECTION('',(0.,0.,1.));
#2008=DIRECTION('',(-1.,-3.09548450067491E-18,0.));
#2009=DIRECTION('',(3.09548450067491E-18,-1.,0.));
#2010=DIRECTION('',(0.,0.,1.));
#2011=DIRECTION('',(1.,0.,0.));
#2012=DIRECTION('',(0.,0.,-1.));
#2013=DIRECTION('',(-3.70082394477436E-17,-1.,0.));
#2014=DIRECTION('',(0.,0.,-1.));
#2015=DIRECTION('',(-1.,0.,0.));
#2016=DIRECTION('',(0.,0.,1.));
#2017=DIRECTION('',(1.,0.,0.));
#2018=DIRECTION('',(0.,0.,-1.));
#2019=DIRECTION('',(-3.70082394477436E-17,-1.,0.));
#2020=DIRECTION('',(0.,0.,-1.));
#2021=DIRECTION('',(-1.,0.,0.));
#2022=DIRECTION('',(0.,0.,1.));
#2023=DIRECTION('',(1.,0.,0.));
#2024=DIRECTION('',(0.,0.,-1.));
#2025=DIRECTION('',(-3.70082394477436E-17,-1.,0.));
#2026=DIRECTION('',(0.,0.,-1.));
#2027=DIRECTION('',(-1.,0.,0.));
#2028=DIRECTION('',(0.,0.,1.));
#2029=DIRECTION('',(1.,0.,0.));
#2030=DIRECTION('',(0.,0.,-1.));
#2031=DIRECTION('',(-3.70082394477436E-17,-1.,0.));
#2032=DIRECTION('',(0.,0.,-1.));
#2033=DIRECTION('',(-1.,0.,0.));
#2034=DIRECTION('',(0.,0.,1.));
#2035=DIRECTION('',(1.,0.,0.));
#2036=DIRECTION('',(0.,0.,-1.));
#2037=DIRECTION('',(-3.70082394477436E-17,-1.,0.));
#2038=DIRECTION('',(0.,0.,-1.));
#2039=DIRECTION('',(-1.,0.,0.));
#2040=DIRECTION('',(0.,0.,1.));
#2041=DIRECTION('',(1.,0.,0.));
#2042=DIRECTION('',(0.,0.,-1.));
#2043=DIRECTION('',(-3.70082394477436E-17,-1.,0.));
#2044=DIRECTION('',(0.,0.,-1.));
#2045=DIRECTION('',(-1.,0.,0.));
#2046=DIRECTION('',(0.,0.,1.));
#2047=DIRECTION('',(1.,0.,0.));
#2048=DIRECTION('',(0.,0.,-1.));
#2049=DIRECTION('',(-3.70082394477436E-17,-1.,0.));
#2050=DIRECTION('',(0.,0.,-1.));
#2051=DIRECTION('',(-1.,0.,0.));
#2052=DIRECTION('',(0.,0.,1.));
#2053=DIRECTION('',(1.,0.,0.));
#2054=DIRECTION('',(0.,0.,-1.));
#2055=DIRECTION('',(-3.70082394477436E-17,-1.,0.));
#2056=DIRECTION('',(0.,0.,-1.));
#2057=DIRECTION('',(-1.,0.,0.));
#2058=DIRECTION('',(0.,1.,0.));
#2059=DIRECTION('',(0.,0.,1.));
#2060=DIRECTION('',(1.22464679914735E-16,-1.,0.));
#2061=DIRECTION('',(-1.,-1.22464679914735E-16,0.));
#2062=DIRECTION('',(1.22464679914735E-16,-1.,0.));
#2063=DIRECTION('',(1.,1.22464679914735E-16,0.));
#2064=CARTESIAN_POINT('',(0.,0.,0.));
#2065=CARTESIAN_POINT('',(-13.31,-0.250000000000002,9.525));
#2066=CARTESIAN_POINT('',(-13.31,12.5,9.525));
#2067=CARTESIAN_POINT('',(-13.31,12.5,13.525));
#2068=CARTESIAN_POINT('',(-13.31,-1.95156391047391E-15,9.525));
#2069=CARTESIAN_POINT('',(-13.31,-1.95156391047391E-15,5.525));
#2070=CARTESIAN_POINT('',(-62.5,-12.5,19.05));
#2071=CARTESIAN_POINT('',(-13.31,-12.5,9.525));
#2072=CARTESIAN_POINT('',(-19.31,-12.5,9.525));
#2073=CARTESIAN_POINT('',(-62.5,-12.5,15.55));
#2074=CARTESIAN_POINT('',(-62.5,-12.5,15.55));
#2075=CARTESIAN_POINT('',(-52.5,-12.5,15.55));
#2076=CARTESIAN_POINT('',(-52.5,-12.5,4.05));
#2077=CARTESIAN_POINT('',(-52.5,-12.5,0.00500000000000153));
#2078=CARTESIAN_POINT('',(34.07,-12.5,0.00500000000000153));
#2079=CARTESIAN_POINT('',(27.5,-12.5,0.00500000000000153));
#2080=CARTESIAN_POINT('',(27.5,-12.5,0.00500000000000153));
#2081=CARTESIAN_POINT('',(27.5,-12.5,15.55));
#2082=CARTESIAN_POINT('',(34.07,-12.5,15.55));
#2083=CARTESIAN_POINT('',(47.6,-12.5,15.55));
#2084=CARTESIAN_POINT('',(47.6,-12.5,-10.));
#2085=CARTESIAN_POINT('',(47.6,-12.5,-10.));
#2086=CARTESIAN_POINT('',(44.07,-12.5,-10.));
#2087=CARTESIAN_POINT('',(62.5,-12.5,-10.));
#2088=CARTESIAN_POINT('',(62.5,-12.5,19.05));
#2089=CARTESIAN_POINT('',(62.5,-12.5,19.05));
#2090=CARTESIAN_POINT('',(-62.5,-12.5,19.05));
#2091=CARTESIAN_POINT('',(-62.5,-12.5,19.05));
#2092=CARTESIAN_POINT('',(-62.5,-12.5,15.55));
#2093=CARTESIAN_POINT('',(12.6799998755343,-12.5,9.525));
#2094=CARTESIAN_POINT('',(9.67999975106853,-12.5,9.525));
#2095=CARTESIAN_POINT('',(-39.2999998843112,-12.5,9.525));
#2096=CARTESIAN_POINT('',(-39.2999998843112,-12.5,12.5250001156888));
#2097=CARTESIAN_POINT('',(45.32,0.,0.));
#2098=CARTESIAN_POINT('',(45.32,-199.995920028973,-10.));
#2099=CARTESIAN_POINT('',(45.32,-117.755920028973,-10.));
#2100=CARTESIAN_POINT('',(45.32,-58.0359200289731,-10.));
#2101=CARTESIAN_POINT('',(45.32,-58.0359200289731,-10.));
#2102=CARTESIAN_POINT('',(45.32,-58.0359200289731,15.55));
#2103=CARTESIAN_POINT('',(45.32,-12.5,15.55));
#2104=CARTESIAN_POINT('',(45.32,-117.755920028973,15.55));
#2105=CARTESIAN_POINT('',(45.32,-117.755920028973,-10.));
#2106=CARTESIAN_POINT('',(0.,0.,15.55));
#2107=CARTESIAN_POINT('',(-57.5,-176.558930025352,15.55));
#2108=CARTESIAN_POINT('',(-57.5,-178.058930025352,15.55));
#2109=CARTESIAN_POINT('',(-57.5,-129.684950018108,15.55));
#2110=CARTESIAN_POINT('',(-57.5,-131.184950018108,15.55));
#2111=CARTESIAN_POINT('',(-57.5,-82.8109700108649,15.55));
#2112=CARTESIAN_POINT('',(-57.5,-84.3109700108649,15.55));
#2113=CARTESIAN_POINT('',(-57.5,-35.9369900036216,15.55));
#2114=CARTESIAN_POINT('',(-57.5,-37.4369900036216,15.55));
#2115=CARTESIAN_POINT('',(-62.5,-12.5,15.55));
#2116=CARTESIAN_POINT('',(-62.5,-199.995920028973,15.55));
#2117=CARTESIAN_POINT('',(-62.5,-199.995920028973,15.55));
#2118=CARTESIAN_POINT('',(-52.5,-199.995920028973,15.55));
#2119=CARTESIAN_POINT('',(-52.5,-12.5,15.55));
#2120=CARTESIAN_POINT('',(0.,-199.995920028973,0.));
#2121=CARTESIAN_POINT('',(-57.5,-199.995920028973,2.775));
#2122=CARTESIAN_POINT('',(-55.375,-199.995920028973,2.775));
#2123=CARTESIAN_POINT('',(-35.8575,-199.995920028973,-5.));
#2124=CARTESIAN_POINT('',(-33.7325,-199.995920028973,-5.));
#2125=CARTESIAN_POINT('',(35.785,-199.995920028973,2.775));
#2126=CARTESIAN_POINT('',(37.91,-199.995920028973,2.775));
#2127=CARTESIAN_POINT('',(17.4275,-199.995920028973,-4.99999999999999));
#2128=CARTESIAN_POINT('',(19.5525,-199.995920028973,-4.99999999999999));
#2129=CARTESIAN_POINT('',(-62.5,-199.995920028973,-10.));
#2130=CARTESIAN_POINT('',(-62.5,-199.995920028973,-10.));
#2131=CARTESIAN_POINT('',(44.07,-199.995920028973,-10.));
#2132=CARTESIAN_POINT('',(47.6,-199.995920028973,-10.));
#2133=CARTESIAN_POINT('',(47.6,-199.995920028973,-10.));
#2134=CARTESIAN_POINT('',(47.6,-199.995920028973,15.55));
#2135=CARTESIAN_POINT('',(-62.5,-199.995920028973,15.55));
#2136=CARTESIAN_POINT('',(27.5,-199.995920028973,15.55));
#2137=CARTESIAN_POINT('',(27.5,-199.995920028973,0.00500000000000153));
#2138=CARTESIAN_POINT('',(27.5,-199.995920028973,0.00500000000000108));
#2139=CARTESIAN_POINT('',(-26.3049999421556,-199.995920028973,0.00500000000000153));
#2140=CARTESIAN_POINT('',(-52.5,-199.995920028973,0.00500000000000153));
#2141=CARTESIAN_POINT('',(-52.5,-199.995920028973,15.55));
#2142=CARTESIAN_POINT('',(0.,0.,19.05));
#2143=CARTESIAN_POINT('',(50.,0.,19.05));
#2144=CARTESIAN_POINT('',(53.,0.,19.05));
#2145=CARTESIAN_POINT('',(-50.,1.73472347597681E-15,19.05));
#2146=CARTESIAN_POINT('',(-47.,1.73472347597681E-15,19.05));
#2147=CARTESIAN_POINT('',(-25.,1.73472347597681E-15,19.05));
#2148=CARTESIAN_POINT('',(-22.,1.73472347597681E-15,19.05));
#2149=CARTESIAN_POINT('',(-62.5,12.5,19.05));
#2150=CARTESIAN_POINT('',(-62.5,12.5,19.05));
#2151=CARTESIAN_POINT('',(62.5,-12.5,19.05));
#2152=CARTESIAN_POINT('',(62.5,12.5,19.05));
#2153=CARTESIAN_POINT('',(62.5,12.5,19.05));
#2154=CARTESIAN_POINT('',(-52.5,-12.5,4.05));
#2155=CARTESIAN_POINT('',(-52.5,-12.5,0.00500000000000153));
#2156=CARTESIAN_POINT('',(0.,0.,0.00500000000000153));
#2157=CARTESIAN_POINT('',(2.08166817117217E-14,-99.9979600144866,0.00500000000000153));
#2158=CARTESIAN_POINT('',(5.00000000000002,-99.9979600144866,0.00500000000000153));
#2159=CARTESIAN_POINT('',(-25.,-125.,0.00500000000000153));
#2160=CARTESIAN_POINT('',(-20.,-125.,0.00500000000000153));
#2161=CARTESIAN_POINT('',(27.5,-187.495920028973,0.00500000000000153));
#2162=CARTESIAN_POINT('',(-25.,-100.,0.00500000000000153));
#2163=CARTESIAN_POINT('',(-20.,-100.,0.00500000000000153));
#2164=CARTESIAN_POINT('',(1.90819582357449E-14,-75.,0.00500000000000153));
#2165=CARTESIAN_POINT('',(5.00000000000002,-75.,0.00500000000000153));
#2166=CARTESIAN_POINT('',(-25.,-75.,0.00500000000000153));
#2167=CARTESIAN_POINT('',(-20.,-75.,0.00500000000000153));
#2168=CARTESIAN_POINT('',(-25.,-50.,0.00500000000000153));
#2169=CARTESIAN_POINT('',(-20.,-50.,0.00500000000000153));
#2170=CARTESIAN_POINT('',(1.73472347597681E-14,-50.,0.00500000000000153));
#2171=CARTESIAN_POINT('',(5.00000000000002,-50.,0.00500000000000153));
#2172=CARTESIAN_POINT('',(1.56125112837913E-14,-25.,0.00500000000000153));
#2173=CARTESIAN_POINT('',(5.00000000000002,-25.,0.00500000000000153));
#2174=CARTESIAN_POINT('',(-25.,-25.,0.00500000000000153));
#2175=CARTESIAN_POINT('',(-20.,-25.,0.00500000000000153));
#2176=CARTESIAN_POINT('',(2.25514051876985E-14,-125.,0.00500000000000153));
#2177=CARTESIAN_POINT('',(5.00000000000002,-125.,0.00500000000000153));
#2178=CARTESIAN_POINT('',(2.25514051876985E-14,-150.,0.00500000000000153));
#2179=CARTESIAN_POINT('',(5.00000000000002,-150.,0.00500000000000153));
#2180=CARTESIAN_POINT('',(-25.,-150.,0.00500000000000153));
#2181=CARTESIAN_POINT('',(-20.,-150.,0.00500000000000153));
#2182=CARTESIAN_POINT('',(-25.,-175.,0.00500000000000153));
#2183=CARTESIAN_POINT('',(-20.,-175.,0.00500000000000153));
#2184=CARTESIAN_POINT('',(2.42861286636753E-14,-175.,0.00500000000000153));
#2185=CARTESIAN_POINT('',(5.00000000000002,-175.,0.00500000000000153));
#2186=CARTESIAN_POINT('',(62.5,-12.5,19.05));
#2187=CARTESIAN_POINT('',(62.5,-12.5,-10.));
#2188=CARTESIAN_POINT('',(62.5,12.5,-10.));
#2189=CARTESIAN_POINT('',(62.5,12.5,19.05));
#2190=CARTESIAN_POINT('',(62.5,12.5,19.05));
#2191=CARTESIAN_POINT('',(62.5,12.5,-10.));
#2192=CARTESIAN_POINT('',(-62.5,12.5,-10.));
#2193=CARTESIAN_POINT('',(-62.5,12.5,19.05));
#2194=CARTESIAN_POINT('',(-62.5,12.5,19.05));
#2195=CARTESIAN_POINT('',(-62.5,12.5,-10.));
#2196=CARTESIAN_POINT('',(-25.,1.73472347597681E-15,-26.7718083254147));
#2197=CARTESIAN_POINT('',(-25.,1.73472347597681E-15,8.));
#2198=CARTESIAN_POINT('',(-22.,1.73472347597681E-15,8.));
#2199=CARTESIAN_POINT('',(-50.,1.73472347597681E-15,-26.7718083254147));
#2200=CARTESIAN_POINT('',(-50.,1.73472347597681E-15,8.));
#2201=CARTESIAN_POINT('',(-47.,1.73472347597681E-15,8.));
#2202=CARTESIAN_POINT('',(50.,0.,-27.0741932410974));
#2203=CARTESIAN_POINT('',(50.,0.,8.));
#2204=CARTESIAN_POINT('',(53.,0.,8.));
#2205=CARTESIAN_POINT('',(50.,0.,8.));
#2206=CARTESIAN_POINT('',(50.,0.,8.));
#2207=CARTESIAN_POINT('',(45.9,0.,8.));
#2208=CARTESIAN_POINT('',(50.,0.,-10.));
#2209=CARTESIAN_POINT('',(54.1,0.,-10.));
#2210=CARTESIAN_POINT('',(50.,0.,8.));
#2211=CARTESIAN_POINT('',(-25.,1.73472347597681E-15,8.));
#2212=CARTESIAN_POINT('',(-25.,1.73472347597681E-15,8.));
#2213=CARTESIAN_POINT('',(-29.1,1.73472347597681E-15,8.));
#2214=CARTESIAN_POINT('',(-25.,1.73472347597681E-15,-10.));
#2215=CARTESIAN_POINT('',(-20.9,1.73472347597681E-15,-10.));
#2216=CARTESIAN_POINT('',(-25.,1.73472347597681E-15,8.));
#2217=CARTESIAN_POINT('',(-50.,1.73472347597681E-15,8.));
#2218=CARTESIAN_POINT('',(-50.,1.73472347597681E-15,8.));
#2219=CARTESIAN_POINT('',(-54.1,1.73472347597681E-15,8.));
#2220=CARTESIAN_POINT('',(-50.,1.73472347597681E-15,-10.));
#2221=CARTESIAN_POINT('',(-45.9,1.73472347597681E-15,-10.));
#2222=CARTESIAN_POINT('',(-50.,1.73472347597681E-15,8.));
#2223=CARTESIAN_POINT('',(-39.2999998843112,40.2354668394773,9.525));
#2224=CARTESIAN_POINT('',(-39.2999998843112,0.,9.525));
#2225=CARTESIAN_POINT('',(-39.2999998843112,0.,6.52499988431118));
#2226=CARTESIAN_POINT('',(12.6799998755343,40.2354668394773,9.525));
#2227=CARTESIAN_POINT('',(12.6799998755343,0.,9.525));
#2228=CARTESIAN_POINT('',(12.6799998755343,0.,6.52499987553426));
#2229=CARTESIAN_POINT('',(0.,0.,-10.));
#2230=CARTESIAN_POINT('',(2.08166817117217E-14,-99.9979600144866,-10.));
#2231=CARTESIAN_POINT('',(3.00000000000002,-99.9979600144866,-10.));
#2232=CARTESIAN_POINT('',(-25.,-125.,-10.));
#2233=CARTESIAN_POINT('',(-22.,-125.,-10.));
#2234=CARTESIAN_POINT('',(47.6,-55.7559200289731,-10.));
#2235=CARTESIAN_POINT('',(47.6,-55.7559200289731,-10.));
#2236=CARTESIAN_POINT('',(47.6,-55.7559200289731,-10.));
#2237=CARTESIAN_POINT('',(47.6,-120.035920028973,-10.));
#2238=CARTESIAN_POINT('',(47.6,-120.035920028973,-10.));
#2239=CARTESIAN_POINT('',(47.6,-120.035920028973,-10.));
#2240=CARTESIAN_POINT('',(1.56125112837913E-14,-25.,-10.));
#2241=CARTESIAN_POINT('',(3.00000000000002,-25.,-10.));
#2242=CARTESIAN_POINT('',(-25.,-25.,-10.));
#2243=CARTESIAN_POINT('',(-22.,-25.,-10.));
#2244=CARTESIAN_POINT('',(-25.,-50.,-10.));
#2245=CARTESIAN_POINT('',(-22.,-50.,-10.));
#2246=CARTESIAN_POINT('',(1.73472347597681E-14,-50.,-10.));
#2247=CARTESIAN_POINT('',(3.00000000000002,-50.,-10.));
#2248=CARTESIAN_POINT('',(1.90819582357449E-14,-75.,-10.));
#2249=CARTESIAN_POINT('',(3.00000000000002,-75.,-10.));
#2250=CARTESIAN_POINT('',(-25.,-75.,-10.));
#2251=CARTESIAN_POINT('',(-22.,-75.,-10.));
#2252=CARTESIAN_POINT('',(-25.,-100.,-10.));
#2253=CARTESIAN_POINT('',(-22.,-100.,-10.));
#2254=CARTESIAN_POINT('',(2.42861286636753E-14,-175.,-10.));
#2255=CARTESIAN_POINT('',(3.00000000000002,-175.,-10.));
#2256=CARTESIAN_POINT('',(-25.,-175.,-10.));
#2257=CARTESIAN_POINT('',(-22.,-175.,-10.));
#2258=CARTESIAN_POINT('',(-25.,-150.,-10.));
#2259=CARTESIAN_POINT('',(-22.,-150.,-10.));
#2260=CARTESIAN_POINT('',(2.25514051876985E-14,-150.,-10.));
#2261=CARTESIAN_POINT('',(3.00000000000002,-150.,-10.));
#2262=CARTESIAN_POINT('',(2.25514051876985E-14,-125.,-10.));
#2263=CARTESIAN_POINT('',(3.00000000000002,-125.,-10.));
#2264=CARTESIAN_POINT('',(-39.2999998843112,-1.73472347597681E-15,9.525));
#2265=CARTESIAN_POINT('',(12.6799998755343,-1.73472347597681E-15,9.525));
#2266=CARTESIAN_POINT('',(0.,0.,15.55));
#2267=CARTESIAN_POINT('',(36.41,-35.9369900036217,15.55));
#2268=CARTESIAN_POINT('',(36.41,-37.4369900036217,15.55));
#2269=CARTESIAN_POINT('',(36.41,-82.8109700108649,15.55));
#2270=CARTESIAN_POINT('',(36.41,-84.3109700108649,15.55));
#2271=CARTESIAN_POINT('',(36.41,-129.684950018108,15.55));
#2272=CARTESIAN_POINT('',(36.41,-131.184950018108,15.55));
#2273=CARTESIAN_POINT('',(36.41,-176.558930025352,15.55));
#2274=CARTESIAN_POINT('',(36.41,-178.058930025352,15.55));
#2275=CARTESIAN_POINT('',(27.5,-187.495920028973,15.55));
#2276=CARTESIAN_POINT('',(47.6,-120.035920028973,15.55));
#2277=CARTESIAN_POINT('',(47.6,-120.035920028973,15.55));
#2278=CARTESIAN_POINT('',(47.6,-120.035920028973,15.55));
#2279=CARTESIAN_POINT('',(47.6,-55.7559200289731,15.55));
#2280=CARTESIAN_POINT('',(47.6,-55.7559200289731,15.55));
#2281=CARTESIAN_POINT('',(47.6,-55.7559200289731,15.55));
#2282=CARTESIAN_POINT('',(1.56125112837913E-14,-25.,-210.114715658244));
#2283=CARTESIAN_POINT('',(1.56125112837913E-14,-25.,-5.995));
#2284=CARTESIAN_POINT('',(-2.99999999999998,-25.,-5.995));
#2285=CARTESIAN_POINT('',(-25.,-25.,-210.114715658244));
#2286=CARTESIAN_POINT('',(-25.,-25.,-5.995));
#2287=CARTESIAN_POINT('',(-28.,-25.,-5.995));
#2288=CARTESIAN_POINT('',(-25.,-50.,-210.114715658244));
#2289=CARTESIAN_POINT('',(-25.,-50.,-5.995));
#2290=CARTESIAN_POINT('',(-28.,-50.,-5.995));
#2291=CARTESIAN_POINT('',(1.73472347597681E-14,-50.,-210.114715658244));
#2292=CARTESIAN_POINT('',(1.73472347597681E-14,-50.,-5.995));
#2293=CARTESIAN_POINT('',(-2.99999999999998,-50.,-5.995));
#2294=CARTESIAN_POINT('',(1.90819582357449E-14,-75.,-210.114715658244));
#2295=CARTESIAN_POINT('',(1.90819582357449E-14,-75.,-5.995));
#2296=CARTESIAN_POINT('',(-2.99999999999998,-75.,-5.995));
#2297=CARTESIAN_POINT('',(-25.,-75.,-210.114715658244));
#2298=CARTESIAN_POINT('',(-25.,-75.,-5.995));
#2299=CARTESIAN_POINT('',(-28.,-75.,-5.995));
#2300=CARTESIAN_POINT('',(2.08166817117217E-14,-99.9979600144866,-210.114715658244));
#2301=CARTESIAN_POINT('',(2.08166817117217E-14,-99.9979600144866,-5.995));
#2302=CARTESIAN_POINT('',(-2.99999999999998,-99.9979600144866,-5.995));
#2303=CARTESIAN_POINT('',(-25.,-100.,-210.114715658244));
#2304=CARTESIAN_POINT('',(-25.,-100.,-5.995));
#2305=CARTESIAN_POINT('',(-28.,-100.,-5.995));
#2306=CARTESIAN_POINT('',(-25.,-125.,-210.114715658244));
#2307=CARTESIAN_POINT('',(-25.,-125.,-5.995));
#2308=CARTESIAN_POINT('',(-28.,-125.,-5.995));
#2309=CARTESIAN_POINT('',(2.25514051876985E-14,-125.,-210.114715658244));
#2310=CARTESIAN_POINT('',(2.25514051876985E-14,-125.,-5.995));
#2311=CARTESIAN_POINT('',(-2.99999999999998,-125.,-5.995));
#2312=CARTESIAN_POINT('',(2.25514051876985E-14,-150.,-210.114715658244));
#2313=CARTESIAN_POINT('',(2.25514051876985E-14,-150.,-5.995));
#2314=CARTESIAN_POINT('',(-2.99999999999998,-150.,-5.995));
#2315=CARTESIAN_POINT('',(-25.,-150.,-210.114715658244));
#2316=CARTESIAN_POINT('',(-25.,-150.,-5.995));
#2317=CARTESIAN_POINT('',(-28.,-150.,-5.995));
#2318=CARTESIAN_POINT('',(-25.,-175.,-210.114715658244));
#2319=CARTESIAN_POINT('',(-25.,-175.,-5.995));
#2320=CARTESIAN_POINT('',(-28.,-175.,-5.995));
#2321=CARTESIAN_POINT('',(2.42861286636753E-14,-175.,-210.114715658244));
#2322=CARTESIAN_POINT('',(2.42861286636753E-14,-175.,-5.995));
#2323=CARTESIAN_POINT('',(-2.99999999999998,-175.,-5.995));
#2324=CARTESIAN_POINT('',(-25.,-25.,-5.995));
#2325=CARTESIAN_POINT('',(-25.,-25.,-5.995));
#2326=CARTESIAN_POINT('',(-20.,-25.,-5.995));
#2327=CARTESIAN_POINT('',(-25.,-25.,-5.995));
#2328=CARTESIAN_POINT('',(1.56125112837913E-14,-25.,-5.995));
#2329=CARTESIAN_POINT('',(1.56125112837913E-14,-25.,-5.995));
#2330=CARTESIAN_POINT('',(5.00000000000002,-25.,-5.995));
#2331=CARTESIAN_POINT('',(1.56125112837913E-14,-25.,-5.995));
#2332=CARTESIAN_POINT('',(1.73472347597681E-14,-50.,-5.995));
#2333=CARTESIAN_POINT('',(1.73472347597681E-14,-50.,-5.995));
#2334=CARTESIAN_POINT('',(5.00000000000002,-50.,-5.995));
#2335=CARTESIAN_POINT('',(1.73472347597681E-14,-50.,-5.995));
#2336=CARTESIAN_POINT('',(-25.,-50.,-5.995));
#2337=CARTESIAN_POINT('',(-25.,-50.,-5.995));
#2338=CARTESIAN_POINT('',(-20.,-50.,-5.995));
#2339=CARTESIAN_POINT('',(-25.,-50.,-5.995));
#2340=CARTESIAN_POINT('',(-25.,-75.,-5.995));
#2341=CARTESIAN_POINT('',(-25.,-75.,-5.995));
#2342=CARTESIAN_POINT('',(-20.,-75.,-5.995));
#2343=CARTESIAN_POINT('',(-25.,-75.,-5.995));
#2344=CARTESIAN_POINT('',(1.90819582357449E-14,-75.,-5.995));
#2345=CARTESIAN_POINT('',(1.90819582357449E-14,-75.,-5.995));
#2346=CARTESIAN_POINT('',(5.00000000000002,-75.,-5.995));
#2347=CARTESIAN_POINT('',(1.90819582357449E-14,-75.,-5.995));
#2348=CARTESIAN_POINT('',(2.08166817117217E-14,-99.9979600144866,-5.995));
#2349=CARTESIAN_POINT('',(2.08166817117217E-14,-99.9979600144866,-5.995));
#2350=CARTESIAN_POINT('',(5.00000000000002,-99.9979600144866,-5.995));
#2351=CARTESIAN_POINT('',(2.08166817117217E-14,-99.9979600144866,-5.995));
#2352=CARTESIAN_POINT('',(-25.,-100.,-5.995));
#2353=CARTESIAN_POINT('',(-25.,-100.,-5.995));
#2354=CARTESIAN_POINT('',(-20.,-100.,-5.995));
#2355=CARTESIAN_POINT('',(-25.,-100.,-5.995));
#2356=CARTESIAN_POINT('',(-25.,-125.,-5.995));
#2357=CARTESIAN_POINT('',(-25.,-125.,-5.995));
#2358=CARTESIAN_POINT('',(-20.,-125.,-5.995));
#2359=CARTESIAN_POINT('',(-25.,-125.,-5.995));
#2360=CARTESIAN_POINT('',(2.25514051876985E-14,-125.,-5.995));
#2361=CARTESIAN_POINT('',(2.25514051876985E-14,-125.,-5.995));
#2362=CARTESIAN_POINT('',(5.00000000000002,-125.,-5.995));
#2363=CARTESIAN_POINT('',(2.25514051876985E-14,-125.,-5.995));
#2364=CARTESIAN_POINT('',(2.25514051876985E-14,-150.,-5.995));
#2365=CARTESIAN_POINT('',(2.25514051876985E-14,-150.,-5.995));
#2366=CARTESIAN_POINT('',(5.00000000000002,-150.,-5.995));
#2367=CARTESIAN_POINT('',(2.25514051876985E-14,-150.,-5.995));
#2368=CARTESIAN_POINT('',(-25.,-150.,-5.995));
#2369=CARTESIAN_POINT('',(-25.,-150.,-5.995));
#2370=CARTESIAN_POINT('',(-20.,-150.,-5.995));
#2371=CARTESIAN_POINT('',(-25.,-150.,-5.995));
#2372=CARTESIAN_POINT('',(-25.,-175.,-5.995));
#2373=CARTESIAN_POINT('',(-25.,-175.,-5.995));
#2374=CARTESIAN_POINT('',(-20.,-175.,-5.995));
#2375=CARTESIAN_POINT('',(-25.,-175.,-5.995));
#2376=CARTESIAN_POINT('',(2.42861286636753E-14,-175.,-5.995));
#2377=CARTESIAN_POINT('',(2.42861286636753E-14,-175.,-5.995));
#2378=CARTESIAN_POINT('',(5.00000000000002,-175.,-5.995));
#2379=CARTESIAN_POINT('',(2.42861286636753E-14,-175.,-5.995));
#2380=CARTESIAN_POINT('',(27.5,0.,0.));
#2381=CARTESIAN_POINT('',(17.4275,-190.995920028973,-4.99999999999999));
#2382=CARTESIAN_POINT('',(17.4275,-190.995920028973,-4.99999999999999));
#2383=CARTESIAN_POINT('',(19.5525,-190.995920028973,-4.99999999999999));
#2384=CARTESIAN_POINT('',(17.4275,-190.995920028973,-4.99999999999999));
#2385=CARTESIAN_POINT('',(35.785,-190.995920028973,2.775));
#2386=CARTESIAN_POINT('',(35.785,-190.995920028973,2.775));
#2387=CARTESIAN_POINT('',(37.91,-190.995920028973,2.775));
#2388=CARTESIAN_POINT('',(35.785,-190.995920028973,2.775));
#2389=CARTESIAN_POINT('',(-35.8575,-190.995920028973,-5.));
#2390=CARTESIAN_POINT('',(-35.8575,-190.995920028973,-5.));
#2391=CARTESIAN_POINT('',(-33.7325,-190.995920028973,-5.));
#2392=CARTESIAN_POINT('',(-35.8575,-190.995920028973,-5.));
#2393=CARTESIAN_POINT('',(-57.5,-190.995920028973,2.775));
#2394=CARTESIAN_POINT('',(-57.5,-190.995920028973,2.775));
#2395=CARTESIAN_POINT('',(-55.375,-190.995920028973,2.775));
#2396=CARTESIAN_POINT('',(-57.5,-190.995920028973,2.775));
#2397=CARTESIAN_POINT('',(47.6,-120.035920028973,-10.));
#2398=CARTESIAN_POINT('',(47.6,-120.035920028973,-10.));
#2399=CARTESIAN_POINT('',(47.6,-120.035920028973,-10.));
#2400=CARTESIAN_POINT('',(47.6,-55.7559200289731,-10.));
#2401=CARTESIAN_POINT('',(47.6,-55.7559200289731,-10.));
#2402=CARTESIAN_POINT('',(47.6,-55.7559200289731,-10.));
#2403=CARTESIAN_POINT('',(-57.5,-35.9369900036216,10.55));
#2404=CARTESIAN_POINT('',(-57.5,-35.9369900036216,10.55));
#2405=CARTESIAN_POINT('',(-57.5,-37.4369900036216,10.55));
#2406=CARTESIAN_POINT('',(-57.5,-35.9369900036216,10.55));
#2407=CARTESIAN_POINT('',(-57.5,-82.8109700108649,10.55));
#2408=CARTESIAN_POINT('',(-57.5,-82.8109700108649,10.55));
#2409=CARTESIAN_POINT('',(-57.5,-84.3109700108649,10.55));
#2410=CARTESIAN_POINT('',(-57.5,-82.8109700108649,10.55));
#2411=CARTESIAN_POINT('',(-57.5,-129.684950018108,10.55));
#2412=CARTESIAN_POINT('',(-57.5,-129.684950018108,10.55));
#2413=CARTESIAN_POINT('',(-57.5,-131.184950018108,10.55));
#2414=CARTESIAN_POINT('',(-57.5,-129.684950018108,10.55));
#2415=CARTESIAN_POINT('',(-57.5,-176.558930025352,10.55));
#2416=CARTESIAN_POINT('',(-57.5,-176.558930025352,10.55));
#2417=CARTESIAN_POINT('',(-57.5,-178.058930025352,10.55));
#2418=CARTESIAN_POINT('',(-57.5,-176.558930025352,10.55));
#2419=CARTESIAN_POINT('',(36.41,-176.558930025352,10.55));
#2420=CARTESIAN_POINT('',(36.41,-176.558930025352,10.55));
#2421=CARTESIAN_POINT('',(36.41,-178.058930025352,10.55));
#2422=CARTESIAN_POINT('',(36.41,-176.558930025352,10.55));
#2423=CARTESIAN_POINT('',(36.41,-129.684950018108,10.55));
#2424=CARTESIAN_POINT('',(36.41,-129.684950018108,10.55));
#2425=CARTESIAN_POINT('',(36.41,-131.184950018108,10.55));
#2426=CARTESIAN_POINT('',(36.41,-129.684950018108,10.55));
#2427=CARTESIAN_POINT('',(36.41,-82.8109700108649,10.55));
#2428=CARTESIAN_POINT('',(36.41,-82.8109700108649,10.55));
#2429=CARTESIAN_POINT('',(36.41,-84.3109700108649,10.55));
#2430=CARTESIAN_POINT('',(36.41,-82.8109700108649,10.55));
#2431=CARTESIAN_POINT('',(36.41,-35.9369900036217,10.55));
#2432=CARTESIAN_POINT('',(36.41,-35.9369900036217,10.55));
#2433=CARTESIAN_POINT('',(36.41,-37.4369900036217,10.55));
#2434=CARTESIAN_POINT('',(36.41,-35.9369900036217,10.55));
#2435=CARTESIAN_POINT('',(-13.31,-12.5,9.525));
#2436=CARTESIAN_POINT('',(-13.31,-1.95156391047391E-15,9.525));
#2437=CARTESIAN_POINT('',(-19.31,-2.68635198996232E-15,9.525));
#2438=CARTESIAN_POINT('',(-13.31,-1.95156391047391E-15,9.525));
#2439=MECHANICAL_DESIGN_GEOMETRIC_PRESENTATION_REPRESENTATION('',(#1408),
#2440);
#2440=(
GEOMETRIC_REPRESENTATION_CONTEXT(3)
GLOBAL_UNCERTAINTY_ASSIGNED_CONTEXT((#2441))
GLOBAL_UNIT_ASSIGNED_CONTEXT((#2444,#2443,#2442))
REPRESENTATION_CONTEXT('12_FDML_stimfix_Badal_stage_bottom',
'TOP_LEVEL_ASSEMBLY_PART')
);
#2441=UNCERTAINTY_MEASURE_WITH_UNIT(LENGTH_MEASURE(0.005),#2444,
'DISTANCE_ACCURACY_VALUE','Maximum Tolerance applied to model');
#2442=(
NAMED_UNIT(*)
SI_UNIT($,.STERADIAN.)
SOLID_ANGLE_UNIT()
);
#2443=(
NAMED_UNIT(*)
PLANE_ANGLE_UNIT()
SI_UNIT($,.RADIAN.)
);
#2444=(
LENGTH_UNIT()
NAMED_UNIT(*)
SI_UNIT(.MILLI.,.METRE.)
);
#2445=PRODUCT_DEFINITION_SHAPE('','',#2446);
#2446=PRODUCT_DEFINITION('','',#2448,#2447);
#2447=PRODUCT_DEFINITION_CONTEXT('',#2454,'design');
#2448=PRODUCT_DEFINITION_FORMATION_WITH_SPECIFIED_SOURCE('','',#2450,
 .NOT_KNOWN.);
#2449=PRODUCT_RELATED_PRODUCT_CATEGORY('','',(#2450));
#2450=PRODUCT('12_FDML_stimfix_Badal_stage_bottom',
'12_FDML_stimfix_Badal_stage_bottom',
'12_FDML_stimfix_Badal_stage_bottom',(#2452));
#2451=PRODUCT_CATEGORY('','');
#2452=PRODUCT_CONTEXT('',#2454,'mechanical');
#2453=APPLICATION_PROTOCOL_DEFINITION('international standard',
'automotive_design',2010,#2454);
#2454=APPLICATION_CONTEXT(
'core data for automotive mechanical design processes');
ENDSEC;
END-ISO-10303-21;
