ISO-10303-21;
HEADER;
/* Generated by software containing ST-Developer
 * from STEP Tools, Inc. (www.steptools.com) 
 */
/* OPTION: strings as raw bytes, not using required /X/ escapes */

FILE_DESCRIPTION(
/* description */ ('Unknown'),
/* implementation_level */ '2;1');

FILE_NAME(
/* name */ '13_FDML_stimfix_Badal_stage_top',
/* time_stamp */ '2026-09-07T14:58:44+02:00',
/* author */ ('Unknown'),
/* organization */ ('Unknown'),
/* preprocessor_version */ 'ST-DEVELOPER v16.7',
/* originating_system */ 'Solid Edge',
/* authorisation */ 'Unknown');

FILE_SCHEMA (('AUTOMOTIVE_DESIGN {1 0 10303 214 3 1 1}'));
ENDSEC;

DATA;
#10=PROPERTY_DEFINITION_REPRESENTATION(#14,#12);
#11=PROPERTY_DEFINITION_REPRESENTATION(#15,#13);
#12=REPRESENTATION('',(#16),#1907);
#13=REPRESENTATION('',(#17),#1907);
#14=PROPERTY_DEFINITION('pmi validation property','',#1912);
#15=PROPERTY_DEFINITION('pmi validation property','',#1912);
#16=VALUE_REPRESENTATION_ITEM('number of annotations',COUNT_MEASURE(0.));
#17=VALUE_REPRESENTATION_ITEM('number of views',COUNT_MEASURE(0.));
#18=SHAPE_REPRESENTATION_RELATIONSHIP('','',#1195,#19);
#19=ADVANCED_BREP_SHAPE_REPRESENTATION('',(#1193),#1907);
#20=CYLINDRICAL_SURFACE('',#1222,3.5);
#21=CYLINDRICAL_SURFACE('',#1229,2.);
#22=CYLINDRICAL_SURFACE('',#1232,2.);
#23=CYLINDRICAL_SURFACE('',#1254,3.5);
#24=CYLINDRICAL_SURFACE('',#1257,6.05);
#25=CYLINDRICAL_SURFACE('',#1258,6.05);
#26=CYLINDRICAL_SURFACE('',#1266,9.00003472215524);
#27=CYLINDRICAL_SURFACE('',#1267,9.00003472215524);
#28=CYLINDRICAL_SURFACE('',#1272,9.05);
#29=CYLINDRICAL_SURFACE('',#1273,9.05);
#30=B_SPLINE_CURVE_WITH_KNOTS('',3,(#1744,#1745,#1746,#1747),
 .UNSPECIFIED.,.F.,.F.,(4,4),(0.,1.),.UNSPECIFIED.);
#31=CIRCLE('',#1198,6.05);
#32=CIRCLE('',#1199,6.05);
#33=CIRCLE('',#1200,9.05);
#34=CIRCLE('',#1201,9.05);
#35=CIRCLE('',#1202,9.00003472215524);
#36=CIRCLE('',#1203,9.00003472215524);
#37=CIRCLE('',#1207,6.05);
#38=CIRCLE('',#1208,9.05);
#39=CIRCLE('',#1209,9.05);
#40=CIRCLE('',#1216,6.05);
#41=CIRCLE('',#1217,9.00003472215524);
#42=CIRCLE('',#1218,9.00003472215524);
#43=CIRCLE('',#1223,3.5);
#44=CIRCLE('',#1224,3.5);
#45=CIRCLE('',#1230,2.);
#46=CIRCLE('',#1231,2.);
#47=CIRCLE('',#1233,2.);
#48=CIRCLE('',#1234,2.);
#49=CIRCLE('',#1255,3.5);
#50=CIRCLE('',#1256,3.5);
#51=ORIENTED_EDGE('',*,*,#369,.F.);
#52=ORIENTED_EDGE('',*,*,#370,.F.);
#53=ORIENTED_EDGE('',*,*,#371,.F.);
#54=ORIENTED_EDGE('',*,*,#372,.F.);
#55=ORIENTED_EDGE('',*,*,#373,.F.);
#56=ORIENTED_EDGE('',*,*,#374,.F.);
#57=ORIENTED_EDGE('',*,*,#375,.T.);
#58=ORIENTED_EDGE('',*,*,#376,.T.);
#59=ORIENTED_EDGE('',*,*,#377,.F.);
#60=ORIENTED_EDGE('',*,*,#378,.T.);
#61=ORIENTED_EDGE('',*,*,#379,.T.);
#62=ORIENTED_EDGE('',*,*,#380,.T.);
#63=ORIENTED_EDGE('',*,*,#381,.F.);
#64=ORIENTED_EDGE('',*,*,#382,.T.);
#65=ORIENTED_EDGE('',*,*,#383,.F.);
#66=ORIENTED_EDGE('',*,*,#384,.T.);
#67=ORIENTED_EDGE('',*,*,#385,.T.);
#68=ORIENTED_EDGE('',*,*,#386,.T.);
#69=ORIENTED_EDGE('',*,*,#387,.T.);
#70=ORIENTED_EDGE('',*,*,#388,.T.);
#71=ORIENTED_EDGE('',*,*,#389,.T.);
#72=ORIENTED_EDGE('',*,*,#390,.F.);
#73=ORIENTED_EDGE('',*,*,#391,.T.);
#74=ORIENTED_EDGE('',*,*,#392,.T.);
#75=ORIENTED_EDGE('',*,*,#393,.T.);
#76=ORIENTED_EDGE('',*,*,#394,.T.);
#77=ORIENTED_EDGE('',*,*,#395,.T.);
#78=ORIENTED_EDGE('',*,*,#396,.T.);
#79=ORIENTED_EDGE('',*,*,#397,.F.);
#80=ORIENTED_EDGE('',*,*,#398,.T.);
#81=ORIENTED_EDGE('',*,*,#399,.T.);
#82=ORIENTED_EDGE('',*,*,#400,.T.);
#83=ORIENTED_EDGE('',*,*,#398,.F.);
#84=ORIENTED_EDGE('',*,*,#401,.F.);
#85=ORIENTED_EDGE('',*,*,#402,.T.);
#86=ORIENTED_EDGE('',*,*,#403,.T.);
#87=ORIENTED_EDGE('',*,*,#382,.F.);
#88=ORIENTED_EDGE('',*,*,#404,.F.);
#89=ORIENTED_EDGE('',*,*,#405,.T.);
#90=ORIENTED_EDGE('',*,*,#406,.F.);
#91=ORIENTED_EDGE('',*,*,#407,.T.);
#92=ORIENTED_EDGE('',*,*,#402,.F.);
#93=ORIENTED_EDGE('',*,*,#408,.T.);
#94=ORIENTED_EDGE('',*,*,#409,.F.);
#95=ORIENTED_EDGE('',*,*,#410,.F.);
#96=ORIENTED_EDGE('',*,*,#409,.T.);
#97=ORIENTED_EDGE('',*,*,#411,.T.);
#98=ORIENTED_EDGE('',*,*,#380,.F.);
#99=ORIENTED_EDGE('',*,*,#412,.F.);
#100=ORIENTED_EDGE('',*,*,#413,.F.);
#101=ORIENTED_EDGE('',*,*,#414,.F.);
#102=ORIENTED_EDGE('',*,*,#415,.T.);
#103=ORIENTED_EDGE('',*,*,#416,.T.);
#104=ORIENTED_EDGE('',*,*,#417,.T.);
#105=ORIENTED_EDGE('',*,*,#418,.F.);
#106=ORIENTED_EDGE('',*,*,#419,.F.);
#107=ORIENTED_EDGE('',*,*,#420,.T.);
#108=ORIENTED_EDGE('',*,*,#421,.T.);
#109=ORIENTED_EDGE('',*,*,#422,.T.);
#110=ORIENTED_EDGE('',*,*,#423,.T.);
#111=ORIENTED_EDGE('',*,*,#424,.T.);
#112=ORIENTED_EDGE('',*,*,#425,.F.);
#113=ORIENTED_EDGE('',*,*,#426,.F.);
#114=ORIENTED_EDGE('',*,*,#427,.T.);
#115=ORIENTED_EDGE('',*,*,#428,.T.);
#116=ORIENTED_EDGE('',*,*,#429,.T.);
#117=ORIENTED_EDGE('',*,*,#413,.T.);
#118=ORIENTED_EDGE('',*,*,#430,.T.);
#119=ORIENTED_EDGE('',*,*,#431,.T.);
#120=ORIENTED_EDGE('',*,*,#432,.T.);
#121=ORIENTED_EDGE('',*,*,#433,.T.);
#122=ORIENTED_EDGE('',*,*,#434,.T.);
#123=ORIENTED_EDGE('',*,*,#435,.T.);
#124=ORIENTED_EDGE('',*,*,#436,.F.);
#125=ORIENTED_EDGE('',*,*,#437,.T.);
#126=ORIENTED_EDGE('',*,*,#399,.F.);
#127=ORIENTED_EDGE('',*,*,#438,.T.);
#128=ORIENTED_EDGE('',*,*,#439,.F.);
#129=ORIENTED_EDGE('',*,*,#440,.F.);
#130=ORIENTED_EDGE('',*,*,#417,.F.);
#131=ORIENTED_EDGE('',*,*,#441,.T.);
#132=ORIENTED_EDGE('',*,*,#440,.T.);
#133=ORIENTED_EDGE('',*,*,#442,.F.);
#134=ORIENTED_EDGE('',*,*,#410,.T.);
#135=ORIENTED_EDGE('',*,*,#414,.T.);
#136=ORIENTED_EDGE('',*,*,#429,.F.);
#137=ORIENTED_EDGE('',*,*,#443,.T.);
#138=ORIENTED_EDGE('',*,*,#444,.F.);
#139=ORIENTED_EDGE('',*,*,#445,.F.);
#140=ORIENTED_EDGE('',*,*,#446,.F.);
#141=ORIENTED_EDGE('',*,*,#447,.F.);
#142=ORIENTED_EDGE('',*,*,#448,.F.);
#143=ORIENTED_EDGE('',*,*,#449,.T.);
#144=ORIENTED_EDGE('',*,*,#450,.F.);
#145=ORIENTED_EDGE('',*,*,#421,.F.);
#146=ORIENTED_EDGE('',*,*,#451,.T.);
#147=ORIENTED_EDGE('',*,*,#450,.T.);
#148=ORIENTED_EDGE('',*,*,#452,.T.);
#149=ORIENTED_EDGE('',*,*,#453,.F.);
#150=ORIENTED_EDGE('',*,*,#392,.F.);
#151=ORIENTED_EDGE('',*,*,#454,.T.);
#152=ORIENTED_EDGE('',*,*,#447,.T.);
#153=ORIENTED_EDGE('',*,*,#455,.T.);
#154=ORIENTED_EDGE('',*,*,#456,.T.);
#155=ORIENTED_EDGE('',*,*,#426,.T.);
#156=ORIENTED_EDGE('',*,*,#457,.F.);
#157=ORIENTED_EDGE('',*,*,#458,.F.);
#158=ORIENTED_EDGE('',*,*,#459,.T.);
#159=ORIENTED_EDGE('',*,*,#387,.F.);
#160=ORIENTED_EDGE('',*,*,#460,.T.);
#161=ORIENTED_EDGE('',*,*,#457,.T.);
#162=ORIENTED_EDGE('',*,*,#425,.T.);
#163=ORIENTED_EDGE('',*,*,#461,.F.);
#164=ORIENTED_EDGE('',*,*,#462,.F.);
#165=ORIENTED_EDGE('',*,*,#463,.F.);
#166=ORIENTED_EDGE('',*,*,#464,.F.);
#167=ORIENTED_EDGE('',*,*,#465,.F.);
#168=ORIENTED_EDGE('',*,*,#466,.T.);
#169=ORIENTED_EDGE('',*,*,#467,.T.);
#170=ORIENTED_EDGE('',*,*,#468,.T.);
#171=ORIENTED_EDGE('',*,*,#469,.T.);
#172=ORIENTED_EDGE('',*,*,#470,.T.);
#173=ORIENTED_EDGE('',*,*,#471,.T.);
#174=ORIENTED_EDGE('',*,*,#472,.F.);
#175=ORIENTED_EDGE('',*,*,#473,.F.);
#176=ORIENTED_EDGE('',*,*,#474,.F.);
#177=ORIENTED_EDGE('',*,*,#475,.F.);
#178=ORIENTED_EDGE('',*,*,#476,.T.);
#179=ORIENTED_EDGE('',*,*,#477,.F.);
#180=ORIENTED_EDGE('',*,*,#478,.T.);
#181=ORIENTED_EDGE('',*,*,#463,.T.);
#182=ORIENTED_EDGE('',*,*,#479,.F.);
#183=ORIENTED_EDGE('',*,*,#480,.F.);
#184=ORIENTED_EDGE('',*,*,#481,.F.);
#185=ORIENTED_EDGE('',*,*,#482,.T.);
#186=ORIENTED_EDGE('',*,*,#483,.F.);
#187=ORIENTED_EDGE('',*,*,#476,.F.);
#188=ORIENTED_EDGE('',*,*,#484,.F.);
#189=ORIENTED_EDGE('',*,*,#485,.F.);
#190=ORIENTED_EDGE('',*,*,#486,.F.);
#191=ORIENTED_EDGE('',*,*,#487,.F.);
#192=ORIENTED_EDGE('',*,*,#482,.F.);
#193=ORIENTED_EDGE('',*,*,#488,.F.);
#194=ORIENTED_EDGE('',*,*,#474,.T.);
#195=ORIENTED_EDGE('',*,*,#489,.F.);
#196=ORIENTED_EDGE('',*,*,#490,.F.);
#197=ORIENTED_EDGE('',*,*,#491,.T.);
#198=ORIENTED_EDGE('',*,*,#473,.T.);
#199=ORIENTED_EDGE('',*,*,#492,.F.);
#200=ORIENTED_EDGE('',*,*,#493,.T.);
#201=ORIENTED_EDGE('',*,*,#465,.T.);
#202=ORIENTED_EDGE('',*,*,#494,.F.);
#203=ORIENTED_EDGE('',*,*,#495,.F.);
#204=ORIENTED_EDGE('',*,*,#471,.F.);
#205=ORIENTED_EDGE('',*,*,#496,.T.);
#206=ORIENTED_EDGE('',*,*,#490,.T.);
#207=ORIENTED_EDGE('',*,*,#497,.F.);
#208=ORIENTED_EDGE('',*,*,#462,.T.);
#209=ORIENTED_EDGE('',*,*,#493,.F.);
#210=ORIENTED_EDGE('',*,*,#498,.F.);
#211=ORIENTED_EDGE('',*,*,#479,.T.);
#212=ORIENTED_EDGE('',*,*,#464,.T.);
#213=ORIENTED_EDGE('',*,*,#478,.F.);
#214=ORIENTED_EDGE('',*,*,#499,.F.);
#215=ORIENTED_EDGE('',*,*,#494,.T.);
#216=ORIENTED_EDGE('',*,*,#485,.T.);
#217=ORIENTED_EDGE('',*,*,#483,.T.);
#218=ORIENTED_EDGE('',*,*,#489,.T.);
#219=ORIENTED_EDGE('',*,*,#480,.T.);
#220=ORIENTED_EDGE('',*,*,#498,.T.);
#221=ORIENTED_EDGE('',*,*,#492,.T.);
#222=ORIENTED_EDGE('',*,*,#472,.T.);
#223=ORIENTED_EDGE('',*,*,#497,.T.);
#224=ORIENTED_EDGE('',*,*,#495,.T.);
#225=ORIENTED_EDGE('',*,*,#499,.T.);
#226=ORIENTED_EDGE('',*,*,#477,.T.);
#227=ORIENTED_EDGE('',*,*,#467,.F.);
#228=ORIENTED_EDGE('',*,*,#500,.F.);
#229=ORIENTED_EDGE('',*,*,#501,.T.);
#230=ORIENTED_EDGE('',*,*,#502,.T.);
#231=ORIENTED_EDGE('',*,*,#468,.F.);
#232=ORIENTED_EDGE('',*,*,#502,.F.);
#233=ORIENTED_EDGE('',*,*,#503,.T.);
#234=ORIENTED_EDGE('',*,*,#504,.T.);
#235=ORIENTED_EDGE('',*,*,#469,.F.);
#236=ORIENTED_EDGE('',*,*,#504,.F.);
#237=ORIENTED_EDGE('',*,*,#505,.T.);
#238=ORIENTED_EDGE('',*,*,#506,.T.);
#239=ORIENTED_EDGE('',*,*,#466,.F.);
#240=ORIENTED_EDGE('',*,*,#506,.F.);
#241=ORIENTED_EDGE('',*,*,#507,.T.);
#242=ORIENTED_EDGE('',*,*,#500,.T.);
#243=ORIENTED_EDGE('',*,*,#487,.T.);
#244=ORIENTED_EDGE('',*,*,#507,.F.);
#245=ORIENTED_EDGE('',*,*,#505,.F.);
#246=ORIENTED_EDGE('',*,*,#503,.F.);
#247=ORIENTED_EDGE('',*,*,#501,.F.);
#248=ORIENTED_EDGE('',*,*,#424,.F.);
#249=ORIENTED_EDGE('',*,*,#508,.T.);
#250=ORIENTED_EDGE('',*,*,#388,.F.);
#251=ORIENTED_EDGE('',*,*,#461,.T.);
#252=ORIENTED_EDGE('',*,*,#386,.F.);
#253=ORIENTED_EDGE('',*,*,#509,.T.);
#254=ORIENTED_EDGE('',*,*,#455,.F.);
#255=ORIENTED_EDGE('',*,*,#460,.F.);
#256=ORIENTED_EDGE('',*,*,#369,.T.);
#257=ORIENTED_EDGE('',*,*,#510,.F.);
#258=ORIENTED_EDGE('',*,*,#430,.F.);
#259=ORIENTED_EDGE('',*,*,#511,.T.);
#260=ORIENTED_EDGE('',*,*,#370,.T.);
#261=ORIENTED_EDGE('',*,*,#511,.F.);
#262=ORIENTED_EDGE('',*,*,#435,.F.);
#263=ORIENTED_EDGE('',*,*,#512,.T.);
#264=ORIENTED_EDGE('',*,*,#371,.T.);
#265=ORIENTED_EDGE('',*,*,#512,.F.);
#266=ORIENTED_EDGE('',*,*,#434,.F.);
#267=ORIENTED_EDGE('',*,*,#513,.T.);
#268=ORIENTED_EDGE('',*,*,#372,.T.);
#269=ORIENTED_EDGE('',*,*,#513,.F.);
#270=ORIENTED_EDGE('',*,*,#433,.F.);
#271=ORIENTED_EDGE('',*,*,#514,.T.);
#272=ORIENTED_EDGE('',*,*,#373,.T.);
#273=ORIENTED_EDGE('',*,*,#514,.F.);
#274=ORIENTED_EDGE('',*,*,#432,.F.);
#275=ORIENTED_EDGE('',*,*,#515,.T.);
#276=ORIENTED_EDGE('',*,*,#374,.T.);
#277=ORIENTED_EDGE('',*,*,#515,.F.);
#278=ORIENTED_EDGE('',*,*,#431,.F.);
#279=ORIENTED_EDGE('',*,*,#510,.T.);
#280=ORIENTED_EDGE('',*,*,#516,.F.);
#281=ORIENTED_EDGE('',*,*,#517,.T.);
#282=ORIENTED_EDGE('',*,*,#375,.F.);
#283=ORIENTED_EDGE('',*,*,#405,.F.);
#284=ORIENTED_EDGE('',*,*,#376,.F.);
#285=ORIENTED_EDGE('',*,*,#444,.T.);
#286=ORIENTED_EDGE('',*,*,#458,.T.);
#287=ORIENTED_EDGE('',*,*,#423,.F.);
#288=ORIENTED_EDGE('',*,*,#518,.F.);
#289=ORIENTED_EDGE('',*,*,#389,.F.);
#290=ORIENTED_EDGE('',*,*,#508,.F.);
#291=ORIENTED_EDGE('',*,*,#516,.T.);
#292=ORIENTED_EDGE('',*,*,#481,.T.);
#293=ORIENTED_EDGE('',*,*,#475,.T.);
#294=ORIENTED_EDGE('',*,*,#488,.T.);
#295=ORIENTED_EDGE('',*,*,#427,.F.);
#296=ORIENTED_EDGE('',*,*,#456,.F.);
#297=ORIENTED_EDGE('',*,*,#509,.F.);
#298=ORIENTED_EDGE('',*,*,#385,.F.);
#299=ORIENTED_EDGE('',*,*,#519,.F.);
#300=ORIENTED_EDGE('',*,*,#496,.F.);
#301=ORIENTED_EDGE('',*,*,#470,.F.);
#302=ORIENTED_EDGE('',*,*,#491,.F.);
#303=ORIENTED_EDGE('',*,*,#484,.T.);
#304=ORIENTED_EDGE('',*,*,#517,.F.);
#305=ORIENTED_EDGE('',*,*,#486,.T.);
#306=ORIENTED_EDGE('',*,*,#459,.F.);
#307=ORIENTED_EDGE('',*,*,#390,.T.);
#308=ORIENTED_EDGE('',*,*,#518,.T.);
#309=ORIENTED_EDGE('',*,*,#422,.F.);
#310=ORIENTED_EDGE('',*,*,#452,.F.);
#311=ORIENTED_EDGE('',*,*,#449,.F.);
#312=ORIENTED_EDGE('',*,*,#520,.F.);
#313=ORIENTED_EDGE('',*,*,#419,.T.);
#314=ORIENTED_EDGE('',*,*,#521,.F.);
#315=ORIENTED_EDGE('',*,*,#395,.F.);
#316=ORIENTED_EDGE('',*,*,#522,.F.);
#317=ORIENTED_EDGE('',*,*,#439,.T.);
#318=ORIENTED_EDGE('',*,*,#523,.T.);
#319=ORIENTED_EDGE('',*,*,#396,.F.);
#320=ORIENTED_EDGE('',*,*,#521,.T.);
#321=ORIENTED_EDGE('',*,*,#418,.T.);
#322=ORIENTED_EDGE('',*,*,#442,.T.);
#323=ORIENTED_EDGE('',*,*,#520,.T.);
#324=ORIENTED_EDGE('',*,*,#448,.T.);
#325=ORIENTED_EDGE('',*,*,#454,.F.);
#326=ORIENTED_EDGE('',*,*,#391,.F.);
#327=ORIENTED_EDGE('',*,*,#453,.T.);
#328=ORIENTED_EDGE('',*,*,#446,.T.);
#329=ORIENTED_EDGE('',*,*,#524,.F.);
#330=ORIENTED_EDGE('',*,*,#393,.F.);
#331=ORIENTED_EDGE('',*,*,#525,.F.);
#332=ORIENTED_EDGE('',*,*,#406,.T.);
#333=ORIENTED_EDGE('',*,*,#443,.F.);
#334=ORIENTED_EDGE('',*,*,#428,.F.);
#335=ORIENTED_EDGE('',*,*,#519,.T.);
#336=ORIENTED_EDGE('',*,*,#384,.F.);
#337=ORIENTED_EDGE('',*,*,#522,.T.);
#338=ORIENTED_EDGE('',*,*,#394,.F.);
#339=ORIENTED_EDGE('',*,*,#524,.T.);
#340=ORIENTED_EDGE('',*,*,#445,.T.);
#341=ORIENTED_EDGE('',*,*,#451,.F.);
#342=ORIENTED_EDGE('',*,*,#420,.F.);
#343=ORIENTED_EDGE('',*,*,#526,.F.);
#344=ORIENTED_EDGE('',*,*,#436,.T.);
#345=ORIENTED_EDGE('',*,*,#441,.F.);
#346=ORIENTED_EDGE('',*,*,#416,.F.);
#347=ORIENTED_EDGE('',*,*,#527,.T.);
#348=ORIENTED_EDGE('',*,*,#378,.F.);
#349=ORIENTED_EDGE('',*,*,#412,.T.);
#350=ORIENTED_EDGE('',*,*,#379,.F.);
#351=ORIENTED_EDGE('',*,*,#527,.F.);
#352=ORIENTED_EDGE('',*,*,#415,.F.);
#353=ORIENTED_EDGE('',*,*,#404,.T.);
#354=ORIENTED_EDGE('',*,*,#381,.T.);
#355=ORIENTED_EDGE('',*,*,#411,.F.);
#356=ORIENTED_EDGE('',*,*,#408,.F.);
#357=ORIENTED_EDGE('',*,*,#525,.T.);
#358=ORIENTED_EDGE('',*,*,#383,.T.);
#359=ORIENTED_EDGE('',*,*,#403,.F.);
#360=ORIENTED_EDGE('',*,*,#407,.F.);
#361=ORIENTED_EDGE('',*,*,#401,.T.);
#362=ORIENTED_EDGE('',*,*,#397,.T.);
#363=ORIENTED_EDGE('',*,*,#523,.F.);
#364=ORIENTED_EDGE('',*,*,#438,.F.);
#365=ORIENTED_EDGE('',*,*,#526,.T.);
#366=ORIENTED_EDGE('',*,*,#377,.T.);
#367=ORIENTED_EDGE('',*,*,#400,.F.);
#368=ORIENTED_EDGE('',*,*,#437,.F.);
#369=EDGE_CURVE('',#528,#529,#638,.T.);
#370=EDGE_CURVE('',#530,#528,#639,.T.);
#371=EDGE_CURVE('',#531,#530,#640,.T.);
#372=EDGE_CURVE('',#532,#531,#641,.T.);
#373=EDGE_CURVE('',#533,#532,#642,.T.);
#374=EDGE_CURVE('',#529,#533,#643,.T.);
#375=EDGE_CURVE('',#534,#534,#31,.T.);
#376=EDGE_CURVE('',#535,#535,#32,.T.);
#377=EDGE_CURVE('',#536,#537,#644,.T.);
#378=EDGE_CURVE('',#536,#538,#645,.T.);
#379=EDGE_CURVE('',#538,#539,#646,.T.);
#380=EDGE_CURVE('',#539,#540,#647,.T.);
#381=EDGE_CURVE('',#541,#540,#33,.T.);
#382=EDGE_CURVE('',#541,#542,#648,.T.);
#383=EDGE_CURVE('',#543,#542,#34,.T.);
#384=EDGE_CURVE('',#543,#544,#649,.T.);
#385=EDGE_CURVE('',#544,#545,#650,.T.);
#386=EDGE_CURVE('',#545,#546,#651,.T.);
#387=EDGE_CURVE('',#546,#547,#652,.T.);
#388=EDGE_CURVE('',#547,#548,#653,.T.);
#389=EDGE_CURVE('',#548,#549,#654,.T.);
#390=EDGE_CURVE('',#550,#549,#655,.T.);
#391=EDGE_CURVE('',#550,#551,#35,.F.);
#392=EDGE_CURVE('',#551,#552,#656,.F.);
#393=EDGE_CURVE('',#552,#553,#36,.F.);
#394=EDGE_CURVE('',#553,#554,#657,.T.);
#395=EDGE_CURVE('',#554,#555,#658,.T.);
#396=EDGE_CURVE('',#555,#556,#659,.T.);
#397=EDGE_CURVE('',#557,#556,#660,.T.);
#398=EDGE_CURVE('',#557,#537,#661,.T.);
#399=EDGE_CURVE('',#558,#559,#662,.T.);
#400=EDGE_CURVE('',#559,#537,#663,.T.);
#401=EDGE_CURVE('',#558,#557,#664,.T.);
#402=EDGE_CURVE('',#560,#561,#665,.T.);
#403=EDGE_CURVE('',#561,#542,#666,.T.);
#404=EDGE_CURVE('',#560,#541,#667,.T.);
#405=EDGE_CURVE('',#562,#562,#37,.T.);
#406=EDGE_CURVE('',#563,#564,#668,.T.);
#407=EDGE_CURVE('',#563,#561,#38,.F.);
#408=EDGE_CURVE('',#560,#565,#39,.F.);
#409=EDGE_CURVE('',#566,#565,#669,.T.);
#410=EDGE_CURVE('',#564,#566,#670,.T.);
#411=EDGE_CURVE('',#565,#540,#671,.T.);
#412=EDGE_CURVE('',#567,#539,#672,.T.);
#413=EDGE_CURVE('',#568,#567,#673,.T.);
#414=EDGE_CURVE('',#566,#568,#674,.T.);
#415=EDGE_CURVE('',#567,#569,#675,.T.);
#416=EDGE_CURVE('',#569,#570,#676,.T.);
#417=EDGE_CURVE('',#570,#571,#677,.T.);
#418=EDGE_CURVE('',#572,#571,#678,.T.);
#419=EDGE_CURVE('',#573,#572,#679,.T.);
#420=EDGE_CURVE('',#573,#574,#680,.T.);
#421=EDGE_CURVE('',#574,#575,#681,.T.);
#422=EDGE_CURVE('',#575,#576,#682,.T.);
#423=EDGE_CURVE('',#576,#577,#683,.T.);
#424=EDGE_CURVE('',#577,#578,#684,.T.);
#425=EDGE_CURVE('',#579,#578,#685,.F.);
#426=EDGE_CURVE('',#580,#579,#686,.T.);
#427=EDGE_CURVE('',#580,#581,#687,.T.);
#428=EDGE_CURVE('',#581,#582,#688,.T.);
#429=EDGE_CURVE('',#582,#568,#689,.T.);
#430=EDGE_CURVE('',#583,#584,#690,.T.);
#431=EDGE_CURVE('',#584,#585,#691,.T.);
#432=EDGE_CURVE('',#585,#586,#692,.T.);
#433=EDGE_CURVE('',#586,#587,#693,.T.);
#434=EDGE_CURVE('',#587,#588,#694,.T.);
#435=EDGE_CURVE('',#588,#583,#695,.T.);
#436=EDGE_CURVE('',#589,#590,#696,.T.);
#437=EDGE_CURVE('',#589,#559,#697,.T.);
#438=EDGE_CURVE('',#558,#591,#698,.T.);
#439=EDGE_CURVE('',#592,#591,#699,.T.);
#440=EDGE_CURVE('',#590,#592,#700,.T.);
#441=EDGE_CURVE('',#570,#590,#701,.T.);
#442=EDGE_CURVE('',#571,#592,#702,.T.);
#443=EDGE_CURVE('',#582,#564,#703,.T.);
#444=EDGE_CURVE('',#593,#593,#40,.F.);
#445=EDGE_CURVE('',#594,#595,#704,.T.);
#446=EDGE_CURVE('',#596,#594,#41,.T.);
#447=EDGE_CURVE('',#597,#596,#705,.T.);
#448=EDGE_CURVE('',#598,#597,#42,.T.);
#449=EDGE_CURVE('',#598,#599,#706,.T.);
#450=EDGE_CURVE('',#595,#599,#707,.T.);
#451=EDGE_CURVE('',#574,#595,#708,.T.);
#452=EDGE_CURVE('',#599,#575,#709,.T.);
#453=EDGE_CURVE('',#552,#596,#710,.T.);
#454=EDGE_CURVE('',#551,#597,#30,.T.);
#455=EDGE_CURVE('',#600,#601,#711,.T.);
#456=EDGE_CURVE('',#601,#580,#712,.T.);
#457=EDGE_CURVE('',#600,#579,#713,.T.);
#458=EDGE_CURVE('',#602,#602,#43,.T.);
#459=EDGE_CURVE('',#603,#603,#44,.T.);
#460=EDGE_CURVE('',#546,#600,#714,.T.);
#461=EDGE_CURVE('',#547,#578,#715,.T.);
#462=EDGE_CURVE('',#604,#605,#716,.T.);
#463=EDGE_CURVE('',#606,#604,#717,.T.);
#464=EDGE_CURVE('',#607,#606,#718,.T.);
#465=EDGE_CURVE('',#605,#607,#719,.T.);
#466=EDGE_CURVE('',#608,#609,#720,.T.);
#467=EDGE_CURVE('',#609,#610,#721,.T.);
#468=EDGE_CURVE('',#610,#611,#722,.T.);
#469=EDGE_CURVE('',#611,#608,#723,.T.);
#470=EDGE_CURVE('',#612,#613,#724,.T.);
#471=EDGE_CURVE('',#613,#614,#725,.T.);
#472=EDGE_CURVE('',#615,#614,#726,.T.);
#473=EDGE_CURVE('',#612,#615,#727,.T.);
#474=EDGE_CURVE('',#616,#617,#728,.T.);
#475=EDGE_CURVE('',#618,#616,#729,.T.);
#476=EDGE_CURVE('',#618,#619,#730,.T.);
#477=EDGE_CURVE('',#620,#619,#731,.T.);
#478=EDGE_CURVE('',#620,#606,#732,.T.);
#479=EDGE_CURVE('',#621,#604,#733,.T.);
#480=EDGE_CURVE('',#617,#621,#734,.T.);
#481=EDGE_CURVE('',#622,#618,#735,.T.);
#482=EDGE_CURVE('',#622,#623,#736,.T.);
#483=EDGE_CURVE('',#619,#623,#737,.T.);
#484=EDGE_CURVE('',#624,#624,#45,.T.);
#485=EDGE_CURVE('',#625,#625,#46,.T.);
#486=EDGE_CURVE('',#626,#626,#47,.T.);
#487=EDGE_CURVE('',#627,#627,#48,.T.);
#488=EDGE_CURVE('',#616,#622,#738,.T.);
#489=EDGE_CURVE('',#623,#617,#739,.T.);
#490=EDGE_CURVE('',#628,#629,#740,.T.);
#491=EDGE_CURVE('',#628,#612,#741,.T.);
#492=EDGE_CURVE('',#630,#615,#742,.T.);
#493=EDGE_CURVE('',#630,#605,#743,.T.);
#494=EDGE_CURVE('',#631,#607,#744,.T.);
#495=EDGE_CURVE('',#629,#631,#745,.T.);
#496=EDGE_CURVE('',#613,#628,#746,.T.);
#497=EDGE_CURVE('',#614,#629,#747,.T.);
#498=EDGE_CURVE('',#621,#630,#748,.T.);
#499=EDGE_CURVE('',#631,#620,#749,.T.);
#500=EDGE_CURVE('',#632,#609,#750,.T.);
#501=EDGE_CURVE('',#632,#633,#751,.T.);
#502=EDGE_CURVE('',#633,#610,#752,.T.);
#503=EDGE_CURVE('',#633,#634,#753,.T.);
#504=EDGE_CURVE('',#634,#611,#754,.T.);
#505=EDGE_CURVE('',#634,#635,#755,.T.);
#506=EDGE_CURVE('',#635,#608,#756,.T.);
#507=EDGE_CURVE('',#635,#632,#757,.T.);
#508=EDGE_CURVE('',#577,#548,#758,.T.);
#509=EDGE_CURVE('',#545,#601,#759,.T.);
#510=EDGE_CURVE('',#584,#529,#760,.T.);
#511=EDGE_CURVE('',#583,#528,#761,.T.);
#512=EDGE_CURVE('',#588,#530,#762,.T.);
#513=EDGE_CURVE('',#587,#531,#763,.T.);
#514=EDGE_CURVE('',#586,#532,#764,.T.);
#515=EDGE_CURVE('',#585,#533,#765,.T.);
#516=EDGE_CURVE('',#636,#636,#49,.T.);
#517=EDGE_CURVE('',#637,#637,#50,.T.);
#518=EDGE_CURVE('',#549,#576,#766,.T.);
#519=EDGE_CURVE('',#581,#544,#767,.T.);
#520=EDGE_CURVE('',#550,#598,#768,.T.);
#521=EDGE_CURVE('',#555,#572,#769,.T.);
#522=EDGE_CURVE('',#573,#554,#770,.T.);
#523=EDGE_CURVE('',#591,#556,#771,.T.);
#524=EDGE_CURVE('',#553,#594,#772,.T.);
#525=EDGE_CURVE('',#563,#543,#773,.T.);
#526=EDGE_CURVE('',#589,#536,#774,.T.);
#527=EDGE_CURVE('',#569,#538,#775,.T.);
#528=VERTEX_POINT('',#1577);
#529=VERTEX_POINT('',#1578);
#530=VERTEX_POINT('',#1580);
#531=VERTEX_POINT('',#1582);
#532=VERTEX_POINT('',#1584);
#533=VERTEX_POINT('',#1586);
#534=VERTEX_POINT('',#1589);
#535=VERTEX_POINT('',#1591);
#536=VERTEX_POINT('',#1593);
#537=VERTEX_POINT('',#1594);
#538=VERTEX_POINT('',#1596);
#539=VERTEX_POINT('',#1598);
#540=VERTEX_POINT('',#1600);
#541=VERTEX_POINT('',#1602);
#542=VERTEX_POINT('',#1604);
#543=VERTEX_POINT('',#1606);
#544=VERTEX_POINT('',#1608);
#545=VERTEX_POINT('',#1610);
#546=VERTEX_POINT('',#1612);
#547=VERTEX_POINT('',#1614);
#548=VERTEX_POINT('',#1616);
#549=VERTEX_POINT('',#1618);
#550=VERTEX_POINT('',#1620);
#551=VERTEX_POINT('',#1622);
#552=VERTEX_POINT('',#1624);
#553=VERTEX_POINT('',#1626);
#554=VERTEX_POINT('',#1628);
#555=VERTEX_POINT('',#1630);
#556=VERTEX_POINT('',#1632);
#557=VERTEX_POINT('',#1634);
#558=VERTEX_POINT('',#1638);
#559=VERTEX_POINT('',#1639);
#560=VERTEX_POINT('',#1644);
#561=VERTEX_POINT('',#1645);
#562=VERTEX_POINT('',#1650);
#563=VERTEX_POINT('',#1652);
#564=VERTEX_POINT('',#1653);
#565=VERTEX_POINT('',#1656);
#566=VERTEX_POINT('',#1658);
#567=VERTEX_POINT('',#1663);
#568=VERTEX_POINT('',#1665);
#569=VERTEX_POINT('',#1669);
#570=VERTEX_POINT('',#1671);
#571=VERTEX_POINT('',#1673);
#572=VERTEX_POINT('',#1675);
#573=VERTEX_POINT('',#1677);
#574=VERTEX_POINT('',#1679);
#575=VERTEX_POINT('',#1681);
#576=VERTEX_POINT('',#1683);
#577=VERTEX_POINT('',#1685);
#578=VERTEX_POINT('',#1687);
#579=VERTEX_POINT('',#1689);
#580=VERTEX_POINT('',#1691);
#581=VERTEX_POINT('',#1693);
#582=VERTEX_POINT('',#1695);
#583=VERTEX_POINT('',#1699);
#584=VERTEX_POINT('',#1700);
#585=VERTEX_POINT('',#1702);
#586=VERTEX_POINT('',#1704);
#587=VERTEX_POINT('',#1706);
#588=VERTEX_POINT('',#1708);
#589=VERTEX_POINT('',#1711);
#590=VERTEX_POINT('',#1712);
#591=VERTEX_POINT('',#1715);
#592=VERTEX_POINT('',#1717);
#593=VERTEX_POINT('',#1726);
#594=VERTEX_POINT('',#1728);
#595=VERTEX_POINT('',#1729);
#596=VERTEX_POINT('',#1731);
#597=VERTEX_POINT('',#1733);
#598=VERTEX_POINT('',#1735);
#599=VERTEX_POINT('',#1737);
#600=VERTEX_POINT('',#1750);
#601=VERTEX_POINT('',#1751);
#602=VERTEX_POINT('',#1756);
#603=VERTEX_POINT('',#1758);
#604=VERTEX_POINT('',#1763);
#605=VERTEX_POINT('',#1764);
#606=VERTEX_POINT('',#1766);
#607=VERTEX_POINT('',#1768);
#608=VERTEX_POINT('',#1771);
#609=VERTEX_POINT('',#1772);
#610=VERTEX_POINT('',#1774);
#611=VERTEX_POINT('',#1776);
#612=VERTEX_POINT('',#1780);
#613=VERTEX_POINT('',#1781);
#614=VERTEX_POINT('',#1783);
#615=VERTEX_POINT('',#1785);
#616=VERTEX_POINT('',#1789);
#617=VERTEX_POINT('',#1790);
#618=VERTEX_POINT('',#1792);
#619=VERTEX_POINT('',#1794);
#620=VERTEX_POINT('',#1796);
#621=VERTEX_POINT('',#1799);
#622=VERTEX_POINT('',#1803);
#623=VERTEX_POINT('',#1805);
#624=VERTEX_POINT('',#1809);
#625=VERTEX_POINT('',#1811);
#626=VERTEX_POINT('',#1814);
#627=VERTEX_POINT('',#1816);
#628=VERTEX_POINT('',#1822);
#629=VERTEX_POINT('',#1823);
#630=VERTEX_POINT('',#1826);
#631=VERTEX_POINT('',#1829);
#632=VERTEX_POINT('',#1841);
#633=VERTEX_POINT('',#1843);
#634=VERTEX_POINT('',#1847);
#635=VERTEX_POINT('',#1851);
#636=VERTEX_POINT('',#1874);
#637=VERTEX_POINT('',#1876);
#638=LINE('',#1576,#776);
#639=LINE('',#1579,#777);
#640=LINE('',#1581,#778);
#641=LINE('',#1583,#779);
#642=LINE('',#1585,#780);
#643=LINE('',#1587,#781);
#644=LINE('',#1592,#782);
#645=LINE('',#1595,#783);
#646=LINE('',#1597,#784);
#647=LINE('',#1599,#785);
#648=LINE('',#1603,#786);
#649=LINE('',#1607,#787);
#650=LINE('',#1609,#788);
#651=LINE('',#1611,#789);
#652=LINE('',#1613,#790);
#653=LINE('',#1615,#791);
#654=LINE('',#1617,#792);
#655=LINE('',#1619,#793);
#656=LINE('',#1623,#794);
#657=LINE('',#1627,#795);
#658=LINE('',#1629,#796);
#659=LINE('',#1631,#797);
#660=LINE('',#1633,#798);
#661=LINE('',#1635,#799);
#662=LINE('',#1637,#800);
#663=LINE('',#1640,#801);
#664=LINE('',#1641,#802);
#665=LINE('',#1643,#803);
#666=LINE('',#1646,#804);
#667=LINE('',#1647,#805);
#668=LINE('',#1651,#806);
#669=LINE('',#1657,#807);
#670=LINE('',#1659,#808);
#671=LINE('',#1661,#809);
#672=LINE('',#1662,#810);
#673=LINE('',#1664,#811);
#674=LINE('',#1666,#812);
#675=LINE('',#1668,#813);
#676=LINE('',#1670,#814);
#677=LINE('',#1672,#815);
#678=LINE('',#1674,#816);
#679=LINE('',#1676,#817);
#680=LINE('',#1678,#818);
#681=LINE('',#1680,#819);
#682=LINE('',#1682,#820);
#683=LINE('',#1684,#821);
#684=LINE('',#1686,#822);
#685=LINE('',#1688,#823);
#686=LINE('',#1690,#824);
#687=LINE('',#1692,#825);
#688=LINE('',#1694,#826);
#689=LINE('',#1696,#827);
#690=LINE('',#1698,#828);
#691=LINE('',#1701,#829);
#692=LINE('',#1703,#830);
#693=LINE('',#1705,#831);
#694=LINE('',#1707,#832);
#695=LINE('',#1709,#833);
#696=LINE('',#1710,#834);
#697=LINE('',#1713,#835);
#698=LINE('',#1714,#836);
#699=LINE('',#1716,#837);
#700=LINE('',#1718,#838);
#701=LINE('',#1720,#839);
#702=LINE('',#1721,#840);
#703=LINE('',#1723,#841);
#704=LINE('',#1727,#842);
#705=LINE('',#1732,#843);
#706=LINE('',#1736,#844);
#707=LINE('',#1738,#845);
#708=LINE('',#1740,#846);
#709=LINE('',#1741,#847);
#710=LINE('',#1743,#848);
#711=LINE('',#1749,#849);
#712=LINE('',#1752,#850);
#713=LINE('',#1753,#851);
#714=LINE('',#1760,#852);
#715=LINE('',#1761,#853);
#716=LINE('',#1762,#854);
#717=LINE('',#1765,#855);
#718=LINE('',#1767,#856);
#719=LINE('',#1769,#857);
#720=LINE('',#1770,#858);
#721=LINE('',#1773,#859);
#722=LINE('',#1775,#860);
#723=LINE('',#1777,#861);
#724=LINE('',#1779,#862);
#725=LINE('',#1782,#863);
#726=LINE('',#1784,#864);
#727=LINE('',#1786,#865);
#728=LINE('',#1788,#866);
#729=LINE('',#1791,#867);
#730=LINE('',#1793,#868);
#731=LINE('',#1795,#869);
#732=LINE('',#1797,#870);
#733=LINE('',#1798,#871);
#734=LINE('',#1800,#872);
#735=LINE('',#1802,#873);
#736=LINE('',#1804,#874);
#737=LINE('',#1806,#875);
#738=LINE('',#1818,#876);
#739=LINE('',#1819,#877);
#740=LINE('',#1821,#878);
#741=LINE('',#1824,#879);
#742=LINE('',#1825,#880);
#743=LINE('',#1827,#881);
#744=LINE('',#1828,#882);
#745=LINE('',#1830,#883);
#746=LINE('',#1832,#884);
#747=LINE('',#1833,#885);
#748=LINE('',#1835,#886);
#749=LINE('',#1837,#887);
#750=LINE('',#1840,#888);
#751=LINE('',#1842,#889);
#752=LINE('',#1844,#890);
#753=LINE('',#1846,#891);
#754=LINE('',#1848,#892);
#755=LINE('',#1850,#893);
#756=LINE('',#1852,#894);
#757=LINE('',#1854,#895);
#758=LINE('',#1857,#896);
#759=LINE('',#1859,#897);
#760=LINE('',#1861,#898);
#761=LINE('',#1862,#899);
#762=LINE('',#1864,#900);
#763=LINE('',#1866,#901);
#764=LINE('',#1868,#902);
#765=LINE('',#1870,#903);
#766=LINE('',#1880,#904);
#767=LINE('',#1882,#905);
#768=LINE('',#1886,#906);
#769=LINE('',#1888,#907);
#770=LINE('',#1889,#908);
#771=LINE('',#1891,#909);
#772=LINE('',#1894,#910);
#773=LINE('',#1896,#911);
#774=LINE('',#1899,#912);
#775=LINE('',#1900,#913);
#776=VECTOR('',#1280,1000.);
#777=VECTOR('',#1281,1000.);
#778=VECTOR('',#1282,1000.);
#779=VECTOR('',#1283,1000.);
#780=VECTOR('',#1284,1000.);
#781=VECTOR('',#1285,1000.);
#782=VECTOR('',#1290,1000.);
#783=VECTOR('',#1291,1000.);
#784=VECTOR('',#1292,1000.);
#785=VECTOR('',#1293,1000.);
#786=VECTOR('',#1296,1000.);
#787=VECTOR('',#1299,1000.);
#788=VECTOR('',#1300,1000.);
#789=VECTOR('',#1301,1000.);
#790=VECTOR('',#1302,1000.);
#791=VECTOR('',#1303,1000.);
#792=VECTOR('',#1304,1000.);
#793=VECTOR('',#1305,1000.);
#794=VECTOR('',#1308,1000.);
#795=VECTOR('',#1311,1000.);
#796=VECTOR('',#1312,1000.);
#797=VECTOR('',#1313,1000.);
#798=VECTOR('',#1314,1000.);
#799=VECTOR('',#1315,1000.);
#800=VECTOR('',#1318,1000.);
#801=VECTOR('',#1319,1000.);
#802=VECTOR('',#1320,1000.);
#803=VECTOR('',#1323,1000.);
#804=VECTOR('',#1324,1000.);
#805=VECTOR('',#1325,1000.);
#806=VECTOR('',#1330,1000.);
#807=VECTOR('',#1335,1000.);
#808=VECTOR('',#1336,1000.);
#809=VECTOR('',#1339,1000.);
#810=VECTOR('',#1340,1000.);
#811=VECTOR('',#1341,1000.);
#812=VECTOR('',#1342,1000.);
#813=VECTOR('',#1345,1000.);
#814=VECTOR('',#1346,1000.);
#815=VECTOR('',#1347,1000.);
#816=VECTOR('',#1348,1000.);
#817=VECTOR('',#1349,1000.);
#818=VECTOR('',#1350,1000.);
#819=VECTOR('',#1351,1000.);
#820=VECTOR('',#1352,1000.);
#821=VECTOR('',#1353,1000.);
#822=VECTOR('',#1354,1000.);
#823=VECTOR('',#1355,1000.);
#824=VECTOR('',#1356,1000.);
#825=VECTOR('',#1357,1000.);
#826=VECTOR('',#1358,1000.);
#827=VECTOR('',#1359,1000.);
#828=VECTOR('',#1362,1000.);
#829=VECTOR('',#1363,1000.);
#830=VECTOR('',#1364,1000.);
#831=VECTOR('',#1365,1000.);
#832=VECTOR('',#1366,1000.);
#833=VECTOR('',#1367,1000.);
#834=VECTOR('',#1368,1000.);
#835=VECTOR('',#1369,1000.);
#836=VECTOR('',#1370,1000.);
#837=VECTOR('',#1371,1000.);
#838=VECTOR('',#1372,1000.);
#839=VECTOR('',#1375,1000.);
#840=VECTOR('',#1376,1000.);
#841=VECTOR('',#1379,1000.);
#842=VECTOR('',#1384,1000.);
#843=VECTOR('',#1387,1000.);
#844=VECTOR('',#1390,1000.);
#845=VECTOR('',#1391,1000.);
#846=VECTOR('',#1394,1000.);
#847=VECTOR('',#1395,1000.);
#848=VECTOR('',#1398,1000.);
#849=VECTOR('',#1401,1000.);
#850=VECTOR('',#1402,1000.);
#851=VECTOR('',#1403,1000.);
#852=VECTOR('',#1412,1000.);
#853=VECTOR('',#1413,1000.);
#854=VECTOR('',#1414,1000.);
#855=VECTOR('',#1415,1000.);
#856=VECTOR('',#1416,1000.);
#857=VECTOR('',#1417,1000.);
#858=VECTOR('',#1418,1000.);
#859=VECTOR('',#1419,1000.);
#860=VECTOR('',#1420,1000.);
#861=VECTOR('',#1421,1000.);
#862=VECTOR('',#1424,1000.);
#863=VECTOR('',#1425,1000.);
#864=VECTOR('',#1426,1000.);
#865=VECTOR('',#1427,1000.);
#866=VECTOR('',#1430,1000.);
#867=VECTOR('',#1431,1000.);
#868=VECTOR('',#1432,1000.);
#869=VECTOR('',#1433,1000.);
#870=VECTOR('',#1434,1000.);
#871=VECTOR('',#1435,1000.);
#872=VECTOR('',#1436,1000.);
#873=VECTOR('',#1439,1000.);
#874=VECTOR('',#1440,1000.);
#875=VECTOR('',#1441,1000.);
#876=VECTOR('',#1456,1000.);
#877=VECTOR('',#1457,1000.);
#878=VECTOR('',#1460,1000.);
#879=VECTOR('',#1461,1000.);
#880=VECTOR('',#1462,1000.);
#881=VECTOR('',#1463,1000.);
#882=VECTOR('',#1464,1000.);
#883=VECTOR('',#1465,1000.);
#884=VECTOR('',#1468,1000.);
#885=VECTOR('',#1469,1000.);
#886=VECTOR('',#1472,1000.);
#887=VECTOR('',#1475,1000.);
#888=VECTOR('',#1480,1000.);
#889=VECTOR('',#1481,1000.);
#890=VECTOR('',#1482,1000.);
#891=VECTOR('',#1485,1000.);
#892=VECTOR('',#1486,1000.);
#893=VECTOR('',#1489,1000.);
#894=VECTOR('',#1490,1000.);
#895=VECTOR('',#1493,1000.);
#896=VECTOR('',#1498,1000.);
#897=VECTOR('',#1501,1000.);
#898=VECTOR('',#1504,1000.);
#899=VECTOR('',#1505,1000.);
#900=VECTOR('',#1508,1000.);
#901=VECTOR('',#1511,1000.);
#902=VECTOR('',#1514,1000.);
#903=VECTOR('',#1517,1000.);
#904=VECTOR('',#1532,1000.);
#905=VECTOR('',#1535,1000.);
#906=VECTOR('',#1542,1000.);
#907=VECTOR('',#1545,1000.);
#908=VECTOR('',#1546,1000.);
#909=VECTOR('',#1549,1000.);
#910=VECTOR('',#1554,1000.);
#911=VECTOR('',#1557,1000.);
#912=VECTOR('',#1562,1000.);
#913=VECTOR('',#1563,1000.);
#914=EDGE_LOOP('',(#51,#52,#53,#54,#55,#56));
#915=EDGE_LOOP('',(#57));
#916=EDGE_LOOP('',(#58));
#917=EDGE_LOOP('',(#59,#60,#61,#62,#63,#64,#65,#66,#67,#68,#69,#70,#71,
#72,#73,#74,#75,#76,#77,#78,#79,#80));
#918=EDGE_LOOP('',(#81,#82,#83,#84));
#919=EDGE_LOOP('',(#85,#86,#87,#88));
#920=EDGE_LOOP('',(#89));
#921=EDGE_LOOP('',(#90,#91,#92,#93,#94,#95));
#922=EDGE_LOOP('',(#96,#97,#98,#99,#100,#101));
#923=EDGE_LOOP('',(#102,#103,#104,#105,#106,#107,#108,#109,#110,#111,#112,
#113,#114,#115,#116,#117));
#924=EDGE_LOOP('',(#118,#119,#120,#121,#122,#123));
#925=EDGE_LOOP('',(#124,#125,#126,#127,#128,#129));
#926=EDGE_LOOP('',(#130,#131,#132,#133));
#927=EDGE_LOOP('',(#134,#135,#136,#137));
#928=EDGE_LOOP('',(#138));
#929=EDGE_LOOP('',(#139,#140,#141,#142,#143,#144));
#930=EDGE_LOOP('',(#145,#146,#147,#148));
#931=EDGE_LOOP('',(#149,#150,#151,#152));
#932=EDGE_LOOP('',(#153,#154,#155,#156));
#933=EDGE_LOOP('',(#157));
#934=EDGE_LOOP('',(#158));
#935=EDGE_LOOP('',(#159,#160,#161,#162,#163));
#936=EDGE_LOOP('',(#164,#165,#166,#167));
#937=EDGE_LOOP('',(#168,#169,#170,#171));
#938=EDGE_LOOP('',(#172,#173,#174,#175));
#939=EDGE_LOOP('',(#176,#177,#178,#179,#180,#181,#182,#183));
#940=EDGE_LOOP('',(#184,#185,#186,#187));
#941=EDGE_LOOP('',(#188));
#942=EDGE_LOOP('',(#189));
#943=EDGE_LOOP('',(#190));
#944=EDGE_LOOP('',(#191));
#945=EDGE_LOOP('',(#192,#193,#194,#195));
#946=EDGE_LOOP('',(#196,#197,#198,#199,#200,#201,#202,#203));
#947=EDGE_LOOP('',(#204,#205,#206,#207));
#948=EDGE_LOOP('',(#208,#209,#210,#211));
#949=EDGE_LOOP('',(#212,#213,#214,#215));
#950=EDGE_LOOP('',(#216));
#951=EDGE_LOOP('',(#217,#218,#219,#220,#221,#222,#223,#224,#225,#226));
#952=EDGE_LOOP('',(#227,#228,#229,#230));
#953=EDGE_LOOP('',(#231,#232,#233,#234));
#954=EDGE_LOOP('',(#235,#236,#237,#238));
#955=EDGE_LOOP('',(#239,#240,#241,#242));
#956=EDGE_LOOP('',(#243));
#957=EDGE_LOOP('',(#244,#245,#246,#247));
#958=EDGE_LOOP('',(#248,#249,#250,#251));
#959=EDGE_LOOP('',(#252,#253,#254,#255));
#960=EDGE_LOOP('',(#256,#257,#258,#259));
#961=EDGE_LOOP('',(#260,#261,#262,#263));
#962=EDGE_LOOP('',(#264,#265,#266,#267));
#963=EDGE_LOOP('',(#268,#269,#270,#271));
#964=EDGE_LOOP('',(#272,#273,#274,#275));
#965=EDGE_LOOP('',(#276,#277,#278,#279));
#966=EDGE_LOOP('',(#280));
#967=EDGE_LOOP('',(#281));
#968=EDGE_LOOP('',(#282));
#969=EDGE_LOOP('',(#283));
#970=EDGE_LOOP('',(#284));
#971=EDGE_LOOP('',(#285));
#972=EDGE_LOOP('',(#286));
#973=EDGE_LOOP('',(#287,#288,#289,#290));
#974=EDGE_LOOP('',(#291));
#975=EDGE_LOOP('',(#292,#293,#294));
#976=EDGE_LOOP('',(#295,#296,#297,#298,#299));
#977=EDGE_LOOP('',(#300,#301,#302));
#978=EDGE_LOOP('',(#303));
#979=EDGE_LOOP('',(#304));
#980=EDGE_LOOP('',(#305));
#981=EDGE_LOOP('',(#306));
#982=EDGE_LOOP('',(#307,#308,#309,#310,#311,#312));
#983=EDGE_LOOP('',(#313,#314,#315,#316));
#984=EDGE_LOOP('',(#317,#318,#319,#320,#321,#322));
#985=EDGE_LOOP('',(#323,#324,#325,#326));
#986=EDGE_LOOP('',(#327,#328,#329,#330));
#987=EDGE_LOOP('',(#331,#332,#333,#334,#335,#336));
#988=EDGE_LOOP('',(#337,#338,#339,#340,#341,#342));
#989=EDGE_LOOP('',(#343,#344,#345,#346,#347,#348));
#990=EDGE_LOOP('',(#349,#350,#351,#352));
#991=EDGE_LOOP('',(#353,#354,#355,#356));
#992=EDGE_LOOP('',(#357,#358,#359,#360));
#993=EDGE_LOOP('',(#361,#362,#363,#364));
#994=EDGE_LOOP('',(#365,#366,#367,#368));
#995=FACE_BOUND('',#914,.T.);
#996=FACE_BOUND('',#915,.T.);
#997=FACE_BOUND('',#916,.T.);
#998=FACE_BOUND('',#917,.T.);
#999=FACE_BOUND('',#918,.T.);
#1000=FACE_BOUND('',#919,.T.);
#1001=FACE_BOUND('',#920,.T.);
#1002=FACE_BOUND('',#921,.T.);
#1003=FACE_BOUND('',#922,.T.);
#1004=FACE_BOUND('',#923,.T.);
#1005=FACE_BOUND('',#924,.T.);
#1006=FACE_BOUND('',#925,.T.);
#1007=FACE_BOUND('',#926,.T.);
#1008=FACE_BOUND('',#927,.T.);
#1009=FACE_BOUND('',#928,.T.);
#1010=FACE_BOUND('',#929,.T.);
#1011=FACE_BOUND('',#930,.T.);
#1012=FACE_BOUND('',#931,.T.);
#1013=FACE_BOUND('',#932,.T.);
#1014=FACE_BOUND('',#933,.T.);
#1015=FACE_BOUND('',#934,.T.);
#1016=FACE_BOUND('',#935,.T.);
#1017=FACE_BOUND('',#936,.T.);
#1018=FACE_BOUND('',#937,.T.);
#1019=FACE_BOUND('',#938,.T.);
#1020=FACE_BOUND('',#939,.T.);
#1021=FACE_BOUND('',#940,.T.);
#1022=FACE_BOUND('',#941,.T.);
#1023=FACE_BOUND('',#942,.T.);
#1024=FACE_BOUND('',#943,.T.);
#1025=FACE_BOUND('',#944,.T.);
#1026=FACE_BOUND('',#945,.T.);
#1027=FACE_BOUND('',#946,.T.);
#1028=FACE_BOUND('',#947,.T.);
#1029=FACE_BOUND('',#948,.T.);
#1030=FACE_BOUND('',#949,.T.);
#1031=FACE_BOUND('',#950,.T.);
#1032=FACE_BOUND('',#951,.T.);
#1033=FACE_BOUND('',#952,.T.);
#1034=FACE_BOUND('',#953,.T.);
#1035=FACE_BOUND('',#954,.T.);
#1036=FACE_BOUND('',#955,.T.);
#1037=FACE_BOUND('',#956,.T.);
#1038=FACE_BOUND('',#957,.T.);
#1039=FACE_BOUND('',#958,.T.);
#1040=FACE_BOUND('',#959,.T.);
#1041=FACE_BOUND('',#960,.T.);
#1042=FACE_BOUND('',#961,.T.);
#1043=FACE_BOUND('',#962,.T.);
#1044=FACE_BOUND('',#963,.T.);
#1045=FACE_BOUND('',#964,.T.);
#1046=FACE_BOUND('',#965,.T.);
#1047=FACE_BOUND('',#966,.T.);
#1048=FACE_BOUND('',#967,.T.);
#1049=FACE_BOUND('',#968,.T.);
#1050=FACE_BOUND('',#969,.T.);
#1051=FACE_BOUND('',#970,.T.);
#1052=FACE_BOUND('',#971,.T.);
#1053=FACE_BOUND('',#972,.T.);
#1054=FACE_BOUND('',#973,.T.);
#1055=FACE_BOUND('',#974,.T.);
#1056=FACE_BOUND('',#975,.T.);
#1057=FACE_BOUND('',#976,.T.);
#1058=FACE_BOUND('',#977,.T.);
#1059=FACE_BOUND('',#978,.T.);
#1060=FACE_BOUND('',#979,.T.);
#1061=FACE_BOUND('',#980,.T.);
#1062=FACE_BOUND('',#981,.T.);
#1063=FACE_BOUND('',#982,.T.);
#1064=FACE_BOUND('',#983,.T.);
#1065=FACE_BOUND('',#984,.T.);
#1066=FACE_BOUND('',#985,.T.);
#1067=FACE_BOUND('',#986,.T.);
#1068=FACE_BOUND('',#987,.T.);
#1069=FACE_BOUND('',#988,.T.);
#1070=FACE_BOUND('',#989,.T.);
#1071=FACE_BOUND('',#990,.T.);
#1072=FACE_BOUND('',#991,.T.);
#1073=FACE_BOUND('',#992,.T.);
#1074=FACE_BOUND('',#993,.T.);
#1075=FACE_BOUND('',#994,.T.);
#1076=PLANE('',#1197);
#1077=PLANE('',#1204);
#1078=PLANE('',#1205);
#1079=PLANE('',#1206);
#1080=PLANE('',#1210);
#1081=PLANE('',#1211);
#1082=PLANE('',#1212);
#1083=PLANE('',#1213);
#1084=PLANE('',#1214);
#1085=PLANE('',#1215);
#1086=PLANE('',#1219);
#1087=PLANE('',#1220);
#1088=PLANE('',#1221);
#1089=PLANE('',#1225);
#1090=PLANE('',#1226);
#1091=PLANE('',#1227);
#1092=PLANE('',#1228);
#1093=PLANE('',#1235);
#1094=PLANE('',#1236);
#1095=PLANE('',#1237);
#1096=PLANE('',#1238);
#1097=PLANE('',#1239);
#1098=PLANE('',#1240);
#1099=PLANE('',#1241);
#1100=PLANE('',#1242);
#1101=PLANE('',#1243);
#1102=PLANE('',#1244);
#1103=PLANE('',#1245);
#1104=PLANE('',#1246);
#1105=PLANE('',#1247);
#1106=PLANE('',#1248);
#1107=PLANE('',#1249);
#1108=PLANE('',#1250);
#1109=PLANE('',#1251);
#1110=PLANE('',#1252);
#1111=PLANE('',#1253);
#1112=PLANE('',#1259);
#1113=PLANE('',#1260);
#1114=PLANE('',#1261);
#1115=PLANE('',#1262);
#1116=PLANE('',#1263);
#1117=PLANE('',#1264);
#1118=PLANE('',#1265);
#1119=PLANE('',#1268);
#1120=PLANE('',#1269);
#1121=PLANE('',#1270);
#1122=PLANE('',#1271);
#1123=PLANE('',#1274);
#1124=PLANE('',#1275);
#1125=ADVANCED_FACE('',(#995,#996,#997,#998),#1076,.F.);
#1126=ADVANCED_FACE('',(#999),#1077,.T.);
#1127=ADVANCED_FACE('',(#1000),#1078,.T.);
#1128=ADVANCED_FACE('',(#1001,#1002),#1079,.F.);
#1129=ADVANCED_FACE('',(#1003),#1080,.T.);
#1130=ADVANCED_FACE('',(#1004),#1081,.T.);
#1131=ADVANCED_FACE('',(#1005,#1006),#1082,.F.);
#1132=ADVANCED_FACE('',(#1007),#1083,.T.);
#1133=ADVANCED_FACE('',(#1008),#1084,.T.);
#1134=ADVANCED_FACE('',(#1009,#1010),#1085,.F.);
#1135=ADVANCED_FACE('',(#1011),#1086,.T.);
#1136=ADVANCED_FACE('',(#1012),#1087,.T.);
#1137=ADVANCED_FACE('',(#1013),#1088,.T.);
#1138=ADVANCED_FACE('',(#1014,#1015),#20,.F.);
#1139=ADVANCED_FACE('',(#1016,#1017,#1018),#1089,.T.);
#1140=ADVANCED_FACE('',(#1019),#1090,.T.);
#1141=ADVANCED_FACE('',(#1020),#1091,.F.);
#1142=ADVANCED_FACE('',(#1021),#1092,.T.);
#1143=ADVANCED_FACE('',(#1022,#1023),#21,.F.);
#1144=ADVANCED_FACE('',(#1024,#1025),#22,.F.);
#1145=ADVANCED_FACE('',(#1026),#1093,.F.);
#1146=ADVANCED_FACE('',(#1027),#1094,.F.);
#1147=ADVANCED_FACE('',(#1028),#1095,.F.);
#1148=ADVANCED_FACE('',(#1029),#1096,.F.);
#1149=ADVANCED_FACE('',(#1030),#1097,.F.);
#1150=ADVANCED_FACE('',(#1031,#1032),#1098,.F.);
#1151=ADVANCED_FACE('',(#1033),#1099,.T.);
#1152=ADVANCED_FACE('',(#1034),#1100,.T.);
#1153=ADVANCED_FACE('',(#1035),#1101,.T.);
#1154=ADVANCED_FACE('',(#1036),#1102,.T.);
#1155=ADVANCED_FACE('',(#1037,#1038),#1103,.F.);
#1156=ADVANCED_FACE('',(#1039),#1104,.F.);
#1157=ADVANCED_FACE('',(#1040),#1105,.F.);
#1158=ADVANCED_FACE('',(#1041),#1106,.F.);
#1159=ADVANCED_FACE('',(#1042),#1107,.F.);
#1160=ADVANCED_FACE('',(#1043),#1108,.F.);
#1161=ADVANCED_FACE('',(#1044),#1109,.F.);
#1162=ADVANCED_FACE('',(#1045),#1110,.F.);
#1163=ADVANCED_FACE('',(#1046),#1111,.F.);
#1164=ADVANCED_FACE('',(#1047,#1048),#23,.F.);
#1165=ADVANCED_FACE('',(#1049,#1050),#24,.F.);
#1166=ADVANCED_FACE('',(#1051,#1052),#25,.F.);
#1167=ADVANCED_FACE('',(#1053,#1054),#1112,.T.);
#1168=ADVANCED_FACE('',(#1055,#1056,#1057,#1058),#1113,.F.);
#1169=ADVANCED_FACE('',(#1059,#1060),#1114,.F.);
#1170=ADVANCED_FACE('',(#1061,#1062),#1115,.F.);
#1171=ADVANCED_FACE('',(#1063),#1116,.T.);
#1172=ADVANCED_FACE('',(#1064),#1117,.F.);
#1173=ADVANCED_FACE('',(#1065),#1118,.F.);
#1174=ADVANCED_FACE('',(#1066),#26,.T.);
#1175=ADVANCED_FACE('',(#1067),#27,.T.);
#1176=ADVANCED_FACE('',(#1068),#1119,.T.);
#1177=ADVANCED_FACE('',(#1069),#1120,.T.);
#1178=ADVANCED_FACE('',(#1070),#1121,.T.);
#1179=ADVANCED_FACE('',(#1071),#1122,.T.);
#1180=ADVANCED_FACE('',(#1072),#28,.T.);
#1181=ADVANCED_FACE('',(#1073),#29,.T.);
#1182=ADVANCED_FACE('',(#1074),#1123,.F.);
#1183=ADVANCED_FACE('',(#1075),#1124,.F.);
#1184=CLOSED_SHELL('',(#1125,#1126,#1127,#1128,#1129,#1130,#1131,#1132,
#1133,#1134,#1135,#1136,#1137,#1138,#1139,#1140,#1141,#1142,#1143,#1144,
#1145,#1146,#1147,#1148,#1149,#1150,#1151,#1152,#1153,#1154,#1155,#1156,
#1157,#1158,#1159,#1160,#1161,#1162,#1163,#1164,#1165,#1166,#1167,#1168,
#1169,#1170,#1171,#1172,#1173,#1174,#1175,#1176,#1177,#1178,#1179,#1180,
#1181,#1182,#1183));
#1185=STYLED_ITEM('',(#1186),#1193);
#1186=PRESENTATION_STYLE_ASSIGNMENT((#1187));
#1187=SURFACE_STYLE_USAGE(.BOTH.,#1188);
#1188=SURFACE_SIDE_STYLE('',(#1189));
#1189=SURFACE_STYLE_FILL_AREA(#1190);
#1190=FILL_AREA_STYLE('',(#1191));
#1191=FILL_AREA_STYLE_COLOUR('',#1192);
#1192=COLOUR_RGB('',0.506983280181885,0.531564235687256,0.550000011920929);
#1193=MANIFOLD_SOLID_BREP('',#1184);
#1194=SHAPE_DEFINITION_REPRESENTATION(#1912,#1195);
#1195=SHAPE_REPRESENTATION('13_FDML_stimfix_Badal_stage_top',(#1196),#1907);
#1196=AXIS2_PLACEMENT_3D('',#1574,#1276,#1277);
#1197=AXIS2_PLACEMENT_3D('',#1575,#1278,#1279);
#1198=AXIS2_PLACEMENT_3D('',#1588,#1286,#1287);
#1199=AXIS2_PLACEMENT_3D('',#1590,#1288,#1289);
#1200=AXIS2_PLACEMENT_3D('',#1601,#1294,#1295);
#1201=AXIS2_PLACEMENT_3D('',#1605,#1297,#1298);
#1202=AXIS2_PLACEMENT_3D('',#1621,#1306,#1307);
#1203=AXIS2_PLACEMENT_3D('',#1625,#1309,#1310);
#1204=AXIS2_PLACEMENT_3D('',#1636,#1316,#1317);
#1205=AXIS2_PLACEMENT_3D('',#1642,#1321,#1322);
#1206=AXIS2_PLACEMENT_3D('',#1648,#1326,#1327);
#1207=AXIS2_PLACEMENT_3D('',#1649,#1328,#1329);
#1208=AXIS2_PLACEMENT_3D('',#1654,#1331,#1332);
#1209=AXIS2_PLACEMENT_3D('',#1655,#1333,#1334);
#1210=AXIS2_PLACEMENT_3D('',#1660,#1337,#1338);
#1211=AXIS2_PLACEMENT_3D('',#1667,#1343,#1344);
#1212=AXIS2_PLACEMENT_3D('',#1697,#1360,#1361);
#1213=AXIS2_PLACEMENT_3D('',#1719,#1373,#1374);
#1214=AXIS2_PLACEMENT_3D('',#1722,#1377,#1378);
#1215=AXIS2_PLACEMENT_3D('',#1724,#1380,#1381);
#1216=AXIS2_PLACEMENT_3D('',#1725,#1382,#1383);
#1217=AXIS2_PLACEMENT_3D('',#1730,#1385,#1386);
#1218=AXIS2_PLACEMENT_3D('',#1734,#1388,#1389);
#1219=AXIS2_PLACEMENT_3D('',#1739,#1392,#1393);
#1220=AXIS2_PLACEMENT_3D('',#1742,#1396,#1397);
#1221=AXIS2_PLACEMENT_3D('',#1748,#1399,#1400);
#1222=AXIS2_PLACEMENT_3D('',#1754,#1404,#1405);
#1223=AXIS2_PLACEMENT_3D('',#1755,#1406,#1407);
#1224=AXIS2_PLACEMENT_3D('',#1757,#1408,#1409);
#1225=AXIS2_PLACEMENT_3D('',#1759,#1410,#1411);
#1226=AXIS2_PLACEMENT_3D('',#1778,#1422,#1423);
#1227=AXIS2_PLACEMENT_3D('',#1787,#1428,#1429);
#1228=AXIS2_PLACEMENT_3D('',#1801,#1437,#1438);
#1229=AXIS2_PLACEMENT_3D('',#1807,#1442,#1443);
#1230=AXIS2_PLACEMENT_3D('',#1808,#1444,#1445);
#1231=AXIS2_PLACEMENT_3D('',#1810,#1446,#1447);
#1232=AXIS2_PLACEMENT_3D('',#1812,#1448,#1449);
#1233=AXIS2_PLACEMENT_3D('',#1813,#1450,#1451);
#1234=AXIS2_PLACEMENT_3D('',#1815,#1452,#1453);
#1235=AXIS2_PLACEMENT_3D('',#1817,#1454,#1455);
#1236=AXIS2_PLACEMENT_3D('',#1820,#1458,#1459);
#1237=AXIS2_PLACEMENT_3D('',#1831,#1466,#1467);
#1238=AXIS2_PLACEMENT_3D('',#1834,#1470,#1471);
#1239=AXIS2_PLACEMENT_3D('',#1836,#1473,#1474);
#1240=AXIS2_PLACEMENT_3D('',#1838,#1476,#1477);
#1241=AXIS2_PLACEMENT_3D('',#1839,#1478,#1479);
#1242=AXIS2_PLACEMENT_3D('',#1845,#1483,#1484);
#1243=AXIS2_PLACEMENT_3D('',#1849,#1487,#1488);
#1244=AXIS2_PLACEMENT_3D('',#1853,#1491,#1492);
#1245=AXIS2_PLACEMENT_3D('',#1855,#1494,#1495);
#1246=AXIS2_PLACEMENT_3D('',#1856,#1496,#1497);
#1247=AXIS2_PLACEMENT_3D('',#1858,#1499,#1500);
#1248=AXIS2_PLACEMENT_3D('',#1860,#1502,#1503);
#1249=AXIS2_PLACEMENT_3D('',#1863,#1506,#1507);
#1250=AXIS2_PLACEMENT_3D('',#1865,#1509,#1510);
#1251=AXIS2_PLACEMENT_3D('',#1867,#1512,#1513);
#1252=AXIS2_PLACEMENT_3D('',#1869,#1515,#1516);
#1253=AXIS2_PLACEMENT_3D('',#1871,#1518,#1519);
#1254=AXIS2_PLACEMENT_3D('',#1872,#1520,#1521);
#1255=AXIS2_PLACEMENT_3D('',#1873,#1522,#1523);
#1256=AXIS2_PLACEMENT_3D('',#1875,#1524,#1525);
#1257=AXIS2_PLACEMENT_3D('',#1877,#1526,#1527);
#1258=AXIS2_PLACEMENT_3D('',#1878,#1528,#1529);
#1259=AXIS2_PLACEMENT_3D('',#1879,#1530,#1531);
#1260=AXIS2_PLACEMENT_3D('',#1881,#1533,#1534);
#1261=AXIS2_PLACEMENT_3D('',#1883,#1536,#1537);
#1262=AXIS2_PLACEMENT_3D('',#1884,#1538,#1539);
#1263=AXIS2_PLACEMENT_3D('',#1885,#1540,#1541);
#1264=AXIS2_PLACEMENT_3D('',#1887,#1543,#1544);
#1265=AXIS2_PLACEMENT_3D('',#1890,#1547,#1548);
#1266=AXIS2_PLACEMENT_3D('',#1892,#1550,#1551);
#1267=AXIS2_PLACEMENT_3D('',#1893,#1552,#1553);
#1268=AXIS2_PLACEMENT_3D('',#1895,#1555,#1556);
#1269=AXIS2_PLACEMENT_3D('',#1897,#1558,#1559);
#1270=AXIS2_PLACEMENT_3D('',#1898,#1560,#1561);
#1271=AXIS2_PLACEMENT_3D('',#1901,#1564,#1565);
#1272=AXIS2_PLACEMENT_3D('',#1902,#1566,#1567);
#1273=AXIS2_PLACEMENT_3D('',#1903,#1568,#1569);
#1274=AXIS2_PLACEMENT_3D('',#1904,#1570,#1571);
#1275=AXIS2_PLACEMENT_3D('',#1905,#1572,#1573);
#1276=DIRECTION('',(0.,0.,1.));
#1277=DIRECTION('',(1.,0.,0.));
#1278=DIRECTION('',(0.,1.20081642144322E-15,-1.));
#1279=DIRECTION('',(0.,1.,1.20081642144322E-15));
#1280=DIRECTION('',(5.55581494287906E-17,1.,1.22227928743339E-15));
#1281=DIRECTION('',(0.866025403784438,0.500000000000001,6.11139643716697E-16));
#1282=DIRECTION('',(0.86602540378444,-0.499999999999998,-6.11139643716694E-16));
#1283=DIRECTION('',(1.79344443363233E-15,-1.,-1.22227928743339E-15));
#1284=DIRECTION('',(-0.866025403784438,-0.500000000000001,-6.11139643716698E-16));
#1285=DIRECTION('',(-0.866025403784439,0.5,6.11139643716696E-16));
#1286=DIRECTION('',(1.1924371158521E-33,1.22227928743339E-15,-1.));
#1287=DIRECTION('',(-5.55581494287906E-17,-1.,-1.22227928743339E-15));
#1288=DIRECTION('',(1.1924371158521E-33,1.22227928743339E-15,-1.));
#1289=DIRECTION('',(-5.55581494287906E-17,-1.,-1.22227928743339E-15));
#1290=DIRECTION('',(-0.863570018779226,0.504228938742758,6.16308587949794E-16));
#1291=DIRECTION('',(1.,-2.28684244835658E-16,-2.78323578709119E-31));
#1292=DIRECTION('',(-5.55581494287906E-17,-1.,-1.22227928743339E-15));
#1293=DIRECTION('',(-1.,5.55581494287906E-17,6.6715138179088E-32));
#1294=DIRECTION('',(1.1924371158521E-33,1.22227928743339E-15,-1.));
#1295=DIRECTION('',(-5.55581494287906E-17,-1.,-1.22227928743339E-15));
#1296=DIRECTION('',(-5.55581494287906E-17,-1.,-1.22227928743339E-15));
#1297=DIRECTION('',(1.1924371158521E-33,1.22227928743339E-15,-1.));
#1298=DIRECTION('',(-5.55581494287906E-17,-1.,-1.22227928743339E-15));
#1299=DIRECTION('',(1.,-5.55581494287906E-17,-6.6715138179088E-32));
#1300=DIRECTION('',(0.,-1.,-1.01512563758897E-15));
#1301=DIRECTION('',(1.,0.,0.));
#1302=DIRECTION('',(0.,1.,1.20081642144322E-15));
#1303=DIRECTION('',(-1.,0.,0.));
#1304=DIRECTION('',(0.,-1.,-1.15691080280039E-15));
#1305=DIRECTION('',(1.,1.38074421680748E-14,1.65802032935518E-29));
#1306=DIRECTION('',(0.,1.20081642144322E-15,-1.));
#1307=DIRECTION('',(0.,1.,1.20081642144322E-15));
#1308=DIRECTION('',(0.,1.,1.20081642144322E-15));
#1309=DIRECTION('',(0.,1.20081642144322E-15,-1.));
#1310=DIRECTION('',(0.,1.,1.20081642144322E-15));
#1311=DIRECTION('',(1.,8.10072327605545E-16,9.91327064471067E-31));
#1312=DIRECTION('',(2.21399334894462E-16,-1.,-1.20081642144322E-15));
#1313=DIRECTION('',(-1.,4.82001521527315E-17,5.78795342210618E-32));
#1314=DIRECTION('',(0.86361646258763,0.50414938812581,6.16211354878396E-16));
#1315=DIRECTION('',(-5.55581494287906E-17,-1.,-1.22227928743339E-15));
#1316=DIRECTION('',(-1.,5.55581494287906E-17,6.6715138179088E-32));
#1317=DIRECTION('',(-5.55581494287906E-17,-1.,0.));
#1318=DIRECTION('',(-5.55581494287906E-17,-1.,-1.22227928743339E-15));
#1319=DIRECTION('',(3.50916868123812E-34,-1.194500212719E-15,1.));
#1320=DIRECTION('',(3.50916868123812E-34,-1.194500212719E-15,1.));
#1321=DIRECTION('',(-1.,5.55581494287906E-17,6.6715138179088E-32));
#1322=DIRECTION('',(-5.55581494287906E-17,-1.,0.));
#1323=DIRECTION('',(-5.55581494287906E-17,-1.,-1.22227928743339E-15));
#1324=DIRECTION('',(3.50916868123812E-34,-1.194500212719E-15,1.));
#1325=DIRECTION('',(3.50916868123812E-34,-1.194500212719E-15,1.));
#1326=DIRECTION('',(-1.19243711585211E-33,-1.22227928743339E-15,1.));
#1327=DIRECTION('',(0.,-1.,-1.22227928743339E-15));
#1328=DIRECTION('',(-1.19243711585207E-33,-1.22227928743339E-15,1.));
#1329=DIRECTION('',(0.,1.,1.22227928743339E-15));
#1330=DIRECTION('',(1.,-5.55581494287906E-17,-6.67151381790881E-32));
#1331=DIRECTION('',(-1.19243711585211E-33,-1.22227928743339E-15,1.));
#1332=DIRECTION('',(0.,-1.,-1.22227928743339E-15));
#1333=DIRECTION('',(-1.19243711585211E-33,-1.22227928743339E-15,1.));
#1334=DIRECTION('',(0.,-1.,-1.22227928743339E-15));
#1335=DIRECTION('',(-1.,5.55581494287906E-17,6.6715138179088E-32));
#1336=DIRECTION('',(1.38225602128604E-17,1.,1.22227928743339E-15));
#1337=DIRECTION('',(5.55581494287906E-17,1.,1.194500212719E-15));
#1338=DIRECTION('',(0.,-1.194500212719E-15,1.));
#1339=DIRECTION('',(3.50916868123812E-34,-1.194500212719E-15,1.));
#1340=DIRECTION('',(3.50916868123812E-34,-1.194500212719E-15,1.));
#1341=DIRECTION('',(1.,-5.55581494287906E-17,2.56070141758193E-18));
#1342=DIRECTION('',(3.50916868123809E-34,-1.194500212719E-15,1.));
#1343=DIRECTION('',(2.55734818045676E-18,-6.0355366325461E-5,-0.999999998178615));
#1344=DIRECTION('',(0.,0.999999998178615,-6.0355366325461E-5));
#1345=DIRECTION('',(5.55581493275978E-17,0.999999998178615,-6.0355366325461E-5));
#1346=DIRECTION('',(-1.,2.28684244835658E-16,-2.57115050650974E-18));
#1347=DIRECTION('',(0.,0.999999998178615,-6.0355366325461E-5));
#1348=DIRECTION('',(-1.,4.82001521527315E-17,-2.5602573229601E-18));
#1349=DIRECTION('',(2.21399334491208E-16,-0.999999998178615,6.0355366325461E-5));
#1350=DIRECTION('',(-1.,-8.10072327605545E-16,-2.50845597294288E-18));
#1351=DIRECTION('',(0.,0.999999998178615,-6.0355366325461E-5));
#1352=DIRECTION('',(1.,1.38074421680748E-14,1.72399495352505E-18));
#1353=DIRECTION('',(0.,0.999999998178615,-6.03553663254775E-5));
#1354=DIRECTION('',(1.,-3.21083740724604E-33,2.55734818511468E-18));
#1355=DIRECTION('',(0.,-0.999999998178615,6.0355366325461E-5));
#1356=DIRECTION('',(1.,0.,2.55734818511468E-18));
#1357=DIRECTION('',(0.,0.999999998178615,-6.03553663254567E-5));
#1358=DIRECTION('',(-1.,5.55581494287906E-17,-2.56070141758193E-18));
#1359=DIRECTION('',(0.,0.999999998178615,-6.0355366325461E-5));
#1360=DIRECTION('',(-1.19243711585211E-33,-1.22227928743339E-15,1.));
#1361=DIRECTION('',(0.,-1.,-1.22227928743339E-15));
#1362=DIRECTION('',(5.55581494287906E-17,1.,1.22227928743339E-15));
#1363=DIRECTION('',(-0.866025403784439,0.5,6.11139643716696E-16));
#1364=DIRECTION('',(-0.866025403784438,-0.500000000000001,-6.11139643716698E-16));
#1365=DIRECTION('',(3.64244701669343E-15,-1.,-1.22227928743339E-15));
#1366=DIRECTION('',(0.866025403784442,-0.499999999999994,-6.11139643716689E-16));
#1367=DIRECTION('',(0.866025403784438,0.500000000000001,6.11139643716697E-16));
#1368=DIRECTION('',(1.,-2.28684244835658E-16,-2.78323578709119E-31));
#1369=DIRECTION('',(-0.863570018779226,0.504228938742758,6.16308587949794E-16));
#1370=DIRECTION('',(0.86361646258763,0.50414938812581,6.16211354878396E-16));
#1371=DIRECTION('',(-1.,4.82001521527315E-17,5.77216105115697E-32));
#1372=DIRECTION('',(1.38225602128604E-17,1.,1.22227928743339E-15));
#1373=DIRECTION('',(1.,-1.38225602128604E-17,-1.68619679827067E-32));
#1374=DIRECTION('',(1.38225602128604E-17,1.,0.));
#1375=DIRECTION('',(-3.50916868123809E-34,1.194500212719E-15,-1.));
#1376=DIRECTION('',(1.27394404997479E-34,1.22910387989465E-15,-1.));
#1377=DIRECTION('',(1.,-1.38225602128604E-17,-1.68619679827067E-32));
#1378=DIRECTION('',(1.38225602128604E-17,1.,0.));
#1379=DIRECTION('',(-3.50916868123807E-34,1.194500212719E-15,-1.));
#1380=DIRECTION('',(-1.19243711585211E-33,-1.22227928743339E-15,1.));
#1381=DIRECTION('',(0.,-1.,-1.22227928743339E-15));
#1382=DIRECTION('',(-1.19243711585211E-33,-1.22227928743339E-15,1.));
#1383=DIRECTION('',(0.,-1.,-1.22227928743339E-15));
#1384=DIRECTION('',(1.,8.10072327605545E-16,9.91327064471068E-31));
#1385=DIRECTION('',(-1.52138351086528E-33,-1.22910387989465E-15,1.));
#1386=DIRECTION('',(4.82001521527315E-17,1.,1.22910387989465E-15));
#1387=DIRECTION('',(-5.55581494287906E-17,-1.,0.));
#1388=DIRECTION('',(-1.52138351086528E-33,-1.22910387989465E-15,1.));
#1389=DIRECTION('',(-4.82001521527315E-17,-1.,-1.22910387989465E-15));
#1390=DIRECTION('',(1.,1.38074421680748E-14,1.68367360182102E-29));
#1391=DIRECTION('',(1.38225602128604E-17,1.,1.22227928743339E-15));
#1392=DIRECTION('',(1.,-1.38225602128604E-17,-1.68619679827067E-32));
#1393=DIRECTION('',(1.38225602128604E-17,1.,0.));
#1394=DIRECTION('',(-3.50916868123809E-34,1.194500212719E-15,-1.));
#1395=DIRECTION('',(7.7827385015325E-36,-1.21932442215185E-15,1.));
#1396=DIRECTION('',(-1.,5.55581494287906E-17,6.6715138179088E-32));
#1397=DIRECTION('',(-5.55581494287906E-17,-1.,0.));
#1398=DIRECTION('',(1.52138351086526E-33,1.22910387989465E-15,-1.));
#1399=DIRECTION('',(0.,0.,-1.));
#1400=DIRECTION('',(-1.,0.,0.));
#1401=DIRECTION('',(-1.,0.,0.));
#1402=DIRECTION('',(0.,1.,0.));
#1403=DIRECTION('',(0.,1.,0.));
#1404=DIRECTION('',(-1.,0.,0.));
#1405=DIRECTION('',(0.,0.,1.));
#1406=DIRECTION('',(1.,0.,0.));
#1407=DIRECTION('',(0.,0.,-1.));
#1408=DIRECTION('',(1.,0.,0.));
#1409=DIRECTION('',(0.,0.,-1.));
#1410=DIRECTION('',(1.,0.,0.));
#1411=DIRECTION('',(0.,0.,-1.));
#1412=DIRECTION('',(0.,0.,-1.));
#1413=DIRECTION('',(0.,1.25553392609386E-15,-1.));
#1414=DIRECTION('',(0.,-0.707106781186548,-0.707106781186548));
#1415=DIRECTION('',(0.,-0.707106781186548,0.707106781186548));
#1416=DIRECTION('',(0.,0.707106781186548,0.707106781186547));
#1417=DIRECTION('',(0.,0.707106781186544,-0.707106781186551));
#1418=DIRECTION('',(0.,-0.707106781186547,-0.707106781186548));
#1419=DIRECTION('',(0.,-0.707106781186548,0.707106781186547));
#1420=DIRECTION('',(0.,0.707106781186548,0.707106781186548));
#1421=DIRECTION('',(0.,0.707106781186548,-0.707106781186547));
#1422=DIRECTION('',(0.,0.,-1.));
#1423=DIRECTION('',(-1.,0.,0.));
#1424=DIRECTION('',(0.,1.,6.71026394329742E-14));
#1425=DIRECTION('',(1.,0.,0.));
#1426=DIRECTION('',(0.,1.,1.96503889031226E-14));
#1427=DIRECTION('',(1.,0.,0.));
#1428=DIRECTION('',(0.,0.707106781186548,0.707106781186548));
#1429=DIRECTION('',(0.,-0.707106781186548,0.707106781186548));
#1430=DIRECTION('',(1.,0.,0.));
#1431=DIRECTION('',(0.,-0.707106781186506,0.707106781186589));
#1432=DIRECTION('',(1.,0.,0.));
#1433=DIRECTION('',(0.,-0.707106781186548,0.707106781186548));
#1434=DIRECTION('',(1.,0.,0.));
#1435=DIRECTION('',(1.,0.,0.));
#1436=DIRECTION('',(0.,-0.707106781186548,0.707106781186548));
#1437=DIRECTION('',(0.,-1.33440267382831E-16,1.));
#1438=DIRECTION('',(0.,-1.,-1.33440267382831E-16));
#1439=DIRECTION('',(0.,1.,0.));
#1440=DIRECTION('',(1.,0.,0.));
#1441=DIRECTION('',(0.,-1.,0.));
#1442=DIRECTION('',(1.,0.,0.));
#1443=DIRECTION('',(0.,0.,-1.));
#1444=DIRECTION('',(1.,0.,0.));
#1445=DIRECTION('',(0.,0.,-1.));
#1446=DIRECTION('',(-1.,0.,0.));
#1447=DIRECTION('',(0.,-1.,0.));
#1448=DIRECTION('',(1.,0.,0.));
#1449=DIRECTION('',(0.,0.,-1.));
#1450=DIRECTION('',(1.,0.,0.));
#1451=DIRECTION('',(0.,0.,-1.));
#1452=DIRECTION('',(-1.,0.,0.));
#1453=DIRECTION('',(0.,1.,0.));
#1454=DIRECTION('',(0.,-0.707106781186575,0.70710678118652));
#1455=DIRECTION('',(0.,-0.70710678118652,-0.707106781186575));
#1456=DIRECTION('',(0.,-0.707106781186506,-0.707106781186589));
#1457=DIRECTION('',(0.,0.707106781186534,0.707106781186561));
#1458=DIRECTION('',(0.,-0.707106781186551,-0.707106781186544));
#1459=DIRECTION('',(0.,0.707106781186544,-0.707106781186551));
#1460=DIRECTION('',(1.,0.,0.));
#1461=DIRECTION('',(0.,-0.707106781186581,0.707106781186514));
#1462=DIRECTION('',(0.,0.707106781186548,-0.707106781186547));
#1463=DIRECTION('',(1.,0.,0.));
#1464=DIRECTION('',(1.,0.,0.));
#1465=DIRECTION('',(0.,0.707106781186546,-0.707106781186549));
#1466=DIRECTION('',(0.,0.707106781186561,-0.707106781186534));
#1467=DIRECTION('',(0.,0.707106781186534,0.707106781186561));
#1468=DIRECTION('',(0.,-0.707106781186534,-0.707106781186561));
#1469=DIRECTION('',(0.,-0.70710678118653,-0.707106781186565));
#1470=DIRECTION('',(0.,-0.707106781186547,0.707106781186547));
#1471=DIRECTION('',(0.,-0.707106781186548,-0.707106781186548));
#1472=DIRECTION('',(0.,-0.707106781186548,-0.707106781186548));
#1473=DIRECTION('',(0.,0.707106781186547,-0.707106781186548));
#1474=DIRECTION('',(0.,0.707106781186548,0.707106781186547));
#1475=DIRECTION('',(0.,0.707106781186548,0.707106781186547));
#1476=DIRECTION('',(-1.,0.,0.));
#1477=DIRECTION('',(0.,0.,1.));
#1478=DIRECTION('',(0.,0.707106781186547,0.707106781186548));
#1479=DIRECTION('',(0.,-0.707106781186548,0.707106781186547));
#1480=DIRECTION('',(1.,0.,0.));
#1481=DIRECTION('',(0.,-0.707106781186548,0.707106781186547));
#1482=DIRECTION('',(1.,0.,0.));
#1483=DIRECTION('',(0.,0.707106781186547,-0.707106781186547));
#1484=DIRECTION('',(0.,0.707106781186548,0.707106781186548));
#1485=DIRECTION('',(0.,0.707106781186547,0.707106781186548));
#1486=DIRECTION('',(1.,0.,0.));
#1487=DIRECTION('',(0.,-0.707106781186547,-0.707106781186548));
#1488=DIRECTION('',(0.,0.707106781186548,-0.707106781186547));
#1489=DIRECTION('',(0.,0.707106781186548,-0.707106781186547));
#1490=DIRECTION('',(1.,0.,0.));
#1491=DIRECTION('',(0.,-0.707106781186548,0.707106781186547));
#1492=DIRECTION('',(0.,-0.707106781186547,-0.707106781186548));
#1493=DIRECTION('',(0.,-0.707106781186547,-0.707106781186548));
#1494=DIRECTION('',(-1.,0.,0.));
#1495=DIRECTION('',(0.,0.,1.));
#1496=DIRECTION('',(0.,-1.,-1.25553392609386E-15));
#1497=DIRECTION('',(0.,1.25553392609386E-15,-1.));
#1498=DIRECTION('',(0.,-1.20081642144322E-15,1.));
#1499=DIRECTION('',(0.,1.,0.));
#1500=DIRECTION('',(0.,0.,1.));
#1501=DIRECTION('',(0.,0.,-1.));
#1502=DIRECTION('',(1.,-5.55581494287906E-17,-6.6715138179088E-32));
#1503=DIRECTION('',(5.55581494287906E-17,1.,0.));
#1504=DIRECTION('',(3.50916868123812E-34,-1.194500212719E-15,1.));
#1505=DIRECTION('',(3.50916868123812E-34,-1.194500212719E-15,1.));
#1506=DIRECTION('',(0.5,-0.866025403784438,-1.03446752904057E-15));
#1507=DIRECTION('',(0.866025403784438,0.500000000000001,0.));
#1508=DIRECTION('',(3.50916868123812E-34,-1.194500212719E-15,1.));
#1509=DIRECTION('',(-0.499999999999998,-0.86602540378444,-1.03446752904057E-15));
#1510=DIRECTION('',(0.86602540378444,-0.499999999999998,0.));
#1511=DIRECTION('',(3.50916868123812E-34,-1.194500212719E-15,1.));
#1512=DIRECTION('',(-1.,-1.79344443363233E-15,-2.1419188406054E-30));
#1513=DIRECTION('',(1.79344443363233E-15,-1.,0.));
#1514=DIRECTION('',(3.50916868123812E-34,-1.194500212719E-15,1.));
#1515=DIRECTION('',(-0.500000000000001,0.866025403784438,1.03446752904057E-15));
#1516=DIRECTION('',(-0.866025403784438,-0.500000000000001,0.));
#1517=DIRECTION('',(3.50916868123812E-34,-1.194500212719E-15,1.));
#1518=DIRECTION('',(0.499999999999999,0.866025403784439,1.03446752904057E-15));
#1519=DIRECTION('',(-0.866025403784439,0.5,0.));
#1520=DIRECTION('',(-1.,0.,0.));
#1521=DIRECTION('',(0.,0.,1.));
#1522=DIRECTION('',(1.,0.,0.));
#1523=DIRECTION('',(0.,0.,-1.));
#1524=DIRECTION('',(1.,0.,0.));
#1525=DIRECTION('',(0.,0.,-1.));
#1526=DIRECTION('',(3.50916868123812E-34,-1.194500212719E-15,1.));
#1527=DIRECTION('',(0.,-1.,-1.194500212719E-15));
#1528=DIRECTION('',(3.50916868123812E-34,-1.194500212719E-15,1.));
#1529=DIRECTION('',(0.,-1.,-1.194500212719E-15));
#1530=DIRECTION('',(-1.,0.,0.));
#1531=DIRECTION('',(0.,0.,1.));
#1532=DIRECTION('',(9.84575227277954E-34,1.21932442215185E-15,-1.));
#1533=DIRECTION('',(1.,0.,0.));
#1534=DIRECTION('',(0.,0.,-1.));
#1535=DIRECTION('',(3.50916868123812E-34,-1.194500212719E-15,1.));
#1536=DIRECTION('',(1.,0.,0.));
#1537=DIRECTION('',(0.,0.,-1.));
#1538=DIRECTION('',(1.,0.,0.));
#1539=DIRECTION('',(0.,0.,-1.));
#1540=DIRECTION('',(-1.38074421680748E-14,1.,1.21932442215185E-15));
#1541=DIRECTION('',(-1.,-1.38074421680748E-14,0.));
#1542=DIRECTION('',(1.52138351086526E-33,1.22910387989465E-15,-1.));
#1543=DIRECTION('',(1.,2.21399334894462E-16,2.73644165035744E-31));
#1544=DIRECTION('',(-2.21399334894462E-16,1.,0.));
#1545=DIRECTION('',(1.52138351086526E-33,1.22910387989465E-15,-1.));
#1546=DIRECTION('',(3.50916868123812E-34,-1.194500212719E-15,1.));
#1547=DIRECTION('',(-4.82001521527315E-17,-1.,-1.22910387989465E-15));
#1548=DIRECTION('',(0.,1.22910387989465E-15,-1.));
#1549=DIRECTION('',(3.50916868123812E-34,-1.194500212719E-15,1.));
#1550=DIRECTION('',(1.52138351086526E-33,1.22910387989465E-15,-1.));
#1551=DIRECTION('',(0.,1.,1.22910387989465E-15));
#1552=DIRECTION('',(1.52138351086526E-33,1.22910387989465E-15,-1.));
#1553=DIRECTION('',(0.,1.,1.22910387989465E-15));
#1554=DIRECTION('',(1.52138351086526E-33,1.22910387989465E-15,-1.));
#1555=DIRECTION('',(-5.55581494287906E-17,-1.,-1.194500212719E-15));
#1556=DIRECTION('',(0.,1.194500212719E-15,-1.));
#1557=DIRECTION('',(3.50916868123812E-34,-1.194500212719E-15,1.));
#1558=DIRECTION('',(8.10072327605545E-16,-1.,-1.194500212719E-15));
#1559=DIRECTION('',(0.,1.194500212719E-15,-1.));
#1560=DIRECTION('',(-2.28684244835658E-16,-1.,-1.194500212719E-15));
#1561=DIRECTION('',(0.,1.194500212719E-15,-1.));
#1562=DIRECTION('',(3.50916868123812E-34,-1.194500212719E-15,1.));
#1563=DIRECTION('',(3.50916868123812E-34,-1.194500212719E-15,1.));
#1564=DIRECTION('',(-1.,5.55581494287906E-17,6.67151381790881E-32));
#1565=DIRECTION('',(-5.55581494287906E-17,-1.,0.));
#1566=DIRECTION('',(3.50916868123812E-34,-1.194500212719E-15,1.));
#1567=DIRECTION('',(0.,-1.,-1.194500212719E-15));
#1568=DIRECTION('',(3.50916868123812E-34,-1.194500212719E-15,1.));
#1569=DIRECTION('',(0.,-1.,-1.194500212719E-15));
#1570=DIRECTION('',(0.50414938812581,-0.86361646258763,-1.03159004826855E-15));
#1571=DIRECTION('',(0.86361646258763,0.50414938812581,0.));
#1572=DIRECTION('',(0.504228938742758,0.863570018779225,1.03153457112953E-15));
#1573=DIRECTION('',(-0.863570018779226,0.504228938742758,0.));
#1574=CARTESIAN_POINT('',(0.,0.,0.));
#1575=CARTESIAN_POINT('',(0.,-78.5199853993082,19.0524144090197));
#1576=CARTESIAN_POINT('',(-13.02,-7.05064725344803,19.0524144090198));
#1577=CARTESIAN_POINT('',(-13.02,-7.05064725344803,19.0524144090198));
#1578=CARTESIAN_POINT('',(-13.02,0.454906246017107,19.0524144090198));
#1579=CARTESIAN_POINT('',(-19.5199999999999,-10.8034240031806,19.0524144090198));
#1580=CARTESIAN_POINT('',(-19.5199999999999,-10.8034240031806,19.0524144090198));
#1581=CARTESIAN_POINT('',(-26.02,-7.05064725344804,19.0524144090198));
#1582=CARTESIAN_POINT('',(-26.02,-7.05064725344804,19.0524144090198));
#1583=CARTESIAN_POINT('',(-26.02,0.454906246017095,19.0524144090198));
#1584=CARTESIAN_POINT('',(-26.02,0.454906246017096,19.0524144090198));
#1585=CARTESIAN_POINT('',(-19.52,4.20768299574967,19.0524144090198));
#1586=CARTESIAN_POINT('',(-19.52,4.20768299574967,19.0524144090198));
#1587=CARTESIAN_POINT('',(-13.02,0.454906246017107,19.0524144090198));
#1588=CARTESIAN_POINT('',(-19.52,-29.2878705037155,19.0524144090197));
#1589=CARTESIAN_POINT('',(-19.52,-35.3378705037155,19.0524144090197));
#1590=CARTESIAN_POINT('',(-19.52,22.6921294962845,19.0524144090198));
#1591=CARTESIAN_POINT('',(-19.52,16.6421294962845,19.0524144090198));
#1592=CARTESIAN_POINT('',(-24.02,-13.8078705037155,19.0524144090198));
#1593=CARTESIAN_POINT('',(-24.02,-13.8078705037155,19.0524144090198));
#1594=CARTESIAN_POINT('',(-28.52,-11.1803705037155,19.0524144090198));
#1595=CARTESIAN_POINT('',(-19.52,-13.8078705037155,19.0524144090198));
#1596=CARTESIAN_POINT('',(-9.49999999999999,-13.8078705037155,19.0524144090198));
#1597=CARTESIAN_POINT('',(-9.49999999999999,-20.2378705037155,19.0524144090198));
#1598=CARTESIAN_POINT('',(-9.49999999999999,-20.2378705037155,19.0524144090198));
#1599=CARTESIAN_POINT('',(-28.52,-20.2378705037155,19.0524144090198));
#1600=CARTESIAN_POINT('',(-19.52,-20.2378705037155,19.0524144090198));
#1601=CARTESIAN_POINT('',(-19.52,-29.2878705037155,19.0524144090197));
#1602=CARTESIAN_POINT('',(-28.52,-28.3378705037157,19.0524144090197));
#1603=CARTESIAN_POINT('',(-28.52,-13.6901753491287,19.0524144090198));
#1604=CARTESIAN_POINT('',(-28.52,-30.2378705037153,19.0524144090197));
#1605=CARTESIAN_POINT('',(-19.52,-29.2878705037155,19.0524144090197));
#1606=CARTESIAN_POINT('',(-20.4566928851982,-38.289265197807,19.0524144090197));
#1607=CARTESIAN_POINT('',(-19.52,-38.289265197807,19.0524144090197));
#1608=CARTESIAN_POINT('',(-9.5,-38.289265197807,19.0524144090197));
#1609=CARTESIAN_POINT('',(-9.5,-64.2121294962846,19.0524144090197));
#1610=CARTESIAN_POINT('',(-9.5,-64.2121294962846,19.0524144090197));
#1611=CARTESIAN_POINT('',(0.,-64.2121294962846,19.0524144090197));
#1612=CARTESIAN_POINT('',(0.,-64.2121294962846,19.0524144090197));
#1613=CARTESIAN_POINT('',(0.,-78.5199853993082,19.0524144090197));
#1614=CARTESIAN_POINT('',(0.,60.6821294962845,19.0524144090198));
#1615=CARTESIAN_POINT('',(-10.,60.6821294962845,19.0524144090198));
#1616=CARTESIAN_POINT('',(-9.5,60.6821294962845,19.0524144090198));
#1617=CARTESIAN_POINT('',(-9.5,33.6921294962845,19.0524144090198));
#1618=CARTESIAN_POINT('',(-9.5,31.6921294962845,19.0524144090198));
#1619=CARTESIAN_POINT('',(-1.52174740264211E-12,31.6921294962847,19.0524144090198));
#1620=CARTESIAN_POINT('',(-19.5450000000608,31.6921294962844,19.0524144090198));
#1621=CARTESIAN_POINT('',(-19.52,22.6921294962845,19.0524144090198));
#1622=CARTESIAN_POINT('',(-28.52,22.7171294962869,19.0524144090198));
#1623=CARTESIAN_POINT('',(-28.52,-78.5199853993082,19.0524144090197));
#1624=CARTESIAN_POINT('',(-28.52,22.6671294962824,19.0524144090198));
#1625=CARTESIAN_POINT('',(-19.52,22.6921294962845,19.0524144090198));
#1626=CARTESIAN_POINT('',(-19.52,13.6920947741293,19.0524144090198));
#1627=CARTESIAN_POINT('',(-19.52,13.6920947741293,19.0524144090198));
#1628=CARTESIAN_POINT('',(-9.5,13.6920947741293,19.0524144090198));
#1629=CARTESIAN_POINT('',(-9.49999999999998,-78.5199853993082,19.0524144090197));
#1630=CARTESIAN_POINT('',(-9.5,7.20768299574967,19.0524144090198));
#1631=CARTESIAN_POINT('',(4.1320866603407E-15,7.20768299574967,19.0524144090198));
#1632=CARTESIAN_POINT('',(-24.02,7.20768299574967,19.0524144090198));
#1633=CARTESIAN_POINT('',(-28.52,4.58073880831653,19.0524144090198));
#1634=CARTESIAN_POINT('',(-28.52,4.58073880831653,19.0524144090198));
#1635=CARTESIAN_POINT('',(-28.52,-13.6901753491287,19.0524144090198));
#1636=CARTESIAN_POINT('',(-28.52,-13.6901753491287,-4.06150635354811));
#1637=CARTESIAN_POINT('',(-28.52,-3.29787050371543,-4.0615063535481));
#1638=CARTESIAN_POINT('',(-28.52,4.58073880831656,-4.06150635354809));
#1639=CARTESIAN_POINT('',(-28.52,-11.1803705037154,-4.06150635354811));
#1640=CARTESIAN_POINT('',(-28.52,-11.1803705037154,-45.4729022377911));
#1641=CARTESIAN_POINT('',(-28.52,4.5807388083166,-45.4729022377911));
#1642=CARTESIAN_POINT('',(-28.52,-13.6901753491287,-4.06150635354811));
#1643=CARTESIAN_POINT('',(-28.52,-3.29787050371543,-4.0615063535481));
#1644=CARTESIAN_POINT('',(-28.52,-28.3378705037156,-4.06150635354816));
#1645=CARTESIAN_POINT('',(-28.52,-30.2378705037152,-4.06150635354814));
#1646=CARTESIAN_POINT('',(-28.52,-30.2378705037152,-42.4002917185693));
#1647=CARTESIAN_POINT('',(-28.52,-28.3378705037156,-42.4002917185693));
#1648=CARTESIAN_POINT('',(-3.0829870771973E-32,4.32221175991498E-15,-4.0615063535481));
#1649=CARTESIAN_POINT('',(-19.52,-29.2878705037154,-4.06150635354813));
#1650=CARTESIAN_POINT('',(-19.52,-23.2378705037154,-4.06150635354813));
#1651=CARTESIAN_POINT('',(-2.12728071737835E-15,-38.289265197807,-4.06150635354814));
#1652=CARTESIAN_POINT('',(-20.4566928851982,-38.289265197807,-4.06150635354816));
#1653=CARTESIAN_POINT('',(-10.,-38.289265197807,-4.06150635354815));
#1654=CARTESIAN_POINT('',(-19.52,-29.2878705037154,-4.06150635354813));
#1655=CARTESIAN_POINT('',(-19.52,-29.2878705037154,-4.06150635354813));
#1656=CARTESIAN_POINT('',(-19.52,-20.2378705037154,-4.06150635354812));
#1657=CARTESIAN_POINT('',(-1.12437863356594E-15,-20.2378705037154,-4.06150635354812));
#1658=CARTESIAN_POINT('',(-10.,-20.2378705037154,-4.06150635354814));
#1659=CARTESIAN_POINT('',(-10.,-13.6901753491287,-4.06150635354811));
#1660=CARTESIAN_POINT('',(-28.52,-20.2378705037154,-52.7801090919532));
#1661=CARTESIAN_POINT('',(-19.52,-20.2378705037154,-42.4002917185693));
#1662=CARTESIAN_POINT('',(-9.49999999999999,-20.2378705037154,-52.7801090919532));
#1663=CARTESIAN_POINT('',(-9.49999999999999,-20.2378705037154,-4.05662239729607));
#1664=CARTESIAN_POINT('',(-29.1421356382661,-20.2378705037154,-4.05662239729607));
#1665=CARTESIAN_POINT('',(-10.,-20.2378705037154,-4.05662239729607));
#1666=CARTESIAN_POINT('',(-10.,-20.2378705037154,-4.06150635354812));
#1667=CARTESIAN_POINT('',(-29.1421356382661,46.4088443800984,-4.0606448841946));
#1668=CARTESIAN_POINT('',(-9.49999999999999,46.4088443800984,-4.0606448841946));
#1669=CARTESIAN_POINT('',(-9.49999999999999,-13.8078705037155,-4.05701048230226));
#1670=CARTESIAN_POINT('',(-29.1421356382661,-13.8078705037154,-4.05701048230225));
#1671=CARTESIAN_POINT('',(-10.,-13.8078705037154,-4.05701048230225));
#1672=CARTESIAN_POINT('',(-10.,-0.000244912652299407,-4.0578438466044));
#1673=CARTESIAN_POINT('',(-10.,7.2076829957497,-4.05827888373455));
#1674=CARTESIAN_POINT('',(-29.1421356382661,7.2076829957497,-4.05827888373455));
#1675=CARTESIAN_POINT('',(-9.5,7.2076829957497,-4.05827888373455));
#1676=CARTESIAN_POINT('',(-9.50000000000001,46.4088443800984,-4.0606448841946));
#1677=CARTESIAN_POINT('',(-9.5,13.6920947741293,-4.05866874494723));
#1678=CARTESIAN_POINT('',(-29.1421356382661,13.6920947741293,-4.05867025278356));
#1679=CARTESIAN_POINT('',(-10.,13.6920947741293,-4.0586672371109));
#1680=CARTESIAN_POINT('',(-10.,-0.000244912652299407,-4.0578438466044));
#1681=CARTESIAN_POINT('',(-10.,31.6921294962845,-4.05975665147506));
#1682=CARTESIAN_POINT('',(-29.1421356382659,31.6921294962843,-4.05975665147506));
#1683=CARTESIAN_POINT('',(-9.5,31.6921294962845,-4.05975665147505));
#1684=CARTESIAN_POINT('',(-9.5,33.6921294962846,-4.05987736220793));
#1685=CARTESIAN_POINT('',(-9.5,60.6821294962846,-4.06150635354802));
#1686=CARTESIAN_POINT('',(-30.1949296449258,60.6821294962846,-4.06150635354802));
#1687=CARTESIAN_POINT('',(0.,60.6821294962846,-4.06150635354802));
#1688=CARTESIAN_POINT('',(0.,46.4088443800984,-4.0606448841946));
#1689=CARTESIAN_POINT('',(0.,-60.6821294962846,-4.05418136922437));
#1690=CARTESIAN_POINT('',(-29.1421356382661,-60.6821294962846,-4.05418136922437));
#1691=CARTESIAN_POINT('',(-9.5,-60.6821294962846,-4.05418136922437));
#1692=CARTESIAN_POINT('',(-9.5,-60.6821294962846,-4.05418136922437));
#1693=CARTESIAN_POINT('',(-9.5,-38.2892651978069,-4.05553289875464));
#1694=CARTESIAN_POINT('',(-29.1421356382661,-38.289265197807,-4.05553289875464));
#1695=CARTESIAN_POINT('',(-10.,-38.289265197807,-4.05553289875464));
#1696=CARTESIAN_POINT('',(-10.,-0.000244912652299407,-4.0578438466044));
#1697=CARTESIAN_POINT('',(-3.0829870771973E-32,4.32221175991498E-15,-4.0615063535481));
#1698=CARTESIAN_POINT('',(-13.02,-7.050647253448,-4.06150635354811));
#1699=CARTESIAN_POINT('',(-13.02,-7.050647253448,-4.06150635354811));
#1700=CARTESIAN_POINT('',(-13.02,0.454906246017135,-4.0615063535481));
#1701=CARTESIAN_POINT('',(-13.02,0.454906246017135,-4.0615063535481));
#1702=CARTESIAN_POINT('',(-19.52,4.2076829957497,-4.06150635354809));
#1703=CARTESIAN_POINT('',(-19.52,4.2076829957497,-4.06150635354809));
#1704=CARTESIAN_POINT('',(-26.02,0.454906246017124,-4.0615063535481));
#1705=CARTESIAN_POINT('',(-26.02,-3.29787050371543,-4.0615063535481));
#1706=CARTESIAN_POINT('',(-26.02,-7.05064725344801,-4.06150635354811));
#1707=CARTESIAN_POINT('',(-22.77,-8.92703562831429,-4.06150635354811));
#1708=CARTESIAN_POINT('',(-19.5199999999999,-10.8034240031806,-4.06150635354811));
#1709=CARTESIAN_POINT('',(-19.5199999999999,-10.8034240031806,-4.06150635354811));
#1710=CARTESIAN_POINT('',(-3.15764243893072E-15,-13.8078705037154,-4.06150635354811));
#1711=CARTESIAN_POINT('',(-24.02,-13.8078705037154,-4.06150635354811));
#1712=CARTESIAN_POINT('',(-10.,-13.8078705037154,-4.06150635354814));
#1713=CARTESIAN_POINT('',(-12.1194663074765,-20.7564598986277,-4.06150635354812));
#1714=CARTESIAN_POINT('',(-9.24324729848085,15.8338395776147,-4.06150635354808));
#1715=CARTESIAN_POINT('',(-24.02,7.2076829957497,-4.06150635354809));
#1716=CARTESIAN_POINT('',(-19.52,7.2076829957497,-4.06150635354809));
#1717=CARTESIAN_POINT('',(-10.,7.2076829957497,-4.06150635354809));
#1718=CARTESIAN_POINT('',(-10.,-13.6901753491287,-4.06150635354811));
#1719=CARTESIAN_POINT('',(-10.,-13.6901753491287,-4.06150635354811));
#1720=CARTESIAN_POINT('',(-10.,-13.8078705037154,-4.06150635354811));
#1721=CARTESIAN_POINT('',(-10.,7.2076829957497,-4.06150635354809));
#1722=CARTESIAN_POINT('',(-10.,-13.6901753491287,-4.06150635354811));
#1723=CARTESIAN_POINT('',(-10.,-38.289265197807,-4.06150635354814));
#1724=CARTESIAN_POINT('',(-3.0829870771973E-32,4.32221175991498E-15,-4.0615063535481));
#1725=CARTESIAN_POINT('',(-19.52,22.6921294962846,-4.06150635354807));
#1726=CARTESIAN_POINT('',(-19.52,16.6421294962846,-4.06150635354808));
#1727=CARTESIAN_POINT('',(-1.10915870834747E-14,13.6920947741293,-4.06150635354808));
#1728=CARTESIAN_POINT('',(-19.52,13.6920947741293,-4.06150635354809));
#1729=CARTESIAN_POINT('',(-10.,13.6920947741293,-4.06150635354808));
#1730=CARTESIAN_POINT('',(-19.52,22.6921294962846,-4.06150635354807));
#1731=CARTESIAN_POINT('',(-28.52,22.6671294962822,-4.06150635354807));
#1732=CARTESIAN_POINT('',(-28.52,-13.6901753491287,-4.06150635354807));
#1733=CARTESIAN_POINT('',(-28.52,22.7171294962869,-4.06150635354807));
#1734=CARTESIAN_POINT('',(-19.52,22.6921294962846,-4.06150635354807));
#1735=CARTESIAN_POINT('',(-19.5450000000619,31.6921294962844,-4.06150635354806));
#1736=CARTESIAN_POINT('',(-10.,31.6921294962845,-4.06150635354806));
#1737=CARTESIAN_POINT('',(-10.,31.6921294962845,-4.06150635354806));
#1738=CARTESIAN_POINT('',(-10.,-13.6901753491287,-4.06150635354811));
#1739=CARTESIAN_POINT('',(-10.,-13.6901753491287,-4.06150635354811));
#1740=CARTESIAN_POINT('',(-10.,13.6920947741293,-4.06150635354808));
#1741=CARTESIAN_POINT('',(-10.,31.6921294962845,-4.06150635354806));
#1742=CARTESIAN_POINT('',(-28.52,-13.6901753491287,-4.06150635354811));
#1743=CARTESIAN_POINT('',(-28.52,22.6671294962821,52.2668377200378));
#1744=CARTESIAN_POINT('',(-28.52,22.7171294962869,19.0524144090198));
#1745=CARTESIAN_POINT('',(-28.52,22.7171294962869,11.3477741548305));
#1746=CARTESIAN_POINT('',(-28.52,22.7171294962869,3.64313390064124));
#1747=CARTESIAN_POINT('',(-28.52,22.7171294962869,-4.06150635354806));
#1748=CARTESIAN_POINT('',(-10.,-64.2121294962846,-4.05418136922437));
#1749=CARTESIAN_POINT('',(-10.,-64.2121294962846,-4.05418136922437));
#1750=CARTESIAN_POINT('',(0.,-64.2121294962846,-4.05418136922437));
#1751=CARTESIAN_POINT('',(-9.5,-64.2121294962846,-4.05418136922437));
#1752=CARTESIAN_POINT('',(-9.5,-64.2121294962846,-4.05418136922437));
#1753=CARTESIAN_POINT('',(0.,-64.2121294962846,-4.05418136922437));
#1754=CARTESIAN_POINT('',(-7.,48.62,7.5));
#1755=CARTESIAN_POINT('',(-9.5,48.62,7.5));
#1756=CARTESIAN_POINT('',(-9.5,48.62,3.99999999999999));
#1757=CARTESIAN_POINT('',(-6.5,48.62,7.5));
#1758=CARTESIAN_POINT('',(-6.5,48.62,3.99999999999999));
#1759=CARTESIAN_POINT('',(0.,0.,0.));
#1760=CARTESIAN_POINT('',(0.,-64.2121294962846,19.0524144090197));
#1761=CARTESIAN_POINT('',(0.,60.6821294962846,2.47247078576365));
#1762=CARTESIAN_POINT('',(0.,-43.5924707857636,17.5621294962846));
#1763=CARTESIAN_POINT('',(0.,-43.5924707857636,17.5621294962846));
#1764=CARTESIAN_POINT('',(0.,-58.6821294962846,2.47247078576364));
#1765=CARTESIAN_POINT('',(0.,-41.0751706447395,15.0448293552605));
#1766=CARTESIAN_POINT('',(0.,-38.5578705037154,12.5275292142363));
#1767=CARTESIAN_POINT('',(0.,-38.5578705037154,12.5275292142363));
#1768=CARTESIAN_POINT('',(0.,-53.6475292142364,-2.56212949628458));
#1769=CARTESIAN_POINT('',(0.,-56.1648293552605,-0.0448293552604727));
#1770=CARTESIAN_POINT('',(0.,56.1648293552605,-0.0448293552604631));
#1771=CARTESIAN_POINT('',(0.,58.6821294962846,2.47247078576365));
#1772=CARTESIAN_POINT('',(0.,53.6475292142363,-2.56212949628457));
#1773=CARTESIAN_POINT('',(0.,43.5853997179518,7.5));
#1774=CARTESIAN_POINT('',(0.,38.5578705037154,12.5275292142363));
#1775=CARTESIAN_POINT('',(0.,41.0751706447395,15.0448293552605));
#1776=CARTESIAN_POINT('',(0.,43.5924707857636,17.5621294962846));
#1777=CARTESIAN_POINT('',(0.,58.6821294962846,2.47247078576365));
#1778=CARTESIAN_POINT('',(-10.,0.,0.));
#1779=CARTESIAN_POINT('',(-9.5,-56.2096587105209,-6.88369786210046E-15));
#1780=CARTESIAN_POINT('',(-9.5,-56.2096587105209,-6.88369786210046E-15));
#1781=CARTESIAN_POINT('',(-9.5,-56.12,-8.67361737988404E-16));
#1782=CARTESIAN_POINT('',(-10.,-56.12,-8.67361737988404E-16));
#1783=CARTESIAN_POINT('',(-4.,-56.12,-8.67361737988404E-16));
#1784=CARTESIAN_POINT('',(-4.,-56.2096587105209,-2.19550939928315E-15));
#1785=CARTESIAN_POINT('',(-4.,-56.2096587105209,-2.19550939928315E-15));
#1786=CARTESIAN_POINT('',(-10.,-56.2096587105209,-2.19212126749413E-15));
#1787=CARTESIAN_POINT('',(-10.,-41.0751706447395,15.0448293552605));
#1788=CARTESIAN_POINT('',(-10.,-41.0751706447395,15.0448293552605));
#1789=CARTESIAN_POINT('',(-9.5,-41.0751706447395,15.0448293552605));
#1790=CARTESIAN_POINT('',(-4.,-41.0751706447395,15.0448293552605));
#1791=CARTESIAN_POINT('',(-9.5,-41.0303412894791,15.));
#1792=CARTESIAN_POINT('',(-9.5,-41.0303412894791,15.));
#1793=CARTESIAN_POINT('',(-10.,-41.0303412894791,15.));
#1794=CARTESIAN_POINT('',(-4.,-41.0303412894791,15.));
#1795=CARTESIAN_POINT('',(-4.,-41.0303412894791,15.));
#1796=CARTESIAN_POINT('',(-4.,-38.5578705037154,12.5275292142363));
#1797=CARTESIAN_POINT('',(-4.,-38.5578705037154,12.5275292142363));
#1798=CARTESIAN_POINT('',(-4.,-43.5924707857636,17.5621294962846));
#1799=CARTESIAN_POINT('',(-4.,-43.5924707857636,17.5621294962846));
#1800=CARTESIAN_POINT('',(-4.,-41.0751706447395,15.0448293552605));
#1801=CARTESIAN_POINT('',(-10.,-1.38777878078145E-14,15.));
#1802=CARTESIAN_POINT('',(-9.5,-41.0303412894791,15.));
#1803=CARTESIAN_POINT('',(-9.5,-41.12,15.));
#1804=CARTESIAN_POINT('',(-10.,-41.12,15.));
#1805=CARTESIAN_POINT('',(-4.,-41.12,15.));
#1806=CARTESIAN_POINT('',(-4.,-41.0303412894791,15.));
#1807=CARTESIAN_POINT('',(-10.,-48.62,7.49999999999999));
#1808=CARTESIAN_POINT('',(-6.5,-48.62,7.49999999999999));
#1809=CARTESIAN_POINT('',(-6.5,-48.62,5.49999999999999));
#1810=CARTESIAN_POINT('',(-4.,-48.62,7.49999999999999));
#1811=CARTESIAN_POINT('',(-4.,-50.62,7.49999999999999));
#1812=CARTESIAN_POINT('',(-10.,48.62,7.5));
#1813=CARTESIAN_POINT('',(-6.5,48.62,7.5));
#1814=CARTESIAN_POINT('',(-6.5,48.62,5.49999999999999));
#1815=CARTESIAN_POINT('',(-4.,48.62,7.5));
#1816=CARTESIAN_POINT('',(-4.,50.62,7.5));
#1817=CARTESIAN_POINT('',(-10.,-41.12,15.));
#1818=CARTESIAN_POINT('',(-9.5,-41.0751706447395,15.0448293552605));
#1819=CARTESIAN_POINT('',(-4.,-41.12,15.));
#1820=CARTESIAN_POINT('',(-10.,-56.1648293552605,-0.0448293552604727));
#1821=CARTESIAN_POINT('',(-10.,-56.1648293552605,-0.0448293552604727));
#1822=CARTESIAN_POINT('',(-9.5,-56.1648293552605,-0.0448293552604727));
#1823=CARTESIAN_POINT('',(-4.,-56.1648293552605,-0.0448293552604727));
#1824=CARTESIAN_POINT('',(-9.5,-56.2096587105209,-6.88369786210046E-15));
#1825=CARTESIAN_POINT('',(-4.,-56.2096587105209,-2.19550939928315E-15));
#1826=CARTESIAN_POINT('',(-4.,-58.6821294962846,2.47247078576364));
#1827=CARTESIAN_POINT('',(-4.,-58.6821294962846,2.47247078576364));
#1828=CARTESIAN_POINT('',(-4.,-53.6475292142364,-2.56212949628458));
#1829=CARTESIAN_POINT('',(-4.,-53.6475292142364,-2.56212949628458));
#1830=CARTESIAN_POINT('',(-4.,-56.1648293552605,-0.0448293552604727));
#1831=CARTESIAN_POINT('',(-10.,-56.12,-8.67361737988404E-16));
#1832=CARTESIAN_POINT('',(-9.5,-56.1648293552605,-0.0448293552604727));
#1833=CARTESIAN_POINT('',(-4.,-56.12,-4.33680868994185E-16));
#1834=CARTESIAN_POINT('',(-4.,-43.5924707857636,17.5621294962846));
#1835=CARTESIAN_POINT('',(-4.,-43.5924707857636,17.5621294962846));
#1836=CARTESIAN_POINT('',(-4.,-38.5578705037154,12.5275292142363));
#1837=CARTESIAN_POINT('',(-4.,-43.5853997179518,7.49999999999999));
#1838=CARTESIAN_POINT('',(-4.,0.,0.));
#1839=CARTESIAN_POINT('',(-4.,43.5853997179518,7.5));
#1840=CARTESIAN_POINT('',(-4.,53.6475292142363,-2.56212949628457));
#1841=CARTESIAN_POINT('',(-4.,53.6475292142363,-2.56212949628457));
#1842=CARTESIAN_POINT('',(-4.,53.6475292142363,-2.56212949628457));
#1843=CARTESIAN_POINT('',(-4.,38.5578705037154,12.5275292142363));
#1844=CARTESIAN_POINT('',(-4.,38.5578705037154,12.5275292142363));
#1845=CARTESIAN_POINT('',(-4.,41.0751706447395,15.0448293552605));
#1846=CARTESIAN_POINT('',(-4.,41.0751706447395,15.0448293552605));
#1847=CARTESIAN_POINT('',(-4.,43.5924707857636,17.5621294962846));
#1848=CARTESIAN_POINT('',(-4.,43.5924707857636,17.5621294962846));
#1849=CARTESIAN_POINT('',(-4.,58.6821294962846,2.47247078576365));
#1850=CARTESIAN_POINT('',(-4.,58.6821294962846,2.47247078576365));
#1851=CARTESIAN_POINT('',(-4.,58.6821294962846,2.47247078576365));
#1852=CARTESIAN_POINT('',(-4.,58.6821294962846,2.47247078576365));
#1853=CARTESIAN_POINT('',(-4.,56.1648293552605,-0.0448293552604631));
#1854=CARTESIAN_POINT('',(-4.,56.1648293552605,-0.0448293552604631));
#1855=CARTESIAN_POINT('',(-4.,0.,0.));
#1856=CARTESIAN_POINT('',(-30.1949296449258,60.6821294962846,2.47247078576365));
#1857=CARTESIAN_POINT('',(-9.5,60.6821294962845,19.0524144090198));
#1858=CARTESIAN_POINT('',(0.,-64.2121294962846,0.));
#1859=CARTESIAN_POINT('',(-9.5,-64.2121294962846,-4.05418136922437));
#1860=CARTESIAN_POINT('',(-13.02,-7.050647253448,-4.06150635354811));
#1861=CARTESIAN_POINT('',(-13.02,0.454906246017135,-4.0615063535481));
#1862=CARTESIAN_POINT('',(-13.02,-7.050647253448,-4.06150635354811));
#1863=CARTESIAN_POINT('',(-19.5199999999999,-10.8034240031806,-4.06150635354811));
#1864=CARTESIAN_POINT('',(-19.5199999999999,-10.8034240031806,-4.06150635354811));
#1865=CARTESIAN_POINT('',(-26.02,-7.05064725344801,-4.06150635354811));
#1866=CARTESIAN_POINT('',(-26.02,-7.05064725344801,-4.06150635354811));
#1867=CARTESIAN_POINT('',(-26.02,0.454906246017123,-4.0615063535481));
#1868=CARTESIAN_POINT('',(-26.02,0.454906246017124,-4.0615063535481));
#1869=CARTESIAN_POINT('',(-19.52,4.2076829957497,-4.06150635354809));
#1870=CARTESIAN_POINT('',(-19.52,4.2076829957497,-4.06150635354809));
#1871=CARTESIAN_POINT('',(-13.02,0.454906246017135,-4.0615063535481));
#1872=CARTESIAN_POINT('',(-7.,-48.62,7.49999999999999));
#1873=CARTESIAN_POINT('',(-9.5,-48.62,7.49999999999999));
#1874=CARTESIAN_POINT('',(-9.5,-48.62,3.99999999999999));
#1875=CARTESIAN_POINT('',(-6.5,-48.62,7.49999999999999));
#1876=CARTESIAN_POINT('',(-6.5,-48.62,3.99999999999999));
#1877=CARTESIAN_POINT('',(-19.52,-29.2878705037154,-61.4509758209768));
#1878=CARTESIAN_POINT('',(-19.52,22.6921294962846,-61.4509758209767));
#1879=CARTESIAN_POINT('',(-9.5,0.,0.));
#1880=CARTESIAN_POINT('',(-9.5,31.6921294962845,25.142436225333));
#1881=CARTESIAN_POINT('',(-9.5,0.,0.));
#1882=CARTESIAN_POINT('',(-9.5,-38.289265197807,-11.4124796741454));
#1883=CARTESIAN_POINT('',(-6.5,-48.62,7.49999999999999));
#1884=CARTESIAN_POINT('',(-6.5,48.62,7.5));
#1885=CARTESIAN_POINT('',(-10.,31.6921294962845,25.142436225333));
#1886=CARTESIAN_POINT('',(-19.5450000000619,31.6921294962843,36.2501485548937));
#1887=CARTESIAN_POINT('',(-9.5,13.6421294962845,41.5714848092018));
#1888=CARTESIAN_POINT('',(-9.5,7.20768299574964,41.5714848092018));
#1889=CARTESIAN_POINT('',(-9.5,13.6920947741294,-81.10842446334));
#1890=CARTESIAN_POINT('',(-19.52,7.20768299574964,41.5714848092018));
#1891=CARTESIAN_POINT('',(-24.02,7.20768299574975,-45.4729022377911));
#1892=CARTESIAN_POINT('',(-19.52,22.6921294962845,36.2501485548937));
#1893=CARTESIAN_POINT('',(-19.52,22.6921294962845,52.2668377200378));
#1894=CARTESIAN_POINT('',(-19.52,13.6920947741293,52.2668377200378));
#1895=CARTESIAN_POINT('',(-19.52,-38.289265197807,-11.4124796741454));
#1896=CARTESIAN_POINT('',(-20.4566928851982,-38.2892651978069,-42.4002917185694));
#1897=CARTESIAN_POINT('',(-19.52,13.6920947741294,-81.10842446334));
#1898=CARTESIAN_POINT('',(-19.52,-13.8078705037154,-52.7801090919532));
#1899=CARTESIAN_POINT('',(-24.02,-13.8078705037154,-45.4729022377911));
#1900=CARTESIAN_POINT('',(-9.49999999999999,-13.8078705037154,-52.7801090919532));
#1901=CARTESIAN_POINT('',(-9.49999999999999,-20.2378705037154,-52.7801090919532));
#1902=CARTESIAN_POINT('',(-19.52,-29.2878705037154,-42.4002917185693));
#1903=CARTESIAN_POINT('',(-19.52,-29.2878705037154,-42.4002917185693));
#1904=CARTESIAN_POINT('',(-28.52,4.5807388083166,-45.4729022377911));
#1905=CARTESIAN_POINT('',(-24.02,-13.8078705037154,-45.4729022377911));
#1906=MECHANICAL_DESIGN_GEOMETRIC_PRESENTATION_REPRESENTATION('',(#1185),
#1907);
#1907=(
GEOMETRIC_REPRESENTATION_CONTEXT(3)
GLOBAL_UNCERTAINTY_ASSIGNED_CONTEXT((#1908))
GLOBAL_UNIT_ASSIGNED_CONTEXT((#1911,#1910,#1909))
REPRESENTATION_CONTEXT('13_FDML_stimfix_Badal_stage_top',
'TOP_LEVEL_ASSEMBLY_PART')
);
#1908=UNCERTAINTY_MEASURE_WITH_UNIT(LENGTH_MEASURE(0.005),#1911,
'DISTANCE_ACCURACY_VALUE','Maximum Tolerance applied to model');
#1909=(
NAMED_UNIT(*)
SI_UNIT($,.STERADIAN.)
SOLID_ANGLE_UNIT()
);
#1910=(
NAMED_UNIT(*)
PLANE_ANGLE_UNIT()
SI_UNIT($,.RADIAN.)
);
#1911=(
LENGTH_UNIT()
NAMED_UNIT(*)
SI_UNIT(.MILLI.,.METRE.)
);
#1912=PRODUCT_DEFINITION_SHAPE('','',#1913);
#1913=PRODUCT_DEFINITION('','',#1915,#1914);
#1914=PRODUCT_DEFINITION_CONTEXT('',#1921,'design');
#1915=PRODUCT_DEFINITION_FORMATION_WITH_SPECIFIED_SOURCE('','',#1917,
 .NOT_KNOWN.);
#1916=PRODUCT_RELATED_PRODUCT_CATEGORY('','',(#1917));
#1917=PRODUCT('13_FDML_stimfix_Badal_stage_top',
'13_FDML_stimfix_Badal_stage_top','13_FDML_stimfix_Badal_stage_top',(#1919));
#1918=PRODUCT_CATEGORY('','');
#1919=PRODUCT_CONTEXT('',#1921,'mechanical');
#1920=APPLICATION_PROTOCOL_DEFINITION('international standard',
'automotive_design',2010,#1921);
#1921=APPLICATION_CONTEXT(
'core data for automotive mechanical design processes');
ENDSEC;
END-ISO-10303-21;
