ISO-10303-21;
HEADER;
/* Generated by software containing ST-Developer
 * from STEP Tools, Inc. (www.steptools.com) 
 */
/* OPTION: strings as raw bytes, not using required /X/ escapes */

FILE_DESCRIPTION(
/* description */ ('Unknown'),
/* implementation_level */ '2;1');

FILE_NAME(
/* name */ '14_FDML_stimfix_square_mirror_support_Badal_stage',
/* time_stamp */ '2026-09-07T14:59:18+02:00',
/* author */ ('Unknown'),
/* organization */ ('Unknown'),
/* preprocessor_version */ 'ST-DEVELOPER v16.7',
/* originating_system */ 'Solid Edge',
/* authorisation */ 'Unknown');

FILE_SCHEMA (('AUTOMOTIVE_DESIGN {1 0 10303 214 3 1 1}'));
ENDSEC;

DATA;
#10=PROPERTY_DEFINITION_REPRESENTATION(#14,#12);
#11=PROPERTY_DEFINITION_REPRESENTATION(#15,#13);
#12=REPRESENTATION('',(#16),#1213);
#13=REPRESENTATION('',(#17),#1213);
#14=PROPERTY_DEFINITION('pmi validation property','',#1218);
#15=PROPERTY_DEFINITION('pmi validation property','',#1218);
#16=VALUE_REPRESENTATION_ITEM('number of annotations',COUNT_MEASURE(0.));
#17=VALUE_REPRESENTATION_ITEM('number of views',COUNT_MEASURE(0.));
#18=SHAPE_REPRESENTATION_RELATIONSHIP('','',#661,#19);
#19=ADVANCED_BREP_SHAPE_REPRESENTATION('',(#659),#1213);
#20=SPHERICAL_SURFACE('',#709,0.500000000000001);
#21=SPHERICAL_SURFACE('',#715,0.500000000000001);
#22=SPHERICAL_SURFACE('',#721,0.500000000000001);
#23=SPHERICAL_SURFACE('',#725,0.500000000000001);
#24=(
BOUNDED_SURFACE()
B_SPLINE_SURFACE(3,2,((#1078,#1079,#1080),(#1081,#1082,#1083),(#1084,#1085,
#1086),(#1087,#1088,#1089),(#1090,#1091,#1092),(#1093,#1094,#1095),(#1096,
#1097,#1098)),.UNSPECIFIED.,.F.,.F.,.F.)
B_SPLINE_SURFACE_WITH_KNOTS((4,1,1,1,4),(3,3),(6.28318530717959,6.64868719041541,
7.01418907365123,7.37969095688705,7.74519284012288),(0.,1.),
 .UNSPECIFIED.)
GEOMETRIC_REPRESENTATION_ITEM()
RATIONAL_B_SPLINE_SURFACE(((1.,0.707106781186547,1.),(1.,0.707106781231387,
1.),(1.,0.740982021774117,1.),(1.,0.851394754921864,1.),(1.,0.954696743257932,
1.),(1.,0.990454162911336,1.),(1.,0.997048547917133,1.)))
REPRESENTATION_ITEM('')
SURFACE()
);
#25=(
BOUNDED_SURFACE()
B_SPLINE_SURFACE(3,2,((#1106,#1107,#1108),(#1109,#1110,#1111),(#1112,#1113,
#1114),(#1115,#1116,#1117),(#1118,#1119,#1120),(#1121,#1122,#1123),(#1124,
#1125,#1126)),.UNSPECIFIED.,.F.,.F.,.F.)
B_SPLINE_SURFACE_WITH_KNOTS((4,1,1,1,4),(3,3),(6.28318530717959,6.64868719041541,
7.01418907365123,7.37969095688705,7.74519284012288),(0.,1.),
 .UNSPECIFIED.)
GEOMETRIC_REPRESENTATION_ITEM()
RATIONAL_B_SPLINE_SURFACE(((1.,0.707106781186547,1.),(1.,0.707106781231387,
1.),(1.,0.740982021774117,1.),(1.,0.851394754921864,1.),(1.,0.954696743257932,
1.),(1.,0.990454162911336,1.),(1.,0.997048547917133,1.)))
REPRESENTATION_ITEM('')
SURFACE()
);
#26=(
BOUNDED_SURFACE()
B_SPLINE_SURFACE(3,2,((#1131,#1132,#1133),(#1134,#1135,#1136),(#1137,#1138,
#1139),(#1140,#1141,#1142),(#1143,#1144,#1145),(#1146,#1147,#1148),(#1149,
#1150,#1151)),.UNSPECIFIED.,.F.,.F.,.F.)
B_SPLINE_SURFACE_WITH_KNOTS((4,1,1,1,4),(3,3),(6.28318530717959,6.64868719041541,
7.01418907365123,7.37969095688705,7.74519284012288),(0.,1.),
 .UNSPECIFIED.)
GEOMETRIC_REPRESENTATION_ITEM()
RATIONAL_B_SPLINE_SURFACE(((1.,0.707106781186547,1.),(1.,0.707106781231387,
1.),(1.,0.740982021774117,1.),(1.,0.851394754921864,1.),(1.,0.954696743257932,
1.),(1.,0.990454162911336,1.),(1.,0.997048547917133,1.)))
REPRESENTATION_ITEM('')
SURFACE()
);
#27=(
BOUNDED_SURFACE()
B_SPLINE_SURFACE(3,2,((#1159,#1160,#1161),(#1162,#1163,#1164),(#1165,#1166,
#1167),(#1168,#1169,#1170),(#1171,#1172,#1173),(#1174,#1175,#1176),(#1177,
#1178,#1179)),.UNSPECIFIED.,.F.,.F.,.F.)
B_SPLINE_SURFACE_WITH_KNOTS((4,1,1,1,4),(3,3),(3.14159265358979,3.50709453682562,
3.87259642006144,4.23809830329726,4.60360018653308),(0.,1.),
 .UNSPECIFIED.)
GEOMETRIC_REPRESENTATION_ITEM()
RATIONAL_B_SPLINE_SURFACE(((1.,0.707106781186547,1.),(1.,0.707106781231387,
1.),(1.,0.740982021774116,1.),(1.,0.851394754921866,1.),(1.,0.954696743257926,
1.),(1.,0.99045416291135,1.),(1.,0.997048547917133,1.)))
REPRESENTATION_ITEM('')
SURFACE()
);
#28=B_SPLINE_CURVE_WITH_KNOTS('',3,(#1026,#1027,#1028,#1029),
 .UNSPECIFIED.,.F.,.F.,(4,4),(0.,0.000349694371306745),.UNSPECIFIED.);
#29=B_SPLINE_CURVE_WITH_KNOTS('',3,(#1030,#1031,#1032,#1033),
 .UNSPECIFIED.,.F.,.F.,(4,4),(0.,0.000349715915747536),.UNSPECIFIED.);
#30=B_SPLINE_CURVE_WITH_KNOTS('',3,(#1037,#1038,#1039,#1040),
 .UNSPECIFIED.,.F.,.F.,(4,4),(0.,0.000349715915747537),.UNSPECIFIED.);
#31=B_SPLINE_CURVE_WITH_KNOTS('',3,(#1045,#1046,#1047,#1048),
 .UNSPECIFIED.,.F.,.F.,(4,4),(0.,0.000349694371306745),.UNSPECIFIED.);
#32=B_SPLINE_CURVE_WITH_KNOTS('',3,(#1050,#1051,#1052,#1053),
 .UNSPECIFIED.,.F.,.F.,(4,4),(0.,0.000349715915747536),.UNSPECIFIED.);
#33=B_SPLINE_CURVE_WITH_KNOTS('',3,(#1058,#1059,#1060,#1061),
 .UNSPECIFIED.,.F.,.F.,(4,4),(0.,0.000349694371306745),.UNSPECIFIED.);
#34=B_SPLINE_CURVE_WITH_KNOTS('',3,(#1065,#1066,#1067,#1068),
 .UNSPECIFIED.,.F.,.F.,(4,4),(0.,0.000349694371306745),.UNSPECIFIED.);
#35=B_SPLINE_CURVE_WITH_KNOTS('',3,(#1069,#1070,#1071,#1072),
 .UNSPECIFIED.,.F.,.F.,(4,4),(0.,0.000349715915747537),.UNSPECIFIED.);
#36=B_SPLINE_CURVE_WITH_KNOTS('',3,(#1099,#1100,#1101,#1102),
 .UNSPECIFIED.,.F.,.F.,(4,4),(0.,8.35418587038114E-5),.UNSPECIFIED.);
#37=B_SPLINE_CURVE_WITH_KNOTS('',3,(#1127,#1128,#1129,#1130),
 .UNSPECIFIED.,.F.,.F.,(4,4),(0.,8.35418587038114E-5),.UNSPECIFIED.);
#38=B_SPLINE_CURVE_WITH_KNOTS('',3,(#1152,#1153,#1154,#1155),
 .UNSPECIFIED.,.F.,.F.,(4,4),(0.,8.35418587038114E-5),.UNSPECIFIED.);
#39=B_SPLINE_CURVE_WITH_KNOTS('',3,(#1180,#1181,#1182,#1183),
 .UNSPECIFIED.,.F.,.F.,(4,4),(0.,8.35418587038114E-5),.UNSPECIFIED.);
#40=ELLIPSE('',#681,1.802775637732,1.);
#41=ELLIPSE('',#682,1.802775637732,1.);
#42=ELLIPSE('',#684,1.802775637732,1.);
#43=ELLIPSE('',#685,1.802775637732,1.);
#44=ELLIPSE('',#687,1.802775637732,1.);
#45=ELLIPSE('',#688,1.802775637732,1.);
#46=ELLIPSE('',#690,1.802775637732,1.);
#47=ELLIPSE('',#691,1.802775637732,1.);
#48=CYLINDRICAL_SURFACE('',#673,2.);
#49=CYLINDRICAL_SURFACE('',#680,1.);
#50=CYLINDRICAL_SURFACE('',#683,1.);
#51=CYLINDRICAL_SURFACE('',#686,1.);
#52=CYLINDRICAL_SURFACE('',#689,1.);
#53=CYLINDRICAL_SURFACE('',#692,0.5);
#54=CYLINDRICAL_SURFACE('',#695,0.5);
#55=CYLINDRICAL_SURFACE('',#699,0.5);
#56=CYLINDRICAL_SURFACE('',#702,0.5);
#57=CYLINDRICAL_SURFACE('',#704,0.500000000000001);
#58=CYLINDRICAL_SURFACE('',#706,0.500000000000001);
#59=CYLINDRICAL_SURFACE('',#711,0.500000000000001);
#60=CYLINDRICAL_SURFACE('',#713,0.500000000000001);
#61=CYLINDRICAL_SURFACE('',#717,0.500000000000001);
#62=CYLINDRICAL_SURFACE('',#719,0.500000000000001);
#63=CYLINDRICAL_SURFACE('',#723,0.500000000000001);
#64=CYLINDRICAL_SURFACE('',#727,0.500000000000001);
#65=CIRCLE('',#672,2.);
#66=CIRCLE('',#674,2.);
#67=CIRCLE('',#693,0.5);
#68=CIRCLE('',#694,0.5);
#69=CIRCLE('',#696,0.5);
#70=CIRCLE('',#697,0.5);
#71=CIRCLE('',#698,0.5);
#72=CIRCLE('',#700,0.5);
#73=CIRCLE('',#701,0.5);
#74=CIRCLE('',#703,0.5);
#75=CIRCLE('',#705,0.500000000000001);
#76=CIRCLE('',#707,0.500000000000001);
#77=CIRCLE('',#708,0.500000000000001);
#78=CIRCLE('',#710,0.500000000000001);
#79=CIRCLE('',#712,0.500000000000001);
#80=CIRCLE('',#714,0.500000000000001);
#81=CIRCLE('',#716,0.500000000000001);
#82=CIRCLE('',#718,0.500000000000001);
#83=CIRCLE('',#720,0.500000000000001);
#84=CIRCLE('',#722,0.500000000000001);
#85=CIRCLE('',#724,0.500000000000001);
#86=CIRCLE('',#726,0.500000000000001);
#87=ORIENTED_EDGE('',*,*,#267,.F.);
#88=ORIENTED_EDGE('',*,*,#268,.T.);
#89=ORIENTED_EDGE('',*,*,#269,.T.);
#90=ORIENTED_EDGE('',*,*,#270,.F.);
#91=ORIENTED_EDGE('',*,*,#271,.F.);
#92=ORIENTED_EDGE('',*,*,#272,.T.);
#93=ORIENTED_EDGE('',*,*,#267,.T.);
#94=ORIENTED_EDGE('',*,*,#273,.F.);
#95=ORIENTED_EDGE('',*,*,#274,.F.);
#96=ORIENTED_EDGE('',*,*,#275,.T.);
#97=ORIENTED_EDGE('',*,*,#271,.T.);
#98=ORIENTED_EDGE('',*,*,#276,.F.);
#99=ORIENTED_EDGE('',*,*,#269,.F.);
#100=ORIENTED_EDGE('',*,*,#277,.T.);
#101=ORIENTED_EDGE('',*,*,#274,.T.);
#102=ORIENTED_EDGE('',*,*,#278,.F.);
#103=ORIENTED_EDGE('',*,*,#279,.T.);
#104=ORIENTED_EDGE('',*,*,#280,.F.);
#105=ORIENTED_EDGE('',*,*,#281,.T.);
#106=ORIENTED_EDGE('',*,*,#282,.T.);
#107=ORIENTED_EDGE('',*,*,#283,.T.);
#108=ORIENTED_EDGE('',*,*,#284,.T.);
#109=ORIENTED_EDGE('',*,*,#285,.F.);
#110=ORIENTED_EDGE('',*,*,#286,.T.);
#111=ORIENTED_EDGE('',*,*,#287,.T.);
#112=ORIENTED_EDGE('',*,*,#288,.T.);
#113=ORIENTED_EDGE('',*,*,#289,.F.);
#114=ORIENTED_EDGE('',*,*,#290,.T.);
#115=ORIENTED_EDGE('',*,*,#291,.T.);
#116=ORIENTED_EDGE('',*,*,#292,.F.);
#117=ORIENTED_EDGE('',*,*,#293,.T.);
#118=ORIENTED_EDGE('',*,*,#294,.T.);
#119=ORIENTED_EDGE('',*,*,#273,.T.);
#120=ORIENTED_EDGE('',*,*,#270,.T.);
#121=ORIENTED_EDGE('',*,*,#278,.T.);
#122=ORIENTED_EDGE('',*,*,#276,.T.);
#123=ORIENTED_EDGE('',*,*,#295,.F.);
#124=ORIENTED_EDGE('',*,*,#295,.T.);
#125=ORIENTED_EDGE('',*,*,#296,.F.);
#126=ORIENTED_EDGE('',*,*,#297,.T.);
#127=ORIENTED_EDGE('',*,*,#298,.T.);
#128=ORIENTED_EDGE('',*,*,#299,.T.);
#129=ORIENTED_EDGE('',*,*,#300,.T.);
#130=ORIENTED_EDGE('',*,*,#301,.T.);
#131=ORIENTED_EDGE('',*,*,#302,.T.);
#132=ORIENTED_EDGE('',*,*,#303,.T.);
#133=ORIENTED_EDGE('',*,*,#304,.T.);
#134=ORIENTED_EDGE('',*,*,#305,.T.);
#135=ORIENTED_EDGE('',*,*,#306,.T.);
#136=ORIENTED_EDGE('',*,*,#307,.T.);
#137=ORIENTED_EDGE('',*,*,#308,.T.);
#138=ORIENTED_EDGE('',*,*,#309,.T.);
#139=ORIENTED_EDGE('',*,*,#310,.T.);
#140=ORIENTED_EDGE('',*,*,#311,.T.);
#141=ORIENTED_EDGE('',*,*,#312,.T.);
#142=ORIENTED_EDGE('',*,*,#275,.F.);
#143=ORIENTED_EDGE('',*,*,#277,.F.);
#144=ORIENTED_EDGE('',*,*,#268,.F.);
#145=ORIENTED_EDGE('',*,*,#272,.F.);
#146=ORIENTED_EDGE('',*,*,#313,.T.);
#147=ORIENTED_EDGE('',*,*,#314,.T.);
#148=ORIENTED_EDGE('',*,*,#315,.T.);
#149=ORIENTED_EDGE('',*,*,#316,.T.);
#150=ORIENTED_EDGE('',*,*,#317,.T.);
#151=ORIENTED_EDGE('',*,*,#318,.T.);
#152=ORIENTED_EDGE('',*,*,#297,.F.);
#153=ORIENTED_EDGE('',*,*,#319,.T.);
#154=ORIENTED_EDGE('',*,*,#320,.T.);
#155=ORIENTED_EDGE('',*,*,#294,.F.);
#156=ORIENTED_EDGE('',*,*,#303,.F.);
#157=ORIENTED_EDGE('',*,*,#321,.T.);
#158=ORIENTED_EDGE('',*,*,#322,.T.);
#159=ORIENTED_EDGE('',*,*,#287,.F.);
#160=ORIENTED_EDGE('',*,*,#323,.T.);
#161=ORIENTED_EDGE('',*,*,#324,.T.);
#162=ORIENTED_EDGE('',*,*,#307,.F.);
#163=ORIENTED_EDGE('',*,*,#325,.T.);
#164=ORIENTED_EDGE('',*,*,#326,.T.);
#165=ORIENTED_EDGE('',*,*,#283,.F.);
#166=ORIENTED_EDGE('',*,*,#327,.T.);
#167=ORIENTED_EDGE('',*,*,#328,.T.);
#168=ORIENTED_EDGE('',*,*,#329,.T.);
#169=ORIENTED_EDGE('',*,*,#330,.T.);
#170=ORIENTED_EDGE('',*,*,#309,.F.);
#171=ORIENTED_EDGE('',*,*,#331,.T.);
#172=ORIENTED_EDGE('',*,*,#332,.T.);
#173=ORIENTED_EDGE('',*,*,#282,.F.);
#174=ORIENTED_EDGE('',*,*,#286,.F.);
#175=ORIENTED_EDGE('',*,*,#333,.F.);
#176=ORIENTED_EDGE('',*,*,#279,.F.);
#177=ORIENTED_EDGE('',*,*,#334,.F.);
#178=ORIENTED_EDGE('',*,*,#332,.F.);
#179=ORIENTED_EDGE('',*,*,#335,.T.);
#180=ORIENTED_EDGE('',*,*,#327,.F.);
#181=ORIENTED_EDGE('',*,*,#334,.T.);
#182=ORIENTED_EDGE('',*,*,#290,.F.);
#183=ORIENTED_EDGE('',*,*,#336,.F.);
#184=ORIENTED_EDGE('',*,*,#284,.F.);
#185=ORIENTED_EDGE('',*,*,#337,.F.);
#186=ORIENTED_EDGE('',*,*,#326,.F.);
#187=ORIENTED_EDGE('',*,*,#338,.T.);
#188=ORIENTED_EDGE('',*,*,#323,.F.);
#189=ORIENTED_EDGE('',*,*,#337,.T.);
#190=ORIENTED_EDGE('',*,*,#320,.F.);
#191=ORIENTED_EDGE('',*,*,#339,.T.);
#192=ORIENTED_EDGE('',*,*,#329,.F.);
#193=ORIENTED_EDGE('',*,*,#340,.F.);
#194=ORIENTED_EDGE('',*,*,#281,.F.);
#195=ORIENTED_EDGE('',*,*,#341,.F.);
#196=ORIENTED_EDGE('',*,*,#291,.F.);
#197=ORIENTED_EDGE('',*,*,#340,.T.);
#198=ORIENTED_EDGE('',*,*,#322,.F.);
#199=ORIENTED_EDGE('',*,*,#342,.T.);
#200=ORIENTED_EDGE('',*,*,#317,.F.);
#201=ORIENTED_EDGE('',*,*,#343,.F.);
#202=ORIENTED_EDGE('',*,*,#293,.F.);
#203=ORIENTED_EDGE('',*,*,#344,.F.);
#204=ORIENTED_EDGE('',*,*,#288,.F.);
#205=ORIENTED_EDGE('',*,*,#343,.T.);
#206=ORIENTED_EDGE('',*,*,#331,.F.);
#207=ORIENTED_EDGE('',*,*,#312,.F.);
#208=ORIENTED_EDGE('',*,*,#345,.F.);
#209=ORIENTED_EDGE('',*,*,#308,.F.);
#210=ORIENTED_EDGE('',*,*,#328,.F.);
#211=ORIENTED_EDGE('',*,*,#335,.F.);
#212=ORIENTED_EDGE('',*,*,#316,.F.);
#213=ORIENTED_EDGE('',*,*,#346,.T.);
#214=ORIENTED_EDGE('',*,*,#305,.F.);
#215=ORIENTED_EDGE('',*,*,#347,.F.);
#216=ORIENTED_EDGE('',*,*,#347,.T.);
#217=ORIENTED_EDGE('',*,*,#345,.T.);
#218=ORIENTED_EDGE('',*,*,#348,.F.);
#219=ORIENTED_EDGE('',*,*,#311,.F.);
#220=ORIENTED_EDGE('',*,*,#349,.T.);
#221=ORIENTED_EDGE('',*,*,#313,.F.);
#222=ORIENTED_EDGE('',*,*,#348,.T.);
#223=ORIENTED_EDGE('',*,*,#325,.F.);
#224=ORIENTED_EDGE('',*,*,#306,.F.);
#225=ORIENTED_EDGE('',*,*,#350,.F.);
#226=ORIENTED_EDGE('',*,*,#304,.F.);
#227=ORIENTED_EDGE('',*,*,#324,.F.);
#228=ORIENTED_EDGE('',*,*,#338,.F.);
#229=ORIENTED_EDGE('',*,*,#350,.T.);
#230=ORIENTED_EDGE('',*,*,#346,.F.);
#231=ORIENTED_EDGE('',*,*,#351,.F.);
#232=ORIENTED_EDGE('',*,*,#315,.F.);
#233=ORIENTED_EDGE('',*,*,#352,.T.);
#234=ORIENTED_EDGE('',*,*,#301,.F.);
#235=ORIENTED_EDGE('',*,*,#351,.T.);
#236=ORIENTED_EDGE('',*,*,#353,.F.);
#237=ORIENTED_EDGE('',*,*,#310,.F.);
#238=ORIENTED_EDGE('',*,*,#330,.F.);
#239=ORIENTED_EDGE('',*,*,#339,.F.);
#240=ORIENTED_EDGE('',*,*,#319,.F.);
#241=ORIENTED_EDGE('',*,*,#300,.F.);
#242=ORIENTED_EDGE('',*,*,#349,.F.);
#243=ORIENTED_EDGE('',*,*,#353,.T.);
#244=ORIENTED_EDGE('',*,*,#354,.F.);
#245=ORIENTED_EDGE('',*,*,#355,.F.);
#246=ORIENTED_EDGE('',*,*,#314,.F.);
#247=ORIENTED_EDGE('',*,*,#354,.T.);
#248=ORIENTED_EDGE('',*,*,#299,.F.);
#249=ORIENTED_EDGE('',*,*,#352,.F.);
#250=ORIENTED_EDGE('',*,*,#355,.T.);
#251=ORIENTED_EDGE('',*,*,#356,.F.);
#252=ORIENTED_EDGE('',*,*,#321,.F.);
#253=ORIENTED_EDGE('',*,*,#302,.F.);
#254=ORIENTED_EDGE('',*,*,#356,.T.);
#255=ORIENTED_EDGE('',*,*,#298,.F.);
#256=ORIENTED_EDGE('',*,*,#318,.F.);
#257=ORIENTED_EDGE('',*,*,#342,.F.);
#258=ORIENTED_EDGE('',*,*,#296,.T.);
#259=ORIENTED_EDGE('',*,*,#289,.T.);
#260=ORIENTED_EDGE('',*,*,#344,.T.);
#261=ORIENTED_EDGE('',*,*,#292,.T.);
#262=ORIENTED_EDGE('',*,*,#341,.T.);
#263=ORIENTED_EDGE('',*,*,#280,.T.);
#264=ORIENTED_EDGE('',*,*,#333,.T.);
#265=ORIENTED_EDGE('',*,*,#285,.T.);
#266=ORIENTED_EDGE('',*,*,#336,.T.);
#267=EDGE_CURVE('',#357,#358,#411,.T.);
#268=EDGE_CURVE('',#357,#359,#412,.T.);
#269=EDGE_CURVE('',#359,#360,#413,.T.);
#270=EDGE_CURVE('',#358,#360,#414,.T.);
#271=EDGE_CURVE('',#361,#362,#415,.T.);
#272=EDGE_CURVE('',#361,#357,#416,.T.);
#273=EDGE_CURVE('',#362,#358,#417,.T.);
#274=EDGE_CURVE('',#363,#364,#418,.T.);
#275=EDGE_CURVE('',#363,#361,#419,.T.);
#276=EDGE_CURVE('',#364,#362,#420,.T.);
#277=EDGE_CURVE('',#359,#363,#421,.T.);
#278=EDGE_CURVE('',#360,#364,#422,.T.);
#279=EDGE_CURVE('',#365,#366,#423,.F.);
#280=EDGE_CURVE('',#367,#366,#424,.T.);
#281=EDGE_CURVE('',#367,#368,#425,.T.);
#282=EDGE_CURVE('',#368,#365,#426,.T.);
#283=EDGE_CURVE('',#369,#370,#427,.T.);
#284=EDGE_CURVE('',#370,#371,#428,.F.);
#285=EDGE_CURVE('',#372,#371,#429,.T.);
#286=EDGE_CURVE('',#372,#369,#430,.T.);
#287=EDGE_CURVE('',#373,#374,#431,.T.);
#288=EDGE_CURVE('',#374,#375,#432,.F.);
#289=EDGE_CURVE('',#376,#375,#433,.T.);
#290=EDGE_CURVE('',#376,#373,#434,.T.);
#291=EDGE_CURVE('',#377,#378,#435,.F.);
#292=EDGE_CURVE('',#379,#378,#436,.T.);
#293=EDGE_CURVE('',#379,#380,#437,.T.);
#294=EDGE_CURVE('',#380,#377,#438,.T.);
#295=EDGE_CURVE('',#381,#381,#65,.F.);
#296=EDGE_CURVE('',#382,#382,#66,.T.);
#297=EDGE_CURVE('',#383,#384,#439,.T.);
#298=EDGE_CURVE('',#384,#385,#440,.T.);
#299=EDGE_CURVE('',#385,#386,#441,.F.);
#300=EDGE_CURVE('',#386,#383,#442,.F.);
#301=EDGE_CURVE('',#387,#388,#443,.F.);
#302=EDGE_CURVE('',#388,#389,#444,.F.);
#303=EDGE_CURVE('',#389,#390,#445,.T.);
#304=EDGE_CURVE('',#390,#387,#446,.T.);
#305=EDGE_CURVE('',#391,#392,#447,.F.);
#306=EDGE_CURVE('',#392,#393,#448,.F.);
#307=EDGE_CURVE('',#393,#394,#449,.T.);
#308=EDGE_CURVE('',#394,#391,#450,.T.);
#309=EDGE_CURVE('',#395,#396,#451,.T.);
#310=EDGE_CURVE('',#396,#397,#452,.T.);
#311=EDGE_CURVE('',#397,#398,#453,.F.);
#312=EDGE_CURVE('',#398,#395,#454,.F.);
#313=EDGE_CURVE('',#399,#400,#455,.T.);
#314=EDGE_CURVE('',#400,#401,#456,.T.);
#315=EDGE_CURVE('',#401,#402,#457,.T.);
#316=EDGE_CURVE('',#402,#399,#458,.T.);
#317=EDGE_CURVE('',#380,#403,#40,.F.);
#318=EDGE_CURVE('',#403,#384,#28,.T.);
#319=EDGE_CURVE('',#383,#404,#29,.T.);
#320=EDGE_CURVE('',#404,#377,#41,.T.);
#321=EDGE_CURVE('',#389,#405,#30,.T.);
#322=EDGE_CURVE('',#405,#374,#42,.T.);
#323=EDGE_CURVE('',#373,#406,#43,.F.);
#324=EDGE_CURVE('',#406,#390,#31,.T.);
#325=EDGE_CURVE('',#393,#407,#32,.T.);
#326=EDGE_CURVE('',#407,#370,#44,.T.);
#327=EDGE_CURVE('',#369,#408,#45,.F.);
#328=EDGE_CURVE('',#408,#394,#33,.T.);
#329=EDGE_CURVE('',#368,#409,#46,.F.);
#330=EDGE_CURVE('',#409,#396,#34,.T.);
#331=EDGE_CURVE('',#395,#410,#35,.T.);
#332=EDGE_CURVE('',#410,#365,#47,.T.);
#333=EDGE_CURVE('',#366,#372,#67,.T.);
#334=EDGE_CURVE('',#369,#365,#68,.T.);
#335=EDGE_CURVE('',#410,#408,#36,.T.);
#336=EDGE_CURVE('',#371,#376,#69,.T.);
#337=EDGE_CURVE('',#373,#370,#70,.T.);
#338=EDGE_CURVE('',#407,#406,#37,.T.);
#339=EDGE_CURVE('',#404,#409,#38,.T.);
#340=EDGE_CURVE('',#377,#368,#71,.T.);
#341=EDGE_CURVE('',#378,#367,#72,.T.);
#342=EDGE_CURVE('',#405,#403,#39,.T.);
#343=EDGE_CURVE('',#374,#380,#73,.T.);
#344=EDGE_CURVE('',#375,#379,#74,.T.);
#345=EDGE_CURVE('',#391,#398,#75,.T.);
#346=EDGE_CURVE('',#402,#392,#76,.T.);
#347=EDGE_CURVE('',#399,#391,#77,.T.);
#348=EDGE_CURVE('',#399,#398,#78,.F.);
#349=EDGE_CURVE('',#397,#400,#79,.F.);
#350=EDGE_CURVE('',#387,#392,#80,.T.);
#351=EDGE_CURVE('',#387,#402,#81,.T.);
#352=EDGE_CURVE('',#401,#388,#82,.T.);
#353=EDGE_CURVE('',#397,#386,#83,.T.);
#354=EDGE_CURVE('',#400,#386,#84,.T.);
#355=EDGE_CURVE('',#401,#385,#85,.T.);
#356=EDGE_CURVE('',#388,#385,#86,.T.);
#357=VERTEX_POINT('',#914);
#358=VERTEX_POINT('',#915);
#359=VERTEX_POINT('',#917);
#360=VERTEX_POINT('',#919);
#361=VERTEX_POINT('',#923);
#362=VERTEX_POINT('',#924);
#363=VERTEX_POINT('',#929);
#364=VERTEX_POINT('',#930);
#365=VERTEX_POINT('',#938);
#366=VERTEX_POINT('',#939);
#367=VERTEX_POINT('',#941);
#368=VERTEX_POINT('',#943);
#369=VERTEX_POINT('',#947);
#370=VERTEX_POINT('',#948);
#371=VERTEX_POINT('',#950);
#372=VERTEX_POINT('',#952);
#373=VERTEX_POINT('',#956);
#374=VERTEX_POINT('',#957);
#375=VERTEX_POINT('',#959);
#376=VERTEX_POINT('',#961);
#377=VERTEX_POINT('',#965);
#378=VERTEX_POINT('',#966);
#379=VERTEX_POINT('',#968);
#380=VERTEX_POINT('',#970);
#381=VERTEX_POINT('',#974);
#382=VERTEX_POINT('',#977);
#383=VERTEX_POINT('',#980);
#384=VERTEX_POINT('',#981);
#385=VERTEX_POINT('',#983);
#386=VERTEX_POINT('',#985);
#387=VERTEX_POINT('',#989);
#388=VERTEX_POINT('',#990);
#389=VERTEX_POINT('',#992);
#390=VERTEX_POINT('',#994);
#391=VERTEX_POINT('',#998);
#392=VERTEX_POINT('',#999);
#393=VERTEX_POINT('',#1001);
#394=VERTEX_POINT('',#1003);
#395=VERTEX_POINT('',#1007);
#396=VERTEX_POINT('',#1008);
#397=VERTEX_POINT('',#1010);
#398=VERTEX_POINT('',#1012);
#399=VERTEX_POINT('',#1016);
#400=VERTEX_POINT('',#1017);
#401=VERTEX_POINT('',#1019);
#402=VERTEX_POINT('',#1021);
#403=VERTEX_POINT('',#1025);
#404=VERTEX_POINT('',#1034);
#405=VERTEX_POINT('',#1041);
#406=VERTEX_POINT('',#1044);
#407=VERTEX_POINT('',#1054);
#408=VERTEX_POINT('',#1057);
#409=VERTEX_POINT('',#1064);
#410=VERTEX_POINT('',#1073);
#411=LINE('',#913,#459);
#412=LINE('',#916,#460);
#413=LINE('',#918,#461);
#414=LINE('',#920,#462);
#415=LINE('',#922,#463);
#416=LINE('',#925,#464);
#417=LINE('',#926,#465);
#418=LINE('',#928,#466);
#419=LINE('',#931,#467);
#420=LINE('',#932,#468);
#421=LINE('',#934,#469);
#422=LINE('',#935,#470);
#423=LINE('',#937,#471);
#424=LINE('',#940,#472);
#425=LINE('',#942,#473);
#426=LINE('',#944,#474);
#427=LINE('',#946,#475);
#428=LINE('',#949,#476);
#429=LINE('',#951,#477);
#430=LINE('',#953,#478);
#431=LINE('',#955,#479);
#432=LINE('',#958,#480);
#433=LINE('',#960,#481);
#434=LINE('',#962,#482);
#435=LINE('',#964,#483);
#436=LINE('',#967,#484);
#437=LINE('',#969,#485);
#438=LINE('',#971,#486);
#439=LINE('',#979,#487);
#440=LINE('',#982,#488);
#441=LINE('',#984,#489);
#442=LINE('',#986,#490);
#443=LINE('',#988,#491);
#444=LINE('',#991,#492);
#445=LINE('',#993,#493);
#446=LINE('',#995,#494);
#447=LINE('',#997,#495);
#448=LINE('',#1000,#496);
#449=LINE('',#1002,#497);
#450=LINE('',#1004,#498);
#451=LINE('',#1006,#499);
#452=LINE('',#1009,#500);
#453=LINE('',#1011,#501);
#454=LINE('',#1013,#502);
#455=LINE('',#1015,#503);
#456=LINE('',#1018,#504);
#457=LINE('',#1020,#505);
#458=LINE('',#1022,#506);
#459=VECTOR('',#733,1000.);
#460=VECTOR('',#734,1000.);
#461=VECTOR('',#735,1000.);
#462=VECTOR('',#736,1000.);
#463=VECTOR('',#739,1000.);
#464=VECTOR('',#740,1000.);
#465=VECTOR('',#741,1000.);
#466=VECTOR('',#744,1000.);
#467=VECTOR('',#745,1000.);
#468=VECTOR('',#746,1000.);
#469=VECTOR('',#749,1000.);
#470=VECTOR('',#750,1000.);
#471=VECTOR('',#753,1000.);
#472=VECTOR('',#754,1000.);
#473=VECTOR('',#755,1000.);
#474=VECTOR('',#756,1000.);
#475=VECTOR('',#759,1000.);
#476=VECTOR('',#760,1000.);
#477=VECTOR('',#761,1000.);
#478=VECTOR('',#762,1000.);
#479=VECTOR('',#765,1000.);
#480=VECTOR('',#766,1000.);
#481=VECTOR('',#767,1000.);
#482=VECTOR('',#768,1000.);
#483=VECTOR('',#771,1000.);
#484=VECTOR('',#772,1000.);
#485=VECTOR('',#773,1000.);
#486=VECTOR('',#774,1000.);
#487=VECTOR('',#785,1000.);
#488=VECTOR('',#786,1000.);
#489=VECTOR('',#787,1000.);
#490=VECTOR('',#788,1000.);
#491=VECTOR('',#791,1000.);
#492=VECTOR('',#792,1000.);
#493=VECTOR('',#793,1000.);
#494=VECTOR('',#794,1000.);
#495=VECTOR('',#797,1000.);
#496=VECTOR('',#798,1000.);
#497=VECTOR('',#799,1000.);
#498=VECTOR('',#800,1000.);
#499=VECTOR('',#803,1000.);
#500=VECTOR('',#804,1000.);
#501=VECTOR('',#805,1000.);
#502=VECTOR('',#806,1000.);
#503=VECTOR('',#809,1000.);
#504=VECTOR('',#810,1000.);
#505=VECTOR('',#811,1000.);
#506=VECTOR('',#812,1000.);
#507=EDGE_LOOP('',(#87,#88,#89,#90));
#508=EDGE_LOOP('',(#91,#92,#93,#94));
#509=EDGE_LOOP('',(#95,#96,#97,#98));
#510=EDGE_LOOP('',(#99,#100,#101,#102));
#511=EDGE_LOOP('',(#103,#104,#105,#106));
#512=EDGE_LOOP('',(#107,#108,#109,#110));
#513=EDGE_LOOP('',(#111,#112,#113,#114));
#514=EDGE_LOOP('',(#115,#116,#117,#118));
#515=EDGE_LOOP('',(#119,#120,#121,#122));
#516=EDGE_LOOP('',(#123));
#517=EDGE_LOOP('',(#124));
#518=EDGE_LOOP('',(#125));
#519=EDGE_LOOP('',(#126,#127,#128,#129));
#520=EDGE_LOOP('',(#130,#131,#132,#133));
#521=EDGE_LOOP('',(#134,#135,#136,#137));
#522=EDGE_LOOP('',(#138,#139,#140,#141));
#523=EDGE_LOOP('',(#142,#143,#144,#145));
#524=EDGE_LOOP('',(#146,#147,#148,#149));
#525=EDGE_LOOP('',(#150,#151,#152,#153,#154,#155));
#526=EDGE_LOOP('',(#156,#157,#158,#159,#160,#161));
#527=EDGE_LOOP('',(#162,#163,#164,#165,#166,#167));
#528=EDGE_LOOP('',(#168,#169,#170,#171,#172,#173));
#529=EDGE_LOOP('',(#174,#175,#176,#177));
#530=EDGE_LOOP('',(#178,#179,#180,#181));
#531=EDGE_LOOP('',(#182,#183,#184,#185));
#532=EDGE_LOOP('',(#186,#187,#188,#189));
#533=EDGE_LOOP('',(#190,#191,#192,#193));
#534=EDGE_LOOP('',(#194,#195,#196,#197));
#535=EDGE_LOOP('',(#198,#199,#200,#201));
#536=EDGE_LOOP('',(#202,#203,#204,#205));
#537=EDGE_LOOP('',(#206,#207,#208,#209,#210,#211));
#538=EDGE_LOOP('',(#212,#213,#214,#215));
#539=EDGE_LOOP('',(#216,#217,#218));
#540=EDGE_LOOP('',(#219,#220,#221,#222));
#541=EDGE_LOOP('',(#223,#224,#225,#226,#227,#228));
#542=EDGE_LOOP('',(#229,#230,#231));
#543=EDGE_LOOP('',(#232,#233,#234,#235));
#544=EDGE_LOOP('',(#236,#237,#238,#239,#240,#241));
#545=EDGE_LOOP('',(#242,#243,#244));
#546=EDGE_LOOP('',(#245,#246,#247,#248));
#547=EDGE_LOOP('',(#249,#250,#251));
#548=EDGE_LOOP('',(#252,#253,#254,#255,#256,#257));
#549=EDGE_LOOP('',(#258));
#550=EDGE_LOOP('',(#259,#260,#261,#262,#263,#264,#265,#266));
#551=FACE_BOUND('',#507,.T.);
#552=FACE_BOUND('',#508,.T.);
#553=FACE_BOUND('',#509,.T.);
#554=FACE_BOUND('',#510,.T.);
#555=FACE_BOUND('',#511,.T.);
#556=FACE_BOUND('',#512,.T.);
#557=FACE_BOUND('',#513,.T.);
#558=FACE_BOUND('',#514,.T.);
#559=FACE_BOUND('',#515,.T.);
#560=FACE_BOUND('',#516,.T.);
#561=FACE_BOUND('',#517,.T.);
#562=FACE_BOUND('',#518,.T.);
#563=FACE_BOUND('',#519,.T.);
#564=FACE_BOUND('',#520,.T.);
#565=FACE_BOUND('',#521,.T.);
#566=FACE_BOUND('',#522,.T.);
#567=FACE_BOUND('',#523,.T.);
#568=FACE_BOUND('',#524,.T.);
#569=FACE_BOUND('',#525,.T.);
#570=FACE_BOUND('',#526,.T.);
#571=FACE_BOUND('',#527,.T.);
#572=FACE_BOUND('',#528,.T.);
#573=FACE_BOUND('',#529,.T.);
#574=FACE_BOUND('',#530,.T.);
#575=FACE_BOUND('',#531,.T.);
#576=FACE_BOUND('',#532,.T.);
#577=FACE_BOUND('',#533,.T.);
#578=FACE_BOUND('',#534,.T.);
#579=FACE_BOUND('',#535,.T.);
#580=FACE_BOUND('',#536,.T.);
#581=FACE_BOUND('',#537,.T.);
#582=FACE_BOUND('',#538,.T.);
#583=FACE_BOUND('',#539,.T.);
#584=FACE_BOUND('',#540,.T.);
#585=FACE_BOUND('',#541,.T.);
#586=FACE_BOUND('',#542,.T.);
#587=FACE_BOUND('',#543,.T.);
#588=FACE_BOUND('',#544,.T.);
#589=FACE_BOUND('',#545,.T.);
#590=FACE_BOUND('',#546,.T.);
#591=FACE_BOUND('',#547,.T.);
#592=FACE_BOUND('',#548,.T.);
#593=FACE_BOUND('',#549,.T.);
#594=FACE_BOUND('',#550,.T.);
#595=PLANE('',#663);
#596=PLANE('',#664);
#597=PLANE('',#665);
#598=PLANE('',#666);
#599=PLANE('',#667);
#600=PLANE('',#668);
#601=PLANE('',#669);
#602=PLANE('',#670);
#603=PLANE('',#671);
#604=PLANE('',#675);
#605=PLANE('',#676);
#606=PLANE('',#677);
#607=PLANE('',#678);
#608=PLANE('',#679);
#609=PLANE('',#728);
#610=ADVANCED_FACE('',(#551),#595,.T.);
#611=ADVANCED_FACE('',(#552),#596,.T.);
#612=ADVANCED_FACE('',(#553),#597,.T.);
#613=ADVANCED_FACE('',(#554),#598,.T.);
#614=ADVANCED_FACE('',(#555),#599,.F.);
#615=ADVANCED_FACE('',(#556),#600,.F.);
#616=ADVANCED_FACE('',(#557),#601,.F.);
#617=ADVANCED_FACE('',(#558),#602,.F.);
#618=ADVANCED_FACE('',(#559,#560),#603,.F.);
#619=ADVANCED_FACE('',(#561,#562),#48,.F.);
#620=ADVANCED_FACE('',(#563),#604,.T.);
#621=ADVANCED_FACE('',(#564),#605,.T.);
#622=ADVANCED_FACE('',(#565),#606,.T.);
#623=ADVANCED_FACE('',(#566),#607,.T.);
#624=ADVANCED_FACE('',(#567,#568),#608,.T.);
#625=ADVANCED_FACE('',(#569),#49,.F.);
#626=ADVANCED_FACE('',(#570),#50,.F.);
#627=ADVANCED_FACE('',(#571),#51,.F.);
#628=ADVANCED_FACE('',(#572),#52,.F.);
#629=ADVANCED_FACE('',(#573),#53,.T.);
#630=ADVANCED_FACE('',(#574),#24,.T.);
#631=ADVANCED_FACE('',(#575),#54,.T.);
#632=ADVANCED_FACE('',(#576),#25,.T.);
#633=ADVANCED_FACE('',(#577),#26,.T.);
#634=ADVANCED_FACE('',(#578),#55,.T.);
#635=ADVANCED_FACE('',(#579),#27,.T.);
#636=ADVANCED_FACE('',(#580),#56,.T.);
#637=ADVANCED_FACE('',(#581),#57,.T.);
#638=ADVANCED_FACE('',(#582),#58,.T.);
#639=ADVANCED_FACE('',(#583),#20,.T.);
#640=ADVANCED_FACE('',(#584),#59,.T.);
#641=ADVANCED_FACE('',(#585),#60,.T.);
#642=ADVANCED_FACE('',(#586),#21,.T.);
#643=ADVANCED_FACE('',(#587),#61,.T.);
#644=ADVANCED_FACE('',(#588),#62,.T.);
#645=ADVANCED_FACE('',(#589),#22,.T.);
#646=ADVANCED_FACE('',(#590),#63,.T.);
#647=ADVANCED_FACE('',(#591),#23,.T.);
#648=ADVANCED_FACE('',(#592),#64,.T.);
#649=ADVANCED_FACE('',(#593,#594),#609,.T.);
#650=CLOSED_SHELL('',(#610,#611,#612,#613,#614,#615,#616,#617,#618,#619,
#620,#621,#622,#623,#624,#625,#626,#627,#628,#629,#630,#631,#632,#633,#634,
#635,#636,#637,#638,#639,#640,#641,#642,#643,#644,#645,#646,#647,#648,#649));
#651=STYLED_ITEM('',(#652),#659);
#652=PRESENTATION_STYLE_ASSIGNMENT((#653));
#653=SURFACE_STYLE_USAGE(.BOTH.,#654);
#654=SURFACE_SIDE_STYLE('',(#655));
#655=SURFACE_STYLE_FILL_AREA(#656);
#656=FILL_AREA_STYLE('',(#657));
#657=FILL_AREA_STYLE_COLOUR('',#658);
#658=COLOUR_RGB('',0.506983280181885,0.531564235687256,0.550000011920929);
#659=MANIFOLD_SOLID_BREP('',#650);
#660=SHAPE_DEFINITION_REPRESENTATION(#1218,#661);
#661=SHAPE_REPRESENTATION(
'14_FDML_stimfix_square_mirror_support_Badal_stage',(#662),#1213);
#662=AXIS2_PLACEMENT_3D('',#911,#729,#730);
#663=AXIS2_PLACEMENT_3D('',#912,#731,#732);
#664=AXIS2_PLACEMENT_3D('',#921,#737,#738);
#665=AXIS2_PLACEMENT_3D('',#927,#742,#743);
#666=AXIS2_PLACEMENT_3D('',#933,#747,#748);
#667=AXIS2_PLACEMENT_3D('',#936,#751,#752);
#668=AXIS2_PLACEMENT_3D('',#945,#757,#758);
#669=AXIS2_PLACEMENT_3D('',#954,#763,#764);
#670=AXIS2_PLACEMENT_3D('',#963,#769,#770);
#671=AXIS2_PLACEMENT_3D('',#972,#775,#776);
#672=AXIS2_PLACEMENT_3D('',#973,#777,#778);
#673=AXIS2_PLACEMENT_3D('',#975,#779,#780);
#674=AXIS2_PLACEMENT_3D('',#976,#781,#782);
#675=AXIS2_PLACEMENT_3D('',#978,#783,#784);
#676=AXIS2_PLACEMENT_3D('',#987,#789,#790);
#677=AXIS2_PLACEMENT_3D('',#996,#795,#796);
#678=AXIS2_PLACEMENT_3D('',#1005,#801,#802);
#679=AXIS2_PLACEMENT_3D('',#1014,#807,#808);
#680=AXIS2_PLACEMENT_3D('',#1023,#813,#814);
#681=AXIS2_PLACEMENT_3D('',#1024,#815,#816);
#682=AXIS2_PLACEMENT_3D('',#1035,#817,#818);
#683=AXIS2_PLACEMENT_3D('',#1036,#819,#820);
#684=AXIS2_PLACEMENT_3D('',#1042,#821,#822);
#685=AXIS2_PLACEMENT_3D('',#1043,#823,#824);
#686=AXIS2_PLACEMENT_3D('',#1049,#825,#826);
#687=AXIS2_PLACEMENT_3D('',#1055,#827,#828);
#688=AXIS2_PLACEMENT_3D('',#1056,#829,#830);
#689=AXIS2_PLACEMENT_3D('',#1062,#831,#832);
#690=AXIS2_PLACEMENT_3D('',#1063,#833,#834);
#691=AXIS2_PLACEMENT_3D('',#1074,#835,#836);
#692=AXIS2_PLACEMENT_3D('',#1075,#837,#838);
#693=AXIS2_PLACEMENT_3D('',#1076,#839,#840);
#694=AXIS2_PLACEMENT_3D('',#1077,#841,#842);
#695=AXIS2_PLACEMENT_3D('',#1103,#843,#844);
#696=AXIS2_PLACEMENT_3D('',#1104,#845,#846);
#697=AXIS2_PLACEMENT_3D('',#1105,#847,#848);
#698=AXIS2_PLACEMENT_3D('',#1156,#849,#850);
#699=AXIS2_PLACEMENT_3D('',#1157,#851,#852);
#700=AXIS2_PLACEMENT_3D('',#1158,#853,#854);
#701=AXIS2_PLACEMENT_3D('',#1184,#855,#856);
#702=AXIS2_PLACEMENT_3D('',#1185,#857,#858);
#703=AXIS2_PLACEMENT_3D('',#1186,#859,#860);
#704=AXIS2_PLACEMENT_3D('',#1187,#861,#862);
#705=AXIS2_PLACEMENT_3D('',#1188,#863,#864);
#706=AXIS2_PLACEMENT_3D('',#1189,#865,#866);
#707=AXIS2_PLACEMENT_3D('',#1190,#867,#868);
#708=AXIS2_PLACEMENT_3D('',#1191,#869,#870);
#709=AXIS2_PLACEMENT_3D('',#1192,#871,#872);
#710=AXIS2_PLACEMENT_3D('',#1193,#873,#874);
#711=AXIS2_PLACEMENT_3D('',#1194,#875,#876);
#712=AXIS2_PLACEMENT_3D('',#1195,#877,#878);
#713=AXIS2_PLACEMENT_3D('',#1196,#879,#880);
#714=AXIS2_PLACEMENT_3D('',#1197,#881,#882);
#715=AXIS2_PLACEMENT_3D('',#1198,#883,#884);
#716=AXIS2_PLACEMENT_3D('',#1199,#885,#886);
#717=AXIS2_PLACEMENT_3D('',#1200,#887,#888);
#718=AXIS2_PLACEMENT_3D('',#1201,#889,#890);
#719=AXIS2_PLACEMENT_3D('',#1202,#891,#892);
#720=AXIS2_PLACEMENT_3D('',#1203,#893,#894);
#721=AXIS2_PLACEMENT_3D('',#1204,#895,#896);
#722=AXIS2_PLACEMENT_3D('',#1205,#897,#898);
#723=AXIS2_PLACEMENT_3D('',#1206,#899,#900);
#724=AXIS2_PLACEMENT_3D('',#1207,#901,#902);
#725=AXIS2_PLACEMENT_3D('',#1208,#903,#904);
#726=AXIS2_PLACEMENT_3D('',#1209,#905,#906);
#727=AXIS2_PLACEMENT_3D('',#1210,#907,#908);
#728=AXIS2_PLACEMENT_3D('',#1211,#909,#910);
#729=DIRECTION('',(0.,0.,1.));
#730=DIRECTION('',(1.,0.,0.));
#731=DIRECTION('',(0.,-1.,0.));
#732=DIRECTION('',(0.,0.,-1.));
#733=DIRECTION('',(0.,0.,1.));
#734=DIRECTION('',(1.,0.,0.));
#735=DIRECTION('',(0.,0.,1.));
#736=DIRECTION('',(1.,0.,0.));
#737=DIRECTION('',(1.,0.,0.));
#738=DIRECTION('',(0.,0.,-1.));
#739=DIRECTION('',(0.,0.,1.));
#740=DIRECTION('',(0.,1.,0.));
#741=DIRECTION('',(0.,1.,0.));
#742=DIRECTION('',(0.,1.,0.));
#743=DIRECTION('',(0.,0.,1.));
#744=DIRECTION('',(0.,0.,1.));
#745=DIRECTION('',(-1.,0.,0.));
#746=DIRECTION('',(-1.,0.,0.));
#747=DIRECTION('',(-1.,0.,0.));
#748=DIRECTION('',(0.,0.,1.));
#749=DIRECTION('',(0.,-1.,0.));
#750=DIRECTION('',(0.,-1.,0.));
#751=DIRECTION('',(0.,1.,0.));
#752=DIRECTION('',(0.,0.,1.));
#753=DIRECTION('',(0.,0.,-1.));
#754=DIRECTION('',(1.,0.,0.));
#755=DIRECTION('',(0.,0.,-1.));
#756=DIRECTION('',(1.,0.,0.));
#757=DIRECTION('',(-1.,0.,0.));
#758=DIRECTION('',(0.,0.,1.));
#759=DIRECTION('',(0.,1.,0.));
#760=DIRECTION('',(0.,0.,-1.));
#761=DIRECTION('',(0.,1.,0.));
#762=DIRECTION('',(0.,0.,-1.));
#763=DIRECTION('',(0.,-1.,0.));
#764=DIRECTION('',(0.,0.,-1.));
#765=DIRECTION('',(-1.,0.,0.));
#766=DIRECTION('',(0.,0.,-1.));
#767=DIRECTION('',(-1.,0.,0.));
#768=DIRECTION('',(0.,0.,-1.));
#769=DIRECTION('',(1.,0.,0.));
#770=DIRECTION('',(0.,0.,-1.));
#771=DIRECTION('',(0.,0.,-1.));
#772=DIRECTION('',(0.,-1.,0.));
#773=DIRECTION('',(0.,0.,-1.));
#774=DIRECTION('',(0.,-1.,0.));
#775=DIRECTION('',(0.,0.,1.));
#776=DIRECTION('',(1.,0.,0.));
#777=DIRECTION('',(0.,0.,1.));
#778=DIRECTION('',(1.,0.,0.));
#779=DIRECTION('',(0.,0.,1.));
#780=DIRECTION('',(1.,0.,0.));
#781=DIRECTION('',(0.,0.,-1.));
#782=DIRECTION('',(1.,0.,0.));
#783=DIRECTION('',(-1.,0.,0.));
#784=DIRECTION('',(0.,0.,1.));
#785=DIRECTION('',(0.,1.,0.));
#786=DIRECTION('',(0.,0.,-1.));
#787=DIRECTION('',(0.,1.,0.));
#788=DIRECTION('',(0.,0.,-1.));
#789=DIRECTION('',(0.,1.,0.));
#790=DIRECTION('',(0.,0.,1.));
#791=DIRECTION('',(1.,0.,0.));
#792=DIRECTION('',(0.,0.,-1.));
#793=DIRECTION('',(1.,0.,0.));
#794=DIRECTION('',(0.,0.,-1.));
#795=DIRECTION('',(1.,0.,0.));
#796=DIRECTION('',(0.,0.,-1.));
#797=DIRECTION('',(0.,-1.,0.));
#798=DIRECTION('',(0.,0.,-1.));
#799=DIRECTION('',(0.,-1.,0.));
#800=DIRECTION('',(0.,0.,-1.));
#801=DIRECTION('',(0.,-1.,0.));
#802=DIRECTION('',(0.,0.,-1.));
#803=DIRECTION('',(-1.,0.,0.));
#804=DIRECTION('',(0.,0.,-1.));
#805=DIRECTION('',(-1.,0.,0.));
#806=DIRECTION('',(0.,0.,-1.));
#807=DIRECTION('',(0.,0.,-1.));
#808=DIRECTION('',(-1.,0.,0.));
#809=DIRECTION('',(-1.,0.,0.));
#810=DIRECTION('',(0.,1.,0.));
#811=DIRECTION('',(1.,0.,0.));
#812=DIRECTION('',(0.,-1.,0.));
#813=DIRECTION('',(0.,1.,0.));
#814=DIRECTION('',(0.,0.,1.));
#815=DIRECTION('',(-0.832050294337843,-0.554700196225229,0.));
#816=DIRECTION('',(-0.554700196225229,0.832050294337843,0.));
#817=DIRECTION('',(0.832050294337843,-0.554700196225229,0.));
#818=DIRECTION('',(0.554700196225229,0.832050294337843,0.));
#819=DIRECTION('',(1.,0.,0.));
#820=DIRECTION('',(0.,0.,-1.));
#821=DIRECTION('',(-0.554700196225229,-0.832050294337844,0.));
#822=DIRECTION('',(-0.832050294337844,0.554700196225229,0.));
#823=DIRECTION('',(-0.554700196225229,0.832050294337844,0.));
#824=DIRECTION('',(-0.832050294337844,-0.554700196225229,0.));
#825=DIRECTION('',(0.,-1.,0.));
#826=DIRECTION('',(0.,0.,-1.));
#827=DIRECTION('',(-0.832050294337843,0.554700196225229,0.));
#828=DIRECTION('',(-0.554700196225229,-0.832050294337843,0.));
#829=DIRECTION('',(0.832050294337843,0.554700196225229,0.));
#830=DIRECTION('',(-0.554700196225229,0.832050294337843,0.));
#831=DIRECTION('',(-1.,0.,0.));
#832=DIRECTION('',(0.,0.,1.));
#833=DIRECTION('',(0.554700196225229,-0.832050294337844,0.));
#834=DIRECTION('',(0.832050294337844,0.554700196225229,0.));
#835=DIRECTION('',(0.554700196225229,0.832050294337844,0.));
#836=DIRECTION('',(-0.832050294337844,0.554700196225229,0.));
#837=DIRECTION('',(0.,0.,-1.));
#838=DIRECTION('',(-1.,0.,0.));
#839=DIRECTION('',(0.,0.,1.));
#840=DIRECTION('',(1.,0.,0.));
#841=DIRECTION('',(0.,0.,-1.));
#842=DIRECTION('',(-1.,0.,0.));
#843=DIRECTION('',(0.,0.,-1.));
#844=DIRECTION('',(-1.,0.,0.));
#845=DIRECTION('',(0.,0.,1.));
#846=DIRECTION('',(1.,0.,0.));
#847=DIRECTION('',(0.,0.,-1.));
#848=DIRECTION('',(-1.,0.,0.));
#849=DIRECTION('',(0.,0.,1.));
#850=DIRECTION('',(1.,0.,0.));
#851=DIRECTION('',(0.,0.,-1.));
#852=DIRECTION('',(-1.,0.,0.));
#853=DIRECTION('',(0.,0.,1.));
#854=DIRECTION('',(1.,0.,0.));
#855=DIRECTION('',(0.,0.,1.));
#856=DIRECTION('',(1.,0.,0.));
#857=DIRECTION('',(0.,0.,-1.));
#858=DIRECTION('',(-1.,0.,0.));
#859=DIRECTION('',(0.,0.,1.));
#860=DIRECTION('',(1.,0.,0.));
#861=DIRECTION('',(0.,0.,-1.));
#862=DIRECTION('',(-1.,0.,0.));
#863=DIRECTION('',(0.,0.,-1.));
#864=DIRECTION('',(-1.,0.,0.));
#865=DIRECTION('',(0.,-1.,0.));
#866=DIRECTION('',(0.,0.,-1.));
#867=DIRECTION('',(0.,-1.,0.));
#868=DIRECTION('',(0.,0.,-1.));
#869=DIRECTION('',(0.,-1.,0.));
#870=DIRECTION('',(0.,0.,-1.));
#871=DIRECTION('',(1.,0.,0.));
#872=DIRECTION('',(0.,0.,-1.));
#873=DIRECTION('',(1.,0.,0.));
#874=DIRECTION('',(0.,0.,-1.));
#875=DIRECTION('',(-1.,0.,0.));
#876=DIRECTION('',(0.,0.,1.));
#877=DIRECTION('',(-1.,0.,0.));
#878=DIRECTION('',(0.,0.,1.));
#879=DIRECTION('',(0.,0.,-1.));
#880=DIRECTION('',(-1.,0.,0.));
#881=DIRECTION('',(-4.33680868994201E-16,0.,-1.));
#882=DIRECTION('',(-1.,0.,4.33680868994201E-16));
#883=DIRECTION('',(0.,1.,0.));
#884=DIRECTION('',(0.,0.,1.));
#885=DIRECTION('',(-1.,0.,0.));
#886=DIRECTION('',(0.,0.,1.));
#887=DIRECTION('',(1.,0.,0.));
#888=DIRECTION('',(0.,0.,-1.));
#889=DIRECTION('',(1.,0.,0.));
#890=DIRECTION('',(0.,0.,-1.));
#891=DIRECTION('',(0.,0.,-1.));
#892=DIRECTION('',(-1.,0.,0.));
#893=DIRECTION('',(0.,0.,-1.));
#894=DIRECTION('',(-1.,0.,0.));
#895=DIRECTION('',(-1.,0.,0.));
#896=DIRECTION('',(0.,0.,1.));
#897=DIRECTION('',(0.,1.,0.));
#898=DIRECTION('',(0.,0.,1.));
#899=DIRECTION('',(0.,1.,0.));
#900=DIRECTION('',(0.,0.,1.));
#901=DIRECTION('',(0.,1.,0.));
#902=DIRECTION('',(0.,0.,1.));
#903=DIRECTION('',(-1.,0.,0.));
#904=DIRECTION('',(0.,0.,1.));
#905=DIRECTION('',(0.,4.33680868994201E-16,1.));
#906=DIRECTION('',(0.,-1.,4.33680868994201E-16));
#907=DIRECTION('',(0.,0.,-1.));
#908=DIRECTION('',(-1.,0.,0.));
#909=DIRECTION('',(0.,0.,1.));
#910=DIRECTION('',(1.,0.,0.));
#911=CARTESIAN_POINT('',(0.,0.,0.));
#912=CARTESIAN_POINT('',(-10.67,3.555,-5.));
#913=CARTESIAN_POINT('',(-10.67,3.555,-5.));
#914=CARTESIAN_POINT('',(-10.67,3.555,-2.));
#915=CARTESIAN_POINT('',(-10.67,3.555,0.));
#916=CARTESIAN_POINT('',(-10.67,3.555,-2.));
#917=CARTESIAN_POINT('',(10.67,3.555,-2.));
#918=CARTESIAN_POINT('',(10.67,3.555,-5.));
#919=CARTESIAN_POINT('',(10.67,3.555,0.));
#920=CARTESIAN_POINT('',(-10.67,3.555,0.));
#921=CARTESIAN_POINT('',(-10.67,-3.555,-5.));
#922=CARTESIAN_POINT('',(-10.67,-3.555,-5.));
#923=CARTESIAN_POINT('',(-10.67,-3.555,-2.));
#924=CARTESIAN_POINT('',(-10.67,-3.555,0.));
#925=CARTESIAN_POINT('',(-10.67,-3.555,-2.));
#926=CARTESIAN_POINT('',(-10.67,-3.555,0.));
#927=CARTESIAN_POINT('',(10.67,-3.555,-5.));
#928=CARTESIAN_POINT('',(10.67,-3.555,-5.));
#929=CARTESIAN_POINT('',(10.67,-3.555,-2.));
#930=CARTESIAN_POINT('',(10.67,-3.555,0.));
#931=CARTESIAN_POINT('',(10.67,-3.555,-2.));
#932=CARTESIAN_POINT('',(10.67,-3.555,0.));
#933=CARTESIAN_POINT('',(10.67,3.555,-5.));
#934=CARTESIAN_POINT('',(10.67,3.555,-2.));
#935=CARTESIAN_POINT('',(10.67,3.555,0.));
#936=CARTESIAN_POINT('',(-10.67,-3.555,30.64));
#937=CARTESIAN_POINT('',(10.17,-3.555,30.64));
#938=CARTESIAN_POINT('',(10.17,-3.555,3.));
#939=CARTESIAN_POINT('',(10.17,-3.555,32.64));
#940=CARTESIAN_POINT('',(-10.17,-3.555,32.64));
#941=CARTESIAN_POINT('',(-10.17,-3.555,32.64));
#942=CARTESIAN_POINT('',(-10.17,-3.555,30.64));
#943=CARTESIAN_POINT('',(-10.17,-3.555,3.));
#944=CARTESIAN_POINT('',(10.67,-3.555,3.));
#945=CARTESIAN_POINT('',(10.67,-3.555,30.64));
#946=CARTESIAN_POINT('',(10.67,3.555,3.));
#947=CARTESIAN_POINT('',(10.67,-3.055,3.));
#948=CARTESIAN_POINT('',(10.67,3.055,3.));
#949=CARTESIAN_POINT('',(10.67,3.055,30.64));
#950=CARTESIAN_POINT('',(10.67,3.055,32.64));
#951=CARTESIAN_POINT('',(10.67,-3.055,32.64));
#952=CARTESIAN_POINT('',(10.67,-3.055,32.64));
#953=CARTESIAN_POINT('',(10.67,-3.055,30.64));
#954=CARTESIAN_POINT('',(10.67,3.555,30.64));
#955=CARTESIAN_POINT('',(-11.67,3.555,3.));
#956=CARTESIAN_POINT('',(10.17,3.555,3.));
#957=CARTESIAN_POINT('',(-10.17,3.555,3.));
#958=CARTESIAN_POINT('',(-10.17,3.555,30.64));
#959=CARTESIAN_POINT('',(-10.17,3.555,32.64));
#960=CARTESIAN_POINT('',(10.17,3.555,32.64));
#961=CARTESIAN_POINT('',(10.17,3.555,32.64));
#962=CARTESIAN_POINT('',(10.17,3.555,30.64));
#963=CARTESIAN_POINT('',(-10.67,3.555,30.64));
#964=CARTESIAN_POINT('',(-10.67,-3.055,30.64));
#965=CARTESIAN_POINT('',(-10.67,-3.055,3.));
#966=CARTESIAN_POINT('',(-10.67,-3.055,32.64));
#967=CARTESIAN_POINT('',(-10.67,3.055,32.64));
#968=CARTESIAN_POINT('',(-10.67,3.055,32.64));
#969=CARTESIAN_POINT('',(-10.67,3.055,30.64));
#970=CARTESIAN_POINT('',(-10.67,3.055,3.));
#971=CARTESIAN_POINT('',(-10.67,-3.555,3.));
#972=CARTESIAN_POINT('',(0.,0.,0.));
#973=CARTESIAN_POINT('',(0.,0.,0.));
#974=CARTESIAN_POINT('',(2.,0.,0.));
#975=CARTESIAN_POINT('',(0.,0.,-6.37972691850062));
#976=CARTESIAN_POINT('',(0.,0.,32.64));
#977=CARTESIAN_POINT('',(2.,0.,32.64));
#978=CARTESIAN_POINT('',(-11.67,-4.555,2.));
#979=CARTESIAN_POINT('',(-11.67,-4.555,2.));
#980=CARTESIAN_POINT('',(-11.67,-4.055,2.));
#981=CARTESIAN_POINT('',(-11.67,4.055,2.));
#982=CARTESIAN_POINT('',(-11.67,4.055,2.));
#983=CARTESIAN_POINT('',(-11.67,4.055,-1.5));
#984=CARTESIAN_POINT('',(-11.67,-4.555,-1.5));
#985=CARTESIAN_POINT('',(-11.67,-4.055,-1.5));
#986=CARTESIAN_POINT('',(-11.67,-4.055,2.));
#987=CARTESIAN_POINT('',(-11.67,4.555,2.));
#988=CARTESIAN_POINT('',(-11.67,4.555,-1.5));
#989=CARTESIAN_POINT('',(11.17,4.555,-1.5));
#990=CARTESIAN_POINT('',(-11.17,4.555,-1.5));
#991=CARTESIAN_POINT('',(-11.17,4.555,2.));
#992=CARTESIAN_POINT('',(-11.17,4.555,2.));
#993=CARTESIAN_POINT('',(-11.67,4.555,2.));
#994=CARTESIAN_POINT('',(11.17,4.555,2.));
#995=CARTESIAN_POINT('',(11.17,4.555,2.));
#996=CARTESIAN_POINT('',(11.67,4.555,2.));
#997=CARTESIAN_POINT('',(11.67,4.555,-1.5));
#998=CARTESIAN_POINT('',(11.67,-4.055,-1.5));
#999=CARTESIAN_POINT('',(11.67,4.055,-1.5));
#1000=CARTESIAN_POINT('',(11.67,4.055,2.));
#1001=CARTESIAN_POINT('',(11.67,4.055,2.));
#1002=CARTESIAN_POINT('',(11.67,4.555,2.));
#1003=CARTESIAN_POINT('',(11.67,-4.055,2.));
#1004=CARTESIAN_POINT('',(11.67,-4.055,2.));
#1005=CARTESIAN_POINT('',(11.67,-4.555,2.));
#1006=CARTESIAN_POINT('',(11.67,-4.555,2.));
#1007=CARTESIAN_POINT('',(11.17,-4.555,2.));
#1008=CARTESIAN_POINT('',(-11.17,-4.555,2.));
#1009=CARTESIAN_POINT('',(-11.17,-4.555,2.));
#1010=CARTESIAN_POINT('',(-11.17,-4.555,-1.5));
#1011=CARTESIAN_POINT('',(11.67,-4.555,-1.5));
#1012=CARTESIAN_POINT('',(11.17,-4.555,-1.5));
#1013=CARTESIAN_POINT('',(11.17,-4.555,2.));
#1014=CARTESIAN_POINT('',(0.,0.,-2.));
#1015=CARTESIAN_POINT('',(0.,-4.055,-2.));
#1016=CARTESIAN_POINT('',(11.17,-4.055,-2.));
#1017=CARTESIAN_POINT('',(-11.17,-4.055,-2.));
#1018=CARTESIAN_POINT('',(-11.17,0.,-2.));
#1019=CARTESIAN_POINT('',(-11.17,4.055,-2.));
#1020=CARTESIAN_POINT('',(0.,4.055,-2.));
#1021=CARTESIAN_POINT('',(11.17,4.055,-2.));
#1022=CARTESIAN_POINT('',(11.17,0.,-2.));
#1023=CARTESIAN_POINT('',(-11.67,3.555,3.));
#1024=CARTESIAN_POINT('',(-11.67,4.555,3.));
#1025=CARTESIAN_POINT('',(-11.5518539703952,4.37778095559282,2.00700376854259));
#1026=CARTESIAN_POINT('',(-11.5518539703952,4.37778095559282,2.00700376854259));
#1027=CARTESIAN_POINT('',(-11.6279911998029,4.28770964611663,1.99794501174708));
#1028=CARTESIAN_POINT('',(-11.67,4.17324420685113,2.));
#1029=CARTESIAN_POINT('',(-11.67,4.055,2.));
#1030=CARTESIAN_POINT('',(-11.67,-4.055,2.));
#1031=CARTESIAN_POINT('',(-11.67,-4.17324304213118,2.));
#1032=CARTESIAN_POINT('',(-11.6279951745506,-4.28770494393968,1.99794453883425));
#1033=CARTESIAN_POINT('',(-11.5518539703952,-4.37778095559282,2.00700376854259));
#1034=CARTESIAN_POINT('',(-11.5518539703952,-4.37778095559282,2.00700376854259));
#1035=CARTESIAN_POINT('',(-11.67,-4.555,3.));
#1036=CARTESIAN_POINT('',(10.67,4.555,3.));
#1037=CARTESIAN_POINT('',(-11.17,4.555,2.));
#1038=CARTESIAN_POINT('',(-11.2882430421312,4.555,2.));
#1039=CARTESIAN_POINT('',(-11.4027049439397,4.51299517455055,1.99794453883425));
#1040=CARTESIAN_POINT('',(-11.4927809555928,4.43685397039521,2.00700376854259));
#1041=CARTESIAN_POINT('',(-11.4927809555928,4.43685397039521,2.00700376854259));
#1042=CARTESIAN_POINT('',(-11.67,4.555,3.));
#1043=CARTESIAN_POINT('',(11.67,4.555,3.));
#1044=CARTESIAN_POINT('',(11.4927809555928,4.43685397039521,2.00700376854259));
#1045=CARTESIAN_POINT('',(11.4927809555928,4.43685397039521,2.00700376854259));
#1046=CARTESIAN_POINT('',(11.4027096461166,4.51299119980291,1.99794501174708));
#1047=CARTESIAN_POINT('',(11.2882442068511,4.555,2.));
#1048=CARTESIAN_POINT('',(11.17,4.555,2.));
#1049=CARTESIAN_POINT('',(11.67,-3.555,3.));
#1050=CARTESIAN_POINT('',(11.67,4.055,2.));
#1051=CARTESIAN_POINT('',(11.67,4.17324304213118,2.));
#1052=CARTESIAN_POINT('',(11.6279951745506,4.28770494393968,1.99794453883425));
#1053=CARTESIAN_POINT('',(11.5518539703952,4.37778095559282,2.00700376854259));
#1054=CARTESIAN_POINT('',(11.5518539703952,4.37778095559282,2.00700376854259));
#1055=CARTESIAN_POINT('',(11.67,4.555,3.));
#1056=CARTESIAN_POINT('',(11.67,-4.555,3.));
#1057=CARTESIAN_POINT('',(11.5518539703952,-4.37778095559282,2.00700376854259));
#1058=CARTESIAN_POINT('',(11.5518539703952,-4.37778095559282,2.00700376854259));
#1059=CARTESIAN_POINT('',(11.6279911998029,-4.28770964611663,1.99794501174708));
#1060=CARTESIAN_POINT('',(11.67,-4.17324420685113,2.));
#1061=CARTESIAN_POINT('',(11.67,-4.055,2.));
#1062=CARTESIAN_POINT('',(-10.67,-4.555,3.));
#1063=CARTESIAN_POINT('',(-11.67,-4.555,3.));
#1064=CARTESIAN_POINT('',(-11.4927809555928,-4.43685397039521,2.00700376854259));
#1065=CARTESIAN_POINT('',(-11.4927809555928,-4.43685397039521,2.00700376854259));
#1066=CARTESIAN_POINT('',(-11.4027096461166,-4.51299119980291,1.99794501174708));
#1067=CARTESIAN_POINT('',(-11.2882442068511,-4.555,2.));
#1068=CARTESIAN_POINT('',(-11.17,-4.555,2.));
#1069=CARTESIAN_POINT('',(11.17,-4.555,2.));
#1070=CARTESIAN_POINT('',(11.2882430421312,-4.555,2.));
#1071=CARTESIAN_POINT('',(11.4027049439397,-4.51299517455055,1.99794453883425));
#1072=CARTESIAN_POINT('',(11.4927809555928,-4.43685397039521,2.00700376854259));
#1073=CARTESIAN_POINT('',(11.4927809555928,-4.43685397039521,2.00700376854259));
#1074=CARTESIAN_POINT('',(11.67,-4.555,3.));
#1075=CARTESIAN_POINT('',(10.17,-3.055,30.64));
#1076=CARTESIAN_POINT('',(10.17,-3.055,32.64));
#1077=CARTESIAN_POINT('',(10.17,-3.055,3.));
#1078=CARTESIAN_POINT('',(10.17,-3.555,3.));
#1079=CARTESIAN_POINT('',(10.67,-3.555,3.));
#1080=CARTESIAN_POINT('',(10.67,-3.055,3.));
#1081=CARTESIAN_POINT('',(10.1700000000141,-3.555,2.87816602087196));
#1082=CARTESIAN_POINT('',(10.6699999998113,-3.5549999998106,2.93908314581061));
#1083=CARTESIAN_POINT('',(10.67,-3.05500000001355,2.87816602087196));
#1084=CARTESIAN_POINT('',(10.2375433462705,-3.60002889751801,2.63454059558665));
#1085=CARTESIAN_POINT('',(10.6607331751162,-3.54573317511636,2.81753563975764));
#1086=CARTESIAN_POINT('',(10.715028897518,-3.12254334627072,2.63454059558665));
#1087=CARTESIAN_POINT('',(10.5280978181053,-3.7937318787357,2.31735046079235));
#1088=CARTESIAN_POINT('',(10.7678604280658,-3.65286042806604,2.47173165587119));
#1089=CARTESIAN_POINT('',(10.9087318787356,-3.41309781810525,2.31735046079236));
#1090=CARTESIAN_POINT('',(10.9695235702104,-4.0880157134738,2.09035388119938));
#1091=CARTESIAN_POINT('',(11.0800731700249,-3.96507317002375,2.14260306155135));
#1092=CARTESIAN_POINT('',(11.2030157134741,-3.85452357021017,2.09035388119934));
#1093=CARTESIAN_POINT('',(11.3254679052495,-4.32531193683323,2.01913970927414));
#1094=CARTESIAN_POINT('',(11.3825871798924,-4.26758717989476,2.02879317777472));
#1095=CARTESIAN_POINT('',(11.4403119368325,-4.21046790524997,2.01913970927422));
#1096=CARTESIAN_POINT('',(11.5071384976936,-4.44642566512904,2.00591166699969));
#1097=CARTESIAN_POINT('',(11.5344430195354,-4.41944301953543,2.00885871174524));
#1098=CARTESIAN_POINT('',(11.561425665129,-4.39213849769356,2.00591166699969));
#1099=CARTESIAN_POINT('',(11.4927809555928,-4.43685397039521,2.00700376854259));
#1100=CARTESIAN_POINT('',(11.5141227544105,-4.41881375934462,2.00915018082628));
#1101=CARTESIAN_POINT('',(11.5338137593446,-4.39912275441049,2.00915018082628));
#1102=CARTESIAN_POINT('',(11.5518539703952,-4.37778095559282,2.00700376854259));
#1103=CARTESIAN_POINT('',(10.17,3.055,30.64));
#1104=CARTESIAN_POINT('',(10.17,3.055,32.64));
#1105=CARTESIAN_POINT('',(10.17,3.055,3.));
#1106=CARTESIAN_POINT('',(10.67,3.055,3.));
#1107=CARTESIAN_POINT('',(10.67,3.555,3.));
#1108=CARTESIAN_POINT('',(10.17,3.555,3.));
#1109=CARTESIAN_POINT('',(10.67,3.05500000001355,2.87816602087196));
#1110=CARTESIAN_POINT('',(10.6699999998113,3.5549999998106,2.93908314581061));
#1111=CARTESIAN_POINT('',(10.1700000000141,3.555,2.87816602087196));
#1112=CARTESIAN_POINT('',(10.715028897518,3.12254334627072,2.63454059558665));
#1113=CARTESIAN_POINT('',(10.6607331751162,3.54573317511636,2.81753563975763));
#1114=CARTESIAN_POINT('',(10.2375433462705,3.60002889751801,2.63454059558665));
#1115=CARTESIAN_POINT('',(10.9087318787356,3.41309781810525,2.31735046079236));
#1116=CARTESIAN_POINT('',(10.7678604280658,3.65286042806604,2.47173165587121));
#1117=CARTESIAN_POINT('',(10.5280978181053,3.7937318787357,2.31735046079235));
#1118=CARTESIAN_POINT('',(11.2030157134741,3.85452357021017,2.09035388119934));
#1119=CARTESIAN_POINT('',(11.0800731700249,3.96507317002375,2.1426030615513));
#1120=CARTESIAN_POINT('',(10.9695235702104,4.0880157134738,2.09035388119938));
#1121=CARTESIAN_POINT('',(11.4403119368325,4.21046790524997,2.01913970927422));
#1122=CARTESIAN_POINT('',(11.3825871798924,4.26758717989476,2.02879317777483));
#1123=CARTESIAN_POINT('',(11.3254679052495,4.32531193683323,2.01913970927414));
#1124=CARTESIAN_POINT('',(11.561425665129,4.39213849769356,2.00591166699969));
#1125=CARTESIAN_POINT('',(11.5344430195354,4.41944301953543,2.00885871174524));
#1126=CARTESIAN_POINT('',(11.5071384976936,4.44642566512904,2.00591166699969));
#1127=CARTESIAN_POINT('',(11.5518539703952,4.37778095559282,2.00700376854259));
#1128=CARTESIAN_POINT('',(11.5338137593446,4.39912275441049,2.00915018082628));
#1129=CARTESIAN_POINT('',(11.5141227544105,4.41881375934462,2.00915018082628));
#1130=CARTESIAN_POINT('',(11.4927809555928,4.43685397039521,2.00700376854259));
#1131=CARTESIAN_POINT('',(-10.67,-3.055,3.));
#1132=CARTESIAN_POINT('',(-10.67,-3.555,3.));
#1133=CARTESIAN_POINT('',(-10.17,-3.555,3.));
#1134=CARTESIAN_POINT('',(-10.67,-3.05500000001355,2.87816602087196));
#1135=CARTESIAN_POINT('',(-10.6699999998113,-3.5549999998106,2.93908314581061));
#1136=CARTESIAN_POINT('',(-10.1700000000141,-3.555,2.87816602087196));
#1137=CARTESIAN_POINT('',(-10.715028897518,-3.12254334627072,2.63454059558665));
#1138=CARTESIAN_POINT('',(-10.6607331751162,-3.54573317511636,2.81753563975763));
#1139=CARTESIAN_POINT('',(-10.2375433462705,-3.60002889751801,2.63454059558665));
#1140=CARTESIAN_POINT('',(-10.9087318787356,-3.41309781810525,2.31735046079236));
#1141=CARTESIAN_POINT('',(-10.7678604280658,-3.65286042806604,2.47173165587121));
#1142=CARTESIAN_POINT('',(-10.5280978181053,-3.7937318787357,2.31735046079235));
#1143=CARTESIAN_POINT('',(-11.2030157134741,-3.85452357021017,2.09035388119934));
#1144=CARTESIAN_POINT('',(-11.0800731700249,-3.96507317002375,2.1426030615513));
#1145=CARTESIAN_POINT('',(-10.9695235702104,-4.0880157134738,2.09035388119938));
#1146=CARTESIAN_POINT('',(-11.4403119368325,-4.21046790524997,2.01913970927422));
#1147=CARTESIAN_POINT('',(-11.3825871798924,-4.26758717989476,2.02879317777483));
#1148=CARTESIAN_POINT('',(-11.3254679052495,-4.32531193683323,2.01913970927414));
#1149=CARTESIAN_POINT('',(-11.561425665129,-4.39213849769356,2.00591166699969));
#1150=CARTESIAN_POINT('',(-11.5344430195354,-4.41944301953543,2.00885871174524));
#1151=CARTESIAN_POINT('',(-11.5071384976936,-4.44642566512904,2.00591166699969));
#1152=CARTESIAN_POINT('',(-11.5518539703952,-4.37778095559282,2.00700376854259));
#1153=CARTESIAN_POINT('',(-11.5338137593446,-4.39912275441049,2.00915018082628));
#1154=CARTESIAN_POINT('',(-11.5141227544105,-4.41881375934462,2.00915018082628));
#1155=CARTESIAN_POINT('',(-11.4927809555928,-4.43685397039521,2.00700376854259));
#1156=CARTESIAN_POINT('',(-10.17,-3.055,3.));
#1157=CARTESIAN_POINT('',(-10.17,-3.055,30.64));
#1158=CARTESIAN_POINT('',(-10.17,-3.055,32.64));
#1159=CARTESIAN_POINT('',(-10.17,3.555,3.));
#1160=CARTESIAN_POINT('',(-10.67,3.555,3.));
#1161=CARTESIAN_POINT('',(-10.67,3.055,3.));
#1162=CARTESIAN_POINT('',(-10.1700000000141,3.555,2.87816602087192));
#1163=CARTESIAN_POINT('',(-10.6699999998113,3.5549999998106,2.93908314581061));
#1164=CARTESIAN_POINT('',(-10.67,3.05500000001355,2.87816602087192));
#1165=CARTESIAN_POINT('',(-10.2375433462705,3.60002889751801,2.63454059558667));
#1166=CARTESIAN_POINT('',(-10.6607331751162,3.54573317511635,2.81753563975763));
#1167=CARTESIAN_POINT('',(-10.715028897518,3.12254334627072,2.63454059558667));
#1168=CARTESIAN_POINT('',(-10.5280978181053,3.7937318787357,2.31735046079234));
#1169=CARTESIAN_POINT('',(-10.7678604280658,3.65286042806607,2.47173165587121));
#1170=CARTESIAN_POINT('',(-10.9087318787356,3.41309781810525,2.31735046079235));
#1171=CARTESIAN_POINT('',(-10.9695235702102,4.0880157134738,2.09035388119938));
#1172=CARTESIAN_POINT('',(-11.0800731700249,3.96507317002367,2.14260306155128));
#1173=CARTESIAN_POINT('',(-11.2030157134742,3.85452357021017,2.09035388119934));
#1174=CARTESIAN_POINT('',(-11.3254679052497,4.32531193683323,2.01913970927414));
#1175=CARTESIAN_POINT('',(-11.3825871798924,4.26758717989492,2.02879317777486));
#1176=CARTESIAN_POINT('',(-11.4403119368325,4.21046790524996,2.01913970927422));
#1177=CARTESIAN_POINT('',(-11.5071384976936,4.44642566512904,2.00591166699969));
#1178=CARTESIAN_POINT('',(-11.5344430195354,4.41944301953543,2.00885871174524));
#1179=CARTESIAN_POINT('',(-11.561425665129,4.39213849769356,2.00591166699969));
#1180=CARTESIAN_POINT('',(-11.4927809555928,4.43685397039521,2.00700376854259));
#1181=CARTESIAN_POINT('',(-11.5141227544105,4.41881375934462,2.00915018082628));
#1182=CARTESIAN_POINT('',(-11.5338137593446,4.39912275441049,2.00915018082628));
#1183=CARTESIAN_POINT('',(-11.5518539703952,4.37778095559282,2.00700376854259));
#1184=CARTESIAN_POINT('',(-10.17,3.055,3.));
#1185=CARTESIAN_POINT('',(-10.17,3.055,30.64));
#1186=CARTESIAN_POINT('',(-10.17,3.055,32.64));
#1187=CARTESIAN_POINT('',(11.17,-4.055,2.));
#1188=CARTESIAN_POINT('',(11.17,-4.055,-1.5));
#1189=CARTESIAN_POINT('',(11.17,0.,-1.5));
#1190=CARTESIAN_POINT('',(11.17,4.055,-1.5));
#1191=CARTESIAN_POINT('',(11.17,-4.055,-1.5));
#1192=CARTESIAN_POINT('',(11.17,-4.055,-1.5));
#1193=CARTESIAN_POINT('',(11.17,-4.055,-1.5));
#1194=CARTESIAN_POINT('',(0.,-4.055,-1.5));
#1195=CARTESIAN_POINT('',(-11.17,-4.055,-1.5));
#1196=CARTESIAN_POINT('',(11.17,4.055,2.));
#1197=CARTESIAN_POINT('',(11.17,4.055,-1.5));
#1198=CARTESIAN_POINT('',(11.17,4.055,-1.5));
#1199=CARTESIAN_POINT('',(11.17,4.055,-1.5));
#1200=CARTESIAN_POINT('',(0.,4.055,-1.5));
#1201=CARTESIAN_POINT('',(-11.17,4.055,-1.5));
#1202=CARTESIAN_POINT('',(-11.17,-4.055,2.));
#1203=CARTESIAN_POINT('',(-11.17,-4.055,-1.5));
#1204=CARTESIAN_POINT('',(-11.17,-4.055,-1.5));
#1205=CARTESIAN_POINT('',(-11.17,-4.055,-1.5));
#1206=CARTESIAN_POINT('',(-11.17,0.,-1.5));
#1207=CARTESIAN_POINT('',(-11.17,4.055,-1.5));
#1208=CARTESIAN_POINT('',(-11.17,4.055,-1.5));
#1209=CARTESIAN_POINT('',(-11.17,4.055,-1.5));
#1210=CARTESIAN_POINT('',(-11.17,4.055,2.));
#1211=CARTESIAN_POINT('',(-10.17,3.055,32.64));
#1212=MECHANICAL_DESIGN_GEOMETRIC_PRESENTATION_REPRESENTATION('',(#651),
#1213);
#1213=(
GEOMETRIC_REPRESENTATION_CONTEXT(3)
GLOBAL_UNCERTAINTY_ASSIGNED_CONTEXT((#1214))
GLOBAL_UNIT_ASSIGNED_CONTEXT((#1217,#1216,#1215))
REPRESENTATION_CONTEXT(
'14_FDML_stimfix_square_mirror_support_Badal_stage',
'TOP_LEVEL_ASSEMBLY_PART')
);
#1214=UNCERTAINTY_MEASURE_WITH_UNIT(LENGTH_MEASURE(0.005),#1217,
'DISTANCE_ACCURACY_VALUE','Maximum Tolerance applied to model');
#1215=(
NAMED_UNIT(*)
SI_UNIT($,.STERADIAN.)
SOLID_ANGLE_UNIT()
);
#1216=(
NAMED_UNIT(*)
PLANE_ANGLE_UNIT()
SI_UNIT($,.RADIAN.)
);
#1217=(
LENGTH_UNIT()
NAMED_UNIT(*)
SI_UNIT(.MILLI.,.METRE.)
);
#1218=PRODUCT_DEFINITION_SHAPE('','',#1219);
#1219=PRODUCT_DEFINITION('','',#1221,#1220);
#1220=PRODUCT_DEFINITION_CONTEXT('',#1227,'design');
#1221=PRODUCT_DEFINITION_FORMATION_WITH_SPECIFIED_SOURCE('','',#1223,
 .NOT_KNOWN.);
#1222=PRODUCT_RELATED_PRODUCT_CATEGORY('','',(#1223));
#1223=PRODUCT('14_FDML_stimfix_square_mirror_support_Badal_stage',
'14_FDML_stimfix_square_mirror_support_Badal_stage',
'14_FDML_stimfix_square_mirror_support_Badal_stage',(#1225));
#1224=PRODUCT_CATEGORY('','');
#1225=PRODUCT_CONTEXT('',#1227,'mechanical');
#1226=APPLICATION_PROTOCOL_DEFINITION('international standard',
'automotive_design',2010,#1227);
#1227=APPLICATION_CONTEXT(
'core data for automotive mechanical design processes');
ENDSEC;
END-ISO-10303-21;
