ISO-10303-21;
HEADER;
/* Generated by software containing ST-Developer
 * from STEP Tools, Inc. (www.steptools.com) 
 */
/* OPTION: strings as raw bytes, not using required /X/ escapes */

FILE_DESCRIPTION(
/* description */ ('Unknown'),
/* implementation_level */ '2;1');

FILE_NAME(
/* name */ '15_FDML_stimfix_square_mirror_holder_large',
/* time_stamp */ '2026-09-07T14:59:52+02:00',
/* author */ ('Unknown'),
/* organization */ ('Unknown'),
/* preprocessor_version */ 'ST-DEVELOPER v16.7',
/* originating_system */ 'Solid Edge',
/* authorisation */ 'Unknown');

FILE_SCHEMA (('AUTOMOTIVE_DESIGN {1 0 10303 214 3 1 1}'));
ENDSEC;

DATA;
#10=PROPERTY_DEFINITION_REPRESENTATION(#14,#12);
#11=PROPERTY_DEFINITION_REPRESENTATION(#15,#13);
#12=REPRESENTATION('',(#16),#869);
#13=REPRESENTATION('',(#17),#869);
#14=PROPERTY_DEFINITION('pmi validation property','',#874);
#15=PROPERTY_DEFINITION('pmi validation property','',#874);
#16=VALUE_REPRESENTATION_ITEM('number of annotations',COUNT_MEASURE(0.));
#17=VALUE_REPRESENTATION_ITEM('number of views',COUNT_MEASURE(0.));
#18=SHAPE_REPRESENTATION_RELATIONSHIP('','',#507,#19);
#19=ADVANCED_BREP_SHAPE_REPRESENTATION('',(#505),#869);
#20=SPHERICAL_SURFACE('',#538,0.999999999999998);
#21=SPHERICAL_SURFACE('',#540,0.999999999999998);
#22=SPHERICAL_SURFACE('',#549,0.999999999999998);
#23=SPHERICAL_SURFACE('',#550,0.999999999999998);
#24=SPHERICAL_SURFACE('',#558,0.999999999999997);
#25=SPHERICAL_SURFACE('',#560,0.999999999999997);
#26=SPHERICAL_SURFACE('',#566,0.999999999999997);
#27=SPHERICAL_SURFACE('',#568,0.999999999999997);
#28=PLANE('',#521);
#29=PLANE('',#522);
#30=PLANE('',#523);
#31=PLANE('',#524);
#32=PLANE('',#525);
#33=PLANE('',#526);
#34=PLANE('',#527);
#35=PLANE('',#532);
#36=PLANE('',#533);
#37=PLANE('',#534);
#38=PLANE('',#553);
#39=PLANE('',#554);
#40=CIRCLE('',#510,0.999999999999998);
#41=CIRCLE('',#511,0.999999999999998);
#42=CIRCLE('',#513,0.999999999999998);
#43=CIRCLE('',#514,0.999999999999998);
#44=CIRCLE('',#516,0.999999999999998);
#45=CIRCLE('',#517,0.999999999999998);
#46=CIRCLE('',#519,0.999999999999998);
#47=CIRCLE('',#520,0.999999999999998);
#48=CIRCLE('',#528,2.25);
#49=CIRCLE('',#530,1.5);
#50=CIRCLE('',#531,1.5);
#51=CIRCLE('',#536,0.999999999999998);
#52=CIRCLE('',#537,0.999999999999998);
#53=CIRCLE('',#539,0.999999999999998);
#54=CIRCLE('',#541,0.999999999999998);
#55=CIRCLE('',#543,0.999999999999998);
#56=CIRCLE('',#545,0.999999999999998);
#57=CIRCLE('',#546,0.999999999999998);
#58=CIRCLE('',#548,0.999999999999998);
#59=CIRCLE('',#552,2.25);
#60=CIRCLE('',#556,0.999999999999997);
#61=CIRCLE('',#557,0.999999999999997);
#62=CIRCLE('',#559,0.999999999999997);
#63=CIRCLE('',#561,0.999999999999997);
#64=CIRCLE('',#563,0.999999999999997);
#65=CIRCLE('',#565,0.999999999999997);
#66=CIRCLE('',#567,0.999999999999997);
#67=CIRCLE('',#569,0.999999999999997);
#68=ORIENTED_EDGE('',*,*,#196,.F.);
#69=ORIENTED_EDGE('',*,*,#197,.T.);
#70=ORIENTED_EDGE('',*,*,#198,.F.);
#71=ORIENTED_EDGE('',*,*,#199,.T.);
#72=ORIENTED_EDGE('',*,*,#200,.F.);
#73=ORIENTED_EDGE('',*,*,#201,.T.);
#74=ORIENTED_EDGE('',*,*,#202,.F.);
#75=ORIENTED_EDGE('',*,*,#203,.T.);
#76=ORIENTED_EDGE('',*,*,#204,.F.);
#77=ORIENTED_EDGE('',*,*,#205,.T.);
#78=ORIENTED_EDGE('',*,*,#206,.F.);
#79=ORIENTED_EDGE('',*,*,#207,.T.);
#80=ORIENTED_EDGE('',*,*,#208,.F.);
#81=ORIENTED_EDGE('',*,*,#209,.T.);
#82=ORIENTED_EDGE('',*,*,#210,.F.);
#83=ORIENTED_EDGE('',*,*,#211,.T.);
#84=ORIENTED_EDGE('',*,*,#202,.T.);
#85=ORIENTED_EDGE('',*,*,#212,.T.);
#86=ORIENTED_EDGE('',*,*,#196,.T.);
#87=ORIENTED_EDGE('',*,*,#213,.T.);
#88=ORIENTED_EDGE('',*,*,#210,.T.);
#89=ORIENTED_EDGE('',*,*,#214,.T.);
#90=ORIENTED_EDGE('',*,*,#204,.T.);
#91=ORIENTED_EDGE('',*,*,#215,.T.);
#92=ORIENTED_EDGE('',*,*,#216,.F.);
#93=ORIENTED_EDGE('',*,*,#217,.T.);
#94=ORIENTED_EDGE('',*,*,#218,.F.);
#95=ORIENTED_EDGE('',*,*,#219,.F.);
#96=ORIENTED_EDGE('',*,*,#220,.T.);
#97=ORIENTED_EDGE('',*,*,#221,.F.);
#98=ORIENTED_EDGE('',*,*,#222,.T.);
#99=ORIENTED_EDGE('',*,*,#223,.F.);
#100=ORIENTED_EDGE('',*,*,#224,.F.);
#101=ORIENTED_EDGE('',*,*,#219,.T.);
#102=ORIENTED_EDGE('',*,*,#225,.F.);
#103=ORIENTED_EDGE('',*,*,#220,.F.);
#104=ORIENTED_EDGE('',*,*,#198,.T.);
#105=ORIENTED_EDGE('',*,*,#226,.T.);
#106=ORIENTED_EDGE('',*,*,#208,.T.);
#107=ORIENTED_EDGE('',*,*,#227,.T.);
#108=ORIENTED_EDGE('',*,*,#228,.T.);
#109=ORIENTED_EDGE('',*,*,#223,.T.);
#110=ORIENTED_EDGE('',*,*,#229,.T.);
#111=ORIENTED_EDGE('',*,*,#216,.T.);
#112=ORIENTED_EDGE('',*,*,#224,.T.);
#113=ORIENTED_EDGE('',*,*,#230,.F.);
#114=ORIENTED_EDGE('',*,*,#231,.T.);
#115=ORIENTED_EDGE('',*,*,#232,.T.);
#116=ORIENTED_EDGE('',*,*,#233,.T.);
#117=ORIENTED_EDGE('',*,*,#234,.T.);
#118=ORIENTED_EDGE('',*,*,#235,.T.);
#119=ORIENTED_EDGE('',*,*,#236,.T.);
#120=ORIENTED_EDGE('',*,*,#221,.T.);
#121=ORIENTED_EDGE('',*,*,#225,.T.);
#122=ORIENTED_EDGE('',*,*,#218,.T.);
#123=ORIENTED_EDGE('',*,*,#217,.F.);
#124=ORIENTED_EDGE('',*,*,#229,.F.);
#125=ORIENTED_EDGE('',*,*,#222,.F.);
#126=ORIENTED_EDGE('',*,*,#236,.F.);
#127=ORIENTED_EDGE('',*,*,#206,.T.);
#128=ORIENTED_EDGE('',*,*,#237,.T.);
#129=ORIENTED_EDGE('',*,*,#200,.T.);
#130=ORIENTED_EDGE('',*,*,#238,.T.);
#131=ORIENTED_EDGE('',*,*,#239,.F.);
#132=ORIENTED_EDGE('',*,*,#235,.F.);
#133=ORIENTED_EDGE('',*,*,#240,.F.);
#134=ORIENTED_EDGE('',*,*,#227,.F.);
#135=ORIENTED_EDGE('',*,*,#241,.F.);
#136=ORIENTED_EDGE('',*,*,#239,.T.);
#137=ORIENTED_EDGE('',*,*,#211,.F.);
#138=ORIENTED_EDGE('',*,*,#199,.F.);
#139=ORIENTED_EDGE('',*,*,#240,.T.);
#140=ORIENTED_EDGE('',*,*,#242,.F.);
#141=ORIENTED_EDGE('',*,*,#241,.T.);
#142=ORIENTED_EDGE('',*,*,#215,.F.);
#143=ORIENTED_EDGE('',*,*,#243,.F.);
#144=ORIENTED_EDGE('',*,*,#232,.F.);
#145=ORIENTED_EDGE('',*,*,#244,.F.);
#146=ORIENTED_EDGE('',*,*,#233,.F.);
#147=ORIENTED_EDGE('',*,*,#245,.F.);
#148=ORIENTED_EDGE('',*,*,#238,.F.);
#149=ORIENTED_EDGE('',*,*,#242,.T.);
#150=ORIENTED_EDGE('',*,*,#234,.F.);
#151=ORIENTED_EDGE('',*,*,#246,.F.);
#152=ORIENTED_EDGE('',*,*,#213,.F.);
#153=ORIENTED_EDGE('',*,*,#245,.T.);
#154=ORIENTED_EDGE('',*,*,#243,.T.);
#155=ORIENTED_EDGE('',*,*,#207,.F.);
#156=ORIENTED_EDGE('',*,*,#246,.T.);
#157=ORIENTED_EDGE('',*,*,#244,.T.);
#158=ORIENTED_EDGE('',*,*,#203,.F.);
#159=ORIENTED_EDGE('',*,*,#247,.T.);
#160=ORIENTED_EDGE('',*,*,#228,.F.);
#161=ORIENTED_EDGE('',*,*,#230,.T.);
#162=ORIENTED_EDGE('',*,*,#247,.F.);
#163=ORIENTED_EDGE('',*,*,#248,.T.);
#164=ORIENTED_EDGE('',*,*,#249,.T.);
#165=ORIENTED_EDGE('',*,*,#250,.T.);
#166=ORIENTED_EDGE('',*,*,#251,.T.);
#167=ORIENTED_EDGE('',*,*,#231,.F.);
#168=ORIENTED_EDGE('',*,*,#252,.F.);
#169=ORIENTED_EDGE('',*,*,#226,.F.);
#170=ORIENTED_EDGE('',*,*,#253,.F.);
#171=ORIENTED_EDGE('',*,*,#251,.F.);
#172=ORIENTED_EDGE('',*,*,#209,.F.);
#173=ORIENTED_EDGE('',*,*,#252,.T.);
#174=ORIENTED_EDGE('',*,*,#254,.F.);
#175=ORIENTED_EDGE('',*,*,#253,.T.);
#176=ORIENTED_EDGE('',*,*,#197,.F.);
#177=ORIENTED_EDGE('',*,*,#255,.F.);
#178=ORIENTED_EDGE('',*,*,#254,.T.);
#179=ORIENTED_EDGE('',*,*,#250,.F.);
#180=ORIENTED_EDGE('',*,*,#256,.F.);
#181=ORIENTED_EDGE('',*,*,#214,.F.);
#182=ORIENTED_EDGE('',*,*,#255,.T.);
#183=ORIENTED_EDGE('',*,*,#212,.F.);
#184=ORIENTED_EDGE('',*,*,#257,.F.);
#185=ORIENTED_EDGE('',*,*,#248,.F.);
#186=ORIENTED_EDGE('',*,*,#205,.F.);
#187=ORIENTED_EDGE('',*,*,#256,.T.);
#188=ORIENTED_EDGE('',*,*,#258,.F.);
#189=ORIENTED_EDGE('',*,*,#257,.T.);
#190=ORIENTED_EDGE('',*,*,#201,.F.);
#191=ORIENTED_EDGE('',*,*,#259,.F.);
#192=ORIENTED_EDGE('',*,*,#258,.T.);
#193=ORIENTED_EDGE('',*,*,#249,.F.);
#194=ORIENTED_EDGE('',*,*,#259,.T.);
#195=ORIENTED_EDGE('',*,*,#237,.F.);
#196=EDGE_CURVE('',#260,#261,#296,.T.);
#197=EDGE_CURVE('',#260,#262,#40,.T.);
#198=EDGE_CURVE('',#263,#262,#297,.F.);
#199=EDGE_CURVE('',#263,#261,#41,.F.);
#200=EDGE_CURVE('',#264,#265,#298,.F.);
#201=EDGE_CURVE('',#264,#266,#42,.T.);
#202=EDGE_CURVE('',#267,#266,#299,.T.);
#203=EDGE_CURVE('',#267,#265,#43,.F.);
#204=EDGE_CURVE('',#268,#269,#300,.F.);
#205=EDGE_CURVE('',#268,#270,#44,.T.);
#206=EDGE_CURVE('',#271,#270,#301,.T.);
#207=EDGE_CURVE('',#271,#269,#45,.F.);
#208=EDGE_CURVE('',#272,#273,#302,.T.);
#209=EDGE_CURVE('',#272,#274,#46,.T.);
#210=EDGE_CURVE('',#275,#274,#303,.F.);
#211=EDGE_CURVE('',#275,#273,#47,.F.);
#212=EDGE_CURVE('',#266,#260,#304,.T.);
#213=EDGE_CURVE('',#261,#267,#305,.F.);
#214=EDGE_CURVE('',#274,#268,#306,.T.);
#215=EDGE_CURVE('',#269,#275,#307,.F.);
#216=EDGE_CURVE('',#276,#277,#308,.T.);
#217=EDGE_CURVE('',#276,#278,#309,.T.);
#218=EDGE_CURVE('',#279,#278,#310,.T.);
#219=EDGE_CURVE('',#277,#279,#311,.T.);
#220=EDGE_CURVE('',#280,#281,#312,.T.);
#221=EDGE_CURVE('',#282,#281,#313,.T.);
#222=EDGE_CURVE('',#282,#283,#314,.T.);
#223=EDGE_CURVE('',#280,#283,#315,.T.);
#224=EDGE_CURVE('',#277,#280,#316,.T.);
#225=EDGE_CURVE('',#281,#279,#317,.T.);
#226=EDGE_CURVE('',#262,#272,#318,.T.);
#227=EDGE_CURVE('',#273,#263,#319,.F.);
#228=EDGE_CURVE('',#284,#284,#48,.T.);
#229=EDGE_CURVE('',#283,#276,#320,.T.);
#230=EDGE_CURVE('',#285,#285,#49,.T.);
#231=EDGE_CURVE('',#286,#286,#50,.T.);
#232=EDGE_CURVE('',#287,#288,#321,.T.);
#233=EDGE_CURVE('',#288,#289,#322,.T.);
#234=EDGE_CURVE('',#289,#290,#323,.T.);
#235=EDGE_CURVE('',#290,#287,#324,.T.);
#236=EDGE_CURVE('',#278,#282,#325,.T.);
#237=EDGE_CURVE('',#270,#264,#326,.T.);
#238=EDGE_CURVE('',#265,#271,#327,.F.);
#239=EDGE_CURVE('',#287,#273,#51,.T.);
#240=EDGE_CURVE('',#263,#290,#52,.T.);
#241=EDGE_CURVE('',#287,#275,#53,.F.);
#242=EDGE_CURVE('',#261,#290,#54,.F.);
#243=EDGE_CURVE('',#288,#269,#55,.T.);
#244=EDGE_CURVE('',#289,#265,#56,.T.);
#245=EDGE_CURVE('',#271,#288,#57,.T.);
#246=EDGE_CURVE('',#267,#289,#58,.T.);
#247=EDGE_CURVE('',#291,#291,#59,.T.);
#248=EDGE_CURVE('',#292,#293,#328,.F.);
#249=EDGE_CURVE('',#293,#294,#329,.F.);
#250=EDGE_CURVE('',#294,#295,#330,.F.);
#251=EDGE_CURVE('',#295,#292,#331,.F.);
#252=EDGE_CURVE('',#272,#295,#60,.T.);
#253=EDGE_CURVE('',#292,#262,#61,.T.);
#254=EDGE_CURVE('',#274,#295,#62,.T.);
#255=EDGE_CURVE('',#292,#260,#63,.T.);
#256=EDGE_CURVE('',#268,#294,#64,.T.);
#257=EDGE_CURVE('',#293,#266,#65,.T.);
#258=EDGE_CURVE('',#270,#294,#66,.T.);
#259=EDGE_CURVE('',#293,#264,#67,.T.);
#260=VERTEX_POINT('',#736);
#261=VERTEX_POINT('',#737);
#262=VERTEX_POINT('',#739);
#263=VERTEX_POINT('',#741);
#264=VERTEX_POINT('',#745);
#265=VERTEX_POINT('',#746);
#266=VERTEX_POINT('',#748);
#267=VERTEX_POINT('',#750);
#268=VERTEX_POINT('',#754);
#269=VERTEX_POINT('',#755);
#270=VERTEX_POINT('',#757);
#271=VERTEX_POINT('',#759);
#272=VERTEX_POINT('',#763);
#273=VERTEX_POINT('',#764);
#274=VERTEX_POINT('',#766);
#275=VERTEX_POINT('',#768);
#276=VERTEX_POINT('',#778);
#277=VERTEX_POINT('',#779);
#278=VERTEX_POINT('',#781);
#279=VERTEX_POINT('',#783);
#280=VERTEX_POINT('',#787);
#281=VERTEX_POINT('',#788);
#282=VERTEX_POINT('',#790);
#283=VERTEX_POINT('',#792);
#284=VERTEX_POINT('',#802);
#285=VERTEX_POINT('',#806);
#286=VERTEX_POINT('',#808);
#287=VERTEX_POINT('',#811);
#288=VERTEX_POINT('',#812);
#289=VERTEX_POINT('',#814);
#290=VERTEX_POINT('',#816);
#291=VERTEX_POINT('',#841);
#292=VERTEX_POINT('',#845);
#293=VERTEX_POINT('',#846);
#294=VERTEX_POINT('',#848);
#295=VERTEX_POINT('',#850);
#296=LINE('',#735,#332);
#297=LINE('',#740,#333);
#298=LINE('',#744,#334);
#299=LINE('',#749,#335);
#300=LINE('',#753,#336);
#301=LINE('',#758,#337);
#302=LINE('',#762,#338);
#303=LINE('',#767,#339);
#304=LINE('',#771,#340);
#305=LINE('',#772,#341);
#306=LINE('',#774,#342);
#307=LINE('',#775,#343);
#308=LINE('',#777,#344);
#309=LINE('',#780,#345);
#310=LINE('',#782,#346);
#311=LINE('',#784,#347);
#312=LINE('',#786,#348);
#313=LINE('',#789,#349);
#314=LINE('',#791,#350);
#315=LINE('',#793,#351);
#316=LINE('',#795,#352);
#317=LINE('',#796,#353);
#318=LINE('',#798,#354);
#319=LINE('',#799,#355);
#320=LINE('',#803,#356);
#321=LINE('',#810,#357);
#322=LINE('',#813,#358);
#323=LINE('',#815,#359);
#324=LINE('',#817,#360);
#325=LINE('',#818,#361);
#326=LINE('',#821,#362);
#327=LINE('',#822,#363);
#328=LINE('',#844,#364);
#329=LINE('',#847,#365);
#330=LINE('',#849,#366);
#331=LINE('',#851,#367);
#332=VECTOR('',#575,1000.);
#333=VECTOR('',#578,1000.);
#334=VECTOR('',#583,1000.);
#335=VECTOR('',#586,1000.);
#336=VECTOR('',#591,1000.);
#337=VECTOR('',#594,1000.);
#338=VECTOR('',#599,1000.);
#339=VECTOR('',#602,1000.);
#340=VECTOR('',#607,1000.);
#341=VECTOR('',#608,1000.);
#342=VECTOR('',#611,1000.);
#343=VECTOR('',#612,1000.);
#344=VECTOR('',#615,1000.);
#345=VECTOR('',#616,1000.);
#346=VECTOR('',#617,1000.);
#347=VECTOR('',#618,1000.);
#348=VECTOR('',#621,1000.);
#349=VECTOR('',#622,1000.);
#350=VECTOR('',#623,1000.);
#351=VECTOR('',#624,1000.);
#352=VECTOR('',#627,1000.);
#353=VECTOR('',#628,1000.);
#354=VECTOR('',#631,1000.);
#355=VECTOR('',#632,1000.);
#356=VECTOR('',#637,1000.);
#357=VECTOR('',#646,1000.);
#358=VECTOR('',#647,1000.);
#359=VECTOR('',#648,1000.);
#360=VECTOR('',#649,1000.);
#361=VECTOR('',#650,1000.);
#362=VECTOR('',#655,1000.);
#363=VECTOR('',#656,1000.);
#364=VECTOR('',#697,1000.);
#365=VECTOR('',#698,1000.);
#366=VECTOR('',#699,1000.);
#367=VECTOR('',#700,1000.);
#368=EDGE_LOOP('',(#68,#69,#70,#71));
#369=EDGE_LOOP('',(#72,#73,#74,#75));
#370=EDGE_LOOP('',(#76,#77,#78,#79));
#371=EDGE_LOOP('',(#80,#81,#82,#83));
#372=EDGE_LOOP('',(#84,#85,#86,#87));
#373=EDGE_LOOP('',(#88,#89,#90,#91));
#374=EDGE_LOOP('',(#92,#93,#94,#95));
#375=EDGE_LOOP('',(#96,#97,#98,#99));
#376=EDGE_LOOP('',(#100,#101,#102,#103));
#377=EDGE_LOOP('',(#104,#105,#106,#107));
#378=EDGE_LOOP('',(#108));
#379=EDGE_LOOP('',(#109,#110,#111,#112));
#380=EDGE_LOOP('',(#113));
#381=EDGE_LOOP('',(#114));
#382=EDGE_LOOP('',(#115,#116,#117,#118));
#383=EDGE_LOOP('',(#119,#120,#121,#122));
#384=EDGE_LOOP('',(#123,#124,#125,#126));
#385=EDGE_LOOP('',(#127,#128,#129,#130));
#386=EDGE_LOOP('',(#131,#132,#133,#134));
#387=EDGE_LOOP('',(#135,#136,#137));
#388=EDGE_LOOP('',(#138,#139,#140));
#389=EDGE_LOOP('',(#141,#142,#143,#144));
#390=EDGE_LOOP('',(#145,#146,#147,#148));
#391=EDGE_LOOP('',(#149,#150,#151,#152));
#392=EDGE_LOOP('',(#153,#154,#155));
#393=EDGE_LOOP('',(#156,#157,#158));
#394=EDGE_LOOP('',(#159));
#395=EDGE_LOOP('',(#160));
#396=EDGE_LOOP('',(#161));
#397=EDGE_LOOP('',(#162));
#398=EDGE_LOOP('',(#163,#164,#165,#166));
#399=EDGE_LOOP('',(#167));
#400=EDGE_LOOP('',(#168,#169,#170,#171));
#401=EDGE_LOOP('',(#172,#173,#174));
#402=EDGE_LOOP('',(#175,#176,#177));
#403=EDGE_LOOP('',(#178,#179,#180,#181));
#404=EDGE_LOOP('',(#182,#183,#184,#185));
#405=EDGE_LOOP('',(#186,#187,#188));
#406=EDGE_LOOP('',(#189,#190,#191));
#407=EDGE_LOOP('',(#192,#193,#194,#195));
#408=FACE_BOUND('',#368,.T.);
#409=FACE_BOUND('',#369,.T.);
#410=FACE_BOUND('',#370,.T.);
#411=FACE_BOUND('',#371,.T.);
#412=FACE_BOUND('',#372,.T.);
#413=FACE_BOUND('',#373,.T.);
#414=FACE_BOUND('',#374,.T.);
#415=FACE_BOUND('',#375,.T.);
#416=FACE_BOUND('',#376,.T.);
#417=FACE_BOUND('',#377,.T.);
#418=FACE_BOUND('',#378,.T.);
#419=FACE_BOUND('',#379,.T.);
#420=FACE_BOUND('',#380,.T.);
#421=FACE_BOUND('',#381,.T.);
#422=FACE_BOUND('',#382,.T.);
#423=FACE_BOUND('',#383,.T.);
#424=FACE_BOUND('',#384,.T.);
#425=FACE_BOUND('',#385,.T.);
#426=FACE_BOUND('',#386,.T.);
#427=FACE_BOUND('',#387,.T.);
#428=FACE_BOUND('',#388,.T.);
#429=FACE_BOUND('',#389,.T.);
#430=FACE_BOUND('',#390,.T.);
#431=FACE_BOUND('',#391,.T.);
#432=FACE_BOUND('',#392,.T.);
#433=FACE_BOUND('',#393,.T.);
#434=FACE_BOUND('',#394,.T.);
#435=FACE_BOUND('',#395,.T.);
#436=FACE_BOUND('',#396,.T.);
#437=FACE_BOUND('',#397,.T.);
#438=FACE_BOUND('',#398,.T.);
#439=FACE_BOUND('',#399,.T.);
#440=FACE_BOUND('',#400,.T.);
#441=FACE_BOUND('',#401,.T.);
#442=FACE_BOUND('',#402,.T.);
#443=FACE_BOUND('',#403,.T.);
#444=FACE_BOUND('',#404,.T.);
#445=FACE_BOUND('',#405,.T.);
#446=FACE_BOUND('',#406,.T.);
#447=FACE_BOUND('',#407,.T.);
#448=CYLINDRICAL_SURFACE('',#509,0.999999999999998);
#449=CYLINDRICAL_SURFACE('',#512,0.999999999999998);
#450=CYLINDRICAL_SURFACE('',#515,0.999999999999998);
#451=CYLINDRICAL_SURFACE('',#518,0.999999999999998);
#452=CYLINDRICAL_SURFACE('',#529,1.5);
#453=CYLINDRICAL_SURFACE('',#535,0.999999999999998);
#454=CYLINDRICAL_SURFACE('',#542,0.999999999999998);
#455=CYLINDRICAL_SURFACE('',#544,0.999999999999998);
#456=CYLINDRICAL_SURFACE('',#547,0.999999999999998);
#457=CYLINDRICAL_SURFACE('',#551,2.25);
#458=CYLINDRICAL_SURFACE('',#555,0.999999999999997);
#459=CYLINDRICAL_SURFACE('',#562,0.999999999999997);
#460=CYLINDRICAL_SURFACE('',#564,0.999999999999997);
#461=CYLINDRICAL_SURFACE('',#570,0.999999999999997);
#462=ADVANCED_FACE('',(#408),#448,.T.);
#463=ADVANCED_FACE('',(#409),#449,.T.);
#464=ADVANCED_FACE('',(#410),#450,.T.);
#465=ADVANCED_FACE('',(#411),#451,.T.);
#466=ADVANCED_FACE('',(#412),#28,.T.);
#467=ADVANCED_FACE('',(#413),#29,.T.);
#468=ADVANCED_FACE('',(#414),#30,.F.);
#469=ADVANCED_FACE('',(#415),#31,.F.);
#470=ADVANCED_FACE('',(#416),#32,.F.);
#471=ADVANCED_FACE('',(#417),#33,.T.);
#472=ADVANCED_FACE('',(#418,#419),#34,.F.);
#473=ADVANCED_FACE('',(#420,#421),#452,.F.);
#474=ADVANCED_FACE('',(#422,#423),#35,.T.);
#475=ADVANCED_FACE('',(#424),#36,.F.);
#476=ADVANCED_FACE('',(#425),#37,.F.);
#477=ADVANCED_FACE('',(#426),#453,.T.);
#478=ADVANCED_FACE('',(#427),#20,.T.);
#479=ADVANCED_FACE('',(#428),#21,.T.);
#480=ADVANCED_FACE('',(#429),#454,.T.);
#481=ADVANCED_FACE('',(#430),#455,.T.);
#482=ADVANCED_FACE('',(#431),#456,.T.);
#483=ADVANCED_FACE('',(#432),#22,.T.);
#484=ADVANCED_FACE('',(#433),#23,.T.);
#485=ADVANCED_FACE('',(#434,#435),#457,.F.);
#486=ADVANCED_FACE('',(#436,#437),#38,.F.);
#487=ADVANCED_FACE('',(#438,#439),#39,.F.);
#488=ADVANCED_FACE('',(#440),#458,.T.);
#489=ADVANCED_FACE('',(#441),#24,.T.);
#490=ADVANCED_FACE('',(#442),#25,.T.);
#491=ADVANCED_FACE('',(#443),#459,.T.);
#492=ADVANCED_FACE('',(#444),#460,.T.);
#493=ADVANCED_FACE('',(#445),#26,.T.);
#494=ADVANCED_FACE('',(#446),#27,.T.);
#495=ADVANCED_FACE('',(#447),#461,.T.);
#496=CLOSED_SHELL('',(#462,#463,#464,#465,#466,#467,#468,#469,#470,#471,
#472,#473,#474,#475,#476,#477,#478,#479,#480,#481,#482,#483,#484,#485,#486,
#487,#488,#489,#490,#491,#492,#493,#494,#495));
#497=STYLED_ITEM('',(#498),#505);
#498=PRESENTATION_STYLE_ASSIGNMENT((#499));
#499=SURFACE_STYLE_USAGE(.BOTH.,#500);
#500=SURFACE_SIDE_STYLE('',(#501));
#501=SURFACE_STYLE_FILL_AREA(#502);
#502=FILL_AREA_STYLE('',(#503));
#503=FILL_AREA_STYLE_COLOUR('',#504);
#504=COLOUR_RGB('',0.506983280181885,0.531564235687256,0.550000011920929);
#505=MANIFOLD_SOLID_BREP('',#496);
#506=SHAPE_DEFINITION_REPRESENTATION(#874,#507);
#507=SHAPE_REPRESENTATION('15_FDML_stimfix_square_mirror_holder_large',
(#508),#869);
#508=AXIS2_PLACEMENT_3D('',#733,#571,#572);
#509=AXIS2_PLACEMENT_3D('',#734,#573,#574);
#510=AXIS2_PLACEMENT_3D('',#738,#576,#577);
#511=AXIS2_PLACEMENT_3D('',#742,#579,#580);
#512=AXIS2_PLACEMENT_3D('',#743,#581,#582);
#513=AXIS2_PLACEMENT_3D('',#747,#584,#585);
#514=AXIS2_PLACEMENT_3D('',#751,#587,#588);
#515=AXIS2_PLACEMENT_3D('',#752,#589,#590);
#516=AXIS2_PLACEMENT_3D('',#756,#592,#593);
#517=AXIS2_PLACEMENT_3D('',#760,#595,#596);
#518=AXIS2_PLACEMENT_3D('',#761,#597,#598);
#519=AXIS2_PLACEMENT_3D('',#765,#600,#601);
#520=AXIS2_PLACEMENT_3D('',#769,#603,#604);
#521=AXIS2_PLACEMENT_3D('',#770,#605,#606);
#522=AXIS2_PLACEMENT_3D('',#773,#609,#610);
#523=AXIS2_PLACEMENT_3D('',#776,#613,#614);
#524=AXIS2_PLACEMENT_3D('',#785,#619,#620);
#525=AXIS2_PLACEMENT_3D('',#794,#625,#626);
#526=AXIS2_PLACEMENT_3D('',#797,#629,#630);
#527=AXIS2_PLACEMENT_3D('',#800,#633,#634);
#528=AXIS2_PLACEMENT_3D('',#801,#635,#636);
#529=AXIS2_PLACEMENT_3D('',#804,#638,#639);
#530=AXIS2_PLACEMENT_3D('',#805,#640,#641);
#531=AXIS2_PLACEMENT_3D('',#807,#642,#643);
#532=AXIS2_PLACEMENT_3D('',#809,#644,#645);
#533=AXIS2_PLACEMENT_3D('',#819,#651,#652);
#534=AXIS2_PLACEMENT_3D('',#820,#653,#654);
#535=AXIS2_PLACEMENT_3D('',#823,#657,#658);
#536=AXIS2_PLACEMENT_3D('',#824,#659,#660);
#537=AXIS2_PLACEMENT_3D('',#825,#661,#662);
#538=AXIS2_PLACEMENT_3D('',#826,#663,#664);
#539=AXIS2_PLACEMENT_3D('',#827,#665,#666);
#540=AXIS2_PLACEMENT_3D('',#828,#667,#668);
#541=AXIS2_PLACEMENT_3D('',#829,#669,#670);
#542=AXIS2_PLACEMENT_3D('',#830,#671,#672);
#543=AXIS2_PLACEMENT_3D('',#831,#673,#674);
#544=AXIS2_PLACEMENT_3D('',#832,#675,#676);
#545=AXIS2_PLACEMENT_3D('',#833,#677,#678);
#546=AXIS2_PLACEMENT_3D('',#834,#679,#680);
#547=AXIS2_PLACEMENT_3D('',#835,#681,#682);
#548=AXIS2_PLACEMENT_3D('',#836,#683,#684);
#549=AXIS2_PLACEMENT_3D('',#837,#685,#686);
#550=AXIS2_PLACEMENT_3D('',#838,#687,#688);
#551=AXIS2_PLACEMENT_3D('',#839,#689,#690);
#552=AXIS2_PLACEMENT_3D('',#840,#691,#692);
#553=AXIS2_PLACEMENT_3D('',#842,#693,#694);
#554=AXIS2_PLACEMENT_3D('',#843,#695,#696);
#555=AXIS2_PLACEMENT_3D('',#852,#701,#702);
#556=AXIS2_PLACEMENT_3D('',#853,#703,#704);
#557=AXIS2_PLACEMENT_3D('',#854,#705,#706);
#558=AXIS2_PLACEMENT_3D('',#855,#707,#708);
#559=AXIS2_PLACEMENT_3D('',#856,#709,#710);
#560=AXIS2_PLACEMENT_3D('',#857,#711,#712);
#561=AXIS2_PLACEMENT_3D('',#858,#713,#714);
#562=AXIS2_PLACEMENT_3D('',#859,#715,#716);
#563=AXIS2_PLACEMENT_3D('',#860,#717,#718);
#564=AXIS2_PLACEMENT_3D('',#861,#719,#720);
#565=AXIS2_PLACEMENT_3D('',#862,#721,#722);
#566=AXIS2_PLACEMENT_3D('',#863,#723,#724);
#567=AXIS2_PLACEMENT_3D('',#864,#725,#726);
#568=AXIS2_PLACEMENT_3D('',#865,#727,#728);
#569=AXIS2_PLACEMENT_3D('',#866,#729,#730);
#570=AXIS2_PLACEMENT_3D('',#867,#731,#732);
#571=DIRECTION('',(0.,0.,1.));
#572=DIRECTION('',(1.,0.,0.));
#573=DIRECTION('',(0.,0.,1.));
#574=DIRECTION('',(1.,0.,0.));
#575=DIRECTION('',(0.,0.,1.));
#576=DIRECTION('',(0.,0.,1.));
#577=DIRECTION('',(1.,0.,0.));
#578=DIRECTION('',(0.,0.,1.));
#579=DIRECTION('',(0.,0.,1.));
#580=DIRECTION('',(1.,0.,0.));
#581=DIRECTION('',(0.,0.,1.));
#582=DIRECTION('',(1.,0.,0.));
#583=DIRECTION('',(0.,0.,-1.));
#584=DIRECTION('',(0.,0.,1.));
#585=DIRECTION('',(1.,0.,0.));
#586=DIRECTION('',(0.,0.,-1.));
#587=DIRECTION('',(0.,0.,1.));
#588=DIRECTION('',(1.,0.,0.));
#589=DIRECTION('',(0.,0.,1.));
#590=DIRECTION('',(1.,0.,0.));
#591=DIRECTION('',(0.,0.,-1.));
#592=DIRECTION('',(0.,0.,1.));
#593=DIRECTION('',(1.,0.,0.));
#594=DIRECTION('',(0.,0.,-1.));
#595=DIRECTION('',(0.,0.,1.));
#596=DIRECTION('',(1.,0.,0.));
#597=DIRECTION('',(0.,0.,1.));
#598=DIRECTION('',(1.,0.,0.));
#599=DIRECTION('',(0.,0.,1.));
#600=DIRECTION('',(0.,0.,1.));
#601=DIRECTION('',(1.,0.,0.));
#602=DIRECTION('',(0.,0.,1.));
#603=DIRECTION('',(0.,0.,1.));
#604=DIRECTION('',(1.,0.,0.));
#605=DIRECTION('',(0.,-1.,0.));
#606=DIRECTION('',(0.,0.,-1.));
#607=DIRECTION('',(1.,0.,0.));
#608=DIRECTION('',(1.,0.,0.));
#609=DIRECTION('',(0.,1.,0.));
#610=DIRECTION('',(0.,0.,1.));
#611=DIRECTION('',(-1.,0.,0.));
#612=DIRECTION('',(-1.,0.,0.));
#613=DIRECTION('',(0.,-1.,0.));
#614=DIRECTION('',(0.,0.,-1.));
#615=DIRECTION('',(1.,0.,0.));
#616=DIRECTION('',(0.,0.,1.));
#617=DIRECTION('',(-1.,0.,0.));
#618=DIRECTION('',(0.,0.,1.));
#619=DIRECTION('',(0.,1.,0.));
#620=DIRECTION('',(0.,0.,1.));
#621=DIRECTION('',(0.,0.,1.));
#622=DIRECTION('',(1.,0.,0.));
#623=DIRECTION('',(0.,0.,-1.));
#624=DIRECTION('',(-1.,0.,0.));
#625=DIRECTION('',(1.,0.,0.));
#626=DIRECTION('',(0.,0.,-1.));
#627=DIRECTION('',(0.,1.,0.));
#628=DIRECTION('',(0.,-1.,0.));
#629=DIRECTION('',(1.,0.,0.));
#630=DIRECTION('',(0.,0.,-1.));
#631=DIRECTION('',(0.,1.,0.));
#632=DIRECTION('',(0.,1.,0.));
#633=DIRECTION('',(0.,0.,-1.));
#634=DIRECTION('',(-1.,0.,0.));
#635=DIRECTION('',(0.,0.,-1.));
#636=DIRECTION('',(0.,1.,0.));
#637=DIRECTION('',(0.,-1.,0.));
#638=DIRECTION('',(0.,0.,1.));
#639=DIRECTION('',(1.,0.,0.));
#640=DIRECTION('',(0.,0.,-1.));
#641=DIRECTION('',(-1.,0.,0.));
#642=DIRECTION('',(0.,0.,-1.));
#643=DIRECTION('',(1.,0.,0.));
#644=DIRECTION('',(0.,0.,1.));
#645=DIRECTION('',(1.,0.,0.));
#646=DIRECTION('',(-1.,0.,0.));
#647=DIRECTION('',(0.,-1.,0.));
#648=DIRECTION('',(1.,0.,0.));
#649=DIRECTION('',(0.,1.,0.));
#650=DIRECTION('',(0.,1.,0.));
#651=DIRECTION('',(-1.,0.,0.));
#652=DIRECTION('',(0.,0.,1.));
#653=DIRECTION('',(1.,0.,0.));
#654=DIRECTION('',(0.,0.,-1.));
#655=DIRECTION('',(0.,-1.,0.));
#656=DIRECTION('',(0.,-1.,0.));
#657=DIRECTION('',(0.,1.,0.));
#658=DIRECTION('',(0.,0.,1.));
#659=DIRECTION('',(0.,1.,0.));
#660=DIRECTION('',(0.,0.,1.));
#661=DIRECTION('',(0.,-1.,0.));
#662=DIRECTION('',(0.,0.,-1.));
#663=DIRECTION('',(1.,0.,0.));
#664=DIRECTION('',(0.,0.,-1.));
#665=DIRECTION('',(1.,0.,0.));
#666=DIRECTION('',(0.,0.,-1.));
#667=DIRECTION('',(0.,0.,1.));
#668=DIRECTION('',(1.,0.,0.));
#669=DIRECTION('',(1.,0.,0.));
#670=DIRECTION('',(0.,0.,-1.));
#671=DIRECTION('',(-1.,0.,0.));
#672=DIRECTION('',(0.,0.,1.));
#673=DIRECTION('',(-1.,0.,0.));
#674=DIRECTION('',(0.,0.,1.));
#675=DIRECTION('',(0.,1.,0.));
#676=DIRECTION('',(0.,0.,1.));
#677=DIRECTION('',(0.,-1.,0.));
#678=DIRECTION('',(0.,0.,-1.));
#679=DIRECTION('',(0.,1.,0.));
#680=DIRECTION('',(0.,0.,1.));
#681=DIRECTION('',(1.,0.,0.));
#682=DIRECTION('',(0.,0.,-1.));
#683=DIRECTION('',(-1.,0.,0.));
#684=DIRECTION('',(0.,0.,1.));
#685=DIRECTION('',(0.,0.,1.));
#686=DIRECTION('',(1.,0.,0.));
#687=DIRECTION('',(0.,0.,1.));
#688=DIRECTION('',(1.,0.,0.));
#689=DIRECTION('',(0.,0.,1.));
#690=DIRECTION('',(1.,0.,0.));
#691=DIRECTION('',(0.,0.,-1.));
#692=DIRECTION('',(0.,1.,0.));
#693=DIRECTION('',(0.,0.,-1.));
#694=DIRECTION('',(-1.,0.,0.));
#695=DIRECTION('',(0.,0.,1.));
#696=DIRECTION('',(1.,0.,0.));
#697=DIRECTION('',(1.,0.,0.));
#698=DIRECTION('',(0.,-1.,0.));
#699=DIRECTION('',(-1.,0.,0.));
#700=DIRECTION('',(0.,1.,0.));
#701=DIRECTION('',(0.,-1.,0.));
#702=DIRECTION('',(0.,0.,-1.));
#703=DIRECTION('',(0.,1.,0.));
#704=DIRECTION('',(0.,0.,1.));
#705=DIRECTION('',(0.,-1.,0.));
#706=DIRECTION('',(0.,0.,-1.));
#707=DIRECTION('',(0.,0.,1.));
#708=DIRECTION('',(1.,0.,0.));
#709=DIRECTION('',(-1.,0.,0.));
#710=DIRECTION('',(0.,0.,1.));
#711=DIRECTION('',(0.,0.,1.));
#712=DIRECTION('',(1.,0.,0.));
#713=DIRECTION('',(-1.,0.,0.));
#714=DIRECTION('',(0.,0.,1.));
#715=DIRECTION('',(1.,0.,0.));
#716=DIRECTION('',(0.,0.,-1.));
#717=DIRECTION('',(-1.,0.,0.));
#718=DIRECTION('',(0.,0.,1.));
#719=DIRECTION('',(-1.,0.,0.));
#720=DIRECTION('',(0.,0.,1.));
#721=DIRECTION('',(-1.,0.,0.));
#722=DIRECTION('',(0.,0.,1.));
#723=DIRECTION('',(0.,0.,1.));
#724=DIRECTION('',(1.,0.,0.));
#725=DIRECTION('',(0.,-1.,0.));
#726=DIRECTION('',(0.,0.,-1.));
#727=DIRECTION('',(0.,0.,1.));
#728=DIRECTION('',(1.,0.,0.));
#729=DIRECTION('',(0.,1.,0.));
#730=DIRECTION('',(0.,0.,1.));
#731=DIRECTION('',(0.,-1.,0.));
#732=DIRECTION('',(0.,0.,-1.));
#733=CARTESIAN_POINT('',(0.,0.,0.));
#734=CARTESIAN_POINT('',(38.,-38.,-8.));
#735=CARTESIAN_POINT('',(38.,-39.,-8.));
#736=CARTESIAN_POINT('',(38.,-39.,-9.00000000000001));
#737=CARTESIAN_POINT('',(38.,-39.,4.));
#738=CARTESIAN_POINT('',(38.,-38.,-9.00000000000001));
#739=CARTESIAN_POINT('',(39.,-38.,-9.00000000000001));
#740=CARTESIAN_POINT('',(39.,-38.,-8.));
#741=CARTESIAN_POINT('',(39.,-38.,4.));
#742=CARTESIAN_POINT('',(38.,-38.,4.));
#743=CARTESIAN_POINT('',(-38.,-38.,-8.));
#744=CARTESIAN_POINT('',(-39.,-38.,5.));
#745=CARTESIAN_POINT('',(-39.,-38.,-9.00000000000001));
#746=CARTESIAN_POINT('',(-39.,-38.,4.));
#747=CARTESIAN_POINT('',(-38.,-38.,-9.00000000000001));
#748=CARTESIAN_POINT('',(-38.,-39.,-9.00000000000001));
#749=CARTESIAN_POINT('',(-38.,-39.,-8.));
#750=CARTESIAN_POINT('',(-38.,-39.,4.));
#751=CARTESIAN_POINT('',(-38.,-38.,4.));
#752=CARTESIAN_POINT('',(-38.,38.,5.));
#753=CARTESIAN_POINT('',(-38.,39.,5.));
#754=CARTESIAN_POINT('',(-38.,39.,-9.00000000000001));
#755=CARTESIAN_POINT('',(-38.,39.,4.));
#756=CARTESIAN_POINT('',(-38.,38.,-9.00000000000001));
#757=CARTESIAN_POINT('',(-39.,38.,-9.00000000000001));
#758=CARTESIAN_POINT('',(-39.,38.,-8.));
#759=CARTESIAN_POINT('',(-39.,38.,4.));
#760=CARTESIAN_POINT('',(-38.,38.,4.));
#761=CARTESIAN_POINT('',(38.,38.,-8.));
#762=CARTESIAN_POINT('',(39.,38.,-8.));
#763=CARTESIAN_POINT('',(39.,38.,-9.00000000000001));
#764=CARTESIAN_POINT('',(39.,38.,4.));
#765=CARTESIAN_POINT('',(38.,38.,-9.00000000000001));
#766=CARTESIAN_POINT('',(38.,39.,-9.00000000000001));
#767=CARTESIAN_POINT('',(38.,39.,-8.));
#768=CARTESIAN_POINT('',(38.,39.,4.));
#769=CARTESIAN_POINT('',(38.,38.,4.));
#770=CARTESIAN_POINT('',(-39.,-39.,-8.));
#771=CARTESIAN_POINT('',(38.,-39.,-9.00000000000001));
#772=CARTESIAN_POINT('',(-39.,-39.,4.));
#773=CARTESIAN_POINT('',(39.,39.,-8.));
#774=CARTESIAN_POINT('',(-38.,39.,-9.00000000000001));
#775=CARTESIAN_POINT('',(39.,39.,4.));
#776=CARTESIAN_POINT('',(-37.5,-37.5,-8.));
#777=CARTESIAN_POINT('',(-37.5,-37.5,-5.));
#778=CARTESIAN_POINT('',(-37.5,-37.5,-5.));
#779=CARTESIAN_POINT('',(37.5,-37.5,-5.));
#780=CARTESIAN_POINT('',(-37.5,-37.5,-5.));
#781=CARTESIAN_POINT('',(-37.5,-37.5,5.));
#782=CARTESIAN_POINT('',(-31.,-37.5,5.));
#783=CARTESIAN_POINT('',(37.5,-37.5,5.));
#784=CARTESIAN_POINT('',(37.5,-37.5,-8.));
#785=CARTESIAN_POINT('',(37.5,37.5,-8.));
#786=CARTESIAN_POINT('',(37.5,37.5,-8.));
#787=CARTESIAN_POINT('',(37.5,37.5,-5.));
#788=CARTESIAN_POINT('',(37.5,37.5,5.));
#789=CARTESIAN_POINT('',(37.5,37.5,5.));
#790=CARTESIAN_POINT('',(-37.5,37.5,5.));
#791=CARTESIAN_POINT('',(-37.5,37.5,5.));
#792=CARTESIAN_POINT('',(-37.5,37.5,-5.));
#793=CARTESIAN_POINT('',(37.5,37.5,-5.));
#794=CARTESIAN_POINT('',(37.5,-37.5,-8.));
#795=CARTESIAN_POINT('',(37.5,-37.5,-5.));
#796=CARTESIAN_POINT('',(37.5,-37.5,5.));
#797=CARTESIAN_POINT('',(39.,-39.,-8.));
#798=CARTESIAN_POINT('',(39.,38.,-9.00000000000001));
#799=CARTESIAN_POINT('',(39.,-39.,4.));
#800=CARTESIAN_POINT('',(0.,0.,-5.));
#801=CARTESIAN_POINT('',(0.,0.,-5.));
#802=CARTESIAN_POINT('',(0.,2.25,-5.));
#803=CARTESIAN_POINT('',(-37.5,37.5,-5.));
#804=CARTESIAN_POINT('',(0.,0.,-79.4472194530571));
#805=CARTESIAN_POINT('',(0.,0.,-8.00000000000001));
#806=CARTESIAN_POINT('',(-1.5,0.,-8.00000000000001));
#807=CARTESIAN_POINT('',(0.,0.,-10.));
#808=CARTESIAN_POINT('',(1.5,0.,-10.));
#809=CARTESIAN_POINT('',(0.,0.,5.));
#810=CARTESIAN_POINT('',(0.,38.,5.));
#811=CARTESIAN_POINT('',(38.,38.,5.));
#812=CARTESIAN_POINT('',(-38.,38.,5.));
#813=CARTESIAN_POINT('',(-38.,-39.,5.));
#814=CARTESIAN_POINT('',(-38.,-38.,5.));
#815=CARTESIAN_POINT('',(0.,-38.,5.));
#816=CARTESIAN_POINT('',(38.,-38.,5.));
#817=CARTESIAN_POINT('',(38.,0.,5.));
#818=CARTESIAN_POINT('',(-37.5,-39.,5.));
#819=CARTESIAN_POINT('',(-37.5,-39.,5.));
#820=CARTESIAN_POINT('',(-39.,-39.,5.));
#821=CARTESIAN_POINT('',(-39.,-39.,-9.00000000000001));
#822=CARTESIAN_POINT('',(-39.,39.,4.));
#823=CARTESIAN_POINT('',(38.,0.,4.));
#824=CARTESIAN_POINT('',(38.,38.,4.));
#825=CARTESIAN_POINT('',(38.,-38.,4.));
#826=CARTESIAN_POINT('',(38.,38.,4.));
#827=CARTESIAN_POINT('',(38.,38.,4.));
#828=CARTESIAN_POINT('',(38.,-38.,4.));
#829=CARTESIAN_POINT('',(38.,-38.,4.));
#830=CARTESIAN_POINT('',(0.,38.,4.));
#831=CARTESIAN_POINT('',(-38.,38.,4.));
#832=CARTESIAN_POINT('',(-38.,0.,4.));
#833=CARTESIAN_POINT('',(-38.,-38.,4.));
#834=CARTESIAN_POINT('',(-38.,38.,4.));
#835=CARTESIAN_POINT('',(0.,-38.,4.));
#836=CARTESIAN_POINT('',(-38.,-38.,4.));
#837=CARTESIAN_POINT('',(-38.,38.,4.));
#838=CARTESIAN_POINT('',(-38.,-38.,4.));
#839=CARTESIAN_POINT('',(0.,0.,-8.));
#840=CARTESIAN_POINT('',(0.,0.,-8.));
#841=CARTESIAN_POINT('',(0.,2.25,-8.));
#842=CARTESIAN_POINT('',(0.,0.,-8.));
#843=CARTESIAN_POINT('',(38.,-38.,-10.));
#844=CARTESIAN_POINT('',(-38.,-38.,-10.));
#845=CARTESIAN_POINT('',(38.,-38.,-10.));
#846=CARTESIAN_POINT('',(-38.,-38.,-10.));
#847=CARTESIAN_POINT('',(-38.,-38.,-10.));
#848=CARTESIAN_POINT('',(-38.,38.,-10.));
#849=CARTESIAN_POINT('',(38.,38.,-10.));
#850=CARTESIAN_POINT('',(38.,38.,-10.));
#851=CARTESIAN_POINT('',(38.,-38.,-10.));
#852=CARTESIAN_POINT('',(38.,-39.,-9.00000000000001));
#853=CARTESIAN_POINT('',(38.,38.,-9.00000000000001));
#854=CARTESIAN_POINT('',(38.,-38.,-9.00000000000001));
#855=CARTESIAN_POINT('',(38.,38.,-9.00000000000001));
#856=CARTESIAN_POINT('',(38.,38.,-9.00000000000001));
#857=CARTESIAN_POINT('',(38.,-38.,-9.00000000000001));
#858=CARTESIAN_POINT('',(38.,-38.,-9.00000000000001));
#859=CARTESIAN_POINT('',(39.,38.,-9.00000000000001));
#860=CARTESIAN_POINT('',(-38.,38.,-9.00000000000001));
#861=CARTESIAN_POINT('',(-39.,-38.,-9.00000000000001));
#862=CARTESIAN_POINT('',(-38.,-38.,-9.00000000000001));
#863=CARTESIAN_POINT('',(-38.,38.,-9.00000000000001));
#864=CARTESIAN_POINT('',(-38.,38.,-9.00000000000001));
#865=CARTESIAN_POINT('',(-38.,-38.,-9.00000000000001));
#866=CARTESIAN_POINT('',(-38.,-38.,-9.00000000000001));
#867=CARTESIAN_POINT('',(-38.,-39.,-9.00000000000001));
#868=MECHANICAL_DESIGN_GEOMETRIC_PRESENTATION_REPRESENTATION('',(#497),
#869);
#869=(
GEOMETRIC_REPRESENTATION_CONTEXT(3)
GLOBAL_UNCERTAINTY_ASSIGNED_CONTEXT((#870))
GLOBAL_UNIT_ASSIGNED_CONTEXT((#873,#872,#871))
REPRESENTATION_CONTEXT('15_FDML_stimfix_square_mirror_holder_large',
'TOP_LEVEL_ASSEMBLY_PART')
);
#870=UNCERTAINTY_MEASURE_WITH_UNIT(LENGTH_MEASURE(0.005),#873,
'DISTANCE_ACCURACY_VALUE','Maximum Tolerance applied to model');
#871=(
NAMED_UNIT(*)
SI_UNIT($,.STERADIAN.)
SOLID_ANGLE_UNIT()
);
#872=(
NAMED_UNIT(*)
PLANE_ANGLE_UNIT()
SI_UNIT($,.RADIAN.)
);
#873=(
LENGTH_UNIT()
NAMED_UNIT(*)
SI_UNIT(.MILLI.,.METRE.)
);
#874=PRODUCT_DEFINITION_SHAPE('','',#875);
#875=PRODUCT_DEFINITION('','',#877,#876);
#876=PRODUCT_DEFINITION_CONTEXT('',#883,'design');
#877=PRODUCT_DEFINITION_FORMATION_WITH_SPECIFIED_SOURCE('','',#879,
 .NOT_KNOWN.);
#878=PRODUCT_RELATED_PRODUCT_CATEGORY('','',(#879));
#879=PRODUCT('15_FDML_stimfix_square_mirror_holder_large',
'15_FDML_stimfix_square_mirror_holder_large',
'15_FDML_stimfix_square_mirror_holder_large',(#881));
#880=PRODUCT_CATEGORY('','');
#881=PRODUCT_CONTEXT('',#883,'mechanical');
#882=APPLICATION_PROTOCOL_DEFINITION('international standard',
'automotive_design',2010,#883);
#883=APPLICATION_CONTEXT(
'core data for automotive mechanical design processes');
ENDSEC;
END-ISO-10303-21;
