ISO-10303-21;
HEADER;
/* Generated by software containing ST-Developer
 * from STEP Tools, Inc. (www.steptools.com) 
 */
/* OPTION: strings as raw bytes, not using required /X/ escapes */

FILE_DESCRIPTION(
/* description */ ('Unknown'),
/* implementation_level */ '2;1');

FILE_NAME(
/* name */ '16_FDML_stimfix_square_mirror_holder_large_cut_corner',
/* time_stamp */ '2026-09-07T15:00:28+02:00',
/* author */ ('Unknown'),
/* organization */ ('Unknown'),
/* preprocessor_version */ 'ST-DEVELOPER v16.7',
/* originating_system */ 'Solid Edge',
/* authorisation */ 'Unknown');

FILE_SCHEMA (('AUTOMOTIVE_DESIGN {1 0 10303 214 3 1 1}'));
ENDSEC;

DATA;
#10=PROPERTY_DEFINITION_REPRESENTATION(#14,#12);
#11=PROPERTY_DEFINITION_REPRESENTATION(#15,#13);
#12=REPRESENTATION('',(#16),#1019);
#13=REPRESENTATION('',(#17),#1019);
#14=PROPERTY_DEFINITION('pmi validation property','',#1024);
#15=PROPERTY_DEFINITION('pmi validation property','',#1024);
#16=VALUE_REPRESENTATION_ITEM('number of annotations',COUNT_MEASURE(0.));
#17=VALUE_REPRESENTATION_ITEM('number of views',COUNT_MEASURE(0.));
#18=SHAPE_REPRESENTATION_RELATIONSHIP('','',#591,#19);
#19=ADVANCED_BREP_SHAPE_REPRESENTATION('',(#589),#1019);
#20=SPHERICAL_SURFACE('',#622,0.999999999999998);
#21=SPHERICAL_SURFACE('',#624,0.999999999999998);
#22=SPHERICAL_SURFACE('',#633,0.999999999999998);
#23=SPHERICAL_SURFACE('',#634,0.999999999999998);
#24=SPHERICAL_SURFACE('',#642,0.999999999999997);
#25=SPHERICAL_SURFACE('',#644,0.999999999999997);
#26=SPHERICAL_SURFACE('',#654,0.999999999999999);
#27=SPHERICAL_SURFACE('',#656,0.999999999999999);
#28=SPHERICAL_SURFACE('',#662,0.999999999999999);
#29=SPHERICAL_SURFACE('',#664,0.999999999999999);
#30=PLANE('',#605);
#31=PLANE('',#606);
#32=PLANE('',#607);
#33=PLANE('',#608);
#34=PLANE('',#609);
#35=PLANE('',#610);
#36=PLANE('',#611);
#37=PLANE('',#616);
#38=PLANE('',#617);
#39=PLANE('',#618);
#40=PLANE('',#637);
#41=PLANE('',#638);
#42=PLANE('',#650);
#43=CIRCLE('',#594,0.999999999999998);
#44=CIRCLE('',#595,0.999999999999998);
#45=CIRCLE('',#597,0.999999999999998);
#46=CIRCLE('',#598,0.999999999999998);
#47=CIRCLE('',#600,0.999999999999998);
#48=CIRCLE('',#601,0.999999999999998);
#49=CIRCLE('',#603,0.999999999999998);
#50=CIRCLE('',#604,0.999999999999998);
#51=CIRCLE('',#612,2.25);
#52=CIRCLE('',#614,1.5);
#53=CIRCLE('',#615,1.5);
#54=CIRCLE('',#620,0.999999999999998);
#55=CIRCLE('',#621,0.999999999999998);
#56=CIRCLE('',#623,0.999999999999998);
#57=CIRCLE('',#625,0.999999999999998);
#58=CIRCLE('',#627,0.999999999999998);
#59=CIRCLE('',#629,0.999999999999998);
#60=CIRCLE('',#630,0.999999999999998);
#61=CIRCLE('',#632,0.999999999999998);
#62=CIRCLE('',#636,2.25);
#63=CIRCLE('',#640,0.999999999999997);
#64=CIRCLE('',#641,0.999999999999997);
#65=CIRCLE('',#643,0.999999999999997);
#66=CIRCLE('',#645,0.999999999999997);
#67=CIRCLE('',#647,0.999999999999997);
#68=CIRCLE('',#649,0.999999999999997);
#69=CIRCLE('',#652,0.999999999999999);
#70=CIRCLE('',#653,0.999999999999999);
#71=CIRCLE('',#655,0.999999999999999);
#72=CIRCLE('',#657,0.999999999999999);
#73=CIRCLE('',#659,0.999999999999999);
#74=CIRCLE('',#661,0.999999999999999);
#75=CIRCLE('',#663,0.999999999999999);
#76=CIRCLE('',#665,0.999999999999999);
#77=ORIENTED_EDGE('',*,*,#229,.F.);
#78=ORIENTED_EDGE('',*,*,#230,.T.);
#79=ORIENTED_EDGE('',*,*,#231,.F.);
#80=ORIENTED_EDGE('',*,*,#232,.T.);
#81=ORIENTED_EDGE('',*,*,#233,.F.);
#82=ORIENTED_EDGE('',*,*,#234,.T.);
#83=ORIENTED_EDGE('',*,*,#235,.F.);
#84=ORIENTED_EDGE('',*,*,#236,.T.);
#85=ORIENTED_EDGE('',*,*,#237,.F.);
#86=ORIENTED_EDGE('',*,*,#238,.T.);
#87=ORIENTED_EDGE('',*,*,#239,.F.);
#88=ORIENTED_EDGE('',*,*,#240,.T.);
#89=ORIENTED_EDGE('',*,*,#241,.F.);
#90=ORIENTED_EDGE('',*,*,#242,.T.);
#91=ORIENTED_EDGE('',*,*,#243,.F.);
#92=ORIENTED_EDGE('',*,*,#244,.T.);
#93=ORIENTED_EDGE('',*,*,#235,.T.);
#94=ORIENTED_EDGE('',*,*,#245,.T.);
#95=ORIENTED_EDGE('',*,*,#246,.T.);
#96=ORIENTED_EDGE('',*,*,#229,.T.);
#97=ORIENTED_EDGE('',*,*,#247,.T.);
#98=ORIENTED_EDGE('',*,*,#248,.T.);
#99=ORIENTED_EDGE('',*,*,#249,.T.);
#100=ORIENTED_EDGE('',*,*,#237,.T.);
#101=ORIENTED_EDGE('',*,*,#250,.T.);
#102=ORIENTED_EDGE('',*,*,#243,.T.);
#103=ORIENTED_EDGE('',*,*,#251,.F.);
#104=ORIENTED_EDGE('',*,*,#252,.T.);
#105=ORIENTED_EDGE('',*,*,#253,.F.);
#106=ORIENTED_EDGE('',*,*,#254,.F.);
#107=ORIENTED_EDGE('',*,*,#255,.T.);
#108=ORIENTED_EDGE('',*,*,#256,.F.);
#109=ORIENTED_EDGE('',*,*,#257,.T.);
#110=ORIENTED_EDGE('',*,*,#258,.F.);
#111=ORIENTED_EDGE('',*,*,#259,.F.);
#112=ORIENTED_EDGE('',*,*,#254,.T.);
#113=ORIENTED_EDGE('',*,*,#260,.F.);
#114=ORIENTED_EDGE('',*,*,#255,.F.);
#115=ORIENTED_EDGE('',*,*,#231,.T.);
#116=ORIENTED_EDGE('',*,*,#261,.T.);
#117=ORIENTED_EDGE('',*,*,#241,.T.);
#118=ORIENTED_EDGE('',*,*,#262,.T.);
#119=ORIENTED_EDGE('',*,*,#263,.T.);
#120=ORIENTED_EDGE('',*,*,#258,.T.);
#121=ORIENTED_EDGE('',*,*,#264,.T.);
#122=ORIENTED_EDGE('',*,*,#251,.T.);
#123=ORIENTED_EDGE('',*,*,#259,.T.);
#124=ORIENTED_EDGE('',*,*,#265,.F.);
#125=ORIENTED_EDGE('',*,*,#266,.T.);
#126=ORIENTED_EDGE('',*,*,#267,.T.);
#127=ORIENTED_EDGE('',*,*,#268,.T.);
#128=ORIENTED_EDGE('',*,*,#269,.T.);
#129=ORIENTED_EDGE('',*,*,#270,.T.);
#130=ORIENTED_EDGE('',*,*,#271,.T.);
#131=ORIENTED_EDGE('',*,*,#256,.T.);
#132=ORIENTED_EDGE('',*,*,#260,.T.);
#133=ORIENTED_EDGE('',*,*,#253,.T.);
#134=ORIENTED_EDGE('',*,*,#252,.F.);
#135=ORIENTED_EDGE('',*,*,#264,.F.);
#136=ORIENTED_EDGE('',*,*,#257,.F.);
#137=ORIENTED_EDGE('',*,*,#271,.F.);
#138=ORIENTED_EDGE('',*,*,#239,.T.);
#139=ORIENTED_EDGE('',*,*,#272,.T.);
#140=ORIENTED_EDGE('',*,*,#233,.T.);
#141=ORIENTED_EDGE('',*,*,#273,.T.);
#142=ORIENTED_EDGE('',*,*,#274,.F.);
#143=ORIENTED_EDGE('',*,*,#270,.F.);
#144=ORIENTED_EDGE('',*,*,#275,.F.);
#145=ORIENTED_EDGE('',*,*,#262,.F.);
#146=ORIENTED_EDGE('',*,*,#276,.F.);
#147=ORIENTED_EDGE('',*,*,#274,.T.);
#148=ORIENTED_EDGE('',*,*,#244,.F.);
#149=ORIENTED_EDGE('',*,*,#232,.F.);
#150=ORIENTED_EDGE('',*,*,#275,.T.);
#151=ORIENTED_EDGE('',*,*,#277,.F.);
#152=ORIENTED_EDGE('',*,*,#276,.T.);
#153=ORIENTED_EDGE('',*,*,#250,.F.);
#154=ORIENTED_EDGE('',*,*,#278,.F.);
#155=ORIENTED_EDGE('',*,*,#267,.F.);
#156=ORIENTED_EDGE('',*,*,#279,.F.);
#157=ORIENTED_EDGE('',*,*,#268,.F.);
#158=ORIENTED_EDGE('',*,*,#280,.F.);
#159=ORIENTED_EDGE('',*,*,#273,.F.);
#160=ORIENTED_EDGE('',*,*,#277,.T.);
#161=ORIENTED_EDGE('',*,*,#269,.F.);
#162=ORIENTED_EDGE('',*,*,#281,.F.);
#163=ORIENTED_EDGE('',*,*,#247,.F.);
#164=ORIENTED_EDGE('',*,*,#280,.T.);
#165=ORIENTED_EDGE('',*,*,#278,.T.);
#166=ORIENTED_EDGE('',*,*,#240,.F.);
#167=ORIENTED_EDGE('',*,*,#281,.T.);
#168=ORIENTED_EDGE('',*,*,#279,.T.);
#169=ORIENTED_EDGE('',*,*,#236,.F.);
#170=ORIENTED_EDGE('',*,*,#282,.T.);
#171=ORIENTED_EDGE('',*,*,#263,.F.);
#172=ORIENTED_EDGE('',*,*,#265,.T.);
#173=ORIENTED_EDGE('',*,*,#282,.F.);
#174=ORIENTED_EDGE('',*,*,#283,.T.);
#175=ORIENTED_EDGE('',*,*,#284,.T.);
#176=ORIENTED_EDGE('',*,*,#285,.T.);
#177=ORIENTED_EDGE('',*,*,#286,.T.);
#178=ORIENTED_EDGE('',*,*,#266,.F.);
#179=ORIENTED_EDGE('',*,*,#287,.F.);
#180=ORIENTED_EDGE('',*,*,#261,.F.);
#181=ORIENTED_EDGE('',*,*,#288,.F.);
#182=ORIENTED_EDGE('',*,*,#286,.F.);
#183=ORIENTED_EDGE('',*,*,#242,.F.);
#184=ORIENTED_EDGE('',*,*,#287,.T.);
#185=ORIENTED_EDGE('',*,*,#289,.F.);
#186=ORIENTED_EDGE('',*,*,#288,.T.);
#187=ORIENTED_EDGE('',*,*,#230,.F.);
#188=ORIENTED_EDGE('',*,*,#290,.F.);
#189=ORIENTED_EDGE('',*,*,#285,.F.);
#190=ORIENTED_EDGE('',*,*,#291,.T.);
#191=ORIENTED_EDGE('',*,*,#248,.F.);
#192=ORIENTED_EDGE('',*,*,#289,.T.);
#193=ORIENTED_EDGE('',*,*,#246,.F.);
#194=ORIENTED_EDGE('',*,*,#292,.T.);
#195=ORIENTED_EDGE('',*,*,#283,.F.);
#196=ORIENTED_EDGE('',*,*,#290,.T.);
#197=ORIENTED_EDGE('',*,*,#293,.T.);
#198=ORIENTED_EDGE('',*,*,#294,.T.);
#199=ORIENTED_EDGE('',*,*,#295,.T.);
#200=ORIENTED_EDGE('',*,*,#296,.T.);
#201=ORIENTED_EDGE('',*,*,#297,.F.);
#202=ORIENTED_EDGE('',*,*,#245,.F.);
#203=ORIENTED_EDGE('',*,*,#298,.F.);
#204=ORIENTED_EDGE('',*,*,#296,.F.);
#205=ORIENTED_EDGE('',*,*,#298,.T.);
#206=ORIENTED_EDGE('',*,*,#234,.F.);
#207=ORIENTED_EDGE('',*,*,#299,.F.);
#208=ORIENTED_EDGE('',*,*,#292,.F.);
#209=ORIENTED_EDGE('',*,*,#297,.T.);
#210=ORIENTED_EDGE('',*,*,#300,.F.);
#211=ORIENTED_EDGE('',*,*,#299,.T.);
#212=ORIENTED_EDGE('',*,*,#272,.F.);
#213=ORIENTED_EDGE('',*,*,#301,.F.);
#214=ORIENTED_EDGE('',*,*,#293,.F.);
#215=ORIENTED_EDGE('',*,*,#300,.T.);
#216=ORIENTED_EDGE('',*,*,#295,.F.);
#217=ORIENTED_EDGE('',*,*,#302,.F.);
#218=ORIENTED_EDGE('',*,*,#284,.F.);
#219=ORIENTED_EDGE('',*,*,#301,.T.);
#220=ORIENTED_EDGE('',*,*,#238,.F.);
#221=ORIENTED_EDGE('',*,*,#303,.F.);
#222=ORIENTED_EDGE('',*,*,#291,.F.);
#223=ORIENTED_EDGE('',*,*,#302,.T.);
#224=ORIENTED_EDGE('',*,*,#304,.F.);
#225=ORIENTED_EDGE('',*,*,#303,.T.);
#226=ORIENTED_EDGE('',*,*,#249,.F.);
#227=ORIENTED_EDGE('',*,*,#304,.T.);
#228=ORIENTED_EDGE('',*,*,#294,.F.);
#229=EDGE_CURVE('',#305,#306,#347,.T.);
#230=EDGE_CURVE('',#305,#307,#43,.T.);
#231=EDGE_CURVE('',#308,#307,#348,.F.);
#232=EDGE_CURVE('',#308,#306,#44,.F.);
#233=EDGE_CURVE('',#309,#310,#349,.F.);
#234=EDGE_CURVE('',#309,#311,#45,.T.);
#235=EDGE_CURVE('',#312,#311,#350,.T.);
#236=EDGE_CURVE('',#312,#310,#46,.F.);
#237=EDGE_CURVE('',#313,#314,#351,.F.);
#238=EDGE_CURVE('',#313,#315,#47,.T.);
#239=EDGE_CURVE('',#316,#315,#352,.T.);
#240=EDGE_CURVE('',#316,#314,#48,.F.);
#241=EDGE_CURVE('',#317,#318,#353,.T.);
#242=EDGE_CURVE('',#317,#319,#49,.T.);
#243=EDGE_CURVE('',#320,#319,#354,.F.);
#244=EDGE_CURVE('',#320,#318,#50,.F.);
#245=EDGE_CURVE('',#311,#321,#355,.F.);
#246=EDGE_CURVE('',#321,#305,#356,.T.);
#247=EDGE_CURVE('',#306,#312,#357,.F.);
#248=EDGE_CURVE('',#319,#322,#358,.T.);
#249=EDGE_CURVE('',#322,#313,#359,.F.);
#250=EDGE_CURVE('',#314,#320,#360,.F.);
#251=EDGE_CURVE('',#323,#324,#361,.T.);
#252=EDGE_CURVE('',#323,#325,#362,.T.);
#253=EDGE_CURVE('',#326,#325,#363,.T.);
#254=EDGE_CURVE('',#324,#326,#364,.T.);
#255=EDGE_CURVE('',#327,#328,#365,.T.);
#256=EDGE_CURVE('',#329,#328,#366,.T.);
#257=EDGE_CURVE('',#329,#330,#367,.T.);
#258=EDGE_CURVE('',#327,#330,#368,.T.);
#259=EDGE_CURVE('',#324,#327,#369,.T.);
#260=EDGE_CURVE('',#328,#326,#370,.T.);
#261=EDGE_CURVE('',#307,#317,#371,.T.);
#262=EDGE_CURVE('',#318,#308,#372,.F.);
#263=EDGE_CURVE('',#331,#331,#51,.T.);
#264=EDGE_CURVE('',#330,#323,#373,.T.);
#265=EDGE_CURVE('',#332,#332,#52,.T.);
#266=EDGE_CURVE('',#333,#333,#53,.T.);
#267=EDGE_CURVE('',#334,#335,#374,.T.);
#268=EDGE_CURVE('',#335,#336,#375,.T.);
#269=EDGE_CURVE('',#336,#337,#376,.T.);
#270=EDGE_CURVE('',#337,#334,#377,.T.);
#271=EDGE_CURVE('',#325,#329,#378,.T.);
#272=EDGE_CURVE('',#315,#309,#379,.T.);
#273=EDGE_CURVE('',#310,#316,#380,.F.);
#274=EDGE_CURVE('',#334,#318,#54,.T.);
#275=EDGE_CURVE('',#308,#337,#55,.T.);
#276=EDGE_CURVE('',#334,#320,#56,.F.);
#277=EDGE_CURVE('',#306,#337,#57,.F.);
#278=EDGE_CURVE('',#335,#314,#58,.T.);
#279=EDGE_CURVE('',#336,#310,#59,.T.);
#280=EDGE_CURVE('',#316,#335,#60,.T.);
#281=EDGE_CURVE('',#312,#336,#61,.T.);
#282=EDGE_CURVE('',#338,#338,#62,.T.);
#283=EDGE_CURVE('',#339,#340,#381,.F.);
#284=EDGE_CURVE('',#340,#341,#382,.F.);
#285=EDGE_CURVE('',#341,#342,#383,.F.);
#286=EDGE_CURVE('',#342,#339,#384,.F.);
#287=EDGE_CURVE('',#317,#342,#63,.T.);
#288=EDGE_CURVE('',#339,#307,#64,.T.);
#289=EDGE_CURVE('',#319,#342,#65,.T.);
#290=EDGE_CURVE('',#339,#305,#66,.T.);
#291=EDGE_CURVE('',#341,#322,#67,.T.);
#292=EDGE_CURVE('',#321,#340,#68,.F.);
#293=EDGE_CURVE('',#343,#344,#385,.F.);
#294=EDGE_CURVE('',#344,#345,#386,.T.);
#295=EDGE_CURVE('',#345,#346,#387,.T.);
#296=EDGE_CURVE('',#346,#343,#388,.T.);
#297=EDGE_CURVE('',#321,#346,#69,.T.);
#298=EDGE_CURVE('',#343,#311,#70,.T.);
#299=EDGE_CURVE('',#343,#309,#71,.T.);
#300=EDGE_CURVE('',#340,#346,#72,.T.);
#301=EDGE_CURVE('',#344,#315,#73,.T.);
#302=EDGE_CURVE('',#341,#345,#74,.T.);
#303=EDGE_CURVE('',#344,#313,#75,.T.);
#304=EDGE_CURVE('',#322,#345,#76,.T.);
#305=VERTEX_POINT('',#862);
#306=VERTEX_POINT('',#863);
#307=VERTEX_POINT('',#865);
#308=VERTEX_POINT('',#867);
#309=VERTEX_POINT('',#871);
#310=VERTEX_POINT('',#872);
#311=VERTEX_POINT('',#874);
#312=VERTEX_POINT('',#876);
#313=VERTEX_POINT('',#880);
#314=VERTEX_POINT('',#881);
#315=VERTEX_POINT('',#883);
#316=VERTEX_POINT('',#885);
#317=VERTEX_POINT('',#889);
#318=VERTEX_POINT('',#890);
#319=VERTEX_POINT('',#892);
#320=VERTEX_POINT('',#894);
#321=VERTEX_POINT('',#898);
#322=VERTEX_POINT('',#903);
#323=VERTEX_POINT('',#908);
#324=VERTEX_POINT('',#909);
#325=VERTEX_POINT('',#911);
#326=VERTEX_POINT('',#913);
#327=VERTEX_POINT('',#917);
#328=VERTEX_POINT('',#918);
#329=VERTEX_POINT('',#920);
#330=VERTEX_POINT('',#922);
#331=VERTEX_POINT('',#932);
#332=VERTEX_POINT('',#936);
#333=VERTEX_POINT('',#938);
#334=VERTEX_POINT('',#941);
#335=VERTEX_POINT('',#942);
#336=VERTEX_POINT('',#944);
#337=VERTEX_POINT('',#946);
#338=VERTEX_POINT('',#971);
#339=VERTEX_POINT('',#975);
#340=VERTEX_POINT('',#976);
#341=VERTEX_POINT('',#978);
#342=VERTEX_POINT('',#980);
#343=VERTEX_POINT('',#995);
#344=VERTEX_POINT('',#996);
#345=VERTEX_POINT('',#998);
#346=VERTEX_POINT('',#1000);
#347=LINE('',#861,#389);
#348=LINE('',#866,#390);
#349=LINE('',#870,#391);
#350=LINE('',#875,#392);
#351=LINE('',#879,#393);
#352=LINE('',#884,#394);
#353=LINE('',#888,#395);
#354=LINE('',#893,#396);
#355=LINE('',#897,#397);
#356=LINE('',#899,#398);
#357=LINE('',#900,#399);
#358=LINE('',#902,#400);
#359=LINE('',#904,#401);
#360=LINE('',#905,#402);
#361=LINE('',#907,#403);
#362=LINE('',#910,#404);
#363=LINE('',#912,#405);
#364=LINE('',#914,#406);
#365=LINE('',#916,#407);
#366=LINE('',#919,#408);
#367=LINE('',#921,#409);
#368=LINE('',#923,#410);
#369=LINE('',#925,#411);
#370=LINE('',#926,#412);
#371=LINE('',#928,#413);
#372=LINE('',#929,#414);
#373=LINE('',#933,#415);
#374=LINE('',#940,#416);
#375=LINE('',#943,#417);
#376=LINE('',#945,#418);
#377=LINE('',#947,#419);
#378=LINE('',#948,#420);
#379=LINE('',#951,#421);
#380=LINE('',#952,#422);
#381=LINE('',#974,#423);
#382=LINE('',#977,#424);
#383=LINE('',#979,#425);
#384=LINE('',#981,#426);
#385=LINE('',#994,#427);
#386=LINE('',#997,#428);
#387=LINE('',#999,#429);
#388=LINE('',#1001,#430);
#389=VECTOR('',#671,1000.);
#390=VECTOR('',#674,1000.);
#391=VECTOR('',#679,1000.);
#392=VECTOR('',#682,1000.);
#393=VECTOR('',#687,1000.);
#394=VECTOR('',#690,1000.);
#395=VECTOR('',#695,1000.);
#396=VECTOR('',#698,1000.);
#397=VECTOR('',#703,1000.);
#398=VECTOR('',#704,1000.);
#399=VECTOR('',#705,1000.);
#400=VECTOR('',#708,1000.);
#401=VECTOR('',#709,1000.);
#402=VECTOR('',#710,1000.);
#403=VECTOR('',#713,1000.);
#404=VECTOR('',#714,1000.);
#405=VECTOR('',#715,1000.);
#406=VECTOR('',#716,1000.);
#407=VECTOR('',#719,1000.);
#408=VECTOR('',#720,1000.);
#409=VECTOR('',#721,1000.);
#410=VECTOR('',#722,1000.);
#411=VECTOR('',#725,1000.);
#412=VECTOR('',#726,1000.);
#413=VECTOR('',#729,1000.);
#414=VECTOR('',#730,1000.);
#415=VECTOR('',#735,1000.);
#416=VECTOR('',#744,1000.);
#417=VECTOR('',#745,1000.);
#418=VECTOR('',#746,1000.);
#419=VECTOR('',#747,1000.);
#420=VECTOR('',#748,1000.);
#421=VECTOR('',#753,1000.);
#422=VECTOR('',#754,1000.);
#423=VECTOR('',#795,1000.);
#424=VECTOR('',#796,1000.);
#425=VECTOR('',#797,1000.);
#426=VECTOR('',#798,1000.);
#427=VECTOR('',#823,1000.);
#428=VECTOR('',#824,1000.);
#429=VECTOR('',#825,1000.);
#430=VECTOR('',#826,1000.);
#431=EDGE_LOOP('',(#77,#78,#79,#80));
#432=EDGE_LOOP('',(#81,#82,#83,#84));
#433=EDGE_LOOP('',(#85,#86,#87,#88));
#434=EDGE_LOOP('',(#89,#90,#91,#92));
#435=EDGE_LOOP('',(#93,#94,#95,#96,#97));
#436=EDGE_LOOP('',(#98,#99,#100,#101,#102));
#437=EDGE_LOOP('',(#103,#104,#105,#106));
#438=EDGE_LOOP('',(#107,#108,#109,#110));
#439=EDGE_LOOP('',(#111,#112,#113,#114));
#440=EDGE_LOOP('',(#115,#116,#117,#118));
#441=EDGE_LOOP('',(#119));
#442=EDGE_LOOP('',(#120,#121,#122,#123));
#443=EDGE_LOOP('',(#124));
#444=EDGE_LOOP('',(#125));
#445=EDGE_LOOP('',(#126,#127,#128,#129));
#446=EDGE_LOOP('',(#130,#131,#132,#133));
#447=EDGE_LOOP('',(#134,#135,#136,#137));
#448=EDGE_LOOP('',(#138,#139,#140,#141));
#449=EDGE_LOOP('',(#142,#143,#144,#145));
#450=EDGE_LOOP('',(#146,#147,#148));
#451=EDGE_LOOP('',(#149,#150,#151));
#452=EDGE_LOOP('',(#152,#153,#154,#155));
#453=EDGE_LOOP('',(#156,#157,#158,#159));
#454=EDGE_LOOP('',(#160,#161,#162,#163));
#455=EDGE_LOOP('',(#164,#165,#166));
#456=EDGE_LOOP('',(#167,#168,#169));
#457=EDGE_LOOP('',(#170));
#458=EDGE_LOOP('',(#171));
#459=EDGE_LOOP('',(#172));
#460=EDGE_LOOP('',(#173));
#461=EDGE_LOOP('',(#174,#175,#176,#177));
#462=EDGE_LOOP('',(#178));
#463=EDGE_LOOP('',(#179,#180,#181,#182));
#464=EDGE_LOOP('',(#183,#184,#185));
#465=EDGE_LOOP('',(#186,#187,#188));
#466=EDGE_LOOP('',(#189,#190,#191,#192));
#467=EDGE_LOOP('',(#193,#194,#195,#196));
#468=EDGE_LOOP('',(#197,#198,#199,#200));
#469=EDGE_LOOP('',(#201,#202,#203,#204));
#470=EDGE_LOOP('',(#205,#206,#207));
#471=EDGE_LOOP('',(#208,#209,#210));
#472=EDGE_LOOP('',(#211,#212,#213,#214));
#473=EDGE_LOOP('',(#215,#216,#217,#218));
#474=EDGE_LOOP('',(#219,#220,#221));
#475=EDGE_LOOP('',(#222,#223,#224));
#476=EDGE_LOOP('',(#225,#226,#227,#228));
#477=FACE_BOUND('',#431,.T.);
#478=FACE_BOUND('',#432,.T.);
#479=FACE_BOUND('',#433,.T.);
#480=FACE_BOUND('',#434,.T.);
#481=FACE_BOUND('',#435,.T.);
#482=FACE_BOUND('',#436,.T.);
#483=FACE_BOUND('',#437,.T.);
#484=FACE_BOUND('',#438,.T.);
#485=FACE_BOUND('',#439,.T.);
#486=FACE_BOUND('',#440,.T.);
#487=FACE_BOUND('',#441,.T.);
#488=FACE_BOUND('',#442,.T.);
#489=FACE_BOUND('',#443,.T.);
#490=FACE_BOUND('',#444,.T.);
#491=FACE_BOUND('',#445,.T.);
#492=FACE_BOUND('',#446,.T.);
#493=FACE_BOUND('',#447,.T.);
#494=FACE_BOUND('',#448,.T.);
#495=FACE_BOUND('',#449,.T.);
#496=FACE_BOUND('',#450,.T.);
#497=FACE_BOUND('',#451,.T.);
#498=FACE_BOUND('',#452,.T.);
#499=FACE_BOUND('',#453,.T.);
#500=FACE_BOUND('',#454,.T.);
#501=FACE_BOUND('',#455,.T.);
#502=FACE_BOUND('',#456,.T.);
#503=FACE_BOUND('',#457,.T.);
#504=FACE_BOUND('',#458,.T.);
#505=FACE_BOUND('',#459,.T.);
#506=FACE_BOUND('',#460,.T.);
#507=FACE_BOUND('',#461,.T.);
#508=FACE_BOUND('',#462,.T.);
#509=FACE_BOUND('',#463,.T.);
#510=FACE_BOUND('',#464,.T.);
#511=FACE_BOUND('',#465,.T.);
#512=FACE_BOUND('',#466,.T.);
#513=FACE_BOUND('',#467,.T.);
#514=FACE_BOUND('',#468,.T.);
#515=FACE_BOUND('',#469,.T.);
#516=FACE_BOUND('',#470,.T.);
#517=FACE_BOUND('',#471,.T.);
#518=FACE_BOUND('',#472,.T.);
#519=FACE_BOUND('',#473,.T.);
#520=FACE_BOUND('',#474,.T.);
#521=FACE_BOUND('',#475,.T.);
#522=FACE_BOUND('',#476,.T.);
#523=CYLINDRICAL_SURFACE('',#593,0.999999999999998);
#524=CYLINDRICAL_SURFACE('',#596,0.999999999999998);
#525=CYLINDRICAL_SURFACE('',#599,0.999999999999998);
#526=CYLINDRICAL_SURFACE('',#602,0.999999999999998);
#527=CYLINDRICAL_SURFACE('',#613,1.5);
#528=CYLINDRICAL_SURFACE('',#619,0.999999999999998);
#529=CYLINDRICAL_SURFACE('',#626,0.999999999999998);
#530=CYLINDRICAL_SURFACE('',#628,0.999999999999998);
#531=CYLINDRICAL_SURFACE('',#631,0.999999999999998);
#532=CYLINDRICAL_SURFACE('',#635,2.25);
#533=CYLINDRICAL_SURFACE('',#639,0.999999999999997);
#534=CYLINDRICAL_SURFACE('',#646,0.999999999999997);
#535=CYLINDRICAL_SURFACE('',#648,0.999999999999997);
#536=CYLINDRICAL_SURFACE('',#651,0.999999999999999);
#537=CYLINDRICAL_SURFACE('',#658,0.999999999999999);
#538=CYLINDRICAL_SURFACE('',#660,0.999999999999999);
#539=CYLINDRICAL_SURFACE('',#666,0.999999999999999);
#540=ADVANCED_FACE('',(#477),#523,.T.);
#541=ADVANCED_FACE('',(#478),#524,.T.);
#542=ADVANCED_FACE('',(#479),#525,.T.);
#543=ADVANCED_FACE('',(#480),#526,.T.);
#544=ADVANCED_FACE('',(#481),#30,.T.);
#545=ADVANCED_FACE('',(#482),#31,.T.);
#546=ADVANCED_FACE('',(#483),#32,.F.);
#547=ADVANCED_FACE('',(#484),#33,.F.);
#548=ADVANCED_FACE('',(#485),#34,.F.);
#549=ADVANCED_FACE('',(#486),#35,.T.);
#550=ADVANCED_FACE('',(#487,#488),#36,.F.);
#551=ADVANCED_FACE('',(#489,#490),#527,.F.);
#552=ADVANCED_FACE('',(#491,#492),#37,.T.);
#553=ADVANCED_FACE('',(#493),#38,.F.);
#554=ADVANCED_FACE('',(#494),#39,.F.);
#555=ADVANCED_FACE('',(#495),#528,.T.);
#556=ADVANCED_FACE('',(#496),#20,.T.);
#557=ADVANCED_FACE('',(#497),#21,.T.);
#558=ADVANCED_FACE('',(#498),#529,.T.);
#559=ADVANCED_FACE('',(#499),#530,.T.);
#560=ADVANCED_FACE('',(#500),#531,.T.);
#561=ADVANCED_FACE('',(#501),#22,.T.);
#562=ADVANCED_FACE('',(#502),#23,.T.);
#563=ADVANCED_FACE('',(#503,#504),#532,.F.);
#564=ADVANCED_FACE('',(#505,#506),#40,.F.);
#565=ADVANCED_FACE('',(#507,#508),#41,.F.);
#566=ADVANCED_FACE('',(#509),#533,.T.);
#567=ADVANCED_FACE('',(#510),#24,.T.);
#568=ADVANCED_FACE('',(#511),#25,.T.);
#569=ADVANCED_FACE('',(#512),#534,.T.);
#570=ADVANCED_FACE('',(#513),#535,.T.);
#571=ADVANCED_FACE('',(#514),#42,.F.);
#572=ADVANCED_FACE('',(#515),#536,.T.);
#573=ADVANCED_FACE('',(#516),#26,.T.);
#574=ADVANCED_FACE('',(#517),#27,.T.);
#575=ADVANCED_FACE('',(#518),#537,.T.);
#576=ADVANCED_FACE('',(#519),#538,.T.);
#577=ADVANCED_FACE('',(#520),#28,.T.);
#578=ADVANCED_FACE('',(#521),#29,.T.);
#579=ADVANCED_FACE('',(#522),#539,.T.);
#580=CLOSED_SHELL('',(#540,#541,#542,#543,#544,#545,#546,#547,#548,#549,
#550,#551,#552,#553,#554,#555,#556,#557,#558,#559,#560,#561,#562,#563,#564,
#565,#566,#567,#568,#569,#570,#571,#572,#573,#574,#575,#576,#577,#578,#579));
#581=STYLED_ITEM('',(#582),#589);
#582=PRESENTATION_STYLE_ASSIGNMENT((#583));
#583=SURFACE_STYLE_USAGE(.BOTH.,#584);
#584=SURFACE_SIDE_STYLE('',(#585));
#585=SURFACE_STYLE_FILL_AREA(#586);
#586=FILL_AREA_STYLE('',(#587));
#587=FILL_AREA_STYLE_COLOUR('',#588);
#588=COLOUR_RGB('',0.506983280181885,0.531564235687256,0.550000011920929);
#589=MANIFOLD_SOLID_BREP('',#580);
#590=SHAPE_DEFINITION_REPRESENTATION(#1024,#591);
#591=SHAPE_REPRESENTATION(
'16_FDML_stimfix_square_mirror_holder_large_cut_corner',(#592),#1019);
#592=AXIS2_PLACEMENT_3D('',#859,#667,#668);
#593=AXIS2_PLACEMENT_3D('',#860,#669,#670);
#594=AXIS2_PLACEMENT_3D('',#864,#672,#673);
#595=AXIS2_PLACEMENT_3D('',#868,#675,#676);
#596=AXIS2_PLACEMENT_3D('',#869,#677,#678);
#597=AXIS2_PLACEMENT_3D('',#873,#680,#681);
#598=AXIS2_PLACEMENT_3D('',#877,#683,#684);
#599=AXIS2_PLACEMENT_3D('',#878,#685,#686);
#600=AXIS2_PLACEMENT_3D('',#882,#688,#689);
#601=AXIS2_PLACEMENT_3D('',#886,#691,#692);
#602=AXIS2_PLACEMENT_3D('',#887,#693,#694);
#603=AXIS2_PLACEMENT_3D('',#891,#696,#697);
#604=AXIS2_PLACEMENT_3D('',#895,#699,#700);
#605=AXIS2_PLACEMENT_3D('',#896,#701,#702);
#606=AXIS2_PLACEMENT_3D('',#901,#706,#707);
#607=AXIS2_PLACEMENT_3D('',#906,#711,#712);
#608=AXIS2_PLACEMENT_3D('',#915,#717,#718);
#609=AXIS2_PLACEMENT_3D('',#924,#723,#724);
#610=AXIS2_PLACEMENT_3D('',#927,#727,#728);
#611=AXIS2_PLACEMENT_3D('',#930,#731,#732);
#612=AXIS2_PLACEMENT_3D('',#931,#733,#734);
#613=AXIS2_PLACEMENT_3D('',#934,#736,#737);
#614=AXIS2_PLACEMENT_3D('',#935,#738,#739);
#615=AXIS2_PLACEMENT_3D('',#937,#740,#741);
#616=AXIS2_PLACEMENT_3D('',#939,#742,#743);
#617=AXIS2_PLACEMENT_3D('',#949,#749,#750);
#618=AXIS2_PLACEMENT_3D('',#950,#751,#752);
#619=AXIS2_PLACEMENT_3D('',#953,#755,#756);
#620=AXIS2_PLACEMENT_3D('',#954,#757,#758);
#621=AXIS2_PLACEMENT_3D('',#955,#759,#760);
#622=AXIS2_PLACEMENT_3D('',#956,#761,#762);
#623=AXIS2_PLACEMENT_3D('',#957,#763,#764);
#624=AXIS2_PLACEMENT_3D('',#958,#765,#766);
#625=AXIS2_PLACEMENT_3D('',#959,#767,#768);
#626=AXIS2_PLACEMENT_3D('',#960,#769,#770);
#627=AXIS2_PLACEMENT_3D('',#961,#771,#772);
#628=AXIS2_PLACEMENT_3D('',#962,#773,#774);
#629=AXIS2_PLACEMENT_3D('',#963,#775,#776);
#630=AXIS2_PLACEMENT_3D('',#964,#777,#778);
#631=AXIS2_PLACEMENT_3D('',#965,#779,#780);
#632=AXIS2_PLACEMENT_3D('',#966,#781,#782);
#633=AXIS2_PLACEMENT_3D('',#967,#783,#784);
#634=AXIS2_PLACEMENT_3D('',#968,#785,#786);
#635=AXIS2_PLACEMENT_3D('',#969,#787,#788);
#636=AXIS2_PLACEMENT_3D('',#970,#789,#790);
#637=AXIS2_PLACEMENT_3D('',#972,#791,#792);
#638=AXIS2_PLACEMENT_3D('',#973,#793,#794);
#639=AXIS2_PLACEMENT_3D('',#982,#799,#800);
#640=AXIS2_PLACEMENT_3D('',#983,#801,#802);
#641=AXIS2_PLACEMENT_3D('',#984,#803,#804);
#642=AXIS2_PLACEMENT_3D('',#985,#805,#806);
#643=AXIS2_PLACEMENT_3D('',#986,#807,#808);
#644=AXIS2_PLACEMENT_3D('',#987,#809,#810);
#645=AXIS2_PLACEMENT_3D('',#988,#811,#812);
#646=AXIS2_PLACEMENT_3D('',#989,#813,#814);
#647=AXIS2_PLACEMENT_3D('',#990,#815,#816);
#648=AXIS2_PLACEMENT_3D('',#991,#817,#818);
#649=AXIS2_PLACEMENT_3D('',#992,#819,#820);
#650=AXIS2_PLACEMENT_3D('',#993,#821,#822);
#651=AXIS2_PLACEMENT_3D('',#1002,#827,#828);
#652=AXIS2_PLACEMENT_3D('',#1003,#829,#830);
#653=AXIS2_PLACEMENT_3D('',#1004,#831,#832);
#654=AXIS2_PLACEMENT_3D('',#1005,#833,#834);
#655=AXIS2_PLACEMENT_3D('',#1006,#835,#836);
#656=AXIS2_PLACEMENT_3D('',#1007,#837,#838);
#657=AXIS2_PLACEMENT_3D('',#1008,#839,#840);
#658=AXIS2_PLACEMENT_3D('',#1009,#841,#842);
#659=AXIS2_PLACEMENT_3D('',#1010,#843,#844);
#660=AXIS2_PLACEMENT_3D('',#1011,#845,#846);
#661=AXIS2_PLACEMENT_3D('',#1012,#847,#848);
#662=AXIS2_PLACEMENT_3D('',#1013,#849,#850);
#663=AXIS2_PLACEMENT_3D('',#1014,#851,#852);
#664=AXIS2_PLACEMENT_3D('',#1015,#853,#854);
#665=AXIS2_PLACEMENT_3D('',#1016,#855,#856);
#666=AXIS2_PLACEMENT_3D('',#1017,#857,#858);
#667=DIRECTION('',(0.,0.,1.));
#668=DIRECTION('',(1.,0.,0.));
#669=DIRECTION('',(0.,0.,1.));
#670=DIRECTION('',(1.,0.,0.));
#671=DIRECTION('',(0.,0.,1.));
#672=DIRECTION('',(0.,0.,1.));
#673=DIRECTION('',(1.,0.,0.));
#674=DIRECTION('',(0.,0.,1.));
#675=DIRECTION('',(0.,0.,1.));
#676=DIRECTION('',(1.,0.,0.));
#677=DIRECTION('',(0.,0.,1.));
#678=DIRECTION('',(1.,0.,0.));
#679=DIRECTION('',(0.,0.,-1.));
#680=DIRECTION('',(0.,0.,1.));
#681=DIRECTION('',(1.,0.,0.));
#682=DIRECTION('',(0.,0.,-1.));
#683=DIRECTION('',(0.,0.,1.));
#684=DIRECTION('',(1.,0.,0.));
#685=DIRECTION('',(0.,0.,1.));
#686=DIRECTION('',(1.,0.,0.));
#687=DIRECTION('',(0.,0.,-1.));
#688=DIRECTION('',(0.,0.,1.));
#689=DIRECTION('',(1.,0.,0.));
#690=DIRECTION('',(0.,0.,-1.));
#691=DIRECTION('',(0.,0.,1.));
#692=DIRECTION('',(1.,0.,0.));
#693=DIRECTION('',(0.,0.,1.));
#694=DIRECTION('',(1.,0.,0.));
#695=DIRECTION('',(0.,0.,1.));
#696=DIRECTION('',(0.,0.,1.));
#697=DIRECTION('',(1.,0.,0.));
#698=DIRECTION('',(0.,0.,1.));
#699=DIRECTION('',(0.,0.,1.));
#700=DIRECTION('',(1.,0.,0.));
#701=DIRECTION('',(0.,-1.,0.));
#702=DIRECTION('',(0.,0.,-1.));
#703=DIRECTION('',(-0.707106781186548,0.,0.707106781186547));
#704=DIRECTION('',(1.,0.,0.));
#705=DIRECTION('',(1.,0.,0.));
#706=DIRECTION('',(0.,1.,0.));
#707=DIRECTION('',(0.,0.,1.));
#708=DIRECTION('',(-1.,0.,0.));
#709=DIRECTION('',(0.707106781186548,0.,-0.707106781186547));
#710=DIRECTION('',(-1.,0.,0.));
#711=DIRECTION('',(0.,-1.,0.));
#712=DIRECTION('',(0.,0.,-1.));
#713=DIRECTION('',(1.,0.,0.));
#714=DIRECTION('',(0.,0.,1.));
#715=DIRECTION('',(-1.,0.,0.));
#716=DIRECTION('',(0.,0.,1.));
#717=DIRECTION('',(0.,1.,0.));
#718=DIRECTION('',(0.,0.,1.));
#719=DIRECTION('',(0.,0.,1.));
#720=DIRECTION('',(1.,0.,0.));
#721=DIRECTION('',(0.,0.,-1.));
#722=DIRECTION('',(-1.,0.,0.));
#723=DIRECTION('',(1.,0.,0.));
#724=DIRECTION('',(0.,0.,-1.));
#725=DIRECTION('',(0.,1.,0.));
#726=DIRECTION('',(0.,-1.,0.));
#727=DIRECTION('',(1.,0.,0.));
#728=DIRECTION('',(0.,0.,-1.));
#729=DIRECTION('',(0.,1.,0.));
#730=DIRECTION('',(0.,1.,0.));
#731=DIRECTION('',(0.,0.,-1.));
#732=DIRECTION('',(-1.,0.,0.));
#733=DIRECTION('',(0.,0.,-1.));
#734=DIRECTION('',(0.,1.,0.));
#735=DIRECTION('',(0.,-1.,0.));
#736=DIRECTION('',(0.,0.,1.));
#737=DIRECTION('',(1.,0.,0.));
#738=DIRECTION('',(0.,0.,-1.));
#739=DIRECTION('',(-1.,0.,0.));
#740=DIRECTION('',(0.,0.,-1.));
#741=DIRECTION('',(1.,0.,0.));
#742=DIRECTION('',(0.,0.,1.));
#743=DIRECTION('',(1.,0.,0.));
#744=DIRECTION('',(-1.,0.,0.));
#745=DIRECTION('',(0.,-1.,0.));
#746=DIRECTION('',(1.,0.,0.));
#747=DIRECTION('',(0.,1.,0.));
#748=DIRECTION('',(0.,1.,0.));
#749=DIRECTION('',(-1.,0.,0.));
#750=DIRECTION('',(0.,0.,1.));
#751=DIRECTION('',(1.,0.,0.));
#752=DIRECTION('',(0.,0.,-1.));
#753=DIRECTION('',(0.,-1.,0.));
#754=DIRECTION('',(0.,-1.,0.));
#755=DIRECTION('',(0.,1.,0.));
#756=DIRECTION('',(0.,0.,1.));
#757=DIRECTION('',(0.,1.,0.));
#758=DIRECTION('',(0.,0.,1.));
#759=DIRECTION('',(0.,-1.,0.));
#760=DIRECTION('',(0.,0.,-1.));
#761=DIRECTION('',(1.,0.,0.));
#762=DIRECTION('',(0.,0.,-1.));
#763=DIRECTION('',(1.,0.,0.));
#764=DIRECTION('',(0.,0.,-1.));
#765=DIRECTION('',(0.,0.,1.));
#766=DIRECTION('',(1.,0.,0.));
#767=DIRECTION('',(1.,0.,0.));
#768=DIRECTION('',(0.,0.,-1.));
#769=DIRECTION('',(-1.,0.,0.));
#770=DIRECTION('',(0.,0.,1.));
#771=DIRECTION('',(-1.,0.,0.));
#772=DIRECTION('',(0.,0.,1.));
#773=DIRECTION('',(0.,1.,0.));
#774=DIRECTION('',(0.,0.,1.));
#775=DIRECTION('',(0.,-1.,0.));
#776=DIRECTION('',(0.,0.,-1.));
#777=DIRECTION('',(0.,1.,0.));
#778=DIRECTION('',(0.,0.,1.));
#779=DIRECTION('',(1.,0.,0.));
#780=DIRECTION('',(0.,0.,-1.));
#781=DIRECTION('',(-1.,0.,0.));
#782=DIRECTION('',(0.,0.,1.));
#783=DIRECTION('',(0.,0.,1.));
#784=DIRECTION('',(1.,0.,0.));
#785=DIRECTION('',(0.,0.,1.));
#786=DIRECTION('',(1.,0.,0.));
#787=DIRECTION('',(0.,0.,1.));
#788=DIRECTION('',(1.,0.,0.));
#789=DIRECTION('',(0.,0.,-1.));
#790=DIRECTION('',(0.,1.,0.));
#791=DIRECTION('',(0.,0.,-1.));
#792=DIRECTION('',(-1.,0.,0.));
#793=DIRECTION('',(0.,0.,1.));
#794=DIRECTION('',(1.,0.,0.));
#795=DIRECTION('',(1.,0.,0.));
#796=DIRECTION('',(0.,-1.,0.));
#797=DIRECTION('',(-1.,0.,0.));
#798=DIRECTION('',(0.,1.,0.));
#799=DIRECTION('',(0.,-1.,0.));
#800=DIRECTION('',(0.,0.,-1.));
#801=DIRECTION('',(0.,1.,0.));
#802=DIRECTION('',(0.,0.,1.));
#803=DIRECTION('',(0.,-1.,0.));
#804=DIRECTION('',(0.,0.,-1.));
#805=DIRECTION('',(0.,0.,1.));
#806=DIRECTION('',(1.,0.,0.));
#807=DIRECTION('',(-1.,0.,0.));
#808=DIRECTION('',(0.,0.,1.));
#809=DIRECTION('',(0.,0.,1.));
#810=DIRECTION('',(1.,0.,0.));
#811=DIRECTION('',(-1.,0.,0.));
#812=DIRECTION('',(0.,0.,1.));
#813=DIRECTION('',(1.,0.,0.));
#814=DIRECTION('',(0.,0.,-1.));
#815=DIRECTION('',(1.,0.,0.));
#816=DIRECTION('',(0.,0.,-1.));
#817=DIRECTION('',(-1.,0.,0.));
#818=DIRECTION('',(0.,0.,1.));
#819=DIRECTION('',(-1.,0.,0.));
#820=DIRECTION('',(0.,0.,1.));
#821=DIRECTION('',(0.707106781186547,0.,0.707106781186548));
#822=DIRECTION('',(0.707106781186548,0.,-0.707106781186547));
#823=DIRECTION('',(0.,-1.,0.));
#824=DIRECTION('',(0.707106781186548,0.,-0.707106781186547));
#825=DIRECTION('',(0.,-1.,0.));
#826=DIRECTION('',(-0.707106781186548,0.,0.707106781186547));
#827=DIRECTION('',(0.707106781186548,0.,-0.707106781186547));
#828=DIRECTION('',(-0.707106781186547,0.,-0.707106781186548));
#829=DIRECTION('',(0.707106781186548,0.,-0.707106781186547));
#830=DIRECTION('',(-0.707106781186547,0.,-0.707106781186548));
#831=DIRECTION('',(-0.707106781186548,-6.13317366673348E-16,0.707106781186547));
#832=DIRECTION('',(0.707106781186547,0.,0.707106781186548));
#833=DIRECTION('',(0.707106781186547,0.,0.707106781186548));
#834=DIRECTION('',(0.707106781186548,0.,-0.707106781186547));
#835=DIRECTION('',(0.,1.,0.));
#836=DIRECTION('',(0.,0.,1.));
#837=DIRECTION('',(0.707106781186547,0.,0.707106781186548));
#838=DIRECTION('',(0.707106781186548,0.,-0.707106781186547));
#839=DIRECTION('',(0.,1.,0.));
#840=DIRECTION('',(0.,0.,1.));
#841=DIRECTION('',(0.,-1.,0.));
#842=DIRECTION('',(0.,0.,-1.));
#843=DIRECTION('',(0.,1.,0.));
#844=DIRECTION('',(0.,0.,1.));
#845=DIRECTION('',(0.,-1.,0.));
#846=DIRECTION('',(0.,0.,-1.));
#847=DIRECTION('',(0.,1.,0.));
#848=DIRECTION('',(0.,0.,1.));
#849=DIRECTION('',(0.707106781186547,0.,0.707106781186548));
#850=DIRECTION('',(0.707106781186548,0.,-0.707106781186547));
#851=DIRECTION('',(0.707106781186548,-6.13317366673348E-16,-0.707106781186547));
#852=DIRECTION('',(-0.707106781186547,0.,-0.707106781186548));
#853=DIRECTION('',(0.707106781186547,0.,0.707106781186548));
#854=DIRECTION('',(0.707106781186548,0.,-0.707106781186547));
#855=DIRECTION('',(-0.707106781186547,2.4532694666934E-15,0.707106781186547));
#856=DIRECTION('',(0.707106781186548,0.,0.707106781186548));
#857=DIRECTION('',(-0.707106781186548,0.,0.707106781186547));
#858=DIRECTION('',(0.707106781186547,0.,0.707106781186548));
#859=CARTESIAN_POINT('',(0.,0.,0.));
#860=CARTESIAN_POINT('',(38.,-38.,-8.));
#861=CARTESIAN_POINT('',(38.,-39.,-8.));
#862=CARTESIAN_POINT('',(38.,-39.,-9.00000000000001));
#863=CARTESIAN_POINT('',(38.,-39.,4.));
#864=CARTESIAN_POINT('',(38.,-38.,-9.00000000000001));
#865=CARTESIAN_POINT('',(39.,-38.,-9.00000000000001));
#866=CARTESIAN_POINT('',(39.,-38.,-8.));
#867=CARTESIAN_POINT('',(39.,-38.,4.));
#868=CARTESIAN_POINT('',(38.,-38.,4.));
#869=CARTESIAN_POINT('',(-38.,-38.,-8.));
#870=CARTESIAN_POINT('',(-39.,-38.,5.));
#871=CARTESIAN_POINT('',(-39.,-38.,-4.08578643762692));
#872=CARTESIAN_POINT('',(-39.,-38.,4.));
#873=CARTESIAN_POINT('',(-38.,-38.,-4.08578643762692));
#874=CARTESIAN_POINT('',(-38.,-39.,-4.08578643762692));
#875=CARTESIAN_POINT('',(-38.,-39.,-8.));
#876=CARTESIAN_POINT('',(-38.,-39.,4.));
#877=CARTESIAN_POINT('',(-38.,-38.,4.));
#878=CARTESIAN_POINT('',(-38.,38.,5.));
#879=CARTESIAN_POINT('',(-38.,39.,5.));
#880=CARTESIAN_POINT('',(-38.,39.,-4.08578643762693));
#881=CARTESIAN_POINT('',(-38.,39.,4.));
#882=CARTESIAN_POINT('',(-38.,38.,-4.08578643762693));
#883=CARTESIAN_POINT('',(-39.,38.,-4.08578643762693));
#884=CARTESIAN_POINT('',(-39.,38.,-8.));
#885=CARTESIAN_POINT('',(-39.,38.,4.));
#886=CARTESIAN_POINT('',(-38.,38.,4.));
#887=CARTESIAN_POINT('',(38.,38.,-8.));
#888=CARTESIAN_POINT('',(39.,38.,-8.));
#889=CARTESIAN_POINT('',(39.,38.,-9.00000000000001));
#890=CARTESIAN_POINT('',(39.,38.,4.));
#891=CARTESIAN_POINT('',(38.,38.,-9.00000000000001));
#892=CARTESIAN_POINT('',(38.,39.,-9.00000000000001));
#893=CARTESIAN_POINT('',(38.,39.,-8.));
#894=CARTESIAN_POINT('',(38.,39.,4.));
#895=CARTESIAN_POINT('',(38.,38.,4.));
#896=CARTESIAN_POINT('',(-39.,-39.,-8.));
#897=CARTESIAN_POINT('',(-33.7928932188135,-39.,-8.29289321881346));
#898=CARTESIAN_POINT('',(-33.0857864376269,-39.,-9.00000000000001));
#899=CARTESIAN_POINT('',(38.,-39.,-9.00000000000001));
#900=CARTESIAN_POINT('',(-39.,-39.,4.));
#901=CARTESIAN_POINT('',(39.,39.,-8.));
#902=CARTESIAN_POINT('',(-38.,39.,-9.00000000000001));
#903=CARTESIAN_POINT('',(-33.0857864376269,39.,-9.00000000000001));
#904=CARTESIAN_POINT('',(-37.2928932188135,39.,-4.79289321881347));
#905=CARTESIAN_POINT('',(39.,39.,4.));
#906=CARTESIAN_POINT('',(-37.5,-37.5,-8.));
#907=CARTESIAN_POINT('',(-37.5,-37.5,-5.));
#908=CARTESIAN_POINT('',(-37.5,-37.5,-5.));
#909=CARTESIAN_POINT('',(37.5,-37.5,-5.));
#910=CARTESIAN_POINT('',(-37.5,-37.5,-5.));
#911=CARTESIAN_POINT('',(-37.5,-37.5,5.));
#912=CARTESIAN_POINT('',(-31.,-37.5,5.));
#913=CARTESIAN_POINT('',(37.5,-37.5,5.));
#914=CARTESIAN_POINT('',(37.5,-37.5,-8.));
#915=CARTESIAN_POINT('',(37.5,37.5,-8.));
#916=CARTESIAN_POINT('',(37.5,37.5,-8.));
#917=CARTESIAN_POINT('',(37.5,37.5,-5.));
#918=CARTESIAN_POINT('',(37.5,37.5,5.));
#919=CARTESIAN_POINT('',(37.5,37.5,5.));
#920=CARTESIAN_POINT('',(-37.5,37.5,5.));
#921=CARTESIAN_POINT('',(-37.5,37.5,5.));
#922=CARTESIAN_POINT('',(-37.5,37.5,-5.));
#923=CARTESIAN_POINT('',(37.5,37.5,-5.));
#924=CARTESIAN_POINT('',(37.5,-37.5,-8.));
#925=CARTESIAN_POINT('',(37.5,-37.5,-5.));
#926=CARTESIAN_POINT('',(37.5,-37.5,5.));
#927=CARTESIAN_POINT('',(39.,-39.,-8.));
#928=CARTESIAN_POINT('',(39.,38.,-9.00000000000001));
#929=CARTESIAN_POINT('',(39.,-39.,4.));
#930=CARTESIAN_POINT('',(0.,0.,-5.));
#931=CARTESIAN_POINT('',(0.,0.,-5.));
#932=CARTESIAN_POINT('',(0.,2.25,-5.));
#933=CARTESIAN_POINT('',(-37.5,37.5,-5.));
#934=CARTESIAN_POINT('',(0.,0.,-79.4472194530571));
#935=CARTESIAN_POINT('',(0.,0.,-8.00000000000001));
#936=CARTESIAN_POINT('',(-1.5,0.,-8.00000000000001));
#937=CARTESIAN_POINT('',(0.,0.,-10.));
#938=CARTESIAN_POINT('',(1.5,0.,-10.));
#939=CARTESIAN_POINT('',(0.,0.,5.));
#940=CARTESIAN_POINT('',(0.,38.,5.));
#941=CARTESIAN_POINT('',(38.,38.,5.));
#942=CARTESIAN_POINT('',(-38.,38.,5.));
#943=CARTESIAN_POINT('',(-38.,-39.,5.));
#944=CARTESIAN_POINT('',(-38.,-38.,5.));
#945=CARTESIAN_POINT('',(0.,-38.,5.));
#946=CARTESIAN_POINT('',(38.,-38.,5.));
#947=CARTESIAN_POINT('',(38.,0.,5.));
#948=CARTESIAN_POINT('',(-37.5,-39.,5.));
#949=CARTESIAN_POINT('',(-37.5,-39.,5.));
#950=CARTESIAN_POINT('',(-39.,-39.,5.));
#951=CARTESIAN_POINT('',(-39.,-39.,-4.08578643762693));
#952=CARTESIAN_POINT('',(-39.,39.,4.));
#953=CARTESIAN_POINT('',(38.,0.,4.));
#954=CARTESIAN_POINT('',(38.,38.,4.));
#955=CARTESIAN_POINT('',(38.,-38.,4.));
#956=CARTESIAN_POINT('',(38.,38.,4.));
#957=CARTESIAN_POINT('',(38.,38.,4.));
#958=CARTESIAN_POINT('',(38.,-38.,4.));
#959=CARTESIAN_POINT('',(38.,-38.,4.));
#960=CARTESIAN_POINT('',(0.,38.,4.));
#961=CARTESIAN_POINT('',(-38.,38.,4.));
#962=CARTESIAN_POINT('',(-38.,0.,4.));
#963=CARTESIAN_POINT('',(-38.,-38.,4.));
#964=CARTESIAN_POINT('',(-38.,38.,4.));
#965=CARTESIAN_POINT('',(0.,-38.,4.));
#966=CARTESIAN_POINT('',(-38.,-38.,4.));
#967=CARTESIAN_POINT('',(-38.,38.,4.));
#968=CARTESIAN_POINT('',(-38.,-38.,4.));
#969=CARTESIAN_POINT('',(0.,0.,-8.));
#970=CARTESIAN_POINT('',(0.,0.,-8.));
#971=CARTESIAN_POINT('',(0.,2.25,-8.));
#972=CARTESIAN_POINT('',(0.,0.,-8.));
#973=CARTESIAN_POINT('',(38.,-38.,-10.));
#974=CARTESIAN_POINT('',(-38.,-38.,-10.));
#975=CARTESIAN_POINT('',(38.,-38.,-10.));
#976=CARTESIAN_POINT('',(-33.0857864376269,-38.,-10.));
#977=CARTESIAN_POINT('',(-33.0857864376269,-38.,-10.));
#978=CARTESIAN_POINT('',(-33.0857864376269,38.,-10.));
#979=CARTESIAN_POINT('',(38.,38.,-10.));
#980=CARTESIAN_POINT('',(38.,38.,-10.));
#981=CARTESIAN_POINT('',(38.,-38.,-10.));
#982=CARTESIAN_POINT('',(38.,-39.,-9.00000000000001));
#983=CARTESIAN_POINT('',(38.,38.,-9.00000000000001));
#984=CARTESIAN_POINT('',(38.,-38.,-9.00000000000001));
#985=CARTESIAN_POINT('',(38.,38.,-9.00000000000001));
#986=CARTESIAN_POINT('',(38.,38.,-9.00000000000001));
#987=CARTESIAN_POINT('',(38.,-38.,-9.00000000000001));
#988=CARTESIAN_POINT('',(38.,-38.,-9.00000000000001));
#989=CARTESIAN_POINT('',(39.,38.,-9.00000000000001));
#990=CARTESIAN_POINT('',(-33.0857864376269,38.,-9.00000000000001));
#991=CARTESIAN_POINT('',(-39.,-38.,-9.00000000000001));
#992=CARTESIAN_POINT('',(-33.0857864376269,-38.,-9.00000000000001));
#993=CARTESIAN_POINT('',(-38.,49.4468694592727,-5.50000000000002));
#994=CARTESIAN_POINT('',(-38.7071067811865,49.4468694592727,-4.79289321881347));
#995=CARTESIAN_POINT('',(-38.7071067811865,-38.,-4.79289321881347));
#996=CARTESIAN_POINT('',(-38.7071067811865,38.,-4.79289321881347));
#997=CARTESIAN_POINT('',(-34.5,38.,-9.));
#998=CARTESIAN_POINT('',(-33.7928932188135,38.,-9.70710678118655));
#999=CARTESIAN_POINT('',(-33.7928932188135,49.4468694592727,-9.70710678118655));
#1000=CARTESIAN_POINT('',(-33.7928932188135,-38.,-9.70710678118655));
#1001=CARTESIAN_POINT('',(-38.,-38.,-5.50000000000002));
#1002=CARTESIAN_POINT('',(-37.2928932188135,-38.,-4.79289321881347));
#1003=CARTESIAN_POINT('',(-33.0857864376269,-38.,-9.00000000000001));
#1004=CARTESIAN_POINT('',(-38.,-38.,-4.08578643762692));
#1005=CARTESIAN_POINT('',(-38.,-38.,-4.08578643762692));
#1006=CARTESIAN_POINT('',(-38.,-38.,-4.08578643762692));
#1007=CARTESIAN_POINT('',(-33.0857864376269,-38.,-9.00000000000001));
#1008=CARTESIAN_POINT('',(-33.0857864376269,-38.,-9.));
#1009=CARTESIAN_POINT('',(-38.,-39.,-4.08578643762693));
#1010=CARTESIAN_POINT('',(-38.,38.,-4.08578643762692));
#1011=CARTESIAN_POINT('',(-33.0857864376269,49.4468694592727,-9.));
#1012=CARTESIAN_POINT('',(-33.0857864376269,38.,-9.));
#1013=CARTESIAN_POINT('',(-38.,38.,-4.08578643762693));
#1014=CARTESIAN_POINT('',(-38.,38.,-4.08578643762692));
#1015=CARTESIAN_POINT('',(-33.0857864376269,38.,-9.00000000000001));
#1016=CARTESIAN_POINT('',(-33.0857864376269,38.,-9.00000000000001));
#1017=CARTESIAN_POINT('',(-37.2928932188135,38.,-4.79289321881347));
#1018=MECHANICAL_DESIGN_GEOMETRIC_PRESENTATION_REPRESENTATION('',(#581),
#1019);
#1019=(
GEOMETRIC_REPRESENTATION_CONTEXT(3)
GLOBAL_UNCERTAINTY_ASSIGNED_CONTEXT((#1020))
GLOBAL_UNIT_ASSIGNED_CONTEXT((#1023,#1022,#1021))
REPRESENTATION_CONTEXT(
'16_FDML_stimfix_square_mirror_holder_large_cut_corner',
'TOP_LEVEL_ASSEMBLY_PART')
);
#1020=UNCERTAINTY_MEASURE_WITH_UNIT(LENGTH_MEASURE(0.005),#1023,
'DISTANCE_ACCURACY_VALUE','Maximum Tolerance applied to model');
#1021=(
NAMED_UNIT(*)
SI_UNIT($,.STERADIAN.)
SOLID_ANGLE_UNIT()
);
#1022=(
NAMED_UNIT(*)
PLANE_ANGLE_UNIT()
SI_UNIT($,.RADIAN.)
);
#1023=(
LENGTH_UNIT()
NAMED_UNIT(*)
SI_UNIT(.MILLI.,.METRE.)
);
#1024=PRODUCT_DEFINITION_SHAPE('','',#1025);
#1025=PRODUCT_DEFINITION('','',#1027,#1026);
#1026=PRODUCT_DEFINITION_CONTEXT('',#1033,'design');
#1027=PRODUCT_DEFINITION_FORMATION_WITH_SPECIFIED_SOURCE('','',#1029,
 .NOT_KNOWN.);
#1028=PRODUCT_RELATED_PRODUCT_CATEGORY('','',(#1029));
#1029=PRODUCT('16_FDML_stimfix_square_mirror_holder_large_cut_corner',
'16_FDML_stimfix_square_mirror_holder_large_cut_corner',
'16_FDML_stimfix_square_mirror_holder_large_cut_corner',(#1031));
#1030=PRODUCT_CATEGORY('','');
#1031=PRODUCT_CONTEXT('',#1033,'mechanical');
#1032=APPLICATION_PROTOCOL_DEFINITION('international standard',
'automotive_design',2010,#1033);
#1033=APPLICATION_CONTEXT(
'core data for automotive mechanical design processes');
ENDSEC;
END-ISO-10303-21;
