ISO-10303-21;
HEADER;
/* Generated by software containing ST-Developer
 * from STEP Tools, Inc. (www.steptools.com) 
 */
/* OPTION: strings as raw bytes, not using required /X/ escapes */

FILE_DESCRIPTION(
/* description */ ('Unknown'),
/* implementation_level */ '2;1');

FILE_NAME(
/* name */ '19_FDML_stimfix_Badal_screw_8mm_rotating_handle',
/* time_stamp */ '2026-09-07T15:02:29+02:00',
/* author */ ('Unknown'),
/* organization */ ('Unknown'),
/* preprocessor_version */ 'ST-DEVELOPER v16.7',
/* originating_system */ 'Solid Edge',
/* authorisation */ 'Unknown');

FILE_SCHEMA (('AUTOMOTIVE_DESIGN {1 0 10303 214 3 1 1}'));
ENDSEC;

DATA;
#10=PROPERTY_DEFINITION_REPRESENTATION(#14,#12);
#11=PROPERTY_DEFINITION_REPRESENTATION(#15,#13);
#12=REPRESENTATION('',(#16),#475);
#13=REPRESENTATION('',(#17),#475);
#14=PROPERTY_DEFINITION('pmi validation property','',#480);
#15=PROPERTY_DEFINITION('pmi validation property','',#480);
#16=VALUE_REPRESENTATION_ITEM('number of annotations',COUNT_MEASURE(0.));
#17=VALUE_REPRESENTATION_ITEM('number of views',COUNT_MEASURE(0.));
#18=SHAPE_REPRESENTATION_RELATIONSHIP('','',#238,#19);
#19=ADVANCED_BREP_SHAPE_REPRESENTATION('',(#236),#475);
#20=TOROIDAL_SURFACE('',#265,9.41993295504549,8.02023092455524);
#21=TOROIDAL_SURFACE('',#266,67.734184648923,65.);
#22=SPHERICAL_SURFACE('',#264,3.0625);
#23=PLANE('',#250);
#24=PLANE('',#254);
#25=PLANE('',#261);
#26=B_SPLINE_CURVE_WITH_KNOTS('',3,(#330,#331,#332,#333,#334,#335,#336,
#337,#338,#339,#340),.UNSPECIFIED.,.T.,.F.,(1,1,1,1,1,1,1,1,1,1,1,1,1,1,
1),(-0.00352001402532383,-0.00234667601688256,-0.00117333800844128,3.38078360261293E-19,
0.00117333800844128,0.00234667601688256,0.00352001402532383,0.00469335203376511,
0.00586669004220639,0.00704002805064767,0.00821336605908894,0.00938670406753022,
0.0105600420759715,0.0117333800844128,0.0129067180928541),.UNSPECIFIED.);
#27=B_SPLINE_CURVE_WITH_KNOTS('',3,(#342,#343,#344,#345,#346,#347,#348,
#349,#350,#351,#352),.UNSPECIFIED.,.T.,.F.,(1,1,1,1,1,1,1,1,1,1,1,1,1,1,
1),(-0.00352920154577124,-0.00235280103051416,-0.00117640051525708,4.01053333905317E-19,
0.00117640051525708,0.00235280103051416,0.00352920154577124,0.00470560206102832,
0.0058820025762854,0.00705840309154248,0.00823480360679956,0.00941120412205664,
0.0105876046373137,0.0117640051525708,0.0129404056678279),.UNSPECIFIED.);
#28=B_SPLINE_CURVE_WITH_KNOTS('',3,(#355,#356,#357,#358,#359,#360,#361,
#362,#363,#364,#365),.UNSPECIFIED.,.T.,.F.,(1,1,1,1,1,1,1,1,1,1,1,1,1,1,
1),(-0.00352001402532383,-0.00234667601688256,-0.00117333800844128,4.59885738643677E-19,
0.00117333800844128,0.00234667601688256,0.00352001402532383,0.00469335203376511,
0.00586669004220639,0.00704002805064767,0.00821336605908895,0.00938670406753022,
0.0105600420759715,0.0117333800844128,0.0129067180928541),.UNSPECIFIED.);
#29=B_SPLINE_CURVE_WITH_KNOTS('',3,(#367,#368,#369,#370,#371,#372,#373,
#374,#375,#376,#377),.UNSPECIFIED.,.T.,.F.,(1,1,1,1,1,1,1,1,1,1,1,1,1,1,
1),(-0.00352920154577124,-0.00235280103051416,-0.00117640051525708,1.85023154708676E-20,
0.00117640051525708,0.00235280103051416,0.00352920154577124,0.00470560206102832,
0.00588200257628541,0.00705840309154249,0.00823480360679957,0.00941120412205665,
0.0105876046373137,0.0117640051525708,0.0129404056678279),.UNSPECIFIED.);
#30=B_SPLINE_CURVE_WITH_KNOTS('',3,(#380,#381,#382,#383,#384,#385,#386,
#387,#388,#389,#390),.UNSPECIFIED.,.T.,.F.,(1,1,1,1,1,1,1,1,1,1,1,1,1,1,
1),(-0.00352001402532383,-0.00234667601688256,-0.00117333800844128,4.39344463391501E-20,
0.00117333800844128,0.00234667601688256,0.00352001402532383,0.00469335203376511,
0.00586669004220639,0.00704002805064767,0.00821336605908895,0.00938670406753022,
0.0105600420759715,0.0117333800844128,0.0129067180928541),.UNSPECIFIED.);
#31=B_SPLINE_CURVE_WITH_KNOTS('',3,(#392,#393,#394,#395,#396,#397,#398,
#399,#400,#401,#402),.UNSPECIFIED.,.T.,.F.,(1,1,1,1,1,1,1,1,1,1,1,1,1,1,
1),(-0.00352920154577124,-0.00235280103051416,-0.00117640051525708,1.67434435674866E-19,
0.00117640051525708,0.00235280103051416,0.00352920154577124,0.00470560206102832,
0.0058820025762854,0.00705840309154248,0.00823480360679956,0.00941120412205664,
0.0105876046373137,0.0117640051525708,0.0129404056678279),.UNSPECIFIED.);
#32=B_SPLINE_CURVE_WITH_KNOTS('',3,(#405,#406,#407,#408,#409,#410,#411,
#412,#413,#414,#415),.UNSPECIFIED.,.T.,.F.,(1,1,1,1,1,1,1,1,1,1,1,1,1,1,
1),(-0.00352001402532384,-0.00234667601688256,-0.00117333800844128,1.26732210243472E-20,
0.00117333800844128,0.00234667601688256,0.00352001402532383,0.00469335203376511,
0.00586669004220639,0.00704002805064767,0.00821336605908895,0.00938670406753023,
0.0105600420759715,0.0117333800844128,0.0129067180928541),.UNSPECIFIED.);
#33=B_SPLINE_CURVE_WITH_KNOTS('',3,(#417,#418,#419,#420,#421,#422,#423,
#424,#425,#426,#427),.UNSPECIFIED.,.T.,.F.,(1,1,1,1,1,1,1,1,1,1,1,1,1,1,
1),(-0.00352920154577124,-0.00235280103051416,-0.00117640051525708,1.28130950868337E-20,
0.00117640051525708,0.00235280103051416,0.00352920154577124,0.00470560206102833,
0.00588200257628541,0.00705840309154249,0.00823480360679957,0.00941120412205665,
0.0105876046373137,0.0117640051525708,0.0129404056678279),.UNSPECIFIED.);
#34=B_SPLINE_CURVE_WITH_KNOTS('',3,(#455,#456,#457,#458,#459,#460,#461,
#462),.UNSPECIFIED.,.F.,.F.,(4,1,1,1,1,4),(3.67243963836437E-6,0.00228822146989491,
0.00457277050015145,0.00571504501527973,0.006857319530408,0.00914186856066455),
 .UNSPECIFIED.);
#35=B_SPLINE_CURVE_WITH_KNOTS('',3,(#463,#464,#465,#466,#467,#468,#469,
#470),.UNSPECIFIED.,.F.,.F.,(4,1,1,1,1,4),(0.00914186856066455,0.0114236603888932,
0.0125645563030075,0.0137054522171218,0.0159872440453504,0.018269035873579),
 .UNSPECIFIED.);
#36=ORIENTED_EDGE('',*,*,#80,.T.);
#37=ORIENTED_EDGE('',*,*,#81,.F.);
#38=ORIENTED_EDGE('',*,*,#82,.T.);
#39=ORIENTED_EDGE('',*,*,#83,.F.);
#40=ORIENTED_EDGE('',*,*,#84,.T.);
#41=ORIENTED_EDGE('',*,*,#85,.F.);
#42=ORIENTED_EDGE('',*,*,#86,.T.);
#43=ORIENTED_EDGE('',*,*,#87,.F.);
#44=ORIENTED_EDGE('',*,*,#88,.T.);
#45=ORIENTED_EDGE('',*,*,#89,.F.);
#46=ORIENTED_EDGE('',*,*,#90,.F.);
#47=ORIENTED_EDGE('',*,*,#91,.T.);
#48=ORIENTED_EDGE('',*,*,#84,.F.);
#49=ORIENTED_EDGE('',*,*,#88,.F.);
#50=ORIENTED_EDGE('',*,*,#86,.F.);
#51=ORIENTED_EDGE('',*,*,#82,.F.);
#52=ORIENTED_EDGE('',*,*,#92,.T.);
#53=ORIENTED_EDGE('',*,*,#93,.T.);
#54=ORIENTED_EDGE('',*,*,#94,.T.);
#55=ORIENTED_EDGE('',*,*,#90,.T.);
#56=ORIENTED_EDGE('',*,*,#95,.T.);
#57=ORIENTED_EDGE('',*,*,#91,.F.);
#58=ORIENTED_EDGE('',*,*,#87,.T.);
#59=ORIENTED_EDGE('',*,*,#89,.T.);
#60=ORIENTED_EDGE('',*,*,#96,.T.);
#61=ORIENTED_EDGE('',*,*,#85,.T.);
#62=ORIENTED_EDGE('',*,*,#83,.T.);
#63=ORIENTED_EDGE('',*,*,#97,.F.);
#64=ORIENTED_EDGE('',*,*,#98,.T.);
#65=ORIENTED_EDGE('',*,*,#95,.F.);
#66=ORIENTED_EDGE('',*,*,#97,.T.);
#67=ORIENTED_EDGE('',*,*,#98,.F.);
#68=ORIENTED_EDGE('',*,*,#99,.T.);
#69=ORIENTED_EDGE('',*,*,#100,.F.);
#70=ORIENTED_EDGE('',*,*,#92,.F.);
#71=ORIENTED_EDGE('',*,*,#94,.F.);
#72=ORIENTED_EDGE('',*,*,#101,.F.);
#73=ORIENTED_EDGE('',*,*,#80,.F.);
#74=ORIENTED_EDGE('',*,*,#93,.F.);
#75=ORIENTED_EDGE('',*,*,#100,.T.);
#76=ORIENTED_EDGE('',*,*,#96,.F.);
#77=ORIENTED_EDGE('',*,*,#101,.T.);
#78=ORIENTED_EDGE('',*,*,#81,.T.);
#79=ORIENTED_EDGE('',*,*,#99,.F.);
#80=EDGE_CURVE('',#102,#102,#121,.T.);
#81=EDGE_CURVE('',#103,#103,#122,.T.);
#82=EDGE_CURVE('',#104,#104,#26,.T.);
#83=EDGE_CURVE('',#105,#105,#27,.T.);
#84=EDGE_CURVE('',#106,#106,#28,.T.);
#85=EDGE_CURVE('',#107,#107,#29,.T.);
#86=EDGE_CURVE('',#108,#108,#30,.T.);
#87=EDGE_CURVE('',#109,#109,#31,.T.);
#88=EDGE_CURVE('',#110,#110,#32,.T.);
#89=EDGE_CURVE('',#111,#111,#33,.T.);
#90=EDGE_CURVE('',#112,#112,#123,.F.);
#91=EDGE_CURVE('',#113,#113,#124,.T.);
#92=EDGE_CURVE('',#112,#114,#125,.T.);
#93=EDGE_CURVE('',#114,#115,#126,.T.);
#94=EDGE_CURVE('',#115,#112,#127,.T.);
#95=EDGE_CURVE('',#116,#116,#128,.T.);
#96=EDGE_CURVE('',#117,#117,#129,.F.);
#97=EDGE_CURVE('',#118,#118,#130,.T.);
#98=EDGE_CURVE('',#119,#119,#131,.T.);
#99=EDGE_CURVE('',#120,#120,#132,.T.);
#100=EDGE_CURVE('',#114,#117,#34,.T.);
#101=EDGE_CURVE('',#117,#115,#35,.T.);
#102=VERTEX_POINT('',#326);
#103=VERTEX_POINT('',#328);
#104=VERTEX_POINT('',#341);
#105=VERTEX_POINT('',#353);
#106=VERTEX_POINT('',#366);
#107=VERTEX_POINT('',#378);
#108=VERTEX_POINT('',#391);
#109=VERTEX_POINT('',#403);
#110=VERTEX_POINT('',#416);
#111=VERTEX_POINT('',#428);
#112=VERTEX_POINT('',#431);
#113=VERTEX_POINT('',#433);
#114=VERTEX_POINT('',#436);
#115=VERTEX_POINT('',#438);
#116=VERTEX_POINT('',#442);
#117=VERTEX_POINT('',#445);
#118=VERTEX_POINT('',#447);
#119=VERTEX_POINT('',#450);
#120=VERTEX_POINT('',#454);
#121=CIRCLE('',#241,3.0625);
#122=CIRCLE('',#242,3.06249999999997);
#123=CIRCLE('',#248,12.5);
#124=CIRCLE('',#249,12.5);
#125=CIRCLE('',#251,3.0625);
#126=CIRCLE('',#252,12.464865910091);
#127=CIRCLE('',#253,3.0625);
#128=CIRCLE('',#255,7.5);
#129=CIRCLE('',#257,6.375);
#130=CIRCLE('',#258,6.375);
#131=CIRCLE('',#260,7.5);
#132=CIRCLE('',#263,3.06249999999997);
#133=EDGE_LOOP('',(#36));
#134=EDGE_LOOP('',(#37));
#135=EDGE_LOOP('',(#38));
#136=EDGE_LOOP('',(#39));
#137=EDGE_LOOP('',(#40));
#138=EDGE_LOOP('',(#41));
#139=EDGE_LOOP('',(#42));
#140=EDGE_LOOP('',(#43));
#141=EDGE_LOOP('',(#44));
#142=EDGE_LOOP('',(#45));
#143=EDGE_LOOP('',(#46));
#144=EDGE_LOOP('',(#47));
#145=EDGE_LOOP('',(#48));
#146=EDGE_LOOP('',(#49));
#147=EDGE_LOOP('',(#50));
#148=EDGE_LOOP('',(#51));
#149=EDGE_LOOP('',(#52,#53,#54,#55));
#150=EDGE_LOOP('',(#56));
#151=EDGE_LOOP('',(#57));
#152=EDGE_LOOP('',(#58));
#153=EDGE_LOOP('',(#59));
#154=EDGE_LOOP('',(#60));
#155=EDGE_LOOP('',(#61));
#156=EDGE_LOOP('',(#62));
#157=EDGE_LOOP('',(#63));
#158=EDGE_LOOP('',(#64));
#159=EDGE_LOOP('',(#65));
#160=EDGE_LOOP('',(#66));
#161=EDGE_LOOP('',(#67));
#162=EDGE_LOOP('',(#68));
#163=EDGE_LOOP('',(#69,#70,#71,#72));
#164=EDGE_LOOP('',(#73));
#165=EDGE_LOOP('',(#74,#75,#76,#77));
#166=EDGE_LOOP('',(#78));
#167=EDGE_LOOP('',(#79));
#168=FACE_BOUND('',#133,.T.);
#169=FACE_BOUND('',#134,.T.);
#170=FACE_BOUND('',#135,.T.);
#171=FACE_BOUND('',#136,.T.);
#172=FACE_BOUND('',#137,.T.);
#173=FACE_BOUND('',#138,.T.);
#174=FACE_BOUND('',#139,.T.);
#175=FACE_BOUND('',#140,.T.);
#176=FACE_BOUND('',#141,.T.);
#177=FACE_BOUND('',#142,.T.);
#178=FACE_BOUND('',#143,.T.);
#179=FACE_BOUND('',#144,.T.);
#180=FACE_BOUND('',#145,.T.);
#181=FACE_BOUND('',#146,.T.);
#182=FACE_BOUND('',#147,.T.);
#183=FACE_BOUND('',#148,.T.);
#184=FACE_BOUND('',#149,.T.);
#185=FACE_BOUND('',#150,.T.);
#186=FACE_BOUND('',#151,.T.);
#187=FACE_BOUND('',#152,.T.);
#188=FACE_BOUND('',#153,.T.);
#189=FACE_BOUND('',#154,.T.);
#190=FACE_BOUND('',#155,.T.);
#191=FACE_BOUND('',#156,.T.);
#192=FACE_BOUND('',#157,.T.);
#193=FACE_BOUND('',#158,.T.);
#194=FACE_BOUND('',#159,.T.);
#195=FACE_BOUND('',#160,.T.);
#196=FACE_BOUND('',#161,.T.);
#197=FACE_BOUND('',#162,.T.);
#198=FACE_BOUND('',#163,.T.);
#199=FACE_BOUND('',#164,.T.);
#200=FACE_BOUND('',#165,.T.);
#201=FACE_BOUND('',#166,.T.);
#202=FACE_BOUND('',#167,.T.);
#203=CYLINDRICAL_SURFACE('',#240,3.0625);
#204=CYLINDRICAL_SURFACE('',#243,1.5);
#205=CYLINDRICAL_SURFACE('',#244,1.5);
#206=CYLINDRICAL_SURFACE('',#245,1.5);
#207=CYLINDRICAL_SURFACE('',#246,1.5);
#208=CYLINDRICAL_SURFACE('',#247,12.5);
#209=CYLINDRICAL_SURFACE('',#256,6.375);
#210=CYLINDRICAL_SURFACE('',#259,7.5);
#211=CYLINDRICAL_SURFACE('',#262,3.0625);
#212=ADVANCED_FACE('',(#168,#169),#203,.T.);
#213=ADVANCED_FACE('',(#170,#171),#204,.F.);
#214=ADVANCED_FACE('',(#172,#173),#205,.F.);
#215=ADVANCED_FACE('',(#174,#175),#206,.F.);
#216=ADVANCED_FACE('',(#176,#177),#207,.F.);
#217=ADVANCED_FACE('',(#178,#179,#180,#181,#182,#183),#208,.T.);
#218=ADVANCED_FACE('',(#184),#23,.F.);
#219=ADVANCED_FACE('',(#185,#186),#24,.T.);
#220=ADVANCED_FACE('',(#187,#188,#189,#190,#191,#192),#209,.F.);
#221=ADVANCED_FACE('',(#193,#194),#210,.T.);
#222=ADVANCED_FACE('',(#195,#196),#25,.F.);
#223=ADVANCED_FACE('',(#197,#198),#211,.T.);
#224=ADVANCED_FACE('',(#199),#22,.T.);
#225=ADVANCED_FACE('',(#200),#20,.T.);
#226=ADVANCED_FACE('',(#201,#202),#21,.F.);
#227=CLOSED_SHELL('',(#212,#213,#214,#215,#216,#217,#218,#219,#220,#221,
#222,#223,#224,#225,#226));
#228=STYLED_ITEM('',(#229),#236);
#229=PRESENTATION_STYLE_ASSIGNMENT((#230));
#230=SURFACE_STYLE_USAGE(.BOTH.,#231);
#231=SURFACE_SIDE_STYLE('',(#232));
#232=SURFACE_STYLE_FILL_AREA(#233);
#233=FILL_AREA_STYLE('',(#234));
#234=FILL_AREA_STYLE_COLOUR('',#235);
#235=COLOUR_RGB('',0.506983280181885,0.531564235687256,0.550000011920929);
#236=MANIFOLD_SOLID_BREP('',#227);
#237=SHAPE_DEFINITION_REPRESENTATION(#480,#238);
#238=SHAPE_REPRESENTATION(
'19_FDML_stimfix_Badal_screw_8mm_rotating_handle',(#239),#475);
#239=AXIS2_PLACEMENT_3D('',#323,#267,#268);
#240=AXIS2_PLACEMENT_3D('',#324,#269,#270);
#241=AXIS2_PLACEMENT_3D('',#325,#271,#272);
#242=AXIS2_PLACEMENT_3D('',#327,#273,#274);
#243=AXIS2_PLACEMENT_3D('',#329,#275,#276);
#244=AXIS2_PLACEMENT_3D('',#354,#277,#278);
#245=AXIS2_PLACEMENT_3D('',#379,#279,#280);
#246=AXIS2_PLACEMENT_3D('',#404,#281,#282);
#247=AXIS2_PLACEMENT_3D('',#429,#283,#284);
#248=AXIS2_PLACEMENT_3D('',#430,#285,#286);
#249=AXIS2_PLACEMENT_3D('',#432,#287,#288);
#250=AXIS2_PLACEMENT_3D('',#434,#289,#290);
#251=AXIS2_PLACEMENT_3D('',#435,#291,#292);
#252=AXIS2_PLACEMENT_3D('',#437,#293,#294);
#253=AXIS2_PLACEMENT_3D('',#439,#295,#296);
#254=AXIS2_PLACEMENT_3D('',#440,#297,#298);
#255=AXIS2_PLACEMENT_3D('',#441,#299,#300);
#256=AXIS2_PLACEMENT_3D('',#443,#301,#302);
#257=AXIS2_PLACEMENT_3D('',#444,#303,#304);
#258=AXIS2_PLACEMENT_3D('',#446,#305,#306);
#259=AXIS2_PLACEMENT_3D('',#448,#307,#308);
#260=AXIS2_PLACEMENT_3D('',#449,#309,#310);
#261=AXIS2_PLACEMENT_3D('',#451,#311,#312);
#262=AXIS2_PLACEMENT_3D('',#452,#313,#314);
#263=AXIS2_PLACEMENT_3D('',#453,#315,#316);
#264=AXIS2_PLACEMENT_3D('',#471,#317,#318);
#265=AXIS2_PLACEMENT_3D('',#472,#319,#320);
#266=AXIS2_PLACEMENT_3D('',#473,#321,#322);
#267=DIRECTION('',(0.,0.,1.));
#268=DIRECTION('',(1.,0.,0.));
#269=DIRECTION('',(0.,0.,-1.));
#270=DIRECTION('',(-1.,0.,0.));
#271=DIRECTION('',(0.,0.,-1.));
#272=DIRECTION('',(-1.,0.,0.));
#273=DIRECTION('',(0.,0.,-1.));
#274=DIRECTION('',(-1.,0.,0.));
#275=DIRECTION('',(0.,1.,0.));
#276=DIRECTION('',(0.,0.,1.));
#277=DIRECTION('',(0.,1.,0.));
#278=DIRECTION('',(0.,0.,1.));
#279=DIRECTION('',(0.,1.,0.));
#280=DIRECTION('',(0.,0.,1.));
#281=DIRECTION('',(0.,1.,0.));
#282=DIRECTION('',(0.,0.,1.));
#283=DIRECTION('',(0.,0.,-1.));
#284=DIRECTION('',(-1.,0.,0.));
#285=DIRECTION('',(0.,0.,-1.));
#286=DIRECTION('',(-1.,0.,0.));
#287=DIRECTION('',(0.,0.,1.));
#288=DIRECTION('',(1.,0.,0.));
#289=DIRECTION('',(0.,0.,-1.));
#290=DIRECTION('',(-1.,0.,0.));
#291=DIRECTION('',(0.,0.,-1.));
#292=DIRECTION('',(-1.,0.,0.));
#293=DIRECTION('',(0.,0.,-1.));
#294=DIRECTION('',(-1.,0.,0.));
#295=DIRECTION('',(0.,0.,-1.));
#296=DIRECTION('',(-1.,0.,0.));
#297=DIRECTION('',(0.,0.,-1.));
#298=DIRECTION('',(-1.,0.,0.));
#299=DIRECTION('',(0.,0.,1.));
#300=DIRECTION('',(1.,0.,0.));
#301=DIRECTION('',(0.,0.,-1.));
#302=DIRECTION('',(-1.,0.,0.));
#303=DIRECTION('',(0.,0.,-1.));
#304=DIRECTION('',(-1.,0.,0.));
#305=DIRECTION('',(0.,0.,1.));
#306=DIRECTION('',(1.,0.,0.));
#307=DIRECTION('',(0.,0.,1.));
#308=DIRECTION('',(1.,0.,0.));
#309=DIRECTION('',(0.,0.,1.));
#310=DIRECTION('',(1.,0.,0.));
#311=DIRECTION('',(0.,0.,1.));
#312=DIRECTION('',(1.,0.,0.));
#313=DIRECTION('',(0.,0.,-1.));
#314=DIRECTION('',(-1.,0.,0.));
#315=DIRECTION('',(0.,0.,-1.));
#316=DIRECTION('',(-1.,0.,0.));
#317=DIRECTION('',(-1.,-1.22464679914735E-16,0.));
#318=DIRECTION('',(1.19300757461026E-16,-0.974164612556762,-0.225839118936765));
#319=DIRECTION('',(0.,0.,-1.));
#320=DIRECTION('',(-1.,0.,0.));
#321=DIRECTION('',(0.,0.,-1.));
#322=DIRECTION('',(-1.,0.,0.));
#323=CARTESIAN_POINT('',(0.,0.,0.));
#324=CARTESIAN_POINT('',(9.4375,0.,33.));
#325=CARTESIAN_POINT('',(9.4375,0.,33.));
#326=CARTESIAN_POINT('',(6.375,0.,33.));
#327=CARTESIAN_POINT('',(9.4375,0.,30.825061822839));
#328=CARTESIAN_POINT('',(6.37500000000003,0.,30.825061822839));
#329=CARTESIAN_POINT('',(1.35525271560688E-17,-26.3075730435764,11.185));
#330=CARTESIAN_POINT('',(1.17672831528372,-12.4548868575046,12.3594524537559));
#331=CARTESIAN_POINT('',(-0.000291061903434663,-12.5225353415725,12.8476838022351));
#332=CARTESIAN_POINT('',(-1.17556406766998,-12.4549717762052,12.3598123373037));
#333=CARTESIAN_POINT('',(-1.66210459767503,-12.3870309559076,11.1863369046345));
#334=CARTESIAN_POINT('',(-1.17601616195708,-12.4549464428754,10.0098234274497));
#335=CARTESIAN_POINT('',(-0.000330001126725559,-12.5224793173325,9.5229475835906));
#336=CARTESIAN_POINT('',(1.17397420243966,-12.4551362124426,10.0083868661214));
#337=CARTESIAN_POINT('',(1.66232342639386,-12.3870048156252,11.1834789112105));
#338=CARTESIAN_POINT('',(1.17672831528372,-12.4548868575046,12.3594524537559));
#339=CARTESIAN_POINT('',(-0.000291061903434663,-12.5225353415725,12.8476838022351));
#340=CARTESIAN_POINT('',(-1.17556406766998,-12.4549717762052,12.3598123373037));
#341=CARTESIAN_POINT('',(3.61484494982291E-16,-12.5,12.685));
#342=CARTESIAN_POINT('',(1.1766014980495,-6.28657741684215,12.3593745595965));
#343=CARTESIAN_POINT('',(-0.000233126975658675,-6.41917819964569,12.8477581523357));
#344=CARTESIAN_POINT('',(-1.17566899014687,-6.2867097845751,12.3595928310607));
#345=CARTESIAN_POINT('',(-1.66220978712577,-6.15066016300936,11.1866734993966));
#346=CARTESIAN_POINT('',(-1.17549013174914,-6.28675117628944,10.0092928499545));
#347=CARTESIAN_POINT('',(-0.000659531977748324,-6.4190614085154,9.52306300415551));
#348=CARTESIAN_POINT('',(1.17435875849922,-6.28700300390857,10.0084559228201));
#349=CARTESIAN_POINT('',(1.66225955318385,-6.1506302860008,11.1842301083751));
#350=CARTESIAN_POINT('',(1.1766014980495,-6.28657741684215,12.3593745595965));
#351=CARTESIAN_POINT('',(-0.000233126975658675,-6.41917819964569,12.8477581523357));
#352=CARTESIAN_POINT('',(-1.17566899014687,-6.2867097845751,12.3595928310607));
#353=CARTESIAN_POINT('',(4.26454012573079E-16,-6.375,12.685));
#354=CARTESIAN_POINT('',(1.35525271560688E-17,-26.3075730435764,11.185));
#355=CARTESIAN_POINT('',(-1.17672831528372,12.4548868575046,12.3594524537559));
#356=CARTESIAN_POINT('',(0.000291061903436507,12.5225353415726,12.8476838022351));
#357=CARTESIAN_POINT('',(1.17556406766998,12.4549717762052,12.3598123373037));
#358=CARTESIAN_POINT('',(1.66210459767503,12.3870309559076,11.1863369046345));
#359=CARTESIAN_POINT('',(1.17601616195708,12.4549464428754,10.0098234274497));
#360=CARTESIAN_POINT('',(0.000330001126726455,12.5224793173325,9.52294758359059));
#361=CARTESIAN_POINT('',(-1.17397420243966,12.4551362124426,10.0083868661214));
#362=CARTESIAN_POINT('',(-1.66232342639386,12.3870048156252,11.1834789112105));
#363=CARTESIAN_POINT('',(-1.17672831528372,12.4548868575046,12.3594524537559));
#364=CARTESIAN_POINT('',(0.000291061903436507,12.5225353415726,12.8476838022351));
#365=CARTESIAN_POINT('',(1.17556406766998,12.4549717762052,12.3598123373037));
#366=CARTESIAN_POINT('',(-4.59737008139368E-16,12.5,12.685));
#367=CARTESIAN_POINT('',(-1.1766014980495,6.28657741684215,12.3593745595965));
#368=CARTESIAN_POINT('',(0.000233126975659163,6.41917819964569,12.8477581523357));
#369=CARTESIAN_POINT('',(1.17566899014687,6.2867097845751,12.3595928310607));
#370=CARTESIAN_POINT('',(1.66220978712577,6.15066016300936,11.1866734993966));
#371=CARTESIAN_POINT('',(1.17549013174914,6.28675117628944,10.0092928499545));
#372=CARTESIAN_POINT('',(0.000659531977746194,6.4190614085154,9.52306300415551));
#373=CARTESIAN_POINT('',(-1.17435875849922,6.28700300390857,10.0084559228201));
#374=CARTESIAN_POINT('',(-1.66225955318385,6.1506302860008,11.1842301083751));
#375=CARTESIAN_POINT('',(-1.1766014980495,6.28657741684215,12.3593745595965));
#376=CARTESIAN_POINT('',(0.000233126975659163,6.41917819964569,12.8477581523357));
#377=CARTESIAN_POINT('',(1.17566899014687,6.2867097845751,12.3595928310607));
#378=CARTESIAN_POINT('',(3.26014488223801E-17,6.375,12.685));
#379=CARTESIAN_POINT('',(0.,-26.3075730435764,3.815));
#380=CARTESIAN_POINT('',(1.17672831528372,-12.4548868575046,4.98945245375594));
#381=CARTESIAN_POINT('',(-0.000291061903436425,-12.5225353415725,5.4776838022351));
#382=CARTESIAN_POINT('',(-1.17556406766998,-12.4549717762052,4.98981233730366));
#383=CARTESIAN_POINT('',(-1.66210459767503,-12.3870309559076,3.81633690463451));
#384=CARTESIAN_POINT('',(-1.17601616195708,-12.4549464428754,2.63982342744966));
#385=CARTESIAN_POINT('',(-0.000330001126724618,-12.5224793173325,2.1529475835906));
#386=CARTESIAN_POINT('',(1.17397420243966,-12.4551362124426,2.63838686612143));
#387=CARTESIAN_POINT('',(1.66232342639386,-12.3870048156252,3.81347891121051));
#388=CARTESIAN_POINT('',(1.17672831528372,-12.4548868575046,4.98945245375594));
#389=CARTESIAN_POINT('',(-0.000291061903436425,-12.5225353415725,5.4776838022351));
#390=CARTESIAN_POINT('',(-1.17556406766998,-12.4549717762052,4.98981233730366));
#391=CARTESIAN_POINT('',(4.52149565512615E-17,-12.5,5.315));
#392=CARTESIAN_POINT('',(1.1766014980495,-6.28657741684215,4.98937455959649));
#393=CARTESIAN_POINT('',(-0.00023312697565873,-6.41917819964569,5.47775815233569));
#394=CARTESIAN_POINT('',(-1.17566899014687,-6.2867097845751,4.98959283106074));
#395=CARTESIAN_POINT('',(-1.66220978712577,-6.15066016300936,3.81667349939657));
#396=CARTESIAN_POINT('',(-1.17549013174914,-6.28675117628944,2.63929284995451));
#397=CARTESIAN_POINT('',(-0.000659531977746581,-6.4190614085154,2.15306300415551));
#398=CARTESIAN_POINT('',(1.17435875849922,-6.28700300390858,2.63845592282009));
#399=CARTESIAN_POINT('',(1.66225955318385,-6.1506302860008,3.81423010837505));
#400=CARTESIAN_POINT('',(1.1766014980495,-6.28657741684215,4.98937455959649));
#401=CARTESIAN_POINT('',(-0.00023312697565873,-6.41917819964569,5.47775815233569));
#402=CARTESIAN_POINT('',(-1.17566899014687,-6.2867097845751,4.98959283106074));
#403=CARTESIAN_POINT('',(1.72380881432674E-16,-6.375,5.315));
#404=CARTESIAN_POINT('',(0.,-26.3075730435764,3.815));
#405=CARTESIAN_POINT('',(-1.17672831528372,12.4548868575046,4.98945245375594));
#406=CARTESIAN_POINT('',(0.000291061903436696,12.5225353415726,5.4776838022351));
#407=CARTESIAN_POINT('',(1.17556406766998,12.4549717762052,4.98981233730366));
#408=CARTESIAN_POINT('',(1.66210459767503,12.3870309559076,3.81633690463451));
#409=CARTESIAN_POINT('',(1.17601616195708,12.4549464428754,2.63982342744966));
#410=CARTESIAN_POINT('',(0.000330001126726062,12.5224793173325,2.1529475835906));
#411=CARTESIAN_POINT('',(-1.17397420243966,12.4551362124426,2.63838686612143));
#412=CARTESIAN_POINT('',(-1.66232342639386,12.3870048156252,3.81347891121051));
#413=CARTESIAN_POINT('',(-1.17672831528372,12.4548868575046,4.98945245375594));
#414=CARTESIAN_POINT('',(0.000291061903436696,12.5225353415726,5.4776838022351));
#415=CARTESIAN_POINT('',(1.17556406766998,12.4549717762052,4.98981233730366));
#416=CARTESIAN_POINT('',(-1.30425938125405E-17,12.5,5.315));
#417=CARTESIAN_POINT('',(-1.1766014980495,6.28657741684215,4.98937455959649));
#418=CARTESIAN_POINT('',(0.000233126975658892,6.41917819964569,5.47775815233569));
#419=CARTESIAN_POINT('',(1.17566899014687,6.2867097845751,4.98959283106074));
#420=CARTESIAN_POINT('',(1.66220978712577,6.15066016300936,3.81667349939657));
#421=CARTESIAN_POINT('',(1.17549013174914,6.28675117628944,2.63929284995451));
#422=CARTESIAN_POINT('',(0.000659531977746627,6.4190614085154,2.15306300415551));
#423=CARTESIAN_POINT('',(-1.17435875849922,6.28700300390857,2.63845592282009));
#424=CARTESIAN_POINT('',(-1.66225955318385,6.1506302860008,3.81423010837505));
#425=CARTESIAN_POINT('',(-1.1766014980495,6.28657741684215,4.98937455959649));
#426=CARTESIAN_POINT('',(0.000233126975658892,6.41917819964569,5.47775815233569));
#427=CARTESIAN_POINT('',(1.17566899014687,6.2867097845751,4.98959283106074));
#428=CARTESIAN_POINT('',(-1.31916270153537E-17,6.375,5.315));
#429=CARTESIAN_POINT('',(0.,0.,47.4872849460005));
#430=CARTESIAN_POINT('',(0.,0.,15.));
#431=CARTESIAN_POINT('',(12.5,0.,15.));
#432=CARTESIAN_POINT('',(0.,0.,0.));
#433=CARTESIAN_POINT('',(12.5,0.,0.));
#434=CARTESIAN_POINT('',(0.,0.,15.));
#435=CARTESIAN_POINT('',(9.4375,0.,15.));
#436=CARTESIAN_POINT('',(12.4535301804794,-0.531477375282943,15.));
#437=CARTESIAN_POINT('',(0.,0.,15.));
#438=CARTESIAN_POINT('',(12.4535301804794,0.531477375282918,15.));
#439=CARTESIAN_POINT('',(9.4375,0.,15.));
#440=CARTESIAN_POINT('',(0.,0.,0.));
#441=CARTESIAN_POINT('',(0.,0.,0.));
#442=CARTESIAN_POINT('',(7.5,0.,0.));
#443=CARTESIAN_POINT('',(0.,0.,27.0890659672332));
#444=CARTESIAN_POINT('',(0.,0.,15.));
#445=CARTESIAN_POINT('',(6.375,0.,15.));
#446=CARTESIAN_POINT('',(0.,0.,-13.5));
#447=CARTESIAN_POINT('',(6.375,0.,-13.5));
#448=CARTESIAN_POINT('',(0.,0.,-13.5));
#449=CARTESIAN_POINT('',(0.,0.,-13.5));
#450=CARTESIAN_POINT('',(7.5,0.,-13.5));
#451=CARTESIAN_POINT('',(0.,0.,-13.5));
#452=CARTESIAN_POINT('',(9.4375,0.,33.));
#453=CARTESIAN_POINT('',(9.4375,0.,17.775432759873));
#454=CARTESIAN_POINT('',(6.37500000000003,0.,17.775432759873));
#455=CARTESIAN_POINT('',(12.4535301804794,-0.531477375282943,15.));
#456=CARTESIAN_POINT('',(12.3196204143689,-1.29138911345458,15.0416074276508));
#457=CARTESIAN_POINT('',(11.4774178627843,-2.65801271746176,15.3124223975794));
#458=CARTESIAN_POINT('',(9.53732543655118,-3.23166588563809,15.6394068594253));
#459=CARTESIAN_POINT('',(8.03481398734543,-2.80267768573698,15.5772768954797));
#460=CARTESIAN_POINT('',(6.81455111673409,-1.87447223825202,15.298080125082));
#461=CARTESIAN_POINT('',(6.37499999999999,-0.770369889347758,15.0000000000001));
#462=CARTESIAN_POINT('',(6.37499999999999,7.26933425725111E-15,15.0000000000001));
#463=CARTESIAN_POINT('',(6.37499999999999,7.26933425725111E-15,15.0000000000001));
#464=CARTESIAN_POINT('',(6.37499999999999,0.769440136738821,15.0000000000001));
#465=CARTESIAN_POINT('',(6.81861140653553,1.8801527452913,15.2996885845824));
#466=CARTESIAN_POINT('',(8.03665366536361,2.80296487032662,15.5773316580771));
#467=CARTESIAN_POINT('',(9.53799991907059,3.23212587675258,15.6394335442254));
#468=CARTESIAN_POINT('',(11.4819824248616,2.65419890353774,15.3113264161509));
#469=CARTESIAN_POINT('',(12.319639428251,1.2912812133917,15.0416015198015));
#470=CARTESIAN_POINT('',(12.4535301804794,0.531477375282923,15.));
#471=CARTESIAN_POINT('',(9.4375,0.,33.));
#472=CARTESIAN_POINT('',(0.,0.,7.5802636581567));
#473=CARTESIAN_POINT('',(9.4375,0.,24.300247291356));
#474=MECHANICAL_DESIGN_GEOMETRIC_PRESENTATION_REPRESENTATION('',(#228),
#475);
#475=(
GEOMETRIC_REPRESENTATION_CONTEXT(3)
GLOBAL_UNCERTAINTY_ASSIGNED_CONTEXT((#476))
GLOBAL_UNIT_ASSIGNED_CONTEXT((#479,#478,#477))
REPRESENTATION_CONTEXT(
'19_FDML_stimfix_Badal_screw_8mm_rotating_handle',
'TOP_LEVEL_ASSEMBLY_PART')
);
#476=UNCERTAINTY_MEASURE_WITH_UNIT(LENGTH_MEASURE(0.005),#479,
'DISTANCE_ACCURACY_VALUE','Maximum Tolerance applied to model');
#477=(
NAMED_UNIT(*)
SI_UNIT($,.STERADIAN.)
SOLID_ANGLE_UNIT()
);
#478=(
NAMED_UNIT(*)
PLANE_ANGLE_UNIT()
SI_UNIT($,.RADIAN.)
);
#479=(
LENGTH_UNIT()
NAMED_UNIT(*)
SI_UNIT(.MILLI.,.METRE.)
);
#480=PRODUCT_DEFINITION_SHAPE('','',#481);
#481=PRODUCT_DEFINITION('','',#483,#482);
#482=PRODUCT_DEFINITION_CONTEXT('',#489,'design');
#483=PRODUCT_DEFINITION_FORMATION_WITH_SPECIFIED_SOURCE('','',#485,
 .NOT_KNOWN.);
#484=PRODUCT_RELATED_PRODUCT_CATEGORY('','',(#485));
#485=PRODUCT('19_FDML_stimfix_Badal_screw_8mm_rotating_handle',
'19_FDML_stimfix_Badal_screw_8mm_rotating_handle',
'19_FDML_stimfix_Badal_screw_8mm_rotating_handle',(#487));
#486=PRODUCT_CATEGORY('','');
#487=PRODUCT_CONTEXT('',#489,'mechanical');
#488=APPLICATION_PROTOCOL_DEFINITION('international standard',
'automotive_design',2010,#489);
#489=APPLICATION_CONTEXT(
'core data for automotive mechanical design processes');
ENDSEC;
END-ISO-10303-21;
