ISO-10303-21;
HEADER;
/* Generated by software containing ST-Developer
 * from STEP Tools, Inc. (www.steptools.com) 
 */
/* OPTION: strings as raw bytes, not using required /X/ escapes */

FILE_DESCRIPTION(
/* description */ ('Unknown'),
/* implementation_level */ '2;1');

FILE_NAME(
/* name */ '21_FDML_stimfix_Badal_stage_cover_rear',
/* time_stamp */ '2026-09-07T15:08:48+02:00',
/* author */ ('Unknown'),
/* organization */ ('Unknown'),
/* preprocessor_version */ 'ST-DEVELOPER v16.7',
/* originating_system */ 'Solid Edge',
/* authorisation */ 'Unknown');

FILE_SCHEMA (('AUTOMOTIVE_DESIGN {1 0 10303 214 3 1 1}'));
ENDSEC;

DATA;
#10=PROPERTY_DEFINITION_REPRESENTATION(#14,#12);
#11=PROPERTY_DEFINITION_REPRESENTATION(#15,#13);
#12=REPRESENTATION('',(#16),#845);
#13=REPRESENTATION('',(#17),#845);
#14=PROPERTY_DEFINITION('pmi validation property','',#850);
#15=PROPERTY_DEFINITION('pmi validation property','',#850);
#16=VALUE_REPRESENTATION_ITEM('number of annotations',COUNT_MEASURE(0.));
#17=VALUE_REPRESENTATION_ITEM('number of views',COUNT_MEASURE(0.));
#18=SHAPE_REPRESENTATION_RELATIONSHIP('','',#507,#19);
#19=ADVANCED_BREP_SHAPE_REPRESENTATION('',(#505),#845);
#20=CYLINDRICAL_SURFACE('',#526,6.375);
#21=CYLINDRICAL_SURFACE('',#528,3.07499999999999);
#22=CYLINDRICAL_SURFACE('',#531,3.075);
#23=CYLINDRICAL_SURFACE('',#535,7.5);
#24=CYLINDRICAL_SURFACE('',#544,1.5);
#25=CYLINDRICAL_SURFACE('',#546,1.5);
#26=CYLINDRICAL_SURFACE('',#548,1.5);
#27=CYLINDRICAL_SURFACE('',#550,1.5);
#28=CYLINDRICAL_SURFACE('',#552,2.55);
#29=CYLINDRICAL_SURFACE('',#555,2.55);
#30=CYLINDRICAL_SURFACE('',#558,2.55);
#31=CYLINDRICAL_SURFACE('',#561,2.55);
#32=CYLINDRICAL_SURFACE('',#564,7.5);
#33=CIRCLE('',#514,7.5);
#34=CIRCLE('',#515,2.55);
#35=CIRCLE('',#516,2.55);
#36=CIRCLE('',#517,2.55);
#37=CIRCLE('',#518,2.55);
#38=CIRCLE('',#520,1.5);
#39=CIRCLE('',#521,1.5);
#40=CIRCLE('',#522,1.5);
#41=CIRCLE('',#523,1.5);
#42=CIRCLE('',#524,7.5);
#43=CIRCLE('',#525,6.375);
#44=CIRCLE('',#527,6.375);
#45=CIRCLE('',#529,3.07499999999999);
#46=CIRCLE('',#530,3.07499999999999);
#47=CIRCLE('',#532,3.075);
#48=CIRCLE('',#533,3.075);
#49=CIRCLE('',#536,7.5);
#50=CIRCLE('',#545,1.5);
#51=CIRCLE('',#547,1.5);
#52=CIRCLE('',#549,1.5);
#53=CIRCLE('',#551,1.5);
#54=CIRCLE('',#553,2.55);
#55=CIRCLE('',#556,2.55);
#56=CIRCLE('',#559,2.55);
#57=CIRCLE('',#562,2.55);
#58=CIRCLE('',#565,7.5);
#59=ORIENTED_EDGE('',*,*,#167,.F.);
#60=ORIENTED_EDGE('',*,*,#168,.F.);
#61=ORIENTED_EDGE('',*,*,#169,.T.);
#62=ORIENTED_EDGE('',*,*,#170,.T.);
#63=ORIENTED_EDGE('',*,*,#171,.F.);
#64=ORIENTED_EDGE('',*,*,#170,.F.);
#65=ORIENTED_EDGE('',*,*,#172,.T.);
#66=ORIENTED_EDGE('',*,*,#173,.T.);
#67=ORIENTED_EDGE('',*,*,#174,.F.);
#68=ORIENTED_EDGE('',*,*,#173,.F.);
#69=ORIENTED_EDGE('',*,*,#175,.T.);
#70=ORIENTED_EDGE('',*,*,#176,.T.);
#71=ORIENTED_EDGE('',*,*,#177,.F.);
#72=ORIENTED_EDGE('',*,*,#176,.F.);
#73=ORIENTED_EDGE('',*,*,#178,.T.);
#74=ORIENTED_EDGE('',*,*,#168,.T.);
#75=ORIENTED_EDGE('',*,*,#179,.T.);
#76=ORIENTED_EDGE('',*,*,#180,.T.);
#77=ORIENTED_EDGE('',*,*,#181,.T.);
#78=ORIENTED_EDGE('',*,*,#182,.T.);
#79=ORIENTED_EDGE('',*,*,#183,.T.);
#80=ORIENTED_EDGE('',*,*,#169,.F.);
#81=ORIENTED_EDGE('',*,*,#178,.F.);
#82=ORIENTED_EDGE('',*,*,#175,.F.);
#83=ORIENTED_EDGE('',*,*,#172,.F.);
#84=ORIENTED_EDGE('',*,*,#184,.T.);
#85=ORIENTED_EDGE('',*,*,#185,.T.);
#86=ORIENTED_EDGE('',*,*,#186,.T.);
#87=ORIENTED_EDGE('',*,*,#187,.T.);
#88=ORIENTED_EDGE('',*,*,#188,.T.);
#89=ORIENTED_EDGE('',*,*,#189,.F.);
#90=ORIENTED_EDGE('',*,*,#190,.T.);
#91=ORIENTED_EDGE('',*,*,#191,.F.);
#92=ORIENTED_EDGE('',*,*,#192,.F.);
#93=ORIENTED_EDGE('',*,*,#193,.F.);
#94=ORIENTED_EDGE('',*,*,#177,.T.);
#95=ORIENTED_EDGE('',*,*,#167,.T.);
#96=ORIENTED_EDGE('',*,*,#171,.T.);
#97=ORIENTED_EDGE('',*,*,#174,.T.);
#98=ORIENTED_EDGE('',*,*,#194,.T.);
#99=ORIENTED_EDGE('',*,*,#195,.F.);
#100=ORIENTED_EDGE('',*,*,#194,.F.);
#101=ORIENTED_EDGE('',*,*,#196,.F.);
#102=ORIENTED_EDGE('',*,*,#197,.T.);
#103=ORIENTED_EDGE('',*,*,#198,.F.);
#104=ORIENTED_EDGE('',*,*,#199,.F.);
#105=ORIENTED_EDGE('',*,*,#193,.T.);
#106=ORIENTED_EDGE('',*,*,#200,.F.);
#107=ORIENTED_EDGE('',*,*,#201,.F.);
#108=ORIENTED_EDGE('',*,*,#202,.T.);
#109=ORIENTED_EDGE('',*,*,#192,.T.);
#110=ORIENTED_EDGE('',*,*,#203,.F.);
#111=ORIENTED_EDGE('',*,*,#204,.F.);
#112=ORIENTED_EDGE('',*,*,#200,.T.);
#113=ORIENTED_EDGE('',*,*,#191,.T.);
#114=ORIENTED_EDGE('',*,*,#205,.F.);
#115=ORIENTED_EDGE('',*,*,#206,.F.);
#116=ORIENTED_EDGE('',*,*,#203,.T.);
#117=ORIENTED_EDGE('',*,*,#197,.F.);
#118=ORIENTED_EDGE('',*,*,#199,.T.);
#119=ORIENTED_EDGE('',*,*,#206,.T.);
#120=ORIENTED_EDGE('',*,*,#207,.F.);
#121=ORIENTED_EDGE('',*,*,#208,.T.);
#122=ORIENTED_EDGE('',*,*,#209,.F.);
#123=ORIENTED_EDGE('',*,*,#201,.T.);
#124=ORIENTED_EDGE('',*,*,#204,.T.);
#125=ORIENTED_EDGE('',*,*,#189,.T.);
#126=ORIENTED_EDGE('',*,*,#210,.F.);
#127=ORIENTED_EDGE('',*,*,#208,.F.);
#128=ORIENTED_EDGE('',*,*,#211,.T.);
#129=ORIENTED_EDGE('',*,*,#188,.F.);
#130=ORIENTED_EDGE('',*,*,#202,.F.);
#131=ORIENTED_EDGE('',*,*,#209,.T.);
#132=ORIENTED_EDGE('',*,*,#210,.T.);
#133=ORIENTED_EDGE('',*,*,#190,.F.);
#134=ORIENTED_EDGE('',*,*,#211,.F.);
#135=ORIENTED_EDGE('',*,*,#207,.T.);
#136=ORIENTED_EDGE('',*,*,#205,.T.);
#137=ORIENTED_EDGE('',*,*,#198,.T.);
#138=ORIENTED_EDGE('',*,*,#196,.T.);
#139=ORIENTED_EDGE('',*,*,#212,.F.);
#140=ORIENTED_EDGE('',*,*,#187,.F.);
#141=ORIENTED_EDGE('',*,*,#213,.F.);
#142=ORIENTED_EDGE('',*,*,#186,.F.);
#143=ORIENTED_EDGE('',*,*,#214,.F.);
#144=ORIENTED_EDGE('',*,*,#185,.F.);
#145=ORIENTED_EDGE('',*,*,#215,.F.);
#146=ORIENTED_EDGE('',*,*,#184,.F.);
#147=ORIENTED_EDGE('',*,*,#216,.T.);
#148=ORIENTED_EDGE('',*,*,#183,.F.);
#149=ORIENTED_EDGE('',*,*,#215,.T.);
#150=ORIENTED_EDGE('',*,*,#216,.F.);
#151=ORIENTED_EDGE('',*,*,#217,.T.);
#152=ORIENTED_EDGE('',*,*,#182,.F.);
#153=ORIENTED_EDGE('',*,*,#213,.T.);
#154=ORIENTED_EDGE('',*,*,#217,.F.);
#155=ORIENTED_EDGE('',*,*,#218,.T.);
#156=ORIENTED_EDGE('',*,*,#181,.F.);
#157=ORIENTED_EDGE('',*,*,#214,.T.);
#158=ORIENTED_EDGE('',*,*,#218,.F.);
#159=ORIENTED_EDGE('',*,*,#219,.T.);
#160=ORIENTED_EDGE('',*,*,#180,.F.);
#161=ORIENTED_EDGE('',*,*,#212,.T.);
#162=ORIENTED_EDGE('',*,*,#219,.F.);
#163=ORIENTED_EDGE('',*,*,#220,.T.);
#164=ORIENTED_EDGE('',*,*,#179,.F.);
#165=ORIENTED_EDGE('',*,*,#195,.T.);
#166=ORIENTED_EDGE('',*,*,#220,.F.);
#167=EDGE_CURVE('',#221,#222,#265,.T.);
#168=EDGE_CURVE('',#223,#221,#266,.T.);
#169=EDGE_CURVE('',#223,#224,#267,.T.);
#170=EDGE_CURVE('',#224,#222,#268,.T.);
#171=EDGE_CURVE('',#222,#225,#269,.T.);
#172=EDGE_CURVE('',#224,#226,#270,.T.);
#173=EDGE_CURVE('',#226,#225,#271,.T.);
#174=EDGE_CURVE('',#225,#227,#272,.T.);
#175=EDGE_CURVE('',#226,#228,#273,.T.);
#176=EDGE_CURVE('',#228,#227,#274,.T.);
#177=EDGE_CURVE('',#227,#221,#275,.T.);
#178=EDGE_CURVE('',#228,#223,#276,.T.);
#179=EDGE_CURVE('',#229,#229,#33,.T.);
#180=EDGE_CURVE('',#230,#230,#34,.T.);
#181=EDGE_CURVE('',#231,#231,#35,.T.);
#182=EDGE_CURVE('',#232,#232,#36,.T.);
#183=EDGE_CURVE('',#233,#233,#37,.T.);
#184=EDGE_CURVE('',#234,#234,#38,.F.);
#185=EDGE_CURVE('',#235,#235,#39,.F.);
#186=EDGE_CURVE('',#236,#236,#40,.F.);
#187=EDGE_CURVE('',#237,#237,#41,.F.);
#188=EDGE_CURVE('',#238,#239,#277,.T.);
#189=EDGE_CURVE('',#240,#239,#278,.T.);
#190=EDGE_CURVE('',#240,#241,#279,.T.);
#191=EDGE_CURVE('',#242,#241,#280,.T.);
#192=EDGE_CURVE('',#243,#242,#42,.T.);
#193=EDGE_CURVE('',#238,#243,#281,.T.);
#194=EDGE_CURVE('',#244,#244,#43,.F.);
#195=EDGE_CURVE('',#245,#245,#44,.T.);
#196=EDGE_CURVE('',#246,#246,#45,.T.);
#197=EDGE_CURVE('',#247,#247,#46,.T.);
#198=EDGE_CURVE('',#248,#248,#47,.T.);
#199=EDGE_CURVE('',#249,#249,#48,.F.);
#200=EDGE_CURVE('',#250,#243,#282,.T.);
#201=EDGE_CURVE('',#251,#250,#283,.T.);
#202=EDGE_CURVE('',#251,#238,#284,.T.);
#203=EDGE_CURVE('',#252,#242,#285,.T.);
#204=EDGE_CURVE('',#250,#252,#49,.T.);
#205=EDGE_CURVE('',#253,#241,#286,.T.);
#206=EDGE_CURVE('',#252,#253,#287,.T.);
#207=EDGE_CURVE('',#254,#253,#288,.T.);
#208=EDGE_CURVE('',#254,#255,#289,.T.);
#209=EDGE_CURVE('',#251,#255,#290,.T.);
#210=EDGE_CURVE('',#255,#239,#291,.T.);
#211=EDGE_CURVE('',#254,#240,#292,.T.);
#212=EDGE_CURVE('',#256,#256,#50,.T.);
#213=EDGE_CURVE('',#257,#257,#51,.T.);
#214=EDGE_CURVE('',#258,#258,#52,.T.);
#215=EDGE_CURVE('',#259,#259,#53,.T.);
#216=EDGE_CURVE('',#260,#260,#54,.T.);
#217=EDGE_CURVE('',#261,#261,#55,.T.);
#218=EDGE_CURVE('',#262,#262,#56,.T.);
#219=EDGE_CURVE('',#263,#263,#57,.T.);
#220=EDGE_CURVE('',#264,#264,#58,.T.);
#221=VERTEX_POINT('',#716);
#222=VERTEX_POINT('',#717);
#223=VERTEX_POINT('',#719);
#224=VERTEX_POINT('',#721);
#225=VERTEX_POINT('',#725);
#226=VERTEX_POINT('',#727);
#227=VERTEX_POINT('',#731);
#228=VERTEX_POINT('',#733);
#229=VERTEX_POINT('',#740);
#230=VERTEX_POINT('',#742);
#231=VERTEX_POINT('',#744);
#232=VERTEX_POINT('',#746);
#233=VERTEX_POINT('',#748);
#234=VERTEX_POINT('',#751);
#235=VERTEX_POINT('',#753);
#236=VERTEX_POINT('',#755);
#237=VERTEX_POINT('',#757);
#238=VERTEX_POINT('',#759);
#239=VERTEX_POINT('',#760);
#240=VERTEX_POINT('',#762);
#241=VERTEX_POINT('',#764);
#242=VERTEX_POINT('',#766);
#243=VERTEX_POINT('',#768);
#244=VERTEX_POINT('',#771);
#245=VERTEX_POINT('',#774);
#246=VERTEX_POINT('',#777);
#247=VERTEX_POINT('',#779);
#248=VERTEX_POINT('',#782);
#249=VERTEX_POINT('',#784);
#250=VERTEX_POINT('',#787);
#251=VERTEX_POINT('',#789);
#252=VERTEX_POINT('',#793);
#253=VERTEX_POINT('',#797);
#254=VERTEX_POINT('',#801);
#255=VERTEX_POINT('',#803);
#256=VERTEX_POINT('',#814);
#257=VERTEX_POINT('',#817);
#258=VERTEX_POINT('',#820);
#259=VERTEX_POINT('',#823);
#260=VERTEX_POINT('',#826);
#261=VERTEX_POINT('',#830);
#262=VERTEX_POINT('',#834);
#263=VERTEX_POINT('',#838);
#264=VERTEX_POINT('',#842);
#265=LINE('',#715,#293);
#266=LINE('',#718,#294);
#267=LINE('',#720,#295);
#268=LINE('',#722,#296);
#269=LINE('',#724,#297);
#270=LINE('',#726,#298);
#271=LINE('',#728,#299);
#272=LINE('',#730,#300);
#273=LINE('',#732,#301);
#274=LINE('',#734,#302);
#275=LINE('',#736,#303);
#276=LINE('',#737,#304);
#277=LINE('',#758,#305);
#278=LINE('',#761,#306);
#279=LINE('',#763,#307);
#280=LINE('',#765,#308);
#281=LINE('',#769,#309);
#282=LINE('',#786,#310);
#283=LINE('',#788,#311);
#284=LINE('',#790,#312);
#285=LINE('',#792,#313);
#286=LINE('',#796,#314);
#287=LINE('',#798,#315);
#288=LINE('',#800,#316);
#289=LINE('',#802,#317);
#290=LINE('',#804,#318);
#291=LINE('',#806,#319);
#292=LINE('',#807,#320);
#293=VECTOR('',#571,1000.);
#294=VECTOR('',#572,1000.);
#295=VECTOR('',#573,1000.);
#296=VECTOR('',#574,1000.);
#297=VECTOR('',#577,1000.);
#298=VECTOR('',#578,1000.);
#299=VECTOR('',#579,1000.);
#300=VECTOR('',#582,1000.);
#301=VECTOR('',#583,1000.);
#302=VECTOR('',#584,1000.);
#303=VECTOR('',#587,1000.);
#304=VECTOR('',#588,1000.);
#305=VECTOR('',#611,1000.);
#306=VECTOR('',#612,1000.);
#307=VECTOR('',#613,1000.);
#308=VECTOR('',#614,1000.);
#309=VECTOR('',#617,1000.);
#310=VECTOR('',#638,1000.);
#311=VECTOR('',#639,1000.);
#312=VECTOR('',#640,1000.);
#313=VECTOR('',#643,1000.);
#314=VECTOR('',#648,1000.);
#315=VECTOR('',#649,1000.);
#316=VECTOR('',#652,1000.);
#317=VECTOR('',#653,1000.);
#318=VECTOR('',#654,1000.);
#319=VECTOR('',#657,1000.);
#320=VECTOR('',#658,1000.);
#321=EDGE_LOOP('',(#59,#60,#61,#62));
#322=EDGE_LOOP('',(#63,#64,#65,#66));
#323=EDGE_LOOP('',(#67,#68,#69,#70));
#324=EDGE_LOOP('',(#71,#72,#73,#74));
#325=EDGE_LOOP('',(#75));
#326=EDGE_LOOP('',(#76));
#327=EDGE_LOOP('',(#77));
#328=EDGE_LOOP('',(#78));
#329=EDGE_LOOP('',(#79));
#330=EDGE_LOOP('',(#80,#81,#82,#83));
#331=EDGE_LOOP('',(#84));
#332=EDGE_LOOP('',(#85));
#333=EDGE_LOOP('',(#86));
#334=EDGE_LOOP('',(#87));
#335=EDGE_LOOP('',(#88,#89,#90,#91,#92,#93));
#336=EDGE_LOOP('',(#94,#95,#96,#97));
#337=EDGE_LOOP('',(#98));
#338=EDGE_LOOP('',(#99));
#339=EDGE_LOOP('',(#100));
#340=EDGE_LOOP('',(#101));
#341=EDGE_LOOP('',(#102));
#342=EDGE_LOOP('',(#103));
#343=EDGE_LOOP('',(#104));
#344=EDGE_LOOP('',(#105,#106,#107,#108));
#345=EDGE_LOOP('',(#109,#110,#111,#112));
#346=EDGE_LOOP('',(#113,#114,#115,#116));
#347=EDGE_LOOP('',(#117));
#348=EDGE_LOOP('',(#118));
#349=EDGE_LOOP('',(#119,#120,#121,#122,#123,#124));
#350=EDGE_LOOP('',(#125,#126,#127,#128));
#351=EDGE_LOOP('',(#129,#130,#131,#132));
#352=EDGE_LOOP('',(#133,#134,#135,#136));
#353=EDGE_LOOP('',(#137));
#354=EDGE_LOOP('',(#138));
#355=EDGE_LOOP('',(#139));
#356=EDGE_LOOP('',(#140));
#357=EDGE_LOOP('',(#141));
#358=EDGE_LOOP('',(#142));
#359=EDGE_LOOP('',(#143));
#360=EDGE_LOOP('',(#144));
#361=EDGE_LOOP('',(#145));
#362=EDGE_LOOP('',(#146));
#363=EDGE_LOOP('',(#147));
#364=EDGE_LOOP('',(#148));
#365=EDGE_LOOP('',(#149));
#366=EDGE_LOOP('',(#150));
#367=EDGE_LOOP('',(#151));
#368=EDGE_LOOP('',(#152));
#369=EDGE_LOOP('',(#153));
#370=EDGE_LOOP('',(#154));
#371=EDGE_LOOP('',(#155));
#372=EDGE_LOOP('',(#156));
#373=EDGE_LOOP('',(#157));
#374=EDGE_LOOP('',(#158));
#375=EDGE_LOOP('',(#159));
#376=EDGE_LOOP('',(#160));
#377=EDGE_LOOP('',(#161));
#378=EDGE_LOOP('',(#162));
#379=EDGE_LOOP('',(#163));
#380=EDGE_LOOP('',(#164));
#381=EDGE_LOOP('',(#165));
#382=EDGE_LOOP('',(#166));
#383=FACE_BOUND('',#321,.T.);
#384=FACE_BOUND('',#322,.T.);
#385=FACE_BOUND('',#323,.T.);
#386=FACE_BOUND('',#324,.T.);
#387=FACE_BOUND('',#325,.T.);
#388=FACE_BOUND('',#326,.T.);
#389=FACE_BOUND('',#327,.T.);
#390=FACE_BOUND('',#328,.T.);
#391=FACE_BOUND('',#329,.T.);
#392=FACE_BOUND('',#330,.T.);
#393=FACE_BOUND('',#331,.T.);
#394=FACE_BOUND('',#332,.T.);
#395=FACE_BOUND('',#333,.T.);
#396=FACE_BOUND('',#334,.T.);
#397=FACE_BOUND('',#335,.T.);
#398=FACE_BOUND('',#336,.T.);
#399=FACE_BOUND('',#337,.T.);
#400=FACE_BOUND('',#338,.T.);
#401=FACE_BOUND('',#339,.T.);
#402=FACE_BOUND('',#340,.T.);
#403=FACE_BOUND('',#341,.T.);
#404=FACE_BOUND('',#342,.T.);
#405=FACE_BOUND('',#343,.T.);
#406=FACE_BOUND('',#344,.T.);
#407=FACE_BOUND('',#345,.T.);
#408=FACE_BOUND('',#346,.T.);
#409=FACE_BOUND('',#347,.T.);
#410=FACE_BOUND('',#348,.T.);
#411=FACE_BOUND('',#349,.T.);
#412=FACE_BOUND('',#350,.T.);
#413=FACE_BOUND('',#351,.T.);
#414=FACE_BOUND('',#352,.T.);
#415=FACE_BOUND('',#353,.T.);
#416=FACE_BOUND('',#354,.T.);
#417=FACE_BOUND('',#355,.T.);
#418=FACE_BOUND('',#356,.T.);
#419=FACE_BOUND('',#357,.T.);
#420=FACE_BOUND('',#358,.T.);
#421=FACE_BOUND('',#359,.T.);
#422=FACE_BOUND('',#360,.T.);
#423=FACE_BOUND('',#361,.T.);
#424=FACE_BOUND('',#362,.T.);
#425=FACE_BOUND('',#363,.T.);
#426=FACE_BOUND('',#364,.T.);
#427=FACE_BOUND('',#365,.T.);
#428=FACE_BOUND('',#366,.T.);
#429=FACE_BOUND('',#367,.T.);
#430=FACE_BOUND('',#368,.T.);
#431=FACE_BOUND('',#369,.T.);
#432=FACE_BOUND('',#370,.T.);
#433=FACE_BOUND('',#371,.T.);
#434=FACE_BOUND('',#372,.T.);
#435=FACE_BOUND('',#373,.T.);
#436=FACE_BOUND('',#374,.T.);
#437=FACE_BOUND('',#375,.T.);
#438=FACE_BOUND('',#376,.T.);
#439=FACE_BOUND('',#377,.T.);
#440=FACE_BOUND('',#378,.T.);
#441=FACE_BOUND('',#379,.T.);
#442=FACE_BOUND('',#380,.T.);
#443=FACE_BOUND('',#381,.T.);
#444=FACE_BOUND('',#382,.T.);
#445=PLANE('',#509);
#446=PLANE('',#510);
#447=PLANE('',#511);
#448=PLANE('',#512);
#449=PLANE('',#513);
#450=PLANE('',#519);
#451=PLANE('',#534);
#452=PLANE('',#537);
#453=PLANE('',#538);
#454=PLANE('',#539);
#455=PLANE('',#540);
#456=PLANE('',#541);
#457=PLANE('',#542);
#458=PLANE('',#543);
#459=PLANE('',#554);
#460=PLANE('',#557);
#461=PLANE('',#560);
#462=PLANE('',#563);
#463=PLANE('',#566);
#464=ADVANCED_FACE('',(#383),#445,.T.);
#465=ADVANCED_FACE('',(#384),#446,.T.);
#466=ADVANCED_FACE('',(#385),#447,.T.);
#467=ADVANCED_FACE('',(#386),#448,.T.);
#468=ADVANCED_FACE('',(#387,#388,#389,#390,#391,#392),#449,.F.);
#469=ADVANCED_FACE('',(#393,#394,#395,#396,#397,#398,#399),#450,.T.);
#470=ADVANCED_FACE('',(#400,#401),#20,.F.);
#471=ADVANCED_FACE('',(#402,#403),#21,.F.);
#472=ADVANCED_FACE('',(#404,#405),#22,.F.);
#473=ADVANCED_FACE('',(#406),#451,.F.);
#474=ADVANCED_FACE('',(#407),#23,.F.);
#475=ADVANCED_FACE('',(#408),#452,.F.);
#476=ADVANCED_FACE('',(#409,#410,#411),#453,.T.);
#477=ADVANCED_FACE('',(#412),#454,.F.);
#478=ADVANCED_FACE('',(#413),#455,.T.);
#479=ADVANCED_FACE('',(#414),#456,.T.);
#480=ADVANCED_FACE('',(#415),#457,.T.);
#481=ADVANCED_FACE('',(#416),#458,.T.);
#482=ADVANCED_FACE('',(#417,#418),#24,.F.);
#483=ADVANCED_FACE('',(#419,#420),#25,.F.);
#484=ADVANCED_FACE('',(#421,#422),#26,.F.);
#485=ADVANCED_FACE('',(#423,#424),#27,.F.);
#486=ADVANCED_FACE('',(#425,#426),#28,.F.);
#487=ADVANCED_FACE('',(#427,#428),#459,.F.);
#488=ADVANCED_FACE('',(#429,#430),#29,.F.);
#489=ADVANCED_FACE('',(#431,#432),#460,.F.);
#490=ADVANCED_FACE('',(#433,#434),#30,.F.);
#491=ADVANCED_FACE('',(#435,#436),#461,.F.);
#492=ADVANCED_FACE('',(#437,#438),#31,.F.);
#493=ADVANCED_FACE('',(#439,#440),#462,.F.);
#494=ADVANCED_FACE('',(#441,#442),#32,.F.);
#495=ADVANCED_FACE('',(#443,#444),#463,.F.);
#496=CLOSED_SHELL('',(#464,#465,#466,#467,#468,#469,#470,#471,#472,#473,
#474,#475,#476,#477,#478,#479,#480,#481,#482,#483,#484,#485,#486,#487,#488,
#489,#490,#491,#492,#493,#494,#495));
#497=STYLED_ITEM('',(#498),#505);
#498=PRESENTATION_STYLE_ASSIGNMENT((#499));
#499=SURFACE_STYLE_USAGE(.BOTH.,#500);
#500=SURFACE_SIDE_STYLE('',(#501));
#501=SURFACE_STYLE_FILL_AREA(#502);
#502=FILL_AREA_STYLE('',(#503));
#503=FILL_AREA_STYLE_COLOUR('',#504);
#504=COLOUR_RGB('',0.506983280181885,0.531564235687256,0.550000011920929);
#505=MANIFOLD_SOLID_BREP('',#496);
#506=SHAPE_DEFINITION_REPRESENTATION(#850,#507);
#507=SHAPE_REPRESENTATION('21_FDML_stimfix_Badal_stage_cover_rear',(#508),
#845);
#508=AXIS2_PLACEMENT_3D('',#713,#567,#568);
#509=AXIS2_PLACEMENT_3D('',#714,#569,#570);
#510=AXIS2_PLACEMENT_3D('',#723,#575,#576);
#511=AXIS2_PLACEMENT_3D('',#729,#580,#581);
#512=AXIS2_PLACEMENT_3D('',#735,#585,#586);
#513=AXIS2_PLACEMENT_3D('',#738,#589,#590);
#514=AXIS2_PLACEMENT_3D('',#739,#591,#592);
#515=AXIS2_PLACEMENT_3D('',#741,#593,#594);
#516=AXIS2_PLACEMENT_3D('',#743,#595,#596);
#517=AXIS2_PLACEMENT_3D('',#745,#597,#598);
#518=AXIS2_PLACEMENT_3D('',#747,#599,#600);
#519=AXIS2_PLACEMENT_3D('',#749,#601,#602);
#520=AXIS2_PLACEMENT_3D('',#750,#603,#604);
#521=AXIS2_PLACEMENT_3D('',#752,#605,#606);
#522=AXIS2_PLACEMENT_3D('',#754,#607,#608);
#523=AXIS2_PLACEMENT_3D('',#756,#609,#610);
#524=AXIS2_PLACEMENT_3D('',#767,#615,#616);
#525=AXIS2_PLACEMENT_3D('',#770,#618,#619);
#526=AXIS2_PLACEMENT_3D('',#772,#620,#621);
#527=AXIS2_PLACEMENT_3D('',#773,#622,#623);
#528=AXIS2_PLACEMENT_3D('',#775,#624,#625);
#529=AXIS2_PLACEMENT_3D('',#776,#626,#627);
#530=AXIS2_PLACEMENT_3D('',#778,#628,#629);
#531=AXIS2_PLACEMENT_3D('',#780,#630,#631);
#532=AXIS2_PLACEMENT_3D('',#781,#632,#633);
#533=AXIS2_PLACEMENT_3D('',#783,#634,#635);
#534=AXIS2_PLACEMENT_3D('',#785,#636,#637);
#535=AXIS2_PLACEMENT_3D('',#791,#641,#642);
#536=AXIS2_PLACEMENT_3D('',#794,#644,#645);
#537=AXIS2_PLACEMENT_3D('',#795,#646,#647);
#538=AXIS2_PLACEMENT_3D('',#799,#650,#651);
#539=AXIS2_PLACEMENT_3D('',#805,#655,#656);
#540=AXIS2_PLACEMENT_3D('',#808,#659,#660);
#541=AXIS2_PLACEMENT_3D('',#809,#661,#662);
#542=AXIS2_PLACEMENT_3D('',#810,#663,#664);
#543=AXIS2_PLACEMENT_3D('',#811,#665,#666);
#544=AXIS2_PLACEMENT_3D('',#812,#667,#668);
#545=AXIS2_PLACEMENT_3D('',#813,#669,#670);
#546=AXIS2_PLACEMENT_3D('',#815,#671,#672);
#547=AXIS2_PLACEMENT_3D('',#816,#673,#674);
#548=AXIS2_PLACEMENT_3D('',#818,#675,#676);
#549=AXIS2_PLACEMENT_3D('',#819,#677,#678);
#550=AXIS2_PLACEMENT_3D('',#821,#679,#680);
#551=AXIS2_PLACEMENT_3D('',#822,#681,#682);
#552=AXIS2_PLACEMENT_3D('',#824,#683,#684);
#553=AXIS2_PLACEMENT_3D('',#825,#685,#686);
#554=AXIS2_PLACEMENT_3D('',#827,#687,#688);
#555=AXIS2_PLACEMENT_3D('',#828,#689,#690);
#556=AXIS2_PLACEMENT_3D('',#829,#691,#692);
#557=AXIS2_PLACEMENT_3D('',#831,#693,#694);
#558=AXIS2_PLACEMENT_3D('',#832,#695,#696);
#559=AXIS2_PLACEMENT_3D('',#833,#697,#698);
#560=AXIS2_PLACEMENT_3D('',#835,#699,#700);
#561=AXIS2_PLACEMENT_3D('',#836,#701,#702);
#562=AXIS2_PLACEMENT_3D('',#837,#703,#704);
#563=AXIS2_PLACEMENT_3D('',#839,#705,#706);
#564=AXIS2_PLACEMENT_3D('',#840,#707,#708);
#565=AXIS2_PLACEMENT_3D('',#841,#709,#710);
#566=AXIS2_PLACEMENT_3D('',#843,#711,#712);
#567=DIRECTION('',(0.,0.,1.));
#568=DIRECTION('',(1.,0.,0.));
#569=DIRECTION('',(0.,0.,1.));
#570=DIRECTION('',(1.,0.,0.));
#571=DIRECTION('',(1.,0.,0.));
#572=DIRECTION('',(0.,1.,0.));
#573=DIRECTION('',(1.,0.,0.));
#574=DIRECTION('',(0.,1.,0.));
#575=DIRECTION('',(1.,0.,0.));
#576=DIRECTION('',(0.,0.,-1.));
#577=DIRECTION('',(0.,0.,-1.));
#578=DIRECTION('',(0.,0.,-1.));
#579=DIRECTION('',(0.,1.,0.));
#580=DIRECTION('',(0.,0.,-1.));
#581=DIRECTION('',(-1.,0.,0.));
#582=DIRECTION('',(-1.,0.,0.));
#583=DIRECTION('',(-1.,0.,0.));
#584=DIRECTION('',(0.,1.,0.));
#585=DIRECTION('',(-1.,0.,-1.22464679914735E-16));
#586=DIRECTION('',(-1.22464679914735E-16,0.,1.));
#587=DIRECTION('',(-1.22464679914735E-16,0.,1.));
#588=DIRECTION('',(-1.22464679914735E-16,0.,1.));
#589=DIRECTION('',(0.,1.,0.));
#590=DIRECTION('',(0.,0.,1.));
#591=DIRECTION('',(0.,1.,0.));
#592=DIRECTION('',(1.,0.,0.));
#593=DIRECTION('',(0.,1.,0.));
#594=DIRECTION('',(1.,0.,0.));
#595=DIRECTION('',(0.,1.,0.));
#596=DIRECTION('',(1.,0.,0.));
#597=DIRECTION('',(0.,1.,0.));
#598=DIRECTION('',(1.,0.,0.));
#599=DIRECTION('',(0.,1.,0.));
#600=DIRECTION('',(1.,0.,0.));
#601=DIRECTION('',(0.,1.,0.));
#602=DIRECTION('',(0.,0.,1.));
#603=DIRECTION('',(0.,1.,0.));
#604=DIRECTION('',(0.,0.,1.));
#605=DIRECTION('',(0.,1.,0.));
#606=DIRECTION('',(0.,0.,1.));
#607=DIRECTION('',(0.,1.,0.));
#608=DIRECTION('',(0.,0.,1.));
#609=DIRECTION('',(0.,1.,0.));
#610=DIRECTION('',(0.,0.,1.));
#611=DIRECTION('',(1.11629567308675E-16,0.,-1.));
#612=DIRECTION('',(-1.,0.,0.));
#613=DIRECTION('',(0.,0.,1.));
#614=DIRECTION('',(1.,0.,6.03190472215372E-16));
#615=DIRECTION('',(0.,-1.,0.));
#616=DIRECTION('',(-1.,0.,0.));
#617=DIRECTION('',(1.,0.,3.90687067112746E-17));
#618=DIRECTION('',(0.,1.,0.));
#619=DIRECTION('',(0.,0.,1.));
#620=DIRECTION('',(0.,-1.,0.));
#621=DIRECTION('',(0.,0.,-1.));
#622=DIRECTION('',(0.,1.,0.));
#623=DIRECTION('',(0.,0.,1.));
#624=DIRECTION('',(0.,-1.,0.));
#625=DIRECTION('',(0.,0.,-1.));
#626=DIRECTION('',(0.,1.,0.));
#627=DIRECTION('',(0.,0.,1.));
#628=DIRECTION('',(0.,1.,0.));
#629=DIRECTION('',(0.,0.,1.));
#630=DIRECTION('',(0.,-1.,0.));
#631=DIRECTION('',(0.,0.,-1.));
#632=DIRECTION('',(0.,1.,0.));
#633=DIRECTION('',(0.,0.,1.));
#634=DIRECTION('',(0.,1.,0.));
#635=DIRECTION('',(0.,0.,1.));
#636=DIRECTION('',(3.90687067112746E-17,0.,-1.));
#637=DIRECTION('',(-1.,0.,-3.90687067112746E-17));
#638=DIRECTION('',(0.,-1.,0.));
#639=DIRECTION('',(1.,0.,3.90687067112746E-17));
#640=DIRECTION('',(0.,-1.,0.));
#641=DIRECTION('',(0.,-1.,0.));
#642=DIRECTION('',(0.,0.,-1.));
#643=DIRECTION('',(0.,-1.,0.));
#644=DIRECTION('',(0.,-1.,0.));
#645=DIRECTION('',(1.,0.,0.));
#646=DIRECTION('',(6.03190472215372E-16,0.,-1.));
#647=DIRECTION('',(-1.,0.,-6.03190472215372E-16));
#648=DIRECTION('',(0.,-1.,0.));
#649=DIRECTION('',(1.,0.,6.03190472215372E-16));
#650=DIRECTION('',(0.,1.,0.));
#651=DIRECTION('',(0.,0.,1.));
#652=DIRECTION('',(0.,0.,1.));
#653=DIRECTION('',(-1.,0.,0.));
#654=DIRECTION('',(1.11629567308675E-16,0.,-1.));
#655=DIRECTION('',(0.,0.,1.));
#656=DIRECTION('',(1.,0.,0.));
#657=DIRECTION('',(0.,-1.,0.));
#658=DIRECTION('',(0.,-1.,0.));
#659=DIRECTION('',(-1.,0.,-1.11629567308675E-16));
#660=DIRECTION('',(-1.11629567308675E-16,0.,1.));
#661=DIRECTION('',(1.,0.,0.));
#662=DIRECTION('',(0.,0.,-1.));
#663=DIRECTION('',(0.,1.,0.));
#664=DIRECTION('',(0.,0.,1.));
#665=DIRECTION('',(0.,1.,0.));
#666=DIRECTION('',(0.,0.,1.));
#667=DIRECTION('',(0.,-1.,0.));
#668=DIRECTION('',(0.,0.,-1.));
#669=DIRECTION('',(0.,1.,0.));
#670=DIRECTION('',(0.,0.,1.));
#671=DIRECTION('',(0.,-1.,0.));
#672=DIRECTION('',(0.,0.,-1.));
#673=DIRECTION('',(0.,1.,0.));
#674=DIRECTION('',(0.,0.,1.));
#675=DIRECTION('',(0.,-1.,0.));
#676=DIRECTION('',(0.,0.,-1.));
#677=DIRECTION('',(0.,1.,0.));
#678=DIRECTION('',(0.,0.,1.));
#679=DIRECTION('',(0.,-1.,0.));
#680=DIRECTION('',(0.,0.,-1.));
#681=DIRECTION('',(0.,1.,0.));
#682=DIRECTION('',(0.,0.,1.));
#683=DIRECTION('',(0.,-1.,0.));
#684=DIRECTION('',(0.,0.,-1.));
#685=DIRECTION('',(0.,1.,0.));
#686=DIRECTION('',(1.,0.,0.));
#687=DIRECTION('',(0.,1.,0.));
#688=DIRECTION('',(0.,0.,1.));
#689=DIRECTION('',(0.,-1.,0.));
#690=DIRECTION('',(0.,0.,-1.));
#691=DIRECTION('',(0.,1.,0.));
#692=DIRECTION('',(1.,0.,0.));
#693=DIRECTION('',(0.,1.,0.));
#694=DIRECTION('',(0.,0.,1.));
#695=DIRECTION('',(0.,-1.,0.));
#696=DIRECTION('',(0.,0.,-1.));
#697=DIRECTION('',(0.,1.,0.));
#698=DIRECTION('',(1.,0.,0.));
#699=DIRECTION('',(0.,1.,0.));
#700=DIRECTION('',(0.,0.,1.));
#701=DIRECTION('',(0.,-1.,0.));
#702=DIRECTION('',(0.,0.,-1.));
#703=DIRECTION('',(0.,1.,0.));
#704=DIRECTION('',(1.,0.,0.));
#705=DIRECTION('',(0.,1.,0.));
#706=DIRECTION('',(0.,0.,1.));
#707=DIRECTION('',(0.,-1.,0.));
#708=DIRECTION('',(0.,0.,-1.));
#709=DIRECTION('',(0.,1.,0.));
#710=DIRECTION('',(1.,0.,0.));
#711=DIRECTION('',(0.,1.,0.));
#712=DIRECTION('',(0.,0.,1.));
#713=CARTESIAN_POINT('',(0.,0.,0.));
#714=CARTESIAN_POINT('',(0.,-10.,3.5));
#715=CARTESIAN_POINT('',(0.,0.,3.5));
#716=CARTESIAN_POINT('',(0.,0.,3.5));
#717=CARTESIAN_POINT('',(110.1,0.,3.5));
#718=CARTESIAN_POINT('',(0.,-10.,3.5));
#719=CARTESIAN_POINT('',(0.,-10.,3.5));
#720=CARTESIAN_POINT('',(0.,-10.,3.5));
#721=CARTESIAN_POINT('',(110.1,-10.,3.5));
#722=CARTESIAN_POINT('',(110.1,-10.,3.5));
#723=CARTESIAN_POINT('',(110.1,-10.,-25.55));
#724=CARTESIAN_POINT('',(110.1,0.,-25.55));
#725=CARTESIAN_POINT('',(110.1,0.,-25.55));
#726=CARTESIAN_POINT('',(110.1,-10.,3.5));
#727=CARTESIAN_POINT('',(110.1,-10.,-25.55));
#728=CARTESIAN_POINT('',(110.1,-10.,-25.55));
#729=CARTESIAN_POINT('',(3.12897257182149E-15,-10.,-25.55));
#730=CARTESIAN_POINT('',(3.12897257182149E-15,0.,-25.55));
#731=CARTESIAN_POINT('',(3.12897257182149E-15,0.,-25.55));
#732=CARTESIAN_POINT('',(49.19,-10.,-25.55));
#733=CARTESIAN_POINT('',(3.12897257182149E-15,-10.,-25.55));
#734=CARTESIAN_POINT('',(3.12897257182149E-15,-10.,-25.55));
#735=CARTESIAN_POINT('',(0.,-10.,0.));
#736=CARTESIAN_POINT('',(0.,0.,0.));
#737=CARTESIAN_POINT('',(0.,-10.,0.));
#738=CARTESIAN_POINT('',(0.,-10.,0.));
#739=CARTESIAN_POINT('',(49.19,-10.,-6.02));
#740=CARTESIAN_POINT('',(56.69,-10.,-6.02));
#741=CARTESIAN_POINT('',(5.,-10.,-12.77));
#742=CARTESIAN_POINT('',(7.55,-10.,-12.77));
#743=CARTESIAN_POINT('',(26.64,-10.,-20.55));
#744=CARTESIAN_POINT('',(29.19,-10.,-20.55));
#745=CARTESIAN_POINT('',(79.92,-10.,-20.55));
#746=CARTESIAN_POINT('',(82.47,-10.,-20.55));
#747=CARTESIAN_POINT('',(98.28,-10.,-12.78));
#748=CARTESIAN_POINT('',(100.83,-10.,-12.78));
#749=CARTESIAN_POINT('',(0.,0.,0.));
#750=CARTESIAN_POINT('',(98.28,0.,-12.78));
#751=CARTESIAN_POINT('',(98.28,0.,-11.28));
#752=CARTESIAN_POINT('',(26.64,0.,-20.55));
#753=CARTESIAN_POINT('',(26.64,0.,-19.05));
#754=CARTESIAN_POINT('',(79.92,0.,-20.55));
#755=CARTESIAN_POINT('',(79.92,0.,-19.05));
#756=CARTESIAN_POINT('',(5.,0.,-12.77));
#757=CARTESIAN_POINT('',(5.,0.,-11.27));
#758=CARTESIAN_POINT('',(10.,0.,0.));
#759=CARTESIAN_POINT('',(10.,0.,-1.10716581363227E-21));
#760=CARTESIAN_POINT('',(10.,0.,-15.54));
#761=CARTESIAN_POINT('',(49.19,0.,-15.54));
#762=CARTESIAN_POINT('',(90.,0.,-15.54));
#763=CARTESIAN_POINT('',(90.,0.,-2.46154006628618E-15));
#764=CARTESIAN_POINT('',(90.,0.,-2.1231253855191E-15));
#765=CARTESIAN_POINT('',(53.6632091388622,0.,-1.73472347597681E-15));
#766=CARTESIAN_POINT('',(53.6632091388622,0.,0.));
#767=CARTESIAN_POINT('',(49.19,0.,-6.02));
#768=CARTESIAN_POINT('',(44.7167908611378,0.,-8.67361737988404E-16));
#769=CARTESIAN_POINT('',(41.8408776034141,0.,-9.79719949581477E-16));
#770=CARTESIAN_POINT('',(49.19,0.,-6.02));
#771=CARTESIAN_POINT('',(49.19,0.,0.355000000000001));
#772=CARTESIAN_POINT('',(49.19,29.0621775368764,-6.02));
#773=CARTESIAN_POINT('',(49.19,-7.5,-6.02));
#774=CARTESIAN_POINT('',(49.19,-7.5,0.355000000000001));
#775=CARTESIAN_POINT('',(75.18,53.2582945058889,-6.01999999999999));
#776=CARTESIAN_POINT('',(75.18,0.,-6.01999999999999));
#777=CARTESIAN_POINT('',(75.18,0.,-2.945));
#778=CARTESIAN_POINT('',(75.18,5.,-6.01999999999999));
#779=CARTESIAN_POINT('',(75.18,5.,-2.945));
#780=CARTESIAN_POINT('',(23.2,53.2582945058889,-6.02));
#781=CARTESIAN_POINT('',(23.2,0.,-6.02));
#782=CARTESIAN_POINT('',(23.2,0.,-2.945));
#783=CARTESIAN_POINT('',(23.2,5.,-6.02));
#784=CARTESIAN_POINT('',(23.2,5.,-2.945));
#785=CARTESIAN_POINT('',(41.8408776034141,5.,-9.79719949581477E-16));
#786=CARTESIAN_POINT('',(44.7167908611378,5.,-8.67361737988404E-16));
#787=CARTESIAN_POINT('',(44.7167908611378,5.,-8.67361737988404E-16));
#788=CARTESIAN_POINT('',(41.8408776034141,5.,-9.79719949581477E-16));
#789=CARTESIAN_POINT('',(10.,5.,0.));
#790=CARTESIAN_POINT('',(10.,5.,0.));
#791=CARTESIAN_POINT('',(49.19,5.,-6.02));
#792=CARTESIAN_POINT('',(53.6632091388622,5.,0.));
#793=CARTESIAN_POINT('',(53.6632091388622,5.,0.));
#794=CARTESIAN_POINT('',(49.19,5.,-6.02));
#795=CARTESIAN_POINT('',(53.6632091388622,5.,-1.73472347597681E-15));
#796=CARTESIAN_POINT('',(90.,5.,-2.46154006628618E-15));
#797=CARTESIAN_POINT('',(90.,5.,-2.46154006628618E-15));
#798=CARTESIAN_POINT('',(53.6632091388622,5.,-1.73472347597681E-15));
#799=CARTESIAN_POINT('',(49.19,5.,-6.02));
#800=CARTESIAN_POINT('',(90.,5.,-2.46154006628618E-15));
#801=CARTESIAN_POINT('',(90.,5.,-15.54));
#802=CARTESIAN_POINT('',(59.19,5.,-15.54));
#803=CARTESIAN_POINT('',(10.,5.,-15.54));
#804=CARTESIAN_POINT('',(10.,5.,0.));
#805=CARTESIAN_POINT('',(49.19,5.,-15.54));
#806=CARTESIAN_POINT('',(10.,5.,-15.54));
#807=CARTESIAN_POINT('',(90.,5.,-15.54));
#808=CARTESIAN_POINT('',(10.,5.,0.));
#809=CARTESIAN_POINT('',(90.,5.,-2.46154006628618E-15));
#810=CARTESIAN_POINT('',(23.2,0.,-6.02));
#811=CARTESIAN_POINT('',(75.18,0.,-6.01999999999999));
#812=CARTESIAN_POINT('',(5.,9.35445647190091,-12.77));
#813=CARTESIAN_POINT('',(5.,-7.,-12.77));
#814=CARTESIAN_POINT('',(5.,-7.,-11.27));
#815=CARTESIAN_POINT('',(79.92,82.9827449347425,-20.55));
#816=CARTESIAN_POINT('',(79.92,-7.00000000000001,-20.55));
#817=CARTESIAN_POINT('',(79.92,-7.00000000000001,-19.05));
#818=CARTESIAN_POINT('',(26.64,82.9827449347425,-20.55));
#819=CARTESIAN_POINT('',(26.64,-7.00000000000001,-20.55));
#820=CARTESIAN_POINT('',(26.64,-7.00000000000001,-19.05));
#821=CARTESIAN_POINT('',(98.28,36.7171600959281,-12.78));
#822=CARTESIAN_POINT('',(98.28,-7.,-12.78));
#823=CARTESIAN_POINT('',(98.28,-7.,-11.28));
#824=CARTESIAN_POINT('',(98.28,-7.,-12.78));
#825=CARTESIAN_POINT('',(98.28,-7.,-12.78));
#826=CARTESIAN_POINT('',(100.83,-7.,-12.78));
#827=CARTESIAN_POINT('',(98.28,-7.,-12.78));
#828=CARTESIAN_POINT('',(79.92,-7.,-20.55));
#829=CARTESIAN_POINT('',(79.92,-7.,-20.55));
#830=CARTESIAN_POINT('',(82.47,-7.,-20.55));
#831=CARTESIAN_POINT('',(79.92,-7.,-20.55));
#832=CARTESIAN_POINT('',(26.64,-7.,-20.55));
#833=CARTESIAN_POINT('',(26.64,-7.,-20.55));
#834=CARTESIAN_POINT('',(29.19,-7.,-20.55));
#835=CARTESIAN_POINT('',(26.64,-7.,-20.55));
#836=CARTESIAN_POINT('',(5.,-7.,-12.77));
#837=CARTESIAN_POINT('',(5.,-7.,-12.77));
#838=CARTESIAN_POINT('',(7.55,-7.,-12.77));
#839=CARTESIAN_POINT('',(5.,-7.,-12.77));
#840=CARTESIAN_POINT('',(49.19,-7.5,-6.02));
#841=CARTESIAN_POINT('',(49.19,-7.5,-6.02));
#842=CARTESIAN_POINT('',(56.69,-7.5,-6.02));
#843=CARTESIAN_POINT('',(49.19,-7.5,-6.02));
#844=MECHANICAL_DESIGN_GEOMETRIC_PRESENTATION_REPRESENTATION('',(#497),
#845);
#845=(
GEOMETRIC_REPRESENTATION_CONTEXT(3)
GLOBAL_UNCERTAINTY_ASSIGNED_CONTEXT((#846))
GLOBAL_UNIT_ASSIGNED_CONTEXT((#849,#848,#847))
REPRESENTATION_CONTEXT('21_FDML_stimfix_Badal_stage_cover_rear',
'TOP_LEVEL_ASSEMBLY_PART')
);
#846=UNCERTAINTY_MEASURE_WITH_UNIT(LENGTH_MEASURE(0.005),#849,
'DISTANCE_ACCURACY_VALUE','Maximum Tolerance applied to model');
#847=(
NAMED_UNIT(*)
SI_UNIT($,.STERADIAN.)
SOLID_ANGLE_UNIT()
);
#848=(
NAMED_UNIT(*)
PLANE_ANGLE_UNIT()
SI_UNIT($,.RADIAN.)
);
#849=(
LENGTH_UNIT()
NAMED_UNIT(*)
SI_UNIT(.MILLI.,.METRE.)
);
#850=PRODUCT_DEFINITION_SHAPE('','',#851);
#851=PRODUCT_DEFINITION('','',#853,#852);
#852=PRODUCT_DEFINITION_CONTEXT('',#859,'design');
#853=PRODUCT_DEFINITION_FORMATION_WITH_SPECIFIED_SOURCE('','',#855,
 .NOT_KNOWN.);
#854=PRODUCT_RELATED_PRODUCT_CATEGORY('','',(#855));
#855=PRODUCT('21_FDML_stimfix_Badal_stage_cover_rear',
'21_FDML_stimfix_Badal_stage_cover_rear',
'21_FDML_stimfix_Badal_stage_cover_rear',(#857));
#856=PRODUCT_CATEGORY('','');
#857=PRODUCT_CONTEXT('',#859,'mechanical');
#858=APPLICATION_PROTOCOL_DEFINITION('international standard',
'automotive_design',2010,#859);
#859=APPLICATION_CONTEXT(
'core data for automotive mechanical design processes');
ENDSEC;
END-ISO-10303-21;
