ISO-10303-21;
HEADER;
/* Generated by software containing ST-Developer
 * from STEP Tools, Inc. (www.steptools.com) 
 */
/* OPTION: strings as raw bytes, not using required /X/ escapes */

FILE_DESCRIPTION(
/* description */ ('Unknown'),
/* implementation_level */ '2;1');

FILE_NAME(
/* name */ '22_FDML_stimfix_Badal_stage_cover_top',
/* time_stamp */ '2026-09-07T15:09:55+02:00',
/* author */ ('Unknown'),
/* organization */ ('Unknown'),
/* preprocessor_version */ 'ST-DEVELOPER v16.7',
/* originating_system */ 'Solid Edge',
/* authorisation */ 'Unknown');

FILE_SCHEMA (('AUTOMOTIVE_DESIGN {1 0 10303 214 3 1 1}'));
ENDSEC;

DATA;
#10=PROPERTY_DEFINITION_REPRESENTATION(#14,#12);
#11=PROPERTY_DEFINITION_REPRESENTATION(#15,#13);
#12=REPRESENTATION('',(#16),#1317);
#13=REPRESENTATION('',(#17),#1317);
#14=PROPERTY_DEFINITION('pmi validation property','',#1322);
#15=PROPERTY_DEFINITION('pmi validation property','',#1322);
#16=VALUE_REPRESENTATION_ITEM('number of annotations',COUNT_MEASURE(0.));
#17=VALUE_REPRESENTATION_ITEM('number of views',COUNT_MEASURE(0.));
#18=SHAPE_REPRESENTATION_RELATIONSHIP('','',#807,#19);
#19=ADVANCED_BREP_SHAPE_REPRESENTATION('',(#805),#1317);
#20=CYLINDRICAL_SURFACE('',#837,1.);
#21=CYLINDRICAL_SURFACE('',#839,1.);
#22=CYLINDRICAL_SURFACE('',#841,1.);
#23=CYLINDRICAL_SURFACE('',#843,1.);
#24=CYLINDRICAL_SURFACE('',#845,1.);
#25=CYLINDRICAL_SURFACE('',#847,1.);
#26=CYLINDRICAL_SURFACE('',#849,1.);
#27=CYLINDRICAL_SURFACE('',#851,1.);
#28=CYLINDRICAL_SURFACE('',#853,1.8);
#29=CYLINDRICAL_SURFACE('',#856,1.8);
#30=CYLINDRICAL_SURFACE('',#859,1.8);
#31=CYLINDRICAL_SURFACE('',#862,1.8);
#32=CYLINDRICAL_SURFACE('',#865,1.8);
#33=CYLINDRICAL_SURFACE('',#868,1.8);
#34=CYLINDRICAL_SURFACE('',#871,1.8);
#35=CYLINDRICAL_SURFACE('',#874,1.8);
#36=CIRCLE('',#816,1.8);
#37=CIRCLE('',#817,1.8);
#38=CIRCLE('',#818,1.8);
#39=CIRCLE('',#819,1.8);
#40=CIRCLE('',#820,1.8);
#41=CIRCLE('',#821,1.8);
#42=CIRCLE('',#822,1.8);
#43=CIRCLE('',#823,1.8);
#44=CIRCLE('',#825,1.);
#45=CIRCLE('',#826,1.);
#46=CIRCLE('',#827,1.);
#47=CIRCLE('',#828,1.);
#48=CIRCLE('',#829,1.);
#49=CIRCLE('',#830,1.);
#50=CIRCLE('',#831,1.);
#51=CIRCLE('',#832,1.);
#52=CIRCLE('',#838,1.);
#53=CIRCLE('',#840,1.);
#54=CIRCLE('',#842,1.);
#55=CIRCLE('',#844,1.);
#56=CIRCLE('',#846,1.);
#57=CIRCLE('',#848,1.);
#58=CIRCLE('',#850,1.);
#59=CIRCLE('',#852,1.);
#60=CIRCLE('',#854,1.8);
#61=CIRCLE('',#857,1.8);
#62=CIRCLE('',#860,1.8);
#63=CIRCLE('',#863,1.8);
#64=CIRCLE('',#866,1.8);
#65=CIRCLE('',#869,1.8);
#66=CIRCLE('',#872,1.8);
#67=CIRCLE('',#875,1.8);
#68=ORIENTED_EDGE('',*,*,#252,.T.);
#69=ORIENTED_EDGE('',*,*,#253,.T.);
#70=ORIENTED_EDGE('',*,*,#254,.F.);
#71=ORIENTED_EDGE('',*,*,#255,.F.);
#72=ORIENTED_EDGE('',*,*,#256,.F.);
#73=ORIENTED_EDGE('',*,*,#257,.T.);
#74=ORIENTED_EDGE('',*,*,#258,.F.);
#75=ORIENTED_EDGE('',*,*,#259,.F.);
#76=ORIENTED_EDGE('',*,*,#260,.T.);
#77=ORIENTED_EDGE('',*,*,#261,.T.);
#78=ORIENTED_EDGE('',*,*,#262,.T.);
#79=ORIENTED_EDGE('',*,*,#263,.T.);
#80=ORIENTED_EDGE('',*,*,#264,.F.);
#81=ORIENTED_EDGE('',*,*,#265,.F.);
#82=ORIENTED_EDGE('',*,*,#266,.F.);
#83=ORIENTED_EDGE('',*,*,#267,.F.);
#84=ORIENTED_EDGE('',*,*,#268,.T.);
#85=ORIENTED_EDGE('',*,*,#269,.T.);
#86=ORIENTED_EDGE('',*,*,#270,.T.);
#87=ORIENTED_EDGE('',*,*,#271,.T.);
#88=ORIENTED_EDGE('',*,*,#272,.T.);
#89=ORIENTED_EDGE('',*,*,#273,.T.);
#90=ORIENTED_EDGE('',*,*,#274,.T.);
#91=ORIENTED_EDGE('',*,*,#275,.T.);
#92=ORIENTED_EDGE('',*,*,#267,.T.);
#93=ORIENTED_EDGE('',*,*,#276,.F.);
#94=ORIENTED_EDGE('',*,*,#260,.F.);
#95=ORIENTED_EDGE('',*,*,#277,.T.);
#96=ORIENTED_EDGE('',*,*,#278,.F.);
#97=ORIENTED_EDGE('',*,*,#279,.F.);
#98=ORIENTED_EDGE('',*,*,#280,.F.);
#99=ORIENTED_EDGE('',*,*,#268,.F.);
#100=ORIENTED_EDGE('',*,*,#281,.T.);
#101=ORIENTED_EDGE('',*,*,#282,.F.);
#102=ORIENTED_EDGE('',*,*,#283,.F.);
#103=ORIENTED_EDGE('',*,*,#272,.F.);
#104=ORIENTED_EDGE('',*,*,#253,.F.);
#105=ORIENTED_EDGE('',*,*,#284,.F.);
#106=ORIENTED_EDGE('',*,*,#259,.T.);
#107=ORIENTED_EDGE('',*,*,#285,.T.);
#108=ORIENTED_EDGE('',*,*,#286,.T.);
#109=ORIENTED_EDGE('',*,*,#287,.T.);
#110=ORIENTED_EDGE('',*,*,#288,.T.);
#111=ORIENTED_EDGE('',*,*,#289,.F.);
#112=ORIENTED_EDGE('',*,*,#290,.T.);
#113=ORIENTED_EDGE('',*,*,#291,.T.);
#114=ORIENTED_EDGE('',*,*,#292,.T.);
#115=ORIENTED_EDGE('',*,*,#293,.T.);
#116=ORIENTED_EDGE('',*,*,#294,.T.);
#117=ORIENTED_EDGE('',*,*,#295,.T.);
#118=ORIENTED_EDGE('',*,*,#296,.T.);
#119=ORIENTED_EDGE('',*,*,#297,.T.);
#120=ORIENTED_EDGE('',*,*,#265,.T.);
#121=ORIENTED_EDGE('',*,*,#298,.F.);
#122=ORIENTED_EDGE('',*,*,#262,.F.);
#123=ORIENTED_EDGE('',*,*,#299,.F.);
#124=ORIENTED_EDGE('',*,*,#300,.T.);
#125=ORIENTED_EDGE('',*,*,#301,.F.);
#126=ORIENTED_EDGE('',*,*,#302,.T.);
#127=ORIENTED_EDGE('',*,*,#270,.F.);
#128=ORIENTED_EDGE('',*,*,#303,.T.);
#129=ORIENTED_EDGE('',*,*,#304,.F.);
#130=ORIENTED_EDGE('',*,*,#305,.F.);
#131=ORIENTED_EDGE('',*,*,#274,.F.);
#132=ORIENTED_EDGE('',*,*,#257,.F.);
#133=ORIENTED_EDGE('',*,*,#306,.T.);
#134=ORIENTED_EDGE('',*,*,#255,.T.);
#135=ORIENTED_EDGE('',*,*,#307,.T.);
#136=ORIENTED_EDGE('',*,*,#308,.F.);
#137=ORIENTED_EDGE('',*,*,#309,.F.);
#138=ORIENTED_EDGE('',*,*,#310,.F.);
#139=ORIENTED_EDGE('',*,*,#311,.F.);
#140=ORIENTED_EDGE('',*,*,#312,.F.);
#141=ORIENTED_EDGE('',*,*,#313,.F.);
#142=ORIENTED_EDGE('',*,*,#314,.F.);
#143=ORIENTED_EDGE('',*,*,#315,.F.);
#144=ORIENTED_EDGE('',*,*,#316,.F.);
#145=ORIENTED_EDGE('',*,*,#317,.F.);
#146=ORIENTED_EDGE('',*,*,#318,.F.);
#147=ORIENTED_EDGE('',*,*,#319,.F.);
#148=ORIENTED_EDGE('',*,*,#310,.T.);
#149=ORIENTED_EDGE('',*,*,#320,.F.);
#150=ORIENTED_EDGE('',*,*,#286,.F.);
#151=ORIENTED_EDGE('',*,*,#321,.T.);
#152=ORIENTED_EDGE('',*,*,#309,.T.);
#153=ORIENTED_EDGE('',*,*,#322,.F.);
#154=ORIENTED_EDGE('',*,*,#287,.F.);
#155=ORIENTED_EDGE('',*,*,#320,.T.);
#156=ORIENTED_EDGE('',*,*,#308,.T.);
#157=ORIENTED_EDGE('',*,*,#323,.T.);
#158=ORIENTED_EDGE('',*,*,#288,.F.);
#159=ORIENTED_EDGE('',*,*,#322,.T.);
#160=ORIENTED_EDGE('',*,*,#311,.T.);
#161=ORIENTED_EDGE('',*,*,#321,.F.);
#162=ORIENTED_EDGE('',*,*,#285,.F.);
#163=ORIENTED_EDGE('',*,*,#258,.T.);
#164=ORIENTED_EDGE('',*,*,#324,.F.);
#165=ORIENTED_EDGE('',*,*,#312,.T.);
#166=ORIENTED_EDGE('',*,*,#325,.F.);
#167=ORIENTED_EDGE('',*,*,#313,.T.);
#168=ORIENTED_EDGE('',*,*,#326,.F.);
#169=ORIENTED_EDGE('',*,*,#319,.T.);
#170=ORIENTED_EDGE('',*,*,#327,.F.);
#171=ORIENTED_EDGE('',*,*,#318,.T.);
#172=ORIENTED_EDGE('',*,*,#328,.F.);
#173=ORIENTED_EDGE('',*,*,#317,.T.);
#174=ORIENTED_EDGE('',*,*,#329,.F.);
#175=ORIENTED_EDGE('',*,*,#316,.T.);
#176=ORIENTED_EDGE('',*,*,#330,.F.);
#177=ORIENTED_EDGE('',*,*,#315,.T.);
#178=ORIENTED_EDGE('',*,*,#331,.F.);
#179=ORIENTED_EDGE('',*,*,#314,.T.);
#180=ORIENTED_EDGE('',*,*,#332,.T.);
#181=ORIENTED_EDGE('',*,*,#291,.F.);
#182=ORIENTED_EDGE('',*,*,#325,.T.);
#183=ORIENTED_EDGE('',*,*,#332,.F.);
#184=ORIENTED_EDGE('',*,*,#333,.T.);
#185=ORIENTED_EDGE('',*,*,#297,.F.);
#186=ORIENTED_EDGE('',*,*,#326,.T.);
#187=ORIENTED_EDGE('',*,*,#333,.F.);
#188=ORIENTED_EDGE('',*,*,#334,.T.);
#189=ORIENTED_EDGE('',*,*,#296,.F.);
#190=ORIENTED_EDGE('',*,*,#327,.T.);
#191=ORIENTED_EDGE('',*,*,#334,.F.);
#192=ORIENTED_EDGE('',*,*,#335,.T.);
#193=ORIENTED_EDGE('',*,*,#295,.F.);
#194=ORIENTED_EDGE('',*,*,#328,.T.);
#195=ORIENTED_EDGE('',*,*,#335,.F.);
#196=ORIENTED_EDGE('',*,*,#336,.T.);
#197=ORIENTED_EDGE('',*,*,#294,.F.);
#198=ORIENTED_EDGE('',*,*,#329,.T.);
#199=ORIENTED_EDGE('',*,*,#336,.F.);
#200=ORIENTED_EDGE('',*,*,#337,.T.);
#201=ORIENTED_EDGE('',*,*,#292,.F.);
#202=ORIENTED_EDGE('',*,*,#330,.T.);
#203=ORIENTED_EDGE('',*,*,#337,.F.);
#204=ORIENTED_EDGE('',*,*,#338,.T.);
#205=ORIENTED_EDGE('',*,*,#293,.F.);
#206=ORIENTED_EDGE('',*,*,#331,.T.);
#207=ORIENTED_EDGE('',*,*,#338,.F.);
#208=ORIENTED_EDGE('',*,*,#339,.T.);
#209=ORIENTED_EDGE('',*,*,#290,.F.);
#210=ORIENTED_EDGE('',*,*,#324,.T.);
#211=ORIENTED_EDGE('',*,*,#339,.F.);
#212=ORIENTED_EDGE('',*,*,#299,.T.);
#213=ORIENTED_EDGE('',*,*,#261,.F.);
#214=ORIENTED_EDGE('',*,*,#276,.T.);
#215=ORIENTED_EDGE('',*,*,#266,.T.);
#216=ORIENTED_EDGE('',*,*,#300,.F.);
#217=ORIENTED_EDGE('',*,*,#269,.F.);
#218=ORIENTED_EDGE('',*,*,#280,.T.);
#219=ORIENTED_EDGE('',*,*,#340,.F.);
#220=ORIENTED_EDGE('',*,*,#303,.F.);
#221=ORIENTED_EDGE('',*,*,#273,.F.);
#222=ORIENTED_EDGE('',*,*,#283,.T.);
#223=ORIENTED_EDGE('',*,*,#341,.F.);
#224=ORIENTED_EDGE('',*,*,#304,.T.);
#225=ORIENTED_EDGE('',*,*,#341,.T.);
#226=ORIENTED_EDGE('',*,*,#282,.T.);
#227=ORIENTED_EDGE('',*,*,#342,.F.);
#228=ORIENTED_EDGE('',*,*,#301,.T.);
#229=ORIENTED_EDGE('',*,*,#340,.T.);
#230=ORIENTED_EDGE('',*,*,#279,.T.);
#231=ORIENTED_EDGE('',*,*,#343,.F.);
#232=ORIENTED_EDGE('',*,*,#281,.F.);
#233=ORIENTED_EDGE('',*,*,#275,.F.);
#234=ORIENTED_EDGE('',*,*,#305,.T.);
#235=ORIENTED_EDGE('',*,*,#342,.T.);
#236=ORIENTED_EDGE('',*,*,#278,.T.);
#237=ORIENTED_EDGE('',*,*,#271,.F.);
#238=ORIENTED_EDGE('',*,*,#302,.F.);
#239=ORIENTED_EDGE('',*,*,#343,.T.);
#240=ORIENTED_EDGE('',*,*,#277,.F.);
#241=ORIENTED_EDGE('',*,*,#263,.F.);
#242=ORIENTED_EDGE('',*,*,#298,.T.);
#243=ORIENTED_EDGE('',*,*,#264,.T.);
#244=ORIENTED_EDGE('',*,*,#254,.T.);
#245=ORIENTED_EDGE('',*,*,#289,.T.);
#246=ORIENTED_EDGE('',*,*,#323,.F.);
#247=ORIENTED_EDGE('',*,*,#307,.F.);
#248=ORIENTED_EDGE('',*,*,#284,.T.);
#249=ORIENTED_EDGE('',*,*,#252,.F.);
#250=ORIENTED_EDGE('',*,*,#306,.F.);
#251=ORIENTED_EDGE('',*,*,#256,.T.);
#252=EDGE_CURVE('',#344,#345,#416,.T.);
#253=EDGE_CURVE('',#345,#346,#417,.T.);
#254=EDGE_CURVE('',#347,#346,#418,.T.);
#255=EDGE_CURVE('',#344,#347,#419,.T.);
#256=EDGE_CURVE('',#348,#349,#420,.T.);
#257=EDGE_CURVE('',#348,#350,#421,.T.);
#258=EDGE_CURVE('',#351,#350,#422,.T.);
#259=EDGE_CURVE('',#349,#351,#423,.T.);
#260=EDGE_CURVE('',#352,#353,#424,.T.);
#261=EDGE_CURVE('',#353,#354,#425,.T.);
#262=EDGE_CURVE('',#354,#355,#426,.T.);
#263=EDGE_CURVE('',#355,#352,#427,.T.);
#264=EDGE_CURVE('',#356,#357,#428,.T.);
#265=EDGE_CURVE('',#358,#356,#429,.T.);
#266=EDGE_CURVE('',#359,#358,#430,.T.);
#267=EDGE_CURVE('',#357,#359,#431,.T.);
#268=EDGE_CURVE('',#360,#361,#432,.T.);
#269=EDGE_CURVE('',#361,#362,#433,.T.);
#270=EDGE_CURVE('',#362,#363,#434,.T.);
#271=EDGE_CURVE('',#363,#360,#435,.T.);
#272=EDGE_CURVE('',#364,#365,#436,.T.);
#273=EDGE_CURVE('',#365,#366,#437,.T.);
#274=EDGE_CURVE('',#366,#367,#438,.T.);
#275=EDGE_CURVE('',#367,#364,#439,.T.);
#276=EDGE_CURVE('',#353,#359,#440,.T.);
#277=EDGE_CURVE('',#352,#357,#441,.T.);
#278=EDGE_CURVE('',#368,#360,#442,.T.);
#279=EDGE_CURVE('',#369,#368,#443,.T.);
#280=EDGE_CURVE('',#361,#369,#444,.T.);
#281=EDGE_CURVE('',#364,#370,#445,.T.);
#282=EDGE_CURVE('',#371,#370,#446,.T.);
#283=EDGE_CURVE('',#365,#371,#447,.T.);
#284=EDGE_CURVE('',#349,#345,#448,.T.);
#285=EDGE_CURVE('',#351,#372,#449,.T.);
#286=EDGE_CURVE('',#372,#373,#450,.T.);
#287=EDGE_CURVE('',#373,#374,#451,.T.);
#288=EDGE_CURVE('',#374,#375,#452,.T.);
#289=EDGE_CURVE('',#346,#375,#453,.T.);
#290=EDGE_CURVE('',#376,#376,#36,.T.);
#291=EDGE_CURVE('',#377,#377,#37,.T.);
#292=EDGE_CURVE('',#378,#378,#38,.T.);
#293=EDGE_CURVE('',#379,#379,#39,.T.);
#294=EDGE_CURVE('',#380,#380,#40,.T.);
#295=EDGE_CURVE('',#381,#381,#41,.T.);
#296=EDGE_CURVE('',#382,#382,#42,.T.);
#297=EDGE_CURVE('',#383,#383,#43,.T.);
#298=EDGE_CURVE('',#355,#356,#454,.T.);
#299=EDGE_CURVE('',#358,#354,#455,.T.);
#300=EDGE_CURVE('',#362,#384,#456,.T.);
#301=EDGE_CURVE('',#385,#384,#457,.T.);
#302=EDGE_CURVE('',#385,#363,#458,.T.);
#303=EDGE_CURVE('',#366,#386,#459,.T.);
#304=EDGE_CURVE('',#387,#386,#460,.T.);
#305=EDGE_CURVE('',#367,#387,#461,.T.);
#306=EDGE_CURVE('',#348,#344,#462,.T.);
#307=EDGE_CURVE('',#347,#388,#463,.T.);
#308=EDGE_CURVE('',#389,#388,#464,.T.);
#309=EDGE_CURVE('',#390,#389,#465,.T.);
#310=EDGE_CURVE('',#391,#390,#466,.T.);
#311=EDGE_CURVE('',#350,#391,#467,.T.);
#312=EDGE_CURVE('',#392,#392,#44,.F.);
#313=EDGE_CURVE('',#393,#393,#45,.F.);
#314=EDGE_CURVE('',#394,#394,#46,.F.);
#315=EDGE_CURVE('',#395,#395,#47,.F.);
#316=EDGE_CURVE('',#396,#396,#48,.F.);
#317=EDGE_CURVE('',#397,#397,#49,.F.);
#318=EDGE_CURVE('',#398,#398,#50,.F.);
#319=EDGE_CURVE('',#399,#399,#51,.F.);
#320=EDGE_CURVE('',#373,#390,#468,.T.);
#321=EDGE_CURVE('',#372,#391,#469,.T.);
#322=EDGE_CURVE('',#374,#389,#470,.T.);
#323=EDGE_CURVE('',#388,#375,#471,.T.);
#324=EDGE_CURVE('',#400,#400,#52,.T.);
#325=EDGE_CURVE('',#401,#401,#53,.T.);
#326=EDGE_CURVE('',#402,#402,#54,.T.);
#327=EDGE_CURVE('',#403,#403,#55,.T.);
#328=EDGE_CURVE('',#404,#404,#56,.T.);
#329=EDGE_CURVE('',#405,#405,#57,.T.);
#330=EDGE_CURVE('',#406,#406,#58,.T.);
#331=EDGE_CURVE('',#407,#407,#59,.T.);
#332=EDGE_CURVE('',#408,#408,#60,.T.);
#333=EDGE_CURVE('',#409,#409,#61,.T.);
#334=EDGE_CURVE('',#410,#410,#62,.T.);
#335=EDGE_CURVE('',#411,#411,#63,.T.);
#336=EDGE_CURVE('',#412,#412,#64,.T.);
#337=EDGE_CURVE('',#413,#413,#65,.T.);
#338=EDGE_CURVE('',#414,#414,#66,.T.);
#339=EDGE_CURVE('',#415,#415,#67,.T.);
#340=EDGE_CURVE('',#384,#369,#472,.T.);
#341=EDGE_CURVE('',#386,#371,#473,.T.);
#342=EDGE_CURVE('',#387,#370,#474,.T.);
#343=EDGE_CURVE('',#385,#368,#475,.T.);
#344=VERTEX_POINT('',#1108);
#345=VERTEX_POINT('',#1109);
#346=VERTEX_POINT('',#1111);
#347=VERTEX_POINT('',#1113);
#348=VERTEX_POINT('',#1117);
#349=VERTEX_POINT('',#1118);
#350=VERTEX_POINT('',#1120);
#351=VERTEX_POINT('',#1122);
#352=VERTEX_POINT('',#1126);
#353=VERTEX_POINT('',#1127);
#354=VERTEX_POINT('',#1129);
#355=VERTEX_POINT('',#1131);
#356=VERTEX_POINT('',#1135);
#357=VERTEX_POINT('',#1136);
#358=VERTEX_POINT('',#1138);
#359=VERTEX_POINT('',#1140);
#360=VERTEX_POINT('',#1144);
#361=VERTEX_POINT('',#1145);
#362=VERTEX_POINT('',#1147);
#363=VERTEX_POINT('',#1149);
#364=VERTEX_POINT('',#1153);
#365=VERTEX_POINT('',#1154);
#366=VERTEX_POINT('',#1156);
#367=VERTEX_POINT('',#1158);
#368=VERTEX_POINT('',#1164);
#369=VERTEX_POINT('',#1166);
#370=VERTEX_POINT('',#1169);
#371=VERTEX_POINT('',#1171);
#372=VERTEX_POINT('',#1175);
#373=VERTEX_POINT('',#1177);
#374=VERTEX_POINT('',#1179);
#375=VERTEX_POINT('',#1181);
#376=VERTEX_POINT('',#1184);
#377=VERTEX_POINT('',#1186);
#378=VERTEX_POINT('',#1188);
#379=VERTEX_POINT('',#1190);
#380=VERTEX_POINT('',#1192);
#381=VERTEX_POINT('',#1194);
#382=VERTEX_POINT('',#1196);
#383=VERTEX_POINT('',#1198);
#384=VERTEX_POINT('',#1203);
#385=VERTEX_POINT('',#1205);
#386=VERTEX_POINT('',#1208);
#387=VERTEX_POINT('',#1210);
#388=VERTEX_POINT('',#1214);
#389=VERTEX_POINT('',#1216);
#390=VERTEX_POINT('',#1218);
#391=VERTEX_POINT('',#1220);
#392=VERTEX_POINT('',#1223);
#393=VERTEX_POINT('',#1225);
#394=VERTEX_POINT('',#1227);
#395=VERTEX_POINT('',#1229);
#396=VERTEX_POINT('',#1231);
#397=VERTEX_POINT('',#1233);
#398=VERTEX_POINT('',#1235);
#399=VERTEX_POINT('',#1237);
#400=VERTEX_POINT('',#1248);
#401=VERTEX_POINT('',#1251);
#402=VERTEX_POINT('',#1254);
#403=VERTEX_POINT('',#1257);
#404=VERTEX_POINT('',#1260);
#405=VERTEX_POINT('',#1263);
#406=VERTEX_POINT('',#1266);
#407=VERTEX_POINT('',#1269);
#408=VERTEX_POINT('',#1272);
#409=VERTEX_POINT('',#1276);
#410=VERTEX_POINT('',#1280);
#411=VERTEX_POINT('',#1284);
#412=VERTEX_POINT('',#1288);
#413=VERTEX_POINT('',#1292);
#414=VERTEX_POINT('',#1296);
#415=VERTEX_POINT('',#1300);
#416=LINE('',#1107,#476);
#417=LINE('',#1110,#477);
#418=LINE('',#1112,#478);
#419=LINE('',#1114,#479);
#420=LINE('',#1116,#480);
#421=LINE('',#1119,#481);
#422=LINE('',#1121,#482);
#423=LINE('',#1123,#483);
#424=LINE('',#1125,#484);
#425=LINE('',#1128,#485);
#426=LINE('',#1130,#486);
#427=LINE('',#1132,#487);
#428=LINE('',#1134,#488);
#429=LINE('',#1137,#489);
#430=LINE('',#1139,#490);
#431=LINE('',#1141,#491);
#432=LINE('',#1143,#492);
#433=LINE('',#1146,#493);
#434=LINE('',#1148,#494);
#435=LINE('',#1150,#495);
#436=LINE('',#1152,#496);
#437=LINE('',#1155,#497);
#438=LINE('',#1157,#498);
#439=LINE('',#1159,#499);
#440=LINE('',#1161,#500);
#441=LINE('',#1162,#501);
#442=LINE('',#1163,#502);
#443=LINE('',#1165,#503);
#444=LINE('',#1167,#504);
#445=LINE('',#1168,#505);
#446=LINE('',#1170,#506);
#447=LINE('',#1172,#507);
#448=LINE('',#1173,#508);
#449=LINE('',#1174,#509);
#450=LINE('',#1176,#510);
#451=LINE('',#1178,#511);
#452=LINE('',#1180,#512);
#453=LINE('',#1182,#513);
#454=LINE('',#1200,#514);
#455=LINE('',#1201,#515);
#456=LINE('',#1202,#516);
#457=LINE('',#1204,#517);
#458=LINE('',#1206,#518);
#459=LINE('',#1207,#519);
#460=LINE('',#1209,#520);
#461=LINE('',#1211,#521);
#462=LINE('',#1212,#522);
#463=LINE('',#1213,#523);
#464=LINE('',#1215,#524);
#465=LINE('',#1217,#525);
#466=LINE('',#1219,#526);
#467=LINE('',#1221,#527);
#468=LINE('',#1239,#528);
#469=LINE('',#1240,#529);
#470=LINE('',#1242,#530);
#471=LINE('',#1244,#531);
#472=LINE('',#1304,#532);
#473=LINE('',#1306,#533);
#474=LINE('',#1308,#534);
#475=LINE('',#1310,#535);
#476=VECTOR('',#891,1000.);
#477=VECTOR('',#892,1000.);
#478=VECTOR('',#893,1000.);
#479=VECTOR('',#894,1000.);
#480=VECTOR('',#897,1000.);
#481=VECTOR('',#898,1000.);
#482=VECTOR('',#899,1000.);
#483=VECTOR('',#900,1000.);
#484=VECTOR('',#903,1000.);
#485=VECTOR('',#904,1000.);
#486=VECTOR('',#905,1000.);
#487=VECTOR('',#906,1000.);
#488=VECTOR('',#909,1000.);
#489=VECTOR('',#910,1000.);
#490=VECTOR('',#911,1000.);
#491=VECTOR('',#912,1000.);
#492=VECTOR('',#915,1000.);
#493=VECTOR('',#916,1000.);
#494=VECTOR('',#917,1000.);
#495=VECTOR('',#918,1000.);
#496=VECTOR('',#921,1000.);
#497=VECTOR('',#922,1000.);
#498=VECTOR('',#923,1000.);
#499=VECTOR('',#924,1000.);
#500=VECTOR('',#927,1000.);
#501=VECTOR('',#928,1000.);
#502=VECTOR('',#929,1000.);
#503=VECTOR('',#930,1000.);
#504=VECTOR('',#931,1000.);
#505=VECTOR('',#932,1000.);
#506=VECTOR('',#933,1000.);
#507=VECTOR('',#934,1000.);
#508=VECTOR('',#935,1000.);
#509=VECTOR('',#936,1000.);
#510=VECTOR('',#937,1000.);
#511=VECTOR('',#938,1000.);
#512=VECTOR('',#939,1000.);
#513=VECTOR('',#940,1000.);
#514=VECTOR('',#959,1000.);
#515=VECTOR('',#960,1000.);
#516=VECTOR('',#961,1000.);
#517=VECTOR('',#962,1000.);
#518=VECTOR('',#963,1000.);
#519=VECTOR('',#964,1000.);
#520=VECTOR('',#965,1000.);
#521=VECTOR('',#966,1000.);
#522=VECTOR('',#967,1000.);
#523=VECTOR('',#968,1000.);
#524=VECTOR('',#969,1000.);
#525=VECTOR('',#970,1000.);
#526=VECTOR('',#971,1000.);
#527=VECTOR('',#972,1000.);
#528=VECTOR('',#991,1000.);
#529=VECTOR('',#992,1000.);
#530=VECTOR('',#995,1000.);
#531=VECTOR('',#998,1000.);
#532=VECTOR('',#1085,1000.);
#533=VECTOR('',#1088,1000.);
#534=VECTOR('',#1091,1000.);
#535=VECTOR('',#1094,1000.);
#536=EDGE_LOOP('',(#68,#69,#70,#71));
#537=EDGE_LOOP('',(#72,#73,#74,#75));
#538=EDGE_LOOP('',(#76,#77,#78,#79));
#539=EDGE_LOOP('',(#80,#81,#82,#83));
#540=EDGE_LOOP('',(#84,#85,#86,#87));
#541=EDGE_LOOP('',(#88,#89,#90,#91));
#542=EDGE_LOOP('',(#92,#93,#94,#95));
#543=EDGE_LOOP('',(#96,#97,#98,#99));
#544=EDGE_LOOP('',(#100,#101,#102,#103));
#545=EDGE_LOOP('',(#104,#105,#106,#107,#108,#109,#110,#111));
#546=EDGE_LOOP('',(#112));
#547=EDGE_LOOP('',(#113));
#548=EDGE_LOOP('',(#114));
#549=EDGE_LOOP('',(#115));
#550=EDGE_LOOP('',(#116));
#551=EDGE_LOOP('',(#117));
#552=EDGE_LOOP('',(#118));
#553=EDGE_LOOP('',(#119));
#554=EDGE_LOOP('',(#120,#121,#122,#123));
#555=EDGE_LOOP('',(#124,#125,#126,#127));
#556=EDGE_LOOP('',(#128,#129,#130,#131));
#557=EDGE_LOOP('',(#132,#133,#134,#135,#136,#137,#138,#139));
#558=EDGE_LOOP('',(#140));
#559=EDGE_LOOP('',(#141));
#560=EDGE_LOOP('',(#142));
#561=EDGE_LOOP('',(#143));
#562=EDGE_LOOP('',(#144));
#563=EDGE_LOOP('',(#145));
#564=EDGE_LOOP('',(#146));
#565=EDGE_LOOP('',(#147));
#566=EDGE_LOOP('',(#148,#149,#150,#151));
#567=EDGE_LOOP('',(#152,#153,#154,#155));
#568=EDGE_LOOP('',(#156,#157,#158,#159));
#569=EDGE_LOOP('',(#160,#161,#162,#163));
#570=EDGE_LOOP('',(#164));
#571=EDGE_LOOP('',(#165));
#572=EDGE_LOOP('',(#166));
#573=EDGE_LOOP('',(#167));
#574=EDGE_LOOP('',(#168));
#575=EDGE_LOOP('',(#169));
#576=EDGE_LOOP('',(#170));
#577=EDGE_LOOP('',(#171));
#578=EDGE_LOOP('',(#172));
#579=EDGE_LOOP('',(#173));
#580=EDGE_LOOP('',(#174));
#581=EDGE_LOOP('',(#175));
#582=EDGE_LOOP('',(#176));
#583=EDGE_LOOP('',(#177));
#584=EDGE_LOOP('',(#178));
#585=EDGE_LOOP('',(#179));
#586=EDGE_LOOP('',(#180));
#587=EDGE_LOOP('',(#181));
#588=EDGE_LOOP('',(#182));
#589=EDGE_LOOP('',(#183));
#590=EDGE_LOOP('',(#184));
#591=EDGE_LOOP('',(#185));
#592=EDGE_LOOP('',(#186));
#593=EDGE_LOOP('',(#187));
#594=EDGE_LOOP('',(#188));
#595=EDGE_LOOP('',(#189));
#596=EDGE_LOOP('',(#190));
#597=EDGE_LOOP('',(#191));
#598=EDGE_LOOP('',(#192));
#599=EDGE_LOOP('',(#193));
#600=EDGE_LOOP('',(#194));
#601=EDGE_LOOP('',(#195));
#602=EDGE_LOOP('',(#196));
#603=EDGE_LOOP('',(#197));
#604=EDGE_LOOP('',(#198));
#605=EDGE_LOOP('',(#199));
#606=EDGE_LOOP('',(#200));
#607=EDGE_LOOP('',(#201));
#608=EDGE_LOOP('',(#202));
#609=EDGE_LOOP('',(#203));
#610=EDGE_LOOP('',(#204));
#611=EDGE_LOOP('',(#205));
#612=EDGE_LOOP('',(#206));
#613=EDGE_LOOP('',(#207));
#614=EDGE_LOOP('',(#208));
#615=EDGE_LOOP('',(#209));
#616=EDGE_LOOP('',(#210));
#617=EDGE_LOOP('',(#211));
#618=EDGE_LOOP('',(#212,#213,#214,#215));
#619=EDGE_LOOP('',(#216,#217,#218,#219));
#620=EDGE_LOOP('',(#220,#221,#222,#223));
#621=EDGE_LOOP('',(#224,#225,#226,#227));
#622=EDGE_LOOP('',(#228,#229,#230,#231));
#623=EDGE_LOOP('',(#232,#233,#234,#235));
#624=EDGE_LOOP('',(#236,#237,#238,#239));
#625=EDGE_LOOP('',(#240,#241,#242,#243));
#626=EDGE_LOOP('',(#244,#245,#246,#247));
#627=EDGE_LOOP('',(#248,#249,#250,#251));
#628=FACE_BOUND('',#536,.T.);
#629=FACE_BOUND('',#537,.T.);
#630=FACE_BOUND('',#538,.T.);
#631=FACE_BOUND('',#539,.T.);
#632=FACE_BOUND('',#540,.T.);
#633=FACE_BOUND('',#541,.T.);
#634=FACE_BOUND('',#542,.T.);
#635=FACE_BOUND('',#543,.T.);
#636=FACE_BOUND('',#544,.T.);
#637=FACE_BOUND('',#545,.T.);
#638=FACE_BOUND('',#546,.T.);
#639=FACE_BOUND('',#547,.T.);
#640=FACE_BOUND('',#548,.T.);
#641=FACE_BOUND('',#549,.T.);
#642=FACE_BOUND('',#550,.T.);
#643=FACE_BOUND('',#551,.T.);
#644=FACE_BOUND('',#552,.T.);
#645=FACE_BOUND('',#553,.T.);
#646=FACE_BOUND('',#554,.T.);
#647=FACE_BOUND('',#555,.T.);
#648=FACE_BOUND('',#556,.T.);
#649=FACE_BOUND('',#557,.T.);
#650=FACE_BOUND('',#558,.T.);
#651=FACE_BOUND('',#559,.T.);
#652=FACE_BOUND('',#560,.T.);
#653=FACE_BOUND('',#561,.T.);
#654=FACE_BOUND('',#562,.T.);
#655=FACE_BOUND('',#563,.T.);
#656=FACE_BOUND('',#564,.T.);
#657=FACE_BOUND('',#565,.T.);
#658=FACE_BOUND('',#566,.T.);
#659=FACE_BOUND('',#567,.T.);
#660=FACE_BOUND('',#568,.T.);
#661=FACE_BOUND('',#569,.T.);
#662=FACE_BOUND('',#570,.T.);
#663=FACE_BOUND('',#571,.T.);
#664=FACE_BOUND('',#572,.T.);
#665=FACE_BOUND('',#573,.T.);
#666=FACE_BOUND('',#574,.T.);
#667=FACE_BOUND('',#575,.T.);
#668=FACE_BOUND('',#576,.T.);
#669=FACE_BOUND('',#577,.T.);
#670=FACE_BOUND('',#578,.T.);
#671=FACE_BOUND('',#579,.T.);
#672=FACE_BOUND('',#580,.T.);
#673=FACE_BOUND('',#581,.T.);
#674=FACE_BOUND('',#582,.T.);
#675=FACE_BOUND('',#583,.T.);
#676=FACE_BOUND('',#584,.T.);
#677=FACE_BOUND('',#585,.T.);
#678=FACE_BOUND('',#586,.T.);
#679=FACE_BOUND('',#587,.T.);
#680=FACE_BOUND('',#588,.T.);
#681=FACE_BOUND('',#589,.T.);
#682=FACE_BOUND('',#590,.T.);
#683=FACE_BOUND('',#591,.T.);
#684=FACE_BOUND('',#592,.T.);
#685=FACE_BOUND('',#593,.T.);
#686=FACE_BOUND('',#594,.T.);
#687=FACE_BOUND('',#595,.T.);
#688=FACE_BOUND('',#596,.T.);
#689=FACE_BOUND('',#597,.T.);
#690=FACE_BOUND('',#598,.T.);
#691=FACE_BOUND('',#599,.T.);
#692=FACE_BOUND('',#600,.T.);
#693=FACE_BOUND('',#601,.T.);
#694=FACE_BOUND('',#602,.T.);
#695=FACE_BOUND('',#603,.T.);
#696=FACE_BOUND('',#604,.T.);
#697=FACE_BOUND('',#605,.T.);
#698=FACE_BOUND('',#606,.T.);
#699=FACE_BOUND('',#607,.T.);
#700=FACE_BOUND('',#608,.T.);
#701=FACE_BOUND('',#609,.T.);
#702=FACE_BOUND('',#610,.T.);
#703=FACE_BOUND('',#611,.T.);
#704=FACE_BOUND('',#612,.T.);
#705=FACE_BOUND('',#613,.T.);
#706=FACE_BOUND('',#614,.T.);
#707=FACE_BOUND('',#615,.T.);
#708=FACE_BOUND('',#616,.T.);
#709=FACE_BOUND('',#617,.T.);
#710=FACE_BOUND('',#618,.T.);
#711=FACE_BOUND('',#619,.T.);
#712=FACE_BOUND('',#620,.T.);
#713=FACE_BOUND('',#621,.T.);
#714=FACE_BOUND('',#622,.T.);
#715=FACE_BOUND('',#623,.T.);
#716=FACE_BOUND('',#624,.T.);
#717=FACE_BOUND('',#625,.T.);
#718=FACE_BOUND('',#626,.T.);
#719=FACE_BOUND('',#627,.T.);
#720=PLANE('',#809);
#721=PLANE('',#810);
#722=PLANE('',#811);
#723=PLANE('',#812);
#724=PLANE('',#813);
#725=PLANE('',#814);
#726=PLANE('',#815);
#727=PLANE('',#824);
#728=PLANE('',#833);
#729=PLANE('',#834);
#730=PLANE('',#835);
#731=PLANE('',#836);
#732=PLANE('',#855);
#733=PLANE('',#858);
#734=PLANE('',#861);
#735=PLANE('',#864);
#736=PLANE('',#867);
#737=PLANE('',#870);
#738=PLANE('',#873);
#739=PLANE('',#876);
#740=PLANE('',#877);
#741=PLANE('',#878);
#742=PLANE('',#879);
#743=PLANE('',#880);
#744=PLANE('',#881);
#745=PLANE('',#882);
#746=PLANE('',#883);
#747=PLANE('',#884);
#748=PLANE('',#885);
#749=PLANE('',#886);
#750=ADVANCED_FACE('',(#628),#720,.F.);
#751=ADVANCED_FACE('',(#629),#721,.F.);
#752=ADVANCED_FACE('',(#630),#722,.T.);
#753=ADVANCED_FACE('',(#631),#723,.F.);
#754=ADVANCED_FACE('',(#632),#724,.T.);
#755=ADVANCED_FACE('',(#633),#725,.T.);
#756=ADVANCED_FACE('',(#634,#635,#636,#637,#638,#639,#640,#641,#642,#643,
#644,#645),#726,.T.);
#757=ADVANCED_FACE('',(#646,#647,#648,#649,#650,#651,#652,#653,#654,#655,
#656,#657),#727,.F.);
#758=ADVANCED_FACE('',(#658),#728,.F.);
#759=ADVANCED_FACE('',(#659),#729,.F.);
#760=ADVANCED_FACE('',(#660),#730,.F.);
#761=ADVANCED_FACE('',(#661),#731,.F.);
#762=ADVANCED_FACE('',(#662,#663),#20,.F.);
#763=ADVANCED_FACE('',(#664,#665),#21,.F.);
#764=ADVANCED_FACE('',(#666,#667),#22,.F.);
#765=ADVANCED_FACE('',(#668,#669),#23,.F.);
#766=ADVANCED_FACE('',(#670,#671),#24,.F.);
#767=ADVANCED_FACE('',(#672,#673),#25,.F.);
#768=ADVANCED_FACE('',(#674,#675),#26,.F.);
#769=ADVANCED_FACE('',(#676,#677),#27,.F.);
#770=ADVANCED_FACE('',(#678,#679),#28,.F.);
#771=ADVANCED_FACE('',(#680,#681),#732,.F.);
#772=ADVANCED_FACE('',(#682,#683),#29,.F.);
#773=ADVANCED_FACE('',(#684,#685),#733,.F.);
#774=ADVANCED_FACE('',(#686,#687),#30,.F.);
#775=ADVANCED_FACE('',(#688,#689),#734,.F.);
#776=ADVANCED_FACE('',(#690,#691),#31,.F.);
#777=ADVANCED_FACE('',(#692,#693),#735,.F.);
#778=ADVANCED_FACE('',(#694,#695),#32,.F.);
#779=ADVANCED_FACE('',(#696,#697),#736,.F.);
#780=ADVANCED_FACE('',(#698,#699),#33,.F.);
#781=ADVANCED_FACE('',(#700,#701),#737,.F.);
#782=ADVANCED_FACE('',(#702,#703),#34,.F.);
#783=ADVANCED_FACE('',(#704,#705),#738,.F.);
#784=ADVANCED_FACE('',(#706,#707),#35,.F.);
#785=ADVANCED_FACE('',(#708,#709),#739,.F.);
#786=ADVANCED_FACE('',(#710),#740,.T.);
#787=ADVANCED_FACE('',(#711),#741,.F.);
#788=ADVANCED_FACE('',(#712),#742,.F.);
#789=ADVANCED_FACE('',(#713),#743,.T.);
#790=ADVANCED_FACE('',(#714),#744,.T.);
#791=ADVANCED_FACE('',(#715),#745,.T.);
#792=ADVANCED_FACE('',(#716),#746,.F.);
#793=ADVANCED_FACE('',(#717),#747,.T.);
#794=ADVANCED_FACE('',(#718),#748,.F.);
#795=ADVANCED_FACE('',(#719),#749,.F.);
#796=CLOSED_SHELL('',(#750,#751,#752,#753,#754,#755,#756,#757,#758,#759,
#760,#761,#762,#763,#764,#765,#766,#767,#768,#769,#770,#771,#772,#773,#774,
#775,#776,#777,#778,#779,#780,#781,#782,#783,#784,#785,#786,#787,#788,#789,
#790,#791,#792,#793,#794,#795));
#797=STYLED_ITEM('',(#798),#805);
#798=PRESENTATION_STYLE_ASSIGNMENT((#799));
#799=SURFACE_STYLE_USAGE(.BOTH.,#800);
#800=SURFACE_SIDE_STYLE('',(#801));
#801=SURFACE_STYLE_FILL_AREA(#802);
#802=FILL_AREA_STYLE('',(#803));
#803=FILL_AREA_STYLE_COLOUR('',#804);
#804=COLOUR_RGB('',0.506983280181885,0.531564235687256,0.550000011920929);
#805=MANIFOLD_SOLID_BREP('',#796);
#806=SHAPE_DEFINITION_REPRESENTATION(#1322,#807);
#807=SHAPE_REPRESENTATION('22_FDML_stimfix_Badal_stage_cover_top',(#808),
#1317);
#808=AXIS2_PLACEMENT_3D('',#1105,#887,#888);
#809=AXIS2_PLACEMENT_3D('',#1106,#889,#890);
#810=AXIS2_PLACEMENT_3D('',#1115,#895,#896);
#811=AXIS2_PLACEMENT_3D('',#1124,#901,#902);
#812=AXIS2_PLACEMENT_3D('',#1133,#907,#908);
#813=AXIS2_PLACEMENT_3D('',#1142,#913,#914);
#814=AXIS2_PLACEMENT_3D('',#1151,#919,#920);
#815=AXIS2_PLACEMENT_3D('',#1160,#925,#926);
#816=AXIS2_PLACEMENT_3D('',#1183,#941,#942);
#817=AXIS2_PLACEMENT_3D('',#1185,#943,#944);
#818=AXIS2_PLACEMENT_3D('',#1187,#945,#946);
#819=AXIS2_PLACEMENT_3D('',#1189,#947,#948);
#820=AXIS2_PLACEMENT_3D('',#1191,#949,#950);
#821=AXIS2_PLACEMENT_3D('',#1193,#951,#952);
#822=AXIS2_PLACEMENT_3D('',#1195,#953,#954);
#823=AXIS2_PLACEMENT_3D('',#1197,#955,#956);
#824=AXIS2_PLACEMENT_3D('',#1199,#957,#958);
#825=AXIS2_PLACEMENT_3D('',#1222,#973,#974);
#826=AXIS2_PLACEMENT_3D('',#1224,#975,#976);
#827=AXIS2_PLACEMENT_3D('',#1226,#977,#978);
#828=AXIS2_PLACEMENT_3D('',#1228,#979,#980);
#829=AXIS2_PLACEMENT_3D('',#1230,#981,#982);
#830=AXIS2_PLACEMENT_3D('',#1232,#983,#984);
#831=AXIS2_PLACEMENT_3D('',#1234,#985,#986);
#832=AXIS2_PLACEMENT_3D('',#1236,#987,#988);
#833=AXIS2_PLACEMENT_3D('',#1238,#989,#990);
#834=AXIS2_PLACEMENT_3D('',#1241,#993,#994);
#835=AXIS2_PLACEMENT_3D('',#1243,#996,#997);
#836=AXIS2_PLACEMENT_3D('',#1245,#999,#1000);
#837=AXIS2_PLACEMENT_3D('',#1246,#1001,#1002);
#838=AXIS2_PLACEMENT_3D('',#1247,#1003,#1004);
#839=AXIS2_PLACEMENT_3D('',#1249,#1005,#1006);
#840=AXIS2_PLACEMENT_3D('',#1250,#1007,#1008);
#841=AXIS2_PLACEMENT_3D('',#1252,#1009,#1010);
#842=AXIS2_PLACEMENT_3D('',#1253,#1011,#1012);
#843=AXIS2_PLACEMENT_3D('',#1255,#1013,#1014);
#844=AXIS2_PLACEMENT_3D('',#1256,#1015,#1016);
#845=AXIS2_PLACEMENT_3D('',#1258,#1017,#1018);
#846=AXIS2_PLACEMENT_3D('',#1259,#1019,#1020);
#847=AXIS2_PLACEMENT_3D('',#1261,#1021,#1022);
#848=AXIS2_PLACEMENT_3D('',#1262,#1023,#1024);
#849=AXIS2_PLACEMENT_3D('',#1264,#1025,#1026);
#850=AXIS2_PLACEMENT_3D('',#1265,#1027,#1028);
#851=AXIS2_PLACEMENT_3D('',#1267,#1029,#1030);
#852=AXIS2_PLACEMENT_3D('',#1268,#1031,#1032);
#853=AXIS2_PLACEMENT_3D('',#1270,#1033,#1034);
#854=AXIS2_PLACEMENT_3D('',#1271,#1035,#1036);
#855=AXIS2_PLACEMENT_3D('',#1273,#1037,#1038);
#856=AXIS2_PLACEMENT_3D('',#1274,#1039,#1040);
#857=AXIS2_PLACEMENT_3D('',#1275,#1041,#1042);
#858=AXIS2_PLACEMENT_3D('',#1277,#1043,#1044);
#859=AXIS2_PLACEMENT_3D('',#1278,#1045,#1046);
#860=AXIS2_PLACEMENT_3D('',#1279,#1047,#1048);
#861=AXIS2_PLACEMENT_3D('',#1281,#1049,#1050);
#862=AXIS2_PLACEMENT_3D('',#1282,#1051,#1052);
#863=AXIS2_PLACEMENT_3D('',#1283,#1053,#1054);
#864=AXIS2_PLACEMENT_3D('',#1285,#1055,#1056);
#865=AXIS2_PLACEMENT_3D('',#1286,#1057,#1058);
#866=AXIS2_PLACEMENT_3D('',#1287,#1059,#1060);
#867=AXIS2_PLACEMENT_3D('',#1289,#1061,#1062);
#868=AXIS2_PLACEMENT_3D('',#1290,#1063,#1064);
#869=AXIS2_PLACEMENT_3D('',#1291,#1065,#1066);
#870=AXIS2_PLACEMENT_3D('',#1293,#1067,#1068);
#871=AXIS2_PLACEMENT_3D('',#1294,#1069,#1070);
#872=AXIS2_PLACEMENT_3D('',#1295,#1071,#1072);
#873=AXIS2_PLACEMENT_3D('',#1297,#1073,#1074);
#874=AXIS2_PLACEMENT_3D('',#1298,#1075,#1076);
#875=AXIS2_PLACEMENT_3D('',#1299,#1077,#1078);
#876=AXIS2_PLACEMENT_3D('',#1301,#1079,#1080);
#877=AXIS2_PLACEMENT_3D('',#1302,#1081,#1082);
#878=AXIS2_PLACEMENT_3D('',#1303,#1083,#1084);
#879=AXIS2_PLACEMENT_3D('',#1305,#1086,#1087);
#880=AXIS2_PLACEMENT_3D('',#1307,#1089,#1090);
#881=AXIS2_PLACEMENT_3D('',#1309,#1092,#1093);
#882=AXIS2_PLACEMENT_3D('',#1311,#1095,#1096);
#883=AXIS2_PLACEMENT_3D('',#1312,#1097,#1098);
#884=AXIS2_PLACEMENT_3D('',#1313,#1099,#1100);
#885=AXIS2_PLACEMENT_3D('',#1314,#1101,#1102);
#886=AXIS2_PLACEMENT_3D('',#1315,#1103,#1104);
#887=DIRECTION('',(0.,0.,1.));
#888=DIRECTION('',(1.,0.,0.));
#889=DIRECTION('',(0.,-1.,0.));
#890=DIRECTION('',(0.,0.,-1.));
#891=DIRECTION('',(0.,0.,1.));
#892=DIRECTION('',(1.,0.,0.));
#893=DIRECTION('',(0.,0.,1.));
#894=DIRECTION('',(1.,0.,0.));
#895=DIRECTION('',(0.,-1.,0.));
#896=DIRECTION('',(0.,0.,-1.));
#897=DIRECTION('',(0.,0.,1.));
#898=DIRECTION('',(-1.,0.,0.));
#899=DIRECTION('',(0.,0.,-1.));
#900=DIRECTION('',(-1.,0.,0.));
#901=DIRECTION('',(7.40069742310925E-17,1.,0.));
#902=DIRECTION('',(-1.,7.40069742310925E-17,0.));
#903=DIRECTION('',(1.,-7.40069742310925E-17,0.));
#904=DIRECTION('',(0.,0.,-1.));
#905=DIRECTION('',(-1.,7.40069742310925E-17,0.));
#906=DIRECTION('',(0.,0.,1.));
#907=DIRECTION('',(-1.48013948462185E-16,1.,0.));
#908=DIRECTION('',(-1.,-1.48013948462185E-16,0.));
#909=DIRECTION('',(0.,0.,1.));
#910=DIRECTION('',(-1.,-1.48013948462185E-16,0.));
#911=DIRECTION('',(0.,0.,-1.));
#912=DIRECTION('',(1.,1.48013948462185E-16,0.));
#913=DIRECTION('',(0.,1.,0.));
#914=DIRECTION('',(0.,0.,1.));
#915=DIRECTION('',(1.,0.,0.));
#916=DIRECTION('',(0.,0.,-1.));
#917=DIRECTION('',(-1.,0.,0.));
#918=DIRECTION('',(0.,0.,1.));
#919=DIRECTION('',(0.,1.,0.));
#920=DIRECTION('',(0.,0.,1.));
#921=DIRECTION('',(1.,0.,0.));
#922=DIRECTION('',(0.,0.,-1.));
#923=DIRECTION('',(-1.,0.,0.));
#924=DIRECTION('',(0.,0.,1.));
#925=DIRECTION('',(0.,0.,1.));
#926=DIRECTION('',(1.,0.,0.));
#927=DIRECTION('',(0.,1.,0.));
#928=DIRECTION('',(-1.45317149820047E-15,1.,0.));
#929=DIRECTION('',(-6.30235595268595E-16,-1.,0.));
#930=DIRECTION('',(-1.,0.,0.));
#931=DIRECTION('',(0.,1.,0.));
#932=DIRECTION('',(-7.26585749100233E-16,1.,0.));
#933=DIRECTION('',(-1.,-1.48013948462185E-16,0.));
#934=DIRECTION('',(-7.66728608166544E-16,1.,0.));
#935=DIRECTION('',(0.707106781186548,-0.707106781186548,0.));
#936=DIRECTION('',(0.,-1.,0.));
#937=DIRECTION('',(1.,0.,0.));
#938=DIRECTION('',(0.,1.,0.));
#939=DIRECTION('',(-1.,0.,0.));
#940=DIRECTION('',(0.707106781186548,0.707106781186547,0.));
#941=DIRECTION('',(0.,0.,-1.));
#942=DIRECTION('',(1.,0.,0.));
#943=DIRECTION('',(0.,0.,-1.));
#944=DIRECTION('',(1.,0.,0.));
#945=DIRECTION('',(0.,0.,-1.));
#946=DIRECTION('',(1.,0.,0.));
#947=DIRECTION('',(0.,0.,-1.));
#948=DIRECTION('',(1.,0.,0.));
#949=DIRECTION('',(0.,0.,-1.));
#950=DIRECTION('',(1.,0.,0.));
#951=DIRECTION('',(0.,0.,-1.));
#952=DIRECTION('',(1.,0.,0.));
#953=DIRECTION('',(0.,0.,-1.));
#954=DIRECTION('',(1.,0.,0.));
#955=DIRECTION('',(0.,0.,-1.));
#956=DIRECTION('',(1.,0.,0.));
#957=DIRECTION('',(0.,0.,1.));
#958=DIRECTION('',(1.,0.,0.));
#959=DIRECTION('',(0.,1.,0.));
#960=DIRECTION('',(0.,-1.,0.));
#961=DIRECTION('',(0.,1.,0.));
#962=DIRECTION('',(1.,0.,0.));
#963=DIRECTION('',(-6.30235595268595E-16,-1.,0.));
#964=DIRECTION('',(-7.66728608166544E-16,1.,0.));
#965=DIRECTION('',(1.,1.48013948462185E-16,0.));
#966=DIRECTION('',(-7.26585749100233E-16,1.,0.));
#967=DIRECTION('',(0.707106781186548,-0.707106781186548,0.));
#968=DIRECTION('',(0.707106781186548,0.707106781186547,0.));
#969=DIRECTION('',(-1.,0.,0.));
#970=DIRECTION('',(0.,1.,0.));
#971=DIRECTION('',(1.,0.,0.));
#972=DIRECTION('',(0.,-1.,0.));
#973=DIRECTION('',(0.,0.,1.));
#974=DIRECTION('',(1.,0.,0.));
#975=DIRECTION('',(0.,0.,1.));
#976=DIRECTION('',(1.,0.,0.));
#977=DIRECTION('',(0.,0.,1.));
#978=DIRECTION('',(1.,0.,0.));
#979=DIRECTION('',(0.,0.,1.));
#980=DIRECTION('',(1.,0.,0.));
#981=DIRECTION('',(0.,0.,1.));
#982=DIRECTION('',(1.,0.,0.));
#983=DIRECTION('',(0.,0.,1.));
#984=DIRECTION('',(1.,0.,0.));
#985=DIRECTION('',(0.,0.,1.));
#986=DIRECTION('',(1.,0.,0.));
#987=DIRECTION('',(0.,0.,1.));
#988=DIRECTION('',(1.,0.,0.));
#989=DIRECTION('',(0.,1.,0.));
#990=DIRECTION('',(0.,0.,1.));
#991=DIRECTION('',(0.,0.,-1.));
#992=DIRECTION('',(0.,0.,-1.));
#993=DIRECTION('',(-1.,0.,0.));
#994=DIRECTION('',(0.,0.,1.));
#995=DIRECTION('',(0.,0.,-1.));
#996=DIRECTION('',(0.,-1.,0.));
#997=DIRECTION('',(0.,0.,-1.));
#998=DIRECTION('',(0.,0.,1.));
#999=DIRECTION('',(1.,0.,0.));
#1000=DIRECTION('',(0.,0.,-1.));
#1001=DIRECTION('',(0.,0.,1.));
#1002=DIRECTION('',(1.,0.,0.));
#1003=DIRECTION('',(0.,0.,-1.));
#1004=DIRECTION('',(-1.,0.,0.));
#1005=DIRECTION('',(0.,0.,1.));
#1006=DIRECTION('',(1.,0.,0.));
#1007=DIRECTION('',(0.,0.,-1.));
#1008=DIRECTION('',(-1.,0.,0.));
#1009=DIRECTION('',(0.,0.,1.));
#1010=DIRECTION('',(1.,0.,0.));
#1011=DIRECTION('',(0.,0.,-1.));
#1012=DIRECTION('',(-1.,0.,0.));
#1013=DIRECTION('',(0.,0.,1.));
#1014=DIRECTION('',(1.,0.,0.));
#1015=DIRECTION('',(0.,0.,-1.));
#1016=DIRECTION('',(-1.,0.,0.));
#1017=DIRECTION('',(0.,0.,1.));
#1018=DIRECTION('',(1.,0.,0.));
#1019=DIRECTION('',(0.,0.,-1.));
#1020=DIRECTION('',(-1.,0.,0.));
#1021=DIRECTION('',(0.,0.,1.));
#1022=DIRECTION('',(1.,0.,0.));
#1023=DIRECTION('',(0.,0.,-1.));
#1024=DIRECTION('',(-1.,0.,0.));
#1025=DIRECTION('',(0.,0.,1.));
#1026=DIRECTION('',(1.,0.,0.));
#1027=DIRECTION('',(0.,0.,-1.));
#1028=DIRECTION('',(-1.,0.,0.));
#1029=DIRECTION('',(0.,0.,1.));
#1030=DIRECTION('',(1.,0.,0.));
#1031=DIRECTION('',(0.,0.,-1.));
#1032=DIRECTION('',(-1.,0.,0.));
#1033=DIRECTION('',(0.,0.,1.));
#1034=DIRECTION('',(1.,0.,0.));
#1035=DIRECTION('',(0.,0.,-1.));
#1036=DIRECTION('',(1.,0.,0.));
#1037=DIRECTION('',(0.,0.,-1.));
#1038=DIRECTION('',(-1.,0.,0.));
#1039=DIRECTION('',(0.,0.,1.));
#1040=DIRECTION('',(1.,0.,0.));
#1041=DIRECTION('',(0.,0.,-1.));
#1042=DIRECTION('',(1.,0.,0.));
#1043=DIRECTION('',(0.,0.,-1.));
#1044=DIRECTION('',(-1.,0.,0.));
#1045=DIRECTION('',(0.,0.,1.));
#1046=DIRECTION('',(1.,0.,0.));
#1047=DIRECTION('',(0.,0.,-1.));
#1048=DIRECTION('',(1.,0.,0.));
#1049=DIRECTION('',(0.,0.,-1.));
#1050=DIRECTION('',(-1.,0.,0.));
#1051=DIRECTION('',(0.,0.,1.));
#1052=DIRECTION('',(1.,0.,0.));
#1053=DIRECTION('',(0.,0.,-1.));
#1054=DIRECTION('',(1.,0.,0.));
#1055=DIRECTION('',(0.,0.,-1.));
#1056=DIRECTION('',(-1.,0.,0.));
#1057=DIRECTION('',(0.,0.,1.));
#1058=DIRECTION('',(1.,0.,0.));
#1059=DIRECTION('',(0.,0.,-1.));
#1060=DIRECTION('',(1.,0.,0.));
#1061=DIRECTION('',(0.,0.,-1.));
#1062=DIRECTION('',(-1.,0.,0.));
#1063=DIRECTION('',(0.,0.,1.));
#1064=DIRECTION('',(1.,0.,0.));
#1065=DIRECTION('',(0.,0.,-1.));
#1066=DIRECTION('',(1.,0.,0.));
#1067=DIRECTION('',(0.,0.,-1.));
#1068=DIRECTION('',(-1.,0.,0.));
#1069=DIRECTION('',(0.,0.,1.));
#1070=DIRECTION('',(1.,0.,0.));
#1071=DIRECTION('',(0.,0.,-1.));
#1072=DIRECTION('',(1.,0.,0.));
#1073=DIRECTION('',(0.,0.,-1.));
#1074=DIRECTION('',(-1.,0.,0.));
#1075=DIRECTION('',(0.,0.,1.));
#1076=DIRECTION('',(1.,0.,0.));
#1077=DIRECTION('',(0.,0.,-1.));
#1078=DIRECTION('',(1.,0.,0.));
#1079=DIRECTION('',(0.,0.,-1.));
#1080=DIRECTION('',(-1.,0.,0.));
#1081=DIRECTION('',(-1.,0.,0.));
#1082=DIRECTION('',(0.,0.,1.));
#1083=DIRECTION('',(1.,0.,0.));
#1084=DIRECTION('',(0.,0.,-1.));
#1085=DIRECTION('',(0.,0.,1.));
#1086=DIRECTION('',(1.,7.66728608166544E-16,0.));
#1087=DIRECTION('',(-7.66728608166544E-16,1.,0.));
#1088=DIRECTION('',(0.,0.,1.));
#1089=DIRECTION('',(1.48013948462185E-16,-1.,0.));
#1090=DIRECTION('',(1.,1.48013948462185E-16,0.));
#1091=DIRECTION('',(0.,0.,1.));
#1092=DIRECTION('',(0.,-1.,0.));
#1093=DIRECTION('',(0.,0.,-1.));
#1094=DIRECTION('',(0.,0.,1.));
#1095=DIRECTION('',(1.,7.26585749100233E-16,0.));
#1096=DIRECTION('',(-7.26585749100233E-16,1.,0.));
#1097=DIRECTION('',(-1.,6.30235595268595E-16,0.));
#1098=DIRECTION('',(-6.30235595268595E-16,-1.,0.));
#1099=DIRECTION('',(1.,1.45317149820047E-15,0.));
#1100=DIRECTION('',(-1.45317149820047E-15,1.,0.));
#1101=DIRECTION('',(0.707106781186547,-0.707106781186548,0.));
#1102=DIRECTION('',(0.707106781186548,0.707106781186547,0.));
#1103=DIRECTION('',(-0.707106781186547,-0.707106781186547,0.));
#1104=DIRECTION('',(0.707106781186548,-0.707106781186548,0.));
#1105=CARTESIAN_POINT('',(0.,0.,0.));
#1106=CARTESIAN_POINT('',(-48.21,52.77,-30.1867176675636));
#1107=CARTESIAN_POINT('',(-48.21,52.77,0.));
#1108=CARTESIAN_POINT('',(-48.21,52.77,0.));
#1109=CARTESIAN_POINT('',(-48.21,52.77,3.5));
#1110=CARTESIAN_POINT('',(-48.21,52.77,3.5));
#1111=CARTESIAN_POINT('',(11.51,52.77,3.5));
#1112=CARTESIAN_POINT('',(11.51,52.77,-30.1867176675636));
#1113=CARTESIAN_POINT('',(11.51,52.77,0.));
#1114=CARTESIAN_POINT('',(0.,52.77,0.));
#1115=CARTESIAN_POINT('',(93.75,55.05,3.5));
#1116=CARTESIAN_POINT('',(-50.49,55.05,-30.1867176675636));
#1117=CARTESIAN_POINT('',(-50.49,55.05,0.));
#1118=CARTESIAN_POINT('',(-50.49,55.05,3.5));
#1119=CARTESIAN_POINT('',(93.75,55.05,0.));
#1120=CARTESIAN_POINT('',(-93.75,55.05,0.));
#1121=CARTESIAN_POINT('',(-93.75,55.05,3.5));
#1122=CARTESIAN_POINT('',(-93.75,55.05,3.5));
#1123=CARTESIAN_POINT('',(93.75,55.05,3.5));
#1124=CARTESIAN_POINT('',(7.82993787364958E-16,10.58,0.));
#1125=CARTESIAN_POINT('',(-93.75,10.58,3.5));
#1126=CARTESIAN_POINT('',(-88.75,10.58,3.5));
#1127=CARTESIAN_POINT('',(88.75,10.58,3.5));
#1128=CARTESIAN_POINT('',(88.75,10.58,0.));
#1129=CARTESIAN_POINT('',(88.75,10.58,0.));
#1130=CARTESIAN_POINT('',(-93.75,10.58,0.));
#1131=CARTESIAN_POINT('',(-88.75,10.58,0.));
#1132=CARTESIAN_POINT('',(-88.75,10.58,0.));
#1133=CARTESIAN_POINT('',(-4.39305399035765E-15,29.68,0.));
#1134=CARTESIAN_POINT('',(-88.75,29.68,0.));
#1135=CARTESIAN_POINT('',(-88.75,29.68,0.));
#1136=CARTESIAN_POINT('',(-88.75,29.68,3.5));
#1137=CARTESIAN_POINT('',(88.75,29.68,0.));
#1138=CARTESIAN_POINT('',(88.75,29.68,0.));
#1139=CARTESIAN_POINT('',(88.75,29.68,3.5));
#1140=CARTESIAN_POINT('',(88.75,29.68,3.5));
#1141=CARTESIAN_POINT('',(88.75,29.68,3.5));
#1142=CARTESIAN_POINT('',(0.,-16.9,0.));
#1143=CARTESIAN_POINT('',(-93.75,-16.9,3.5));
#1144=CARTESIAN_POINT('',(-88.75,-16.9,3.5));
#1145=CARTESIAN_POINT('',(88.75,-16.9,3.5));
#1146=CARTESIAN_POINT('',(88.75,-16.9,0.));
#1147=CARTESIAN_POINT('',(88.75,-16.9,0.));
#1148=CARTESIAN_POINT('',(-93.75,-16.9,0.));
#1149=CARTESIAN_POINT('',(-88.75,-16.9,0.));
#1150=CARTESIAN_POINT('',(-88.75,-16.9,0.));
#1151=CARTESIAN_POINT('',(0.,-41.46,0.));
#1152=CARTESIAN_POINT('',(-93.75,-41.46,3.5));
#1153=CARTESIAN_POINT('',(-88.75,-41.46,3.5));
#1154=CARTESIAN_POINT('',(88.75,-41.46,3.5));
#1155=CARTESIAN_POINT('',(88.75,-41.46,0.));
#1156=CARTESIAN_POINT('',(88.75,-41.46,0.));
#1157=CARTESIAN_POINT('',(-93.75,-41.46,0.));
#1158=CARTESIAN_POINT('',(-88.75,-41.46,0.));
#1159=CARTESIAN_POINT('',(-88.75,-41.46,0.));
#1160=CARTESIAN_POINT('',(0.,0.,3.5));
#1161=CARTESIAN_POINT('',(88.75,11.08,3.5));
#1162=CARTESIAN_POINT('',(-88.75,20.13,3.5));
#1163=CARTESIAN_POINT('',(-88.75,-16.9,3.5));
#1164=CARTESIAN_POINT('',(-88.75,5.12,3.5));
#1165=CARTESIAN_POINT('',(88.75,5.12,3.5));
#1166=CARTESIAN_POINT('',(88.75,5.12,3.5));
#1167=CARTESIAN_POINT('',(88.75,-16.4,3.5));
#1168=CARTESIAN_POINT('',(-88.75,-41.46,3.5));
#1169=CARTESIAN_POINT('',(-88.75,-22.36,3.5));
#1170=CARTESIAN_POINT('',(88.75,-22.36,3.5));
#1171=CARTESIAN_POINT('',(88.75,-22.36,3.5));
#1172=CARTESIAN_POINT('',(88.75,-40.96,3.5));
#1173=CARTESIAN_POINT('',(-48.21,52.77,3.5));
#1174=CARTESIAN_POINT('',(-93.75,55.05,3.5));
#1175=CARTESIAN_POINT('',(-93.75,-55.05,3.5));
#1176=CARTESIAN_POINT('',(-93.75,-55.05,3.5));
#1177=CARTESIAN_POINT('',(93.75,-55.05,3.5));
#1178=CARTESIAN_POINT('',(93.75,-55.05,3.5));
#1179=CARTESIAN_POINT('',(93.75,55.05,3.5));
#1180=CARTESIAN_POINT('',(93.75,55.05,3.5));
#1181=CARTESIAN_POINT('',(13.79,55.05,3.5));
#1182=CARTESIAN_POINT('',(13.79,55.05,3.5));
#1183=CARTESIAN_POINT('',(-70.31,-50.05,3.5));
#1184=CARTESIAN_POINT('',(-68.51,-50.05,3.5));
#1185=CARTESIAN_POINT('',(-70.31,43.86,3.5));
#1186=CARTESIAN_POINT('',(-68.51,43.86,3.5));
#1187=CARTESIAN_POINT('',(23.43,-50.05,3.5));
#1188=CARTESIAN_POINT('',(25.23,-50.05,3.5));
#1189=CARTESIAN_POINT('',(-23.44,-50.05,3.5));
#1190=CARTESIAN_POINT('',(-21.64,-50.05,3.5));
#1191=CARTESIAN_POINT('',(70.3,-50.05,3.5));
#1192=CARTESIAN_POINT('',(72.1,-50.05,3.5));
#1193=CARTESIAN_POINT('',(70.3,43.86,3.5));
#1194=CARTESIAN_POINT('',(72.1,43.86,3.5));
#1195=CARTESIAN_POINT('',(23.43,43.86,3.5));
#1196=CARTESIAN_POINT('',(25.23,43.86,3.5));
#1197=CARTESIAN_POINT('',(-23.44,43.86,3.5));
#1198=CARTESIAN_POINT('',(-21.64,43.86,3.5));
#1199=CARTESIAN_POINT('',(0.,0.,0.));
#1200=CARTESIAN_POINT('',(-88.75,10.58,0.));
#1201=CARTESIAN_POINT('',(88.75,11.08,0.));
#1202=CARTESIAN_POINT('',(88.75,0.,0.));
#1203=CARTESIAN_POINT('',(88.75,5.12,0.));
#1204=CARTESIAN_POINT('',(88.75,5.12,0.));
#1205=CARTESIAN_POINT('',(-88.75,5.12,0.));
#1206=CARTESIAN_POINT('',(-88.75,-16.9,0.));
#1207=CARTESIAN_POINT('',(88.75,6.80471639747808E-14,0.));
#1208=CARTESIAN_POINT('',(88.75,-22.36,0.));
#1209=CARTESIAN_POINT('',(88.75,-22.36,0.));
#1210=CARTESIAN_POINT('',(-88.75,-22.36,0.));
#1211=CARTESIAN_POINT('',(-88.75,-41.46,0.));
#1212=CARTESIAN_POINT('',(-48.21,52.77,0.));
#1213=CARTESIAN_POINT('',(-20.63,20.63,0.));
#1214=CARTESIAN_POINT('',(13.79,55.05,0.));
#1215=CARTESIAN_POINT('',(93.75,55.05,0.));
#1216=CARTESIAN_POINT('',(93.75,55.05,0.));
#1217=CARTESIAN_POINT('',(93.75,-55.05,0.));
#1218=CARTESIAN_POINT('',(93.75,-55.05,0.));
#1219=CARTESIAN_POINT('',(-93.75,-55.05,0.));
#1220=CARTESIAN_POINT('',(-93.75,-55.05,0.));
#1221=CARTESIAN_POINT('',(-93.75,55.05,0.));
#1222=CARTESIAN_POINT('',(-70.31,-50.05,0.));
#1223=CARTESIAN_POINT('',(-69.31,-50.05,0.));
#1224=CARTESIAN_POINT('',(-70.31,43.86,0.));
#1225=CARTESIAN_POINT('',(-69.31,43.86,0.));
#1226=CARTESIAN_POINT('',(-23.44,-50.05,0.));
#1227=CARTESIAN_POINT('',(-22.44,-50.05,0.));
#1228=CARTESIAN_POINT('',(23.43,-50.05,0.));
#1229=CARTESIAN_POINT('',(24.43,-50.05,0.));
#1230=CARTESIAN_POINT('',(70.3,-50.05,0.));
#1231=CARTESIAN_POINT('',(71.3,-50.05,0.));
#1232=CARTESIAN_POINT('',(70.3,43.86,0.));
#1233=CARTESIAN_POINT('',(71.3,43.86,0.));
#1234=CARTESIAN_POINT('',(23.43,43.86,0.));
#1235=CARTESIAN_POINT('',(24.43,43.86,0.));
#1236=CARTESIAN_POINT('',(-23.44,43.86,0.));
#1237=CARTESIAN_POINT('',(-22.44,43.86,0.));
#1238=CARTESIAN_POINT('',(-93.75,-55.05,3.5));
#1239=CARTESIAN_POINT('',(93.75,-55.05,3.5));
#1240=CARTESIAN_POINT('',(-93.75,-55.05,3.5));
#1241=CARTESIAN_POINT('',(93.75,-55.05,3.5));
#1242=CARTESIAN_POINT('',(93.75,55.05,3.5));
#1243=CARTESIAN_POINT('',(93.75,55.05,3.5));
#1244=CARTESIAN_POINT('',(13.79,55.05,-30.1867176675636));
#1245=CARTESIAN_POINT('',(-93.75,55.05,3.5));
#1246=CARTESIAN_POINT('',(-70.31,-50.05,-23.3057762991446));
#1247=CARTESIAN_POINT('',(-70.31,-50.05,1.5));
#1248=CARTESIAN_POINT('',(-71.31,-50.05,1.5));
#1249=CARTESIAN_POINT('',(-70.31,43.86,-64.3524889080183));
#1250=CARTESIAN_POINT('',(-70.31,43.86,1.5));
#1251=CARTESIAN_POINT('',(-71.31,43.86,1.5));
#1252=CARTESIAN_POINT('',(-23.44,43.86,-125.231062425398));
#1253=CARTESIAN_POINT('',(-23.44,43.86,1.5));
#1254=CARTESIAN_POINT('',(-24.44,43.86,1.5));
#1255=CARTESIAN_POINT('',(23.43,43.86,-125.231062425398));
#1256=CARTESIAN_POINT('',(23.43,43.86,1.5));
#1257=CARTESIAN_POINT('',(22.43,43.86,1.5));
#1258=CARTESIAN_POINT('',(70.3,43.86,-125.231062425398));
#1259=CARTESIAN_POINT('',(70.3,43.86,1.5));
#1260=CARTESIAN_POINT('',(69.3,43.86,1.5));
#1261=CARTESIAN_POINT('',(70.3,-50.05,-125.231062425398));
#1262=CARTESIAN_POINT('',(70.3,-50.05,1.5));
#1263=CARTESIAN_POINT('',(69.3,-50.05,1.5));
#1264=CARTESIAN_POINT('',(23.43,-50.05,-125.231062425398));
#1265=CARTESIAN_POINT('',(23.43,-50.05,1.5));
#1266=CARTESIAN_POINT('',(22.43,-50.05,1.5));
#1267=CARTESIAN_POINT('',(-23.44,-50.05,-125.231062425398));
#1268=CARTESIAN_POINT('',(-23.44,-50.05,1.5));
#1269=CARTESIAN_POINT('',(-24.44,-50.05,1.5));
#1270=CARTESIAN_POINT('',(-70.31,43.86,1.5));
#1271=CARTESIAN_POINT('',(-70.31,43.86,1.5));
#1272=CARTESIAN_POINT('',(-68.51,43.86,1.5));
#1273=CARTESIAN_POINT('',(-70.31,43.86,1.5));
#1274=CARTESIAN_POINT('',(-23.44,43.86,1.5));
#1275=CARTESIAN_POINT('',(-23.44,43.86,1.5));
#1276=CARTESIAN_POINT('',(-21.64,43.86,1.5));
#1277=CARTESIAN_POINT('',(-23.44,43.86,1.5));
#1278=CARTESIAN_POINT('',(23.43,43.86,1.5));
#1279=CARTESIAN_POINT('',(23.43,43.86,1.5));
#1280=CARTESIAN_POINT('',(25.23,43.86,1.5));
#1281=CARTESIAN_POINT('',(23.43,43.86,1.5));
#1282=CARTESIAN_POINT('',(70.3,43.86,1.5));
#1283=CARTESIAN_POINT('',(70.3,43.86,1.5));
#1284=CARTESIAN_POINT('',(72.1,43.86,1.5));
#1285=CARTESIAN_POINT('',(70.3,43.86,1.5));
#1286=CARTESIAN_POINT('',(70.3,-50.05,1.5));
#1287=CARTESIAN_POINT('',(70.3,-50.05,1.5));
#1288=CARTESIAN_POINT('',(72.1,-50.05,1.5));
#1289=CARTESIAN_POINT('',(70.3,-50.05,1.5));
#1290=CARTESIAN_POINT('',(23.43,-50.05,1.5));
#1291=CARTESIAN_POINT('',(23.43,-50.05,1.5));
#1292=CARTESIAN_POINT('',(25.23,-50.05,1.5));
#1293=CARTESIAN_POINT('',(23.43,-50.05,1.5));
#1294=CARTESIAN_POINT('',(-23.44,-50.05,1.5));
#1295=CARTESIAN_POINT('',(-23.44,-50.05,1.5));
#1296=CARTESIAN_POINT('',(-21.64,-50.05,1.5));
#1297=CARTESIAN_POINT('',(-23.44,-50.05,1.5));
#1298=CARTESIAN_POINT('',(-70.31,-50.05,1.5));
#1299=CARTESIAN_POINT('',(-70.31,-50.05,1.5));
#1300=CARTESIAN_POINT('',(-68.51,-50.05,1.5));
#1301=CARTESIAN_POINT('',(-70.31,-50.05,1.5));
#1302=CARTESIAN_POINT('',(88.75,0.,0.));
#1303=CARTESIAN_POINT('',(88.75,-16.4,-200.07071709251));
#1304=CARTESIAN_POINT('',(88.75,5.12,0.));
#1305=CARTESIAN_POINT('',(88.75,-40.96,-48.6192192260095));
#1306=CARTESIAN_POINT('',(88.75,-22.36,0.));
#1307=CARTESIAN_POINT('',(3.30959188761445E-15,-22.36,0.));
#1308=CARTESIAN_POINT('',(-88.75,-22.36,0.));
#1309=CARTESIAN_POINT('',(0.,5.12,0.));
#1310=CARTESIAN_POINT('',(-88.75,5.12,0.));
#1311=CARTESIAN_POINT('',(-88.75,-41.46,0.));
#1312=CARTESIAN_POINT('',(-88.75,-16.9,0.));
#1313=CARTESIAN_POINT('',(-88.75,20.13,0.));
#1314=CARTESIAN_POINT('',(13.79,55.05,-30.1867176675636));
#1315=CARTESIAN_POINT('',(-48.21,52.77,0.));
#1316=MECHANICAL_DESIGN_GEOMETRIC_PRESENTATION_REPRESENTATION('',(#797),
#1317);
#1317=(
GEOMETRIC_REPRESENTATION_CONTEXT(3)
GLOBAL_UNCERTAINTY_ASSIGNED_CONTEXT((#1318))
GLOBAL_UNIT_ASSIGNED_CONTEXT((#1321,#1320,#1319))
REPRESENTATION_CONTEXT('22_FDML_stimfix_Badal_stage_cover_top',
'TOP_LEVEL_ASSEMBLY_PART')
);
#1318=UNCERTAINTY_MEASURE_WITH_UNIT(LENGTH_MEASURE(0.005),#1321,
'DISTANCE_ACCURACY_VALUE','Maximum Tolerance applied to model');
#1319=(
NAMED_UNIT(*)
SI_UNIT($,.STERADIAN.)
SOLID_ANGLE_UNIT()
);
#1320=(
NAMED_UNIT(*)
PLANE_ANGLE_UNIT()
SI_UNIT($,.RADIAN.)
);
#1321=(
LENGTH_UNIT()
NAMED_UNIT(*)
SI_UNIT(.MILLI.,.METRE.)
);
#1322=PRODUCT_DEFINITION_SHAPE('','',#1323);
#1323=PRODUCT_DEFINITION('','',#1325,#1324);
#1324=PRODUCT_DEFINITION_CONTEXT('',#1331,'design');
#1325=PRODUCT_DEFINITION_FORMATION_WITH_SPECIFIED_SOURCE('','',#1327,
 .NOT_KNOWN.);
#1326=PRODUCT_RELATED_PRODUCT_CATEGORY('','',(#1327));
#1327=PRODUCT('22_FDML_stimfix_Badal_stage_cover_top',
'22_FDML_stimfix_Badal_stage_cover_top',
'22_FDML_stimfix_Badal_stage_cover_top',(#1329));
#1328=PRODUCT_CATEGORY('','');
#1329=PRODUCT_CONTEXT('',#1331,'mechanical');
#1330=APPLICATION_PROTOCOL_DEFINITION('international standard',
'automotive_design',2010,#1331);
#1331=APPLICATION_CONTEXT(
'core data for automotive mechanical design processes');
ENDSEC;
END-ISO-10303-21;
